<?xml version="1.0" encoding="utf-8"?>
<COLLADA xmlns="http://www.collada.org/2005/11/COLLADASchema" version="1.4.1" xmlns:xsi="http://www.w3.org/2001/XMLSchema-instance">
  <asset>
    <contributor>
      <author>Blender User</author>
      <authoring_tool>Blender 4.0.2 commit date:2023-12-05, commit time:07:41, hash:9be62e85b727</authoring_tool>
    </contributor>
    <created>2024-01-15T15:13:40</created>
    <modified>2024-01-15T15:13:40</modified>
    <unit name="meter" meter="1"/>
    <up_axis>Z_UP</up_axis>
  </asset>
  <library_cameras>
    <camera id="Camera-camera" name="Camera">
      <optics>
        <technique_common>
          <perspective>
            <xfov sid="xfov">39.59775</xfov>
            <aspect_ratio>1.777778</aspect_ratio>
            <znear sid="znear">0.1</znear>
            <zfar sid="zfar">100</zfar>
          </perspective>
        </technique_common>
      </optics>
      <extra>
        <technique profile="blender">
          <shiftx sid="shiftx" type="float">0</shiftx>
          <shifty sid="shifty" type="float">0</shifty>
          <dof_distance sid="dof_distance" type="float">10</dof_distance>
        </technique>
      </extra>
    </camera>
  </library_cameras>
  <library_lights>
    <light id="Light-light" name="Light">
      <technique_common>
        <point>
          <color sid="color">1000 1000 1000</color>
          <constant_attenuation>1</constant_attenuation>
          <linear_attenuation>0</linear_attenuation>
          <quadratic_attenuation>0</quadratic_attenuation>
        </point>
      </technique_common>
      <extra>
        <technique profile="blender">
          <type sid="type" type="int">0</type>
          <flag sid="flag" type="int">0</flag>
          <mode sid="mode" type="int">1</mode>
          <red sid="red" type="float">1</red>
          <green sid="green" type="float">1</green>
          <blue sid="blue" type="float">1</blue>
          <shadow_r sid="blender_shadow_r" type="float">0</shadow_r>
          <shadow_g sid="blender_shadow_g" type="float">0</shadow_g>
          <shadow_b sid="blender_shadow_b" type="float">0</shadow_b>
          <energy sid="blender_energy" type="float">1000</energy>
          <spotsize sid="spotsize" type="float">75</spotsize>
          <spotblend sid="spotblend" type="float">0.15</spotblend>
          <clipsta sid="clipsta" type="float">0.04999995</clipsta>
          <clipend sid="clipend" type="float">30.002</clipend>
          <bias sid="bias" type="float">1</bias>
          <radius sid="radius" type="float">0.1</radius>
          <area_shape sid="area_shape" type="int">1</area_shape>
          <area_size sid="area_size" type="float">0.1</area_size>
          <area_sizey sid="area_sizey" type="float">0.1</area_sizey>
          <area_sizez sid="area_sizez" type="float">1</area_sizez>
        </technique>
      </extra>
    </light>
  </library_lights>
  <library_effects>
    <effect id="Part__Feature_007-effect">
      <profile_COMMON>
        <technique sid="common">
          <lambert>
            <emission>
              <color sid="emission">0 0 0 1</color>
            </emission>
            <diffuse>
              <color sid="diffuse">1 0 0 1</color>
            </diffuse>
            <index_of_refraction>
              <float sid="ior">1.45</float>
            </index_of_refraction>
          </lambert>
        </technique>
      </profile_COMMON>
    </effect>
  </library_effects>
  <library_images/>
  <library_materials>
    <material id="Part__Feature_007-material" name="Part__Feature.007">
      <instance_effect url="#Part__Feature_007-effect"/>
    </material>
  </library_materials>
  <library_geometries>
    <geometry id="Part__Feature_007-mesh" name="Part__Feature.007">
      <mesh>
        <source id="Part__Feature_007-mesh-positions">
          <float_array id="Part__Feature_007-mesh-positions-array" count="1152">-5.50655e-4 0.03654748 -0.002015888 -0.002157032 0.04207414 -0.0133208 0.004623413 0.04362851 -0.0193848 -0.005705952 0.04340106 -0.01703405 -0.004106104 0.03786432 -0.004454851 -0.01121789 0.04349112 -0.01816833 -0.002864658 0.04312247 -0.02301466 -0.01259452 0.04217112 -0.005280315 -0.01450723 0.04349029 -0.01166957 9.64245e-4 0.04090446 -0.02672439 -0.01859122 0.04349434 -0.001829028 -0.01183277 0.0374509 -0.02686524 -0.01579105 0.0415259 -0.0206871 -0.006329834 0.0364747 -0.02938336 -0.01859188 0.03949368 -0.02090054 -0.01344662 0.04213142 0.002376317 -0.02257454 0.04072338 -0.01464569 0.001113653 0.03340297 -0.03163349 -0.01855796 0.03382539 -0.02534222 -0.01377946 0.04347503 0.01286447 -0.01137322 0.04258865 0.009908974 -0.004304647 0.03771632 0.003798186 -0.02396637 0.0342229 -0.02007144 -0.02689385 0.03962165 -0.007194697 -0.02407258 0.0422492 -0.007107734 -0.01154351 0.0313853 -0.03037136 -5.45748e-4 0.03780949 0.005925595 -0.00535047 0.02880781 -0.03296363 -0.02787899 0.03396761 -0.01439315 -0.02515345 0.04213571 0.002641975 -0.005334734 0.0216934 -0.03447079 0.002026677 0.02547341 -0.03427731 -0.02011585 0.0259087 -0.02765697 -0.003651976 0.04217392 0.01310968 0.002273619 0.04230344 0.01383405 -0.02654379 0.03960043 0.008557677 -0.02529466 0.02595061 -0.02299284 0.002349674 0.04348349 0.01843857 -0.02922713 0.02670097 -0.01738435 -0.02341085 0.04169088 0.01064777 -0.02329355 0.03779023 0.01753395 0.002743065 0.04342383 0.02172654 -0.008320271 0.01750278 -0.03420102 -0.01921027 0.03779041 0.02193224 -0.027857 0.03386157 0.01455819 0.002298772 0.04255402 0.02439314 -0.005398154 0.04124528 0.02579039 0.001192331 0.0403375 0.02717083 -0.004996955 0.01001054 -0.03427457 5.58204e-5 0.007477998 -0.03424161 -0.01599806 0.0329104 0.02766442 4.41996e-5 0.03694504 0.0296688 -0.0244525 0.02860414 0.02299726 -0.0276581 0.02592116 0.02011185 -0.03145182 0.02511763 0.01398003 -0.005943238 -0.001590073 -0.03108662 -0.004629671 0.033697 0.03119671 -0.0200209 0.02598732 0.02771002 -0.01249045 0.02656906 0.03167164 -0.007059037 0.02838659 0.0328148 -0.005416095 0.02199083 0.03442126 0.001149535 0.02814579 0.03368437 -0.006207168 -0.01325792 -0.02490091 -0.008213222 0.0180512 0.03421819 2.39283e-4 0.01777613 0.03513658 -0.005046606 0.01000899 0.03427141 0.001769304 0.00976485 0.03463196 -0.00550884 -0.01831763 -0.02104616 7.60664e-4 -0.02451217 -0.01515513 -0.005935966 -0.001528978 0.03111964 -0.005551636 -0.0238381 -0.01511275 -0.005467891 -0.02580899 -0.0113027 -0.01158338 -0.01959538 -0.01716399 -0.01286941 -0.0240913 -0.009124755 -0.006090879 -0.02635407 -0.008248209 0.001025676 -0.02607202 -0.006914734 -0.01716393 -0.01990777 -0.01097744 -0.01184248 -0.02550595 -0.006151378 -0.003599524 -0.02586078 -0.004960596 -0.001505792 -0.02333527 -0.001121819 -7.43296e-4 -0.001351952 0.03171205 -0.01453399 -0.02496194 -2.19105e-4 -0.008212387 -0.02630853 -0.001699745 -0.004846632 -0.02522319 -3.16971e-4 -0.006443202 -0.01401656 0.02433699 8.76917e-4 -0.01486885 0.02465683 -0.0122193 -0.02424597 0.009802222 -0.009908199 -0.02580672 0.007928848 -0.01063644 -0.0196923 0.01755738 -0.006544828 -0.02639216 0.006096363 -0.004689931 -0.02245467 0.01726245 -0.004400551 -0.0258401 0.01158034 -0.003369688 -0.02552384 0.004239439 0.001095354 -0.02387154 0.01596993 5.3082e-4 -0.02545797 0.01335388 6.31475e-4 -0.02582466 0.00605154 -1.21045e-4 -0.02637749 0.009790122 -1.72002e-4 -0.02360975 0.002210736 -1.57043e-5 -0.0217027 5.8595e-5 -0.001574337 0.0367757 -0.002984464 3.6864e-4 0.03758913 -0.005569934 -0.004405379 0.03711318 -9.90545e-4 -0.01410841 0.04289603 -0.01908046 -0.007255196 0.04202187 -0.02443039 -0.0182147 0.04342043 -0.01201415 -0.02069133 0.04276734 -0.01232171 -0.02212995 0.04345685 0.001189708 1.00484e-4 0.03671264 0.003138005 -0.01053208 0.04356193 0.01835697 -0.01979732 0.04314744 0.01195144 -0.02971321 0.03698742 -0.001520872 -0.02024281 0.0422008 0.01485472 2.28673e-4 0.01775228 -0.03512769 -0.0312066 0.03163325 -0.008616805 -0.03132623 0.03235793 0.007306873 -0.01619881 0.04220271 0.01918798 -0.006978392 0.04298388 0.02246642 -0.03308278 0.02979314 1.19646e-6 -0.03351742 0.02577912 -0.0067631 -0.01190412 0.0409851 0.02389055 -0.01738148 0.02088636 -0.03042894 -0.017645 0.01562637 -0.03038036 -0.02492439 0.01576375 -0.0249235 -0.03370565 0.02581006 0.005895912 -0.02981543 0.01718831 -0.01870536 -0.03465145 0.02319413 -0.002307295 -0.03232377 0.02367734 -0.01267409 -0.03211611 0.01150774 -0.0135765 -0.008806645 0.0355013 0.02918577 -0.03438729 0.01288527 -0.006726682 -0.03503781 0.01421707 0.001537442 -0.03460711 0.01884549 0.006296634 -0.03211617 0.01150774 0.01357889 -0.02981549 0.01718825 0.01870775 -0.03417509 0.007166802 1.19686e-6 -0.0336557 0.00922358 0.007965922 -0.02534002 0.01517462 0.02443414 -0.02025675 0.01714366 0.02887332 -0.01908171 -0.006878018 -0.02227491 -0.03313535 0.006755352 -0.007843196 -0.01614469 0.02232563 0.03087246 8.53623e-4 -0.01476967 -0.02473413 -0.0245856 0.002795457 -0.02218234 -0.02448707 -0.007596254 -0.01552063 -0.03002518 0.003384292 -0.01442879 -0.03069752 -0.002693772 -0.005413115 -0.02665662 -0.01196461 -0.001114368 -0.03130704 -0.00103563 0.005690872 -0.02787208 -0.008304059 0.006651699 -0.03002518 0.003384351 0.01443129 -0.02448964 -0.00759226 0.01552265 -0.02458596 0.002796649 0.02218478 -0.0194168 -0.006291151 0.02237397 -0.02351599 -0.01544213 0.005448341 -0.01811885 -0.02146464 -0.004757285 -0.01835328 -0.02169936 0.002914488 -0.01086699 -0.02627015 -8.0036e-4 -0.002055823 -0.02377176 0.001278162 -0.003261923 0.03673332 5.35021e-5 -0.002233862 0.03673583 0.002298355 -0.01296174 0.02637034 -0.03155314 -0.0117827 0.01438772 -0.03306531 -0.01392263 0.01013362 -0.03173935 -0.01117879 0.006432592 -0.0320903 -0.00103873 -0.002170085 -0.03134685 -0.01401054 1.8818e-4 -0.02903592 -0.01155912 -0.007171809 -0.02676802 -0.01226717 0.01392084 0.03283286 -0.01392269 0.01013368 0.03174167 -0.0273149 -0.008189857 -0.008478105 -0.0111823 0.0064314 0.03209 -0.01687663 0.001631736 0.02802109 -0.02398705 -0.01347041 -0.008995354 -0.02215528 -0.01317799 0.01322495 -0.01195865 -0.005589008 0.02749419 -0.001653432 0.03654283 -0.001014053 -7.82133e-4 0.03652143 0.001462996 -0.02048152 0.01125085 -0.02820134 -0.0291233 0.007122933 -0.01782482 -0.02725279 0.01198309 -0.0217995 -0.02017033 0.002387106 -0.02608019 -0.02912336 0.007122457 0.01782697 -0.02725285 0.01198309 0.02180188 -0.01403909 -0.01285821 -0.02188235 -0.01993429 0.00958836 0.02824336 -0.02157598 0.002722263 0.02500462 -0.01974034 -0.01399618 -0.01557344 -0.01630645 -0.01357144 0.01958429 -0.01244622 -0.01296752 0.02266782 -0.01713347 -0.01990604 0.01112294 5.95584e-4 0.03651922 0.001532614 -1.70615e-4 0.03947246 8.13337e-4 3.50026e-4 0.03964632 -0.002908408 7.93003e-4 0.05293244 -0.004952549 3.36614e-7 0.05597281 -0.006464064 -5.87907e-4 0.05362254 -0.005259156 9.59285e-4 0.03855651 7.88547e-4 0.001768827 0.03760933 -7.49279e-5 0.001404643 0.03654229 -0.00138843 9.41239e-4 0.05080169 -0.007370531 0.001343071 0.05557662 -0.006889462 4.1994e-4 0.05140691 -0.007935166 2.9742e-4 0.05347609 -0.009179711 0.001608133 0.03652751 6.73803e-4 0.001759231 0.03654551 -6.77343e-4 0.001293003 0.04049581 -0.002723872 5.27491e-4 0.04481321 -0.0011307 0.001124322 0.04180395 -3.59083e-4 6.59361e-4 0.04858362 -0.002756237 8.58287e-4 0.04495888 -0.004712939 0.001812756 0.04641717 -0.00394535 0.00131458 0.04784631 -0.005581736 0.001498878 0.04729861 -0.002891719 0.001691102 0.05022519 -0.004646241 0.001734435 0.05068987 -0.006254792 0.001775264 0.05499178 -0.007519662 0.00168699 0.05420124 -0.008387148 0.001682698 0.04188579 -0.001124918 0.001797914 0.04147583 -0.002005279 0.01319909 0.04253411 0.007376015 0.01564341 0.04348433 0.01067882 0.008627712 0.0393126 1.98654e-5 0.01457583 0.04263597 -0.003912687 0.006963729 0.03734004 0.02867203 0.008875727 0.04168546 0.02419829 0.01880729 0.04355764 -0.004279494 0.01402658 0.03919297 0.02438485 0.004396259 0.03790289 -0.004204094 0.007694721 0.04218959 -0.01154875 0.01995897 0.03957915 0.01957839 0.01359564 0.04348641 -0.01301735 0.01178133 0.03186398 0.0301637 0.02489471 0.0339564 0.01907789 0.01912385 0.03355312 0.02509385 0.02608472 0.04105722 0.005016803 0.02909487 0.03415113 0.01160192 0.0266332 0.04088109 -0.003183186 0.005844056 0.02021092 0.03461664 0.01050543 0.02299743 0.03306639 0.0311194 0.03357505 0.005219757 0.02434939 0.04067736 -0.01149326 0.03121572 0.03388249 -0.004231452 0.02695047 0.02595102 0.02105444 0.02111935 0.02605736 0.02690756 0.0231626 0.03818893 -0.01722288 0.02854388 0.03367823 -0.01328897 0.03107029 0.02594566 0.01430761 0.01552319 0.03952932 -0.02321535 0.01552689 0.04171156 -0.02050668 0.03361111 0.02594083 0.006390392 0.02352422 0.03429043 -0.02058082 0.03470677 0.02360767 -0.002371847 0.033634 0.0259577 -0.006242454 0.00819981 0.03770947 -0.02802461 0.03113555 0.02594447 -0.01416313 0.01874113 0.03303402 -0.02564972 0.02704644 0.02591955 -0.02094101 0.006558597 0.002324759 0.03230088 0.02115964 0.02613919 -0.02685558 0.01037859 0.02687847 -0.03242659 0.004369616 -0.004754781 0.02991843 0.004032492 0.008034765 -0.03420627 0.004512131 -0.02065908 0.01906996 0.009606361 -5.19829e-4 -0.03055644 0.006855428 -0.02592581 0.01029258 0.008824586 -0.02311491 0.01458698 0.01424741 -0.02390784 0.00733298 0.01560467 -0.0199213 0.01316642 0.003694593 -0.00417608 -0.03027844 0.01277428 -0.02546066 0.004120826 0.02008998 -0.01909106 0.006652116 0.005504965 -0.02602148 0.004036188 0.01703852 -0.02301245 -0.002504765 0.008602559 -0.0263164 0.001556515 0.002676963 -0.02427631 0.001623332 0.0119962 -0.02585607 -0.003157079 0.01365041 -0.02391713 -0.008209168 0.01561617 -0.01979482 -0.01331728 0.005350649 -0.02552932 6.41695e-4 0.009864628 -0.025797 -0.007778525 0.008671522 -0.02307611 -0.01472812 0.004454553 -0.02551168 -0.003066539 0.004909276 -0.02639085 -0.00787729 0.00388211 -0.02588617 -0.01184695 0.001769959 -0.02334678 -7.76709e-4 0.004524767 -0.02063423 -0.01908963 4.06897e-4 -0.02463805 -0.003633737 0.003504455 0.03780478 0.004824399 0.005371034 0.0414012 0.01096117 0.005574703 0.0375638 6.46765e-4 0.01223933 0.04312068 0.01970523 0.01858943 0.0433551 0.01281762 0.01686823 0.04176861 0.01943457 0.02196991 0.04344058 -6.37142e-4 0.001450359 0.03682959 -0.003287017 0.02333784 0.04131358 0.01220786 0.02396798 0.04286074 0.001910269 0.02116942 0.04307878 -0.01025593 0.01557296 0.02888315 0.02952617 0.0127815 0.0433833 -0.01842826 0.01954424 0.04214113 -0.01590538 0.007757067 0.04251921 -0.02346855 0.01463741 0.03122997 -0.02917009 0.02464574 0.01725447 0.02517694 0.02974754 0.01700943 0.01888662 0.01354289 0.0167827 0.03248411 0.01455688 0.007454633 0.03093117 0.009174406 0.01242899 0.03371256 0.03281497 0.01778745 0.01271229 0.02053809 0.01390385 0.0283972 0.03455072 0.0138182 0.006079316 0.03522276 0.01679015 0.002365767 0.03455072 0.0138182 -0.006076872 0.03281497 0.01778745 -0.01270991 0.02974748 0.01700937 -0.0188843 0.02464592 0.01725399 -0.02517431 0.02642625 0.001989781 0.0194832 0.02686846 -0.004591882 0.01425379 0.02887707 -0.005664825 0.007935285 0.008284747 -0.01273095 0.02474933 0.007620573 0.01523774 -0.03441232 0.02772903 -0.009391367 0.003686249 0.01354265 0.0167638 -0.03248095 0.01554095 0.006042361 -0.03017705 0.02053844 0.01390463 -0.02839452 0.03074032 -0.003810465 1.19774e-6 0.02887713 -0.005664825 -0.007932841 0.02694952 -0.004205942 -0.01447212 0.01229172 -0.01480436 0.02128243 0.00640124 -0.02628058 0.008582293 0.01076531 -0.02629405 8.55955e-4 0.008280158 -0.01271718 -0.02475887 0.0122891 -0.01480561 -0.02128064 0.002324461 0.03674465 0.002323448 0.003249824 0.03673785 -7.671e-4 0.01651316 0.02111858 0.03087842 0.02183675 0.01013338 0.02691942 0.01930212 0.00626403 0.02792805 0.01651287 0.02110272 -0.03087812 0.01024472 -0.003403544 0.02911418 0.01465439 -0.002860128 0.02743631 0.02183675 0.01013338 -0.02691704 0.02154111 -0.007196843 0.01971054 0.01602137 -0.007721602 0.02397668 0.0207864 0.003773331 -0.02611011 0.01711559 -0.0130676 0.01929444 0.02192121 -0.01223015 0.01464462 0.02454578 -0.01387637 0.006066858 0.01753151 -0.007770776 -0.0229299 0.02334445 -0.01461237 -0.008318543 0.02709686 -0.01089614 -0.002266347 0.01711553 -0.01306766 -0.01929205 0.0149582 -0.003752589 -0.02681767 0.02192121 -0.01223015 -0.01464217 0.02700841 0.00953418 0.02158755 0.02276581 0.002273678 0.02377933 0.02700841 0.009534239 -0.02158516 0.02623653 0.004175841 -0.0206893 0.02287334 -0.01691728 -0.001916646 0.0311414 0.007897257 0.01446384 0.03004157 0.00781399 -0.01647436 0.03355097 0.007476627 0.006870329 0.03265661 0.007798135 -0.0105583 0.02329075 -0.004510641 -0.01961904 0.03397595 0.006548821 -0.002055466 -7.78087e-4 0.03909653 -0.002630531 -0.00179696 0.03655511 1.48465e-4 -0.001568615 0.03653305 7.09923e-4 -0.001823246 0.0391227 -0.001099586 -0.001776516 0.04419749 -0.003131091 -0.001747727 0.05014443 -0.005937337 -0.001415073 0.05132496 -0.004638314 -5.24605e-4 0.05038654 -0.007355153 -0.001251101 0.05382007 -0.008788883 -0.001456737 0.05550587 -0.006966888 -0.001192748 0.03970456 2.84087e-4 -6.11475e-4 0.04395502 -0.004404485 -0.001504898 0.04070919 -0.002491772 -0.001664042 0.04279792 -0.001408636 -0.001313924 0.04784625 -0.005581736 -0.001342117 0.04760515 -0.002830088 -5.53125e-4 0.04606324 -0.001612365 -0.001802384 0.0488727 -0.004459977 -0.001826584 0.05463701 -0.007914006</float_array>
          <technique_common>
            <accessor source="#Part__Feature_007-mesh-positions-array" count="384" stride="3">
              <param name="X" type="float"/>
              <param name="Y" type="float"/>
              <param name="Z" type="float"/>
            </accessor>
          </technique_common>
        </source>
        <source id="Part__Feature_007-mesh-normals">
          <float_array id="Part__Feature_007-mesh-normals-array" count="2292">0.4024826 0.8556346 0.3254188 0.1126073 0.9792544 0.1684654 -0.03650748 0.8406757 -0.540307 -0.1210901 0.6498071 -0.7503919 0.2763361 0.9542415 0.114288 -0.3277537 0.6784524 -0.65748 -0.4021032 0.6245211 -0.669542 0.232293 0.9721551 0.03089374 -0.4977419 0.7344617 -0.4613233 -0.4543836 0.5477538 -0.7024965 0.3369432 0.9351812 -0.1091116 0.2129895 0.9699634 -0.1175011 -0.5864378 0.4974195 -0.6392688 -0.6511783 0.7082124 -0.2727674 -0.417209 0.4398115 -0.7953003 -0.6382214 0.5692519 -0.5182912 -0.7057877 0.5368883 -0.4621848 -0.7293087 0.6826742 -0.04544079 -0.4682905 0.3259622 -0.8212507 -0.4707673 0.3316798 -0.8175369 0.129632 0.9738582 -0.1865365 -0.7785651 0.6219733 0.08358025 -0.6419816 0.344909 -0.6847609 -0.6303579 0.329559 -0.7028796 0.1272053 0.9204924 -0.3694763 0.00918883 0.9686172 -0.2483877 -0.754028 0.3230471 -0.5719113 -0.7764176 0.3576402 -0.5189116 -0.6831215 0.5797149 0.4441574 -0.6446809 0.669772 0.3684998 -0.5381377 0.6771194 0.5019135 -0.538449 0.6783893 0.4998606 -0.7332118 0.5643836 0.3793044 -0.01968812 0.9514816 0.3070755 -0.4513071 0.6727011 0.5863404 -0.4325292 0.5523507 0.71262 -0.08146393 0.608695 0.7892112 -0.7208276 0.4192139 0.5519668 -0.656261 0.4451331 0.6092439 -0.5928949 0.4181291 0.6882178 -0.8264464 0.3086352 0.4708827 -0.7715223 0.3515396 0.5302578 -0.5817987 0.3429268 0.7375035 -0.4641691 0.2752631 0.8418892 -0.02248537 -0.7008115 -0.7129921 -0.1025084 -0.2309649 0.9675471 -0.09754884 -0.8848409 -0.4555667 -0.379751 -0.780197 -0.4970733 -0.4950975 -0.7221644 -0.4830704 -0.3221449 -0.8437258 -0.4293593 -0.3029337 -0.8969249 -0.3221133 0.01329118 -0.9902712 0.1385151 0.1356354 -0.8981978 0.4181432 0.09099769 -0.8540222 0.5122166 -0.5690554 -0.8012876 -0.1847007 0.1309737 -0.9901584 0.04931801 0.2286572 -0.9542996 0.1924272 0.5214148 -0.8152562 0.2519605 -0.4548583 -0.8746603 0.1675511 -0.4859657 -0.7067314 0.5141673 -0.009335577 -0.69446 0.7194707 0.3362047 -0.9382147 -0.08197444 -0.3364274 -0.780476 0.5269477 -0.2788557 -0.8311812 0.481017 -0.2693406 -0.8768464 0.3982411 0.1921554 -0.9731786 -0.1264905 -0.08802092 -0.8432058 0.5303363 0.5496395 -0.8027941 -0.2311236 -0.1149786 -0.8559474 0.504117 0.07277733 -0.9454161 -0.3176352 0.07734441 -0.988414 -0.1305972 -0.01585739 -0.9674593 0.2525295 0.2722021 -0.8762246 -0.397664 0.1720409 -0.8373594 -0.5188749 0.005073845 0.9745149 0.2242656 0.01403945 0.9507438 0.3096599 0.1666532 0.8760072 0.4525904 -0.09066087 0.9071926 0.4108313 0.4230556 0.8772715 0.226757 0.5014845 0.8630637 0.06028616 -0.001868426 0.996103 0.08817797 -0.01663607 0.9944044 -0.1043233 0.01477199 0.999862 0.00761044 0.4468914 0.8863621 -0.1210388 -0.1127402 0.9570447 -0.2671241 -0.1313857 0.9377409 -0.3215271 -0.01799029 0.9997979 -0.008969068 -0.2296118 0.6266378 -0.7447171 -0.1504269 0.9756173 -0.1598212 -0.01808798 0.999805 -0.007924437 -0.2518573 0.8505815 -0.461605 -0.3716548 0.8616526 -0.3455829 -0.226171 0.9528811 -0.2021494 0.4502089 0.8751955 -0.1770448 -0.01734232 0.9998185 -0.007896244 -0.4302465 0.8216084 -0.3739619 -0.5367128 0.7998799 -0.2685731 -0.298101 0.4669929 -0.8324984 -0.2120856 0.3911226 -0.8955685 0.2237481 0.8729054 -0.4335584 -0.007414579 0.9999656 0.003742754 -0.263693 0.2912741 -0.919579 -0.6789165 0.7311748 -0.06675165 0.1138658 0.9900252 -0.08297485 0.0429039 0.8619838 -0.5051171 0.2265253 0.8722484 -0.4334387 -0.8685743 0.4404622 -0.2270943 -0.7439615 0.571174 -0.3468166 -0.07570183 0.9961128 0.04504114 -0.4317395 0.8749932 0.2190617 -0.03412383 0.1172592 -0.9925149 -0.6257107 0.7593828 0.1783933 -0.8027431 0.5449165 -0.242218 -0.2779379 0.9250313 0.2589743 -0.1964522 0.9549667 0.2223629 -0.9087848 0.4019462 -0.1120247 0.006213068 0.9997906 -0.0194956 -0.820763 0.4917739 0.2907003 -0.8377072 0.5314701 0.1256432 0.005979478 0.9998302 0.01743298 -0.9193892 0.2733472 -0.2828514 -0.8733431 0.3129812 -0.3732489 -0.871747 0.3158916 -0.3745258 -0.182761 0.9393548 0.2901912 -0.8985273 0.4342904 0.0635668 -0.2281599 0.8715273 0.4340314 -0.03194719 0.9855628 0.1662693 -0.9355319 0.3268923 -0.133872 -0.632544 0.0245428 -0.7741355 -0.6641957 0.1158277 -0.7385311 -0.5912072 0.003757178 -0.806511 -0.6253707 0.08748888 -0.7754079 -0.0603013 0.8724349 0.484996 -0.0213195 0.7855857 0.6183855 -0.7882935 -0.0225901 -0.6148846 -0.8035176 0.130358 -0.5808324 -0.7724823 0.09103333 -0.6284776 -0.9608376 0.260991 -0.09313923 -0.9200705 0.2740094 0.2799805 -0.9413346 0.3173015 0.1149304 -0.87472 0.3365604 0.3487005 -0.863402 0.1214046 -0.4896918 -0.9179176 0.01374566 -0.396533 -0.9752806 0.2166763 0.04335135 -0.2467064 0.5974372 0.7630234 -0.3554414 0.5375786 0.7646377 -0.9487246 0.007249116 -0.3160209 -0.9741517 0.06745851 -0.215587 -0.9747845 0.0547778 -0.2163205 -0.9967683 0.008693218 -0.07985925 -0.3016832 0.307425 0.9024839 -0.9886282 0.1321004 0.07186061 -0.9977512 0.05761033 0.03425931 -0.9507697 0.1389997 0.2769765 -0.3103606 0.3791898 0.8717175 -0.2970684 0.4000814 0.8669979 -0.9254187 0.03404611 0.3774138 -0.9342187 0.03513771 0.3549662 -0.8508049 0.1282517 0.5095905 -0.9846289 -0.1424886 0.1010108 -0.9922768 -0.108195 -0.06066846 -0.7695032 0.08840554 0.6324946 -0.7923228 -0.02779048 0.609469 -0.7180575 0.1207904 0.6854219 -0.6920356 0.1122593 0.7130811 -0.6792997 0.1223135 0.7235962 -0.9850552 -0.07011198 0.157323 -0.9767401 -0.1776016 -0.1201515 -0.5549954 0.1230249 0.8227061 -0.1024847 -0.4742985 -0.8743786 -0.636792 -0.3557642 -0.6840525 -0.6977712 -0.3912635 -0.6000236 -0.7812508 -0.3421123 -0.5221171 -0.02055144 0.1404284 0.9898775 -0.8433374 -0.3884152 -0.3713704 -0.0788545 -0.4655466 -0.8815035 -0.9118057 -0.3057313 -0.2741148 -0.8768864 -0.365724 -0.3119556 -0.954833 -0.2751742 -0.1121297 -0.9181498 -0.3961365 0.008758842 -0.9604513 -0.2479669 0.126672 -0.9055427 -0.4204805 0.05646854 -0.94346 -0.3314785 -0.00228548 -0.9228926 -0.2717689 0.2727837 -0.1125309 -0.6119498 -0.78285 -0.8733297 -0.3709906 0.3156915 -0.8484445 -0.3925719 0.3550059 -0.7812571 -0.342073 0.5221338 -0.7039412 -0.3880197 0.5949015 -0.08244538 -0.7293345 -0.6791716 -0.271631 -0.7036187 -0.6566106 -0.6444384 -0.3524321 0.6785948 -0.5620427 -0.3529559 0.7480176 -0.8384116 -0.5317894 0.11944 -0.02866655 -0.9324281 -0.3602167 -0.01855897 -0.9836159 -0.1793189 -0.7512407 -0.6586193 -0.04310768 -0.7623332 -0.6324321 -0.1373962 -0.7658721 -0.6424639 0.02608191 -0.218559 -0.9519652 -0.2144626 0.3103161 -0.7265165 0.6130887 -0.5576512 -0.8095664 -0.1833778 -0.6054095 -0.7452362 -0.2794682 -0.6691436 -0.7418797 -0.04314619 -0.1828559 -0.9773819 -0.1062474 -0.0843113 -0.4689929 0.8791686 -0.01359099 -0.9999045 0.002549886 -0.09328824 -0.4722827 0.8764967 -0.5464134 -0.8169243 0.184573 -0.6007274 -0.7577558 0.2548193 -0.01686483 -0.9998325 -0.00711435 -0.108689 -0.6518304 0.7505357 -0.1353627 -0.9885047 0.06734716 -0.09687829 -0.9858062 0.1371166 -0.07097101 -0.9893166 0.1273412 0.1554089 0.9028705 0.4008403 0.27089 0.9356407 0.2262635 0.4117636 0.9030333 -0.1224003 0.3306072 0.931376 -0.1524398 -0.02719944 0.5470028 -0.8366889 -0.1048302 0.4097642 -0.9061478 0.1778978 0.9179707 -0.3545171 0.1303504 0.9325451 -0.3367024 -0.2454874 0.9664587 -0.07545483 -0.2665735 0.9607012 -0.07740592 -0.4143478 0.9094319 -0.03534752 -0.02741354 0.3133367 -0.9492464 -0.3559221 0.9287284 0.1038427 -0.2402668 0.2006696 -0.9497387 -0.08035743 0.2064087 -0.9751606 -0.4132032 0.8998219 0.1399408 -0.2791244 0.1376734 -0.9503344 -0.3527146 0.09339809 -0.9310581 -0.3809389 0.01054972 -0.9245401 -0.395296 0.1067579 -0.9123288 -0.03624206 -0.08526438 -0.9956991 -0.1066083 -0.03753376 -0.9935925 -0.18609 0.8315218 0.5233949 -0.2717801 -0.159123 -0.949113 -0.1209726 -0.2538489 -0.959649 -0.1459858 0.5661786 0.8112521 -0.1296056 0.5686171 0.8123281 0.008160114 0.416001 0.9093276 -0.08361351 -0.2776551 -0.9570353 -0.2975015 -0.3072357 -0.9039354 -0.9477847 -0.1415181 -0.2857914 -0.09001439 0.3277463 0.9404679 -0.9214641 -0.2023944 -0.3315728 -0.9584408 -0.04592663 0.2815705 -0.09642803 0.2190982 0.9709262 -0.2578261 0.1725471 0.9506593 -0.3048372 -0.3717305 -0.8768641 -0.2748 0.1461241 0.9503331 -0.3344779 0.1117969 0.9357489 -0.2142081 -0.4537385 -0.8650065 -0.9204924 -0.2018256 0.3346048 -0.2728112 -0.1543473 0.9496057 -0.109115 -0.03638553 0.9933631 -0.2404018 -0.08825641 0.9666529 -0.05529725 -0.07328033 0.9957773 -0.8040514 -0.4712126 -0.3625744 -0.06026256 -0.258708 0.964074 -0.3208107 -0.3200965 0.891414 -0.7009718 -0.6590493 -0.2725666 -0.8065263 -0.4793823 0.3459888 -0.2091891 -0.4601582 0.862841 -0.6944883 -0.6744683 0.2505565 -0.7137791 -0.629001 0.3080216 -0.3450957 -0.9358975 -0.07074576 -0.32273 -0.9426223 0.08549129 0.3601089 -0.7110539 -0.6039239 0.1056548 0.9870259 0.1209012 0.1967355 0.9727274 0.122868 0.2056592 0.9702444 0.12779 0.1204848 0.9927054 0.004417121 0.1214269 0.9925459 -0.01040196 0.1425301 0.9875626 -0.06637394 0.09697729 0.9915674 -0.08596229 0.0621159 0.9874098 -0.1454768 -0.1081338 0.01304018 -0.9940509 -0.2330355 -0.09386491 -0.9679277 -0.4270344 -0.0662772 -0.9018032 -0.2729446 -0.1117348 -0.9555191 -0.4867581 -0.1156454 -0.8658481 -0.1936928 -0.2452425 -0.9499155 -0.4921934 -0.2869562 -0.8218284 -0.8600552 -0.1028599 -0.499725 -0.4809075 -0.1995252 -0.8537667 -0.4713497 -0.2208772 -0.8538401 -0.8823334 -0.1815556 -0.4341951 -0.5067168 -0.377802 -0.7749217 -0.4813244 -0.4005632 -0.779664 -0.8600524 -0.1028636 0.4997289 -0.1071832 0.02486985 0.9939283 -0.4423942 0.005085349 0.8968063 -0.3662474 0.04779201 0.9292894 -0.4607529 -0.05383366 0.8858944 -0.8823344 -0.1815546 0.4341937 -0.4944561 -0.09316623 0.8641953 -0.313624 -0.602453 -0.7339553 -0.4666936 -0.2660861 0.8434427 -0.8775216 -0.454035 -0.1542985 -0.4535022 -0.1985493 0.8688578 -0.7279441 -0.5363819 -0.4270736 -0.2738068 -0.1128042 0.9551466 -0.3262494 -0.6191663 -0.7142789 -0.195174 -0.2444164 0.9498252 -0.3640869 -0.3120015 0.8775511 -0.8392758 -0.5106346 -0.1867311 -0.6884121 -0.6077781 -0.3958466 -0.7930093 -0.5335252 0.2940869 -0.4948438 -0.3935569 0.7747534 -0.3084844 -0.6267811 0.7155298 0.482539 -0.8745334 -0.04844999 -0.4780066 0.2104223 -0.8527791 -0.8448649 -0.1040062 -0.5247724 -0.6895446 -0.1669761 -0.7047321 -0.6818518 -0.1682839 -0.71187 -0.466361 0.2413245 0.8510405 -0.844868 -0.1040108 0.5247665 -0.3285661 -0.5289736 -0.7824521 -0.6875275 -0.1701655 0.7059388 -0.471413 -0.4473903 -0.7600077 -0.6578148 -0.483124 -0.5778157 -0.6795033 -0.1710427 0.7134562 -0.579699 -0.5294679 -0.6193649 -0.5631804 -0.2385271 0.7911591 -0.5319088 -0.6072334 -0.590204 -0.5483276 -0.6489955 -0.5273914 -0.6448295 -0.50536 0.5734163 -0.4725894 -0.4603404 0.7514959 -0.6535168 -0.4977129 0.5702611 -0.4971268 -0.4874411 0.7178205 -0.3120127 -0.5055571 0.8044006 -0.6016132 -0.6101234 0.5155686 -0.4301173 -0.6167499 0.6592562 -0.5176549 -0.659875 0.5446086 -0.2672345 -0.6511086 0.7103825 0.7232835 -0.6893685 0.04039877 -0.7707271 -0.1985188 -0.6054504 -0.6590343 -0.1968498 -0.7258952 -0.6347998 -0.09107547 0.7672904 -0.7707376 -0.1985108 0.6054396 -0.6752846 -0.1763476 0.716165 -0.7928619 -0.293738 -0.5339363 -0.7928593 -0.2937458 0.5339362 -0.04880195 0.2243871 0.9732774 0.02710813 0.4506698 0.8922791 0.6375764 0.1613051 0.7533107 0.2863976 -0.3411032 -0.8953353 0.02243101 -0.3234674 -0.9459735 0.9985144 0.03891593 0.03814077 0.09223711 -0.413353 -0.9058872 0.3750364 -0.4388003 -0.8165796 0.9996492 -0.001716434 0.02643251 0.5947538 -0.3472849 -0.725025 0.2560812 0.2909561 0.9218281 0.9913918 -0.07117944 0.1098902 0.7274665 0.1954593 0.6577145 0.9999651 -0.008227169 -0.001416742 0.8849712 -0.1275663 -0.4478315 0.7771173 0.2189883 0.5900279 0.9733868 0.1003153 0.2060464 0.4550823 -0.3251174 -0.8289746 0.8980454 -0.1631021 -0.408549 0.8944983 -0.1642853 -0.4157922 0.9708854 0.07300668 0.2281484 0.4668454 -0.3216519 -0.8237692 0.6271978 0.3356704 0.7028146 0.7356812 0.3120759 0.6011505 0.8527532 -0.2361755 -0.4658682 0.02669084 0.4499899 0.8926348 0.6957427 -0.3055576 -0.650059 0.3913036 0.4894531 0.7793056 0.2701496 0.3085764 0.9120307 0.9303433 0.1049959 0.3513365 -0.02010053 0.3442986 0.938645 0.2972042 0.292051 0.9090523 0.8882187 -0.1243094 -0.4422835 0.4207576 -0.2796214 -0.8630034 0.5701856 0.308345 0.7614538 0.5880089 0.3051887 0.7490698 0.9929895 0.04059982 0.1110109 0.7170946 0.3086001 0.6249331 0.9968331 -0.03099519 -0.07323366 0.776779 -0.2513644 -0.5774344 0.8883374 0.225463 0.400029 0.7839959 0.1877209 0.5917022 0.9930339 0.04657 0.1082364 0.7518185 -0.334797 -0.5680493 0.3370144 -0.4705291 -0.8154899 -0.1295698 0.9742722 -0.1844059 -0.1422098 0.9594122 -0.2435256 -0.4025443 0.9037431 -0.1456247 -0.514498 0.8557245 -0.05502396 0.1614272 0.6725437 0.7222371 -0.2934227 0.9542589 -0.05738669 0.08486503 0.5720099 0.8158448 0.2771909 0.6273062 0.7277721 -0.2142192 0.9766323 -0.01731181 -0.42133 0.8986418 0.1221641 -0.4073197 0.8565145 0.3169759 0.1053948 0.4237818 0.8996117 -0.202133 0.9728599 0.1126323 0.5137022 0.752287 0.4125221 0.1634209 0.3905482 0.9059612 -0.1868154 0.9760718 0.1112832 0.6149007 0.4843701 0.6223205 0.6906627 0.566223 0.4498628 0.7240464 0.5463524 0.4210178 0.7615306 0.5892669 0.269881 -0.1522184 0.9597797 0.2359076 0.213782 0.2760095 0.9370785 0.1855033 0.2222082 0.9571897 0.8283324 0.5585528 0.04340797 0.8090794 0.5500368 0.2070028 0.8381212 0.5448512 0.02626806 -0.04713129 0.9790177 0.1982501 0.0464642 0.9539108 0.2964715 0.6697421 0.3382559 0.6610813 0.6684778 0.3355429 0.6637383 0.5949189 0.6849012 -0.4206921 0.7972885 0.556913 -0.2327638 0.8013648 0.5440415 -0.2486633 0.8129854 0.3493361 0.4658529 0.80621 0.3285196 0.4920371 0.5366273 0.6567382 -0.5298359 0.5309101 0.6622958 -0.5286765 0.7421022 0.5448829 -0.3903677 0.9063278 0.3352573 0.2572405 0.9042783 0.3133317 0.2900074 0.5677258 0.5668579 -0.5969587 0.9484875 0.3149023 0.0347557 0.945527 0.3249162 0.02020823 0.9482203 0.3085088 -0.07550251 0.2815459 0.6734175 -0.6835502 0.7429327 0.4750811 -0.4715391 0.1757142 0.6854804 -0.70657 0.9022343 0.3332868 -0.2736663 0.8949994 0.344894 -0.2828857 0.80883 0.326345 -0.489176 0.7845099 0.3520584 -0.5104891 0.05606031 -0.2654749 0.9624866 0.6787004 0.3141362 -0.6638405 0.6387205 0.344383 -0.6880672 0.1856864 -0.1829521 0.9654269 0.2081937 0.4039188 -0.890789 0.1513777 0.3282946 -0.9323666 -5.19226e-5 -0.6943736 0.7196147 0.3214134 -0.1866631 -0.928359 0.04534274 -0.9692661 0.2418003 0.1705769 -0.8584604 0.4836829 0.1706463 -0.8584173 0.483735 0.4570042 -0.7803082 0.4269265 0.3814677 -0.8438304 0.3774026 0.3529878 -0.8955114 0.2710334 0.6217977 -0.706438 0.3381021 -0.108538 -0.9800041 -0.1667675 0.6398496 -0.7602444 0.1123438 -0.4767621 -0.7156388 -0.5104501 -0.2037355 -0.8910277 -0.405662 0.6088598 -0.7868047 0.1011344 -0.2889661 -0.8542414 -0.4321693 0.4917288 -0.8707325 -0.005265057 0.500555 -0.8503258 -0.162452 0.67189 -0.6810639 -0.2910601 -0.4540042 -0.8844801 -0.1075875 0.4167636 -0.8859316 -0.2035523 -0.1980005 -0.9712982 -0.1318165 0.4547892 -0.7704467 -0.4467424 0.3726877 -0.8405873 -0.3930861 -0.2496547 -0.9667301 0.05572766 0.2791447 -0.8769261 -0.3912531 -0.4665692 -0.8697891 -0.1605616 -0.02327549 -0.700795 -0.712983 -0.553037 -0.8229958 0.1297234 -0.3352662 -0.9318716 0.1386076 0.179816 -0.8367623 -0.5171993 -0.03706175 -0.9836458 0.1762595 -0.2441926 -0.9046272 0.3493131 -0.2490276 -0.832418 0.495041 -0.01230007 -0.9629716 0.2693221 0.007514536 0.9930619 -0.117353 -0.1715475 0.8718417 -0.4587631 -0.1231564 0.8810338 -0.4567406 -0.1035757 0.9171407 -0.3848702 -0.5197517 0.798545 -0.3036186 -0.3854231 0.6761589 -0.6279 -0.311186 0.8581783 -0.408281 0.02156776 0.9992972 0.03065884 0.009843111 0.9998076 0.01696801 -0.4625204 0.8695383 0.1731421 0.04851782 0.9957235 0.0786184 0.1185737 0.7525638 0.6477563 -0.2112404 0.8825006 0.4202026 0.03316897 0.999342 0.0146799 0.2838346 0.9130871 0.2927624 0.4087955 0.8576468 0.3119751 0.4433464 0.6653223 0.6006582 0.337811 0.7414981 0.5797105 0.2085735 0.9762493 0.05860388 0.02521431 0.9996297 0.01023238 0.5071969 0.5425715 0.6696025 0.3420093 0.5149875 0.7860136 0.4218958 0.4781379 0.770317 0.4071606 0.8992295 0.1600205 0.4950498 0.854259 0.1586421 -0.1040376 0.8457719 0.5233033 0.02444374 0.9994429 -0.02272808 0.08841043 0.9950768 -0.0447871 0.6266735 0.7788749 0.02518755 0.08219969 0.995494 -0.04727417 0.3530718 0.933371 -0.06449067 0.4729179 0.8761758 -0.09308457 0.5353844 0.3305895 0.7772222 0.4535747 0.4074271 0.7926369 0.5504138 0.8171303 -0.171297 0.03287142 0.135783 0.9901931 0.2581472 0.9383297 -0.2299947 0.5063397 0.8152765 -0.2809706 0.03284788 0.9991725 -0.02398729 0.2902331 0.8956484 -0.3370144 0.04542136 0.9723042 -0.2292631 0.3049319 0.7414274 -0.5977475 0.02845507 0.8706089 -0.4911522 0.4295781 0.4957187 -0.7548018 0.5539947 0.5185635 -0.6512924 0.7023313 0.1443073 0.6970698 0.7751764 0.09091866 0.6251683 0.3787249 0.5125147 -0.7706466 0.3717297 -0.1129932 0.921439 0.8451929 0.1392887 0.5159919 0.8858727 0.1008999 0.4528232 0.472943 -0.09442871 0.8760184 0.9424887 0.1424244 0.3023746 0.9728053 0.07494705 0.2191641 0.9736176 0.05618226 0.2211616 0.9869316 0.1354053 0.08735829 0.530337 0.3231082 -0.783801 0.996244 0.01630586 -0.08504194 0.9742803 0.06601339 -0.2154536 0.9719289 0.07821536 -0.2218935 0.9440488 0.1412697 -0.298018 0.8477243 0.1388105 -0.5119524 0.8857606 0.1016822 -0.4528675 0.7751868 0.09068244 -0.6251897 0.7039986 0.144659 -0.6953127 0.003294765 -0.4624037 0.8866634 0.8450971 -0.2966136 0.4447824 0.7457048 -0.383045 0.5451613 0.1230435 0.08028745 -0.9891483 0.889596 -0.3099983 0.3354403 0.9051874 -0.2973229 0.3037023 0.3388436 -0.1368656 -0.9308345 0.4708544 -0.1005767 -0.8764591 0.9041495 -0.4110964 0.1162478 0.9559758 -0.2836971 0.07500934 0.9359095 -0.3211324 0.1447328 0.9359292 -0.3210656 -0.1447529 0.8978258 -0.4260622 -0.1112648 0.9351948 -0.2994167 -0.189104 0.8751274 -0.2896865 -0.3875999 0.8892304 -0.314432 -0.3322678 0.1712545 -0.6263058 0.7605347 0.3385228 -0.6490934 0.6812343 0.2571142 -0.6690625 0.6973147 0.1838132 -0.7767758 0.6023554 0.04939168 -0.2921618 -0.9550927 0.04978877 -0.9804899 0.1901599 0.01677924 -0.9998056 0.01035559 0.003123939 -0.4643502 -0.8856462 0.2085166 -0.9706941 0.119473 0.2227615 -0.9646319 0.1409354 0.01332545 -0.9998683 0.009273231 -0.2976546 -0.7036831 -0.6451603 0.3675284 -0.9299446 0.01122921 0.3363384 -0.6485226 -0.682858 0.2588798 -0.6668581 -0.6987714 0.01142871 -0.9999289 0.00341767 0.1704274 -0.6258482 -0.761097 0.1242019 -0.9897894 -0.06993544 0.1739816 -0.7794625 -0.6018044 0.1200649 -0.9903278 -0.06953603 9.45696e-4 -0.9919847 -0.1263555 -0.4243606 -0.7318356 0.5332306 -0.13503 0.9335582 -0.332018 -0.3450758 0.9115561 -0.2235803 -0.2857309 0.9542921 -0.08766144 -0.4172322 0.8939089 0.1638423 -0.2702064 0.9356524 0.2270313 0.09888309 0.9410682 0.3234388 -0.2036059 0.89602 0.3945794 0.1319065 0.9113751 0.3898671 -0.04499447 0.9879005 0.148419 0.2725178 0.8385013 0.4718577 0.3964078 0.2336151 0.8878541 0.3130493 0.1996111 0.9285234 0.501953 0.2070267 0.839752 0.2421714 0.8868777 -0.3934479 0.05529367 0.9734769 -0.2220034 0.09176266 0.5465541 -0.8323812 0.2541848 0.4075956 -0.8770723 0.5191306 -0.1509177 0.8412653 0.2921243 -0.2061026 0.9339086 0.434152 0.2274135 -0.8716623 0.4809061 0.2316784 -0.845609 0.1955538 0.1197065 -0.9733597 0.2220872 -0.4511576 0.8643692 0.3649935 -0.4564239 0.8114536 0.1315 -0.4928639 0.8601123 0.5280393 -0.1459664 -0.8365814 0.5474306 -0.1937038 -0.8141245 0.2762686 -0.1954448 -0.940998 0.5660935 -0.4745107 0.6740755 0.4402397 -0.6674923 0.6005358 0.4781669 -0.6416366 0.5997158 0.7339867 -0.5892686 0.3376773 0.1317575 -0.4871606 -0.863316 0.324413 -0.4346097 -0.8401612 0.2300592 -0.438062 -0.8690078 0.6560251 -0.6954386 -0.2932513 0.4782236 -0.640382 -0.6010102 0.437893 -0.6681282 -0.6015434 0.1205941 -0.9803929 -0.1558421 -0.06518703 0.9881187 -0.1391843 -0.08687597 0.9918843 -0.09283429 -0.1734737 0.9833506 -0.05411744 -0.1280417 0.9917682 -0.001124024 -0.1243529 0.9905667 0.05756682 -0.1522057 0.9777578 0.1443021 0.2876085 0.05096226 0.9563912 0.1421403 -0.05399495 0.9883728 0.1101528 -0.04151016 0.9930475 0.6510477 -0.0719133 0.7556226 0.5110379 -0.1126302 0.8521472 0.7074952 -0.1081845 0.6983886 0.6771901 -0.2646278 0.6865753 0.2088975 -0.3693203 0.9055189 0.343865 -0.2984105 0.8903416 0.3711836 -0.2574577 0.8921538 0.6684067 -0.1721339 0.7236038 0.2865127 0.0947479 -0.95338 0.6510394 -0.07190901 -0.7556301 0.7074935 -0.1081904 -0.6983895 0.3798224 -0.4630925 0.8007999 0.691532 -0.2021935 -0.6934705 0.07407373 -0.06536245 -0.9951085 0.6966643 -0.2147933 -0.6844872 0.02092874 -0.08625668 -0.9960531 0.401964 -0.5027693 0.7652765 0.4787888 -0.5209321 0.706676 0.6080839 -0.5994377 0.5204887 0.624979 -0.4747026 -0.6197248 0.1453886 -0.3066059 -0.9406673 0.08376598 -0.3072395 -0.9479385 0.4114115 -0.4838591 -0.7724125 0.8057097 -0.5737106 -0.1472688 0.718463 -0.6696153 -0.1882187 0.4129523 -0.4880154 -0.7689678 0.4788144 -0.5222581 -0.7056793 0.6085155 -0.5984588 -0.5211104 0.3660657 0.09215241 0.926015 0.2681081 0.002816975 0.9633847 0.09820318 -0.3445492 0.9336177 0.462006 -0.2806752 0.8412919 0.5509705 -0.3221424 0.7698416 0.7321763 -0.2348306 0.6393532 0.3407191 0.1115984 -0.9335184 0.5652847 -0.3668442 0.738836 0.6755513 -0.6288083 0.3850073 0.8190621 -0.5718393 0.04622972 0.7622035 -0.6417627 0.08477479 0.718395 -0.6932564 0.057482 0.6732058 -0.6291556 -0.3885321 -0.6832872 -0.7297412 -0.0244261 0.4981324 -0.02022695 0.8668652 0.4979689 -0.020639 -0.8669493 0.5875387 -0.3823675 0.7131574 0.6993795 -0.3565733 0.6194545 0.6385326 -0.5214581 0.5660015 0.6486552 -0.4903495 -0.5820686 0.5981934 0.08293437 0.7970487 0.5896549 0.05176424 0.8059949 0.7743745 -0.05603379 0.6302416 0.5985186 0.08408975 -0.7966835 0.7743769 -0.05603623 -0.6302384 0.5897027 0.05170595 -0.8059635 0.7366134 -0.4513326 0.503686 0.7976267 -0.4993104 0.3383504 0.7978013 -0.4981081 0.3397079 0.4961922 -0.3079358 -0.811769 0.4063564 -0.3179684 -0.8566042 0.55922 -0.3629935 -0.7453246 0.7392073 -0.4526517 -0.4986772 0.7985039 -0.4930585 -0.3453764 0.8001728 -0.4792377 -0.3606313 0.8459789 -0.1224802 0.518959 0.8238511 -0.210376 0.5263187 0.8371757 -0.1134448 -0.5350394 0.9118752 -0.07652252 -0.4032716 0.808664 -0.2084574 -0.5500984 0.7785575 -0.3298072 -0.5339245 0.6813595 -0.312604 -0.6618369 0.6107501 -0.3656769 -0.7023281 0.8860798 -0.4629656 0.02292799 0.8461548 -0.4925976 0.2033956 0.8274782 -0.5589513 0.05341535 0.8361712 -0.5081448 -0.2064139 0.8967879 -0.07451128 0.4361419 0.8957262 -0.1071413 -0.4315036 0.9870442 -0.1478314 0.06236702 0.9689238 -0.1739158 -0.1758984 0.8216601 -0.2928243 -0.4890081 0.9435251 -0.1097608 0.3125905 0.9460988 -0.1058892 0.3060796 0.9938109 -0.1023995 -0.04306298 0.9872856 -0.1466609 0.06130105 0.9518294 -0.07891011 -0.2963008 -0.1188459 -0.2427431 -0.9627832 0.02876228 -0.5139517 -0.8573368 -0.6794209 0.1761679 0.7122866 -0.3922406 0.2745637 0.8779306 -0.0652244 -0.3402793 -0.9380596 -0.1086648 -0.413309 -0.9040839 -0.9982501 -0.02121567 -0.055197 0.04675424 0.3940932 0.9178805 -0.05291187 0.4336982 0.8995033 -0.6535326 -0.2320222 -0.7204588 -0.9123812 0.1587989 0.3772843 -0.8550218 0.1425697 0.4986097 -0.9898023 0.05395394 0.1318348 -0.502287 -0.3321982 -0.7983434 -0.9130483 -0.1412197 -0.3826224 -0.7320603 0.2377953 0.6383895 -0.600329 0.2834306 0.7478451 -0.5922043 -0.329385 -0.7353909 -0.8296228 -0.2349776 -0.5064697 -0.9052475 0.1712579 0.3888417 -0.4870212 0.3740869 0.7892208 -0.5619012 0.3982197 0.7250435 -0.420935 0.4950411 0.7600975 -0.6531034 -0.2323486 -0.7207428 -0.95112 -0.07256406 -0.3001754 -0.9190686 -0.1391404 -0.3687178 -0.9928885 0.05200654 0.1070875 -0.661697 -0.2370331 -0.7113175 -0.38431 0.299146 0.8733943 -0.9967478 0.01688069 0.07879728 -0.9028124 0.1764299 0.3921763 -0.4285904 -0.4238644 -0.7979031 -0.8623989 -0.2323871 -0.4497381 -0.4646406 0.3830184 0.7983772 -0.9950367 -0.05418759 -0.08346217 -0.8929932 -0.1942976 -0.40597 -0.9309682 0.1705209 0.322833 -0.9901708 -0.06921249 -0.1215373 -0.3087976 -0.421391 -0.8526862 -0.9592617 0.1422395 0.2441003 0.004727661 0.732464 -0.6807893 -0.003300249 0.7375074 -0.6753311 0.001259326 0.7366778 -0.6762427 -0.006173431 0.7383535 -0.6743857 0.001061737 0.7334544 -0.679738 0.01569581 0.7382396 -0.6743561</float_array>
          <technique_common>
            <accessor source="#Part__Feature_007-mesh-normals-array" count="764" stride="3">
              <param name="X" type="float"/>
              <param name="Y" type="float"/>
              <param name="Z" type="float"/>
            </accessor>
          </technique_common>
        </source>
        <vertices id="Part__Feature_007-mesh-vertices">
          <input semantic="POSITION" source="#Part__Feature_007-mesh-positions"/>
        </vertices>
        <triangles material="Part__Feature_007-material" count="764">
          <input semantic="VERTEX" source="#Part__Feature_007-mesh-vertices" offset="0"/>
          <input semantic="NORMAL" source="#Part__Feature_007-mesh-normals" offset="1"/>
          <p>7 0 4 0 3 0 8 1 7 1 3 1 103 2 6 2 9 2 13 3 103 3 9 3 10 4 7 4 8 4 11 5 12 5 103 5 14 6 12 6 11 6 10 7 15 7 7 7 14 8 16 8 12 8 18 9 14 9 11 9 19 10 15 10 10 10 19 11 20 11 15 11 22 12 14 12 18 12 23 13 24 13 16 13 25 14 18 14 11 14 22 15 16 15 14 15 28 16 16 16 22 16 110 17 29 17 23 17 32 18 25 18 160 18 32 19 18 19 25 19 19 20 33 20 20 20 35 21 29 21 110 21 36 22 22 22 18 22 36 23 18 23 32 23 37 24 33 24 19 24 37 25 34 25 33 25 38 26 22 26 36 26 38 27 28 27 22 27 35 28 111 28 39 28 40 29 111 29 35 29 40 30 115 30 111 30 43 31 115 31 40 31 44 32 40 32 35 32 116 33 45 33 41 33 43 34 119 34 115 34 50 35 119 35 43 35 46 36 51 36 47 36 52 37 40 37 44 37 52 38 43 38 40 38 50 39 43 39 52 39 53 40 44 40 54 40 53 41 52 41 44 41 57 42 50 42 52 42 58 43 50 43 57 43 67 44 141 44 68 44 69 45 80 45 66 45 71 46 70 46 68 46 73 47 72 47 70 47 73 48 76 48 72 48 71 49 73 49 70 49 77 50 73 50 71 50 78 51 74 51 75 51 286 52 78 52 75 52 79 53 78 53 286 53 77 54 81 54 73 54 82 55 74 55 78 55 83 56 82 56 78 56 79 57 83 57 78 57 87 58 86 58 81 58 86 59 88 59 189 59 90 60 93 60 85 60 89 61 82 61 83 61 90 62 88 62 86 62 91 63 90 63 86 63 91 64 86 64 87 64 92 65 89 65 83 65 90 66 94 66 93 66 92 67 83 67 157 67 94 68 90 68 91 68 95 69 89 69 92 69 96 70 89 70 95 70 91 71 96 71 94 71 97 72 92 72 157 72 97 73 95 73 92 73 99 74 0 74 294 74 99 75 294 75 100 75 100 76 1 76 4 76 1 77 3 77 4 77 101 78 4 78 7 78 101 79 7 79 15 79 3 80 2 80 5 80 6 81 5 81 2 81 8 82 3 82 5 82 21 83 101 83 15 83 5 84 6 84 102 84 103 85 102 85 6 85 8 86 5 86 104 86 103 87 13 87 11 87 104 88 5 88 102 88 10 89 8 89 104 89 12 90 102 90 103 90 105 91 102 91 12 91 105 92 104 92 102 92 15 93 20 93 21 93 10 94 104 94 106 94 16 95 105 95 12 95 24 96 105 96 16 96 13 97 25 97 11 97 13 98 27 98 25 98 26 99 21 99 33 99 19 100 10 100 106 100 25 101 27 101 160 101 29 102 24 102 23 102 19 103 106 103 108 103 33 104 34 104 26 104 33 105 21 105 20 105 23 106 28 106 110 106 23 107 16 107 28 107 109 108 108 108 106 108 111 109 109 109 39 109 30 110 31 110 112 110 35 111 39 111 29 111 113 112 110 112 28 112 115 113 109 113 111 113 115 114 108 114 109 114 110 115 113 115 117 115 108 116 37 116 19 116 35 117 114 117 44 117 35 118 110 118 114 118 108 119 41 119 37 119 113 120 126 120 118 120 113 121 38 121 126 121 113 122 28 122 38 122 115 123 116 123 108 123 114 124 110 124 117 124 116 125 115 125 119 125 108 126 116 126 41 126 117 127 113 127 118 127 120 128 121 128 177 128 122 129 36 129 32 129 122 130 120 130 177 130 122 131 32 131 120 131 116 132 46 132 45 132 46 133 47 133 45 133 124 134 122 134 179 134 124 135 38 135 36 135 124 136 36 136 122 136 125 137 117 137 118 137 114 138 123 138 54 138 114 139 117 139 123 139 114 140 54 140 44 140 124 141 126 141 38 141 126 142 124 142 127 142 123 143 117 143 125 143 128 144 46 144 119 144 128 145 119 145 50 145 126 146 127 146 129 146 125 147 126 147 129 147 125 148 118 148 126 148 125 149 129 149 130 149 128 150 50 150 56 150 131 151 123 151 125 151 131 152 125 152 130 152 131 153 54 153 123 153 59 154 50 154 58 154 59 155 56 155 50 155 54 156 132 156 133 156 54 157 131 157 132 157 133 158 53 158 54 158 130 159 134 159 135 159 130 160 129 160 134 160 136 161 53 161 133 161 136 162 133 162 182 162 136 163 52 163 53 163 137 164 57 164 52 164 137 165 52 165 136 165 135 166 131 166 130 166 134 167 129 167 139 167 140 168 57 168 137 168 55 169 164 169 141 169 142 170 180 170 138 170 142 171 138 171 143 171 144 172 142 172 143 172 60 173 64 173 61 173 144 174 143 174 169 174 62 175 55 175 141 175 145 176 139 176 144 176 145 177 144 177 169 177 145 178 134 178 139 178 147 179 145 179 146 179 147 180 135 180 134 180 147 181 146 181 148 181 147 182 134 182 145 182 147 183 149 183 135 183 67 184 62 184 141 184 149 185 147 185 148 185 149 186 148 186 150 186 151 187 149 187 150 187 151 188 150 188 152 188 70 189 67 189 68 189 70 190 72 190 67 190 185 191 151 191 152 191 171 192 185 192 152 192 148 193 146 193 153 193 71 194 68 194 283 194 74 195 71 195 283 195 146 196 154 196 155 196 146 197 172 197 154 197 153 198 146 198 155 198 77 199 71 199 74 199 98 200 79 200 286 200 154 201 73 201 81 201 154 202 76 202 73 202 81 203 155 203 154 203 77 204 74 204 156 204 69 205 85 205 80 205 156 206 74 206 82 206 84 207 85 207 69 207 155 208 81 208 86 208 155 209 86 209 189 209 156 210 82 210 89 210 90 211 85 211 84 211 89 212 87 212 156 212 89 213 91 213 87 213 96 214 91 214 89 214 100 215 4 215 99 215 101 216 99 216 4 216 158 217 101 217 21 217 159 218 158 218 21 218 13 219 9 219 17 219 13 220 17 220 27 220 26 221 159 221 21 221 26 222 107 222 159 222 106 223 104 223 105 223 106 224 105 224 24 224 106 225 24 225 29 225 27 226 17 226 31 226 106 227 29 227 109 227 27 228 30 228 160 228 27 229 31 229 30 229 29 230 39 230 109 230 42 231 160 231 30 231 42 232 120 232 160 232 42 233 121 233 120 233 42 234 161 234 121 234 48 235 112 235 49 235 48 236 42 236 112 236 46 237 116 237 119 237 162 238 161 238 48 238 48 239 49 239 55 239 56 240 46 240 128 240 56 241 51 241 46 241 56 242 61 242 51 242 164 243 55 243 49 243 165 244 163 244 55 244 127 245 139 245 129 245 56 246 59 246 61 246 144 247 139 247 127 247 132 248 131 248 135 248 59 249 60 249 61 249 59 250 58 250 60 250 166 251 165 251 55 251 63 252 60 252 58 252 63 253 58 253 140 253 166 254 55 254 62 254 149 255 132 255 135 255 168 256 65 256 167 256 65 257 64 257 63 257 65 258 63 258 167 258 65 259 66 259 64 259 172 260 169 260 143 260 65 261 69 261 66 261 174 262 69 262 170 262 76 263 154 263 172 263 173 264 150 264 148 264 174 265 84 265 69 265 189 266 153 266 155 266 189 267 173 267 153 267 156 268 81 268 77 268 156 269 87 269 81 269 97 270 157 270 98 270 99 271 175 271 0 271 158 272 175 272 99 272 158 273 99 273 101 273 158 274 366 274 175 274 158 275 367 275 366 275 159 276 367 276 158 276 159 277 176 277 367 277 159 278 107 278 176 278 30 279 112 279 42 279 161 280 42 280 48 280 121 281 161 281 162 281 163 282 162 282 48 282 177 283 121 283 162 283 163 284 48 284 55 284 177 285 162 285 163 285 178 286 127 286 124 286 180 287 163 287 165 287 180 288 177 288 163 288 178 289 144 289 127 289 165 290 138 290 180 290 166 291 138 291 165 291 181 292 133 292 132 292 60 293 63 293 64 293 167 294 140 294 137 294 167 295 63 295 140 295 137 296 168 296 167 296 181 297 132 297 149 297 184 298 168 298 137 298 183 299 62 299 67 299 184 300 170 300 168 300 169 301 146 301 145 301 171 302 170 302 184 302 186 303 172 303 143 303 170 304 65 304 168 304 72 305 183 305 67 305 170 306 69 306 65 306 171 307 174 307 170 307 172 308 146 308 169 308 186 309 76 309 172 309 153 310 173 310 148 310 174 311 171 311 152 311 88 312 84 312 188 312 157 313 83 313 79 313 32 314 160 314 120 314 179 315 178 315 124 315 142 316 122 316 177 316 179 317 122 317 142 317 57 318 140 318 58 318 182 319 133 319 181 319 62 320 183 320 166 320 151 321 136 321 182 321 138 322 166 322 183 322 138 323 186 323 143 323 184 324 136 324 151 324 183 325 186 325 138 325 185 326 171 326 184 326 186 327 183 327 72 327 72 328 76 328 186 328 152 329 150 329 173 329 152 330 188 330 174 330 187 331 152 331 173 331 187 332 188 332 152 332 84 333 174 333 188 333 187 334 173 334 189 334 187 335 88 335 188 335 189 336 88 336 187 336 90 337 84 337 88 337 157 338 79 338 98 338 179 339 142 339 178 339 142 340 177 340 180 340 136 341 184 341 137 341 182 342 181 342 151 342 184 343 151 343 185 343 178 344 142 344 144 344 181 345 149 345 151 345 190 346 191 346 176 346 193 347 194 347 195 347 196 348 190 348 203 348 192 349 198 349 0 349 209 350 192 350 376 350 213 351 210 351 214 351 199 352 209 352 376 352 199 353 376 353 201 353 215 354 213 354 214 354 199 355 202 355 216 355 191 356 190 356 196 356 197 357 203 357 204 357 203 358 207 358 196 358 218 359 197 359 204 359 204 360 205 360 218 360 212 361 207 361 217 361 212 362 217 362 210 362 205 363 192 363 209 363 205 364 210 364 218 364 211 365 210 365 205 365 213 366 212 366 210 366 209 367 211 367 205 367 193 368 208 368 212 368 213 369 193 369 212 369 210 370 211 370 214 370 193 371 195 371 208 371 211 372 209 372 199 372 193 373 200 373 194 373 191 374 196 374 207 374 217 375 203 375 197 375 206 376 381 376 191 376 206 377 191 377 207 377 205 378 204 378 198 378 205 379 198 379 192 379 206 380 207 380 208 380 212 381 208 381 207 381 218 382 210 382 217 382 193 383 213 383 200 383 215 384 214 384 216 384 214 385 211 385 199 385 215 386 200 386 213 386 207 387 203 387 217 387 217 388 197 388 218 388 214 389 199 389 216 389 202 390 199 390 201 390 220 391 219 391 34 391 220 392 34 392 37 392 219 393 221 393 287 393 222 394 221 394 219 394 223 395 224 395 47 395 225 396 219 396 220 396 223 397 47 397 51 397 226 398 224 398 223 398 225 399 222 399 219 399 222 400 227 400 221 400 228 401 227 401 222 401 61 402 223 402 51 402 230 403 222 403 225 403 229 404 295 404 292 404 231 405 223 405 61 405 230 406 228 406 222 406 232 407 229 407 233 407 232 408 295 408 229 408 235 409 295 409 232 409 235 410 234 410 295 410 2 411 228 411 230 411 238 412 231 412 61 412 238 413 61 413 237 413 239 414 236 414 234 414 239 415 234 415 235 415 241 416 236 416 239 416 2 417 1 417 228 417 2 418 3 418 1 418 242 419 233 419 243 419 242 420 232 420 233 420 244 421 300 421 240 421 241 422 240 422 236 422 245 423 240 423 241 423 246 424 235 424 232 424 246 425 232 425 242 425 247 426 248 426 300 426 247 427 300 427 244 427 244 428 240 428 245 428 249 429 239 429 235 429 249 430 235 430 246 430 250 431 247 431 244 431 251 432 239 432 249 432 251 433 241 433 239 433 252 434 241 434 251 434 253 435 301 435 247 435 250 436 244 436 245 436 9 437 301 437 253 437 254 438 245 438 241 438 254 439 241 439 252 439 256 440 245 440 254 440 256 441 250 441 245 441 257 442 66 442 80 442 258 443 250 443 256 443 258 444 255 444 250 444 257 445 307 445 66 445 17 446 253 446 259 446 31 447 17 447 259 447 262 448 85 448 93 448 261 449 320 449 263 449 264 450 94 450 96 450 264 451 265 451 93 451 264 452 93 452 94 452 266 453 267 453 265 453 264 454 266 454 265 454 269 455 266 455 264 455 266 456 270 456 267 456 271 457 96 457 95 457 272 458 270 458 266 458 271 459 273 459 96 459 274 460 271 460 95 460 269 461 272 461 266 461 274 462 95 462 97 462 275 463 272 463 269 463 275 464 276 464 272 464 276 465 277 465 272 465 278 466 271 466 274 466 279 467 276 467 275 467 278 468 273 468 271 468 280 469 277 469 276 469 279 470 280 470 276 470 281 471 273 471 278 471 283 472 280 472 279 472 284 473 278 473 274 473 285 474 68 474 141 474 284 475 281 475 278 475 281 476 282 476 273 476 68 477 280 477 283 477 75 478 282 478 281 478 286 479 75 479 281 479 286 480 281 480 284 480 74 481 282 481 75 481 107 482 190 482 176 482 287 483 34 483 288 483 287 484 26 484 34 484 287 485 107 485 26 485 289 486 287 486 221 486 288 487 34 487 219 487 288 488 219 488 287 488 220 489 41 489 291 489 220 490 37 490 41 490 289 491 221 491 227 491 290 492 291 492 41 492 224 493 45 493 47 493 100 494 227 494 228 494 220 495 291 495 293 495 291 496 290 496 292 496 291 497 292 497 295 497 226 498 229 498 292 498 226 499 292 499 224 499 293 500 291 500 296 500 225 501 220 501 293 501 226 502 233 502 229 502 226 503 223 503 231 503 226 504 231 504 233 504 296 505 291 505 295 505 234 506 296 506 295 506 228 507 1 507 100 507 230 508 225 508 299 508 297 509 225 509 293 509 236 510 296 510 234 510 297 511 299 511 225 511 297 512 293 512 296 512 236 513 297 513 296 513 298 514 243 514 233 514 298 515 233 515 231 515 240 516 297 516 236 516 237 517 61 517 64 517 300 518 299 518 297 518 300 519 297 519 240 519 230 520 299 520 2 520 299 521 300 521 248 521 2 522 301 522 6 522 247 523 301 523 248 523 301 524 9 524 6 524 247 525 255 525 302 525 247 526 250 526 255 526 303 527 242 527 243 527 304 528 242 528 303 528 253 529 247 529 302 529 305 530 307 530 306 530 304 531 246 531 242 531 308 532 246 532 304 532 309 533 305 533 306 533 308 534 249 534 246 534 311 535 249 535 308 535 311 536 308 536 310 536 311 537 251 537 249 537 302 538 255 538 258 538 251 539 311 539 312 539 313 540 251 540 312 540 313 541 252 541 251 541 313 542 254 542 252 542 314 543 256 543 254 543 314 544 254 544 313 544 315 545 256 545 314 545 315 546 258 546 256 546 260 547 80 547 85 547 317 548 359 548 316 548 317 549 316 549 342 549 320 550 112 550 31 550 318 551 359 551 317 551 318 552 361 552 359 552 322 553 323 553 320 553 322 554 324 554 323 554 325 555 318 555 321 555 325 556 364 556 361 556 325 557 361 557 318 557 326 558 364 558 325 558 326 559 325 559 350 559 326 560 362 560 364 560 327 561 360 561 362 561 327 562 362 562 326 562 319 563 85 563 262 563 319 564 262 564 265 564 328 565 319 565 265 565 262 566 93 566 265 566 261 567 164 567 49 567 329 568 264 568 96 568 329 569 96 569 273 569 268 570 141 570 164 570 269 571 329 571 330 571 269 572 264 572 329 572 330 573 329 573 273 573 274 574 97 574 98 574 269 575 330 575 275 575 331 576 280 576 285 576 331 577 332 577 280 577 330 578 273 578 282 578 285 579 141 579 331 579 330 580 279 580 275 580 285 581 280 581 68 581 282 582 279 582 330 582 282 583 74 583 283 583 284 584 98 584 286 584 333 585 107 585 287 585 333 586 287 586 289 586 334 587 333 587 289 587 334 588 289 588 227 588 294 589 334 589 227 589 290 590 41 590 45 590 294 591 227 591 100 591 224 592 290 592 45 592 294 593 0 593 198 593 292 594 290 594 224 594 335 595 231 595 238 595 335 596 298 596 231 596 335 597 243 597 298 597 248 598 301 598 299 598 299 599 301 599 2 599 253 600 17 600 9 600 302 601 259 601 253 601 336 602 309 602 306 602 306 603 307 603 257 603 338 604 259 604 302 604 338 605 302 605 258 605 320 606 31 606 259 606 319 607 339 607 260 607 319 608 340 608 339 608 319 609 260 609 85 609 341 610 323 610 324 610 344 611 323 611 341 611 323 612 263 612 320 612 345 613 342 613 343 613 267 614 328 614 265 614 267 615 345 615 328 615 270 616 347 616 346 616 331 617 141 617 268 617 331 618 263 618 352 618 331 619 268 619 263 619 349 620 272 620 277 620 277 621 332 621 351 621 277 622 280 622 332 622 283 623 279 623 282 623 333 624 190 624 107 624 333 625 203 625 190 625 334 626 203 626 333 626 334 627 204 627 203 627 334 628 198 628 204 628 294 629 198 629 334 629 238 630 237 630 305 630 66 631 307 631 237 631 66 632 237 632 64 632 303 633 309 633 336 633 337 634 336 634 306 634 354 635 303 635 336 635 354 636 336 636 337 636 257 637 260 637 339 637 340 638 306 638 257 638 340 639 257 639 339 639 355 640 354 640 337 640 259 641 322 641 320 641 315 642 341 642 324 642 356 643 341 643 315 643 343 644 340 644 319 644 356 645 344 645 341 645 261 646 112 646 320 646 357 647 344 647 356 647 261 648 49 648 112 648 328 649 343 649 319 649 328 650 345 650 343 650 267 651 346 651 345 651 363 652 351 652 348 652 268 653 261 653 263 653 268 654 164 654 261 654 348 655 331 655 352 655 358 656 349 656 350 656 358 657 272 657 349 657 332 658 331 658 348 658 332 659 348 659 351 659 277 660 351 660 353 660 335 661 238 661 305 661 237 662 307 662 305 662 257 663 80 663 260 663 337 664 306 664 340 664 337 665 340 665 355 665 316 666 354 666 355 666 338 667 322 667 259 667 343 668 355 668 340 668 270 669 346 669 267 669 358 670 350 670 347 670 358 671 347 671 270 671 358 672 270 672 272 672 349 673 277 673 353 673 284 674 274 674 98 674 335 675 305 675 309 675 338 676 324 676 322 676 342 677 355 677 343 677 342 678 316 678 355 678 346 679 342 679 345 679 353 680 351 680 363 680 243 681 335 681 303 681 309 682 303 682 335 682 304 683 303 683 354 683 258 684 315 684 338 684 314 685 356 685 315 685 324 686 338 686 315 686 317 687 342 687 346 687 318 688 317 688 346 688 318 689 346 689 347 689 323 690 344 690 352 690 323 691 352 691 263 691 348 692 352 692 344 692 327 693 353 693 363 693 326 694 353 694 327 694 326 695 349 695 353 695 359 696 304 696 354 696 359 697 354 697 316 697 360 698 356 698 314 698 360 699 314 699 362 699 360 700 357 700 356 700 357 701 327 701 363 701 363 702 344 702 357 702 363 703 348 703 344 703 321 704 350 704 325 704 321 705 318 705 347 705 321 706 347 706 350 706 350 707 349 707 326 707 308 708 304 708 359 708 313 709 362 709 314 709 361 710 364 710 310 710 364 711 362 711 312 711 357 712 360 712 327 712 361 713 310 713 308 713 361 714 308 714 359 714 311 715 364 715 312 715 311 716 310 716 364 716 362 717 313 717 312 717 365 718 192 718 0 718 372 719 202 719 201 719 176 720 375 720 367 720 191 721 375 721 176 721 376 722 192 722 365 722 372 723 201 723 376 723 382 724 370 724 369 724 381 725 206 725 208 725 195 726 381 726 208 726 175 727 365 727 0 727 366 728 367 728 375 728 378 729 366 729 375 729 378 730 368 730 366 730 379 731 376 731 377 731 369 732 379 732 377 732 375 733 380 733 378 733 375 734 381 734 380 734 379 735 372 735 376 735 369 736 370 736 379 736 371 737 382 737 380 737 371 738 380 738 381 738 374 739 371 739 195 739 195 740 194 740 374 740 175 741 377 741 365 741 377 742 175 742 368 742 369 743 377 743 368 743 369 744 368 744 378 744 377 745 376 745 365 745 381 746 375 746 191 746 369 747 378 747 382 747 382 748 378 748 380 748 373 749 372 749 379 749 370 750 373 750 379 750 195 751 371 751 381 751 370 752 382 752 383 752 370 753 383 753 373 753 382 754 371 754 374 754 175 755 366 755 368 755 373 756 202 756 372 756 374 757 383 757 382 757 194 758 373 758 383 758 194 759 383 759 374 759 200 760 216 760 202 760 200 761 202 761 373 761 200 762 373 762 194 762 200 763 215 763 216 763</p>
        </triangles>
      </mesh>
    </geometry>
  </library_geometries>
  <library_visual_scenes>
    <visual_scene id="Scene" name="Scene">
      <node id="node0" name="node0" type="NODE">
        <matrix sid="transform">1 0 0 0 0 1 0 0 0 0 1 0 0 0 0 1</matrix>
        <instance_geometry url="#Part__Feature_007-mesh" name="node0">
          <bind_material>
            <technique_common>
              <instance_material symbol="Part__Feature_007-material" target="#Part__Feature_007-material"/>
            </technique_common>
          </bind_material>
        </instance_geometry>
      </node>
      <node id="Camera" name="Camera" type="NODE">
        <matrix sid="transform">0.6859207 -0.3240135 0.6515582 7.358891 0.7276763 0.3054208 -0.6141704 -6.925791 0 0.8953956 0.4452714 4.958309 0 0 0 1</matrix>
        <instance_camera url="#Camera-camera"/>
      </node>
      <node id="Light" name="Light" type="NODE">
        <matrix sid="transform">-0.2908646 -0.7711008 0.5663932 4.076245 0.9551712 -0.1998834 0.2183912 1.005454 -0.05518906 0.6045247 0.7946723 5.903862 0 0 0 1</matrix>
        <instance_light url="#Light-light"/>
      </node>
    </visual_scene>
  </library_visual_scenes>
  <scene>
    <instance_visual_scene url="#Scene"/>
  </scene>
</COLLADA>