<?xml version="1.0" encoding="utf-8"?>
<COLLADA xmlns="http://www.collada.org/2005/11/COLLADASchema" version="1.4.1" xmlns:xsi="http://www.w3.org/2001/XMLSchema-instance">
  <asset>
    <contributor>
      <author>Blender User</author>
      <authoring_tool>Blender 4.0.2 commit date:2023-12-05, commit time:07:41, hash:9be62e85b727</authoring_tool>
    </contributor>
    <created>2024-01-15T15:14:06</created>
    <modified>2024-01-15T15:14:06</modified>
    <unit name="meter" meter="1"/>
    <up_axis>Z_UP</up_axis>
  </asset>
  <library_cameras>
    <camera id="Camera-camera" name="Camera">
      <optics>
        <technique_common>
          <perspective>
            <xfov sid="xfov">39.59775</xfov>
            <aspect_ratio>1.777778</aspect_ratio>
            <znear sid="znear">0.1</znear>
            <zfar sid="zfar">100</zfar>
          </perspective>
        </technique_common>
      </optics>
      <extra>
        <technique profile="blender">
          <shiftx sid="shiftx" type="float">0</shiftx>
          <shifty sid="shifty" type="float">0</shifty>
          <dof_distance sid="dof_distance" type="float">10</dof_distance>
        </technique>
      </extra>
    </camera>
  </library_cameras>
  <library_lights>
    <light id="Light-light" name="Light">
      <technique_common>
        <point>
          <color sid="color">1000 1000 1000</color>
          <constant_attenuation>1</constant_attenuation>
          <linear_attenuation>0</linear_attenuation>
          <quadratic_attenuation>0</quadratic_attenuation>
        </point>
      </technique_common>
      <extra>
        <technique profile="blender">
          <type sid="type" type="int">0</type>
          <flag sid="flag" type="int">0</flag>
          <mode sid="mode" type="int">1</mode>
          <red sid="red" type="float">1</red>
          <green sid="green" type="float">1</green>
          <blue sid="blue" type="float">1</blue>
          <shadow_r sid="blender_shadow_r" type="float">0</shadow_r>
          <shadow_g sid="blender_shadow_g" type="float">0</shadow_g>
          <shadow_b sid="blender_shadow_b" type="float">0</shadow_b>
          <energy sid="blender_energy" type="float">1000</energy>
          <spotsize sid="spotsize" type="float">75</spotsize>
          <spotblend sid="spotblend" type="float">0.15</spotblend>
          <clipsta sid="clipsta" type="float">0.04999995</clipsta>
          <clipend sid="clipend" type="float">30.002</clipend>
          <bias sid="bias" type="float">1</bias>
          <radius sid="radius" type="float">0.1</radius>
          <area_shape sid="area_shape" type="int">1</area_shape>
          <area_size sid="area_size" type="float">0.1</area_size>
          <area_sizey sid="area_sizey" type="float">0.1</area_sizey>
          <area_sizez sid="area_sizez" type="float">1</area_sizez>
        </technique>
      </extra>
    </light>
  </library_lights>
  <library_effects>
    <effect id="Part__Feature_008-effect">
      <profile_COMMON>
        <technique sid="common">
          <lambert>
            <emission>
              <color sid="emission">0 0 0 1</color>
            </emission>
            <diffuse>
              <color sid="diffuse">0 0.1803922 0.03921569 1</color>
            </diffuse>
            <index_of_refraction>
              <float sid="ior">1.45</float>
            </index_of_refraction>
          </lambert>
        </technique>
      </profile_COMMON>
    </effect>
  </library_effects>
  <library_images/>
  <library_materials>
    <material id="Part__Feature_008-material" name="Part__Feature.008">
      <instance_effect url="#Part__Feature_008-effect"/>
    </material>
  </library_materials>
  <library_geometries>
    <geometry id="Part__Feature_008-mesh" name="Part__Feature.008">
      <mesh>
        <source id="Part__Feature_008-mesh-positions">
          <float_array id="Part__Feature_008-mesh-positions-array" count="1140">-0.002600252 0.1165552 1.83832e-4 -0.005551636 0.1155797 -0.002894103 -0.01018899 0.1130526 0.001421689 -0.01187407 0.1116654 -0.001707911 -0.001824557 0.1166647 -0.001707911 -0.008347868 0.113054 -0.006058633 6.91102e-5 0.115994 -0.005164444 -0.01867383 0.1037086 7.04278e-4 -0.001540064 0.1145133 -0.008333742 3.5042e-4 0.1165573 -0.002581655 -0.01901149 0.1023432 -0.004770517 -0.01468217 0.1052452 -0.009991645 -0.007310926 0.1104881 -0.01091086 -4.95779e-4 0.1125789 -0.01099437 0.001747846 0.1166067 -0.001854956 0.004643261 0.1142884 -0.007211387 -0.02246743 0.09716677 0 0.005752444 0.1156833 -0.002120256 -0.01145654 0.1026649 -0.01575517 -0.003603696 0.1053794 -0.01730608 0.007570087 0.1105561 -0.01071017 0.002605974 0.1165467 2.10273e-5 0.004374802 0.1085427 -0.01424807 0.008937358 0.1125234 -0.006341218 -0.0250566 0.09001463 0.001728475 -0.02594977 0.08603376 -0.003701746 0.002361476 0.1030878 -0.01912587 0.01018899 0.1130526 -0.00142163 0.01023465 0.1027721 -0.0164023 0.01376968 0.1087894 -0.005540668 0.01187407 0.1116654 0.001707971 0.01560705 0.09992861 -0.01434314 0.01833951 0.1025479 -0.006543159 0.01867383 0.1037086 -7.04237e-4 -0.028454 0.0780797 0 -0.03639125 0.05749815 0 0.02246743 0.09716677 0 0.0250566 0.09001463 -0.001728415 -0.03967469 0.03688246 -0.002474963 0.03639125 0.05749815 0 0.028454 0.0780797 0 -0.03867912 0.02792096 0 -0.03773492 0.02561765 -0.005861818 0.03967469 0.03688246 0.002474963 -0.02874916 0.005707323 1.80445e-4 -0.02214401 -0.00145936 -0.002611815 -0.02546894 0.003969371 -0.009956479 -0.02127212 0.004278957 -0.01766091 0.03867912 0.02792096 0 0.03773492 0.02561765 -0.005861818 -0.01358324 -0.006832838 -0.00186026 -0.01817405 0.007126808 -0.02334952 -0.01690906 -0.003621578 -0.009779572 -0.01176309 4.92287e-4 -0.02123224 -0.008745431 0.005914866 -0.02756184 -0.01415497 -0.002342402 -0.01559293 0.03479182 0.01650136 0 2.49924e-4 0.005063414 -0.02830809 -0.007901132 -0.008716523 2.91603e-4 -0.001297771 -0.002228915 -0.02127486 0.009065091 5.75325e-4 -0.02277529 0.00900048 0.007226884 -0.02839016 -0.003461122 -0.004984974 -0.01705771 -0.008267402 -0.007021129 -0.010387 0.01817369 0.007192075 -0.02340108 0.0175783 7.53119e-4 -0.01721513 0.02511513 0.009868323 -0.01893275 -0.003260672 -0.009154498 -0.004752635 0.0255621 0.003970801 -0.009712874 0.0081321 -0.005062043 -0.01519912 0.02874916 0.005707323 -1.80405e-4 0.01699274 -0.002433001 -0.01244765 0.002165377 -0.007685422 -0.01142185 0.02214401 -0.00145936 0.002611875 0.02045196 -0.002292156 -0.005659103 0.003468811 -0.008835673 -0.006418049 0.01203805 -0.007072627 -0.005714774 0.01358324 -0.006832838 0.00186032 0.007901132 -0.008716523 -2.91562e-4 -0.01422578 0.09607547 -0.01798516 -0.02242046 0.09333205 -0.008967995 -0.009356319 0.09522807 -0.02126252 -0.005463659 0.09436273 -0.02297669 0.002972185 0.09591263 -0.02284109 0.007907211 0.09406512 -0.02246421 -0.02712422 0.07890468 -0.008186519 -0.0305134 0.06721699 -0.01236933 0.02242046 0.09333205 -0.008967995 -0.03529024 0.05972224 -0.00537467 -0.03646123 0.05146759 -0.01079171 -0.03899484 0.04626846 -0.002800941 0.02765429 0.07857084 -0.006360828 -0.03791552 0.03487944 -0.01177579 -0.03514689 0.04048579 -0.01828014 -0.02256703 0.0423721 -0.0325734 -0.01657646 0.03914499 -0.03611427 0.0305134 0.06721699 -0.01236933 -0.01234889 0.05206316 -0.03592288 -0.007477819 0.039128 -0.03903114 -0.005523204 0.05252695 -0.03751832 0.002512276 0.03960883 -0.03962421 -0.03489267 0.03243511 -0.0182482 0.005523204 0.05252695 -0.03751832 0.01245462 0.05203944 -0.03589087 0.009796738 0.03897547 -0.03844416 0.01657646 0.03914499 -0.03611427 -0.03277677 0.0159617 -0.01130771 0.02256703 0.0423721 -0.0325734 -0.03346365 0.02321213 -0.01693451 0.03529024 0.05972224 -0.00537467 -0.02878904 0.02280789 -0.02368021 0.03646123 0.05146759 -0.01079171 -0.02290248 0.02262628 -0.02945208 -0.03479182 0.01650136 0 -0.03216016 0.01244348 -0.006282806 0.03899484 0.04626846 0.002800941 0.03858447 0.04504257 -0.007397592 -0.01664793 0.02957165 -0.03536796 -0.01216655 0.02063411 -0.03449571 -0.009515285 0.02876037 -0.03769898 0 0.02337718 -0.03754043 -0.002410352 0.03205734 -0.03931343 0.007377684 0.02972114 -0.03843301 0.03514689 0.04048573 -0.01828014 0.03791552 0.03487944 -0.01177579 0.01216655 0.02063411 -0.03449571 0.02290248 0.02262628 -0.02945208 0.03489273 0.03243511 -0.0182482 0.02878904 0.02280789 -0.02368021 0.03277677 0.0159617 -0.01130771 0.03216016 0.01244348 -0.006282806 0.003795444 -0.009299576 3.07315e-5 -0.01906543 0.09296327 -0.01486033 -0.01582837 0.08917379 -0.01988399 -0.02343815 0.07914155 -0.01566982 0.01906543 0.09296327 -0.01486033 0.01507949 0.09193766 -0.01944452 -0.02536863 0.06589621 -0.02170002 -0.02025514 0.06578779 -0.02661216 -0.01566678 0.07684087 -0.02440619 -0.02859479 0.06504517 -0.01788622 -0.03333324 0.05164879 -0.01831197 -0.02707779 0.056149 -0.02507412 -0.03710925 0.04592168 -0.01256126 0.02343815 0.07914155 -0.01566982 0.02025514 0.06578779 -0.02661216 0.01566678 0.07684087 -0.02440619 0.02536863 0.06589621 -0.02170002 -0.02960085 0.04056644 -0.02647972 -0.03078579 0.03275012 -0.02471917 0.02707779 0.056149 -0.02507412 0.02859479 0.06504517 -0.01788622 0.03333324 0.05164879 -0.01831197 0.02960079 0.04056644 -0.02647972 0.03580874 0.04698234 -0.01513606 0.03078579 0.03275012 -0.02471917 -0.0266022 0.01298153 -0.01963716 0.03938418 0.03624063 -0.004649519 -0.01100277 0.08548182 -0.02401703 -0.01749539 0.08205181 -0.02094626 0.01100367 0.08548182 -0.02401655 -0.0127514 0.06984037 -0.02913731 0.02614426 0.07874983 -0.01070535 -0.007690966 0.06486219 -0.03293931 0.01749539 0.08205181 -0.02094626 0.0127514 0.06984037 -0.02913731 0.00756222 0.06498813 -0.03291046 -0.01816022 0.05688661 -0.03183192 0.01816022 0.05688661 -0.03183192 -0.02470213 0.03326439 -0.03088349 0.02470213 0.03326439 -0.03088349 -0.0203132 0.01358616 -0.0264995 0.03346365 0.02321213 -0.01693451 0.0203132 0.01358616 -0.0264995 0 0.07891714 -0.02813917 -0.005174636 0.08353942 -0.02639967 0.005154907 0.08335018 -0.02644586 -0.005088925 0.07563579 -0.0289821 0.005167424 0.07401657 -0.02963572 0 0.05960339 -0.03572797 -0.01328879 0.0139063 -0.03074157 0.01328879 0.01390624 -0.03074157 -0.02900552 0.04773736 -0.0257622 0.02900552 0.04773736 -0.0257622 -0.006986558 0.01468974 -0.03318315 0.006986558 0.01468974 -0.03318315 0 0.01525413 -0.03413707 0 0.09062206 -0.02495437 0.01664793 0.02957165 -0.03536796 -1.80547e-5 0.1195615 -3.38911e-5 -0.001770317 0.1199343 6.53041e-4 5.75285e-4 0.1199282 0.001719653 0.002491772 0.1190726 -1.78718e-4 -0.002475798 0.1190881 0 0.002177238 0.1169666 8.89168e-4 0.001748144 0.1172252 -0.001399159 0.001030266 0.1171484 -0.002003192 0.002223908 0.1170209 -4.9284e-4 2.31397e-5 0.1171082 -0.00225979 -7.80927e-4 0.1170259 -0.002152264 -0.001862049 0.1172729 -0.001253306 -0.002240359 0.1170181 -3.57577e-4 0.001910865 0.1198158 -0.001026928 8.06756e-4 0.1198104 -0.002042174 0.001383543 0.1192115 -0.002087235 -7.88618e-4 0.1199268 -0.001689612 -4.38255e-4 0.1193473 -0.002406239 -0.001700401 0.1197578 -0.001520633 -0.001718223 0.1190925 -0.001798212 -0.002121448 0.1198516 2.88649e-5 -0.001570701 0.1191556 0.001975297 -0.002073645 0.1172381 9.70262e-4 -0.001046061 0.1170836 0.002004027 2.9893e-5 0.1171058 0.002255618 0.001041412 0.1170553 0.002011299 -0.001910865 0.1198158 0.001026928 -9.2876e-4 0.1197726 0.002053141 3.38364e-4 0.1193436 0.002418935 0.001148402 0.1198214 0.001834213 -0.001698434 0.116732 0.001748859 0.001707494 0.1190967 0.001810729 0.001982927 0.1197767 9.39767e-4 0.001795709 0.1199356 -7.08239e-4 0.002105951 0.1198691 -3.75782e-5 -2.99908e-4 0.1165511 0.002592742 0.001766026 0.1165316 0.001999199 0.001777291 0.1171775 0.001374185 0.005551636 0.1155797 0.002894103 0.008347868 0.113054 0.006058692 -6.911e-5 0.115994 0.005164444 0.001540064 0.1145133 0.008333742 0.01901149 0.1023432 0.004770517 0.01468217 0.1052452 0.009991705 0.007310926 0.1104881 0.01091092 4.95778e-4 0.1125789 0.01099443 -0.004643261 0.1142884 0.007211446 -0.005752444 0.1156833 0.002120316 0.0114566 0.1026649 0.01575523 0.003603756 0.1053794 0.01730614 -0.007570087 0.1105561 0.01071017 -0.004374802 0.1085427 0.01424813 -0.008937358 0.1125234 0.006341278 0.02594977 0.08603376 0.003701746 -0.002361476 0.1030878 0.01912587 -0.01023465 0.1027721 0.01640236 -0.01376968 0.1087894 0.005540728 -0.01560705 0.09992861 0.0143432 -0.01833951 0.1025479 0.006543219 0.03773492 0.02561765 0.005861878 0.02546894 0.003969371 0.009956538 0.02127206 0.004278957 0.01766091 -0.03773492 0.02561765 0.005861878 0.01817405 0.007126867 0.02334958 0.01690906 -0.003621578 0.009779632 0.01176303 4.92292e-4 0.0212323 0.008745431 0.005914866 0.0275619 0.01415497 -0.002342402 0.01559299 -2.49921e-4 0.005063354 0.02830809 -0.00900048 0.007226884 0.02839016 0.001297831 -0.002228915 0.02127486 -0.009065091 5.75331e-4 0.02277529 0.003461122 -0.004984974 0.01705777 0.008267402 -0.007021129 0.01038706 -0.01817369 0.007192134 0.02340114 -0.0175783 7.53125e-4 0.01721519 -0.02511513 0.009868323 0.01893281 0.004158675 -0.008865058 0.005885422 -0.0255621 0.003970801 0.009712874 -0.0081321 -0.005062043 0.01519918 -0.01699274 -0.002433001 0.01244771 -0.002165377 -0.007685422 0.01142191 -0.02045196 -0.002292156 0.005659162 -0.003468811 -0.008835673 0.006418108 -0.01203805 -0.007072627 0.005714833 0.01422578 0.09607547 0.01798522 0.02242046 0.09333205 0.008967995 0.006968319 0.09512239 0.02233797 -0.002972185 0.09591263 0.02284115 -0.007907271 0.09406512 0.02246421 0.02712422 0.07890468 0.008186578 0.0305134 0.06721699 0.01236939 -0.02242046 0.09333205 0.008967995 0.03529024 0.05972224 0.005374729 0.03646123 0.05146759 0.01079171 -0.02765429 0.07857084 0.006360888 0.03791552 0.03487944 0.01177585 0.03514689 0.04048579 0.01828014 0.02256703 0.04237204 0.03257346 0.01657646 0.03914499 0.03611433 -0.0305134 0.06721699 0.01236939 0.01234894 0.05206328 0.03592288 0.00747776 0.039128 0.0390312 0.005523204 0.05252695 0.03751838 -0.002512216 0.03960883 0.03962427 0.03489273 0.03243511 0.01824826 -0.005523204 0.05252701 0.03751838 -0.01245468 0.05203956 0.03589087 -0.009796738 0.03897547 0.03844422 -0.01657646 0.03914499 0.03611433 0.03277677 0.0159617 0.01130771 -0.02256703 0.04237204 0.03257346 0.03346365 0.02321213 0.01693457 -0.03529024 0.05972224 0.00537467 0.02878904 0.02280783 0.02368026 -0.03646123 0.05146759 0.01079171 0.02290248 0.02262628 0.02945208 0.03216016 0.01244348 0.006282866 -0.03858447 0.04504257 0.007397592 0.01664793 0.02957171 0.03536802 0.01216655 0.02063417 0.03449577 0.009515285 0.02876043 0.03769904 0 0.02337723 0.03754049 0.002410411 0.03205734 0.03931349 -0.007377624 0.0297212 0.03843307 -0.03514689 0.04048579 0.01828014 -0.03791552 0.03487944 0.01177585 -0.01216655 0.02063417 0.03449577 -0.01664793 0.02957171 0.03536802 -0.02290248 0.02262628 0.02945208 -0.03489273 0.03243511 0.01824826 -0.02878904 0.02280783 0.02368026 -0.03277677 0.0159617 0.01130771 -0.03216016 0.01244348 0.006282866 -0.002770781 -0.009370863 0.001040756 0.01906543 0.09296327 0.01486039 0.01582837 0.08917379 0.01988404 0.02343815 0.07914155 0.01566988 -0.01906543 0.09296327 0.01486039 -0.01507949 0.09193766 0.01944458 0.02536863 0.06589627 0.02170002 0.02025514 0.06578785 0.02661222 0.01566684 0.07684081 0.02440625 0.02859479 0.06504517 0.01788622 0.03333324 0.05164879 0.01831203 0.02707779 0.056149 0.02507418 0.03710925 0.04592168 0.01256132 -0.02343815 0.07914155 0.01566988 -0.02025514 0.06578785 0.02661222 -0.01566684 0.07684081 0.02440625 -0.02536863 0.06589627 0.02170002 0.02960079 0.04056638 0.02647978 0.03078579 0.03275007 0.02471923 -0.02707779 0.056149 0.02507418 -0.02859479 0.06504517 0.01788622 -0.03333324 0.05164879 0.01831203 -0.02960079 0.04056638 0.02647978 -0.03580874 0.04698234 0.01513612 -0.03078579 0.03275012 0.02471923 0.0266022 0.01298153 0.01963722 -0.03938418 0.03624063 0.004649579 0.01100367 0.08548188 0.02401661 0.01749539 0.08205175 0.02094632 -0.01100367 0.08548188 0.02401661 0.0127514 0.06984037 0.02913737 -0.02614426 0.07874983 0.01070535 0.007690966 0.06486213 0.03293937 -0.01749539 0.08205175 0.02094632 -0.0127514 0.06984037 0.02913737 -0.00756222 0.06498813 0.03291046 0.01816022 0.05688655 0.03183197 -0.01816022 0.05688655 0.03183197 0.02470213 0.03326433 0.03088355 -0.02470213 0.03326433 0.03088355 0.0203132 0.01358622 0.0264995 -0.03346365 0.02321213 0.01693457 -0.0203132 0.01358622 0.02649956 0 0.07899546 0.02810853 0.005154907 0.08335018 0.02644586 -0.005154907 0.08335018 0.02644586 0.005167424 0.07401657 0.02963578 -0.005167424 0.07401657 0.02963578 0 0.05960339 0.03572803 0.01328879 0.0139063 0.03074163 -0.01328879 0.0139063 0.03074163 0.02900552 0.04773736 0.02576225 -0.02900552 0.04773736 0.02576225 0.006986558 0.01468974 0.03318321 -0.006986558 0.01468974 0.03318321 0 0.01525413 0.03413712 0 0.09061557 0.02495688</float_array>
          <technique_common>
            <accessor source="#Part__Feature_008-mesh-positions-array" count="380" stride="3">
              <param name="X" type="float"/>
              <param name="Y" type="float"/>
              <param name="Z" type="float"/>
            </accessor>
          </technique_common>
        </source>
        <source id="Part__Feature_008-mesh-normals">
          <float_array id="Part__Feature_008-mesh-normals-array" count="2310">-0.2842057 0.9582564 -0.03117728 -0.5052219 0.8621506 -0.03804492 -0.5358694 0.8401254 -0.08386504 -0.2637234 0.9631752 -0.05237913 -0.5418752 0.821623 -0.1769375 -0.1838302 0.9412363 -0.2833389 -0.2009342 0.9226826 -0.3290628 -0.3186147 0.8578774 -0.4031515 -0.03580766 0.9772121 -0.2092234 -0.7717465 0.6265768 -0.1086698 -0.6552101 0.6883042 -0.3113474 -0.3371598 0.8005614 -0.4954035 -0.7279804 0.6389925 -0.2484616 -0.5475184 0.6857023 -0.4796205 -0.2347775 0.7400823 -0.6302046 0.08040153 0.9720128 -0.2207416 0.1168806 0.8757029 -0.4684906 0.1987141 0.9406945 -0.2749668 -0.2216566 0.6951751 -0.6838129 -0.5208473 0.6316087 -0.5742722 0.1297155 0.8255277 -0.5492523 0.2120262 0.929777 -0.3009312 0.2104721 0.7513479 -0.6254422 0.2197988 0.9730736 -0.06939983 -0.3528247 0.6205917 -0.7002719 0.03266739 0.6508606 -0.7584941 0.4150388 0.7738933 -0.4783641 0.4150715 0.8503665 -0.3234075 0.2112587 0.7551718 -0.6205524 0.02525663 0.6611616 -0.7498183 0.5229306 0.8230679 -0.2215917 0.2875269 0.5772715 -0.7642553 0.3654873 0.6277136 -0.6873098 0.5852624 0.6549217 -0.4780644 0.5436461 0.6086804 -0.5778902 0.5976108 0.6240366 -0.5034279 0.6182565 0.7491139 -0.2378806 0.691444 0.576237 -0.4357248 0.7216152 0.6871873 -0.08393537 0.7485908 0.6597397 -0.06599432 0.7831752 0.5997664 -0.1640641 -0.9321921 0.3594969 -0.04219132 0.9321921 0.3594967 -0.04219126 -0.9463398 -0.3221375 -0.02585518 0.9960673 0.07384848 -0.04895496 -0.7541521 -0.642922 -0.1338135 -0.6399064 -0.727355 -0.2479408 -0.4800699 -0.6513959 -0.5875511 -0.6141122 -0.7009427 -0.3626921 -0.389454 -0.5994803 -0.699249 -0.5499994 -0.7221793 -0.4194731 0.94634 -0.322137 -0.0258553 -0.4789144 -0.6858848 -0.5479079 -0.5196299 -0.8452677 -0.1245282 -0.1850745 -0.7009708 -0.6887578 0.1503649 -0.6368588 -0.7561754 -0.1242269 -0.6750395 -0.7272478 -0.2713325 -0.8088483 -0.5216736 -0.3632538 -0.858876 -0.36108 0.3827041 -0.5937651 -0.7077998 0.08724933 -0.7010875 -0.7077174 -0.2024202 -0.7689673 -0.6063954 -0.3706467 -0.9044653 -0.2111009 0.5855675 -0.589099 -0.5568421 0.426447 -0.6468356 -0.6322553 -0.2718681 -0.8481079 -0.4547536 -0.2577572 -0.9538086 -0.1543062 -0.253756 -0.957509 -0.1370564 0.654486 -0.6221199 -0.4296685 0.1331427 -0.8029066 -0.5810459 -0.09421706 -0.9312012 -0.3521185 0.3607533 -0.7689736 -0.5277656 0.07727754 -0.8522724 -0.5173588 0.3832271 -0.788999 -0.4802266 0.6286188 -0.6800681 -0.3772875 -0.08885008 -0.9550914 -0.2826766 0.6306328 -0.7129675 -0.3065611 0.07261818 -0.869257 -0.4889979 -0.008718371 -0.9750363 -0.2218747 0.7179599 -0.691788 -0.07722026 0.72926 -0.6734273 -0.1211424 0.3618701 -0.8705071 -0.3335678 0.2253625 -0.930118 -0.289987 0.4821092 -0.8458908 -0.2281218 0.5329846 -0.8457881 -0.02387255 0.2152838 -0.9379917 -0.2717069 0.4930373 -0.8669293 -0.07312881 0.2102039 -0.9685364 -0.1332353 0.3269878 -0.9443114 -0.03680855 -0.8593016 0.5061974 -0.0732454 -0.761371 0.4548564 -0.461974 -0.7879831 0.478551 -0.387391 -0.6716909 0.4675253 -0.5746752 -0.6603814 0.4744951 -0.582023 -0.9432999 0.3219422 -0.08086264 -0.4438286 0.4489727 -0.7755255 -0.263534 0.4762828 -0.838871 -0.3307974 0.4995103 -0.8006638 -0.9588788 0.2798258 -0.04742455 -0.08863317 0.4676472 -0.8794603 -0.06914496 0.4540619 -0.8882831 0.2383553 0.4624771 -0.8539916 0.3026515 0.4887673 -0.8182351 0.4553413 0.4235147 -0.7831346 0.51419 0.437134 -0.7379177 0.7768691 0.4205271 -0.4686486 -0.9047697 0.3494817 -0.2434222 -0.9201385 0.3753417 -0.1116415 0.779917 0.4576866 -0.4269104 0.9333657 0.2947695 -0.2047914 -0.9642515 0.247303 -0.09518539 -0.9319438 0.04242938 -0.3601121 0.9248476 0.3700875 -0.08770537 0.9043819 0.3539112 -0.2384117 -0.4592314 0.1838282 -0.8690879 -0.4386466 0.1566577 -0.8848998 -0.3031247 0.1132158 -0.9462017 -0.2344619 0.1427692 -0.9615845 -0.06463968 0.1212621 -0.9905136 0 0.160893 -0.9869719 0 0.2452737 -0.9694539 0.1689206 0.1201046 -0.9782846 -0.9099891 -0.03037405 -0.4135182 0.2356464 0.1400136 -0.9617001 0.3200541 0.1185893 -0.9399479 0.4391233 0.1556962 -0.884833 0.4609726 0.1843042 -0.8680647 -0.9149904 -0.1922949 -0.3547045 -0.8222035 -0.2031311 -0.5317134 -0.8080116 -0.2194165 -0.5467851 -0.6870933 -0.2098333 -0.6956096 -0.687703 -0.2107151 -0.69474 -0.9139547 -0.3824051 -0.1358422 0.9755515 0.2100911 -0.06450647 0.9674839 0.2312343 -0.1024967 -0.4507544 -0.307791 -0.8379053 -0.5454464 -0.2017346 -0.8135057 -0.3264033 -0.2525594 -0.9108648 -0.162849 -0.3153884 -0.9348853 -0.1134316 -0.2289782 -0.9668 -0.8711584 -0.4885122 -0.04938572 0.04328936 -0.1883878 -0.9811402 0.9402679 0.08059698 -0.3307572 0.1616617 -0.3193792 -0.9337357 0.3011533 -0.2410448 -0.9226073 0.4507544 -0.3077909 -0.8379053 0.5454461 -0.2017346 -0.8135058 0.9099893 -0.03037357 -0.413518 0.6870933 -0.2098334 -0.6956096 0.687703 -0.2107152 -0.6947401 0.8080121 -0.2194167 -0.5467841 0.8222037 -0.2031307 -0.5317134 0.9149904 -0.1922955 -0.3547042 0.9139549 -0.3824051 -0.1358421 -0.1226422 -0.9920922 -0.02668333 0.005048632 -0.9992745 -0.03774976 0.8718214 -0.4872137 -0.05050188 0.1341764 -0.9878945 -0.07785493 -0.8875182 0.4219666 -0.1850833 -0.9281986 0.3403378 -0.1503918 -0.9614414 0.2413399 -0.1318541 0.8625624 0.4845183 -0.1456989 0.8775378 0.4392129 -0.1924049 0.9143977 0.3704621 -0.1632014 -0.9064028 0.314004 -0.282552 0.960641 0.258862 -0.1007937 -0.8283116 -6.17769e-4 -0.5602675 -0.8433271 -0.02875661 -0.5366308 -0.9257924 -0.2161068 -0.3101716 0.9064029 0.3140037 -0.282552 -0.9116106 -0.3808087 -0.1547608 0.9417629 0.1530324 -0.299439 0.8283122 -6.18241e-4 -0.5602665 -0.8075569 -0.5664714 -0.164202 -0.8092659 -0.5232374 -0.2670422 0.8433266 -0.02875614 -0.5366315 0.9257922 -0.2161071 -0.3101716 0.9116107 -0.3808085 -0.1547607 0.8097735 -0.5226817 -0.2665914 0.8095961 -0.5623621 -0.168235 0.02911585 -0.9968937 -0.07318031 -0.8693079 0.2606754 -0.4199432 -0.8239775 0.2892138 -0.4872539 -0.7087585 0.262573 -0.6547647 -0.9309493 0.2916153 -0.2197589 -0.7094225 0.2635436 -0.6536548 -0.8330391 0.3840638 -0.3981721 -0.7114064 0.3744417 -0.5947221 -0.8022629 0.3402436 -0.4905188 -0.6908301 0.5579042 -0.4598878 0.6990647 0.2601674 -0.6660492 0.8239775 0.2892138 -0.487254 -0.4646423 0.354803 -0.8113092 0.7099691 0.2721684 -0.649514 0.8539997 0.2709974 -0.444123 -0.8513519 0.3144804 -0.4198834 -0.7913351 0.2968924 -0.5344567 -0.7559765 0.3285505 -0.566175 -0.2768065 0.3895094 -0.8784422 -0.8839668 0.2977218 -0.3605059 0.7114064 0.3744419 -0.5947222 -0.9656395 0.1743289 -0.1927426 0.2731856 0.3912184 -0.8788161 0.4646419 0.3548023 -0.8113096 0.8264459 0.3738361 -0.4209916 0.8801906 0.3753631 -0.2904601 0.8022632 0.3402435 -0.4905184 -0.9793872 0.06428831 -0.1914888 -0.9786281 0.05740761 -0.1974625 0.6908303 0.5579053 -0.4598861 0.7559763 0.3285506 -0.5661753 -0.9848902 -0.1382281 -0.1043283 -0.9798082 -0.1208255 -0.1593023 0.8513522 0.3144799 -0.4198833 0.7913349 0.2968926 -0.5344569 0.8839668 0.2977223 -0.3605056 -0.9085745 -0.3064091 -0.2839118 0.9442775 0.06039083 -0.3235632 -0.7951675 -0.4169967 -0.4402529 0.9960032 0.07568538 -0.04742872 0.9781882 0.02447456 -0.2062734 -0.7493259 -0.5049 -0.4284701 -0.7549158 -0.5451592 -0.3645595 0.9943104 -0.1017976 -0.03137129 0.9846071 -0.1410943 -0.103157 0.9755889 -0.1313842 -0.1759676 0.9085745 -0.3064089 -0.2839119 0.7856251 -0.4240592 -0.4505187 0.7747219 -0.5149387 -0.3669389 -0.1400194 0.2951684 -0.9451297 -0.5394522 0.3261345 -0.776291 0.1616899 0.3069815 -0.9378799 -0.2753332 0.2958774 -0.9146848 -0.04248917 0.3098841 -0.9498246 -0.5636928 0.3104202 -0.7654345 -0.6319484 0.3953692 -0.6665767 0.5394649 0.326126 -0.7762857 -0.6454956 0.3484554 -0.6796428 0.5636924 0.3104205 -0.7654346 -0.4672655 0.3628175 -0.8062422 0.6319482 0.3953689 -0.6665771 -0.9600554 0.2354293 -0.1512181 0.9129805 0.2696288 -0.3062139 -0.3415876 0.3259959 -0.8815013 0.3382912 0.3249632 -0.8831524 0.4672653 0.3628177 -0.8062422 0.6454955 0.3484558 -0.6796427 -0.7086859 -0.05105406 -0.7036745 0.9595711 0.2363888 -0.1527871 -0.7702748 -0.3816351 -0.5109125 0.7086864 -0.05105406 -0.7036741 0.7636517 -0.4021392 -0.5050941 -0.6542143 0.3380531 -0.676553 -0.5167811 0.2433819 -0.8207939 -0.2808007 0.2825824 -0.9172231 0.2842018 0.2689663 -0.9202644 -0.08948385 0.2614945 -0.9610481 0.09081006 0.2614639 -0.960932 0.6565502 0.3746007 -0.6546878 0.5190433 0.2509639 -0.8170749 -0.5221644 0.3174907 -0.7915455 -0.227858 0.3258396 -0.9175561 0.2651511 0.3121424 -0.912284 0.03267383 0.3232655 -0.9457441 0.2396947 0.3261498 -0.9144248 0.5221745 0.3174836 -0.7915416 -0.08137357 0.3644914 -0.9276446 0.07703918 0.3646171 -0.9279653 -0.08874696 0.3622381 -0.927851 -0.5918578 0.29953 -0.7483223 0.08927309 0.360455 -0.9284948 -0.9018849 0.2233575 -0.36975 -0.1159138 0.3276987 -0.9376448 -0.236392 0.301365 -0.9237414 -0.3445302 0.3302373 -0.8787732 0.1159715 0.3277377 -0.9376239 0.3431406 0.3319013 -0.8786901 0.237979 0.3023681 -0.9230058 -0.8865979 0.1427908 -0.4399488 0.5918583 0.2995303 -0.7483217 -0.656791 0.01407712 -0.7539413 0.9012042 0.2266814 -0.3693867 0.8701356 0.1400231 -0.4725015 0.6567908 0.01407706 -0.7539415 -0.6485852 -0.3977262 -0.6489616 -0.6550524 -0.4075588 -0.6362406 -0.6187154 -0.5138956 -0.5942243 -0.6157658 -0.5006358 -0.6084377 0.6485849 -0.3977262 -0.6489619 0.66093 -0.4166561 -0.6241549 0.5965394 -0.5027593 -0.6255988 -0.7855812 0.2271198 -0.5755684 -0.8252767 0.1325168 -0.5489606 -0.8225066 0.1238195 -0.5551141 -0.5226283 -0.03553622 -0.8518198 0.785581 0.2271196 -0.5755686 -0.5074585 -0.06320089 -0.8593553 0.8252772 0.1325166 -0.54896 0.8225058 0.1238195 -0.5551153 0.5226278 -0.03553617 -0.8518201 0.5074582 -0.06320089 -0.8593555 -0.0779398 -0.4964347 -0.8645682 0.07839542 -0.4935283 -0.8661895 -0.4922898 0.3127415 -0.8123077 -0.4535167 0.3327834 -0.8267876 -0.3253556 0.3076679 -0.8941389 -0.05849897 0.3984757 -0.9153115 0.1762437 0.2781497 -0.9442304 0.4458469 0.3125406 -0.8387723 -0.602141 0.201199 -0.7726224 -0.6134324 0.2249215 -0.7570411 -0.6680197 0.1287842 -0.732915 0.6021405 0.201199 -0.7726228 0.6134321 0.2249212 -0.7570412 0.6680202 0.1287841 -0.7329145 -0.4502285 -0.3766499 -0.8095858 -0.4623801 -0.3921693 -0.7952408 -0.2785699 -0.4321348 -0.8577052 -0.1422271 -0.3825001 -0.9129431 0.1051089 -0.300883 -0.947851 0.1422274 -0.3824999 -0.9129432 -0.1051079 -0.3008838 -0.9478509 -0.1193206 -0.5185 -0.8467116 -0.2636837 -0.4823025 -0.8353773 0.4623809 -0.3921689 -0.7952405 0.2785705 -0.4321343 -0.8577052 0.4502279 -0.3766499 -0.8095861 -0.405265 -0.5056335 -0.7616396 -0.420017 -0.5314834 -0.7356027 0.1190177 -0.513618 -0.8497242 0.2679392 -0.4684079 -0.8419043 0.4207414 -0.5294567 -0.7366494 0.4108421 -0.5052259 -0.7589175 -0.3046141 -0.07176363 -0.9497686 -0.3161994 -0.05951726 -0.946824 0.3257666 -0.07106083 -0.942776 0.311643 -0.08260232 -0.9466021 -0.1806234 -0.09034591 -0.9793942 0.1562089 -0.04202109 -0.9868298 -0.05914068 -0.002527832 -0.9982465 0.06891888 -0.0858289 -0.9939234 0.1113549 0.9645227 -0.2393662 -0.2428486 0.9627209 -0.1191347 0.7498168 0.6596572 0.05125612 0.9906294 -0.1336412 0.02816694 0.8855921 0.001665771 -0.4644609 0.8631205 -0.03555387 -0.503745 0.6461448 -0.141209 -0.750038 0.1702917 -0.02933287 -0.9849571 -0.1230103 -0.08998966 -0.988317 0.2491437 -0.08197551 -0.9649909 -0.4228277 -0.036668 -0.905468 -0.652682 -0.1695296 -0.7384213 -0.9206513 -0.04339426 -0.3879668 -0.9169536 -0.03563004 -0.3974 0.8685208 0.4553529 -0.1957688 0.4942135 0.8573926 -0.1436349 0.8628708 0.1118799 -0.4928863 0.2388598 0.9342282 -0.2648847 0.1850697 0.2498201 -0.9504415 0.8760339 0.2813515 -0.3916708 -0.4578781 0.3527693 -0.8160278 -0.1968274 0.9766925 -0.08562046 -0.08552986 0.9928439 -0.08334136 -0.9061055 0.1833277 -0.3812662 -0.8716011 0.414374 -0.2619272 -0.8924925 0.2851558 -0.34949 0.5517249 0.5763678 -0.6028266 0.5517444 0.5764053 -0.6027728 0.5517171 0.5763583 -0.6028428 0.04442328 0.9910708 -0.1257191 0.04435658 0.9910717 -0.1257364 0.04439485 0.9910714 -0.1257247 0.8728759 0.2892274 -0.3929823 0.5232225 0.505456 -0.6861141 0.4255894 0.3336854 -0.8411467 0.1806086 0.5739479 -0.7987267 -0.1625993 0.4239509 -0.8909698 -0.3745837 -0.05623686 -0.9254861 -0.4801802 0.5058889 -0.7165916 -0.9223608 0.193143 -0.3345838 -0.08886855 0.7525749 -0.6524825 -0.08880287 0.7526265 -0.652432 -0.08897006 0.7525226 -0.6525291 -0.253688 0.6876665 -0.6802626 -0.2536878 0.6876664 -0.6802629 -0.2536616 0.6876593 -0.6802798 -0.7906785 0.6122281 -0.002148211 -0.9798545 -0.1366 0.1456903 -0.9091814 0.02047133 0.4158968 -0.7114601 -0.1706951 0.6816801 -0.2223955 -0.04043602 0.9741176 -0.2266288 -0.04389482 0.9729917 0.3995678 -0.04037016 0.9158144 0.2287133 -0.1021826 0.9681163 0.6613172 -0.1434159 0.7362686 0.9289668 -0.04964756 0.3668187 0.7956138 0.1752438 0.5799039 -0.8911755 0.405909 0.2025943 -0.9037743 0.1231267 0.4099169 -0.1965125 0.9535777 0.2281938 -0.06768882 0.98567 0.1545087 0.04028213 0.8234845 0.5659069 -0.23619 0.1241237 0.9637467 0.4320456 0.3057463 0.8484432 0.1656261 0.9823752 0.08664298 0.1656026 0.9823799 0.08663398 0.1657536 0.9823523 0.08665961 0.1380601 0.9872292 0.07948619 0.007704973 0.9954392 0.09508615 0.9268315 0.09110403 0.3642574 0.8998379 0.4089203 0.151908 0.9124726 0.1285267 0.388426 -0.4284725 0.8952099 0.122519 -0.5946364 0.5439867 0.5920185 -0.8666408 0.1071882 0.4872828 -0.5453806 0.5579717 0.625482 0.6518278 0.4838824 0.5839336 -0.4723969 0.2668383 0.840023 -0.1951652 0.5914902 0.7823363 0.2340127 0.3995307 0.8863484 0.2624566 0.3421868 0.9022332 0.4553072 0.6149924 0.6438011 0.7795508 0.4286075 0.4567232 0.7795669 0.4286156 0.4566885 0.7796105 0.4286186 0.4566112 0.05357253 0.7350817 0.6758586 0.05348181 0.7351841 0.6757545 0.05370336 0.7350078 0.6759287 -0.1017166 0.9604467 0.2592218 0.2441047 0.9646607 0.09921044 0.2841795 0.9582641 0.0311768 0.5052219 0.8621506 0.03804492 0.5358696 0.8401253 0.08386504 0.2201074 0.9702442 0.1008914 0.5418753 0.821623 0.1769376 0.1762539 0.9484888 0.2632559 0.2009344 0.9226803 0.3290693 0.3186141 0.8578777 0.4031515 0.06825453 0.9763032 0.2053616 0.7717465 0.6265767 0.1086699 0.65521 0.6883042 0.3113474 0.3371589 0.8005611 0.4954048 0.7279806 0.6389929 0.2484602 0.5475189 0.6857027 0.4796196 0.2347779 0.7400855 0.6302006 -0.001464188 0.977303 0.2118411 -0.1168804 0.8757055 0.4684858 -0.2126762 0.9292141 0.3022086 0.2216566 0.6951756 0.6838123 0.5208472 0.6316081 0.574273 -0.1297144 0.8255268 0.549254 -0.212026 0.9297762 0.3009341 -0.210473 0.7513501 0.6254393 -0.2474451 0.9683331 0.03319621 0.3528268 0.6205925 0.7002701 -0.03266572 0.6508588 0.7584957 -0.4150388 0.7738927 0.4783649 -0.4150713 0.8503658 0.3234099 -0.2112587 0.7551708 0.6205536 -0.02525562 0.6611621 0.7498179 -0.5229311 0.8230682 0.2215897 -0.3654881 0.627713 0.6873099 -0.2875285 0.5772722 0.764254 -0.5852621 0.6549217 0.4780648 -0.5436486 0.6086823 0.5778859 -0.5976101 0.6240363 0.5034292 -0.6182557 0.7491135 0.2378842 -0.6914444 0.5762366 0.4357247 -0.7485907 0.65974 0.06599473 -0.7216154 0.6871871 0.08393537 -0.7831753 0.5997663 0.1640642 0.9321921 0.3594969 0.04219132 -0.9321921 0.3594967 0.04219126 0.9463399 -0.3221374 0.02585518 -0.9960672 0.07384848 0.04895478 0.7541523 -0.6429218 0.1338135 0.6399059 -0.7273553 0.247941 0.4800694 -0.6513949 0.5875527 0.6141125 -0.7009427 0.3626917 0.3894547 -0.5994799 0.6992489 0.5499987 -0.7221797 0.4194735 -0.9463398 -0.3221373 0.02585524 0.4789142 -0.6858845 0.5479086 0.51963 -0.8452677 0.1245287 0.1850744 -0.7009709 0.6887578 -0.1503648 -0.6368587 0.7561756 0.1242271 -0.6750399 0.7272474 0.2713323 -0.808848 0.521674 0.3632537 -0.8588757 0.361081 -0.3827052 -0.5937649 0.7077995 -0.08724939 -0.7010879 0.707717 0.2024201 -0.7689676 0.6063953 0.3706466 -0.9044653 0.2111008 -0.4264468 -0.6468345 0.6322565 -0.5855669 -0.589099 0.5568428 0.2718679 -0.848108 0.4547535 0.2676547 -0.9524146 0.1458337 0.2644636 -0.9545763 0.1372704 -0.6544865 -0.6221194 0.4296683 -0.1331427 -0.8029065 0.5810459 0.09421712 -0.9312013 0.3521185 -0.3607528 -0.7689737 0.5277659 -0.0772776 -0.8522725 0.5173586 -0.3832271 -0.7889991 0.4802266 -0.6286189 -0.6800683 0.3772869 0.09065538 -0.947861 0.3055179 -0.6306327 -0.7129676 0.3065609 -0.07261806 -0.8692569 0.4889979 0.01168584 -0.9751737 0.2211332 -0.7179599 -0.691788 0.07722032 -0.72926 -0.6734274 0.1211424 -0.3618698 -0.8705072 0.3335679 -0.2253623 -0.9301179 0.289987 -0.4821096 -0.8458909 0.2281211 -0.5329845 -0.8457883 0.02387255 -0.2152838 -0.9379917 0.271707 -0.4930374 -0.8669293 0.07312899 -0.2102038 -0.9685364 0.1332353 -0.3269879 -0.9443114 0.03680866 0.8593015 0.5061976 0.0732454 0.7613711 0.4548564 0.4619738 0.7879825 0.4785508 0.3873922 0.6716908 0.4675256 0.574675 0.6603821 0.4744943 0.5820229 0.9433001 0.3219417 0.08086204 0.4173469 0.4437664 0.7930278 0.3310844 0.5009014 0.7996755 0.9588786 0.2798264 0.04742449 0.08094775 0.4528594 0.8878997 0.09131795 0.4625727 0.8818659 -0.2383566 0.462478 0.8539907 -0.3026521 0.4887667 0.8182353 -0.4553406 0.4235149 0.7831348 -0.5141901 0.4371339 0.7379177 -0.7768691 0.4205275 0.4686484 0.9201386 0.3753417 0.1116408 0.9047697 0.3494818 0.2434226 -0.7799165 0.4576871 0.4269108 -0.9333655 0.2947696 0.2047922 0.9642515 0.2473032 0.09518539 0.9319437 0.04242938 0.3601124 -0.9248478 0.3700873 0.08770406 -0.9043819 0.3539111 0.2384125 0.459232 0.1838271 0.8690878 0.4386473 0.1566585 0.8848993 0.3031246 0.1132171 0.9462016 0.2344635 0.1427693 0.961584 0.06464052 0.121263 0.9905135 5.7921e-7 0.2452738 0.9694539 8.05174e-7 0.1608939 0.9869718 -0.1689218 0.120105 0.9782844 0.9099892 -0.03037297 0.4135182 -0.2356489 0.1400144 0.9616994 -0.3200532 0.1185903 0.939948 -0.4391251 0.1556965 0.8848322 -0.4609722 0.1843034 0.8680651 0.9149907 -0.1922951 0.3547037 0.8222033 -0.2031319 0.5317135 0.808012 -0.2194161 0.5467846 0.6870934 -0.209834 0.6956094 0.6877029 -0.2107156 0.69474 0.9139548 -0.3824051 0.1358424 -0.9755515 0.2100911 0.06450635 -0.9674839 0.2312346 0.1024964 0.4507547 -0.3077901 0.8379054 0.5454457 -0.2017357 0.8135058 0.3264034 -0.2525588 0.9108649 0.1628494 -0.3153877 0.9348854 0.1134334 -0.2289788 0.9667997 0.8711585 -0.488512 0.04938572 -0.04328954 -0.1883872 0.9811403 -0.9402679 0.08059668 0.3307574 -0.1616629 -0.3193786 0.9337357 -0.3011528 -0.2410446 0.9226075 -0.4507547 -0.3077901 0.8379054 -0.5454454 -0.2017355 0.8135061 -0.9099892 -0.03037303 0.4135181 -0.6870937 -0.209834 0.695609 -0.687703 -0.2107156 0.6947399 -0.8080117 -0.2194171 0.5467847 -0.8222035 -0.2031316 0.5317133 -0.9149907 -0.1922954 0.3547034 -0.9139549 -0.3824051 0.1358423 0.1452484 -0.9873066 0.06425464 -0.8718215 -0.4872134 0.05050212 -0.1376547 -0.9872131 0.08038461 0.887518 0.4219667 0.1850833 0.9281987 0.3403373 0.1503923 0.9614415 0.2413393 0.1318545 -0.8625624 0.4845184 0.1456989 -0.8775377 0.439213 0.1924049 -0.9143977 0.3704622 0.1632012 0.9064031 0.3140037 0.2825514 -0.960641 0.2588621 0.1007937 0.8283126 -6.18711e-4 0.560266 0.8433265 -0.02875697 0.5366318 0.9257923 -0.2161071 0.3101716 -0.9064028 0.3140038 0.282552 0.9116108 -0.3808083 0.1547606 -0.9417629 0.1530312 0.2994396 -0.8283122 -6.18994e-4 0.5602666 0.8075568 -0.5664715 0.1642019 0.809266 -0.5232374 0.2670421 -0.8433265 -0.02875649 0.5366317 -0.9257922 -0.2161071 0.3101717 -0.9116107 -0.3808087 0.1547605 -0.8097737 -0.5226815 0.266591 -0.8095965 -0.5623617 0.1682351 0.022004 -0.9971163 0.07262903 0.003110349 -0.9950391 0.09943628 0.869308 0.2606755 0.419943 0.8239775 0.2892138 0.4872541 0.7087575 0.2625729 0.6547658 0.9309495 0.2916154 0.2197581 0.7094236 0.2635444 0.6536533 0.8330393 0.3840637 0.3981716 0.7114061 0.3744421 0.5947223 0.8022628 0.3402435 0.490519 0.690833 0.5579018 0.4598863 -0.6990649 0.2601674 0.6660491 -0.8239775 0.2892138 0.4872541 0.4646419 0.3548032 0.8113092 -0.7099691 0.2721691 0.6495137 -0.8539993 0.2709974 0.4441234 0.8513519 0.3144802 0.4198836 0.7913348 0.296893 0.5344568 0.7559763 0.3285504 0.5661754 0.2737679 0.3923583 0.8781265 0.8839666 0.2977219 0.3605063 -0.711406 0.3744419 0.5947225 0.9656397 0.174328 0.1927427 -0.2731848 0.3912186 0.8788163 -0.4646421 0.3548031 0.8113092 -0.8801909 0.3753632 0.2904594 -0.8264465 0.3738361 0.4209902 -0.8022631 0.3402431 0.4905188 0.9793871 0.06428831 0.1914888 0.9786281 0.05740708 0.1974624 -0.6908288 0.5579051 0.4598887 -0.7559763 0.3285504 0.5661753 0.9798083 -0.1208245 0.1593022 0.9848901 -0.1382287 0.1043285 -0.8513523 0.3144801 0.4198827 -0.7913348 0.2968926 0.5344569 -0.8839668 0.2977221 0.3605058 0.9085744 -0.3064093 0.2839118 -0.9442775 0.06039094 0.3235632 0.7951677 -0.4169964 0.4402526 -0.9960031 0.07568538 0.04742896 -0.9781882 0.02447372 0.2062736 0.7549157 -0.5451596 0.3645592 0.7493258 -0.5048999 0.4284704 -0.9943104 -0.1017975 0.03137123 -0.9846071 -0.1410938 0.103157 -0.9755889 -0.131384 0.1759677 -0.9085744 -0.3064092 0.2839119 -0.7856252 -0.4240595 0.4505183 -0.7747219 -0.5149388 0.3669388 0.1567195 0.3037912 0.9397606 0.5394665 0.3261269 0.7762842 -0.16174 0.3069676 0.9378759 0.5636931 0.3104199 0.7654343 0.6319488 0.3953697 0.666576 -0.5394667 0.3261262 0.7762844 0.6454951 0.3484551 0.6796433 -0.5636931 0.3104201 0.7654342 0.4672657 0.3628172 0.8062422 -0.6319482 0.3953694 0.6665768 0.9600553 0.2354292 0.1512181 -0.9129808 0.2696285 0.3062132 0.3415874 0.3259958 0.8815016 -0.3382906 0.324963 0.8831526 -0.4672654 0.3628174 0.8062424 -0.6454949 0.3484552 0.6796435 0.7086862 -0.05105578 0.7036741 -0.959571 0.2363891 0.1527872 0.770275 -0.3816348 0.5109124 -0.7086861 -0.05105584 0.7036742 -0.7636517 -0.4021387 0.5050946 0.6542131 0.338052 0.6765546 0.5167933 0.2433835 0.8207857 0.2805393 0.2774299 0.9188745 0.0897938 0.2607071 0.9612331 -0.0897935 0.2607076 0.961233 -0.2842012 0.2689658 0.9202647 -0.6565504 0.3746006 0.6546877 0.2651505 0.3121422 0.9122843 0.0319513 0.3232724 0.9457664 -0.519043 0.2509635 0.8170751 0.2396947 0.32615 0.9144248 0.5221744 0.317483 0.7915418 -0.03195238 0.3232721 0.9457666 -0.2651509 0.3121424 0.9122841 -0.5221751 0.3174827 0.7915416 -0.239694 0.3261502 0.914425 -0.07704704 0.3646146 0.9279655 0.07704609 0.3646146 0.9279657 0.09050458 0.3600327 0.9285395 0.5918581 0.2995297 0.7483221 -0.08927291 0.3604548 0.9284949 0.9018846 0.2233576 0.3697507 0.115913 0.3276985 0.9376449 0.2363933 0.301365 0.9237411 0.3445298 0.3302378 0.8787732 -0.1159704 0.3277383 0.9376239 -0.3431419 0.3319019 0.8786893 -0.2379799 0.3023684 0.9230054 0.8865982 0.1427904 0.4399483 -0.5918582 0.2995302 0.7483218 0.6567906 0.01407611 0.7539417 -0.9012043 0.2266813 0.3693866 -0.8701356 0.1400232 0.4725015 -0.6567905 0.01407569 0.7539418 0.6550521 -0.407559 0.636241 0.6485849 -0.3977262 0.648962 0.6157657 -0.5006351 0.6084384 0.6187166 -0.5138958 0.594223 -0.6485854 -0.3977259 0.6489615 -0.66093 -0.416656 0.6241549 -0.5965399 -0.5027583 0.6255991 0.7855809 0.2271195 0.5755688 0.8252771 0.132517 0.5489599 0.8225057 0.1238183 0.5551158 0.5226284 -0.03553575 0.8518197 -0.785581 0.2271196 0.5755686 0.5074586 -0.06319993 0.8593554 -0.825277 0.1325168 0.54896 -0.8225058 0.123819 0.5551154 -0.522628 -0.03553593 0.8518199 -0.5074594 -0.06319987 0.859355 0.07793903 -0.4964349 0.864568 -0.0783953 -0.4935284 0.8661893 0.4523373 0.3333778 0.8271942 0.4535213 0.3327838 0.826785 -0.1762704 0.2782265 0.9442027 0.07844817 0.4074348 0.9098588 -0.445847 0.3125411 0.838772 0.613432 0.2249208 0.7570415 0.60214 0.2011993 0.772623 0.6680203 0.1287847 0.7329143 -0.6021405 0.201199 0.7726228 -0.6134322 0.2249209 0.7570414 -0.6680204 0.1287851 0.7329142 0.4623806 -0.3921691 0.7952406 0.4502283 -0.3766499 0.809586 0.2785703 -0.4321344 0.8577054 0.1051072 -0.3008835 0.947851 -0.105108 -0.3008832 0.9478511 -0.1422275 -0.3824998 0.9129432 0.1422279 -0.3825002 0.912943 0.2636836 -0.4823028 0.8353771 0.1193211 -0.5185003 0.8467113 -0.4502279 -0.3766498 0.8095862 -0.2785711 -0.432134 0.8577053 -0.4623805 -0.3921689 0.7952409 0.4052644 -0.5056331 0.7616403 0.4200171 -0.5314833 0.7356026 -0.26794 -0.4684078 0.8419039 -0.119018 -0.5136182 0.8497241 -0.410842 -0.5052252 0.7589181 -0.4207415 -0.5294564 0.7366495 0.3046131 -0.07176268 0.949769 0.3161973 -0.05951732 0.9468247 -0.3257657 -0.07105946 0.9427764 -0.3116415 -0.08260178 0.9466026 0.1806253 -0.09034597 0.9793937 -0.1562092 -0.0420202 0.9868298 -0.06891655 -0.08582895 0.9939235 0.05914133 -0.002528905 0.9982464</float_array>
          <technique_common>
            <accessor source="#Part__Feature_008-mesh-normals-array" count="770" stride="3">
              <param name="X" type="float"/>
              <param name="Y" type="float"/>
              <param name="Z" type="float"/>
            </accessor>
          </technique_common>
        </source>
        <vertices id="Part__Feature_008-mesh-vertices">
          <input semantic="POSITION" source="#Part__Feature_008-mesh-positions"/>
        </vertices>
        <triangles material="Part__Feature_008-material" count="756">
          <input semantic="VERTEX" source="#Part__Feature_008-mesh-vertices" offset="0"/>
          <input semantic="NORMAL" source="#Part__Feature_008-mesh-normals" offset="1"/>
          <p>0 0 1 0 236 0 236 1 1 1 2 1 1 2 3 2 2 2 4 3 1 3 0 3 1 4 5 4 3 4 4 5 6 5 1 5 6 6 8 6 1 6 8 7 5 7 1 7 9 8 6 8 4 8 3 9 10 9 7 9 5 10 11 10 3 10 8 11 12 11 5 11 11 12 10 12 3 12 12 13 11 13 5 13 8 14 13 14 12 14 14 15 6 15 9 15 6 16 15 16 8 16 14 17 17 17 6 17 13 18 19 18 12 18 12 19 18 19 11 19 15 20 13 20 8 20 6 21 17 21 15 21 15 22 20 22 13 22 21 23 17 23 14 23 12 24 19 24 18 24 13 25 22 25 19 25 15 26 23 26 20 26 17 27 23 27 15 27 20 28 22 28 13 28 22 29 26 29 19 29 17 30 27 30 23 30 22 31 28 31 26 31 20 32 28 32 22 32 23 33 29 33 20 33 20 34 31 34 28 34 29 35 31 35 20 35 27 36 29 36 23 36 29 37 32 37 31 37 30 38 29 38 27 38 33 39 29 39 30 39 29 40 33 40 32 40 34 41 88 41 35 41 39 42 109 42 40 42 41 43 42 43 113 43 43 44 116 44 115 44 44 45 46 45 45 45 46 46 52 46 45 46 51 47 53 47 47 47 47 48 52 48 46 48 54 49 53 49 51 49 47 50 55 50 52 50 56 51 49 51 48 51 47 52 53 52 55 52 45 53 52 53 50 53 54 54 59 54 53 54 61 55 60 55 57 55 57 56 59 56 54 56 53 57 62 57 55 57 55 58 63 58 52 58 64 59 60 59 61 59 57 60 60 60 59 60 59 61 62 61 53 61 52 62 63 62 50 62 66 63 65 63 64 63 64 64 65 64 60 64 62 65 63 65 55 65 50 66 67 66 58 66 63 67 67 67 50 67 68 68 65 68 66 68 60 69 69 69 59 69 62 70 72 70 63 70 65 71 69 71 60 71 59 72 69 72 62 72 65 73 71 73 69 73 68 74 71 74 65 74 72 75 67 75 63 75 68 76 74 76 71 76 69 77 72 77 62 77 72 78 75 78 67 78 73 79 74 79 70 79 70 80 74 80 68 80 71 81 76 81 69 81 69 82 76 82 72 82 74 83 76 83 71 83 77 84 74 84 73 84 76 85 75 85 72 85 77 86 76 86 74 86 76 87 78 87 75 87 78 88 76 88 77 88 10 89 16 89 7 89 80 90 11 90 132 90 10 91 11 91 80 91 132 92 11 92 79 92 11 93 18 93 79 93 16 94 25 94 24 94 79 95 18 95 81 95 81 96 19 96 82 96 18 97 19 97 81 97 24 98 25 98 34 98 19 99 26 99 82 99 82 100 26 100 83 100 83 101 26 101 84 101 26 102 28 102 84 102 84 103 28 103 136 103 28 104 31 104 136 104 135 105 31 105 87 105 88 106 85 106 86 106 34 107 85 107 88 107 31 108 32 108 87 108 37 109 91 109 87 109 88 110 90 110 35 110 93 111 92 111 143 111 109 112 91 112 40 112 96 113 91 113 109 113 167 114 97 114 94 114 94 115 97 115 95 115 95 116 97 116 98 116 97 117 99 117 98 117 98 118 99 118 100 118 99 119 102 119 100 119 179 120 102 120 99 120 100 121 102 121 104 121 93 122 101 122 92 122 102 123 103 123 104 123 104 124 103 124 105 124 103 125 107 125 105 125 168 126 107 126 103 126 101 127 108 127 92 127 149 128 108 128 101 128 149 129 110 129 108 129 169 130 112 130 149 130 149 131 112 131 110 131 42 132 114 132 113 132 115 133 116 133 39 133 39 134 116 134 109 134 112 135 117 135 118 135 169 136 117 136 112 136 117 137 119 137 118 137 118 138 119 138 120 138 121 139 120 139 119 139 114 140 44 140 113 140 122 141 120 141 121 141 116 142 124 142 123 142 120 143 122 143 125 143 122 144 188 144 125 144 125 145 188 145 126 145 170 146 126 146 188 146 123 147 124 147 127 147 155 148 126 148 170 148 155 149 128 149 126 149 155 150 172 150 128 150 127 151 172 151 155 151 124 152 172 152 127 152 56 153 130 153 49 153 58 154 67 154 323 154 323 155 67 155 131 155 56 156 70 156 130 156 78 157 131 157 75 157 16 158 10 158 80 158 16 159 80 159 25 159 34 160 25 160 85 160 36 161 32 161 33 161 87 162 32 162 36 162 37 163 87 163 36 163 86 164 89 164 88 164 40 165 91 165 37 165 93 166 148 166 149 166 93 167 149 167 101 167 108 168 42 168 92 168 109 169 111 169 96 169 42 170 106 170 114 170 111 171 116 171 154 171 155 172 153 172 123 172 44 173 114 173 46 173 46 174 114 174 106 174 127 175 155 175 123 175 124 176 49 176 172 176 130 177 129 177 49 177 129 178 130 178 68 178 68 179 130 179 70 179 67 180 75 180 131 180 134 181 85 181 80 181 132 182 134 182 80 182 133 183 134 183 132 183 80 184 85 184 25 184 133 185 159 185 134 185 86 186 85 186 134 186 134 187 159 187 137 187 134 188 137 188 86 188 137 189 140 189 86 189 135 190 144 190 136 190 87 191 144 191 135 191 139 192 161 192 138 192 144 193 164 193 136 193 87 194 162 194 144 194 140 195 141 195 86 195 142 196 141 196 140 196 140 197 137 197 142 197 177 198 163 198 161 198 86 199 141 199 89 199 147 200 164 200 144 200 143 201 90 201 89 201 165 202 166 202 178 202 145 203 165 203 146 203 144 204 162 204 96 204 96 205 162 205 91 205 96 206 147 206 144 206 143 207 38 207 90 207 92 208 38 208 143 208 96 209 151 209 147 209 150 210 147 210 151 210 41 211 38 211 42 211 42 212 38 212 92 212 96 213 152 213 151 213 151 214 152 214 150 214 111 215 152 215 96 215 42 216 108 216 106 216 123 217 154 217 116 217 108 218 156 218 106 218 43 219 157 219 116 219 116 220 157 220 124 220 106 221 47 221 46 221 156 222 47 222 106 222 48 223 157 223 43 223 49 224 157 224 48 224 124 225 157 225 49 225 129 226 172 226 49 226 129 227 66 227 172 227 68 228 66 228 129 228 187 229 175 229 82 229 158 230 139 230 159 230 84 231 176 231 187 231 175 232 177 232 158 232 174 233 177 233 175 233 159 234 139 234 137 234 137 235 139 235 138 235 160 236 164 236 146 236 137 237 138 237 142 237 147 238 146 238 164 238 161 239 167 239 138 239 145 240 146 240 147 240 88 241 89 241 90 241 91 242 162 242 87 242 161 243 163 243 167 243 165 244 168 244 166 244 145 245 168 245 165 245 150 246 145 246 147 246 148 247 169 247 149 247 116 248 111 248 109 248 108 249 110 249 156 249 155 250 170 250 153 250 66 251 128 251 172 251 79 252 133 252 132 252 133 253 158 253 159 253 82 254 175 254 158 254 160 255 176 255 84 255 187 256 174 256 175 256 176 257 174 257 187 257 135 258 136 258 31 258 164 259 160 259 136 259 158 260 161 260 139 260 177 261 161 261 158 261 160 262 178 262 176 262 176 263 178 263 174 263 160 264 165 264 178 264 146 265 165 265 160 265 177 266 174 266 179 266 179 267 174 267 178 267 163 268 177 268 179 268 138 269 167 269 142 269 179 270 178 270 166 270 89 271 141 271 143 271 179 272 99 272 163 272 99 273 97 273 163 273 163 274 97 274 167 274 166 275 102 275 179 275 168 276 103 276 166 276 166 277 103 277 102 277 141 278 93 278 143 278 150 279 168 279 145 279 148 280 94 280 169 280 154 281 152 281 111 281 154 282 123 282 152 282 170 283 107 283 153 283 112 284 171 284 110 284 110 285 171 285 156 285 156 286 51 286 47 286 171 287 51 287 156 287 128 288 173 288 126 288 66 289 173 289 128 289 66 290 64 290 173 290 142 291 182 291 141 291 141 292 182 292 93 292 182 293 148 293 93 293 94 294 95 294 169 294 152 295 183 295 150 295 95 296 117 296 169 296 123 297 183 297 152 297 123 298 153 298 183 298 170 299 105 299 107 299 170 300 188 300 105 300 186 301 57 301 184 301 186 302 185 302 57 302 81 303 158 303 79 303 79 304 158 304 133 304 82 305 158 305 81 305 83 306 187 306 82 306 84 307 187 307 83 307 136 308 160 308 84 308 167 309 182 309 142 309 94 310 182 310 167 310 148 311 182 311 94 311 150 312 183 312 168 312 168 313 183 313 107 313 107 314 183 314 153 314 118 315 180 315 112 315 112 316 180 316 171 316 184 317 180 317 118 317 120 318 186 318 118 318 185 319 186 319 125 319 125 320 186 320 120 320 118 321 186 321 184 321 54 322 184 322 57 322 180 323 184 323 54 323 173 324 181 324 126 324 125 325 181 325 185 325 126 326 181 326 125 326 171 327 54 327 51 327 180 328 54 328 171 328 57 329 185 329 61 329 61 330 185 330 181 330 173 331 61 331 181 331 64 332 61 332 173 332 95 333 98 333 117 333 98 334 119 334 117 334 188 335 104 335 105 335 188 336 122 336 104 336 98 337 121 337 119 337 104 338 122 338 100 338 100 339 121 339 98 339 122 340 121 340 100 340 191 341 189 341 190 341 222 342 189 342 191 342 21 343 197 343 194 343 197 344 192 344 194 344 204 345 197 345 195 345 204 346 192 346 197 346 196 347 204 347 195 347 206 348 204 348 198 348 206 349 198 349 199 349 198 350 204 350 196 350 208 351 206 351 199 351 199 352 200 352 208 352 200 353 193 353 208 353 201 354 193 354 200 354 192 355 202 355 223 355 202 356 222 356 223 356 204 357 202 357 192 357 203 358 222 358 202 358 204 359 206 359 203 359 197 360 21 360 14 360 208 361 207 361 206 361 207 362 190 362 205 362 209 363 190 363 207 363 193 364 207 364 208 364 209 365 207 365 193 365 201 366 4 366 0 366 204 367 203 368 202 369 203 370 205 371 222 372 14 373 195 373 197 373 195 374 14 374 196 374 9 375 196 375 14 375 9 376 198 376 196 376 9 377 199 377 198 377 199 378 9 378 4 378 200 379 199 379 4 379 200 380 4 380 201 380 206 381 205 382 203 383 206 384 207 385 205 386 0 387 211 387 201 387 211 388 193 388 201 388 211 389 210 389 193 389 212 390 210 390 211 390 217 391 210 391 213 391 213 392 210 392 212 392 220 393 217 393 214 393 214 394 217 394 213 394 214 395 226 395 220 395 226 396 192 396 220 396 194 397 192 397 226 397 193 398 215 398 209 398 210 399 215 399 193 399 216 400 190 400 215 400 216 401 191 401 190 401 218 402 191 402 216 402 217 403 216 403 210 403 220 404 218 404 217 404 218 405 222 406 191 407 221 408 222 408 218 408 223 409 222 409 221 409 192 410 221 410 220 410 223 411 221 411 192 411 194 412 225 412 21 412 190 413 209 413 215 413 216 414 215 414 210 414 0 415 219 415 211 415 212 416 211 416 219 416 218 417 220 417 221 417 212 418 219 418 224 418 213 419 212 419 224 419 214 420 213 420 224 420 214 421 224 421 225 421 226 422 214 422 225 422 194 423 226 424 225 425 217 426 218 427 216 428 205 429 189 429 222 429 190 430 189 430 205 430 21 431 227 431 17 431 17 432 227 432 27 432 227 433 30 433 27 433 225 434 227 434 21 434 227 435 228 435 30 435 225 436 229 436 227 436 229 437 230 437 227 437 230 438 228 438 227 438 224 439 229 439 225 439 30 440 231 440 33 440 228 441 232 441 30 441 230 442 233 442 228 442 232 443 231 443 30 443 233 444 232 444 228 444 230 445 234 445 233 445 219 446 229 446 224 446 229 447 235 447 230 447 219 448 236 448 229 448 234 449 238 449 233 449 233 450 237 450 232 450 235 451 234 451 230 451 229 452 236 452 235 452 235 453 239 453 234 453 0 454 236 454 219 454 233 455 238 455 237 455 234 456 240 456 238 456 235 457 241 457 239 457 236 458 241 458 235 458 239 459 240 459 234 459 240 460 243 460 238 460 236 461 2 461 241 461 239 462 244 462 240 462 240 463 244 463 243 463 241 464 245 464 239 464 239 465 246 465 244 465 245 466 246 466 239 466 2 467 245 467 241 467 245 468 247 468 246 468 7 469 245 469 3 469 3 470 245 470 2 470 245 471 7 471 247 471 40 472 282 472 39 472 35 473 302 473 34 473 48 474 248 474 56 474 38 475 307 475 90 475 70 476 249 476 73 476 249 477 253 477 73 477 252 478 254 478 250 478 250 479 253 479 249 479 255 480 254 480 252 480 250 481 256 481 253 481 113 482 251 482 41 482 250 483 254 483 256 483 73 484 253 484 77 484 255 485 259 485 254 485 258 486 260 486 257 486 257 487 259 487 255 487 254 488 261 488 256 488 256 489 262 489 253 489 263 490 260 490 258 490 257 491 260 491 259 491 259 492 261 492 254 492 253 493 262 493 77 493 263 494 264 494 260 494 265 495 264 495 263 495 261 496 262 496 256 496 262 497 266 497 77 497 77 498 266 498 78 498 267 499 264 499 265 499 260 500 268 500 259 500 261 501 270 501 262 501 264 502 268 502 260 502 259 503 268 503 261 503 264 504 269 504 268 504 267 505 269 505 264 505 270 506 266 506 262 506 267 507 271 507 269 507 268 508 270 508 261 508 270 509 272 509 266 509 45 510 271 510 44 510 44 511 271 511 267 511 269 512 273 512 268 512 268 513 273 513 270 513 271 514 273 514 269 514 50 515 271 515 45 515 273 516 272 516 270 516 50 517 273 517 271 517 273 518 58 518 272 518 58 519 273 519 50 519 231 520 36 520 33 520 275 521 232 521 324 521 231 522 232 522 275 522 324 523 232 523 274 523 232 524 237 524 274 524 36 525 242 525 37 525 274 526 237 526 276 526 237 527 238 527 276 527 37 528 242 528 40 528 276 529 243 529 277 529 238 530 243 530 276 530 277 531 243 531 278 531 243 532 244 532 278 532 278 533 244 533 328 533 244 534 246 534 328 534 327 535 246 535 281 535 40 536 279 536 282 536 282 537 279 537 280 537 246 538 247 538 281 538 24 539 284 539 281 539 282 540 115 540 39 540 286 541 285 541 335 541 302 542 284 542 34 542 289 543 284 543 302 543 359 544 290 544 287 544 287 545 290 545 288 545 288 546 290 546 291 546 290 547 292 547 291 547 291 548 292 548 293 548 371 549 295 549 292 549 292 550 295 550 293 550 293 551 295 551 297 551 286 552 294 552 285 552 295 553 296 553 297 553 297 554 296 554 298 554 296 555 300 555 298 555 360 556 300 556 296 556 294 557 301 557 285 557 341 558 301 558 294 558 341 559 303 559 301 559 361 560 305 560 341 560 341 561 305 561 303 561 248 562 306 562 56 562 90 563 307 563 35 563 35 564 307 564 302 564 305 565 308 565 309 565 361 566 308 566 305 566 308 567 310 567 309 567 309 568 310 568 311 568 312 569 311 569 310 569 306 570 70 570 56 570 313 571 311 571 312 571 307 572 315 572 314 572 311 573 313 573 316 573 313 574 317 574 316 574 316 575 317 575 318 575 362 576 318 576 317 576 314 577 315 577 319 577 347 578 318 578 362 578 347 579 320 579 318 579 347 580 364 580 320 580 319 581 364 581 347 581 315 582 364 582 319 582 113 583 322 583 251 583 266 584 131 584 78 584 113 585 44 585 322 585 58 586 323 586 272 586 36 587 231 587 275 587 36 588 275 588 242 588 40 589 242 589 279 589 16 590 247 590 7 590 281 591 247 591 16 591 24 592 281 592 16 592 280 593 283 593 282 593 34 594 284 594 24 594 286 595 340 595 341 595 286 596 341 596 294 596 301 597 248 597 285 597 302 598 304 598 289 598 248 599 299 599 306 599 304 600 307 600 346 600 347 601 345 601 314 601 70 602 306 602 249 602 249 603 306 603 299 603 319 604 347 604 314 604 315 605 251 605 364 605 322 606 321 606 251 606 321 607 322 607 267 607 267 608 322 608 44 608 266 609 323 609 131 609 272 610 323 610 266 610 326 611 279 611 275 611 324 612 326 612 275 612 325 613 326 613 324 613 275 614 279 614 242 614 325 615 351 615 326 615 280 616 279 616 326 616 326 617 351 617 329 617 326 618 329 618 280 618 329 619 332 619 280 619 327 620 336 620 328 620 281 621 336 621 327 621 331 622 353 622 330 622 336 623 356 623 328 623 281 624 354 624 336 624 332 625 333 625 280 625 334 626 333 626 332 626 332 627 329 627 334 627 369 628 355 628 353 628 280 629 333 629 283 629 339 630 356 630 336 630 335 631 115 631 283 631 357 632 358 632 370 632 337 633 357 633 338 633 289 634 354 634 284 634 336 635 354 635 289 635 289 636 339 636 336 636 335 637 43 637 115 637 285 638 43 638 335 638 289 639 343 639 339 639 342 640 339 640 343 640 248 641 43 641 285 641 48 642 43 642 248 642 289 643 344 643 343 643 343 644 344 644 342 644 304 645 344 645 289 645 248 646 301 646 299 646 314 647 346 647 307 647 301 648 348 648 299 648 38 649 349 649 307 649 307 650 349 650 315 650 348 651 250 651 299 651 299 652 250 652 249 652 41 653 349 653 38 653 251 654 349 654 41 654 315 655 349 655 251 655 321 656 364 656 251 656 321 657 265 657 364 657 267 658 265 658 321 658 379 659 367 659 276 659 350 660 331 660 351 660 278 661 368 661 379 661 351 662 331 662 329 662 329 663 331 663 330 663 352 664 356 664 338 664 329 665 330 665 334 665 339 666 338 666 356 666 353 667 359 667 330 667 337 668 338 668 339 668 282 669 283 669 115 669 284 670 354 670 281 670 353 671 355 671 359 671 357 672 360 672 358 672 337 673 360 673 357 673 342 674 337 674 339 674 340 675 361 675 341 675 307 676 304 676 302 676 301 677 303 677 348 677 347 678 362 678 345 678 265 679 320 679 364 679 274 680 325 680 324 680 325 681 350 681 351 681 276 682 367 682 350 682 366 683 367 683 379 683 379 684 368 684 366 684 352 685 368 685 278 685 327 686 328 686 246 686 367 687 369 687 350 687 366 688 369 688 367 688 356 689 352 689 328 689 369 690 353 690 350 690 350 691 353 691 331 691 368 692 370 692 366 692 352 693 370 693 368 693 338 694 357 694 352 694 352 695 357 695 370 695 371 696 366 696 370 696 369 697 366 697 371 697 355 698 369 698 371 698 330 699 359 699 334 699 371 700 370 700 358 700 283 701 333 701 335 701 371 702 292 702 355 702 292 703 290 703 355 703 355 704 290 704 359 704 358 705 295 705 371 705 360 706 296 706 358 706 358 707 296 707 295 707 333 708 286 708 335 708 342 709 360 709 337 709 340 710 287 710 361 710 346 711 344 711 304 711 346 712 314 712 344 712 362 713 300 713 345 713 303 714 363 714 348 714 305 715 363 715 303 715 363 716 252 716 348 716 348 717 252 717 250 717 320 718 365 718 318 718 265 719 365 719 320 719 265 720 263 720 365 720 334 721 374 721 333 721 333 722 374 722 286 722 374 723 340 723 286 723 287 724 288 724 361 724 344 725 375 725 342 725 288 726 308 726 361 726 314 727 375 727 344 727 314 728 345 728 375 728 362 729 298 729 300 729 362 730 317 730 298 730 378 731 257 731 376 731 378 732 377 732 257 732 276 733 350 733 274 733 274 734 350 734 325 734 278 735 379 735 277 735 277 736 379 736 276 736 328 737 352 737 278 737 287 738 374 738 359 738 359 739 374 739 334 739 340 740 374 740 287 740 342 741 375 741 360 741 360 742 375 742 300 742 300 743 375 743 345 743 305 744 372 744 363 744 309 745 372 745 305 745 376 746 372 746 309 746 309 747 378 747 376 747 377 748 378 748 316 748 316 749 378 749 311 749 311 750 378 750 309 750 372 751 376 751 255 751 255 752 376 752 257 752 318 753 373 753 316 753 316 754 373 754 377 754 365 755 373 755 318 755 363 756 255 756 252 756 372 757 255 757 363 757 258 758 377 758 373 758 257 759 377 759 258 759 263 760 258 760 365 760 365 761 258 761 373 761 288 762 291 762 308 762 291 763 310 763 308 763 317 764 297 764 298 764 317 765 313 765 297 765 291 766 312 766 310 766 297 767 313 767 293 767 313 768 312 768 293 768 293 769 312 769 291 769</p>
        </triangles>
      </mesh>
    </geometry>
  </library_geometries>
  <library_visual_scenes>
    <visual_scene id="Scene" name="Scene">
      <node id="node0" name="node0" type="NODE">
        <matrix sid="transform">1 0 0 0 0 1 0 0 0 0 1 0 0 0 0 1</matrix>
        <instance_geometry url="#Part__Feature_008-mesh" name="node0">
          <bind_material>
            <technique_common>
              <instance_material symbol="Part__Feature_008-material" target="#Part__Feature_008-material"/>
            </technique_common>
          </bind_material>
        </instance_geometry>
      </node>
      <node id="Camera" name="Camera" type="NODE">
        <matrix sid="transform">0.6859207 -0.3240135 0.6515582 7.358891 0.7276763 0.3054208 -0.6141704 -6.925791 0 0.8953956 0.4452714 4.958309 0 0 0 1</matrix>
        <instance_camera url="#Camera-camera"/>
      </node>
      <node id="Light" name="Light" type="NODE">
        <matrix sid="transform">-0.2908646 -0.7711008 0.5663932 4.076245 0.9551712 -0.1998834 0.2183912 1.005454 -0.05518906 0.6045247 0.7946723 5.903862 0 0 0 1</matrix>
        <instance_light url="#Light-light"/>
      </node>
    </visual_scene>
  </library_visual_scenes>
  <scene>
    <instance_visual_scene url="#Scene"/>
  </scene>
</COLLADA>