<?xml version="1.0" encoding="utf-8"?>
<COLLADA xmlns="http://www.collada.org/2005/11/COLLADASchema" version="1.4.1" xmlns:xsi="http://www.w3.org/2001/XMLSchema-instance">
  <asset>
    <contributor>
      <author>Blender User</author>
      <authoring_tool>Blender 4.0.2 commit date:2023-12-05, commit time:07:41, hash:9be62e85b727</authoring_tool>
    </contributor>
    <created>2024-01-15T15:17:31</created>
    <modified>2024-01-15T15:17:31</modified>
    <unit name="meter" meter="1"/>
    <up_axis>Z_UP</up_axis>
  </asset>
  <library_cameras>
    <camera id="Camera-camera" name="Camera">
      <optics>
        <technique_common>
          <perspective>
            <xfov sid="xfov">39.59775</xfov>
            <aspect_ratio>1.777778</aspect_ratio>
            <znear sid="znear">0.1</znear>
            <zfar sid="zfar">100</zfar>
          </perspective>
        </technique_common>
      </optics>
      <extra>
        <technique profile="blender">
          <shiftx sid="shiftx" type="float">0</shiftx>
          <shifty sid="shifty" type="float">0</shifty>
          <dof_distance sid="dof_distance" type="float">10</dof_distance>
        </technique>
      </extra>
    </camera>
  </library_cameras>
  <library_lights>
    <light id="Light-light" name="Light">
      <technique_common>
        <point>
          <color sid="color">1000 1000 1000</color>
          <constant_attenuation>1</constant_attenuation>
          <linear_attenuation>0</linear_attenuation>
          <quadratic_attenuation>0</quadratic_attenuation>
        </point>
      </technique_common>
      <extra>
        <technique profile="blender">
          <type sid="type" type="int">0</type>
          <flag sid="flag" type="int">0</flag>
          <mode sid="mode" type="int">1</mode>
          <red sid="red" type="float">1</red>
          <green sid="green" type="float">1</green>
          <blue sid="blue" type="float">1</blue>
          <shadow_r sid="blender_shadow_r" type="float">0</shadow_r>
          <shadow_g sid="blender_shadow_g" type="float">0</shadow_g>
          <shadow_b sid="blender_shadow_b" type="float">0</shadow_b>
          <energy sid="blender_energy" type="float">1000</energy>
          <spotsize sid="spotsize" type="float">75</spotsize>
          <spotblend sid="spotblend" type="float">0.15</spotblend>
          <clipsta sid="clipsta" type="float">0.04999995</clipsta>
          <clipend sid="clipend" type="float">30.002</clipend>
          <bias sid="bias" type="float">1</bias>
          <radius sid="radius" type="float">0.1</radius>
          <area_shape sid="area_shape" type="int">1</area_shape>
          <area_size sid="area_size" type="float">0.1</area_size>
          <area_sizey sid="area_sizey" type="float">0.1</area_sizey>
          <area_sizez sid="area_sizez" type="float">1</area_sizez>
        </technique>
      </extra>
    </light>
  </library_lights>
  <library_effects>
    <effect id="Part__Feature_012-effect">
      <profile_COMMON>
        <technique sid="common">
          <lambert>
            <emission>
              <color sid="emission">0 0 0 1</color>
            </emission>
            <diffuse>
              <color sid="diffuse">0 0 0 1</color>
            </diffuse>
            <index_of_refraction>
              <float sid="ior">1.45</float>
            </index_of_refraction>
          </lambert>
        </technique>
      </profile_COMMON>
    </effect>
  </library_effects>
  <library_images/>
  <library_materials>
    <material id="Part__Feature_012-material" name="Part__Feature.012">
      <instance_effect url="#Part__Feature_012-effect"/>
    </material>
  </library_materials>
  <library_geometries>
    <geometry id="Part__Feature_012-mesh" name="Part__Feature.012">
      <mesh>
        <source id="Part__Feature_012-mesh-positions">
          <float_array id="Part__Feature_012-mesh-positions-array" count="1194">0.9882844 -0.6086663 0.5991893 0.9883028 -0.6086152 0.6061717 0.988951 -0.6060174 0.5991893 0.9886634 -0.6069737 0.606145 0.989293 -0.6054552 0.606171 0.9901059 -0.6042124 0.6061676 0.990544 -0.603641 0.5991893 0.9911664 -0.6030586 0.6061599 0.9927599 -0.6018464 0.5991893 0.9926352 -0.6019878 0.6062455 0.9945878 -0.6011377 0.6061488 0.9958919 -0.600824 0.5991893 0.9961639 -0.6008546 0.6063426 0.9985297 -0.6008909 0.5991893 0.9989932 -0.6010063 0.605983 1.001038 -0.6016892 0.5991893 0.9998968 -0.6012982 0.6064916 1.001204 -0.6018546 0.6064007 1.00334 -0.6033736 0.5991893 1.002428 -0.6026179 0.6061734 1.003581 -0.6036785 0.6060165 1.005114 -0.6058853 0.5991893 1.004472 -0.6048387 0.6061295 1.005199 -0.6062259 0.6059551 1.00581 -0.6084412 0.5991893 1.005663 -0.607675 0.606004 1.005809 -0.6089439 0.6065371 1.005776 -0.6099389 0.5991882 1.005833 -0.7122986 0.5991893 1.005821 -0.712214 0.6061062 1.005328 -0.7142679 0.6060617 1.005226 -0.7145707 0.5991893 1.004505 -0.71588 0.6063799 1.003889 -0.7168378 0.5991893 1.003162 -0.7175722 0.6061109 1.001549 -0.718833 0.5991893 1.001203 -0.7190008 0.6059523 0.9993016 -0.7197349 0.5991893 0.9969119 -0.7200525 0.5991893 0.9963461 -0.719987 0.6061605 0.9936834 -0.7193983 0.5991893 0.9944885 -0.7196159 0.6062754 0.9934025 -0.7192043 0.606293 0.9910976 -0.7177268 0.5991893 0.9916626 -0.7181625 0.6060734 0.9901475 -0.7166821 0.6061254 0.9896843 -0.7160394 0.5991893 0.9889991 -0.7147369 0.6061755 0.9886777 -0.7140176 0.5991893 0.9885333 -0.713362 0.6061671 0.9882853 -0.711952 0.6060583 0.9882678 -0.7118862 0.5991893 0.9883666 -0.6101654 0.5991893 0.9886192 -0.6117553 0.5991894 0.9890195 -0.6129271 0.5991892 0.9895809 -0.6140688 0.5991893 0.9893898 -0.7070901 0.5991892 1.005722 -0.7103146 0.5991892 1.005509 -0.7090598 0.5991894 1.005104 -0.7078706 0.5991891 1.00454 -0.7067243 0.5991893 1.005519 -0.611705 0.5991893 1.004938 -0.6133305 0.5991893 0.9906148 -0.7170625 0.5991893 0.9915387 -0.7179266 0.5991892 0.9926232 -0.7186989 0.5991893 0.9895659 -0.7156435 0.5991893 0.9937303 -0.7192409 0.5991892 0.9888553 -0.7141298 0.5991893 0.9949438 -0.7196531 0.5991893 0.9885259 -0.7128983 0.5991892 0.9883657 -0.711755 0.5991893 0.9966901 -0.719906 0.5991893 0.9884501 -0.7098816 0.5991892 0.9983419 -0.71982 0.5991894 0.9999979 -0.7194052 0.5991893 1.001167 -0.7188754 0.5991892 1.001914 -0.718427 0.5991892 1.002586 -0.7179272 0.5991891 1.003219 -0.7173529 0.5991892 1.004054 -0.7164024 0.5991893 1.004741 -0.7152988 0.5991892 1.005296 -0.714052 0.5991893 1.0056 -0.7128937 0.5991892 1.005767 -0.711637 0.5991894 0.9909055 -0.7050477 0.5991892 0.9906017 -0.6154482 0.5991894 0.9918435 -0.704221 0.5991893 0.9918674 -0.6165968 0.5991893 0.990056 -0.7060186 0.5991894 0.992958 -0.7035246 0.5991892 0.9934124 -0.6175124 0.5991892 0.9942477 -0.702955 0.5991892 0.9950406 -0.6180751 0.5991893 0.995783 -0.7025801 0.5991893 0.9966108 -0.618303 0.5991893 0.9974808 -0.7024957 0.5991893 0.9884467 -0.6083039 0.5991892 0.9979165 -0.6182622 0.5991892 0.9990979 -0.6180725 0.5991892 0.9992665 -0.7027699 0.5991892 0.9888517 -0.6066787 0.5991893 1.000769 -0.6174867 0.5991893 1.000721 -0.703292 0.5991893 0.9893898 -0.60549 0.5991892 1.001898 -0.6168372 0.5991892 1.002182 -0.7041492 0.5991893 0.9900563 -0.604418 0.5991894 1.002875 -0.6160938 0.5991893 0.9912238 -0.6031309 0.5991894 1.003506 -0.7053322 0.5991892 1.00407 -0.6147804 0.5991893 0.9925763 -0.6021282 0.5991893 0.9937302 -0.6015592 0.5991892 0.9945349 -0.6012711 0.5991892 0.9957932 -0.6009786 0.5991893 0.9974906 -0.6008958 0.5991893 1.005675 -0.6082814 0.5991892 0.9991315 -0.6011348 0.5991892 1.005311 -0.6067976 0.5991893 1.000821 -0.6017383 0.5991893 1.004741 -0.6055014 0.5991892 1.004105 -0.6044683 0.5991893 1.002206 -0.6025664 0.5991893 1.00322 -0.6034482 0.5991892 0.9888682 -0.7082338 0.5991893 0.988501 -0.7119242 0.6072642 0.9889647 -0.7136037 0.6077478 0.9890462 -0.7123422 0.6085525 0.9894023 -0.7152321 0.6070031 0.9896482 -0.7120751 0.6094872 0.98967 -0.7147804 0.6082741 0.9900875 -0.7162088 0.6073054 0.9905133 -0.7121936 0.610385 0.9899333 -0.7137357 0.609345 0.9912455 -0.7172473 0.607917 0.990849 -0.7160016 0.6089678 0.9919842 -0.7181599 0.6072522 0.9907004 -0.7152018 0.6094101 0.9910079 -0.7139689 0.6103441 0.9920501 -0.7118749 0.6113657 0.9921955 -0.7138811 0.6111258 0.9916072 -0.7149155 0.6103767 0.9926255 -0.7177752 0.6088413 0.993726 -0.7189839 0.6076839 0.9934332 -0.7117506 0.6117812 0.9920772 -0.716093 0.6100187 0.9931684 -0.7132527 0.6116046 0.9932051 -0.7172671 0.6098234 0.9961298 -0.7196222 0.6076444 0.9947965 -0.7191162 0.6082635 0.9932892 -0.7157826 0.6108824 0.9979637 -0.7199543 0.6062053 0.9943864 -0.7128206 0.6118758 0.9974725 -0.7196778 0.6076145 0.9948318 -0.7184143 0.6093744 0.9946107 -0.7173587 0.610378 0.9992026 -0.7197365 0.6062077 0.9940905 -0.7149143 0.6114809 0.9988318 -0.7195177 0.6075352 1.000029 -0.7192405 0.6073638 0.9964672 -0.7188657 0.6092056 0.9979856 -0.7189711 0.6089858 0.9954252 -0.7150081 0.6116964 0.9948943 -0.7163318 0.6110886 0.9970858 -0.7180489 0.6101831 1.001585 -0.7185012 0.6073484 0.9993402 -0.7189143 0.6085994 0.9967327 -0.7169085 0.6110257 0.9965504 -0.7161593 0.6113893 1.001004 -0.7180144 0.6089426 0.9996415 -0.7182044 0.6095006 1.003494 -0.7170192 0.6069979 1.002773 -0.7171661 0.6081923 0.9985699 -0.7172757 0.6106557 0.9967638 -0.714383 0.6118724 1.000193 -0.7171341 0.6103039 1.003696 -0.716057 0.6082864 1.002691 -0.7163494 0.6092781 0.9977648 -0.7152423 0.6116896 0.9989046 -0.7161867 0.6112383 1.001761 -0.7164606 0.6099466 1.004631 -0.7148772 0.607809 1.005163 -0.7138282 0.6075376 1.000897 -0.7160441 0.6107203 1.00563 -0.7121891 0.6071972 1.003612 -0.7149279 0.6093838 1.004392 -0.7135682 0.6091877 0.9991317 -0.714626 0.6117216 1.002694 -0.714828 0.6103026 1.005303 -0.7121722 0.6081305 1.000788 -0.7145699 0.6113882 1.002273 -0.7140561 0.6108968 1.00368 -0.7135798 0.6099812 1.004436 -0.7118027 0.6095669 0.9997954 -0.7126352 0.6118803 1.003174 -0.7120832 0.6107361 1.000929 -0.7124897 0.6117088 1.001894 -0.7122277 0.61141 1.00523 -0.6086435 0.6082862 1.004558 -0.6087979 0.6093903 1.003721 -0.6083295 0.610243 1.003161 -0.6089806 0.610741 1.001204 -0.6085526 0.6116551 0.99989 -0.6087664 0.6118839 1.005375 -0.6071615 0.606998 1.004915 -0.6072028 0.6083019 1.004646 -0.6054838 0.6071418 1.004349 -0.6054513 0.607919 1.003282 -0.603747 0.6074978 1.00366 -0.6056845 0.6092391 1.003997 -0.6070494 0.6095686 1.002991 -0.6044945 0.6089824 1.00182 -0.6026533 0.6078091 1.002224 -0.6086412 0.6112643 1.002821 -0.6063347 0.6103726 1.002117 -0.6072645 0.6111093 1.002335 -0.6041066 0.6093238 1.000283 -0.6018965 0.6079767 1.001087 -0.6031056 0.609252 0.9979835 -0.600856 0.6063323 1.001724 -0.6053027 0.6106028 0.9985198 -0.6014846 0.608243 0.9999366 -0.6023453 0.6090041 0.9973441 -0.6010127 0.6072611 1.000703 -0.6040709 0.6103619 1.000666 -0.6062682 0.6114203 0.9995725 -0.6031301 0.6100769 1.000089 -0.6047295 0.6110119 0.9979729 -0.6022581 0.6095903 0.9968628 -0.6016227 0.6087332 0.9961301 -0.601238 0.6077964 0.9943522 -0.6015634 0.6076368 0.9995747 -0.6067638 0.6117679 0.9953304 -0.6017684 0.6086584 0.9986843 -0.6050822 0.6114697 0.9974235 -0.6028854 0.6102789 0.9980539 -0.6037415 0.6108884 0.993092 -0.6021331 0.6076844 0.9955029 -0.6025409 0.6097725 0.9938617 -0.6024565 0.6089565 0.9918128 -0.6030034 0.6077833 0.9971318 -0.6054297 0.6116855 0.9905211 -0.6040225 0.6072458 0.9960025 -0.6035453 0.6107342 0.992347 -0.6031208 0.6086704 0.9944216 -0.6031606 0.6100488 0.9925653 -0.6036897 0.609559 0.9968628 -0.6043733 0.6112695 0.9910491 -0.6041845 0.6085141 0.9898594 -0.6051849 0.6077283 0.9953227 -0.6048821 0.611379 0.9889169 -0.6069061 0.6073738 0.9942943 -0.6046531 0.6110568 0.9931303 -0.6042189 0.6103233 0.9977749 -0.6066007 0.6118803 0.9904152 -0.6055727 0.6090716 0.9884617 -0.6088285 0.6071063 0.9929717 -0.6052308 0.6108478 0.9895108 -0.6068125 0.6085981 0.9915684 -0.6054226 0.6101281 0.9889113 -0.6086488 0.6083139 0.9951061 -0.6063038 0.6117532 0.9899495 -0.6073201 0.6094865 0.9935891 -0.6064382 0.6114991 0.9917079 -0.6066189 0.6107439 0.9904477 -0.6075779 0.6100983 0.9926579 -0.6071674 0.6113727 0.9898836 -0.6090194 0.6098171 0.9940859 -0.6074595 0.6117915 0.9913045 -0.6085313 0.6109404 0.993225 -0.6088892 0.6117385 0.9919462 -0.6090387 0.6113162 0.9945926 -0.607917 0.6118841 1.008378 -0.7123019 0.5610896 1.007568 -0.7155455 0.5610895 0.9907445 -0.720651 0.5610894 0.9959478 -0.7225136 0.5610894 1.005834 -0.7184332 0.5610894 0.991701 -0.7212247 0.5610894 0.9876075 -0.717512 0.5610894 1.004796 -0.7195485 0.5610895 1.00806 -0.7141221 0.5610895 0.987037 -0.7165594 0.5610895 1.006789 -0.7171133 0.5610895 0.9948424 -0.7223498 0.5610894 0.9932752 -0.7219337 0.5610895 1.003 -0.7209093 0.5610895 1.000905 -0.721914 0.5610895 0.9856979 -0.7105482 0.5610893 0.9987356 -0.7224588 0.5610895 0.9970623 -0.7225685 0.5610894 0.9894245 -0.719638 0.5610895 0.9858041 -0.7128586 0.5610898 0.9882816 -0.7184219 0.5610894 0.9863467 -0.7150411 0.5610895 1.008378 -0.6107037 0.5610896 1.008214 -0.6118108 0.5610894 1.005091 -0.6176486 0.5610894 1.008425 -0.60892 0.5610893 1.004271 -0.6183901 0.5610895 0.9917016 -0.6196249 0.5610893 0.9937611 -0.6204783 0.5610894 0.9927098 -0.6201021 0.5610894 0.995454 -0.6208674 0.5610895 1.007943 -0.6128934 0.5610894 1.007373 -0.614422 0.5610895 0.9907432 -0.6190503 0.5610894 0.9898468 -0.618385 0.5610894 1.006182 -0.6164137 0.5610895 1.002832 -0.6194105 0.5610895 0.9873006 -0.6154533 0.5610895 1.000725 -0.6203731 0.5610896 0.9856979 -0.6089482 0.5610893 0.9992814 -0.6207497 0.5610894 0.9886237 -0.6172387 0.5610894 0.9981776 -0.6209136 0.5610894 0.9858155 -0.6113348 0.5610898 0.9970625 -0.6209683 0.5610894 0.986341 -0.6134245 0.5610895 1.035134 -0.1269729 0.5610889 1.035156 -0.6604064 0.5610893 1.035877 -0.659681 0.558642 1.036257 -0.1280946 0.557815 1.037435 -0.6581311 0.5559935 1.03813 -0.1299681 0.5551465 1.03893 -0.6566328 0.5543389 1.040318 -0.1321554 0.5531816 1.040836 -0.6547207 0.5528516 1.043463 -0.1353117 0.5515814 1.043566 -0.6520077 0.5515583 1.046385 -0.6491276 0.5509653 1.046455 -0.1382447 0.5509645 1.162218 -0.660456 0.5610819 1.161016 -0.6592539 0.5577718 1.159736 -0.6579717 0.5558041 1.158261 -0.6564996 0.5542061 1.156259 -0.6545038 0.552722 1.154281 -0.6525115 0.5517641 1.15147 -0.6497595 0.5510016 1.162188 -0.1269689 0.5610816 1.161447 -0.1277156 0.5587285 1.16041 -0.1287544 0.5567313 1.158321 -0.1308452 0.5542225 1.1555 -0.1336632 0.5522912 1.153466 -0.1356984 0.5514891 1.151225 -0.1379448 0.5509891 1.238362 -0.7366 0.5356893 0.9589625 -0.05079996 0.5356893 1.238362 -0.05079996 0.5356893 0.9589625 -0.7366 0.5356893 1.238362 -0.05079996 0.5610893 0.9589625 -0.05079996 0.5610893 1.238362 -0.7366 0.5610893 1.001416 -0.599098 0.5610894 1.000364 -0.5987218 0.5610894 0.9992814 -0.5984504 0.5610894 0.9981771 -0.5982866 0.5610894 0.9970626 -0.5982318 0.5610894 0.995358 -0.5983461 0.5610895 0.9932177 -0.5988864 0.5610895 0.9917016 -0.5995752 0.5610894 0.9907444 -0.6001492 0.5610894 0.9893409 -0.6012386 0.5610895 0.988271 -0.6023923 0.5610894 1.008107 -0.6068492 0.5610895 1.006509 -0.7048732 0.5610894 1.002831 -0.7013894 0.5610896 1.007323 -0.7062723 0.5610895 1.000825 -0.7004585 0.5610895 1.007943 -0.7079068 0.5610894 0.9992812 -0.7000504 0.5610894 1.008425 -0.7105052 0.5610894 0.9981778 -0.6998863 0.5610894 0.9964805 -0.6998327 0.5610895 0.9942909 -0.7001604 0.5610895 0.9927105 -0.7006978 0.5610894 0.9916989 -0.7011761 0.5610894 0.9907444 -0.7017491 0.5610894 0.9898477 -0.7024145 0.5610894 0.9885744 -0.7036181 0.5610895 0.9876058 -0.7048903 0.5610893 0.9860218 -0.7084324 0.5610895 0.9589625 -0.7366 0.5610893 0.9867832 -0.7063099 0.5610894 0.9860066 -0.6068952 0.5610895 0.9867351 -0.6048159 0.5610895 0.9876062 -0.6032898 0.5610894 1.007095 -0.6042527 0.5610894 1.006511 -0.6032776 0.5610894 1.002918 -0.5998392 0.5610895 1.005851 -0.6023888 0.5610896 1.007567 -0.6052542 0.5610895 1.004624 -0.601095 0.5610896 1.005845 -0.7039809 0.5610895 1.004278 -0.7024148 0.5610895 1.005099 -0.7031594 0.5610896 1.008212 -0.708982 0.5610895</float_array>
          <technique_common>
            <accessor source="#Part__Feature_012-mesh-positions-array" count="398" stride="3">
              <param name="X" type="float"/>
              <param name="Y" type="float"/>
              <param name="Z" type="float"/>
            </accessor>
          </technique_common>
        </source>
        <source id="Part__Feature_012-mesh-normals">
          <float_array id="Part__Feature_012-mesh-normals-array" count="3750">-0.9767121 0.2142761 -0.0109241 -0.969762 0.2440515 7.73171e-4 -0.923712 0.3828156 0.01443344 -0.8368663 0.5473989 -0.003075718 -0.8306232 0.5567964 -0.006554067 -0.7361979 0.6767038 0.009201526 -0.629342 0.7770797 -0.008714854 -0.5893127 0.8078846 0.005774617 -0.3986772 0.9170215 0.01132249 -0.3102756 0.9505237 -0.01529037 -0.1781001 0.9839513 0.01097315 7.77288e-4 0.9999908 0.004220485 0.02534663 0.9996744 -0.002952516 0.1494842 0.9887422 0.006590187 0.3087438 0.9511415 -0.002668321 0.3032276 0.9529076 -0.004497647 0.3923794 0.9197242 0.01207894 0.5292373 0.8484418 0.007394492 0.529236 0.8484426 0.007382988 0.5292397 0.8484401 0.007414281 0.5912846 0.8063991 -0.01016187 0.5912857 0.8063974 -0.01022106 0.5912857 0.8063977 -0.01020473 0.6776733 0.7353088 0.008940637 0.7932111 0.6089463 -8.48015e-4 0.7932158 0.6089403 -7.46743e-4 0.7932141 0.6089424 -8.22135e-4 0.8170986 0.5763847 -0.01142925 0.8170991 0.5763831 -0.01147574 0.8170993 0.5763832 -0.01146429 0.8862543 0.4630395 0.0121594 0.8862539 0.4630399 0.01217174 0.8862543 0.463038 0.01221936 0.9523169 0.3050916 0.003414988 0.9650034 0.2620904 -0.00877577 0.9650034 0.2620902 -0.008790016 0.9650032 0.2620903 -0.008804798 0.9931492 0.1165729 0.00809592 0.9931386 0.116638 0.00846225 0.993148 0.1165753 0.008204519 0.9997515 -0.02225041 -0.001432478 -0.9999966 1.61524e-4 0.002636492 -0.9999969 1.66628e-4 0.002552688 0.9724043 -0.2332577 0.004568636 0.972405 -0.2332552 0.004536151 0.9724051 -0.2332549 0.004524648 0.9660574 -0.2583106 -0.002949416 0.8909338 -0.4540849 0.006637871 0.8909332 -0.4540824 0.006892025 0.8909301 -0.4540913 0.006699025 0.8617751 -0.507253 -0.00620085 0.8617724 -0.5072586 -0.006109416 0.8617726 -0.5072581 -0.00611329 0.7818633 -0.6232453 0.01597261 0.6485159 -0.7610973 -0.01257431 0.6485129 -0.7610992 -0.01262229 0.6485154 -0.7610976 -0.01257878 0.5894331 -0.8077568 0.009878218 0.5894361 -0.8077543 0.009905874 0.5894389 -0.8077502 0.01007562 0.3456016 -0.9383698 0.004660248 0.3721758 -0.9281539 -0.003949344 0.3721724 -0.9281551 -0.003998756 0.3721762 -0.9281538 -0.003946602 0.1731622 -0.9848908 0.002228677 0.131751 -0.9912656 -0.005863964 0.01991802 -0.9997407 0.01103878 -0.1963633 -0.9805004 -0.007784426 -0.1986039 -0.9800556 -0.006894648 -0.3541453 -0.9351193 0.01153421 -0.5140548 -0.8577516 0.003119349 -0.5428439 -0.8397898 -0.008578419 -0.6986095 -0.7154014 0.01207107 -0.7665906 -0.6420826 -0.008295953 -0.8609647 -0.5085586 0.01038259 -0.895173 -0.445694 -0.004714548 -0.9470977 -0.3207722 0.01054459 -0.9848262 -0.173496 -0.004083812 -0.9820595 -0.1885705 6.97173e-4 -0.9820595 -0.1885705 6.94945e-4 -0.9820594 -0.1885709 6.78107e-4 0.9999896 5.54653e-4 -0.004536151 0.9999986 1.12215e-4 0.001704812 -7.20099e-4 -0.003246128 0.9999946 -8.06869e-4 -3.48364e-5 0.9999997 0 -7.90201e-5 1 3.60923e-4 0.002062141 0.9999979 -3.75118e-5 3.88015e-6 -1 -3.75051e-5 5.56226e-6 -1 -3.74826e-5 7.86861e-6 -1 -3.91807e-4 0 -1 4.98751e-5 -7.91343e-7 -1 0 8.79447e-7 -1 0.001122176 -9.77884e-6 -0.9999995 0.001122057 -1.84341e-5 -0.9999995 0.001121759 -2.74024e-5 -0.9999995 -0.001087248 -9.01443e-6 -0.9999994 5.92601e-4 -1.29143e-5 -0.9999998 -2.26305e-4 -6.8627e-6 -1 -0.005069017 4.23909e-5 -0.9999872 -0.005069017 4.73693e-5 -0.9999872 -0.005069017 4.4246e-5 -0.9999872 0 0 -1 -5.25057e-4 -6.74328e-4 -0.9999997 -8.69876e-4 -1.90048e-4 -0.9999997 -7.05072e-4 -5.51247e-4 -0.9999997 -1.36441e-4 -5.10838e-5 -1 -2.05103e-4 2.08331e-4 -1 -3.72756e-4 3.21655e-4 -0.9999999 -0.001172482 -3.15012e-4 -0.9999993 -0.001414 -6.64572e-4 -0.9999989 -0.001274645 -3.90895e-4 -0.9999991 4.70588e-4 0 -0.9999999 0.003174543 0 -0.9999951 -5.48552e-4 -1.73249e-4 -0.9999998 -5.73422e-4 4.59509e-5 -0.9999998 -4.08638e-4 -4.04894e-4 -0.9999998 -7.28438e-5 -3.16344e-4 -1 0 -3.57159e-4 -1 0 -5.82106e-5 -1 -7.02576e-4 0.001055657 -0.9999993 3.75306e-4 -3.42023e-4 -1 2.27973e-4 4.26452e-4 -1 0 4.38983e-5 -1 -7.29288e-5 0 -1 0.001351654 -6.76506e-5 -0.9999991 0 5.07082e-5 -1 -2.15023e-4 0.001403093 -0.9999991 0 1.61461e-4 -1 5.15464e-4 0 -1 7.42703e-4 -3.77499e-4 -0.9999997 2.46859e-4 -2.99893e-5 -1 -2.16387e-4 -2.22668e-4 -1 2.08333e-4 -3.18909e-4 -1 0.009173572 -0.008243024 -0.999924 -0.001704812 4.35561e-4 -0.9999985 -0.001861929 8.22208e-5 -0.9999983 -0.001499295 5.73984e-4 -0.9999988 -0.002003967 7.23614e-4 -0.9999978 5.46056e-5 -6.28221e-4 -0.9999999 2.70698e-4 -4.28627e-4 -1 3.88981e-4 -1.93169e-5 -1 9.92063e-4 8.36811e-5 -0.9999996 0 -6.37883e-4 -0.9999999 -2.91216e-4 -2.10449e-5 -1 -0.001189053 -5.11312e-4 -0.9999992 -3.71793e-4 -0.001239776 -0.9999992 -0.001291155 9.01819e-5 -0.9999992 6.50195e-4 -3.5748e-4 -0.9999998 0 9.2195e-5 -1 -0.004058778 -2.5219e-4 -0.9999918 0 1.54129e-6 -1 0 0 -1 -9.75098e-5 8.51441e-7 -1 1.27399e-4 -3.48997e-7 -1 -7.6307e-5 0 -1 -1.20626e-4 2.74249e-7 -1 -5.5893e-5 2.03194e-7 -1 4.79166e-4 -1.44475e-5 -0.9999999 -7.27117e-7 -4.79383e-4 -0.9999999 4.79375e-4 -2.8482e-6 -0.9999999 5.37369e-5 3.59142e-7 -1 0 3.40357e-7 -1 -8.52606e-4 -3.59068e-5 -0.9999997 0 -4.71559e-7 -1 4.79367e-4 3.25077e-6 -0.9999999 4.79374e-4 -3.80369e-6 -0.9999999 4.79377e-4 -3.21084e-6 -0.9999999 -4.92771e-5 0 -1 -5.22061e-4 2.41612e-4 -0.9999998 -2.26948e-4 5.28601e-4 -0.9999998 -5.74804e-4 -2.29133e-5 -0.9999998 -9.94529e-4 5.77876e-4 -0.9999994 -4.26776e-4 1.57236e-6 -1 -4.26748e-4 5.91139e-6 -1 5.86964e-5 4.79416e-4 -0.9999999 0 0 -1 0 2.48861e-5 -1 0 0 -1 0 -6.83914e-7 -1 -9.79431e-4 7.74267e-4 -0.9999993 0 -4.82682e-7 -1 0 -0.00120294 -0.9999993 4.1632e-4 -2.48816e-4 -1 0 3.51585e-7 -1 3.35558e-4 -1.92961e-6 -1 3.35561e-4 -1.55072e-6 -1 3.3556e-4 3.02072e-6 -1 0 -0.001471519 -0.9999989 0 5.55193e-5 -1 -7.89289e-5 2.96574e-7 -1 -2.43026e-4 1.73715e-6 -1 -2.43009e-4 4.61667e-6 -1 -2.43034e-4 -9.58572e-7 -1 -2.63713e-4 4.9575e-5 -1 0 9.905e-4 -0.9999996 0.004463732 0.01431602 -0.9998876 -1.75685e-4 -3.55145e-5 -1 2.86434e-5 0 -1 0.002242684 6.77846e-4 -0.9999973 -3.31506e-5 0 -1 0 2.41426e-4 -1 0.00198853 3.53921e-4 -0.999998 -0.005943417 -5.99277e-4 -0.9999822 0 0.001138627 -0.9999994 0 -6.04374e-5 -1 7.74795e-4 -9.32102e-4 -0.9999993 0.001179873 -3.57293e-4 -0.9999994 0.001246154 6.46151e-5 -0.9999992 -2.05634e-4 4.24924e-4 -1 -9.36672e-4 -1.10853e-4 -0.9999997 -8.18142e-4 -3.29689e-4 -0.9999997 -9.41495e-4 -8.67404e-5 -0.9999996 -6.57414e-4 1.35024e-4 -0.9999998 3.87197e-4 -5.48182e-4 -0.9999998 6.51285e-4 -1.62028e-4 -0.9999998 0.002257287 0 -0.9999976 -8.02375e-5 3.72666e-4 -1 -6.17474e-4 2.41879e-4 -0.9999999 -0.001272439 -7.83326e-6 -0.9999992 -0.001272499 2.62542e-7 -0.9999992 -0.001272261 -1.62162e-5 -0.9999992 1.74946e-4 1.63405e-6 -1 3.66643e-4 0 -1 -0.971504 -0.1572388 0.1773584 -0.9530553 -0.1969065 0.2300298 -0.9273535 -0.3128637 0.2052608 -0.9267108 -0.1577333 0.341068 -0.9073281 -0.3502551 0.2325451 -0.8543745 -0.507301 0.112649 -0.8692114 -0.3788571 0.3177087 -0.8306794 -0.5300462 0.1703613 -0.8009702 -0.1862578 0.5689946 -0.8359876 -0.2558863 0.4854349 -0.8360059 -0.2557989 0.4854494 -0.8360061 -0.2557976 0.4854497 -0.8163514 -0.4681224 0.3382781 -0.8305443 -0.2829166 0.479744 -0.8305441 -0.282918 0.4797438 -0.8305307 -0.2829682 0.4797372 -0.7612483 -0.5013973 0.41122 -0.7143095 -0.6613923 0.2287407 -0.7143568 -0.6613112 0.2288272 -0.7143638 -0.6612947 0.2288533 -0.6831201 -0.7057308 0.1878591 -0.7196614 -0.1812309 0.6702558 -0.7196538 -0.1811513 0.6702855 -0.7196677 -0.1809952 0.6703128 -0.6856879 -0.70016 0.1990177 -0.6857828 -0.7000549 0.1990607 -0.6857137 -0.7001334 0.1990226 -0.7523619 -0.3694706 0.5453835 -0.7200132 -0.5670107 0.4001001 -0.7200743 -0.5668874 0.4001647 -0.7200352 -0.5669735 0.4001131 -0.6898508 -0.2081395 0.6933858 -0.7434597 -0.424134 0.5170862 -0.5215804 -0.8410263 0.1436278 -0.5217316 -0.8409395 0.1435868 -0.521785 -0.8409062 0.1435881 -0.6805772 -0.3270014 0.655656 -0.5121817 -0.1384778 0.8476403 -0.5332698 -0.1677206 0.8291521 -0.6206986 -0.3692606 0.6916501 -0.5854895 -0.623446 0.5181865 -0.4633484 -0.8522534 0.2428429 -0.5484761 -0.734758 0.3991298 -0.4708579 -0.7949988 0.3824524 -0.5934548 -0.4712268 0.6525003 -0.5858905 -0.4405786 0.6801638 -0.509993 -0.2950445 0.8079951 -0.5489928 -0.591951 0.5900855 -0.365135 -0.136282 0.9209254 -0.3651315 -0.1362813 0.9209271 -0.3651533 -0.1362865 0.9209176 -0.3418079 -0.9125533 0.2245306 -0.3418678 -0.9125182 0.2245818 -0.3420878 -0.912418 0.2246541 -0.5157157 -0.5974814 0.6140466 -0.515666 -0.59755 0.6140217 -0.5159456 -0.5972928 0.614037 -0.2622933 -0.9255138 0.2731785 -0.1790164 -0.9611455 0.2101256 -0.2819072 -0.062855 0.9573807 -0.3616369 -0.7951869 0.4867203 -0.2292694 -0.9350056 0.2705551 -0.4531304 -0.4200842 0.7862583 -0.4531286 -0.4200861 0.7862585 -0.4531387 -0.420076 0.7862581 -0.432178 -0.3546648 0.829117 -0.4058021 -0.5154167 0.7547651 -0.1886186 -0.08157211 0.9786567 -0.1886278 -0.08155494 0.9786564 -0.1886951 -0.08147114 0.9786504 -0.03493189 -0.9715128 0.2343989 -0.03487348 -0.9715161 0.2343935 -0.03462731 -0.971545 0.2343103 -0.352858 -0.7296742 0.5857191 -0.350694 -0.7866328 0.5081561 0.01436644 -0.9802404 0.1972876 -0.3044441 -0.6890786 0.6576355 -0.3019692 -0.2363365 0.9235582 -0.3342832 -0.3063178 0.8913047 -0.3342458 -0.3063937 0.8912927 -0.3342627 -0.3063645 0.8912963 0.1675254 -0.9546482 0.2461345 0.1674447 -0.9546572 0.2461546 0.1672695 -0.9546869 0.2461584 -0.1743861 -0.8299509 0.5298784 -0.3403556 -0.5332396 0.7744764 -0.1239224 -0.8821876 0.4542999 0.1259515 -0.9725947 0.1954374 -0.02724874 -0.8972511 0.440679 0.2502155 -0.9416583 0.2251042 0.3574414 -0.9232838 0.1406515 0.004583835 -0.889384 0.4571382 0.004662096 -0.8894099 0.4570869 0.004500269 -0.8893665 0.4571729 -0.1684515 -0.1659041 0.9716481 -0.1614492 -0.1565849 0.9743794 -0.1194328 -0.6971641 0.7068933 -0.2751836 -0.4945537 0.8244336 0.1302228 -0.9003338 0.4152603 -0.1449973 -0.7125585 0.6864665 -0.1450528 -0.712494 0.6865217 -0.1450318 -0.7125217 0.6864974 -0.2457154 -0.3856772 0.8893128 -0.2458102 -0.3859301 0.8891769 -0.2457317 -0.3857872 0.8892606 0.4220514 -0.8839097 0.2014359 0.4220486 -0.883911 0.2014362 0.4221594 -0.8838636 0.201411 0.1594325 -0.8895857 0.4280404 0.259909 -0.8880051 0.3793339 -0.1735658 -0.3528533 0.9194397 -0.1736241 -0.3527373 0.9194734 -0.1736189 -0.3527545 0.9194676 -0.1399807 -0.5370258 0.8318707 -0.1090521 -0.612318 0.7830544 0.5771614 -0.8059387 0.1317102 0.5771187 -0.8059696 0.1317089 0.5770388 -0.8060284 0.1316979 0.03699845 -0.7784463 0.62662 0.03678387 -0.7785021 0.6265634 0.03680527 -0.7784996 0.6265652 -0.112761 -0.4558906 0.8828639 0.3624067 -0.8307678 0.4224765 0.3625084 -0.8307296 0.4224643 0.3627859 -0.8306507 0.4223811 0.1949717 -0.8010864 0.5659035 0.3974288 -0.8274278 0.396754 0.3975354 -0.8273351 0.3968406 0.3974785 -0.8273888 0.3967853 -0.1283852 -0.3708382 0.9197807 -0.07521587 -0.1171947 0.9902566 -0.07521545 -0.1171934 0.9902567 -0.07520288 -0.1171426 0.9902637 0.6223729 -0.7474897 0.2321878 0.6225897 -0.7473464 0.2320681 0.6225007 -0.7474098 0.2321026 0.3217869 -0.7930837 0.5171764 0.3218016 -0.7930545 0.517212 0.3217866 -0.7930846 0.5171754 0.1331363 -0.7342948 0.6656469 0.770969 -0.6283558 0.1038075 0.7711071 -0.6281878 0.1037979 0.7713041 -0.6279664 0.1036744 0.6201026 -0.7314639 0.2836077 0.6200468 -0.7315174 0.2835921 0.6200571 -0.7315078 0.2835943 0.1435593 -0.7019869 0.6975709 0.5311571 -0.7370408 0.4179031 0.5311872 -0.7370117 0.4179161 0.5312026 -0.7369958 0.4179247 0.04640489 -0.5842605 0.8102385 0.3592012 -0.6716114 0.6480067 0.359068 -0.6716958 0.647993 0.3590859 -0.6716877 0.6479916 0.2142757 -0.6545279 0.7250374 0.5397751 -0.6529275 0.531346 0.5399007 -0.6525223 0.5317161 0.5398713 -0.6527041 0.5315228 0.70532 -0.616487 0.3499537 0.7053383 -0.6165197 0.3498591 0.705311 -0.6164819 0.3499809 0.7886563 -0.5452994 0.2840248 0.7886271 -0.5453141 0.2840772 0.7885046 -0.545414 0.2842255 0.05309844 -0.4257909 0.9032624 0.05305498 -0.4258094 0.9032561 0.0530585 -0.4258081 0.9032565 0.224413 -0.512391 0.8289115 -0.02018368 -0.2306141 0.972836 -0.02528154 -0.2801994 0.9596089 -0.02542608 -0.2802053 0.9596034 -0.02566897 -0.2803288 0.9595608 0.07709485 -0.4890343 0.868851 0.07735085 -0.4890786 0.8688032 0.07732748 -0.4890799 0.8688046 0.8874673 -0.4107968 0.2089208 0.8872682 -0.4112722 0.2088314 0.8872705 -0.4112673 0.2088313 0.8927042 -0.3952788 0.2164118 0.8924332 -0.3960632 0.2160947 0.8926625 -0.3954385 0.216292 0.4195169 -0.6279415 0.6555113 0.4195045 -0.6279555 0.6555058 0.4195472 -0.6279041 0.6555277 0.649919 -0.5838183 0.4865815 0.6500148 -0.5837681 0.4865139 0.6500145 -0.5837683 0.4865139 0.8037692 -0.5180042 0.2926205 0.8037722 -0.518086 0.2924675 0.8037406 -0.5179741 0.2927525 0.50226 -0.6284095 0.5940004 0.05503857 -0.3757038 0.9251041 0.9562326 -0.2336196 0.176185 0.400075 -0.541095 0.7397001 0.4001992 -0.5409177 0.7397626 0.4000181 -0.5412037 0.7396515 0.956303 -0.235273 0.1735837 0.9563209 -0.2352631 0.1734986 0.9562992 -0.2352762 0.1736 0.2524439 -0.4833129 0.8382606 0.6816668 -0.4833157 0.5493054 0.6817139 -0.4833784 0.5491918 0.6817595 -0.4834028 0.5491137 0.7693719 -0.4146427 0.4859407 0.7693907 -0.4145064 0.4860273 0.7694106 -0.4144139 0.4860748 0.1172853 -0.3093621 0.9436839 0.8408141 -0.3123587 0.4421129 0.8407381 -0.3122499 0.4423342 0.8407739 -0.3123229 0.4422143 0.5517742 -0.4656741 0.6918764 0.551787 -0.4656606 0.6918753 0.5520942 -0.4654019 0.6918042 0.7822265 -0.3773851 0.4956836 0.7822521 -0.3773366 0.4956799 0.782086 -0.3777061 0.4956609 0.924928 -0.1954786 0.3260315 0.924862 -0.195671 0.326103 0.9248778 -0.1956289 0.3260837 0.2581787 -0.3831866 0.8868551 0.2583863 -0.3830165 0.8868681 0.2582939 -0.3831143 0.8868528 0.6095658 -0.4439458 0.6567662 0.6094729 -0.4440699 0.6567685 0.6096136 -0.443857 0.6567818 0.4740263 -0.4377404 0.7639912 0.4741786 -0.4375557 0.7640025 0.4740993 -0.4376697 0.7639864 0.04687184 -0.1553552 0.9867461 0.8663209 -0.2301561 0.4433019 0.866409 -0.2299872 0.4432172 0.866239 -0.2303329 0.4433698 0.4458929 -0.3799942 0.8104221 0.4459242 -0.3799986 0.8104028 0.4458624 -0.3799923 0.8104398 0.7078917 -0.3160842 0.6316488 0.7078599 -0.3159814 0.6317359 0.7078754 -0.3160374 0.6316904 0.1971017 -0.3162709 0.9279676 0.1970906 -0.3161749 0.9280026 0.1971226 -0.3163363 0.9279409 0.648186 -0.3355534 0.6835634 0.6481822 -0.3355237 0.6835817 0.6481698 -0.3354653 0.683622 0.4021635 -0.354148 0.8443008 0.402029 -0.3541944 0.8443453 0.4021134 -0.3541672 0.8443167 0.8321305 -0.1350066 0.537896 0.8320443 -0.1350963 0.5380069 0.8322213 -0.1349438 0.5377714 0.05337953 -0.09696364 0.9938555 0.5874803 -0.2661807 0.7642086 0.5875269 -0.2661766 0.7641742 0.587549 -0.2661756 0.7641575 0.7420292 -0.08467209 0.6649988 0.7419623 -0.08455187 0.6650887 0.7419442 -0.08417606 0.6651566 0.6899064 -0.1677161 0.7042021 0.6899784 -0.1676864 0.7041386 0.6898357 -0.167767 0.7042592 0.2000421 -0.1624713 0.9662228 0.3648894 -0.1807451 0.9133384 0.580035 -0.2017415 0.7892147 0.580128 -0.202054 0.7890664 0.5803112 -0.2023247 0.7888624 0.1648038 -0.132804 0.9773448 0.3322187 -0.1650029 0.9286575 0.3324715 -0.1649041 0.9285846 0.3326966 -0.1648985 0.9285051 0.4737404 -0.1454041 0.868578 0.4738062 -0.145509 0.8685246 0.4737711 -0.1454414 0.868555 0.9847121 -5.92098e-4 0.1741893 0.9847121 -5.81281e-4 0.1741891 0.9847121 -5.97987e-4 0.1741893 0.9494124 0.00241959 0.3140227 0.9487727 6.89993e-4 0.3159587 0.9487651 4.53803e-4 0.3159822 0.9446849 1.21893e-4 0.3279794 0.9446851 1.68164e-4 0.327979 0.9446851 1.75396e-4 0.327979 0.8551145 -3.71451e-5 0.5184394 0.8551329 2.02614e-4 0.5184087 0.8560259 -0.001952528 0.5169293 0.853167 -1.03353e-4 0.5216381 0.853174 -3.58934e-4 0.5216263 0.8531675 -2.01133e-4 0.5216369 0.7135835 3.52476e-4 0.7005702 0.6798375 -9.66628e-5 0.7333629 0.6643283 5.27122e-5 0.747441 0.4877571 2.42062e-5 0.8729794 0.4652 -2.59826e-4 0.8852056 0.4652022 -2.97977e-4 0.8852045 0.4651997 -2.40585e-4 0.8852058 0.3579981 1.71847e-4 0.9337223 0.2959603 -2.91383e-4 0.9552003 0.1718914 -1.9493e-4 0.9851159 0.171891 -1.75908e-4 0.985116 0.1718873 -1.38248e-4 0.9851167 0.1502321 1.98542e-4 0.9886508 0.1502369 1.41121e-4 0.9886501 0.1502374 1.06961e-4 0.98865 -0.9843835 -2.75893e-5 0.176037 -0.9858524 -1.1917e-4 0.1676162 -0.9207552 -3.05733e-4 0.3901407 -0.9207631 -4.39243e-4 0.3901222 -0.9207562 -3.47464e-4 0.3901387 -0.9371672 1.79821e-4 0.3488806 -0.8407678 1.87115e-4 0.5413958 -0.8396557 1.56716e-4 0.5431191 -0.720087 -5.76114e-4 0.6938835 -0.6203627 5.31396e-4 0.7843149 -0.5379584 -1.37819e-4 0.8429714 -0.5056217 -7.62419e-4 0.8627549 -0.313585 1.40038e-4 0.9495602 -0.2876578 -1.84532e-4 0.9577333 -0.09845942 2.13315e-4 0.9951412 -0.1060125 1.29688e-4 0.9943649 0.965041 0.1872642 0.1833795 0.9650433 0.1872566 0.1833754 0.965014 0.1873626 0.1834211 0.9445483 0.3073725 0.1155455 0.9446396 0.3073015 0.114986 0.9445762 0.3073857 0.1152819 0.9453409 0.1573607 0.2856014 0.9455325 0.1571125 0.2851032 0.9454783 0.1572061 0.2852316 0.9064799 0.378154 0.1878664 0.9064511 0.3782261 0.1878608 0.9063267 0.3785561 0.1877964 0.9219907 0.199913 0.331614 0.9221498 0.199825 0.3312247 0.9218573 0.1998911 0.3319982 0.884966 0.4458072 0.1345039 0.8850269 0.4457047 0.1344423 0.8847832 0.4461305 0.1346342 0.8786649 0.3532845 0.3211515 0.8786763 0.3533036 0.3210991 0.878683 0.3533177 0.3210653 0.8777019 0.3535075 0.3235307 0.8777092 0.3534905 0.3235293 0.8777905 0.3533126 0.3235027 0.7879651 0.5712276 0.2298047 0.7878991 0.5712872 0.2298825 0.7876224 0.5715952 0.2300654 0.8312555 0.1757659 0.5273715 0.8310077 0.1767183 0.5274437 0.8311271 0.1763505 0.5273789 0.7704952 0.6104415 0.1835717 0.770501 0.6104375 0.1835604 0.7705087 0.610432 0.1835463 0.7986082 0.3626295 0.4803383 0.7985869 0.3625916 0.4804025 0.7985545 0.3625552 0.4804837 0.7496538 0.1746737 0.6383638 0.7494499 0.1742159 0.6387283 0.7495784 0.1744217 0.6385212 0.8054807 0.200603 0.5576373 0.8054848 0.2006383 0.5576186 0.8054632 0.2004925 0.5577023 0.7826924 0.5577421 0.2762542 0.7826505 0.5577497 0.2763577 0.782693 0.5577422 0.2762527 0.67958 0.7138937 0.1688994 0.6796988 0.7137863 0.1688748 0.6795189 0.7139469 0.1689199 0.7842182 0.3207297 0.5311632 0.7841638 0.3208164 0.5311911 0.7841819 0.3207868 0.5311823 0.719631 0.5535477 0.4191852 0.7196621 0.5534384 0.4192761 0.7196807 0.5533271 0.4193911 0.6137184 0.7507531 0.2443758 0.7237006 0.5092515 0.4657472 0.7239739 0.5090042 0.4655926 0.7236781 0.5092694 0.4657626 0.6604003 0.3269732 0.6759881 0.6606429 0.326843 0.6758142 0.6605435 0.32691 0.6758788 0.6437066 0.2433984 0.7255337 0.5453298 0.8085716 0.220969 0.5455954 0.8084388 0.2207992 0.5457412 0.8083875 0.220627 0.520932 0.1358214 0.8427232 0.5211672 0.1349108 0.8427242 0.5210923 0.1355038 0.8426753 0.5480704 0.1567664 0.8216102 0.6171803 0.647849 0.4465201 0.6171925 0.6475165 0.4469854 0.6170665 0.6474242 0.4472929 0.5667557 0.2027422 0.7985509 0.5666742 0.202752 0.7986064 0.5667718 0.2027413 0.7985399 0.611736 0.4800262 0.6287717 0.5964651 0.670489 0.4412188 0.596424 0.6704664 0.4413087 0.5963581 0.6704537 0.441417 0.4482867 0.8474621 0.2843361 0.393496 0.8836588 0.2535904 0.3934913 0.8836789 0.2535274 0.393522 0.883624 0.2536716 0.5765135 0.4481593 0.683217 0.576476 0.4481719 0.6832404 0.5764162 0.4481881 0.6832802 0.5293616 0.6952346 0.4862359 0.5296072 0.6950762 0.4861949 0.5294937 0.695163 0.4861944 0.5668371 0.4491466 0.6906251 0.5671772 0.449206 0.6903073 0.5668936 0.4491824 0.6905554 0.2067461 0.9609731 0.1838123 0.2064504 0.9610016 0.1839951 0.2066077 0.9609966 0.1838449 0.4319347 0.7745333 0.4620937 0.1974077 0.9463291 0.2559131 0.4100969 0.7766022 0.478236 0.4100068 0.7766581 0.4782224 0.4101811 0.776561 0.4782307 0.259774 0.9172602 0.3019125 0.3651286 0.1318627 0.9215712 0.365063 0.1317727 0.92161 0.3649842 0.1317198 0.9216488 0.4645554 0.3083258 0.8301348 0.4641823 0.3085948 0.8302434 0.4643517 0.308497 0.8301851 0.4654098 0.5251207 0.7124901 0.465442 0.5250888 0.7124925 0.465399 0.5251308 0.7124897 0.4408769 0.5965914 0.6706014 0.4409379 0.5961329 0.670969 0.4409239 0.5964532 0.6706935 0.1571384 0.9503576 0.2685667 0.001698434 0.9858614 0.167555 0.3937415 0.303623 0.8676294 0.3936865 0.3036105 0.8676587 0.3936431 0.3035961 0.8676835 0.3303729 0.704841 0.6277364 0.267199 0.8467132 0.4600886 0.3171927 0.1702155 0.9329606 0.3172738 0.1702721 0.9329227 0.3171989 0.1702189 0.9329579 0.3644458 0.4601289 0.8096054 0.364525 0.4597362 0.8097928 0.364471 0.4600793 0.8096222 0.360136 0.6382713 0.6803762 0.3600851 0.6382651 0.6804091 0.3600778 0.6382647 0.6804133 0.1997092 0.8128578 0.547155 0.1997894 0.8128184 0.5471841 0.1997916 0.8128171 0.5471853 0.03988456 0.9184137 0.3936058 -0.003094792 0.9242296 0.381825 0.3434882 0.3587847 0.8679224 0.3434494 0.3587288 0.8679609 0.3434486 0.3587278 0.8679617 0.1582643 0.08149266 0.9840282 0.1583104 0.08152228 0.9840183 0.1581975 0.08146172 0.9840415 -0.0675435 0.9651139 0.2529686 0.2356295 0.154169 0.9595368 0.2194328 0.750469 0.6234144 -0.2001404 0.9499185 0.2399974 -0.1960922 0.9493712 0.2454428 -0.196036 0.949391 0.2454112 -0.1960934 0.9493709 0.2454436 0.08363199 0.8490422 0.5216639 0.08360379 0.8490377 0.5216757 0.08363485 0.8490427 0.5216626 0.2553793 0.5481226 0.7964567 -0.1060445 0.8880218 0.4474058 -0.1059867 0.888009 0.4474451 -0.1059806 0.8880072 0.4474499 0.2175943 0.3267676 0.9197151 0.2173079 0.3266205 0.919835 0.2173923 0.3266787 0.9197944 0.1447632 0.6711282 0.7270698 -0.1991015 0.9062606 0.3728947 -0.1991171 0.9062513 0.3729089 -0.1991207 0.9062493 0.3729119 -0.3831452 0.9022297 0.1979431 -0.3831731 0.9022197 0.197935 -0.3831759 0.9022186 0.197934 0.214567 0.5436615 0.8114144 0.06828713 0.06842982 0.9953162 -0.3954746 0.8927915 0.2156928 0.1817456 0.264199 0.9471892 0.1438792 0.6420989 0.7529993 0.1695258 0.4576473 0.872823 0.1694056 0.4576308 0.872855 0.1696314 0.4576901 0.87278 -0.04233735 0.7755824 0.6298249 -0.1049981 0.8092442 0.5780133 -0.1049935 0.8092454 0.5780124 -0.1050442 0.8092333 0.5780201 -0.3002192 0.8382837 0.4551362 -0.3002632 0.8382695 0.4551333 -0.3002133 0.8382855 0.4551368 -0.5314484 0.8091531 0.2506672 -0.531446 0.8091537 0.2506702 -0.5314841 0.809147 0.2506114 -0.5843064 0.7849754 0.2059119 -0.03789818 0.7535247 0.6563265 -0.358503 0.8295813 0.4281009 -0.3585056 0.8295601 0.4281399 -0.3585196 0.8295255 0.4281951 -0.2473432 0.7775819 0.5780898 -0.2473725 0.7775815 0.5780778 -0.2473343 0.7775824 0.5780931 0.08677911 0.2182835 0.9720194 0.08641332 0.2185479 0.9719927 0.08659648 0.2184816 0.9719913 -0.006173372 0.5769191 0.816778 0.06514191 0.4226051 0.9039698 -0.4281946 0.7794299 0.4573169 -0.4940596 0.7719777 0.3999448 -0.4940761 0.7719601 0.3999581 -0.4940558 0.7719818 0.3999414 -0.6608068 0.7116913 0.2383906 -0.6608144 0.7116847 0.238389 -0.6608335 0.711668 0.2383858 -0.7260864 0.6682268 0.1620849 -0.7260769 0.6682353 0.1620924 -0.7260189 0.6682904 0.1621246 -0.07453221 0.6701536 0.7384707 -0.2677353 0.7414345 0.6152989 0.07954955 0.2059655 0.9753205 -0.4191412 0.7143768 0.5603451 -0.665574 0.653442 0.3605895 -0.816063 0.5344054 0.2201181 -0.01246833 0.5336779 0.845596 -0.1716675 0.6356976 0.7526081 -0.1718217 0.6356819 0.7525861 -0.1717468 0.6356966 0.7525908 -0.3621003 0.6879791 0.6289422 0.04456573 0.3758097 0.9256247 -0.8131951 0.5462275 0.200872 -0.7294854 0.5710361 0.3765222 -0.7295012 0.5710711 0.3764385 -0.7294601 0.5710153 0.3766027 -0.5985612 0.6640736 0.4480299 -0.5985624 0.6640782 0.4480214 -0.5985556 0.6640589 0.4480592 -0.09303563 0.4705457 0.8774573 -0.8711128 0.4269493 0.2426455 -0.2114274 0.5593121 0.8015413 -0.36065 0.6206203 0.6962486 -0.1582479 0.4930933 0.8554629 -0.5723267 0.6194299 0.5373536 -0.9117166 0.3751369 0.1674668 -0.2867355 0.5528411 0.7823998 -0.7299872 0.5141299 0.4503211 -0.05059283 0.3548908 0.9335379 -0.05077111 0.354978 0.933495 -0.0506795 0.3549499 0.9335107 -0.5902957 0.5374597 0.602236 -0.6131004 0.5190818 0.5955352 -0.9590086 0.2136455 0.1861667 -0.7952094 0.4094648 0.4471918 -0.8422411 0.3831119 0.3792827 -0.4829398 0.5112317 0.710923 -0.9578952 0.1979072 0.2080131 -0.45357 0.4651624 0.7601963 -0.3357024 0.4743753 0.813801 -0.08237808 0.265422 0.9606066 -0.8833764 0.224703 0.4112843 -0.9308428 0.1757247 0.3203943 -0.0305925 0.1476285 0.9885697 -0.7549107 0.3352852 0.5636434 -0.755022 0.3350503 0.5636338 -0.7549813 0.3351555 0.5636259 -0.2880648 0.3360998 0.8966915 -0.2880558 0.3361638 0.8966704 -0.2881194 0.3359575 0.8967274 -0.659691 0.335389 0.6725488 -0.03710204 0.09253096 0.9950184 -0.2191116 0.3153808 0.9233229 -0.1822614 0.2763127 0.9436271 -0.1822389 0.2761393 0.9436823 -0.1822463 0.2761043 0.9436911 -0.4640938 0.3619827 0.8084464 -0.6577592 0.3326904 0.6757737 -0.8324269 0.1909257 0.5202049 -0.8324763 0.1911308 0.5200502 -0.8324739 0.1910625 0.5200792 -0.4000095 0.2998837 0.8660613 -0.4000223 0.2998961 0.8660511 -0.4000215 0.2998953 0.8660517 -0.8150685 0.1410215 0.5619399 -0.3534394 0.2976366 0.8868445 -0.6084381 0.3057194 0.7323516 -0.6085674 0.3060187 0.7321192 -0.6085368 0.3058487 0.7322155 -0.1785435 0.1895933 0.965493 -0.7323554 0.157297 0.6625052 -0.08383244 0.1071819 0.9906989 -0.0839045 0.1070211 0.9907102 -0.08389276 0.1070363 0.9907096 -0.5633396 0.2008679 0.8014366 -0.5633541 0.2008549 0.8014297 -0.5633376 0.2008699 0.8014376 -0.4652933 0.1870815 0.8651605 -0.465323 0.1869627 0.8651703 -0.4653102 0.1870276 0.8651631 -0.6379999 0.100845 0.7634046 -0.2497621 0.1525776 0.9562108 -0.2497021 0.1528218 0.9561874 -0.2497283 0.1527655 0.9561896 -0.4210591 0.1329032 0.8972436 -0.421041 0.1329804 0.8972406 -0.4210553 0.1329244 0.8972423 -0.2569636 0.1190966 0.9590547 -0.3219885 0.09406918 0.9420587 -0.1385121 0.04678642 0.989255 0.9887568 -0.1318759 0.07049071 0.9887756 -0.1317182 0.07052177 0.9887422 -0.1320415 0.07038438 0.9113259 -0.4056511 0.07023048 0.9649327 -0.2528616 0.07046926 0.9426386 -0.3266074 0.06899291 0.9972888 -0.02616006 0.06878215 0.8466376 -0.5274259 0.0708999 0.846632 -0.5274362 0.07089102 0.8466487 -0.5274061 0.07091492 -0.1429874 -0.9872207 0.0703563 -0.5786674 -0.8125119 0.07048785 -0.5785914 -0.8125647 0.07050293 -0.5787689 -0.8124455 0.07042014 0.8082168 -0.5848364 0.06893587 0.8935041 -0.4436979 0.06915712 -0.4386148 -0.8959441 0.07000935 0.9828073 -0.1712592 0.06899333 0.7496485 -0.6580541 0.07065498 0.7495671 -0.6581454 0.07066708 0.7494837 -0.6582422 0.07065165 -0.5131474 -0.8555116 0.0691353 -0.802154 -0.5929631 0.07031345 0.5132849 -0.8553286 0.07036912 0.5954955 -0.8003796 0.06912153 0.7302084 -0.6796442 0.0698527 0.7304125 -0.6794303 0.06980127 0.7303342 -0.6795101 0.069844 0.4118784 -0.9085735 0.06964474 0.6701696 -0.7388281 0.07075208 0.6698867 -0.7390712 0.07089126 0.6699967 -0.7389734 0.07087147 0.05186969 -0.9961888 0.07012343 -0.04912608 -0.996397 0.06913459 0.2423962 -0.9676854 0.06949275 -0.8558735 -0.5125434 0.06913602 -0.9029799 -0.4239221 0.07012569 -0.146206 -0.9867582 0.07022827 -0.2559715 -0.9642237 0.06892985 0.2429232 -0.9675511 0.06952148 0.4314612 -0.899506 0.06877666 -0.3208217 -0.9445062 0.07057923 0.6027255 -0.7949904 0.06864649 0.6027184 -0.7949974 0.06862813 0.6027333 -0.7949824 0.06867039 0.06527924 -0.9954355 0.06961894 -0.8015668 -0.5937618 0.0702691 -0.4097465 -0.9095715 0.06919127 -0.60734 -0.7914179 0.06925272 -0.9080801 -0.412962 0.06966394 -0.6814415 -0.7284656 0.07053655 -0.9878741 -0.1383661 0.07042479 -0.9965852 -0.04450988 0.06954771 -0.996694 -0.04403465 0.06828087 -0.9964864 -0.04743397 0.06902849 -0.963743 -0.2575889 0.069624 -0.7269226 -0.6832547 0.06889533 -0.9681437 -0.2407258 0.06891316 0.9871167 -0.1437385 0.07028424 0.9866885 -0.1467221 0.07013225 0.9866769 -0.1466795 0.0703836 0.9866884 -0.1467221 0.07013243 0.7378173 -0.6713272 0.07032471 0.9680291 -0.2411425 0.06906443 0.9680293 -0.2411447 0.06905579 0.9680278 -0.2411347 0.06911009 0.939521 -0.3352227 0.07018685 0.9395188 -0.3352156 0.07024997 0.9395186 -0.3352155 0.07025218 0.9972918 -0.02646082 0.06862258 0.3299905 -0.9413155 0.07093256 0.6041571 -0.7937852 0.06999552 0.6691512 -0.7399041 0.06912887 -0.5085336 -0.8581584 0.07041233 -0.3258808 -0.9427852 0.07041299 0.03117984 -0.9970512 0.07011842 0.251904 -0.9652867 0.0690366 0.9345266 -0.3489086 0.07016211 0.9347341 -0.3483886 0.06998288 0.9346624 -0.3485499 0.07013797 0.1464841 -0.9867298 0.07004904 0.1581849 -0.9849514 0.06963014 0.04888606 -0.9963716 0.06966835 -0.3362556 -0.939186 0.06972783 -0.3363649 -0.9391393 0.06982964 -0.3361101 -0.9392408 0.06969076 -0.06242215 -0.9956677 0.06891554 0.7475941 -0.6604832 0.06975048 -0.4268248 -0.9016855 0.06916648 -0.1432476 -0.9871519 0.07079017 0.8561949 -0.5119728 0.06938481 0.8557945 -0.5125924 0.06974822 0.8558369 -0.5125237 0.06973499 0.8558819 -0.5124534 0.06969755 0.4974103 -0.8646389 0.07058721 -0.5129603 -0.855534 0.07023847 -0.6703248 -0.7387378 0.07022291 -0.5945834 -0.8010566 0.06913024 0.4145443 -0.9074654 0.06826251 0.5768862 -0.8138961 0.0691064 -0.2234988 -0.9722705 0.06883573 -0.8019354 -0.5933464 0.06956881 -0.8951799 -0.4402415 0.06957358 -0.6821502 -0.7278907 0.06961524 -0.98515 -0.1564336 0.07076847 -0.8014847 -0.593961 0.06951838 -0.9964361 -0.04787027 0.06945371 -0.9965454 -0.04738277 0.06820803 -0.996329 -0.05078488 0.06891584 -0.9017943 -0.4266274 0.06896674 -0.9439982 -0.3223155 0.07057052 -0.9674491 -0.2435755 0.06865417 -0.9674603 -0.2435021 0.06875687 -0.9675235 -0.243226 0.06884437 0.9590498 3.43763e-5 0.2832378 0.9590498 2.62225e-5 0.2832376 0.9590498 3.89967e-5 0.2832378 0.9462174 -1.76773e-4 0.3235315 0.9462174 -1.71286e-4 0.3235315 0.9462174 -1.73552e-4 0.3235315 0.8617432 1.72714e-4 0.5073449 0.8617432 1.74158e-4 0.5073449 0.8617432 1.71537e-4 0.5073449 0.8189389 -1.49264e-4 0.5738808 0.8189389 -1.56614e-4 0.5738808 0.8189389 -1.53648e-4 0.5738808 0.7419336 9.97733e-5 0.6704735 0.6676496 -1.25235e-4 0.7444758 0.6676496 -1.2435e-4 0.7444758 0.6676496 -1.22744e-4 0.7444758 0.6152193 1.1227e-4 0.788356 0.4533745 -1.13128e-4 0.8913201 0.4283495 4.46695e-5 0.9036132 0.4283496 4.522e-5 0.9036132 0.4283496 4.38106e-5 0.9036132 0.2018865 -2.61425e-5 0.9794089 0.2063663 2.32612e-6 0.9784749 0.2063663 1.41815e-6 0.9784749 0.2063664 -1.65949e-6 0.9784749 3.91242e-4 0.9587485 0.2842557 -8.3198e-4 0.9398345 0.341629 5.68827e-4 0.8629171 0.5053452 -2.4696e-4 0.8377597 0.5460393 -8.15856e-5 0.7414575 0.6709999 -4.15916e-4 0.7412288 0.6712524 -8.09697e-5 0.7414575 0.6709999 9.10063e-5 0.7355425 0.6774787 1.93544e-4 0.6138788 0.7894003 -2.19618e-4 0.5965805 0.8025532 2.05112e-4 0.4301424 0.9027611 2.96454e-4 0.4336022 0.9011045 -5.79433e-4 0.2664644 0.9638447 8.70141e-4 0.2008167 0.9796285 6.79442e-4 -0.9532166 0.3022878 4.89817e-5 -0.9460145 0.3241245 -6.83627e-4 -0.8870259 0.4617192 6.69698e-4 -0.8182054 0.5749258 -6.79906e-4 -0.7679243 0.6405403 8.49326e-4 -0.667805 0.7443359 -0.001010894 -0.5646196 0.8253508 9.89262e-4 -0.4514085 0.8923169 -5.07005e-4 -0.3662276 0.9305253 5.59066e-5 -0.2173048 0.9761038 3.57389e-4 -0.205479 0.9786615 -0.9540371 -4.21094e-5 0.2996886 -0.9540371 -5.15527e-5 0.2996886 -0.9540371 -5.36963e-5 0.2996886 -0.9406714 1.2667e-4 0.3393188 -0.9406715 1.50529e-4 0.3393188 -0.9406715 1.417e-4 0.3393188 -0.8875188 -1.1125e-4 0.4607716 -0.8378899 1.13832e-4 0.5458394 -0.8378899 1.1173e-4 0.5458394 -0.8378898 1.14094e-4 0.5458394 -0.7681528 -1.41871e-4 0.6402667 -0.7681528 -1.38753e-4 0.6402667 -0.7681528 -1.43535e-4 0.6402667 -0.734875 6.26093e-5 0.6782025 -0.5958694 4.19283e-5 0.8030814 -0.5958694 4.52116e-5 0.8030814 -0.5958694 4.38963e-5 0.8030815 -0.564876 -1.39974e-4 0.8251758 -0.4355871 1.09737e-4 0.9001467 -0.4355871 1.08901e-4 0.9001467 -0.4355871 1.09004e-4 0.9001467 -0.3667356 -8.33757e-5 0.9303252 -0.2616504 1.00999e-4 0.9651628 -0.2176215 -8.05491e-5 0.9760333 -3.45114e-4 1.68054e-6 1 -2.35649e-4 2.43435e-5 1 5.60366e-5 -1.58189e-4 1 0 -5.47743e-6 1 -1.00406e-4 0 1 -9.57465e-5 5.53313e-7 1 2.25193e-5 1.10806e-6 1 -8.24698e-5 1.11637e-6 1 -1.47853e-5 1.12509e-6 1 3.19162e-5 1.13386e-6 1 -2.52992e-5 -4.53607e-6 1 2.69998e-5 3.82237e-6 1 1.9413e-5 4.95469e-6 1 -8.11676e-5 1.20148e-6 1 -6.0497e-6 -3.07397e-6 1 6.01855e-6 6.63792e-7 1 -9.70233e-5 -2.59547e-6 1 3.71609e-4 1.5888e-4 1 -2.95771e-4 -1.70517e-4 1 0 -7.61932e-7 1 1.08442e-4 2.26185e-5 1 0 -1.93452e-6 1 -4.44721e-5 -2.29452e-5 1 6.49519e-5 2.95399e-5 1 -4.04924e-5 1.72116e-5 1 -3.82044e-4 -8.12141e-5 1 0 1.21224e-5 1 -5.26593e-5 -9.31099e-5 1 0 -2.65037e-6 1 8.08669e-5 -2.88555e-6 1 -2.69701e-4 -5.40384e-5 1 -2.69608e-4 -4.9989e-5 1 -1.22338e-4 -3.37231e-4 1 -5.36731e-5 6.65968e-5 1 6.76087e-5 -2.95515e-5 1 2.141e-5 -3.70232e-5 1 -9.76992e-5 2.36619e-5 1 2.07327e-6 2.24797e-5 1 5.03626e-5 -2.09274e-5 1 -5.18048e-5 5.88144e-5 1 -8.86446e-5 7.79549e-5 1 1.45054e-4 -6.1547e-5 1 -2.02326e-5 2.65048e-6 1 7.66665e-5 -2.9013e-5 1 2.46123e-6 7.27148e-7 1 -2.44718e-4 1.39433e-4 1 5.8707e-5 4.82107e-7 1 5.78449e-5 -2.48981e-5 1 3.463e-4 -1.02435e-4 1 2.52e-6 0 1 -1.1064e-4 5.14751e-7 1 -8.91526e-5 7.49814e-7 1 5.79061e-5 -6.71047e-5 1 2.83327e-5 0 1 0 0 1 7.46826e-5 -2.95284e-5 1 1.12892e-5 7.30898e-7 1 9.80394e-6 1.06827e-4 1 9.40059e-5 0 1 -3.73916e-6 7.30944e-7 1 0 0 1 -5.49454e-6 0 1 -5.74449e-6 -4.30953e-5 1 -1.74081e-5 0 1 0 6.89697e-7 1 6.69452e-6 4.93685e-5 1 5.34554e-6 -9.21619e-7 1 -2.36709e-5 7.60961e-7 1 3.35545e-4 3.03147e-6 1 0 3.34384e-4 1 3.35565e-4 -6.94898e-7 1 5.66351e-5 -1.07927e-6 1 -6.91601e-6 -1.39067e-6 1 -1.0353e-4 4.86081e-5 1 0 -4.30189e-5 1 0 -9.87578e-7 1 3.35528e-4 1.1252e-4 1 3.35556e-4 1.05683e-4 1 3.35574e-4 1.0891e-4 1 -1.05064e-4 -7.49313e-6 1 3.6658e-4 -8.10618e-5 1 0 -6.09261e-6 1 4.999e-5 -1.19808e-4 1 -1.78434e-4 1.75684e-4 1 -1.78285e-4 1.59523e-4 1 -1.78361e-4 1.7047e-4 1 -3.92804e-5 7.83462e-5 1 0 -3.40518e-6 1 3.49822e-5 -3.85332e-5 1 -3.30055e-5 2.85519e-5 1 0 -2.06395e-6 1 4.879e-5 -4.65041e-5 1 0 -2.18637e-6 1 7.81942e-5 -1.1556e-4 1 0 -1.21759e-5 1 0 -6.35576e-7 1 -2.02032e-4 1.72747e-4 1 1.16099e-4 -6.5817e-5 1 1.62542e-6 0 1 -6.10814e-4 -1.39479e-5 0.9999999 -2.72508e-5 2.82384e-7 1 1.96921e-4 3.45003e-6 1 -9.80447e-5 2.01654e-7 1 1.2394e-5 7.82497e-7 1 0 1.06484e-6 1 0 7.59245e-6 1 0 1.0233e-6 1 1.75307e-4 -1.40115e-5 1 0 1.41269e-6 1 -7.03481e-5 5.73317e-6 1 0 3.83478e-6 1 0 -1 0 -1 0 0 0 1 0 1 0 0 -0.5941143 0.8013126 0.07018929 -0.9965357 0.04302507 0.07117199 -0.5130328 0.8555827 0.0691064 -0.4412055 0.8946653 0.07008522 -0.9678733 0.241235 0.07090163 -0.7388098 0.6702428 0.07024723 -0.8471502 0.526713 0.07007282 -0.04860424 0.9963472 0.07021439 -0.8014773 0.5940099 0.06918448 -0.8015018 0.5939595 0.06933379 -0.8014773 0.5940114 0.0691716 -0.9865436 0.1483792 0.06866884 0.1437912 0.9871158 0.07019072 0.04896813 0.9964068 0.0691052 -0.9087057 0.4114252 0.07059222 0.335468 0.9394218 0.07034182 -0.9415492 0.3298506 0.06843847 0.1464074 0.9867374 0.07010209 0.2425671 0.9676682 0.06913435 0.7534285 0.6536891 0.0709663 0.7534558 0.6536578 0.0709657 0.7532471 0.6539044 0.07090914 -0.7314728 0.6782851 0.06983458 -0.8664273 0.4944956 0.06912207 0.9130779 0.4016726 0.07034152 0.6550089 0.7523232 0.07052177 0.6549441 0.7523996 0.07030719 0.655008 0.7523247 0.07051366 0.8497899 0.5224113 0.07031238 0.8498624 0.5223348 0.07000249 0.8498234 0.5223694 0.0702185 0.8007537 0.5949878 0.06915938 -0.2259125 0.9716495 0.06971991 -0.412559 0.9082937 0.0692656 0.3361083 0.9391923 0.07034987 -0.3363571 0.9391231 0.07008403 -0.3364284 0.9390952 0.0701161 -0.3362337 0.939168 0.07007408 -0.611688 0.7880511 0.06937789 -0.2441874 0.9672714 0.06898409 -0.06674426 0.9953444 0.06953287 0.995629 0.06084847 0.07085531 0.5118507 0.856148 0.07084894 0.4412837 0.8947208 0.06887298 0.5911558 0.8036539 0.06837594 0.5911682 0.8036466 0.0683555 0.5911479 0.8036584 0.06839072 0.9450615 0.3195341 0.06896972 0.9450576 0.3195382 0.06900393 0.9450476 0.3195536 0.06907033 0.8557785 0.5126294 0.0696724 0.7241596 0.6861352 0.06936407 0.7240195 0.6862785 0.06940984 0.7241091 0.6861854 0.06939584 0.9861113 0.1512321 0.06865507 0.9689432 0.236993 0.07059442 0.9689426 0.2369973 0.07058811 0.9689471 0.2369555 0.0706672 0.9022871 0.4254645 0.06969952 -0.4029847 0.9125012 0.07032072 -0.9964451 0.04503691 0.07119578 -0.5285274 0.8460149 0.07012784 -0.5944164 0.8011812 0.06912171 -0.6596219 0.7483279 0.07003182 0.1513997 0.9859599 0.07043647 -0.7507576 0.6567956 0.07058751 -0.8471689 0.5266812 0.07008558 -0.9668323 0.2453595 0.07095074 -0.7936987 0.6043917 0.06894183 -0.9861611 0.1509354 0.06859201 0.8004985 0.595173 0.07050734 0.800719 0.594831 0.07088798 0.800595 0.5950127 0.0707637 -0.9075523 0.4139662 0.0705744 0.5048417 0.8602943 0.07091379 0.6647103 0.7437959 0.07019907 0.6700605 0.7389523 0.07048666 0.73851 0.670691 0.06911277 -0.8631907 0.5001009 0.06928998 0.2549439 0.9644955 0.06893557 -0.6853037 0.7249687 0.06913143 -0.9391947 0.3365833 0.06800758 -0.939136 0.3367629 0.06793016 -0.9391112 0.3368335 0.06792294 0.3369044 0.9388778 0.0707392 -0.3211954 0.9445019 0.06891858 -0.5135065 0.855251 0.06969177 -0.2366001 0.9690239 0.07080382 -0.4264236 0.9018353 0.06968498 -0.1476408 0.98667 0.06844377 -0.04952651 0.9962512 0.07092922 0.1467412 0.9866762 0.07026374 0.03133445 0.9971542 0.06856882 0.03147476 0.9971522 0.06853383 0.03121942 0.9971514 0.06866246 0.9835904 0.1661912 0.07021725 0.9836062 0.1662036 0.06996572 0.9835953 0.1661831 0.07016772 0.9442988 0.3215461 0.07005614 0.967844 0.2418612 0.06914561 0.4199906 0.9049438 0.06844478 0.5768843 0.813925 0.0687794 0.9969217 0.03420078 0.070553 0.8000709 0.5957726 0.07029652 0.9880874 0.1374265 0.06926304 0.9880869 0.1374226 0.0692771 0.9880842 0.1374103 0.06933975 0.8624299 0.5014596 0.06894314 0.8948641 0.4407222 0.07058501 0.9325491 0.3543569 0.06916153</float_array>
          <technique_common>
            <accessor source="#Part__Feature_012-mesh-normals-array" count="1250" stride="3">
              <param name="X" type="float"/>
              <param name="Y" type="float"/>
              <param name="Z" type="float"/>
            </accessor>
          </technique_common>
        </source>
        <vertices id="Part__Feature_012-mesh-vertices">
          <input semantic="POSITION" source="#Part__Feature_012-mesh-positions"/>
        </vertices>
        <triangles material="Part__Feature_012-material" count="796">
          <input semantic="VERTEX" source="#Part__Feature_012-mesh-vertices" offset="0"/>
          <input semantic="NORMAL" source="#Part__Feature_012-mesh-normals" offset="1"/>
          <p>2 0 1 0 3 0 2 1 0 1 1 1 2 2 3 2 4 2 2 3 4 3 5 3 6 4 2 4 5 4 6 5 5 5 7 5 8 6 6 6 7 6 8 7 7 7 9 7 8 8 9 8 10 8 11 9 8 9 10 9 11 10 10 10 12 10 11 11 12 11 220 11 13 12 11 12 220 12 13 13 220 13 14 13 15 14 14 14 16 14 15 15 13 15 14 15 15 16 16 16 17 16 15 17 17 18 19 19 18 20 15 21 19 22 18 23 19 23 20 23 18 24 20 25 22 26 21 27 18 28 22 29 21 30 22 31 23 32 21 33 23 33 25 33 24 34 21 35 25 36 24 37 25 38 26 39 27 40 24 40 26 40 51 41 1 41 0 41 50 42 1 42 51 42 28 43 29 44 30 45 31 46 28 46 30 46 31 47 30 48 32 49 33 50 31 51 32 52 33 53 32 53 34 53 35 54 33 55 34 56 35 57 34 58 36 59 37 60 36 60 157 60 37 61 35 62 36 63 37 64 157 64 152 64 38 65 37 65 152 65 38 66 152 66 39 66 40 67 39 67 41 67 40 68 38 68 39 68 40 69 41 69 42 69 40 70 42 70 44 70 43 71 40 71 44 71 43 72 44 72 45 72 46 73 43 73 45 73 46 74 45 74 47 74 48 75 46 75 47 75 48 76 47 76 49 76 48 77 49 77 50 77 51 78 48 79 50 80 27 81 26 81 28 81 28 82 26 82 29 82 195 83 153 83 175 83 204 84 153 84 195 84 204 85 273 85 153 85 204 86 255 86 273 86 125 87 52 88 53 89 125 90 53 90 54 90 125 91 54 91 55 91 125 92 55 92 56 92 27 93 28 94 57 95 27 96 57 96 58 96 27 97 58 97 59 97 27 98 59 98 60 98 27 99 60 100 61 101 61 102 60 102 62 102 63 103 64 104 43 105 46 106 63 107 43 108 64 109 65 110 43 111 46 112 66 112 63 112 43 113 65 113 40 113 46 114 48 115 66 116 65 117 67 117 40 117 48 102 68 102 66 102 67 118 69 118 40 118 48 119 70 119 68 119 40 102 69 102 38 102 48 120 51 121 70 122 51 123 71 123 70 123 69 124 72 124 38 124 51 125 73 125 71 125 72 126 74 126 38 126 38 127 74 127 37 127 74 128 75 128 37 128 37 129 75 129 35 129 75 130 76 131 35 132 76 133 77 133 35 133 35 134 78 134 33 134 77 135 78 136 35 137 78 138 79 138 33 138 80 139 33 140 79 141 80 142 81 142 33 142 81 143 31 143 33 143 81 144 82 144 31 144 82 145 28 146 31 147 82 148 83 148 28 148 83 149 84 149 28 149 84 150 57 150 28 150 85 151 86 151 87 151 86 152 88 152 87 152 89 153 86 153 85 153 89 154 55 154 86 154 87 155 88 155 90 155 56 156 55 156 89 156 88 157 91 157 90 157 90 158 91 159 92 160 91 161 93 161 92 161 92 162 93 162 94 162 93 102 95 102 94 102 94 102 95 102 96 102 0 163 97 163 52 163 95 164 98 164 96 164 98 165 99 166 96 167 96 168 99 168 100 168 2 169 101 170 0 171 0 172 101 172 97 172 99 173 102 174 100 175 100 176 102 176 103 176 2 177 104 177 101 177 102 178 105 178 103 178 103 179 105 179 106 179 2 180 107 180 104 180 105 181 108 181 106 181 6 182 107 182 2 182 6 183 109 183 107 183 106 184 108 184 110 184 108 185 111 186 110 187 6 188 8 188 109 188 8 189 112 189 109 189 110 190 111 190 60 190 111 191 62 192 60 193 8 194 113 194 112 194 113 195 8 195 114 195 8 196 11 196 114 196 11 197 115 197 114 197 115 198 11 198 116 198 117 199 24 199 27 199 11 200 13 200 116 200 116 201 13 201 118 201 117 202 21 202 24 202 119 203 21 203 117 203 13 204 15 204 118 204 15 205 120 205 118 205 121 206 21 207 119 208 122 209 21 209 121 209 120 210 15 211 123 212 122 213 18 214 21 215 15 216 18 216 123 216 123 217 18 217 124 217 124 218 18 218 122 218 51 219 0 220 73 221 73 222 0 222 125 222 125 223 0 223 52 223 49 224 126 224 50 224 127 225 126 225 49 225 47 226 127 226 49 226 127 227 128 227 126 227 129 228 127 228 47 228 45 229 129 229 47 229 131 230 127 230 129 230 132 231 129 231 45 231 134 232 130 232 128 232 134 233 128 234 127 235 132 236 131 236 129 236 131 237 134 238 127 239 136 240 131 240 132 240 135 241 132 242 45 243 137 244 45 244 44 244 134 245 133 246 130 247 137 248 135 249 45 250 138 251 134 251 131 251 135 252 136 253 132 254 139 255 133 255 134 255 138 256 131 256 136 256 137 257 44 258 42 259 139 260 134 260 138 260 141 261 140 261 133 261 141 262 133 262 139 262 142 263 139 263 138 263 143 264 136 264 135 264 144 265 137 265 42 265 143 266 135 266 137 266 144 267 143 267 137 267 146 268 138 268 136 268 146 269 142 269 138 269 141 270 139 270 142 270 146 271 136 271 143 271 147 272 140 273 141 274 41 275 144 276 42 277 148 278 146 279 143 280 150 281 144 281 41 281 149 282 41 282 39 282 147 283 145 283 140 283 150 284 143 284 144 284 149 285 150 285 41 285 151 286 142 287 146 288 151 289 141 289 142 289 148 290 151 290 146 290 153 291 145 292 147 293 154 294 149 295 39 296 155 297 148 297 143 297 155 298 143 298 150 298 152 299 154 299 39 299 155 300 156 300 148 300 158 301 147 301 141 301 158 302 141 303 151 304 157 305 154 306 152 307 161 308 155 308 150 308 156 309 151 309 148 309 161 310 150 310 149 310 159 311 154 311 157 311 154 312 161 312 149 312 160 313 159 313 157 313 36 314 160 314 157 314 162 315 161 316 154 317 163 318 147 318 158 318 163 319 153 319 147 319 161 320 156 320 155 320 164 321 151 321 156 321 162 322 154 322 159 322 165 323 156 324 161 325 158 326 151 327 164 328 166 329 160 330 36 331 167 332 162 332 159 332 167 333 159 333 160 333 163 334 158 335 164 336 168 337 164 337 156 337 168 338 156 338 165 338 34 339 166 340 36 341 165 342 161 343 162 344 169 345 164 345 168 345 170 346 167 347 160 348 171 349 162 349 167 349 170 350 160 351 166 352 163 353 164 353 169 353 175 354 153 355 163 356 172 357 166 358 34 359 171 360 167 361 170 362 171 363 165 363 162 363 32 364 172 365 34 366 173 367 166 368 172 369 174 370 165 370 171 370 173 371 170 372 166 373 174 374 168 374 165 374 176 375 171 376 170 377 176 378 174 378 171 378 178 379 170 380 173 381 177 382 173 383 172 384 32 385 177 386 172 387 180 388 169 389 168 390 176 391 180 391 174 391 179 392 175 392 163 392 179 393 163 394 169 395 180 396 168 397 174 398 182 399 32 400 30 401 183 402 182 403 30 404 181 405 176 406 170 407 177 408 178 409 173 410 182 411 177 412 32 413 178 414 181 414 170 414 179 415 169 415 180 415 29 416 183 416 30 416 184 417 176 418 181 419 185 420 183 421 29 422 184 423 180 423 176 423 186 424 178 425 177 426 186 427 177 428 182 429 188 430 179 430 180 430 183 431 187 432 182 433 189 434 181 435 178 436 187 437 186 438 182 439 190 440 183 441 185 442 191 443 180 444 184 445 186 446 189 447 178 448 189 449 184 450 181 451 175 452 179 452 188 452 190 453 187 454 183 455 192 456 184 457 189 458 193 459 186 460 187 461 188 462 180 463 191 464 193 465 189 466 186 467 192 468 191 469 184 470 194 471 187 472 190 473 195 474 175 474 188 474 193 475 192 476 189 477 196 478 193 479 187 480 194 481 196 482 187 483 197 484 188 484 191 484 198 485 191 485 192 485 196 486 192 487 193 488 195 489 188 489 197 489 198 490 197 491 191 492 198 493 192 494 196 495 185 496 29 497 26 498 185 499 26 500 199 501 190 502 185 503 199 504 194 505 190 506 199 507 194 508 199 509 200 510 194 511 200 511 201 511 196 512 194 512 201 512 196 513 201 513 202 513 196 514 202 514 214 514 198 515 196 516 214 517 198 518 214 518 203 518 197 519 198 519 203 519 195 520 203 521 204 522 195 523 197 524 203 525 1 526 50 526 126 526 257 527 1 527 126 527 261 528 126 529 128 530 261 531 257 531 126 531 268 532 128 532 130 532 268 533 261 533 128 533 268 534 130 534 133 534 270 535 268 535 133 535 272 536 133 536 140 536 272 537 270 537 133 537 271 538 272 538 140 538 271 539 140 539 145 539 271 540 145 540 153 540 273 541 271 541 153 541 205 542 26 543 25 544 205 545 25 546 23 547 199 548 26 549 205 550 207 551 205 552 23 553 206 554 199 555 205 556 207 557 23 558 22 559 208 560 205 561 207 562 208 563 206 564 205 565 209 566 207 567 22 568 206 569 200 570 199 571 209 572 22 573 20 574 210 575 206 576 208 577 211 578 201 579 200 580 211 581 200 582 206 583 208 584 207 585 209 586 19 587 209 588 20 589 210 590 211 591 206 592 212 593 208 594 209 595 213 596 209 596 19 596 212 597 210 598 208 599 215 600 211 601 210 602 215 603 201 603 211 603 17 604 213 605 19 606 216 607 214 608 202 609 216 610 202 610 201 610 217 611 212 612 209 613 216 614 201 615 215 616 217 617 210 617 212 617 217 618 209 619 213 620 218 621 213 621 17 621 16 622 218 623 17 624 217 625 215 626 210 627 219 628 217 629 213 630 221 631 215 632 217 633 220 634 16 635 14 636 218 637 219 637 213 637 220 638 222 638 16 638 223 639 219 640 218 641 222 642 218 642 16 642 203 643 214 644 216 645 221 646 216 647 215 648 225 649 221 650 217 651 219 652 225 653 217 654 224 655 222 655 220 655 224 656 220 656 12 656 226 657 216 658 221 659 227 660 219 660 223 660 222 661 223 661 218 661 226 662 203 663 216 664 225 665 228 666 221 667 227 668 225 669 219 670 229 671 223 672 222 673 230 674 222 674 224 674 231 675 230 675 224 675 226 676 221 677 228 678 233 679 204 680 203 681 231 682 224 682 12 682 233 683 203 683 226 683 229 684 227 684 223 684 232 685 12 685 10 685 232 686 231 687 12 688 229 689 222 690 230 691 227 692 228 692 225 692 234 693 230 694 231 695 235 696 226 697 228 698 236 699 227 699 229 699 234 700 231 701 232 702 9 703 232 704 10 705 237 706 228 706 227 706 255 707 204 707 233 707 238 708 232 708 9 708 233 709 226 709 235 709 236 710 237 710 227 710 235 711 228 712 237 713 239 714 229 714 230 714 239 715 230 716 234 717 240 718 234 719 232 720 241 721 238 722 9 723 241 724 9 724 7 724 239 725 236 725 229 725 240 726 232 727 238 728 240 729 239 730 234 731 242 732 233 733 235 734 244 735 237 735 236 735 248 736 235 736 237 736 245 737 240 737 238 737 245 738 238 739 241 740 243 741 241 742 7 743 5 744 243 745 7 746 244 747 236 747 239 747 246 748 239 748 240 748 242 749 255 749 233 749 247 750 240 750 245 750 249 751 241 751 243 751 4 752 243 752 5 752 248 753 237 753 244 753 246 754 244 755 239 756 247 757 246 757 240 757 242 758 235 758 248 758 250 759 243 759 4 759 250 760 249 761 243 762 249 763 245 764 241 765 251 766 248 766 244 766 252 767 250 767 4 767 253 768 244 768 246 768 254 769 246 769 247 769 253 770 251 770 244 770 249 771 247 771 245 771 252 772 4 772 3 772 254 773 253 773 246 773 256 774 249 774 250 774 251 775 242 776 248 777 260 778 247 778 249 778 256 779 260 779 249 779 252 780 3 780 1 780 259 781 256 781 250 781 259 782 250 782 252 782 260 783 254 783 247 783 257 784 252 784 1 784 260 785 258 785 254 785 258 786 253 786 254 786 262 787 242 787 251 787 261 788 259 788 252 788 261 789 252 789 257 789 262 790 255 790 242 790 263 791 256 792 259 793 264 794 253 795 258 796 263 797 260 797 256 797 273 798 255 798 262 798 264 799 251 799 253 799 264 800 262 801 251 802 265 803 258 803 260 803 266 804 260 804 263 804 263 805 259 806 261 807 267 808 258 809 265 810 268 811 263 811 261 811 267 812 264 812 258 812 265 813 260 814 266 815 269 816 262 816 264 816 268 817 266 817 263 817 269 818 273 819 262 820 270 821 265 822 266 823 270 824 267 825 265 826 268 827 270 827 266 827 269 828 264 829 267 830 272 831 267 832 270 833 271 834 269 834 267 834 272 835 271 835 267 835 273 836 269 836 271 836 83 837 274 838 84 839 81 840 275 840 82 840 282 841 83 841 82 841 282 842 82 842 275 842 274 843 372 843 84 843 284 844 81 845 80 846 277 847 72 847 69 847 64 848 276 849 65 850 278 851 284 851 80 851 284 852 275 852 81 852 279 853 67 853 65 853 282 854 274 854 83 854 79 855 278 856 80 857 276 858 279 858 65 858 280 859 63 859 66 859 287 860 77 860 76 860 287 861 78 861 77 861 281 862 278 863 79 864 288 865 76 865 75 865 78 866 281 867 79 868 291 869 74 869 72 869 277 870 291 870 72 870 74 871 288 871 75 871 283 872 280 872 66 872 283 873 66 873 68 873 285 874 277 874 69 874 286 875 285 875 69 875 290 876 288 876 74 876 288 877 287 877 76 877 67 878 286 878 69 878 287 879 281 880 78 881 291 882 290 882 74 882 294 883 63 883 280 883 279 884 286 884 67 884 292 885 276 885 64 885 295 886 283 886 68 886 292 887 64 887 63 887 293 888 70 888 71 888 293 889 71 890 289 891 295 892 68 892 70 892 294 893 292 893 63 893 293 894 295 894 70 894 61 895 296 895 27 895 297 896 296 897 61 898 298 899 111 899 108 899 305 900 297 901 61 902 305 903 61 904 62 905 296 906 299 906 27 906 312 907 102 907 99 907 300 908 108 908 105 908 300 909 298 909 108 909 88 910 301 910 91 910 302 911 93 911 91 911 318 912 98 912 95 912 314 913 312 913 99 913 306 914 305 915 62 916 316 917 314 917 99 917 316 918 99 918 98 918 318 919 316 919 98 919 303 920 302 921 91 922 304 923 318 923 95 923 309 924 111 924 298 924 301 925 303 925 91 925 93 926 304 926 95 926 309 927 306 927 62 927 309 928 62 929 111 930 310 931 105 931 102 931 307 932 301 932 88 932 308 933 88 933 86 933 308 934 307 934 88 934 312 935 310 935 102 935 310 936 300 936 105 936 302 937 304 937 93 937 311 938 86 938 55 938 54 939 311 939 55 939 315 940 308 940 86 940 52 941 317 941 53 941 311 942 315 942 86 942 317 943 52 944 313 945 319 946 311 946 54 946 53 947 319 947 54 947 319 948 53 949 317 950 321 951 322 952 320 953 320 954 322 955 323 956 322 957 324 958 323 959 323 960 324 961 325 962 324 963 326 963 325 963 325 964 326 965 327 966 326 967 328 967 327 967 327 968 328 968 329 968 328 969 330 970 329 971 329 972 331 972 332 972 330 973 331 974 329 975 321 976 333 976 322 976 333 977 334 977 322 977 322 978 334 978 324 978 334 979 335 979 324 979 324 980 336 981 326 982 335 983 336 983 324 983 326 984 336 984 328 984 336 985 337 985 328 985 328 986 337 986 330 986 337 987 338 987 330 987 338 988 339 988 330 988 330 989 339 989 331 989 340 990 323 990 341 990 320 991 323 991 340 991 341 992 323 992 342 992 323 993 325 993 342 993 342 994 325 994 343 994 325 995 327 995 343 995 343 996 327 996 344 996 327 997 329 997 344 997 344 998 329 998 345 998 345 999 329 999 346 999 329 1000 332 1000 346 1000 340 1001 341 1002 333 1003 333 1004 341 1005 334 1006 341 1007 342 1007 334 1007 334 1008 342 1009 335 1010 342 1011 343 1012 335 1013 335 1014 343 1014 336 1014 336 1015 343 1016 337 1017 343 1018 344 1018 337 1018 337 1019 344 1020 338 1021 344 1022 345 1022 338 1022 338 1023 345 1023 339 1023 345 1024 346 1024 339 1024 332 1025 331 1025 339 1025 346 1026 332 1026 339 1026 347 102 348 102 349 102 350 102 348 102 347 102 351 1027 320 1027 340 1027 351 1028 352 1028 320 1028 340 1029 353 1029 351 1029 340 1030 333 1030 353 1030 320 1031 355 1031 354 1031 320 1032 356 1032 355 1032 320 1033 357 1033 356 1033 320 1034 358 1034 357 1034 320 1035 359 1035 358 1035 320 1036 360 1036 359 1036 320 1037 361 1037 360 1037 320 1038 362 1038 361 1038 320 1039 363 1039 362 1039 352 1040 363 1040 320 1040 352 1041 364 1041 363 1041 296 1042 321 1042 299 1042 297 1043 321 1043 296 1043 305 1044 321 1044 297 1044 306 1045 321 1045 305 1045 309 1046 321 1046 306 1046 298 1047 321 1047 309 1047 300 1048 321 1048 298 1048 310 1049 321 1049 300 1049 299 1050 321 1050 365 1050 312 1051 321 1051 310 1051 314 1052 321 1052 312 1052 316 1053 321 1053 314 1053 318 1054 321 1054 316 1054 396 1055 394 1056 321 1057 321 1058 395 1058 396 1058 394 1059 366 1059 321 1059 321 1060 367 1060 395 1060 366 1061 368 1061 321 1061 321 1062 369 1062 367 1062 368 1063 370 1063 321 1063 321 1064 371 1064 369 1064 370 1065 397 1065 321 1065 397 1066 372 1066 321 1066 321 1067 373 1067 371 1067 321 1068 374 1068 373 1068 318 1069 374 1069 321 1069 372 1070 274 1070 321 1070 304 1071 374 1071 318 1071 321 1072 282 1072 333 1072 274 1073 282 1073 321 1073 304 1074 375 1074 374 1074 302 1075 375 1075 304 1075 303 1076 375 1076 302 1076 282 1077 275 1077 333 1077 303 1078 376 1078 375 1078 301 1079 376 1079 303 1079 275 1080 284 1080 333 1080 301 1081 377 1081 376 1081 333 1082 284 1082 353 1082 307 1083 378 1083 301 1083 301 1084 378 1084 377 1084 308 1085 379 1085 307 1085 307 1086 379 1086 378 1086 284 1087 278 1087 353 1087 308 1088 380 1088 379 1088 315 1089 380 1089 308 1089 278 1090 281 1090 353 1090 281 1091 287 1091 353 1091 315 1092 381 1092 380 1092 311 1093 381 1094 315 1095 311 1096 384 1096 381 1096 287 1097 288 1097 353 1097 384 1098 383 1098 382 1098 290 1099 383 1099 288 1099 319 1100 383 1100 311 1100 291 1101 383 1102 290 1103 277 1104 383 1104 291 1104 317 1105 383 1105 319 1105 285 1106 383 1106 277 1106 286 1107 383 1107 285 1107 313 1108 383 1109 317 1110 279 1111 383 1111 286 1111 276 1112 383 1112 279 1112 292 1113 383 1113 276 1113 294 1114 383 1114 292 1114 280 1115 383 1115 294 1115 283 1116 383 1116 280 1116 295 1117 383 1117 283 1117 293 1118 383 1118 295 1118 288 1119 383 1119 353 1119 311 1120 383 1120 384 1120 289 1121 383 1121 293 1121 382 1122 383 1122 289 1122 352 1123 383 1123 313 1123 352 1124 313 1124 385 1124 352 1125 385 1125 386 1125 352 1126 386 1126 387 1126 352 1127 387 1127 364 1127 321 1128 320 1128 365 1128 365 1129 320 1129 392 1129 392 1130 320 1130 388 1130 388 1131 320 1131 389 1131 389 1132 320 1132 391 1132 391 1133 320 1133 393 1133 393 1134 320 1134 390 1134 390 1135 320 1135 354 1135 350 1136 353 1136 383 1136 350 1136 347 1136 353 1136 383 1137 352 1137 350 1137 350 1137 352 1137 348 1137 352 1138 351 1138 348 1138 351 1138 349 1138 348 1138 347 1139 351 1139 353 1139 349 1139 351 1139 347 1139 362 1140 109 1140 112 1140 97 1141 313 1141 52 1141 361 1142 362 1142 112 1142 113 1143 361 1143 112 1143 385 1144 97 1144 101 1144 109 1145 364 1145 107 1145 387 1146 104 1146 107 1146 358 1147 115 1147 116 1147 364 1148 387 1149 107 1150 385 1151 313 1151 97 1151 357 1152 116 1152 118 1152 357 1153 358 1153 116 1153 104 1154 386 1154 101 1154 120 1155 355 1155 118 1155 386 1156 385 1156 101 1156 356 1157 357 1157 118 1157 356 1158 118 1158 355 1158 391 1159 124 1160 122 1161 363 1162 364 1162 109 1162 387 1163 386 1163 104 1163 392 1164 121 1164 119 1164 393 1165 123 1166 124 1167 389 1168 122 1169 121 1170 389 1171 391 1171 122 1171 359 1172 114 1172 115 1172 360 1173 361 1173 113 1173 354 1174 355 1174 120 1174 360 1175 113 1176 114 1177 362 1178 363 1178 109 1178 359 1179 360 1179 114 1179 358 1180 359 1180 115 1180 117 1181 27 1181 299 1181 390 1182 120 1182 123 1182 390 1183 354 1183 120 1183 393 1184 390 1185 123 1186 365 1187 392 1188 119 1189 388 1190 389 1190 121 1190 391 1191 393 1192 124 1193 365 1194 117 1194 299 1194 365 1195 119 1196 117 1197 392 1198 388 1198 121 1198 376 1199 90 1199 92 1199 73 1200 289 1200 71 1200 90 1201 378 1201 87 1201 379 1202 87 1202 378 1202 379 1203 85 1203 87 1203 371 1204 96 1204 100 1204 380 1205 89 1205 85 1205 381 1206 56 1206 89 1206 382 1207 73 1207 125 1207 380 1208 381 1208 89 1208 382 1209 289 1209 73 1209 60 1210 394 1211 110 1212 384 1213 125 1213 56 1213 367 1214 103 1214 106 1214 396 1215 106 1215 110 1215 396 1216 395 1216 106 1216 396 1217 110 1217 394 1217 381 1218 384 1218 56 1218 369 1219 371 1219 100 1219 379 1220 380 1220 85 1220 384 1221 382 1222 125 1223 103 1224 369 1224 100 1224 375 1225 376 1225 92 1225 377 1226 378 1226 90 1226 375 1227 92 1227 94 1227 376 1228 377 1228 90 1228 374 1229 375 1229 94 1229 374 1230 94 1230 96 1230 373 1231 96 1231 371 1231 374 1232 96 1233 373 1234 397 1235 58 1236 57 1237 370 1238 59 1238 58 1238 370 1239 58 1239 397 1239 369 1240 103 1240 367 1240 367 1241 106 1241 395 1241 57 1242 84 1242 372 1242 366 1243 394 1243 60 1243 372 1244 397 1245 57 1246 368 1247 366 1247 60 1247 59 1248 368 1248 60 1248 370 1249 368 1249 59 1249</p>
        </triangles>
      </mesh>
    </geometry>
  </library_geometries>
  <library_visual_scenes>
    <visual_scene id="Scene" name="Scene">
      <node id="node0" name="node0" type="NODE">
        <matrix sid="transform">1 0 0 0 0 1 0 0 0 0 1 0 0 0 0 1</matrix>
        <instance_geometry url="#Part__Feature_012-mesh" name="node0">
          <bind_material>
            <technique_common>
              <instance_material symbol="Part__Feature_012-material" target="#Part__Feature_012-material"/>
            </technique_common>
          </bind_material>
        </instance_geometry>
      </node>
      <node id="Camera" name="Camera" type="NODE">
        <matrix sid="transform">0.6859207 -0.3240135 0.6515582 7.358891 0.7276763 0.3054208 -0.6141704 -6.925791 0 0.8953956 0.4452714 4.958309 0 0 0 1</matrix>
        <instance_camera url="#Camera-camera"/>
      </node>
      <node id="Light" name="Light" type="NODE">
        <matrix sid="transform">-0.2908646 -0.7711008 0.5663932 4.076245 0.9551712 -0.1998834 0.2183912 1.005454 -0.05518906 0.6045247 0.7946723 5.903862 0 0 0 1</matrix>
        <instance_light url="#Light-light"/>
      </node>
    </visual_scene>
  </library_visual_scenes>
  <scene>
    <instance_visual_scene url="#Scene"/>
  </scene>
</COLLADA>