<?xml version="1.0" encoding="utf-8"?>
<COLLADA xmlns="http://www.collada.org/2005/11/COLLADASchema" version="1.4.1" xmlns:xsi="http://www.w3.org/2001/XMLSchema-instance">
  <asset>
    <contributor>
      <author>Blender User</author>
      <authoring_tool>Blender 4.0.2 commit date:2023-12-05, commit time:07:41, hash:9be62e85b727</authoring_tool>
    </contributor>
    <created>2024-01-15T15:19:22</created>
    <modified>2024-01-15T15:19:22</modified>
    <unit name="meter" meter="1"/>
    <up_axis>Z_UP</up_axis>
  </asset>
  <library_cameras>
    <camera id="Camera-camera" name="Camera">
      <optics>
        <technique_common>
          <perspective>
            <xfov sid="xfov">39.59775</xfov>
            <aspect_ratio>1.777778</aspect_ratio>
            <znear sid="znear">0.1</znear>
            <zfar sid="zfar">100</zfar>
          </perspective>
        </technique_common>
      </optics>
      <extra>
        <technique profile="blender">
          <shiftx sid="shiftx" type="float">0</shiftx>
          <shifty sid="shifty" type="float">0</shifty>
          <dof_distance sid="dof_distance" type="float">10</dof_distance>
        </technique>
      </extra>
    </camera>
  </library_cameras>
  <library_lights>
    <light id="Light-light" name="Light">
      <technique_common>
        <point>
          <color sid="color">1000 1000 1000</color>
          <constant_attenuation>1</constant_attenuation>
          <linear_attenuation>0</linear_attenuation>
          <quadratic_attenuation>0</quadratic_attenuation>
        </point>
      </technique_common>
      <extra>
        <technique profile="blender">
          <type sid="type" type="int">0</type>
          <flag sid="flag" type="int">0</flag>
          <mode sid="mode" type="int">1</mode>
          <red sid="red" type="float">1</red>
          <green sid="green" type="float">1</green>
          <blue sid="blue" type="float">1</blue>
          <shadow_r sid="blender_shadow_r" type="float">0</shadow_r>
          <shadow_g sid="blender_shadow_g" type="float">0</shadow_g>
          <shadow_b sid="blender_shadow_b" type="float">0</shadow_b>
          <energy sid="blender_energy" type="float">1000</energy>
          <spotsize sid="spotsize" type="float">75</spotsize>
          <spotblend sid="spotblend" type="float">0.15</spotblend>
          <clipsta sid="clipsta" type="float">0.04999995</clipsta>
          <clipend sid="clipend" type="float">30.002</clipend>
          <bias sid="bias" type="float">1</bias>
          <radius sid="radius" type="float">0.1</radius>
          <area_shape sid="area_shape" type="int">1</area_shape>
          <area_size sid="area_size" type="float">0.1</area_size>
          <area_sizey sid="area_sizey" type="float">0.1</area_sizey>
          <area_sizez sid="area_sizez" type="float">1</area_sizez>
        </technique>
      </extra>
    </light>
  </library_lights>
  <library_effects>
    <effect id="Part__Feature003_004-effect">
      <profile_COMMON>
        <technique sid="common">
          <lambert>
            <emission>
              <color sid="emission">0 0 0 1</color>
            </emission>
            <diffuse>
              <color sid="diffuse">0 0 0 1</color>
            </diffuse>
            <index_of_refraction>
              <float sid="ior">1.45</float>
            </index_of_refraction>
          </lambert>
        </technique>
      </profile_COMMON>
    </effect>
    <effect id="Part__Feature002_005-effect">
      <profile_COMMON>
        <technique sid="common">
          <lambert>
            <emission>
              <color sid="emission">0 0 0 1</color>
            </emission>
            <diffuse>
              <color sid="diffuse">0 0 0 1</color>
            </diffuse>
            <index_of_refraction>
              <float sid="ior">1.45</float>
            </index_of_refraction>
          </lambert>
        </technique>
      </profile_COMMON>
    </effect>
    <effect id="Part__Feature001_007-effect">
      <profile_COMMON>
        <technique sid="common">
          <lambert>
            <emission>
              <color sid="emission">0 0 0 1</color>
            </emission>
            <diffuse>
              <color sid="diffuse">0 0 0 1</color>
            </diffuse>
            <index_of_refraction>
              <float sid="ior">1.45</float>
            </index_of_refraction>
          </lambert>
        </technique>
      </profile_COMMON>
    </effect>
    <effect id="Part__Feature_014-effect">
      <profile_COMMON>
        <technique sid="common">
          <lambert>
            <emission>
              <color sid="emission">0 0 0 1</color>
            </emission>
            <diffuse>
              <color sid="diffuse">1 1 1 1</color>
            </diffuse>
            <index_of_refraction>
              <float sid="ior">1.45</float>
            </index_of_refraction>
          </lambert>
        </technique>
      </profile_COMMON>
    </effect>
  </library_effects>
  <library_images/>
  <library_materials>
    <material id="Part__Feature003_004-material" name="Part__Feature003.004">
      <instance_effect url="#Part__Feature003_004-effect"/>
    </material>
    <material id="Part__Feature002_005-material" name="Part__Feature002.005">
      <instance_effect url="#Part__Feature002_005-effect"/>
    </material>
    <material id="Part__Feature001_007-material" name="Part__Feature001.007">
      <instance_effect url="#Part__Feature001_007-effect"/>
    </material>
    <material id="Part__Feature_014-material" name="Part__Feature.014">
      <instance_effect url="#Part__Feature_014-effect"/>
    </material>
  </library_materials>
  <library_geometries>
    <geometry id="Part__Feature003_004-mesh" name="Part__Feature003.004">
      <mesh>
        <source id="Part__Feature003_004-mesh-positions">
          <float_array id="Part__Feature003_004-mesh-positions-array" count="489">0.3643364 -0.329525 0.6065425 0.3642075 -0.3283615 0.6060373 0.3636571 -0.3267759 0.6065438 0.3639054 -0.3282946 0.6074924 0.3635787 -0.3293795 0.6086827 0.3629105 -0.3253119 0.6060293 0.3615609 -0.3237707 0.6060615 0.3624631 -0.3249901 0.6071127 0.3630287 -0.3271659 0.6086856 0.3626173 -0.3293998 0.6099372 0.3599215 -0.3225806 0.6060621 0.3612604 -0.329181 0.6110154 0.3621952 -0.3253475 0.6082663 0.3621923 -0.3264644 0.6093298 0.361743 -0.3278929 0.6104147 0.360859 -0.3235023 0.6074568 0.3598326 -0.3292148 0.6116352 0.3573936 -0.3216895 0.6062877 0.3605183 -0.3239614 0.6087037 0.3612102 -0.3249769 0.6091717 0.3587912 -0.3221587 0.6067805 0.3609063 -0.3269532 0.6106975 0.3560786 -0.3215181 0.6060885 0.3588923 -0.322982 0.6087204 0.3585717 -0.3292399 0.6118726 0.3599024 -0.3247746 0.6100524 0.3568294 -0.3218996 0.6076138 0.3594546 -0.3271608 0.6114127 0.3547394 -0.3215996 0.6065419 0.3589745 -0.3254905 0.6109544 0.3535282 -0.3218033 0.6062476 0.3570337 -0.3226932 0.6091506 0.3580233 -0.3238828 0.6101782 0.3521656 -0.3222807 0.6061832 0.355615 -0.3222001 0.6085017 0.3533883 -0.3222017 0.6077519 0.3509612 -0.3229725 0.6066398 0.355728 -0.3272927 0.6118847 0.356944 -0.3241036 0.6105915 0.3576713 -0.3268792 0.6117436 0.3541376 -0.3227002 0.6090431 0.3553929 -0.323354 0.6100474 0.3519273 -0.3230652 0.6083496 0.3495128 -0.3241743 0.6066582 0.3567076 -0.325129 0.6112482 0.3485222 -0.3253952 0.6065765 0.3529542 -0.3235484 0.6096853 0.3548697 -0.3242732 0.6107761 0.3502453 -0.324507 0.6086965 0.3476191 -0.3270351 0.6063156 0.3555917 -0.325779 0.611575 0.3528736 -0.3245114 0.6104875 0.3512908 -0.3244912 0.609627 0.3490688 -0.3257136 0.6084519 0.3481578 -0.326808 0.6078508 0.3470911 -0.3291416 0.6062799 0.3538092 -0.3256814 0.6113844 0.3519259 -0.3253843 0.6106791 0.3501236 -0.3258532 0.6098067 0.3473788 -0.3289692 0.6075349 0.3538263 -0.3276854 0.6118753 0.3486529 -0.3275889 0.6092689 0.3500231 -0.3269023 0.6103072 0.3512888 -0.3267641 0.6110149 0.3524969 -0.3268545 0.6114736 0.3479616 -0.3294305 0.608855 0.3490198 -0.3290069 0.6101173 0.3499028 -0.3290333 0.610828 0.3515783 -0.3281852 0.6115016 0.3508516 -0.3295623 0.6113664 0.3522168 -0.3294975 0.611792 0.3470734 -0.4328293 0.606117 0.3474069 -0.4327507 0.607697 0.3483623 -0.4328947 0.6094055 0.3493783 -0.4325437 0.6104733 0.350793 -0.4327216 0.6113406 0.3524469 -0.4326747 0.6118214 0.3476893 -0.4351289 0.6063116 0.3485224 -0.4366714 0.6060334 0.3479379 -0.4348784 0.6076557 0.3483139 -0.4342554 0.6088438 0.3494667 -0.4378404 0.6060945 0.3486899 -0.4364396 0.6074598 0.3495953 -0.437638 0.6073469 0.3508486 -0.4389574 0.6065758 0.3491049 -0.4360037 0.6087738 0.3493649 -0.4345639 0.6099734 0.3527031 -0.4399215 0.6065925 0.3502367 -0.4375233 0.6086294 0.3507406 -0.4343224 0.6110602 0.3514029 -0.4385296 0.6085196 0.3501071 -0.436305 0.6096825 0.3545312 -0.4404301 0.6059463 0.3523119 -0.4394388 0.6076632 0.3510707 -0.4361028 0.6105222 0.3516551 -0.4377135 0.609714 0.3547318 -0.4401792 0.6074302 0.3521843 -0.4340913 0.61164 0.3535045 -0.4394695 0.6085446 0.3563179 -0.440403 0.6067842 0.3580371 -0.4401564 0.6064709 0.3530538 -0.4378228 0.6103279 0.352579 -0.4358723 0.6112619 0.3600209 -0.4393508 0.6060996 0.3559102 -0.4397116 0.6086164 0.3545503 -0.4391903 0.6093111 0.3577517 -0.4397782 0.6079557 0.3540983 -0.4343214 0.6118837 0.3545836 -0.4378131 0.6106708 0.3539748 -0.4367908 0.6111943 0.3558642 -0.438826 0.6098827 0.3575435 -0.4391281 0.6092295 0.359718 -0.4392001 0.6075046 0.3615276 -0.4382517 0.6061598 0.3542798 -0.4358026 0.6116154 0.3589869 -0.4390129 0.608617 0.3625465 -0.4371501 0.6061535 0.3610035 -0.438203 0.607783 0.3555967 -0.4368788 0.6112883 0.362475 -0.43694 0.607261 0.3565771 -0.4378054 0.6107004 0.3634119 -0.435787 0.606384 0.3596838 -0.4383336 0.6090933 0.3581084 -0.4375452 0.6106203 0.3618237 -0.4368823 0.6085957 0.363966 -0.4343838 0.6065636 0.3595247 -0.4371464 0.6103134 0.3570998 -0.4364468 0.6113998 0.3607645 -0.436847 0.6097505 0.3643451 -0.4328258 0.6061705 0.3561782 -0.4356201 0.6117271 0.3632273 -0.4348975 0.6082392 0.361859 -0.4352226 0.6098887 0.3641422 -0.4327099 0.6072631 0.3587325 -0.4353764 0.6114765 0.3636308 -0.4327254 0.6085615 0.3601844 -0.435681 0.6108126 0.3575608 -0.4343166 0.6118698 0.3627678 -0.4338831 0.6094908 0.3603038 -0.4344166 0.6112012 0.3624823 -0.4324954 0.6100896 0.3612832 -0.4328532 0.6109965 0.359758 -0.4330227 0.611635 0.358487 -0.4328709 0.6118769 0.3487932 -0.4371275 0.5991893 0.3513932 -0.4394226 0.5991893 0.3471781 -0.4338483 0.5991893 0.3549114 -0.4405093 0.5991893 0.3574966 -0.4403181 0.5991893 0.3601536 -0.4393522 0.5991893 0.3624278 -0.4373485 0.5991893 0.363786 -0.4351279 0.5991893 0.3643704 -0.4327206 0.5991893 0.347062 -0.3291151 0.5991893 0.3479847 -0.3260717 0.5991893 0.3500549 -0.3235633 0.5991893 0.35207 -0.3222872 0.5991893 0.3643729 -0.3292594 0.5991893 0.3545584 -0.3215441 0.5991893 0.3575887 -0.3216714 0.5991893 0.3638058 -0.3269517 0.5991893 0.35982 -0.3225275 0.5991893 0.3620868 -0.3241893 0.5991893</float_array>
          <technique_common>
            <accessor source="#Part__Feature003_004-mesh-positions-array" count="163" stride="3">
              <param name="X" type="float"/>
              <param name="Y" type="float"/>
              <param name="Z" type="float"/>
            </accessor>
          </technique_common>
        </source>
        <source id="Part__Feature003_004-mesh-normals">
          <float_array id="Part__Feature003_004-mesh-normals-array" count="1212">0.9630517 0.1896693 0.1911991 0.9453095 0.2694099 0.1838701 0.9415308 0.0764445 0.3281403 0.8817923 0.3450399 0.3215431 0.8429585 0.4996989 0.1993042 0.8429498 0.4997205 0.1992866 0.8429563 0.4997044 0.1992993 0.8731011 0.2163487 0.4369069 0.8305762 0.4515687 0.3259278 0.7485204 0.6530404 0.1151328 0.8258872 0.4551854 0.3327409 0.6886149 0.6931213 0.2130551 0.7773794 0.192384 0.5988903 0.7349029 0.2234318 0.6403094 0.7505947 0.4546321 0.4794969 0.6753213 0.6455014 0.3567481 0.6297889 0.1222 0.767094 0.6298074 0.1219433 0.7671198 0.629803 0.1221402 0.7670919 0.5818528 0.8014232 0.138449 0.7176333 0.2637857 0.6445306 0.6340389 0.6457811 0.4253956 0.6532174 0.6350644 0.4123109 0.6793996 0.5050482 0.5322993 0.4711404 0.8477984 0.2434437 0.6211366 0.3406904 0.7057758 0.5079838 0.2002928 0.8377562 0.4724921 0.7773128 0.4153746 0.4349932 0.8368108 0.3324587 0.5661408 0.4474145 0.6923184 0.5440385 0.4587331 0.7025568 0.2290939 0.9416148 0.2467343 0.5019347 0.6199579 0.6030869 0.4113985 0.1925177 0.8908918 0.4167343 0.6816563 0.6013962 0.3887436 0.1699385 0.9055382 0.3889828 0.1699937 0.9054251 0.3888555 0.1699934 0.9054798 0.0974667 0.9757379 0.1960502 0.2721601 0.8908052 0.3638615 0.4334212 0.4336394 0.7900019 0.2337064 0.8761068 0.421685 0.2336346 0.8761251 0.4216869 0.2337737 0.8760962 0.4216698 0.01988786 0.9721902 0.233347 0.3649651 0.6789451 0.6370511 0.3744551 0.3437971 0.8611544 0.3743994 0.3440468 0.8610789 0.374467 0.3437727 0.861159 0.1054551 0.8891896 0.4452204 -0.01682883 0.953846 0.2998244 0.2022835 0.142186 0.9689502 0.2580544 0.7454875 0.6145374 0.3159515 0.5576038 0.7676281 -0.2157359 0.9486662 0.23128 -0.1144284 0.9342184 0.3378494 -0.1144035 0.9342192 0.3378554 -0.1141749 0.9342485 0.337852 0.1817165 0.1225231 0.975688 0.1816835 0.1223212 0.9757196 0.181709 0.1223872 0.9757065 -0.3320555 0.9189878 0.2126049 0.2212123 0.3166285 0.9223945 -0.1449033 0.8919354 0.4283157 0.00460875 0.8010319 0.5986042 -0.4012024 0.8757295 0.268579 0.1230594 0.7053875 0.698058 0.2095754 0.5228505 0.8262601 -0.05502635 0.8038952 0.5922201 0.189477 0.4985864 0.8458783 0.1894088 0.4986451 0.8458591 0.1894266 0.4986317 0.845863 0.09700882 0.7082332 0.6992819 -0.4030539 0.8728884 0.2749789 -0.402972 0.8728987 0.2750666 -0.4029793 0.8728985 0.2750561 0.1758851 0.3568158 0.9174678 0.1760262 0.3567295 0.9174743 0.175928 0.3567984 0.9174662 0.0560823 0.07581341 0.9955437 -0.2887659 0.8248927 0.4859697 -0.157303 0.7261492 0.6693006 0.09141099 0.3174999 0.9438421 -0.2950382 0.8033033 0.5173552 0.0197826 0.6137034 0.7892888 0.01976865 0.6137096 0.7892843 0.01980078 0.613696 0.7892941 0.03148734 0.5339069 0.8449568 -0.5636552 0.7439699 0.3588895 -0.5993368 0.7274336 0.3341197 -0.1611409 0.667758 0.7267275 -0.01117408 0.4644336 0.8855375 -0.1842166 0.6381269 0.7475684 -0.4183126 0.7025343 0.5757259 -0.7045563 0.6152682 0.3536178 -0.4847267 0.6937055 0.5327408 -0.7467535 0.5847234 0.3169507 0.02793586 0.2028083 0.9788199 -0.07159173 0.4404927 0.8948972 -0.8661404 0.438946 0.239013 -0.371518 0.6123817 0.6978274 -0.8073941 0.4961901 0.3192338 -0.8073635 0.4962799 0.3191716 -0.8074054 0.4961416 0.3192805 -0.1821234 0.5023372 0.8452743 -0.3850916 0.5759661 0.7210878 -0.3850036 0.5761284 0.7210051 -0.3850761 0.5760165 0.7210558 -0.5564067 0.5580392 0.6156329 -0.2478855 0.456721 0.8543762 -0.6479365 0.5186238 0.55786 -0.4789075 0.505129 0.717978 -0.04530179 0.195894 0.9795782 -0.04532134 0.1958878 0.9795786 -0.04560256 0.1958882 0.9795653 -0.9157944 0.2893667 0.2785454 -0.9537516 0.235923 0.186275 -0.6985883 0.4103305 0.5861769 -0.7841578 0.3859451 0.4859456 -0.7841291 0.3859674 0.4859742 -0.784105 0.3859822 0.4860011 -0.09043812 0.2362239 0.967481 -0.8642312 0.2474912 0.4380096 -0.4816695 0.4145103 0.7721241 -0.4785957 0.410093 0.7763826 -0.4785963 0.4100729 0.7763929 -0.4785979 0.4101272 0.7763632 -0.2732161 0.3730448 0.8866739 -0.8614799 0.2206196 0.4573612 -0.6717591 0.3703815 0.6415272 -0.3080743 0.3568974 0.8818812 -0.6614531 0.2515699 0.7065356 -0.1441172 0.2342749 0.9614289 -0.7821308 0.1582374 0.6026877 -0.4937928 0.2326663 0.8378754 -0.3279765 0.2456575 0.9121864 -0.6075321 0.2207735 0.7629966 -0.4527472 0.2050284 0.8677462 -0.1955071 0.155344 0.9683209 -0.4290418 0.1387995 0.892557 -0.1894038 0.1234247 0.9741113 -0.2998471 0.06474518 0.9517878 -0.9784417 -2.78596e-4 0.2065233 -0.9783718 7.32913e-5 0.2068546 -0.9783717 6.20563e-5 0.2068549 -0.9747038 -1.8443e-4 0.2235006 -0.9147766 3.83136e-4 0.4039602 -0.8728296 -7.84435e-4 0.4880245 -0.7663916 4.49058e-4 0.6423735 -0.7244555 -1.37533e-4 0.6893216 -0.6272791 5.15727e-4 0.7787945 -0.6272791 5.09415e-4 0.7787944 -0.6272791 5.08912e-4 0.7787944 -0.5226594 -2.71951e-4 0.8525416 -0.4935004 6.28272e-5 0.8697456 -0.2975907 -6.98179e-5 0.9546936 -0.2791118 -3.49457e-4 0.9602586 -0.03767126 -1.75307e-5 0.9992903 -0.05193412 1.68191e-4 0.9986505 0.9831737 -5.75241e-4 0.1826724 0.9426755 5.55831e-4 0.3337103 0.930442 4.03613e-5 0.3664392 0.7993667 -3.00251e-4 0.6008434 0.7937397 -1.4075e-4 0.6082577 0.6221559 3.41981e-4 0.7828933 0.6032111 -1.30698e-5 0.7975817 0.3982093 -7.98938e-5 0.9172947 0.3861773 -2.79114e-4 0.9224245 0.1849967 -1.34718e-4 0.9827392 0.1872417 -1.51737e-4 0.9823139 0.1872438 -1.2308e-4 0.9823135 0.187244 -1.11872e-4 0.9823135 -0.9483358 -0.2360764 0.2119604 -0.9455536 -0.2402123 0.2196056 -0.8668473 -0.1636095 0.4709647 -0.8870028 -0.2291602 0.4008888 -0.8515576 -0.4923785 0.1800363 -0.8618296 -0.4455148 0.2424178 -0.7700245 -0.6126475 0.178116 -0.7748247 -0.6032354 0.1890872 -0.804365 -0.3821166 0.4549549 -0.8052442 -0.4380494 0.3996182 -0.6560154 -0.7315741 0.1855888 -0.7429219 -0.2326655 0.6276414 -0.7073791 -0.5732493 0.4135217 -0.7132685 -0.5700647 0.4077677 -0.7309676 -0.3540811 0.5833635 -0.6852191 -0.1706934 0.7080527 -0.5874453 -0.1906204 0.7864935 -0.5874645 -0.1905688 0.7864918 -0.5874279 -0.1907274 0.7864805 -0.5808783 -0.7443297 0.329475 -0.5899537 -0.7228748 0.3597313 -0.679673 -0.3931707 0.6192427 -0.4510694 -0.8637591 0.2246261 -0.6499637 -0.535394 0.539352 -0.5300318 -0.1294617 0.838037 -0.566998 -0.3650261 0.7384236 -0.501964 -0.8033863 0.3203164 -0.5019619 -0.803388 0.3203157 -0.502054 -0.8033246 0.3203302 -0.5477774 -0.3336774 0.7672023 -0.5477924 -0.3336651 0.767197 -0.5477618 -0.3336889 0.7672085 -0.5417608 -0.5819266 0.606512 -0.2003841 -0.9612045 0.1895579 -0.2767562 -0.07167947 0.9582631 -0.2768619 -0.07157033 0.9582407 -0.2767943 -0.0716508 0.9582543 -0.2579869 -0.9125844 0.3172262 -0.5128599 -0.6546089 0.5553937 -0.5128601 -0.6546082 0.5553942 -0.512852 -0.6546274 0.555379 -0.3475502 -0.1507351 0.9254663 -0.4931836 -0.5261781 0.692753 -0.4931126 -0.5262032 0.6927844 -0.4932458 -0.5261693 0.6927152 -0.06748551 -0.9822721 0.1748922 -0.0674932 -0.9822704 0.1748992 -0.06750881 -0.9822665 0.1749148 -0.2458807 -0.9172576 0.313339 -0.3657587 -0.8054255 0.4663802 -0.3655474 -0.8054674 0.4664732 -0.3656593 -0.8054561 0.4664052 -0.3387761 -0.741961 0.5785541 -0.3199104 -0.7349755 0.5978865 -0.3768407 -0.5210683 0.7658193 -0.3742153 -0.3311173 0.8662126 -0.09806317 -0.8846555 0.4558161 -0.09802049 -0.8846283 0.455878 -0.09790784 -0.8845972 0.4559626 -0.2563503 -0.7415571 0.619982 -0.3226987 -0.2644452 0.9088094 -0.1067644 -0.884257 0.4546326 0.01289576 -0.9345782 0.355524 -0.3290519 -0.4717872 0.818011 0.1855368 -0.9431067 0.2759094 -0.137487 -0.1006269 0.9853789 0.0996012 -0.9234366 0.3706004 -0.02181994 -0.8196452 0.572456 -0.2673888 -0.4683378 0.8421183 -0.1275621 -0.6777992 0.7240968 -0.1272944 -0.6780108 0.7239459 -0.1274262 -0.6779432 0.7239859 0.3308584 -0.8973116 0.2921727 0.1363549 -0.8731709 0.467953 0.3990345 -0.8986096 0.1824068 -0.1480659 -0.7170693 0.6810934 0.0763545 -0.8154664 0.5737462 0.07631611 -0.8154664 0.5737514 0.07618403 -0.8154799 0.5737495 -0.1819724 -0.5319335 0.8270024 -0.1877253 -0.2436261 0.951528 -0.1780589 -0.3387584 0.9238712 0.3390357 -0.8656138 0.3684663 0.5709576 -0.7941328 0.208232 -0.1468256 -0.1937034 0.9700111 0.2674167 -0.8398772 0.4723291 0.5708989 -0.7941897 0.2081755 -0.0769689 -0.4903776 0.8681047 -0.009305655 -0.6212988 0.7835185 0.679907 -0.6928014 0.2403182 0.4600713 -0.7752525 0.4328027 0.723532 -0.6681569 0.1734008 0.4959681 -0.7577756 0.4240189 0.3123403 -0.7389238 0.597022 0.1549411 -0.6830573 0.713741 0.1549305 -0.6830587 0.7137418 0.154909 -0.6830611 0.7137442 -0.01044517 -0.5437624 0.8391743 -0.01064461 -0.5436971 0.8392141 -0.01050633 -0.5437551 0.8391782 -0.07394558 -0.3720455 0.9252644 -0.07378351 -0.3720557 0.9252732 -0.07387363 -0.3720564 0.9252658 0.1534287 -0.6810334 0.7159981 0.153338 -0.6810882 0.7159653 0.1533687 -0.6810721 0.715974 0.8215494 -0.5480951 0.1569983 0.6780133 -0.6416542 0.3585776 0.2976042 -0.6875541 0.6623453 0.2975368 -0.6875612 0.6623681 0.2974042 -0.6875966 0.6623908 0.5625171 -0.6576508 0.501069 0.07252788 -0.4784711 0.8751029 -0.02507162 -0.3187575 0.9475047 0.5568658 -0.6392836 0.5302991 0.3315748 -0.6541698 0.6797942 -0.04027253 -0.1828742 0.9823111 0.4446599 -0.6122964 0.653736 0.128777 -0.4926404 0.8606521 0.02814072 -0.3407067 0.9397485 0.8391435 -0.4531903 0.3007603 0.8828484 -0.3833746 0.2712983 0.8828434 -0.3833851 0.2712995 0.8828769 -0.3833076 0.2713001 0.7802378 -0.4796438 0.401461 0.6385201 -0.4814055 0.6004506 0.004157602 -0.113154 0.9935688 0.9626799 -0.1841652 0.1983195 0.2299934 -0.4139096 0.8807848 0.7358685 -0.4258071 0.5264846 0.9036155 -0.2426419 0.3529928 0.9157195 -0.2200035 0.3362386 0.3047631 -0.4271852 0.8512535 0.7544226 -0.3463013 0.5576038 0.4566988 -0.4641193 0.7589596 0.1270254 -0.2400838 0.9624056 0.127097 -0.2399746 0.9624233 0.1270072 -0.2401036 0.962403 0.3015394 -0.4239301 0.8540243 0.5241945 -0.4160113 0.7430712 0.5242564 -0.4161436 0.7429535 0.5242397 -0.4160783 0.7430018 0.8389674 -0.2290765 0.4936171 0.1103074 -0.2368159 0.9652723 0.1102885 -0.2368741 0.9652602 0.1103002 -0.2368428 0.9652666 0.3422325 -0.3054453 0.8885833 0.522239 -0.2952325 0.8000651 0.6255556 -0.2004851 0.7539802 0.5504671 -0.2400906 0.7995891 0.7878821 -0.1000009 0.6076527 0.787882 -0.1000003 0.6076529 0.7878887 -0.09987366 0.6076652 0.6280553 -0.1957336 0.7531501 0.2775825 -0.1847558 0.942769 0.2775983 -0.1847744 0.9427607 0.2776142 -0.1847904 0.9427529 0.1912138 -0.1486394 0.9702287 0.3946664 -0.128645 0.9097742 0.3946842 -0.1286704 0.9097629 0.3948127 -0.1287828 0.9096912 0.1724375 -0.115215 0.9782591 0 0 -1 -8.35841e-6 0 -1 -6.03555e-5 0 -1 -8.21905e-6 0 -1 -6.06119e-6 0 -1 -3.3329e-4 -3.90353e-5 -1 -3.33401e-4 -3.80771e-5 -1 -3.35515e-4 -5.98317e-6 -1 3.29946e-5 0 -1 0.004034578 -0.007440865 0.9999642 -0.002777636 -0.01033055 0.9999428 0.001559734 3.95707e-5 0.9999988 5.59961e-4 8.03203e-5 0.9999999 0.9999935 -2.4499e-5 0.00361967 0.9999877 6.68107e-5 0.004967093 0.9716509 -0.2364202 1.41611e-4 0.9717842 -0.235872 -3.51301e-5 0.9293827 -0.3688313 0.01454013 0.8441585 -0.5360931 8.89464e-4 0.8530682 -0.5217882 -0.00343579 0.7341502 -0.6789528 0.006833136 0.6610291 -0.7502669 -0.01184618 0.588969 -0.8080742 0.01147437 0.3774796 -0.9259881 0.007442593 0.3416372 -0.9398211 -0.004501461 0.14398 -0.9895164 0.01127612 0.07377231 -0.9972751 2.83821e-4 0.009398996 -0.9998809 0.01224863 -0.2733571 -0.961772 -0.01645195 -0.2951216 -0.9554445 -0.005400657 -0.461318 -0.8869657 0.02185344 -0.6291621 -0.7772699 0.002549529 -0.6617448 -0.749619 -0.0128569 -0.7780997 -0.6280438 0.01104623 -0.8801332 -0.474716 -0.003197491 -0.8969802 -0.4418147 -0.01504743 -0.9661746 -0.2568454 0.02317667 -0.9998878 -0.001107573 -0.01494348 -0.9999916 1.63408e-4 0.004098534 -0.9699962 0.2430716 0.004881799 -0.9569283 0.2901563 -0.009880244 -0.8771155 0.4798685 0.0198695 -0.7764882 0.6301308 -0.001210093 -0.7712777 0.6364869 -0.003910541 -0.6383486 0.7695679 0.01662868 -0.5350173 0.844839 -0.001899719 -0.4963517 0.8681009 0.005985438 -0.3308584 0.9436734 0.003651261 -0.2861249 0.9581698 -0.006572961 -0.1686046 0.9856157 0.01158809 -0.0576629 0.9982961 0.008948624 0.04200291 0.9990327 -0.01301717 0.1283364 0.9917122 0.006059706 0.3147148 0.9491218 0.01106327 0.3521238 0.9359436 0.004297256 0.3581842 0.933649 0.001941978 0.591529 0.8062802 -0.002421975 0.5915343 0.8062761 -0.002488911 0.5915274 0.8062813 -0.002413153 0.5874435 0.8092536 -0.004339993 0.7523888 0.6584877 0.01746761 0.8489274 0.5282815 -0.01553195 0.8896603 0.456569 0.007034003 0.8896628 0.4565646 0.00700879 0.8896657 0.4565592 0.006986439 0.9457454 0.3247102 0.01136451 0.9710832 0.2386128 -0.00784558 0.993409 0.1142676 0.009033918 0.99341 0.1142624 0.008986473 0.9934132 0.1142407 0.008914351</float_array>
          <technique_common>
            <accessor source="#Part__Feature003_004-mesh-normals-array" count="404" stride="3">
              <param name="X" type="float"/>
              <param name="Y" type="float"/>
              <param name="Z" type="float"/>
            </accessor>
          </technique_common>
        </source>
        <vertices id="Part__Feature003_004-mesh-vertices">
          <input semantic="POSITION" source="#Part__Feature003_004-mesh-positions"/>
        </vertices>
        <triangles material="Part__Feature003_004-material" count="322">
          <input semantic="VERTEX" source="#Part__Feature003_004-mesh-vertices" offset="0"/>
          <input semantic="NORMAL" source="#Part__Feature003_004-mesh-normals" offset="1"/>
          <p>3 0 0 0 1 0 2 1 3 1 1 1 3 2 4 2 0 2 8 3 3 3 2 3 7 4 2 5 5 6 8 7 4 7 3 7 7 8 8 8 2 8 6 9 7 9 5 9 12 10 8 10 7 10 15 11 7 11 6 11 8 12 9 12 4 12 14 13 9 13 8 13 13 14 8 14 12 14 15 15 12 15 7 15 14 16 11 17 9 18 10 19 15 19 6 19 13 20 14 20 8 20 19 21 12 21 15 21 18 22 19 22 15 22 19 23 13 23 12 23 20 24 15 24 10 24 21 25 14 25 13 25 21 26 11 26 14 26 23 27 18 27 15 27 23 28 15 28 20 28 21 29 13 29 19 29 25 30 21 30 19 30 26 31 20 31 17 31 25 32 19 32 18 32 27 33 11 33 21 33 23 34 25 34 18 34 16 35 11 36 27 37 22 38 26 38 17 38 26 39 23 39 20 39 29 40 21 40 25 40 31 41 23 42 26 43 28 44 26 44 22 44 32 45 25 45 23 45 27 46 21 47 29 48 34 49 31 49 26 49 34 50 26 50 28 50 39 51 16 51 27 51 32 52 23 52 31 52 32 53 29 53 25 53 35 54 28 54 30 54 35 55 34 56 28 57 39 58 24 59 16 60 35 61 30 61 33 61 39 62 27 62 29 62 40 63 34 63 35 63 41 64 31 64 34 64 36 65 35 65 33 65 38 66 32 66 31 66 38 67 29 67 32 67 40 68 41 68 34 68 44 69 29 70 38 71 41 72 38 72 31 72 42 73 35 74 36 75 44 76 39 77 29 78 37 79 24 79 39 79 42 80 40 80 35 80 46 81 41 81 40 81 50 82 39 82 44 82 46 83 40 83 42 83 47 84 38 85 41 86 47 87 44 87 38 87 48 88 42 88 36 88 43 89 48 89 36 89 47 90 41 90 46 90 50 91 44 91 47 91 51 92 47 92 46 92 52 93 46 93 42 93 53 94 48 94 43 94 48 95 52 95 42 95 53 96 43 96 45 96 37 97 39 97 50 97 50 98 47 98 56 98 54 99 45 99 49 99 52 100 51 100 46 100 54 101 53 102 45 103 56 104 47 104 51 104 57 105 51 106 52 107 58 108 52 108 48 108 57 109 56 109 51 109 58 110 48 110 53 110 58 111 57 111 52 111 60 112 37 113 50 114 59 115 54 115 49 115 59 116 49 116 55 116 61 117 58 117 53 117 61 118 53 119 54 120 60 121 50 121 56 121 61 122 54 122 59 122 62 123 57 123 58 123 63 124 57 125 62 126 64 127 56 127 57 127 65 128 61 128 59 128 62 129 58 129 61 129 64 130 57 130 63 130 66 131 62 131 61 131 60 132 56 132 64 132 66 133 61 133 65 133 67 134 63 134 62 134 68 135 64 135 63 135 67 136 62 136 66 136 68 137 63 137 67 137 68 138 60 138 64 138 69 139 68 139 67 139 70 140 60 140 68 140 70 141 68 141 69 141 59 142 71 143 72 144 59 145 55 145 71 145 65 146 59 146 72 146 65 147 72 147 73 147 66 148 65 148 73 148 66 149 73 149 74 149 67 150 66 151 74 152 67 153 74 153 75 153 69 154 67 154 75 154 70 155 69 155 75 155 70 156 75 156 76 156 60 157 76 157 107 157 60 158 70 158 76 158 133 159 129 159 0 159 133 160 0 160 4 160 135 161 133 161 4 161 140 162 135 162 4 162 140 163 4 163 9 163 140 164 9 164 11 164 141 165 140 165 11 165 141 166 11 166 16 166 142 167 141 167 16 167 142 168 16 168 24 168 143 169 142 170 24 171 77 172 72 172 71 172 79 173 72 173 77 173 80 174 73 174 72 174 80 175 72 175 79 175 82 176 77 176 78 176 82 177 79 177 77 177 83 178 78 178 81 178 83 179 82 179 78 179 85 180 80 180 79 180 82 181 85 181 79 181 84 182 83 182 81 182 86 183 73 183 80 183 83 184 85 184 82 184 88 185 85 185 83 185 86 186 80 186 85 186 86 187 74 187 73 187 89 188 74 189 86 190 90 191 83 191 84 191 90 192 88 192 83 192 91 193 86 193 85 193 93 194 84 194 87 194 91 195 85 195 88 195 75 196 74 196 89 196 94 197 86 197 91 197 93 198 90 199 84 200 94 201 89 202 86 203 95 204 91 204 88 204 96 205 87 205 92 205 97 206 76 207 75 208 98 209 93 209 87 209 90 210 95 211 88 212 97 213 75 213 89 213 94 214 91 215 95 216 99 217 96 218 92 219 98 220 87 220 96 220 98 221 90 222 93 223 98 224 95 224 90 224 101 225 95 225 98 225 101 226 94 226 95 226 102 227 89 227 94 227 105 228 98 229 96 230 105 231 101 231 98 231 97 232 89 232 102 232 104 233 105 233 96 233 104 234 96 234 99 234 102 235 94 235 101 235 106 236 99 236 100 236 107 237 76 237 97 237 106 238 104 238 99 238 110 239 105 239 104 239 109 240 102 240 101 240 110 241 101 242 105 243 112 244 106 244 100 244 111 245 104 245 106 245 112 246 100 246 103 246 108 247 101 247 110 247 111 248 110 249 104 250 108 251 109 251 101 251 114 252 97 252 102 252 114 253 102 253 109 253 115 254 106 254 112 254 113 255 112 255 103 255 107 256 97 256 114 256 115 257 111 257 106 257 117 258 112 258 113 258 118 259 109 259 108 259 120 260 108 260 110 260 119 261 117 261 113 261 122 262 115 262 112 262 116 263 119 263 113 263 117 264 122 264 112 264 122 265 111 265 115 265 123 266 110 267 111 268 120 269 118 270 108 271 118 272 114 273 109 274 123 275 120 276 110 277 119 278 116 278 121 278 124 279 117 279 119 279 122 280 123 281 111 282 124 283 122 283 117 283 127 284 118 284 120 284 130 285 114 285 118 285 128 286 122 286 124 286 126 287 123 287 122 287 130 288 107 288 114 288 128 289 126 289 122 289 123 290 127 290 120 290 127 291 130 291 118 291 131 292 119 292 121 292 125 293 131 294 121 295 131 296 124 296 119 296 132 297 128 297 124 297 137 298 107 298 130 298 133 299 125 299 129 299 134 300 127 300 123 300 132 301 124 301 131 301 135 302 125 302 133 302 135 303 131 303 125 303 136 304 123 304 126 304 138 305 132 305 131 305 136 306 126 306 128 306 137 307 130 308 127 309 134 310 123 310 136 310 136 311 128 312 132 313 138 314 131 314 135 314 137 315 127 316 134 317 139 318 134 318 136 318 139 319 136 319 132 319 141 320 132 320 138 320 141 321 139 321 132 321 140 322 138 323 135 324 140 325 141 325 138 325 142 326 134 327 139 328 142 329 137 329 134 329 142 330 139 331 141 332 143 333 137 333 142 333 144 334 146 334 145 334 145 335 148 335 147 335 148 336 151 336 149 336 149 334 151 334 150 334 146 334 151 334 145 334 145 334 151 334 148 334 146 334 152 334 151 334 154 334 155 334 153 334 155 334 156 334 153 334 156 334 158 334 153 334 153 337 157 337 146 337 146 334 157 334 152 334 158 338 162 338 153 338 153 334 162 334 157 334 157 339 162 340 160 341 159 342 162 342 158 342 161 334 162 334 159 334 143 343 107 343 137 343 24 344 37 344 60 344 24 345 107 345 143 345 24 346 60 346 107 346 152 347 157 347 129 347 157 348 0 348 129 348 151 349 129 349 125 349 151 350 152 350 129 350 151 351 125 351 121 351 150 352 121 352 116 352 150 353 151 353 121 353 150 354 116 354 113 354 149 355 150 355 113 355 149 356 113 356 103 356 149 357 103 357 100 357 148 358 149 358 100 358 148 359 100 359 99 359 147 360 148 360 99 360 147 361 99 361 92 361 145 362 92 362 87 362 145 363 147 363 92 363 145 364 87 364 84 364 145 365 84 365 81 365 144 366 145 366 81 366 144 367 81 367 78 367 144 368 78 368 77 368 146 369 144 369 77 369 146 370 77 370 71 370 71 371 153 371 146 371 71 372 55 372 153 372 153 373 55 373 49 373 154 374 153 374 49 374 154 375 49 375 45 375 154 376 45 376 43 376 155 377 154 377 43 377 155 378 43 378 36 378 156 379 155 379 36 379 156 380 36 380 33 380 156 381 33 381 30 381 158 382 156 382 30 382 158 383 30 383 28 383 158 384 28 384 22 384 159 385 158 385 22 385 159 386 22 386 17 386 159 387 17 387 20 387 159 388 20 388 10 388 161 389 159 389 10 389 162 390 161 391 10 392 162 393 10 393 6 393 162 394 6 394 5 394 160 395 162 395 5 395 160 396 5 397 2 398 160 399 2 399 1 399 157 400 160 400 1 400 157 401 1 402 0 403</p>
        </triangles>
      </mesh>
    </geometry>
    <geometry id="Part__Feature002_005-mesh" name="Part__Feature002.005">
      <mesh>
        <source id="Part__Feature002_005-mesh-positions">
          <float_array id="Part__Feature002_005-mesh-positions-array" count="348">0.3643772 -0.4326331 0.5991892 0.3641811 -0.4338543 0.5991893 0.3644142 -0.4313092 0.5991893 0.3637565 -0.4351251 0.5991892 0.3633868 -0.4359077 0.5991892 0.3629491 -0.4366361 0.5991892 0.3624436 -0.4373185 0.5991892 0.36157 -0.4382524 0.5991893 0.3605508 -0.4390355 0.5991892 0.359817 -0.4394754 0.5991893 0.3585326 -0.4400436 0.5991892 0.3665886 -0.4351089 0.5610894 0.3574118 -0.4403367 0.5991892 0.3670259 -0.4329175 0.5610896 0.3565658 -0.4404621 0.5991892 0.3557125 -0.4405041 0.5991893 0.3548588 -0.4404622 0.5991892 0.3668603 -0.4340285 0.5610893 0.3540131 -0.4403367 0.5991892 0.3528243 -0.4400219 0.5991893 0.367081 -0.4318228 0.5610893 0.3516079 -0.4394754 0.5991892 0.3508751 -0.439036 0.5991892 0.3662104 -0.4361634 0.5610893 0.3501883 -0.4385264 0.5991892 0.3657318 -0.437172 0.5610894 0.3495554 -0.4379523 0.5991892 0.3487055 -0.4369817 0.5991893 0.3480341 -0.4358993 0.5991892 0.3476694 -0.435127 0.5991892 0.3473834 -0.4343274 0.5991893 0.3471769 -0.4335045 0.5991892 0.35136 -0.4423021 0.5610894 0.3651641 -0.438117 0.5610893 0.3470182 -0.4323798 0.5991893 0.3545976 -0.4431135 0.5610894 0.3534935 -0.4429497 0.5610894 0.3524104 -0.4426782 0.5610894 0.3469218 -0.4390085 0.5610893 0.3462607 -0.4381164 0.5610896 0.3645046 -0.439007 0.5610894 0.3637537 -0.439836 0.5610894 0.3629271 -0.4405856 0.5610894 0.3620322 -0.4412501 0.5610893 0.3610772 -0.4418236 0.5610894 0.3484956 -0.4405842 0.5610895 0.3600642 -0.4423024 0.5610894 0.3476686 -0.4398338 0.5610893 0.3590142 -0.4426783 0.5610894 0.3443446 -0.4311993 0.5610893 0.3579314 -0.4429497 0.5610893 0.350347 -0.4418233 0.5610893 0.3568278 -0.4431141 0.5610895 0.3493892 -0.4412482 0.5610894 0.3557124 -0.4431684 0.5610894 0.3444581 -0.433491 0.5610896 0.3456954 -0.4371768 0.5610894 0.3452187 -0.4361751 0.5610893 0.3448342 -0.4351029 0.5610893 0.3629289 -0.4230155 0.5610893 0.3637499 -0.4237603 0.5610896 0.3644812 -0.4245633 0.5610893 0.3651572 -0.4254723 0.5610893 0.3610758 -0.421776 0.5610894 0.3620317 -0.4223498 0.5610894 0.3657324 -0.4264294 0.5610893 0.3600646 -0.4212979 0.5610893 0.3662104 -0.4274368 0.5610894 0.3665906 -0.4284895 0.5610893 0.359014 -0.4209218 0.5610895 0.3579333 -0.42065 0.5610893 0.3670276 -0.4306997 0.5610896 0.3668652 -0.4295946 0.5610894 0.3557125 -0.4204314 0.5610893 0.3568277 -0.4204865 0.5610895 0.3534924 -0.4206503 0.5610893 0.3545972 -0.4204863 0.5610895 0.3513604 -0.4212978 0.5610893 0.3524105 -0.4209218 0.5610894 0.3493925 -0.4223501 0.5610894 0.3503498 -0.4217758 0.5610895 0.3484966 -0.4230151 0.5610893 0.3476684 -0.4237664 0.5610893 0.3462607 -0.4254835 0.5610893 0.3469218 -0.4245914 0.5610895 0.3452188 -0.4274247 0.5610894 0.3456954 -0.4264231 0.5610893 0.3448376 -0.4284858 0.5610893 0.3445624 -0.4295787 0.5610893 0.3612366 -0.4250737 0.5991892 0.3605506 -0.4245645 0.5991892 0.3618696 -0.4256477 0.5991892 0.3624428 -0.4262809 0.5991892 0.362953 -0.4269692 0.5991893 0.3598173 -0.4241247 0.5991892 0.3633919 -0.4277026 0.5991892 0.3586561 -0.4235973 0.5991893 0.3640428 -0.4292771 0.5991892 0.3642504 -0.4301075 0.5991892 0.3637564 -0.4284748 0.5991892 0.3574111 -0.4232634 0.5991892 0.3565664 -0.4231377 0.5991892 0.3557124 -0.423096 0.5991893 0.354859 -0.423138 0.5991892 0.3540135 -0.4232634 0.5991892 0.3528262 -0.4235777 0.5991893 0.351607 -0.424125 0.5991892 0.3508741 -0.4245645 0.5991892 0.3501881 -0.4250736 0.5991892 0.3495554 -0.4256476 0.5991892 0.3487423 -0.4265693 0.5991892 0.348034 -0.4277009 0.5991892 0.3476694 -0.4284729 0.5991892 0.3473834 -0.4292728 0.5991891 0.3471772 -0.4300938 0.5991892 0.3470497 -0.4309499 0.5991892</float_array>
          <technique_common>
            <accessor source="#Part__Feature002_005-mesh-positions-array" count="116" stride="3">
              <param name="X" type="float"/>
              <param name="Y" type="float"/>
              <param name="Z" type="float"/>
            </accessor>
          </technique_common>
        </source>
        <source id="Part__Feature002_005-mesh-normals">
          <float_array id="Part__Feature002_005-mesh-normals-array" count="768">0.9461296 -0.3160886 0.07019084 0.9971906 -0.02785319 0.06953608 0.9849547 -0.1581528 0.06965762 0.4035449 -0.9122552 0.07030093 0.9866385 -0.1470937 0.07005727 0.967464 -0.2433772 0.06914621 0.9962596 -0.05009931 0.07040488 0.7285206 -0.6814305 0.07007288 0.6701904 -0.7389628 0.06913024 0.6077709 -0.7910129 0.07009446 0.9389756 -0.3368569 0.06965792 0.9012633 -0.4276289 0.06969881 0.9020015 -0.4260771 0.069655 0.8550419 -0.5138566 0.06967675 0.7393559 -0.6696999 0.06967771 0.8015331 -0.5938773 0.06967449 0.3362953 -0.9392106 0.06920254 0.8015239 -0.5938893 0.06967926 0.855151 -0.513674 0.06968396 0.146291 -0.9867851 0.06967246 0.2523266 -0.9651332 0.06963795 0.2425167 -0.9676203 0.0699765 -0.4087845 -0.9099296 0.07016879 0.5946689 -0.8009456 0.0696786 0.5129458 -0.855589 0.06967085 0.04917585 -0.9963574 0.06966918 -0.04897594 -0.9963673 0.06966912 -0.146512 -0.986752 0.06967699 -0.04898583 -0.9963665 0.06967246 -0.2553206 -0.9643469 0.06961733 -0.1464576 -0.9867604 0.06967204 -0.2424991 -0.967616 0.07009714 -0.3363325 -0.9392022 0.06913554 -0.750452 -0.6571983 0.07008814 -0.8015095 -0.5939735 0.06912374 0.5135738 -0.8552102 0.06969594 -0.847728 -0.5257842 0.07005894 0.4262604 -0.9019124 0.06968587 -0.9392973 -0.3359534 0.06968498 -0.9675784 -0.2427704 0.06967502 0.1469635 -0.9866841 0.0696876 0.04850381 -0.9963889 0.06968975 -0.5944616 -0.8010994 0.06967949 -0.6702402 -0.7388648 0.0696913 -0.7396972 -0.6693217 0.06968814 -0.670328 -0.7387867 0.06967616 -0.4263049 -0.9018915 0.06968599 -0.5130502 -0.8555248 0.06969058 -0.5134268 -0.8552984 0.06969594 -0.8547921 -0.5142673 0.06971216 -0.5949714 -0.8007194 0.06969499 -0.9020559 -0.4259615 0.06965631 -0.9389922 -0.3368085 0.06967067 -0.9007708 -0.4286606 0.06972986 -0.9714984 -0.2267055 0.06925064 -0.9964377 -0.04933577 0.06839466 -0.9877199 -0.1394553 0.07043981 0.004868865 0.003244876 -0.9999829 0.004868328 0.003187775 -0.9999831 0.00486809 0.003182947 -0.9999831 4.77251e-4 4.6659e-4 -0.9999998 -7.25008e-4 4.37079e-4 -0.9999997 -7.25395e-4 4.54486e-4 -0.9999997 -7.24999e-4 4.26639e-4 -0.9999997 0 0 -1 3.35565e-4 -1.51387e-6 -1 3.3556e-4 -2.37342e-6 -1 3.35564e-4 -1.80221e-6 -1 9.68523e-4 4.25532e-4 -0.9999995 9.61998e-4 0.002099514 -0.9999974 -9.59566e-5 0.002174913 -0.9999976 -9.58871e-5 0.002170979 -0.9999977 -9.59957e-5 0.002178788 -0.9999977 0.005674481 5.71295e-4 -0.9999838 0.0056746 5.703e-4 -0.9999838 0.00567454 5.70806e-4 -0.9999838 0.001246631 1.22084e-4 -0.9999992 -2.37981e-4 0.002164006 -0.9999977 8.23218e-6 0 -1 1.75429e-5 1.96078e-5 -1 0.00724256 -4.57383e-4 -0.9999737 0.007241129 -4.17042e-4 -0.9999738 0.007241547 -4.26547e-4 -0.9999737 -2.87109e-5 -2.45635e-5 -1 0.001906573 -3.17277e-4 -0.9999982 -6.20913e-4 0.001034677 -0.9999993 -6.20911e-4 0.001042842 -0.9999993 -6.21094e-4 0.001038193 -0.9999994 -2.50131e-5 0 -1 4.74608e-4 0.00142157 -0.9999989 -1.03948e-5 0 -1 4.53453e-5 0 -1 7.36477e-4 -5.4658e-4 -0.9999996 7.36044e-4 -5.56063e-4 -0.9999997 7.35881e-4 -5.36312e-4 -0.9999996 -3.18167e-4 4.66522e-4 -1 -9.56937e-4 -3.67905e-4 -0.9999995 -2.59791e-5 -1.14755e-5 -1 6.71129e-4 -1.43299e-4 -0.9999998 6.71101e-4 -1.33926e-4 -0.9999998 6.71125e-4 -1.32069e-4 -0.9999998 1.49321e-4 2.54964e-5 -1 -0.00370711 0.001389741 -0.9999923 -0.003706991 0.001386404 -0.9999922 -0.003706693 0.00141555 -0.9999921 -4.70367e-4 -4.87937e-4 -0.9999998 -0.00147289 -5.40757e-5 -0.9999989 -0.00147283 -5.3854e-5 -0.9999989 -0.001473426 -3.65415e-5 -0.9999989 1.30599e-4 0 -1 -0.001878321 4.12528e-4 -0.9999982 2.39981e-4 -2.51926e-4 -1 2.38436e-4 -5.12701e-4 -0.9999999 0 -0.001609086 -0.9999988 0 -1.82006e-4 -1 0 -9.04492e-5 -1 -0.002057254 -2.47907e-4 -0.9999979 0 -2.34795e-5 -1 -4.65766e-5 -9.04341e-5 -1 1.59084e-4 -1.76425e-4 -1 -2.3855e-4 -5.13208e-4 -0.9999999 6.64876e-6 0 -1 -0.005590081 -0.002828717 -0.9999804 -0.005634546 -0.002726495 -0.9999805 -0.005631506 -0.002702951 -0.9999806 -0.001310706 -2.85731e-4 -0.9999991 2.57484e-4 2.39251e-5 -1 4.27758e-6 0 -1 -7.76435e-5 -1.69253e-5 -1 -1.0829e-5 0 -1 2.34883e-6 0 -1 -6.86125e-6 0 -1 5.74962e-4 -0.00127846 -0.9999991 5.75528e-4 -0.001277089 -0.9999991 5.75243e-4 -0.001280188 -0.9999991 -6.37044e-4 -4.36811e-4 -0.9999997 -9.11693e-4 9.76594e-4 0.9999992 -9.07561e-4 0.001016378 0.9999992 -9.17816e-4 0.001055419 0.9999991 0.003251969 0.001379072 0.9999939 3.35567e-4 1.41703e-4 1 3.35551e-4 1.37127e-4 1 3.35562e-4 1.36196e-4 1 9.39849e-4 3.52874e-4 0.9999995 0.003267943 4.13232e-4 0.9999946 0.002492368 4.36588e-5 0.9999969 0.002492785 4.44113e-6 0.9999969 0.002492725 8.512e-6 0.9999969 4.63821e-4 0.001393735 0.999999 -1.01174e-4 -2.06389e-4 1 0 1.0455e-4 1 3.65105e-4 8.024e-5 1 0 5.32362e-5 1 1.10668e-4 2.25758e-4 1 0 4.31228e-4 1 -2.00803e-4 5.9345e-4 0.9999998 -0.00172913 2.3137e-4 0.9999985 4.05656e-5 4.94886e-5 1 4.05734e-5 4.03676e-5 1 4.05894e-5 4.83764e-5 1 7.82511e-4 -1.0105e-4 0.9999998 0.001054286 2.98286e-4 0.9999994 0.001054465 3.17584e-4 0.9999995 0.001054644 3.08097e-4 0.9999995 -1.38118e-4 -2.06368e-5 1 6.10203e-5 -9.01691e-5 1 0.002932846 -9.11137e-4 0.9999953 0.002931714 -9.37319e-4 0.9999953 0.002932548 -9.06779e-4 0.9999953 7.01525e-5 -3.40515e-5 1 -7.20158e-5 3.49567e-5 1 -8.8347e-5 -1.90002e-5 1 -8.8046e-5 -2.20688e-5 1 -8.872e-5 -1.55319e-5 1 0 0 1 1.17314e-4 -6.90314e-5 1 -3.27847e-5 1.34484e-5 1 -0.001670837 8.42151e-4 0.9999983 0.001083672 -1.36556e-4 0.9999994 2.54686e-4 -7.05958e-4 0.9999998 0 -2.42049e-4 1 0 -2.15422e-4 1 -0.001152515 9.37466e-5 0.9999994 0 1.85599e-5 1 7.7166e-5 -0.001472413 0.999999 7.72678e-5 -0.001477062 0.999999 7.7254e-5 -0.001468658 0.999999 0 -2.14217e-4 1 0 -5.92714e-4 0.9999998 0 1.73571e-4 1 0 -1.7567e-4 1 0 -2.64315e-4 1 -0.001624643 -0.001180768 0.999998 -4.78698e-4 8.10052e-5 0.9999999 3.4352e-6 -2.18684e-5 1 -2.81175e-5 -2.95479e-5 1 0 1.45543e-5 1 -0.8455688 0.5292365 0.07015907 -0.9972571 0.02202552 0.07066243 -0.801487 0.5940027 0.06913304 -0.7480466 0.659944 0.07000148 -0.4084349 0.9100861 0.07017266 -0.9674935 0.2431102 0.06967008 -0.9866941 0.1468878 0.06970506 -0.9393321 0.3358525 0.06970369 -0.9673738 0.2435832 0.06968015 0.2583695 0.9635002 0.07009077 -0.9020276 0.4260216 0.06965583 -0.2552965 0.9643248 0.07001072 -0.3363097 0.9392098 0.06914263 0.3362007 0.9392511 0.06911349 -0.5945159 0.8010596 0.0696752 -0.6702878 0.7388228 0.06968027 -0.8548102 0.5142371 0.06971132 0.4125496 0.9082364 0.070068 -0.9887052 0.1328758 0.06932729 -0.5945762 0.8010144 0.06967955 0.04869043 0.9963811 0.06967067 -0.5131578 0.8554614 0.06967741 -0.4265817 0.9017611 0.06967741 -0.513143 0.8554702 0.06967812 0.1468002 0.98671 0.06966441 -0.7397049 0.6693135 0.06968724 -0.9007517 0.4287012 0.06972819 -0.9388358 0.3372445 0.06966805 -0.6702219 0.738883 0.06967508 -0.242769 0.9675783 0.06968224 -0.04900538 0.9963651 0.06967949 -0.1464173 0.9867655 0.06968504 -0.1464934 0.9867542 0.06968373 -0.04899823 0.9963651 0.06968396 0.5130199 0.8555446 0.06967228 0.04921823 0.9963543 0.06968247 0.5945751 0.8010155 0.06967568 0.8014653 0.5939648 0.069709 0.8559859 0.512279 0.06970298 0.8550195 0.5138972 0.06965255 0.9884138 0.1347005 0.06995695 0.902124 0.4258189 0.06964671 0.594483 0.8010836 0.06967902 0.4264852 0.9018062 0.06968408 0.6701817 0.7389184 0.06968557 0.5133762 0.8553299 0.06968444 0.9012656 0.427624 0.06970155 0.939543 0.3352735 0.06964826 0.2432688 0.9674519 0.0696941 0.1459373 0.986836 0.06969302 0.67019 0.7389117 0.06967717 0.7395321 0.6695063 0.06966882 0.9964841 0.04736387 0.06911027 0.7375109 0.6717247 0.06974023 0.9677833 0.2419516 0.06967663 0.8004889 0.5952852 0.06966412 0.9869661 0.1450586 0.06968557 0.9681263 0.2405639 0.0697183 0.9382454 0.3388668 0.06974935</float_array>
          <technique_common>
            <accessor source="#Part__Feature002_005-mesh-normals-array" count="256" stride="3">
              <param name="X" type="float"/>
              <param name="Y" type="float"/>
              <param name="Z" type="float"/>
            </accessor>
          </technique_common>
        </source>
        <vertices id="Part__Feature002_005-mesh-vertices">
          <input semantic="POSITION" source="#Part__Feature002_005-mesh-positions"/>
        </vertices>
        <triangles material="Part__Feature002_005-material" count="228">
          <input semantic="VERTEX" source="#Part__Feature002_005-mesh-vertices" offset="0"/>
          <input semantic="NORMAL" source="#Part__Feature002_005-mesh-normals" offset="1"/>
          <p>3 0 11 0 1 0 13 1 2 1 0 1 1 2 13 2 0 2 46 3 9 3 10 3 17 4 13 4 1 4 11 5 17 5 1 5 13 6 20 6 2 6 41 7 6 7 7 7 42 8 41 8 7 8 42 9 7 9 8 9 23 10 11 10 3 10 25 11 23 11 3 11 25 12 3 12 4 12 5 13 25 13 4 13 40 14 6 14 41 14 40 15 5 15 6 15 48 16 46 16 10 16 33 17 5 17 40 17 33 18 25 18 5 18 50 19 12 19 14 19 50 20 10 20 12 20 50 21 48 21 10 21 21 22 32 22 19 22 43 23 42 23 8 23 9 24 43 24 8 24 54 25 14 25 15 25 35 26 15 26 16 26 35 27 16 27 18 27 35 28 54 28 15 28 36 29 18 29 19 29 36 30 35 30 18 30 37 31 36 31 19 31 32 32 37 32 19 32 38 33 26 33 27 33 39 34 38 34 27 34 44 35 43 35 9 35 28 36 39 36 27 36 46 37 44 37 9 37 58 38 29 38 30 38 31 39 58 39 30 39 52 40 50 40 14 40 54 41 52 41 14 41 45 42 22 42 24 42 45 43 24 43 26 43 47 44 26 44 38 44 47 45 45 45 26 45 51 46 32 46 21 46 53 47 21 47 22 47 53 48 51 48 21 48 56 49 39 49 28 49 45 50 53 50 22 50 29 51 56 51 28 51 57 52 29 52 58 52 57 53 56 53 29 53 55 54 58 54 31 54 55 55 34 55 49 55 55 56 31 56 34 56 59 57 60 58 61 59 66 60 64 60 59 60 66 61 63 62 64 63 66 64 59 64 61 64 66 64 61 64 62 64 68 65 62 66 65 67 68 68 65 68 67 68 70 64 66 64 62 64 70 69 69 69 66 69 73 70 74 71 70 72 20 73 72 74 71 75 20 76 68 76 72 76 75 77 76 77 73 77 75 78 62 78 68 78 75 64 70 64 62 64 75 64 73 64 70 64 75 79 68 79 20 79 17 80 20 81 13 82 17 83 75 83 20 83 23 84 17 84 11 84 77 85 78 86 75 87 23 88 75 88 17 88 79 89 80 89 77 89 33 90 77 90 75 90 33 91 75 91 23 91 33 92 23 93 25 94 81 95 79 95 77 95 41 96 33 96 40 96 82 64 81 64 77 64 42 97 77 97 33 97 42 98 33 99 41 100 43 101 77 101 42 101 83 102 84 103 82 104 46 105 43 105 44 105 87 106 86 107 83 108 87 109 83 109 82 109 87 110 85 110 86 110 88 64 87 64 82 64 50 111 43 111 46 111 50 112 46 112 48 112 54 113 50 113 52 113 35 114 50 114 54 114 36 115 50 115 35 115 58 116 55 116 49 116 57 117 58 117 49 117 51 118 50 118 36 118 51 119 36 119 37 119 51 120 37 120 32 120 51 121 43 121 50 121 38 122 39 123 56 124 38 125 56 125 57 125 38 126 49 126 88 126 38 127 82 127 77 127 38 128 57 128 49 128 38 129 88 129 82 129 47 130 43 130 51 130 47 64 38 64 77 64 47 131 77 131 43 131 47 132 53 133 45 134 47 135 51 135 53 135 89 136 90 137 91 138 91 139 93 139 92 139 90 140 93 141 91 142 94 143 96 143 90 143 99 144 98 144 97 144 95 145 98 146 99 147 100 148 101 148 96 148 96 149 101 149 90 149 93 150 2 150 95 150 95 151 2 151 98 151 90 152 102 152 93 152 101 153 102 153 90 153 104 154 105 154 103 154 103 155 105 155 102 155 0 156 3 156 1 156 0 157 4 158 3 159 2 160 4 160 0 160 106 161 107 162 105 163 2 164 5 164 4 164 105 165 107 165 102 165 5 166 7 167 6 168 2 169 7 169 5 169 2 170 8 170 7 170 109 171 110 172 108 173 110 174 111 174 108 174 2 175 9 175 8 175 108 174 111 174 107 174 107 176 112 176 102 176 111 174 112 174 107 174 113 177 114 177 112 177 114 178 115 178 112 178 12 179 15 179 14 179 9 180 15 180 10 180 10 181 15 181 12 181 115 182 34 182 112 182 112 183 34 183 102 183 16 184 19 185 18 186 31 187 30 187 34 187 2 174 30 174 9 174 34 174 30 174 102 174 93 174 30 174 2 174 102 174 30 174 93 174 15 188 19 188 16 188 15 189 21 189 19 189 28 190 27 190 29 190 29 191 27 191 30 191 21 192 24 192 22 192 27 193 26 193 30 193 30 194 26 194 9 194 15 195 26 195 21 195 21 174 26 174 24 174 9 196 26 196 15 196 83 197 111 197 110 197 115 198 49 198 34 198 84 199 83 199 110 199 109 200 84 200 110 200 77 201 106 201 105 201 87 202 114 202 113 202 88 203 115 203 114 203 112 204 87 204 113 204 87 205 88 205 114 205 69 206 100 206 96 206 86 207 112 207 111 207 78 208 105 208 104 208 78 209 77 209 105 209 66 210 69 210 96 210 81 211 108 211 107 211 81 212 109 212 108 212 83 213 86 213 111 213 94 214 66 214 96 214 88 215 49 215 115 215 79 216 81 216 107 216 74 217 102 217 101 217 80 218 79 218 107 218 80 219 106 219 77 219 80 220 107 220 106 220 100 221 74 221 101 221 82 222 84 222 109 222 85 223 112 223 86 223 85 224 87 224 112 224 81 225 82 225 109 225 75 226 78 226 104 226 76 227 103 227 102 227 76 228 104 228 103 228 76 229 75 229 104 229 73 230 76 230 102 230 64 231 94 231 90 231 74 232 73 232 102 232 89 233 64 233 90 233 62 234 92 234 93 234 65 235 93 235 95 235 65 236 62 236 93 236 71 237 98 237 2 237 99 238 65 238 95 238 59 239 64 239 89 239 63 240 66 240 94 240 91 241 59 241 89 241 64 242 63 242 94 242 67 243 65 243 99 243 97 244 67 244 99 244 70 245 100 245 69 245 70 246 74 246 100 246 60 247 59 247 91 247 92 248 60 248 91 248 71 249 2 249 20 249 61 250 60 250 92 250 72 251 97 251 98 251 62 252 61 252 92 252 71 253 72 253 98 253 68 254 97 254 72 254 68 255 67 255 97 255</p>
        </triangles>
      </mesh>
    </geometry>
    <geometry id="Part__Feature001_007-mesh" name="Part__Feature001.007">
      <mesh>
        <source id="Part__Feature001_007-mesh-positions">
          <float_array id="Part__Feature001_007-mesh-positions-array" count="348">0.3643757 -0.3310437 0.5991891 0.3642491 -0.3318994 0.5991892 0.3644068 -0.3296261 0.5991893 0.3639206 -0.3331271 0.5991893 0.3633919 -0.3342975 0.5991892 0.3629519 -0.3350321 0.5991892 0.3624431 -0.3357189 0.5991892 0.3618693 -0.3363525 0.5991892 0.3612365 -0.3369264 0.5991892 0.3605512 -0.3374352 0.5991892 0.3598171 -0.3378754 0.5991892 0.359045 -0.3382408 0.5991892 0.3582411 -0.3385287 0.5991892 0.3574115 -0.3387366 0.5991892 0.366215 -0.3345509 0.5610893 0.3665885 -0.3335091 0.5610894 0.3565664 -0.3388621 0.5991892 0.3557124 -0.3389042 0.5991892 0.3548589 -0.338862 0.5991893 0.3540136 -0.3387365 0.5991892 0.3527477 -0.3383953 0.5991892 0.3670799 -0.3308311 0.5610893 0.3516074 -0.3378753 0.5991892 0.3505135 -0.3371942 0.5991893 0.3495554 -0.3363523 0.5991892 0.3487055 -0.3353816 0.5991893 0.3524111 -0.3410784 0.5610894 0.348034 -0.334299 0.5991892 0.3476714 -0.3335314 0.5991892 0.3473858 -0.3327357 0.5991892 0.3471776 -0.331909 0.5991893 0.3513602 -0.3407022 0.5610893 0.3470495 -0.3310495 0.5991892 0.3668586 -0.3324406 0.5610893 0.3470182 -0.3296194 0.5991893 0.349394 -0.3396507 0.5610894 0.3484976 -0.3389855 0.5610893 0.3469217 -0.3374085 0.5610895 0.3462572 -0.3365116 0.5610893 0.3657415 -0.3355533 0.5610894 0.36517 -0.3365087 0.5610893 0.3503503 -0.3402245 0.5610894 0.3645057 -0.3374059 0.5610895 0.3637561 -0.338234 0.5610893 0.3629295 -0.3389841 0.5610894 0.3620312 -0.3396505 0.5610894 0.3545964 -0.341514 0.5610894 0.3610754 -0.3402242 0.5610893 0.3534917 -0.3413498 0.5610893 0.3600665 -0.3407018 0.5610894 0.3476682 -0.3382334 0.5610894 0.3590143 -0.3410783 0.5610894 0.3443446 -0.3295992 0.5610893 0.3579322 -0.3413498 0.5610894 0.3568274 -0.3415135 0.5610894 0.3456816 -0.3355505 0.5610893 0.3557124 -0.3415683 0.5610893 0.3443958 -0.3312903 0.5610895 0.34521 -0.334552 0.5610896 0.3448375 -0.3335139 0.5610894 0.3445625 -0.3324202 0.5610893 0.3445584 -0.3279994 0.5610894 0.3448281 -0.3269156 0.5610893 0.3452118 -0.3258401 0.5610893 0.3456993 -0.324815 0.5610893 0.3462606 -0.3238836 0.5610895 0.3469218 -0.3229914 0.5610894 0.3476684 -0.3221663 0.5610893 0.3484955 -0.3214159 0.5610893 0.3493934 -0.3207497 0.5610893 0.3503476 -0.3201764 0.5610894 0.3513603 -0.3196979 0.5610894 0.3524107 -0.3193217 0.5610894 0.3545972 -0.318886 0.5610893 0.3534916 -0.3190501 0.5610894 0.3670306 -0.3291196 0.5610894 0.3557124 -0.3188318 0.5610894 0.3568282 -0.3188861 0.5610894 0.3579315 -0.3190504 0.5610894 0.3668652 -0.3279947 0.5610894 0.3590138 -0.3193218 0.5610893 0.3665907 -0.3268972 0.5610893 0.3600655 -0.3196981 0.5610894 0.3610774 -0.3201766 0.5610894 0.3662105 -0.325837 0.5610894 0.3657378 -0.3248403 0.5610893 0.3620316 -0.3207498 0.5610893 0.3651703 -0.3238917 0.5610895 0.3645047 -0.3229932 0.5610893 0.3637566 -0.3221665 0.5610893 0.3629305 -0.3214166 0.5610895 0.3471769 -0.3284958 0.5991892 0.3476694 -0.3268731 0.5991892 0.3473835 -0.3276731 0.5991892 0.3480345 -0.3261002 0.5991893 0.3487091 -0.3250135 0.5991893 0.3495554 -0.3240476 0.5991892 0.3508734 -0.322965 0.5991892 0.3501883 -0.3234736 0.5991892 0.3516078 -0.3225246 0.5991892 0.3528532 -0.3219689 0.5991892 0.3540136 -0.3216634 0.5991892 0.354859 -0.321538 0.5991892 0.355712 -0.3214955 0.5991893 0.356566 -0.321538 0.5991892 0.3642504 -0.3285075 0.5991892 0.3638992 -0.3272143 0.5991893 0.3577502 -0.3217281 0.5991892 0.3590456 -0.3221594 0.5991892 0.3633919 -0.3261026 0.5991892 0.3598168 -0.3225245 0.5991892 0.3629519 -0.3253679 0.5991892 0.3605515 -0.322965 0.5991892 0.3612361 -0.3234733 0.5991892 0.3624435 -0.3246815 0.5991892 0.3618694 -0.3240476 0.5991892</float_array>
          <technique_common>
            <accessor source="#Part__Feature001_007-mesh-positions-array" count="116" stride="3">
              <param name="X" type="float"/>
              <param name="Y" type="float"/>
              <param name="Z" type="float"/>
            </accessor>
          </technique_common>
        </source>
        <source id="Part__Feature001_007-mesh-normals">
          <float_array id="Part__Feature001_007-mesh-normals-array" count="807">0.9636358 -0.25787 0.07006567 0.9090918 -0.4106568 0.07009387 0.9390634 -0.3367201 0.06913369 0.9972581 -0.021977 0.07066446 0.9019939 -0.4260905 0.06966972 0.8558942 -0.5124365 0.06967186 -0.2596368 -0.9631571 0.07012206 0.5946439 -0.800965 0.06966859 0.5129765 -0.8555703 0.06967496 0.3363841 -0.9391443 0.06966888 -0.3361861 -0.9392566 0.06910949 0.9868829 -0.1458411 0.06922924 0.8015097 -0.593909 0.06967353 0.8561118 -0.5120705 0.06968742 0.2424628 -0.9676557 0.06967371 -0.4139333 -0.9076095 0.07003021 0.9671401 -0.2444997 0.06971281 0.9882748 -0.1358898 0.06962031 0.8017629 -0.5935649 0.06969285 0.146591 -0.9867407 0.06967139 0.7395713 -0.6694619 0.0696783 0.7394104 -0.6696385 0.0696907 -0.0491904 -0.9963568 0.0696668 0.04898947 -0.9963663 0.06967377 0.0489763 -0.9963672 0.06967067 0.6701994 -0.7389024 0.0696851 0.67029 -0.7388214 0.0696727 0.5944244 -0.8011267 0.06968379 -0.5272868 -0.8467913 0.07009494 0.4266871 -0.9017114 0.06967723 0.5133351 -0.8553543 0.06968724 -0.5945135 -0.8011092 0.06912142 0.4268291 -0.9016438 0.06968176 -0.6584195 -0.7493823 0.07007175 0.3360965 -0.939246 0.06968593 -0.7505167 -0.6571236 0.07009536 0.2427895 -0.9675732 0.06968146 -0.8015441 -0.5939273 0.06912094 0.1462468 -0.986791 0.06968253 -0.8477085 -0.5258143 0.07006913 -0.4265648 -0.9017692 0.06967657 -0.5132061 -0.8554328 0.06967252 -0.04847711 -0.9963899 0.0696941 -0.9866747 -0.1470224 0.06969559 -0.9673679 -0.2436127 0.06965929 -0.1466206 -0.9867349 0.06969022 -0.2430992 -0.9674947 0.06969022 -0.1464355 -0.9867623 0.06969213 -0.6700846 -0.7390071 0.06967943 -0.7396691 -0.6693531 0.06968587 -0.9973104 -0.02181887 0.06997179 -0.9389162 -0.3370178 0.06968152 -0.9674627 -0.2432307 0.06967633 -0.8558507 -0.512508 0.06967967 -0.9019795 -0.4261194 0.06968063 -0.986868 -0.1457353 0.06966245 -0.9970757 -0.02905976 0.070679 -0.9971613 -0.0286377 0.06963729 -0.9970347 -0.03149193 0.07021445 -0.9020138 -0.4260462 0.06968462 -0.9389721 -0.3368597 0.06969177 -6.34719e-4 -3.64041e-4 -0.9999998 -0.003404498 -0.001050353 -0.9999938 -0.0034042 -0.001054763 -0.9999938 -0.003404617 -0.001090705 -0.9999937 -3.1837e-4 -4.66625e-4 -1 5.74906e-4 -4.47914e-4 -0.9999998 5.75217e-4 -4.52948e-4 -0.9999998 5.75244e-4 -4.61316e-4 -0.9999998 -0.003956437 -0.001470983 -0.9999911 1.60064e-4 2.34606e-4 -1 0.001179993 -2.27608e-4 -0.9999994 0.00118035 -2.11079e-4 -0.9999993 0.00118041 -1.942e-4 -0.9999994 0 0 -1 -1.69895e-4 -2.48241e-4 -1 -3.24752e-4 -0.001074135 -0.9999994 0 -1.60264e-5 -1 -1.88187e-4 -2.69548e-5 -1 -0.00311464 -2.18111e-4 -0.9999952 -1.19161e-4 -5.39221e-4 -0.9999999 -0.002329945 2.24675e-4 -0.9999973 0 -1.76242e-4 -1 0 -5.11126e-4 -0.9999999 1.28617e-4 -1.7658e-4 -1 -0.002396047 9.17092e-4 -0.9999968 -0.002397894 9.42986e-4 -0.9999968 -0.002394556 9.00218e-4 -0.9999968 -3.3544e-4 -4.28272e-4 -1 -3.35318e-4 -4.28094e-4 -1 -3.3538e-4 -4.28301e-4 -1 0 3.17891e-5 -1 3.3539e-4 1.09433e-5 -1 3.35516e-4 5.95464e-6 -1 3.35544e-4 4.09808e-6 -1 -3.77679e-4 0 -1 -6.5963e-4 3.32513e-4 -0.9999998 1.68398e-5 0 -1 5.00826e-5 -2.26184e-6 -1 4.33068e-6 0 -1 9.72263e-4 -4.48511e-4 -0.9999995 9.72351e-4 -4.49025e-4 -0.9999995 9.72302e-4 -4.49036e-4 -0.9999995 -2.54143e-5 0 -1 0.00434643 -0.001408219 -0.9999896 0.004347085 -0.001370966 -0.9999897 0.004346847 -0.001366615 -0.9999897 0.001165091 -5.23549e-4 -0.9999992 0.001164674 -5.23107e-4 -0.9999992 0.001164853 -5.23538e-4 -0.9999992 0 4.88166e-4 -0.9999999 -9.65691e-4 1.23322e-4 -0.9999996 -9.65598e-4 1.15577e-4 -0.9999996 -9.65661e-4 1.23609e-4 -0.9999996 0 1.71506e-4 -1 -9.76553e-6 0 -1 4.65638e-4 -1.05665e-4 -1 4.73933e-4 5.24555e-4 -0.9999998 -1.288e-4 1.71581e-4 -1 -2.54081e-4 2.87981e-5 -1 2.22164e-5 1.74064e-5 -1 0 3.63235e-4 -1 8.00769e-5 3.62159e-4 -1 0 7.7454e-5 -1 -4.89276e-4 4.89281e-4 -0.9999998 -4.88708e-4 4.70926e-4 -0.9999998 -4.89697e-4 4.51252e-4 -0.9999998 -4.75285e-4 4.92458e-4 -0.9999998 -5.4909e-6 0 -1 6.34316e-4 4.90052e-4 -0.9999998 9.58772e-4 0.001210629 -0.9999989 3.35477e-4 -7.8345e-6 -1 3.35546e-4 3.8546e-6 -1 3.35532e-4 -4.95354e-6 -1 0 -8.77558e-6 -1 -2.20836e-4 -4.00555e-5 -1 -2.86899e-4 2.88873e-6 -1 -2.86892e-4 -2.40297e-6 -1 -2.86812e-4 -8.03659e-6 -1 -6.50263e-6 0 -1 5.36849e-6 0 -1 0.001892089 0.001671075 -0.9999969 0 -5.02562e-4 1 -3.09933e-4 1.43456e-4 1 0 -4.09695e-5 1 0 0 1 0.002311885 -7.81802e-5 0.9999973 0.002311527 -1.0806e-4 0.9999973 0.002312302 -8.26358e-5 0.9999974 -0.004105448 -3.54522e-4 0.9999915 -0.004105091 -3.56909e-4 0.9999916 -0.004104137 -3.85988e-4 0.9999916 0 -1.34379e-4 1 -1.29361e-4 -7.38001e-5 1 5.34024e-5 2.38015e-5 1 0 1.0485e-4 1 -5.07305e-5 0 1 -2.55781e-5 0 1 8.12347e-4 -0.001358747 0.9999988 -3.99127e-4 1.03838e-4 1 -9.58727e-4 7.17411e-5 0.9999995 -9.58714e-4 4.9333e-5 0.9999997 -9.58506e-4 3.79687e-5 0.9999997 -0.00409156 7.85059e-4 0.9999914 1.48912e-4 -3.87412e-5 1 4.06504e-4 0 1 1.49701e-4 -1.97803e-4 1 6.67608e-4 -1.86322e-4 0.9999998 6.68375e-4 -1.68917e-4 0.9999998 6.68123e-4 -1.87792e-4 0.9999998 0.001295089 -9.88629e-6 0.9999992 0.001294791 -5.86289e-6 0.9999992 0.00129497 -5.2644e-6 0.9999992 3.29294e-5 -1.59482e-5 1 -0.001633286 0.001102089 0.9999982 6.45161e-5 -8.40513e-6 1 6.57527e-5 -1.91822e-5 1 -5.42005e-4 0 0.9999999 1.22797e-4 6.45184e-5 1 0.004181921 -6.47119e-4 0.9999911 0.004180908 -6.76212e-4 0.9999911 0.004181563 -6.54029e-4 0.9999911 0 -4.61302e-5 1 -0.001850128 2.51283e-4 0.9999983 -2.04415e-4 7.07818e-4 0.9999998 0.001204133 -1.49882e-4 0.9999993 -3.07399e-5 8.96784e-6 1 -1.09951e-4 1.35432e-4 1 -6.54544e-6 3.57405e-7 1 1.60924e-5 0 1 0.002059519 2.50792e-4 0.9999979 0.002060472 2.12699e-4 0.9999979 0.002060532 2.12826e-4 0.9999979 -3.36033e-5 0 1 -5.89265e-4 -7.94491e-7 0.9999998 -5.89265e-4 5.54154e-6 0.9999998 -5.89329e-4 1.21821e-6 0.9999998 0 3.37642e-5 1 3.4265e-4 2.80303e-6 1 3.42673e-4 4.6485e-6 1 3.42554e-4 1.3254e-5 1 0 -3.9405e-7 1 7.8373e-5 2.20639e-6 1 6.91276e-5 0 1 8.09061e-4 0.001175761 0.9999991 -0.001295626 -6.18107e-5 0.9999992 -0.001296639 -7.36339e-5 0.9999992 -0.001297116 -2.81547e-5 0.9999992 9.10415e-5 1.64805e-4 1 8.67604e-5 1.2022e-5 1 -0.8475492 0.5260709 0.07007044 -0.4065018 0.910947 0.07022732 -0.8014819 0.5940115 0.06911832 -0.7502146 0.6574696 0.07008445 -0.04958099 0.9963378 0.06966179 0.3151814 0.9464295 0.07022869 -0.5946536 0.800958 0.0696668 -0.5130027 0.8555551 0.06967079 0.04955315 0.9963394 0.06965851 -0.253909 0.9646933 0.06997936 -0.3362904 0.9392158 0.06915694 -0.9887949 0.132138 0.06945705 -0.9877679 0.1394848 0.06970304 -0.9680345 0.240948 0.06966608 -0.9675237 0.2429733 0.06972736 -0.7396885 0.6693319 0.06968277 -0.9394019 0.3356582 0.06969761 -0.9019825 0.4261054 0.06972825 -0.9395862 0.3351457 0.06967872 -0.5944299 0.8011227 0.06968271 -0.6701725 0.7389267 0.06968611 -0.6703448 0.7387707 0.06968414 -0.9008699 0.4284614 0.06967383 0.158065 0.9849463 0.06997478 -0.8544045 0.5149081 0.06973135 0.2426079 0.9676561 0.06916177 0.5129517 0.8555849 0.06967848 0.4267989 0.9016588 0.06967228 0.3361054 0.9392437 0.06967437 0.5947101 0.8009161 0.06966656 0.9626825 0.2613747 0.07018393 -0.513702 0.8551331 0.06969749 -0.426266 0.9019099 0.06968402 -0.243099 0.9674947 0.06969171 0.8558717 0.5124741 0.06967127 -0.1465287 0.9867483 0.06969261 -0.1464421 0.9867616 0.0696879 0.9075565 0.4141212 0.06960552 -0.04843598 0.9963921 0.06969058 0.04848259 0.9963902 0.06968587 0.1469674 0.9866834 0.06968939 0.7394461 0.6695998 0.06968224 0.9013267 0.4274253 0.07012856 0.8015695 0.5938281 0.06967532 0.9390252 0.3368262 0.06913638 0.6701291 0.7389668 0.06967836 0.7396407 0.6693846 0.06968474 0.5943393 0.8011899 0.06968194 0.4264506 0.9018223 0.06968855 0.5136636 0.8551568 0.06968957 0.8015965 0.5937913 0.06967723 0.6704849 0.7386425 0.06969577 0.856072 0.5121371 0.06968921 0.9677571 0.2420578 0.0696724 0.9879486 0.1382178 0.06966751 0.9971783 0.02820217 0.06957119 0.9972238 0.02800482 0.0689972 0.997156 0.02946925 0.06936573 0.9869445 0.1451044 0.0698955</float_array>
          <technique_common>
            <accessor source="#Part__Feature001_007-mesh-normals-array" count="269" stride="3">
              <param name="X" type="float"/>
              <param name="Y" type="float"/>
              <param name="Z" type="float"/>
            </accessor>
          </technique_common>
        </source>
        <vertices id="Part__Feature001_007-mesh-vertices">
          <input semantic="POSITION" source="#Part__Feature001_007-mesh-positions"/>
        </vertices>
        <triangles material="Part__Feature001_007-material" count="228">
          <input semantic="VERTEX" source="#Part__Feature001_007-mesh-vertices" offset="0"/>
          <input semantic="NORMAL" source="#Part__Feature001_007-mesh-normals" offset="1"/>
          <p>15 0 1 0 3 0 4 1 14 1 3 1 14 2 15 2 3 2 0 3 21 3 2 3 39 4 14 4 4 4 5 5 39 5 4 5 26 6 19 6 20 6 45 7 8 7 9 7 45 8 9 8 10 8 51 9 11 9 12 9 31 10 26 10 20 10 21 11 0 11 1 11 40 12 5 12 6 12 40 13 39 13 5 13 13 14 51 14 12 14 22 15 31 15 20 15 33 16 1 16 15 16 33 17 21 17 1 17 42 18 40 18 6 18 54 19 13 19 16 19 43 20 42 20 6 20 43 21 6 21 7 21 56 22 17 22 18 22 56 23 16 23 17 23 56 24 54 24 16 24 44 25 7 25 8 25 44 26 43 26 7 26 45 27 44 27 8 27 35 28 22 28 23 28 47 29 10 29 11 29 47 30 45 30 10 30 36 31 35 31 23 31 49 32 47 32 11 32 24 33 36 33 23 33 51 34 49 34 11 34 37 35 24 35 25 35 53 36 51 36 13 36 38 37 37 37 25 37 54 38 53 38 13 38 27 39 38 39 25 39 41 40 31 40 22 40 35 41 41 41 22 41 46 42 56 42 18 42 60 43 30 43 32 43 60 44 29 44 30 44 48 45 46 45 18 45 48 46 19 46 26 46 48 47 18 47 19 47 50 48 36 48 24 48 37 49 50 49 24 49 32 50 34 50 52 50 59 51 28 51 29 51 60 52 59 52 29 52 55 53 38 53 27 53 55 54 27 54 28 54 57 55 60 55 32 55 57 56 32 57 52 58 58 59 55 59 28 59 59 60 58 60 28 60 50 61 38 61 36 61 37 62 38 63 50 64 36 65 31 65 35 65 35 66 31 67 41 68 58 69 59 69 55 69 36 70 26 70 31 70 59 71 60 72 55 73 38 74 48 74 36 74 36 75 48 75 26 75 48 76 56 76 46 76 55 77 52 77 38 77 60 78 52 78 55 78 57 79 52 79 60 79 56 80 53 80 54 80 61 81 62 81 52 81 56 82 51 82 53 82 51 83 47 83 49 83 56 84 47 84 51 84 65 85 66 86 64 87 47 88 44 89 45 90 62 91 67 91 52 91 64 92 67 93 63 94 63 95 67 95 62 95 66 96 67 96 64 96 38 97 67 97 48 97 52 98 67 98 38 98 56 74 43 74 47 74 67 99 43 99 48 99 47 100 43 101 44 102 48 103 43 103 56 103 43 104 40 105 42 106 43 74 14 74 40 74 40 107 14 108 39 109 70 110 71 110 69 110 43 111 15 112 14 113 71 114 72 114 69 114 67 115 33 115 43 115 68 74 33 74 67 74 43 116 33 116 15 116 74 117 73 117 72 117 72 118 73 118 69 118 33 119 75 119 21 119 68 120 75 120 33 120 77 74 78 74 76 74 76 121 78 121 73 121 78 122 80 122 73 122 75 123 81 123 79 123 81 124 85 125 84 126 82 127 83 127 80 127 73 128 86 128 69 128 80 74 86 74 73 74 83 129 86 129 80 129 85 130 88 130 87 130 81 131 88 132 85 133 68 134 89 134 75 134 75 135 89 135 81 135 81 136 89 137 88 138 86 139 89 139 69 139 69 140 89 140 68 140 90 141 89 141 86 141 23 142 25 142 24 142 22 143 25 143 23 143 19 144 25 144 22 144 19 145 22 145 20 145 30 146 29 147 28 148 30 149 28 150 27 151 30 152 27 152 25 152 32 153 19 153 18 153 32 154 25 154 19 154 32 155 30 155 25 155 13 156 17 156 16 156 11 157 17 157 13 157 11 158 13 158 12 158 94 159 91 159 34 159 94 160 93 161 91 162 94 163 92 163 93 163 94 164 34 164 32 164 9 145 17 145 11 145 9 165 11 165 10 165 9 166 18 166 17 166 96 167 95 168 94 169 7 170 9 171 8 172 6 173 18 173 9 173 6 145 9 145 7 145 97 174 98 174 96 174 5 175 18 175 6 175 99 176 94 176 32 176 99 177 97 177 96 177 99 178 96 178 94 178 3 179 5 180 4 181 3 182 18 182 5 182 101 145 100 145 99 145 0 183 3 183 1 183 103 184 102 184 101 184 2 185 3 185 0 185 103 186 99 186 32 186 103 187 101 187 99 187 103 188 32 188 18 188 2 189 18 189 3 189 106 190 2 191 105 192 106 193 18 193 2 193 108 194 107 195 104 196 109 197 18 197 106 197 110 198 108 199 104 200 111 201 103 201 18 201 111 202 18 202 109 202 113 203 110 203 104 203 113 204 112 204 110 204 115 205 111 206 114 207 115 208 104 208 103 208 115 145 113 145 104 145 115 209 103 209 111 209 65 210 94 210 95 210 71 211 99 211 100 211 66 212 65 212 95 212 96 213 66 213 95 213 76 214 102 214 103 214 80 215 107 215 108 215 69 216 98 216 97 216 69 217 97 217 99 217 104 218 76 218 103 218 72 219 100 219 101 219 72 220 71 220 100 220 61 221 52 221 34 221 61 222 34 222 91 222 62 223 61 223 91 223 62 224 91 224 93 224 67 225 66 225 96 225 63 226 93 226 92 226 63 227 92 227 94 227 63 228 62 228 93 228 68 229 98 229 69 229 68 230 96 230 98 230 68 231 67 231 96 231 64 232 63 232 94 232 78 233 104 233 107 233 65 234 64 234 94 234 80 235 78 235 107 235 86 236 110 236 112 236 82 237 108 237 110 237 82 238 80 238 108 238 113 239 86 239 112 239 105 240 81 240 106 240 70 241 69 241 99 241 71 242 70 242 99 242 74 243 72 243 101 243 85 244 111 244 109 244 73 245 74 245 101 245 73 246 101 246 102 246 106 247 85 247 109 247 76 248 73 248 102 248 77 249 76 249 104 249 77 250 104 250 78 250 88 251 115 251 114 251 84 252 85 252 106 252 111 253 88 253 114 253 81 254 84 254 106 254 89 255 113 255 115 255 88 256 89 256 115 256 90 257 86 257 113 257 83 258 82 258 110 258 83 259 110 259 86 259 87 260 88 260 111 260 89 261 90 261 113 261 85 262 87 262 111 262 79 263 81 263 105 263 2 264 79 264 105 264 75 265 2 266 21 267 75 268 79 268 2 268</p>
        </triangles>
      </mesh>
    </geometry>
    <geometry id="Part__Feature_014-mesh" name="Part__Feature.014">
      <mesh>
        <source id="Part__Feature_014-mesh-positions">
          <float_array id="Part__Feature_014-mesh-positions-array" count="420">0.3938124 -0.127 0.5610893 0.3938124 -0.381 0.5610893 0.3939044 -0.1270919 0.5606745 0.3939083 -0.3809041 0.560658 0.3940114 -0.1271989 0.5602583 0.3940205 -0.3807919 0.5602253 0.394139 -0.1273266 0.559825 0.3941494 -0.380663 0.5597919 0.3942836 -0.1274712 0.5593918 0.3942953 -0.3805171 0.5593589 0.3944454 -0.1276329 0.55896 0.3944584 -0.380354 0.5589271 0.3946245 -0.127812 0.5585302 0.3946388 -0.3801736 0.5584975 0.394821 -0.1280086 0.5581035 0.3948367 -0.3799757 0.5580711 0.395035 -0.1282226 0.5576809 0.3950521 -0.3797604 0.5576489 0.3952664 -0.128454 0.5572635 0.3952848 -0.3795276 0.5572319 0.3955152 -0.1287027 0.5568523 0.3955348 -0.3792776 0.5568212 0.3958115 -0.1289991 0.5564039 0.3958019 -0.3790106 0.5564179 0.3960857 -0.3787267 0.5560229 0.3961649 -0.1293525 0.555918 0.3963858 -0.3784266 0.5556373 0.3965432 -0.1297307 0.5554468 0.3967019 -0.3781105 0.555262 0.3969452 -0.1301327 0.5549921 0.3970333 -0.3777791 0.5548981 0.3973699 -0.1305575 0.5545557 0.3973794 -0.377433 0.5545464 0.3977396 -0.3770728 0.5542079 0.3978161 -0.1310037 0.5541393 0.398113 -0.3766994 0.5538833 0.3982822 -0.1314698 0.5537444 0.3984989 -0.3763135 0.5535735 0.3988216 -0.1320092 0.5533326 0.3988964 -0.3759161 0.5532791 0.3993044 -0.375508 0.5530007 0.3994447 -0.1326321 0.5529103 0.3997221 -0.3750903 0.5527389 0.4000894 -0.1332769 0.5525269 0.4001485 -0.3746639 0.5524942 0.4005825 -0.3742299 0.552267 0.400752 -0.1339396 0.5521839 0.4010229 -0.3737895 0.5520575 0.4014289 -0.1346164 0.5518824 0.4014689 -0.3733435 0.551866 0.4019192 -0.3728932 0.5516926 0.4021161 -0.1353037 0.5516229 0.4023729 -0.3724396 0.5515375 0.4028101 -0.1359976 0.5514057 0.4028288 -0.3719836 0.5514005 0.4034384 -0.3713741 0.5512458 0.4035069 -0.1366945 0.5512304 0.4041238 -0.3706886 0.5511096 0.4042032 -0.1373907 0.5510963 0.4048058 -0.3700067 0.5510124 0.4048954 -0.138083 0.5510024 0.4054812 -0.3693312 0.5509529 0.4055806 -0.1387681 0.5509473 0.4058704 -0.3689421 0.5509352 0.4062558 -0.1394433 0.5509293 0.4062558 -0.3685566 0.5509293 0.5335125 -0.381 0.5610893 0.5334166 -0.3809041 0.560658 0.5333043 -0.3807919 0.5602253 0.5331754 -0.380663 0.5597919 0.5330295 -0.3805171 0.5593589 0.5328665 -0.380354 0.5589271 0.532686 -0.3801736 0.5584975 0.5324881 -0.3799757 0.5580711 0.5322728 -0.3797604 0.5576489 0.53204 -0.3795276 0.5572319 0.53179 -0.3792776 0.5568212 0.5315229 -0.3790106 0.5564179 0.5312392 -0.3787267 0.5560229 0.530939 -0.3784266 0.5556373 0.530623 -0.3781105 0.555262 0.5302916 -0.3777791 0.5548981 0.5299454 -0.377433 0.5545464 0.5295853 -0.3770728 0.5542079 0.5292119 -0.3766994 0.5538833 0.5288259 -0.3763135 0.5535735 0.5284285 -0.3759161 0.5532791 0.5280204 -0.375508 0.5530007 0.5276027 -0.3750903 0.5527389 0.5271763 -0.3746639 0.5524942 0.5267424 -0.3742299 0.552267 0.5263019 -0.3737895 0.5520575 0.525856 -0.3733435 0.551866 0.5254056 -0.3728932 0.5516926 0.524952 -0.3724396 0.5515375 0.5244961 -0.3719836 0.5514005 0.5238865 -0.3713741 0.5512458 0.523201 -0.3706886 0.5511096 0.522519 -0.3700067 0.5510124 0.5218436 -0.3693312 0.5509529 0.5214545 -0.3689421 0.5509352 0.521069 -0.3685566 0.5509293 0.5335125 -0.127 0.5610893 0.5334205 -0.1270919 0.5606745 0.5333135 -0.1271989 0.5602583 0.5331858 -0.1273266 0.559825 0.5330413 -0.1274712 0.5593918 0.5328795 -0.1276329 0.55896 0.5327004 -0.127812 0.5585302 0.5325038 -0.1280086 0.5581035 0.5322898 -0.1282226 0.5576809 0.5320584 -0.128454 0.5572635 0.5318097 -0.1287027 0.5568523 0.5315134 -0.1289991 0.5564039 0.5311599 -0.1293525 0.555918 0.5307817 -0.1297307 0.5554468 0.5303796 -0.1301327 0.5549921 0.5299549 -0.1305575 0.5545557 0.5295087 -0.1310037 0.5541393 0.5290426 -0.1314698 0.5537444 0.5285032 -0.1320092 0.5533326 0.5278802 -0.1326321 0.5529103 0.5272355 -0.1332769 0.5525269 0.5265728 -0.1339396 0.5521839 0.525896 -0.1346164 0.5518824 0.5252087 -0.1353037 0.5516229 0.5245148 -0.1359976 0.5514057 0.5238179 -0.1366945 0.5512304 0.5231217 -0.1373907 0.5510963 0.5224294 -0.138083 0.5510024 0.5217442 -0.1387681 0.5509473 0.521069 -0.1394433 0.5509293 0.3176124 -0.4572 0.5356893 0.6097124 -0.05079996 0.5356893 0.6097124 -0.4572 0.5356893 0.3176124 -0.05079996 0.5356893 0.6097124 -0.05079996 0.5610893 0.3176124 -0.05079996 0.5610893 0.6097124 -0.4572 0.5610893 0.3176124 -0.4572 0.5610893</float_array>
          <technique_common>
            <accessor source="#Part__Feature_014-mesh-positions-array" count="140" stride="3">
              <param name="X" type="float"/>
              <param name="Y" type="float"/>
              <param name="Z" type="float"/>
            </accessor>
          </technique_common>
        </source>
        <source id="Part__Feature_014-mesh-normals">
          <float_array id="Part__Feature_014-mesh-normals-array" count="888">0.9762982 0 0.2164301 0.9684684 -1.60209e-6 0.2491365 0.97617 5.1908e-7 0.2170075 0.9592824 -2.28674e-6 0.282449 0.9679996 2.11752e-6 0.2509522 0.9485697 -2.51517e-6 0.3165687 0.9585022 2.01677e-6 0.2850854 0.9363942 -2.24496e-6 0.35095 0.9476497 2.45391e-6 0.3193118 0.9229849 -2.47488e-6 0.3848363 0.9355217 2.01088e-6 0.3532694 0.9084117 -2.6994e-6 0.4180768 0.9220119 2.04187e-6 0.3871618 0.8921422 -2.43838e-6 0.4517548 0.9070651 2.18073e-6 0.4209904 0.8745374 -2.42487e-6 0.4849581 0.890775 2.73063e-6 0.4544449 0.8732208 2.70051e-6 0.4873249 0.8555902 -2.65326e-6 0.517654 0.8542202 2.73216e-6 0.5199114 0.834452 -2.64038e-6 0.5510806 0.8344521 -2.62981e-6 0.5510807 0.8344521 -2.67106e-6 0.5510807 0.8338068 -1.09032e-6 0.5520564 0.8121512 1.67526e-6 0.583447 0.8087173 -9.41812e-6 0.5881977 0.789107 8.00481e-6 0.6142557 0.7798098 -1.3934e-5 0.6260166 0.7649875 9.30542e-6 0.6440452 0.7491717 -1.41995e-5 0.6623759 0.7392443 7.4603e-6 0.6734374 0.716659 -9.84634e-6 0.6974238 0.7127026 1.23198e-6 0.7014664 0.6847735 -9.53957e-7 0.728756 0.682466 -8.30425e-6 0.7309173 0.6560342 6.57637e-6 0.7547312 0.6463396 -1.3979e-5 0.7630499 0.6261275 9.71893e-6 0.7797208 0.6069532 -1.76906e-5 0.7947377 0.6069532 -1.76815e-5 0.7947377 0.6069532 -1.7712e-5 0.7947378 0.5953011 6.17879e-6 0.8035027 0.560965 -1.61497e-5 0.8278397 0.5637847 -8.45175e-6 0.8259219 0.5111799 -2.28292e-5 0.8594738 0.5310082 8.39138e-6 0.8473667 0.4979314 4.84669e-6 0.8672165 0.4979314 4.84187e-6 0.8672165 0.4979314 4.81852e-6 0.8672164 0.4636743 -6.5214e-6 0.8860058 0.4597837 -1.71135e-5 0.8880311 0.4067734 -2.18047e-5 0.9135292 0.4295675 9.25732e-6 0.9030348 0.3944038 3.39531e-6 0.9189373 0.3944038 3.3801e-6 0.9189373 0.3944038 3.37983e-6 0.9189373 0.3530557 -1.83097e-5 0.9356024 0.3592935 -3.78912e-6 0.9332246 0.2987771 -2.02316e-5 0.9543229 0.323532 9.35499e-6 0.9462173 0.3235319 9.34376e-6 0.9462173 0.3235319 9.32017e-6 0.9462173 0.2878834 1.54626e-6 0.9576656 0.2878834 1.52516e-6 0.9576655 0.2878834 1.50917e-6 0.9576655 0.2440052 -7.59203e-6 0.969774 0.2459603 -2.05882e-6 0.9692799 0.18892 -8.40899e-6 0.9819925 0.1950469 7.36694e-6 0.980794 0.134422 -9.15287e-6 0.9909242 0.1406878 7.74757e-6 0.990054 0.1406877 7.79012e-6 0.990054 0.1406877 7.73906e-6 0.990054 0.08025479 -1.02986e-5 0.9967744 0.08744788 9.10927e-6 0.9961691 0.08744788 9.09912e-6 0.9961691 0.08744788 9.13642e-6 0.9961691 0.02648705 -1.9019e-5 0.9996492 0.04532587 5.24605e-6 0.9989722 0.04532581 5.26443e-6 0.9989722 0.04532587 5.28751e-6 0.9989722 0.01518607 0 0.9998847 0 0.9761642 0.2170336 0 0.9761521 0.2170878 0 0.9679974 0.2509604 0 0.9680346 0.2508168 0 0.9680346 0.2508168 0 0.9680346 0.2508168 0 0.9584782 0.2851659 0 0.9585254 0.2850072 0 0.9476467 0.3193206 0 0.935564 0.3531574 0 0.935564 0.3531574 0 0.935564 0.3531574 0 0.9476367 0.3193507 0 0.9220682 0.3870273 0 0.9355171 0.3532816 0 0.9219966 0.3871981 0 0.907105 0.4209046 0 0.9070826 0.4209528 0 0.8908327 0.4543317 0 0.8731249 0.4874967 0 0.890812 0.4543722 0 0.873147 0.4874572 0 0.8542144 0.5199212 0 0.8541753 0.5199854 0 0.8337884 0.5520842 0 0.8339 0.5519156 0 0.8120185 0.5836318 0 0.8119985 0.5836596 0 0.7891861 0.6141543 0 0.789141 0.6142122 0 0.7648661 0.6441894 0 0.7393264 0.6733473 0 0.7648556 0.6442018 0 0.7126814 0.7014878 0 0.7393557 0.6733151 0 0.7127293 0.7014392 0 0.6848161 0.728716 0 0.684863 0.7286718 0 0.6560352 0.7547303 0 0.6561155 0.7546605 0 0.6260691 0.7797677 0 0.6260114 0.7798139 0 0.5952495 0.803541 0 0.563564 0.8260726 0 0.5952165 0.8035655 0 0.5310596 0.8473345 0 0.5636346 0.8260243 0 0.4976851 0.8673579 0 0.5310683 0.8473291 0 0.4977463 0.8673227 0 0.463808 0.8859357 0 0.4638354 0.8859215 0 0.4295538 0.9030414 0 0.4293481 0.9031392 0 0.4293481 0.9031392 0 0.4293481 0.9031392 0 0.3945558 0.9188721 0 0.3945283 0.9188838 0 0.3593904 0.9331874 0 0.3592832 0.9332286 0 0.3235144 0.9462232 0 0.3235239 0.94622 0 0.2878441 0.9576773 0 0.2878014 0.9576901 0 0.2459596 0.9692801 0 0.2459769 0.9692757 0 0.1948876 0.9808256 0 0.1948894 0.9808252 0 0.1411293 0.9899913 0 0.1411312 0.989991 0 0.08771651 0.9961456 0 0.08772093 0.9961451 0 0.0454486 0.9989668 0 0.04545128 0.9989666 0 0.01530629 0.9998829 0 0.01530146 0.999883 0 -0.9763148 0.2163553 0 -0.968459 0.2491732 0 -0.9763341 0.2162678 0 -0.9592816 0.2824514 0 -0.9684417 0.2492403 0 -0.948557 0.3166067 0 -0.9592537 0.2825465 0 -0.948553 0.3166182 0 -0.9365158 0.3506255 0 -0.9364975 0.3506745 0 -0.9082341 0.4184625 0 -0.9230532 0.3846724 0 -0.9230373 0.3847105 0 -0.9082179 0.4184979 0 -0.8745664 0.4849058 0 -0.8921259 0.4517871 0 -0.8921623 0.4517152 0 -0.8745966 0.4848514 0 -0.8556824 0.5175015 0 -0.8341693 0.5515085 0 -0.8556768 0.5175107 0 -0.8341892 0.5514784 0 -0.8087408 0.5881653 0 -0.8087612 0.5881372 0 -0.7798503 0.6259661 0 -0.779855 0.6259604 0 -0.7491561 0.6623936 0 -0.7491154 0.6624395 0 -0.716601 0.6974835 0 -0.6822583 0.7311113 0 -0.7166044 0.69748 0 -0.6822605 0.7311092 0 -0.6464102 0.7629901 0 -0.6464182 0.7629834 0 -0.6068099 0.794847 0 -0.6068056 0.7948503 0 -0.5610969 0.8277502 0 -0.5610899 0.8277549 0 -0.5111938 0.8594655 0 -0.4595959 0.8881282 0 -0.5111746 0.8594769 0 -0.4069834 0.9134355 0 -0.4596316 0.8881098 0 -0.3531857 0.9355533 0 -0.4069545 0.9134485 0 -0.2987103 0.9543439 0 -0.3531644 0.9355613 0 -0.243946 0.9697889 0 -0.2987279 0.9543384 0 -0.1891488 0.9819485 0 -0.2439388 0.9697907 0 -0.1344593 0.9909192 0 -0.1891549 0.9819473 0 -0.08012008 0.9967853 0 -0.1344577 0.9909194 0 -0.02664941 0.9996449 0 -0.08011984 0.9967854 0 -0.02665096 0.9996449 -0.9762834 0 0.216497 -0.9761557 1.13547e-6 0.2170717 -0.9679509 2.34199e-6 0.2511397 -0.9684684 -1.06806e-6 0.2491365 -0.9584842 2.47725e-6 0.2851459 -0.9591929 -2.54058e-6 0.2827525 -0.9476497 2.70559e-6 0.3193119 -0.9486479 -2.51538e-6 0.3163339 -0.9355856 1.99543e-6 0.3531001 -0.9364367 -1.99561e-6 0.3508365 -0.9219433 2.32013e-6 0.3873251 -0.9229621 -2.47482e-6 0.3848907 -0.9070651 2.51859e-6 0.4209903 -0.9082913 -2.69904e-6 0.4183382 -0.8908768 2.0444e-6 0.4542451 -0.8921676 -2.1946e-6 0.4517048 -0.8745639 -2.90994e-6 0.4849105 -0.8731145 2.88222e-6 0.4875152 -0.8556451 -2.65343e-6 0.5175632 -0.8541926 2.95849e-6 0.5199567 -0.8341879 -2.59438e-6 0.5514804 -0.8338634 -1.21071e-6 0.5519708 -0.8122383 1.43609e-6 0.5833259 -0.8086228 -9.61119e-6 0.5883277 -0.788989 7.40633e-6 0.6144074 -0.7799062 -1.34519e-5 0.6258965 -0.765107 9.18755e-6 0.6439032 -0.7490985 -1.42947e-5 0.6624587 -0.7392445 7.04252e-6 0.6734372 -0.7166588 -1.00394e-5 0.6974239 -0.712612 8.21212e-7 0.7015584 -0.6848638 -9.54083e-7 0.7286711 -0.6824659 -8.52215e-6 0.7309175 -0.6560045 6.45651e-6 0.7547571 -0.6463394 -1.41732e-5 0.76305 -0.6260099 9.59714e-6 0.7798152 -0.606932 -1.77853e-5 0.7947539 -0.606932 -1.78236e-5 0.7947539 -0.606932 -1.77968e-5 0.7947538 -0.5954165 5.87852e-6 0.8034173 -0.5636726 -8.6915e-6 0.8259984 -0.5310624 8.63549e-6 0.8473327 -0.5610386 -1.59529e-5 0.8277897 -0.5111975 -2.25897e-5 0.8594633 -0.4976403 4.44416e-6 0.8673835 -0.4640214 -6.22971e-6 0.885824 -0.4640214 -6.19704e-6 0.885824 -0.4640214 -6.19321e-6 0.8858241 -0.4295202 9.19418e-6 0.9030574 -0.4597347 -1.71928e-5 0.8880563 -0.3947789 3.07668e-6 0.9187762 -0.3596582 -2.85404e-6 0.9330842 -0.3596582 -2.86808e-6 0.9330842 -0.3596582 -2.81898e-6 0.9330842 -0.4068182 -2.19711e-5 0.9135091 -0.3235892 9.34015e-6 0.9461978 -0.3235891 9.35239e-6 0.9461977 -0.3235891 9.33303e-6 0.9461978 -0.353002 -1.82445e-5 0.9356226 -0.287562 1.66771e-6 0.9577621 -0.2459717 -1.96087e-6 0.9692771 -0.2988122 -2.04452e-5 0.954312 -0.1950142 7.36571e-6 0.9808005 -0.2439756 -7.80677e-6 0.9697815 -0.1411623 8.42339e-6 0.9899865 -0.1889513 -8.39939e-6 0.9819865 -0.08778607 9.14222e-6 0.9961394 -0.1343993 -9.17376e-6 0.9909273 -0.04581522 4.6707e-6 0.99895 -0.08025479 -1.03101e-5 0.9967744 -0.01518136 0 0.9998849 -0.02648705 -1.90249e-5 0.9996492 0 0 1 0 0 -1 1.53979e-6 0 1 -1.15484e-6 0 1 0 -1 0 -1 0 0 0 1 0 1 0 0</float_array>
          <technique_common>
            <accessor source="#Part__Feature_014-mesh-normals-array" count="296" stride="3">
              <param name="X" type="float"/>
              <param name="Y" type="float"/>
              <param name="Z" type="float"/>
            </accessor>
          </technique_common>
        </source>
        <vertices id="Part__Feature_014-mesh-vertices">
          <input semantic="POSITION" source="#Part__Feature_014-mesh-positions"/>
        </vertices>
        <triangles material="Part__Feature_014-material" count="276">
          <input semantic="VERTEX" source="#Part__Feature_014-mesh-vertices" offset="0"/>
          <input semantic="NORMAL" source="#Part__Feature_014-mesh-normals" offset="1"/>
          <p>0 0 1 0 2 0 2 1 3 1 4 1 1 2 3 2 2 2 4 3 5 3 6 3 3 4 5 4 4 4 6 5 7 5 8 5 5 6 7 6 6 6 8 7 9 7 10 7 7 8 9 8 8 8 10 9 11 9 12 9 9 10 11 10 10 10 12 11 13 11 14 11 11 12 13 12 12 12 14 13 15 13 16 13 13 14 15 14 14 14 16 15 17 15 18 15 15 16 17 16 16 16 17 17 19 17 18 17 18 18 19 18 20 18 19 19 21 19 20 19 20 20 21 21 22 22 21 23 23 23 22 23 23 24 24 24 22 24 22 25 24 25 25 25 24 26 26 26 25 26 25 27 26 27 27 27 26 28 28 28 27 28 27 29 28 29 29 29 28 30 30 30 29 30 29 31 30 31 31 31 30 32 32 32 31 32 32 33 33 33 31 33 31 34 33 34 34 34 33 35 35 35 34 35 34 36 35 36 36 36 35 37 37 37 36 37 36 38 37 39 38 40 37 41 39 41 38 41 38 42 40 42 41 42 39 43 40 43 38 43 41 44 42 44 43 44 40 45 42 45 41 45 42 46 44 47 43 48 44 49 45 49 43 49 43 50 45 50 46 50 46 51 47 51 48 51 45 52 47 52 46 52 47 53 49 54 48 55 48 56 50 56 51 56 49 57 50 57 48 57 51 58 52 58 53 58 50 59 52 60 51 61 52 62 54 63 53 64 53 65 55 65 56 65 54 66 55 66 53 66 56 67 57 67 58 67 55 68 57 68 56 68 58 69 59 69 60 69 57 70 59 71 58 72 60 73 61 73 62 73 59 74 61 75 60 76 62 77 63 77 64 77 61 78 63 79 62 80 63 81 65 81 64 81 1 82 66 82 3 82 66 83 67 83 3 83 3 84 68 84 5 84 67 85 68 86 3 87 5 88 69 88 7 88 68 89 69 89 5 89 7 90 70 90 9 90 9 91 70 92 11 93 69 94 70 94 7 94 11 95 71 95 13 95 70 96 71 96 11 96 71 97 72 97 13 97 13 98 72 98 15 98 72 99 73 99 15 99 15 100 73 100 17 100 17 101 74 101 19 101 73 102 74 102 17 102 74 103 75 103 19 103 75 104 76 104 19 104 19 105 76 105 21 105 21 106 77 106 23 106 76 107 77 107 21 107 23 108 78 108 24 108 77 109 78 109 23 109 24 110 79 110 26 110 78 111 79 111 24 111 26 112 80 112 28 112 28 113 80 113 30 113 79 114 80 114 26 114 30 115 81 115 32 115 80 116 81 116 30 116 81 117 82 117 32 117 32 118 83 118 33 118 82 119 83 119 32 119 33 120 84 120 35 120 83 121 84 121 33 121 35 122 85 122 37 122 84 123 85 123 35 123 37 124 86 124 39 124 39 125 86 125 40 125 85 126 86 126 37 126 40 127 87 127 42 127 86 128 87 128 40 128 42 129 88 129 44 129 87 130 88 130 42 130 88 131 89 131 44 131 44 132 90 132 45 132 89 133 90 133 44 133 45 134 91 134 47 134 90 135 91 136 45 137 47 138 92 138 49 138 91 139 92 139 47 139 49 140 93 140 50 140 92 141 93 141 49 141 50 142 94 142 52 142 93 143 94 143 50 143 52 144 95 144 54 144 94 145 95 145 52 145 54 146 96 146 55 146 95 147 96 147 54 147 55 148 97 148 57 148 96 149 97 149 55 149 97 150 98 150 57 150 57 151 98 151 59 151 98 152 99 152 59 152 59 153 99 153 61 153 99 154 100 154 61 154 61 155 100 155 63 155 100 156 101 156 63 156 63 157 101 157 65 157 0 158 2 158 102 158 103 159 2 159 104 159 102 160 2 160 103 160 104 161 4 161 105 161 2 162 4 162 104 162 105 163 6 163 106 163 4 164 6 164 105 164 6 165 8 165 106 165 106 166 10 166 107 166 8 167 10 167 106 167 108 168 12 168 109 168 107 169 12 169 108 169 10 170 12 170 107 170 12 171 14 171 109 171 110 172 16 172 111 172 109 173 16 173 110 173 14 174 16 174 109 174 16 175 18 175 111 175 18 176 20 176 111 176 112 177 20 177 113 177 111 178 20 178 112 178 20 179 22 179 113 179 113 180 22 180 114 180 22 181 25 181 114 181 25 182 27 182 114 182 114 183 27 183 115 183 27 184 29 184 115 184 115 185 29 185 116 185 29 186 31 186 116 186 117 187 31 187 118 187 116 188 31 188 117 188 31 189 34 189 118 189 118 190 34 190 119 190 34 191 36 191 119 191 119 192 36 192 120 192 36 193 38 193 120 193 120 194 38 194 121 194 38 195 41 195 121 195 121 196 41 196 122 196 122 197 43 197 123 197 41 198 43 198 122 198 123 199 46 199 124 199 43 200 46 200 123 200 124 201 48 201 125 201 46 202 48 202 124 202 125 203 51 203 126 203 48 204 51 204 125 204 126 205 53 205 127 205 51 206 53 206 126 206 127 207 56 207 128 207 53 208 56 208 127 208 128 209 58 209 129 209 56 210 58 210 128 210 129 211 60 211 130 211 58 212 60 212 129 212 130 213 62 213 131 213 60 214 62 214 130 214 62 215 64 215 131 215 102 216 103 216 66 216 66 217 103 217 67 217 67 218 104 218 68 218 103 219 104 219 67 219 68 220 105 220 69 220 104 221 105 221 68 221 69 222 106 222 70 222 105 223 106 223 69 223 70 224 107 224 71 224 106 225 107 225 70 225 71 226 108 226 72 226 107 227 108 227 71 227 72 228 109 228 73 228 108 229 109 229 72 229 73 230 110 230 74 230 109 231 110 231 73 231 110 232 111 232 74 232 74 233 111 233 75 233 111 234 112 234 75 234 75 235 112 235 76 235 112 236 113 236 76 236 76 237 113 237 77 237 77 238 113 238 78 238 113 239 114 239 78 239 78 240 114 240 79 240 114 241 115 241 79 241 79 242 115 242 80 242 115 243 116 243 80 243 80 244 116 244 81 244 116 245 117 245 81 245 81 246 117 246 82 246 82 247 117 247 83 247 117 248 118 248 83 248 83 249 118 249 84 249 118 250 119 250 84 250 84 251 119 251 85 251 119 252 120 253 85 254 85 255 120 255 86 255 86 256 120 256 87 256 87 257 121 257 88 257 120 258 121 258 87 258 121 259 122 259 88 259 88 260 122 260 89 260 89 261 122 262 90 263 90 264 123 264 91 264 122 265 123 265 90 265 91 266 124 266 92 266 92 267 124 268 93 269 123 270 124 270 91 270 93 271 125 272 94 273 124 274 125 274 93 274 94 275 126 275 95 275 95 276 126 276 96 276 125 277 126 277 94 277 96 278 127 278 97 278 126 279 127 279 96 279 97 280 128 280 98 280 127 281 128 281 97 281 98 282 129 282 99 282 128 283 129 283 98 283 99 284 130 284 100 284 129 285 130 285 99 285 100 286 131 286 101 286 130 287 131 287 100 287 131 288 64 288 65 288 131 288 65 288 101 288 132 289 133 289 134 289 132 289 135 289 133 289 136 288 0 288 102 288 136 288 137 288 0 288 66 290 138 290 102 290 102 288 138 288 136 288 0 291 139 291 1 291 1 288 139 288 66 288 137 288 139 288 0 288 66 288 139 288 138 288 132 292 134 292 139 292 139 292 134 292 138 292 139 293 137 293 132 293 132 293 137 293 135 293 136 294 133 294 137 294 137 294 133 294 135 294 134 295 136 295 138 295 133 295 136 295 134 295</p>
        </triangles>
      </mesh>
    </geometry>
  </library_geometries>
  <library_visual_scenes>
    <visual_scene id="Scene" name="Scene">
      <node id="node3" name="node3" type="NODE">
        <matrix sid="transform">1 0 0 0 0 1 0 0 0 0 1 0 0 0 0 1</matrix>
        <instance_geometry url="#Part__Feature003_004-mesh" name="node3">
          <bind_material>
            <technique_common>
              <instance_material symbol="Part__Feature003_004-material" target="#Part__Feature003_004-material"/>
            </technique_common>
          </bind_material>
        </instance_geometry>
      </node>
      <node id="node2" name="node2" type="NODE">
        <matrix sid="transform">1 0 0 0 0 1 0 0 0 0 1 0 0 0 0 1</matrix>
        <instance_geometry url="#Part__Feature002_005-mesh" name="node2">
          <bind_material>
            <technique_common>
              <instance_material symbol="Part__Feature002_005-material" target="#Part__Feature002_005-material"/>
            </technique_common>
          </bind_material>
        </instance_geometry>
      </node>
      <node id="node1" name="node1" type="NODE">
        <matrix sid="transform">1 0 0 0 0 1 0 0 0 0 1 0 0 0 0 1</matrix>
        <instance_geometry url="#Part__Feature001_007-mesh" name="node1">
          <bind_material>
            <technique_common>
              <instance_material symbol="Part__Feature001_007-material" target="#Part__Feature001_007-material"/>
            </technique_common>
          </bind_material>
        </instance_geometry>
      </node>
      <node id="node0" name="node0" type="NODE">
        <matrix sid="transform">1 0 0 0 0 1 0 0 0 0 1 0 0 0 0 1</matrix>
        <instance_geometry url="#Part__Feature_014-mesh" name="node0">
          <bind_material>
            <technique_common>
              <instance_material symbol="Part__Feature_014-material" target="#Part__Feature_014-material"/>
            </technique_common>
          </bind_material>
        </instance_geometry>
      </node>
      <node id="Camera" name="Camera" type="NODE">
        <matrix sid="transform">0.6859207 -0.3240135 0.6515582 7.358891 0.7276763 0.3054208 -0.6141704 -6.925791 0 0.8953956 0.4452714 4.958309 0 0 0 1</matrix>
        <instance_camera url="#Camera-camera"/>
      </node>
      <node id="Light" name="Light" type="NODE">
        <matrix sid="transform">-0.2908646 -0.7711008 0.5663932 4.076245 0.9551712 -0.1998834 0.2183912 1.005454 -0.05518906 0.6045247 0.7946723 5.903862 0 0 0 1</matrix>
        <instance_light url="#Light-light"/>
      </node>
    </visual_scene>
  </library_visual_scenes>
  <scene>
    <instance_visual_scene url="#Scene"/>
  </scene>
</COLLADA>