<?xml version="1.0" encoding="utf-8"?>
<COLLADA xmlns="http://www.collada.org/2005/11/COLLADASchema" version="1.4.1" xmlns:xsi="http://www.w3.org/2001/XMLSchema-instance">
  <asset>
    <contributor>
      <author>Blender User</author>
      <authoring_tool>Blender 4.0.2 commit date:2023-12-05, commit time:07:41, hash:9be62e85b727</authoring_tool>
    </contributor>
    <created>2024-01-15T15:17:01</created>
    <modified>2024-01-15T15:17:01</modified>
    <unit name="meter" meter="1"/>
    <up_axis>Z_UP</up_axis>
  </asset>
  <library_cameras>
    <camera id="Camera-camera" name="Camera">
      <optics>
        <technique_common>
          <perspective>
            <xfov sid="xfov">39.59775</xfov>
            <aspect_ratio>1.777778</aspect_ratio>
            <znear sid="znear">0.1</znear>
            <zfar sid="zfar">100</zfar>
          </perspective>
        </technique_common>
      </optics>
      <extra>
        <technique profile="blender">
          <shiftx sid="shiftx" type="float">0</shiftx>
          <shifty sid="shifty" type="float">0</shifty>
          <dof_distance sid="dof_distance" type="float">10</dof_distance>
        </technique>
      </extra>
    </camera>
  </library_cameras>
  <library_lights>
    <light id="Light-light" name="Light">
      <technique_common>
        <point>
          <color sid="color">1000 1000 1000</color>
          <constant_attenuation>1</constant_attenuation>
          <linear_attenuation>0</linear_attenuation>
          <quadratic_attenuation>0</quadratic_attenuation>
        </point>
      </technique_common>
      <extra>
        <technique profile="blender">
          <type sid="type" type="int">0</type>
          <flag sid="flag" type="int">0</flag>
          <mode sid="mode" type="int">1</mode>
          <red sid="red" type="float">1</red>
          <green sid="green" type="float">1</green>
          <blue sid="blue" type="float">1</blue>
          <shadow_r sid="blender_shadow_r" type="float">0</shadow_r>
          <shadow_g sid="blender_shadow_g" type="float">0</shadow_g>
          <shadow_b sid="blender_shadow_b" type="float">0</shadow_b>
          <energy sid="blender_energy" type="float">1000</energy>
          <spotsize sid="spotsize" type="float">75</spotsize>
          <spotblend sid="spotblend" type="float">0.15</spotblend>
          <clipsta sid="clipsta" type="float">0.04999995</clipsta>
          <clipend sid="clipend" type="float">30.002</clipend>
          <bias sid="bias" type="float">1</bias>
          <radius sid="radius" type="float">0.1</radius>
          <area_shape sid="area_shape" type="int">1</area_shape>
          <area_size sid="area_size" type="float">0.1</area_size>
          <area_sizey sid="area_sizey" type="float">0.1</area_sizey>
          <area_sizez sid="area_sizez" type="float">1</area_sizez>
        </technique>
      </extra>
    </light>
  </library_lights>
  <library_effects>
    <effect id="Part__Feature_011-effect">
      <profile_COMMON>
        <technique sid="common">
          <lambert>
            <emission>
              <color sid="emission">0 0 0 1</color>
            </emission>
            <diffuse>
              <color sid="diffuse">0 0 0 1</color>
            </diffuse>
            <index_of_refraction>
              <float sid="ior">1.45</float>
            </index_of_refraction>
          </lambert>
        </technique>
      </profile_COMMON>
    </effect>
  </library_effects>
  <library_images/>
  <library_materials>
    <material id="Part__Feature_011-material" name="Part__Feature.011">
      <instance_effect url="#Part__Feature_011-effect"/>
    </material>
  </library_materials>
  <library_geometries>
    <geometry id="Part__Feature_011-mesh" name="Part__Feature.011">
      <mesh>
        <source id="Part__Feature_011-mesh-positions">
          <float_array id="Part__Feature_011-mesh-positions-array" count="1194">2.182084 -0.6086753 0.5991893 2.182272 -0.6076433 0.6060923 2.182606 -0.6064362 0.5991893 2.184035 -0.6039627 0.5991893 2.184777 -0.6032169 0.6060741 2.186013 -0.6022184 0.5991893 2.186167 -0.6021587 0.6061682 2.187989 -0.6012485 0.5991893 2.187367 -0.601541 0.6063855 2.188712 -0.6010573 0.6061053 2.190573 -0.6007511 0.5991893 2.190339 -0.600831 0.6063835 2.194043 -0.6013058 0.5991893 2.192982 -0.6010479 0.6060698 2.194503 -0.60158 0.6059818 2.196656 -0.6029341 0.5991893 2.195764 -0.6022824 0.6061368 2.198252 -0.6047451 0.5991893 2.198663 -0.6055008 0.6060559 2.199281 -0.6069316 0.5991893 2.199269 -0.6069727 0.6059843 2.199622 -0.608641 0.6061898 2.199651 -0.6088231 0.5991893 2.182074 -0.7116938 0.6060506 2.199633 -0.7122983 0.5991893 2.199604 -0.7122862 0.6062606 2.199098 -0.714366 0.5991893 2.197963 -0.7164896 0.5991893 2.19875 -0.7150515 0.6064651 2.195721 -0.7186012 0.5991893 2.19624 -0.7181737 0.6061734 2.193317 -0.7196841 0.5991893 2.192331 -0.7198989 0.6059247 2.190712 -0.7200526 0.5991893 2.189658 -0.7199152 0.6061834 2.188322 -0.7196502 0.5991893 2.188183 -0.7195945 0.606055 2.186311 -0.7187803 0.5991893 2.186845 -0.7189896 0.6066501 2.185603 -0.7182482 0.6063707 2.184123 -0.7169423 0.5991893 2.184123 -0.7168846 0.6060594 2.183278 -0.7156515 0.6061905 2.182815 -0.7148247 0.5991893 2.182628 -0.714345 0.6059449 2.18211 -0.7125151 0.5991893 2.182271 -0.713025 0.6064203 2.192593 -0.7136311 0.6118882 2.189389 -0.607045 0.6118829 2.182409 -0.7090831 0.5991894 2.18282 -0.7078728 0.5991892 2.183364 -0.7067609 0.5991893 2.182263 -0.6109944 0.5991891 2.18265 -0.6125153 0.5991893 2.183368 -0.6140475 0.5991893 2.199475 -0.7098836 0.5991892 2.19919 -0.7086681 0.5991892 2.198679 -0.7073525 0.5991893 2.199556 -0.6101825 0.5991893 2.199398 -0.6113047 0.5991892 2.199043 -0.6126002 0.5991893 2.198378 -0.6140086 0.5991893 2.184381 -0.7170276 0.5991893 2.185348 -0.7179349 0.5991892 2.183367 -0.7156459 0.5991893 2.186284 -0.7186124 0.5991893 2.187924 -0.7194042 0.5991893 2.182652 -0.7141224 0.5991893 2.18954 -0.7198144 0.5991892 2.182249 -0.7125103 0.5991892 2.190862 -0.7199041 0.5991892 2.182161 -0.7106712 0.5991894 2.192241 -0.7198034 0.5991892 2.193824 -0.7193958 0.5991893 2.195385 -0.7186489 0.5991893 2.196716 -0.7176561 0.5991893 2.197592 -0.7167206 0.5991892 2.19834 -0.7156748 0.5991893 2.199043 -0.7141992 0.5991893 2.199398 -0.7129048 0.5991892 2.199556 -0.7117825 0.5991893 2.18439 -0.7053629 0.5991893 2.184397 -0.615444 0.5991892 2.185338 -0.6163265 0.5991892 2.185724 -0.7041621 0.5991893 2.186403 -0.6170873 0.5991893 2.18714 -0.7033205 0.5991894 2.18753 -0.6176406 0.5991892 2.188787 -0.6180636 0.5991893 2.188337 -0.7028706 0.5991892 2.189616 -0.7025752 0.5991893 2.190009 -0.6182622 0.5991892 2.191318 -0.6183028 0.5991893 2.191302 -0.7024968 0.5991893 2.182159 -0.6091384 0.5991894 2.192989 -0.702749 0.5991893 2.182403 -0.6075063 0.5991893 2.19298 -0.6180536 0.5991893 2.18282 -0.6062723 0.5991892 2.194194 -0.617641 0.5991892 2.194195 -0.7031592 0.5991892 2.18335 -0.6051858 0.5991893 2.195328 -0.617083 0.5991893 2.195327 -0.7037163 0.5991893 2.18439 -0.603763 0.5991893 2.196797 -0.6159797 0.5991892 2.196387 -0.7044738 0.5991892 2.197376 -0.7054119 0.5991893 2.197592 -0.6151199 0.5991892 2.185587 -0.6026663 0.5991893 2.198099 -0.7063639 0.5991892 2.187134 -0.6017236 0.5991893 2.188728 -0.6011513 0.5991893 2.190423 -0.6008968 0.5991894 2.199475 -0.6082802 0.5991892 2.191716 -0.600938 0.5991892 2.192977 -0.601146 0.5991893 2.199078 -0.6066949 0.5991893 2.1946 -0.6017282 0.5991894 2.198341 -0.6051275 0.5991894 2.1957 -0.602364 0.5991892 2.197593 -0.6040817 0.5991892 2.196711 -0.6031395 0.5991893 2.182329 -0.7119089 0.6074103 2.182794 -0.7125782 0.6083441 2.182993 -0.7116639 0.6088734 2.183224 -0.7151988 0.6071887 2.182867 -0.7141115 0.6075416 2.183538 -0.7140296 0.6089643 2.183589 -0.7121023 0.6096541 2.184088 -0.7164892 0.6072357 2.184581 -0.7121747 0.6105929 2.184097 -0.7155721 0.6085973 2.185416 -0.7177778 0.6074931 2.18471 -0.7135969 0.6103929 2.18488 -0.716697 0.6084615 2.185745 -0.7117177 0.6113142 2.184719 -0.714726 0.6099186 2.18559 -0.7164379 0.6095454 2.18611 -0.7176809 0.6086309 2.187014 -0.7125254 0.6117091 2.18645 -0.7136284 0.6113841 2.187464 -0.7185515 0.6085358 2.188471 -0.7193868 0.6074862 2.185755 -0.7149746 0.6105762 2.186651 -0.7164675 0.6102666 2.186536 -0.7148934 0.6110388 2.191108 -0.7199718 0.6064741 2.187224 -0.7175986 0.6096061 2.189969 -0.7196941 0.6074318 2.188792 -0.7187559 0.6089609 2.190399 -0.7193472 0.6084202 2.187708 -0.7165523 0.6106941 2.189146 -0.7179903 0.6100285 2.188199 -0.7126197 0.6118853 2.193562 -0.719573 0.6062135 2.192679 -0.719553 0.607444 2.19035 -0.7185956 0.6095601 2.18826 -0.7154536 0.6113957 2.192275 -0.719158 0.6085386 2.194752 -0.7190931 0.606212 2.188946 -0.7147845 0.6117102 2.189239 -0.717095 0.6107614 2.194637 -0.718931 0.6072274 2.192355 -0.7184638 0.6095601 2.193812 -0.7186048 0.6087605 2.194896 -0.7183818 0.6082217 2.195888 -0.7181187 0.60739 2.191065 -0.71745 0.6106796 2.190271 -0.7161602 0.6113845 2.197158 -0.7173063 0.6065956 2.198146 -0.716135 0.606185 2.196643 -0.7170399 0.6082973 2.193528 -0.7174817 0.6101939 2.192228 -0.7167515 0.6110197 2.195162 -0.717486 0.6092796 2.197876 -0.7159302 0.6076815 2.190303 -0.7148193 0.6118043 2.196367 -0.7166103 0.6091264 2.199213 -0.7138992 0.6064829 2.192423 -0.7158764 0.6114147 2.195563 -0.7163209 0.6100757 2.193856 -0.7163062 0.6108809 2.198411 -0.7146166 0.6081162 2.197573 -0.7154467 0.6087749 2.196979 -0.7148738 0.6098775 2.195039 -0.7154739 0.6108546 2.192919 -0.7144553 0.6117583 2.199161 -0.7128912 0.6076533 2.198645 -0.7131726 0.60865 2.197961 -0.71375 0.609404 2.199252 -0.7115533 0.607894 2.194139 -0.7145815 0.611506 2.195701 -0.7145559 0.61092 2.196973 -0.7128878 0.6106085 2.19827 -0.7117773 0.6095259 2.195752 -0.7132105 0.6112561 2.197376 -0.7119919 0.6104194 2.196147 -0.7119808 0.6112199 2.194279 -0.7124942 0.6117988 2.195057 -0.7119392 0.6116479 2.199315 -0.6086019 0.607582 2.19841 -0.6089162 0.6093655 2.19727 -0.6086848 0.6104962 2.196221 -0.6081739 0.6111325 2.195297 -0.6085721 0.6115678 2.193875 -0.6086973 0.6118729 2.199045 -0.6069386 0.6072258 2.198508 -0.6055832 0.6070886 2.198553 -0.6077313 0.6088564 2.198366 -0.6062474 0.6082628 2.197856 -0.6042876 0.6064134 2.197783 -0.6049806 0.6080266 2.196863 -0.6031951 0.6065011 2.197527 -0.6072123 0.609919 2.196998 -0.6041482 0.6083286 2.197523 -0.605942 0.6093072 2.195574 -0.6025629 0.6076688 2.196393 -0.6065974 0.6106362 2.196464 -0.6049591 0.6097257 2.195727 -0.6033707 0.6088525 2.194051 -0.6015769 0.6071364 2.194364 -0.6022826 0.608482 2.195405 -0.6041662 0.6099246 2.19556 -0.6054602 0.6106474 2.191528 -0.600827 0.6061823 2.192144 -0.6011688 0.6075325 2.19394 -0.6030422 0.6097756 2.192846 -0.6018308 0.6086617 2.19465 -0.6062047 0.6113503 2.19439 -0.604511 0.6107046 2.190918 -0.6014212 0.6083723 2.189001 -0.6012732 0.6075347 2.193454 -0.6062805 0.611673 2.191965 -0.6025789 0.6099014 2.192255 -0.6067672 0.6118766 2.190831 -0.6018479 0.6090927 2.193043 -0.6043426 0.6110494 2.189319 -0.6019189 0.6089602 2.191599 -0.6037776 0.6109328 2.19053 -0.6025581 0.6099697 2.186292 -0.602373 0.6074516 2.187694 -0.6020399 0.6083177 2.188046 -0.602582 0.6093459 2.18884 -0.6030406 0.6101567 2.183573 -0.6046577 0.6062267 2.191186 -0.6052924 0.6116423 2.184953 -0.6034798 0.6075273 2.186119 -0.6029983 0.6084702 2.189573 -0.6038272 0.6109067 2.18384 -0.6048245 0.6076146 2.189992 -0.6043854 0.6112435 2.187115 -0.6033653 0.6097155 2.185791 -0.6038601 0.609215 2.182855 -0.6059982 0.606471 2.184692 -0.6045057 0.6086938 2.189578 -0.6059281 0.6117458 2.187702 -0.6044709 0.6108133 2.186398 -0.6044189 0.6101722 2.182768 -0.607001 0.6076225 2.183874 -0.6059926 0.608918 2.188426 -0.6052361 0.6113829 2.182109 -0.6088563 0.6064158 2.184904 -0.6054797 0.6097554 2.185809 -0.6059961 0.610712 2.182574 -0.6087903 0.6080539 2.183182 -0.607722 0.6088681 2.186995 -0.6061313 0.6112946 2.184314 -0.6071301 0.6100103 2.183362 -0.6086934 0.6093733 2.187407 -0.6072471 0.6116814 2.186119 -0.6071761 0.611221 2.184846 -0.6084823 0.610773 2.184046 -0.6088153 0.6101425 2.187896 -0.6085923 0.6118758 2.186053 -0.6088482 0.6114507 2.202231 -0.7106009 0.5610893 2.189748 -0.7225134 0.5610894 2.188643 -0.7223495 0.5610894 2.185549 -0.7211388 0.5624918 2.202118 -0.7128817 0.5610898 2.182821 -0.7192361 0.5610895 2.199219 -0.7189247 0.5610895 2.200601 -0.7170943 0.5610894 2.182075 -0.7184116 0.5610896 2.201611 -0.714943 0.5610895 2.186999 -0.7219077 0.5610895 2.197723 -0.7202814 0.5610895 2.180365 -0.7155634 0.5610894 2.19576 -0.721475 0.5610895 2.194164 -0.7220785 0.5610894 2.193082 -0.7223498 0.5610894 2.191977 -0.7225134 0.5610894 2.190862 -0.7225685 0.5610894 2.18411 -0.7203648 0.5610895 2.181158 -0.7171459 0.5610895 2.179838 -0.7140286 0.5610895 2.179499 -0.7118806 0.5610893 2.198073 -0.6183887 0.5610896 2.200308 -0.6159268 0.5610894 2.202231 -0.609001 0.5610893 2.202118 -0.6112817 0.5610898 2.182822 -0.6176369 0.5610895 2.184608 -0.6189608 0.5626653 2.182076 -0.6168128 0.5610896 2.201128 -0.6145187 0.5610894 2.187109 -0.6203444 0.5610895 2.189234 -0.6208649 0.5610895 2.201741 -0.6129021 0.5610894 2.199136 -0.6174098 0.5610894 2.180363 -0.6139593 0.5610895 2.197183 -0.6190499 0.5610893 2.195775 -0.6198671 0.5610894 2.194164 -0.6204783 0.5610894 2.193082 -0.6207496 0.5610894 2.191977 -0.6209135 0.5610894 2.190862 -0.6209683 0.5610894 2.185494 -0.6196219 0.5610893 2.183662 -0.618399 0.5610893 2.181154 -0.6155411 0.5610895 2.179843 -0.6124494 0.5610895 2.179507 -0.6103608 0.5610895 2.0194 -0.6604129 0.5610888 2.146419 -0.6604062 0.5610893 2.145917 -0.6599056 0.5592786 2.020013 -0.6598002 0.5589986 2.144558 -0.6585448 0.556531 2.021272 -0.6585412 0.5565493 2.023151 -0.6566612 0.5543566 2.142318 -0.6563077 0.554027 2.025307 -0.6545047 0.5527168 2.140355 -0.6543443 0.5526381 2.138022 -0.6519979 0.5515588 2.027683 -0.6521314 0.5516191 2.030318 -0.6494429 0.5509861 2.13514 -0.6491781 0.5509653 2.146431 -0.1269825 0.5610891 2.145489 -0.1279228 0.5581769 2.143985 -0.1294252 0.5558054 2.142513 -0.1308999 0.5542071 2.139926 -0.1334912 0.552357 2.137335 -0.1360812 0.5513753 2.135184 -0.1382321 0.550964 2.019396 -0.1269873 0.5610877 2.019949 -0.1275342 0.559188 2.020875 -0.1284631 0.5572057 2.022357 -0.1299402 0.5551769 2.02421 -0.1318061 0.553456 2.027066 -0.1346428 0.5518224 2.030358 -0.1379383 0.5509891 1.943212 -0.7366 0.5356893 1.943212 -0.05079996 0.5356893 2.222612 -0.05079996 0.5356893 2.222612 -0.7366 0.5356893 1.943212 -0.05079996 0.5610893 2.222612 -0.05079996 0.5610893 2.198886 -0.6015456 0.5610893 2.200021 -0.6028409 0.5610895 2.197677 -0.6004843 0.5610895 2.200877 -0.6042186 0.5610894 2.195686 -0.5992898 0.5610895 2.201871 -0.6067093 0.5610895 2.194165 -0.5987219 0.5610894 2.193082 -0.5984504 0.5610894 2.191363 -0.5982293 0.5610895 2.189056 -0.5983644 0.5610895 2.18756 -0.5987218 0.5610894 2.185991 -0.5993131 0.5610895 2.197521 -0.7019722 0.5610894 2.200573 -0.7052634 0.5610894 2.19573 -0.7009107 0.5610894 2.193619 -0.7001565 0.5610895 2.191398 -0.6998304 0.5610895 2.189748 -0.6998866 0.5610894 2.186957 -0.7005093 0.5610895 2.188643 -0.7000505 0.5610894 2.179547 -0.6084992 0.5610896 2.179825 -0.6068195 0.5610895 2.222612 -0.7366 0.5610893 2.201906 -0.7084361 0.5610895 2.185034 -0.7014238 0.5610895 2.183658 -0.7024055 0.5610894 2.181418 -0.704872 0.5610894 2.180581 -0.7063132 0.5610895 2.179817 -0.7084504 0.5610895 2.179547 -0.7100992 0.5610896 1.943212 -0.7366 0.5610893 2.18053 -0.6048225 0.5610895 2.181418 -0.6032722 0.5610894 2.183645 -0.6008162 0.5610894 2.18282 -0.6015653 0.5610895 2.184546 -0.600148 0.5610895 2.182075 -0.6023871 0.5610896 2.201362 -0.605241 0.5610895 2.182821 -0.7031651 0.5610895 2.182076 -0.703987 0.5610896 2.201362 -0.7068411 0.5610894 2.199177 -0.7034311 0.5610895</float_array>
          <technique_common>
            <accessor source="#Part__Feature_011-mesh-positions-array" count="398" stride="3">
              <param name="X" type="float"/>
              <param name="Y" type="float"/>
              <param name="Z" type="float"/>
            </accessor>
          </technique_common>
        </source>
        <source id="Part__Feature_011-mesh-normals">
          <float_array id="Part__Feature_011-mesh-normals-array" count="4467">-0.9908739 0.1346163 0.006877243 -0.9908736 0.1346178 0.006893217 -0.9908722 0.1346265 0.006939411 -0.9733801 0.2290834 -0.007217407 -0.9733781 0.2290875 -0.007349252 -0.9733792 0.2290859 -0.007263183 -0.9426986 0.3334199 0.01227223 -0.9427103 0.3333647 0.01285833 -0.9426974 0.3334191 0.01239413 -0.8814523 0.4722701 0.001715719 -0.8663128 0.4994459 -0.007498204 -0.8663048 0.4994624 -0.007302403 -0.8663039 0.4994643 -0.007291853 -0.7668172 0.6417335 0.01302134 -0.7668172 0.6417335 0.01301997 -0.7668162 0.6417341 0.01304858 -0.6608054 0.7504917 -0.009925782 -0.6608018 0.7504939 -0.01000505 -0.6608042 0.7504926 -0.009941458 -0.6058937 0.7955187 0.006556868 -0.4583775 0.888754 0.002538561 -0.4583806 0.8887525 0.002483844 -0.4583754 0.8887555 0.002404749 -0.4406276 0.8976886 -0.00158745 -0.3367804 0.9415386 0.009170591 -0.1890655 0.9819366 -0.007389068 -0.1388295 0.990295 0.00650388 -0.001485645 0.9999377 0.01106518 0.1490527 0.9887291 -0.01407545 0.1578254 0.9874076 -0.01083642 0.3314644 0.9433383 0.0156244 0.3314641 0.9433386 0.01561528 0.3314637 0.9433389 0.01560807 0.4863955 0.8737358 0.002311348 0.5287763 0.84868 -0.01174247 0.6369018 0.7708868 0.009467303 0.7504961 0.6608706 0.002396941 0.7504992 0.6608674 0.002331435 0.7504956 0.6608712 0.00240159 0.7405888 0.671956 -0.001908481 0.7405916 0.6719522 -0.002075374 0.7405925 0.6719515 -0.001984119 0.8338761 0.5518457 0.01081961 0.8338766 0.5518446 0.01084518 0.8338828 0.5518337 0.01092451 0.9052875 0.4247396 -0.007134974 0.9052894 0.4247334 -0.007260859 0.9052881 0.424738 -0.007153034 0.9245144 0.3811271 0.003920793 0.924514 0.3811281 0.003930747 0.9245135 0.3811288 0.003974616 0.9782978 0.2071827 0.003001153 0.9812561 0.1927058 -0.001007378 0.981259 0.1926916 -8.28745e-4 0.9812602 0.1926857 -7.95712e-4 -0.999994 -2.4822e-4 0.003490865 -0.9999863 3.53875e-4 -0.005220055 0.9722631 -0.2338456 0.004564404 0.9722641 -0.2338426 0.00450325 0.9722632 -0.2338476 0.004427313 0.968085 -0.250621 7.47319e-4 0.9275119 -0.3736823 0.009131133 0.92751 -0.3736853 0.009202778 0.9275118 -0.3736825 0.009136259 0.8811532 -0.4728263 -0.002121686 0.8811495 -0.4728325 -0.002265572 0.8811525 -0.4728274 -0.002135813 0.8734576 -0.4868972 0.00174427 0.8734611 -0.4868904 0.001844882 0.8734495 -0.4869105 0.002079129 0.7654928 -0.6433266 0.01231718 0.765514 -0.6432901 0.01289457 0.7654846 -0.6433333 0.01247477 0.6887047 -0.7250105 -0.006758928 0.6887097 -0.7250065 -0.006686091 0.6886925 -0.7250242 -0.006528496 0.6853719 -0.7281711 -0.005688846 0.6853691 -0.7281733 -0.005747497 0.6853712 -0.7281717 -0.005697607 0.5258658 -0.8504679 0.01302796 0.3742187 -0.9273393 0.001576483 0.4105235 -0.911822 -0.007164418 0.2539415 -0.9671991 0.006311714 0.2539514 -0.9671969 0.006252765 0.253946 -0.9671981 0.00628072 0.1400935 -0.9900764 -0.01107102 0.06298768 -0.9979852 0.007627427 -0.04200708 -0.999029 0.01329231 -0.04200279 -0.9990295 0.01326531 -0.0420047 -0.9990293 0.01327574 -0.2127137 -0.9771078 0.003631711 -0.1660547 -0.9861003 -0.005665898 -0.4105939 -0.9118102 0.003844618 -0.3973311 -0.9176751 -5.51831e-4 -0.3973358 -0.9176732 -6.20858e-4 -0.3973301 -0.9176757 -5.43821e-4 -0.5134675 -0.858013 0.0128439 -0.5134689 -0.8580116 0.01288765 -0.5134845 -0.8579998 0.01304191 -0.6421803 -0.7665246 -0.006672978 -0.6421848 -0.7665219 -0.006547808 -0.6421816 -0.7665241 -0.006609737 -0.6787979 -0.7342993 0.006181776 -0.6787945 -0.7343032 0.006086409 -0.6787979 -0.7342996 0.006133377 -0.8246098 -0.5656822 0.004740715 -0.8506998 -0.5256204 -0.005757987 -0.8949478 -0.4461201 0.006721854 -0.8949472 -0.4461205 0.006787419 -0.8949547 -0.446102 0.007005512 -0.9561104 -0.2929499 -0.005769729 -0.9561105 -0.2929498 -0.005764603 -0.9561107 -0.2929477 -0.005839943 -0.9656875 -0.2596871 0.003216743 -0.9656541 -0.2598043 0.00375849 -0.9656826 -0.2597039 0.0033468 -0.9898453 -0.1416537 0.01185822 -0.989843 -0.1416842 0.01168823 -0.9898448 -0.1416637 0.01178139 0.9999918 -1.67138e-4 0.004057109 0.9999911 -1.8036e-4 0.004214763 -6.17196e-4 1.53841e-4 0.9999999 4.79153e-4 9.19586e-5 0.9999999 4.08335e-4 -0.004933238 0.9999879 0.002179443 -7.54065e-5 0.9999977 -9.33516e-4 -1.1377e-6 -0.9999997 -9.3352e-4 -2.58468e-6 -0.9999997 -9.33525e-4 -1.90528e-6 -0.9999997 1.35988e-4 2.78466e-6 -1 -0.001212418 -2.09076e-5 -0.9999993 6.64613e-4 4.80673e-6 -0.9999998 -9.43474e-5 0 -1 0.0011307 -1.64466e-7 -0.9999994 0.00113058 -7.94241e-6 -0.9999994 0.001130282 -1.60321e-5 -0.9999994 -6.01022e-5 1.17191e-6 -1 -1.2641e-4 2.2452e-6 -1 -0.00127089 -2.23977e-5 -0.9999993 -0.001271665 3.73965e-7 -0.9999993 -0.001271367 -1.36161e-5 -0.9999993 0.002185344 1.93963e-6 -0.9999976 0.002185344 -7.53936e-6 -0.9999976 0.002185165 1.31981e-5 -0.9999976 -4.49283e-4 1.30769e-6 -1 0 0 -1 -0.001451373 -0.001625001 -0.9999976 -4.41337e-4 2.73983e-5 -1 -4.35751e-4 6.00387e-5 -1 -4.8323e-4 -7.5434e-5 -0.9999999 2.09139e-4 1.12331e-5 -1 0.001215755 0 -0.9999993 4.5683e-4 0 -0.9999999 -1.08025e-4 -0.001137733 -0.9999994 6.33661e-4 -4.30194e-4 -0.9999997 7.07924e-4 1.15015e-4 -0.9999998 6.21272e-5 -1.01199e-4 -1 -0.001028239 -2.85688e-4 -0.9999995 0 -0.001456975 -0.999999 0 -3.75502e-4 -1 0 5.58479e-5 -1 1.53374e-4 -4.33013e-4 -0.9999999 0 -0.001814246 -0.9999985 0 -1.21216e-4 -1 -7.389e-4 2.04268e-5 -0.9999998 -7.37955e-4 -3.16245e-5 -0.9999998 -7.10719e-4 -1.35651e-4 -0.9999998 7.53203e-4 2.81175e-4 -0.9999997 1.64514e-4 6.70817e-4 -0.9999998 -3.7255e-4 4.2874e-4 -0.9999999 5.21026e-4 2.43837e-4 -0.9999998 5.73307e-4 -4.73696e-5 -0.9999998 5.72961e-4 5.13801e-5 -0.9999998 2.43235e-4 2.31178e-4 -1 1.01622e-4 3.19811e-4 -1 -2.44247e-4 -2.30107e-4 -1 0.001083672 -5.23807e-4 -0.9999994 0.001240551 -6.52065e-4 -0.9999991 0.001374542 -9.5371e-4 -0.9999986 4.05954e-4 -2.0932e-4 -1 -5.87199e-4 0 -0.9999999 0.002713441 -2.21961e-4 -0.9999964 0.003028869 -4.01802e-4 -0.9999954 0.003166973 -6.84549e-4 -0.9999948 -7.20908e-4 -5.89032e-4 -0.9999997 -8.98782e-4 -1.68799e-6 -0.9999996 7.07543e-5 -0.00116074 -0.9999994 -0.002229332 -8.81721e-5 -0.9999976 0 -6.6299e-7 -1 0 -6.758e-7 -1 -7.98965e-5 -4.34313e-7 -1 3.9017e-5 -6.5819e-7 -1 0 -3.2973e-7 -1 0 -1.14819e-6 -1 0 1.2337e-6 -1 0 -1.60441e-6 -1 0 4.56093e-7 -1 0 -4.79117e-7 -1 0 -9.19284e-7 -1 0.002536833 3.12152e-4 -0.9999968 0 -8.06678e-5 -1 5.87278e-4 2.41979e-4 -0.9999998 8.99296e-4 5.3559e-4 -0.9999995 5.34942e-4 -3.10998e-5 -0.9999999 0 6.18887e-5 -1 -1.44492e-4 0 -1 0 0 -1 3.15822e-4 -1.76296e-4 -1 -2.82472e-4 -1.96864e-4 -1 7.48988e-5 -2.66027e-4 -1 1.53602e-4 0 -1 0 0 -1 -1.58399e-4 2.60127e-7 -1 0 0 -1 8.47596e-5 -2.78389e-7 -1 0 -6.62248e-7 -1 -8.27032e-5 7.35859e-5 -1 -2.76997e-4 -3.07942e-4 -1 -1.48077e-4 -2.09548e-4 -1 3.65621e-4 6.56596e-6 -1 3.65668e-4 8.45117e-7 -1 3.65647e-4 3.81762e-6 -1 1.0307e-4 4.1795e-7 -1 4.79236e-4 -1.18857e-5 -0.9999999 4.79381e-4 1.90209e-6 -0.9999999 4.79356e-4 -4.02184e-6 -0.9999999 5.35776e-4 0 -1 3.33848e-4 3.07818e-4 -1 4.31556e-4 2.43155e-4 -0.9999999 -2.5e-4 0 -1 1.39587e-4 -5.27404e-4 -1 8.0285e-4 -3.86136e-5 -0.9999997 0 -3.03897e-4 -1 3.31847e-4 0.01450777 -0.9998947 -3.30969e-4 0.01461315 -0.9998932 3.279e-4 0.01448947 -0.999895 0 -0.00320822 -0.9999949 0.001764774 3.33491e-4 -0.9999984 0 1.06113e-4 -1 -1.74227e-4 -1.70847e-4 -1 -1.73406e-4 -2.00497e-4 -1 -1.72598e-4 -2.1005e-4 -1 -5.63754e-4 1.14481e-4 -0.9999999 -5.68222e-4 -8.97128e-5 -0.9999999 -3.43378e-4 4.61536e-4 -0.9999999 0 -3.44342e-4 -1 -1.16466e-4 -0.001515448 -0.9999989 2.71167e-4 -0.001398205 -0.9999991 -3.28586e-4 -0.001269578 -0.9999992 -5.76909e-4 0.002129435 -0.9999976 -6.23343e-4 0.002071857 -0.9999977 -7.24234e-4 0.002001106 -0.9999977 4.85816e-4 -0.001052677 -0.9999994 7.713e-4 -6.8319e-4 -0.9999995 8.90056e-4 -2.77822e-4 -0.9999996 -3.35043e-4 3.86488e-5 -1 -3.2868e-4 -4.7978e-5 -1 -3.33016e-4 -2.15992e-5 -1 0.001736104 0.001419007 -0.9999976 8.96861e-4 -5.03608e-5 -0.9999996 -4.79126e-4 -1.55578e-5 -0.9999999 -4.79383e-4 8.69803e-7 -0.9999999 -4.78305e-4 -3.17781e-5 -0.9999999 0 -5.82144e-7 -1 -0.9808088 -0.09807032 0.1685127 -0.9808495 -0.09816795 0.1682186 -0.9808236 -0.09813338 0.1683892 -0.9293164 -0.318821 0.1863449 -0.929367 -0.318585 0.1864964 -0.9292991 -0.3189767 0.1861646 -0.9269413 -0.2216715 0.3027238 -0.9272305 -0.2209165 0.3023897 -0.9271577 -0.2211703 0.3024277 -0.9323631 -0.2019991 0.2998256 -0.9324795 -0.2016966 0.2996676 -0.9323471 -0.2020314 0.2998539 -0.9069091 -0.04504632 0.4189116 -0.9069432 -0.04493397 0.4188497 -0.906881 -0.04510718 0.4189659 -0.9130352 -0.3612163 0.1894457 -0.8962891 -0.4205777 0.1406425 -0.8963713 -0.4204478 0.140507 -0.8963485 -0.4204851 0.1405407 -0.866105 -0.263628 0.4246909 -0.866108 -0.2636408 0.4246771 -0.8661169 -0.2636746 0.4246381 -0.822947 -0.1382076 0.5510509 -0.8228058 -0.1383972 0.5512142 -0.8226433 -0.13871 0.5513779 -0.8048003 -0.5692237 0.1681694 -0.8047719 -0.569262 0.1681759 -0.8047974 -0.5692276 0.1681702 -0.8175129 -0.5399206 0.2003962 -0.8175368 -0.5399196 0.2003012 -0.8175454 -0.5399262 0.2002484 -0.8124746 -0.1783033 0.5550613 -0.8122916 -0.1788874 0.5551413 -0.8123709 -0.1786726 0.5550944 -0.8221441 -0.3959339 0.4090423 -0.8222399 -0.3957332 0.4090439 -0.8221534 -0.3959153 0.4090413 -0.8228743 -0.4008012 0.4027858 -0.8228218 -0.4009842 0.4027109 -0.8228675 -0.4008287 0.4027724 -0.7022109 -0.6809155 0.2079758 -0.7021487 -0.6808796 0.2083033 -0.7020342 -0.680932 0.2085179 -0.7836825 -0.5130596 0.3501595 -0.7838339 -0.512986 0.3499283 -0.7837762 -0.5130221 0.3500046 -0.6866824 -0.704302 0.1800724 -0.6868027 -0.7042044 0.1799956 -0.6867682 -0.7042332 0.1800143 -0.722198 -0.2164896 0.656934 -0.7223067 -0.2161813 0.6569162 -0.7222885 -0.2162545 0.656912 -0.6845132 -0.161583 0.7108675 -0.6843574 -0.1617082 0.7109891 -0.6842824 -0.1618012 0.7110401 -0.7372616 -0.5578874 0.3810604 -0.7371832 -0.557853 0.3812624 -0.7371013 -0.5578582 0.3814133 -0.6877561 -0.6437583 0.3355098 -0.6883179 -0.6435708 0.3347166 -0.6880783 -0.6436908 0.3349782 -0.6978747 -0.2811812 0.658717 -0.6981089 -0.2810302 0.6585332 -0.6983808 -0.2809522 0.6582781 -0.7066976 -0.3943237 0.5874415 -0.7065308 -0.3944782 0.5875383 -0.7065538 -0.3944553 0.587526 -0.6497786 -0.4618958 0.6036888 -0.6496682 -0.4620627 0.6036798 -0.6497129 -0.4619921 0.6036858 -0.5998098 -0.6774973 0.4257061 -0.5999063 -0.6774052 0.4257167 -0.5994178 -0.6779391 0.4255549 -0.5363812 -0.8068709 0.247497 -0.5362917 -0.8069096 0.2475647 -0.5362826 -0.8069133 0.2475723 -0.6519115 -0.5211423 0.5508376 -0.6518351 -0.5211822 0.5508905 -0.6519132 -0.5211412 0.5508366 -0.4792551 -0.1456277 0.8655098 -0.4790295 -0.1455641 0.8656453 -0.479401 -0.145591 0.8654352 -0.4907816 -0.1651956 0.8554788 -0.490763 -0.1652315 0.8554825 -0.4907804 -0.1651981 0.855479 -0.5743538 -0.6263892 0.5270242 -0.5743928 -0.6263803 0.5269922 -0.5740934 -0.6264867 0.5271918 -0.4802314 -0.806504 0.3448609 -0.3284921 -0.923045 0.2002026 -0.5613898 -0.3244651 0.761291 -0.5613836 -0.324478 0.7612901 -0.5613926 -0.324459 0.7612915 -0.4851188 -0.7952674 0.3636062 -0.4851678 -0.7952617 0.3635535 -0.4851381 -0.7952659 0.3635841 -0.5531952 -0.4366962 0.7094163 -0.5531403 -0.4368957 0.7093364 -0.5531097 -0.4371351 0.7092127 -0.3502553 -0.09525829 0.9317978 -0.3502557 -0.09543985 0.9317791 -0.350296 -0.09513008 0.9317957 -0.3785258 -0.8661504 0.3263459 -0.3784211 -0.8662306 0.3262548 -0.3785711 -0.8661198 0.3263747 -0.2240475 -0.9570389 0.1840634 -0.482115 -0.2612446 0.8362514 -0.4821534 -0.2610507 0.8362898 -0.4821298 -0.2611908 0.8362597 -0.4755377 -0.2481273 0.8439768 -0.475322 -0.2484629 0.8439995 -0.4753966 -0.2483769 0.8439828 -0.5087405 -0.456699 0.7298007 -0.4786999 -0.6417334 0.5991867 -0.4787758 -0.6416438 0.599222 -0.4787777 -0.6416416 0.5992229 -0.1886152 -0.9578804 0.2165396 -0.424578 -0.7213124 0.547213 -0.4245914 -0.7212895 0.5472328 -0.4247274 -0.7211101 0.5473635 -0.0767861 -0.9783071 0.1924039 -0.4568522 -0.6096477 0.6477776 -0.4568642 -0.6098692 0.6475605 -0.4568424 -0.6096842 0.6477501 -0.2693243 -0.8630683 0.4272911 -0.2696858 -0.863012 0.4271766 -0.2695307 -0.8630484 0.4272009 -0.42905 -0.4227309 0.7982573 -0.4289691 -0.4227554 0.7982878 -0.4290768 -0.4227275 0.7982447 -0.1712787 -0.9039955 0.3917343 -0.1852717 -0.8880287 0.4208081 -0.1852564 -0.8880389 0.4207932 -0.1853117 -0.888006 0.4208382 -0.3674675 -0.4313793 0.8239415 -0.3674695 -0.4313963 0.8239317 -0.3674716 -0.4312726 0.8239955 -0.2843695 -0.7467166 0.601289 -0.3092033 -0.7215075 0.6195323 0.1426998 -0.9716506 0.1884995 0.0355333 -0.9477466 0.317039 -0.3415558 -0.5968564 0.726018 -0.1235471 -0.8303846 0.543321 -0.1234516 -0.830382 0.5433466 -0.1235504 -0.8303848 0.5433199 0.2147316 -0.9617852 0.1698812 0.05289286 -0.944856 0.3231865 0.05278646 -0.9448605 0.3231907 0.05249023 -0.9449039 0.3231124 -0.3080472 -0.3973006 0.8644416 -0.2869462 -0.6238823 0.7269339 -0.2868685 -0.6238932 0.7269552 -0.286869 -0.6238932 0.726955 -0.2786653 -0.2704159 0.9215319 0.07092255 -0.9295649 0.3617721 -0.1546114 -0.7779688 0.6089828 -0.1546089 -0.7779648 0.6089884 -0.1545709 -0.7779211 0.6090539 -0.1559012 -0.1329213 0.9787884 -0.2080696 -0.1766171 0.9620361 -0.2082232 -0.1766984 0.961988 -0.208214 -0.1766918 0.9619912 -0.2243623 -0.2164601 0.9501613 -0.2457234 -0.5986309 0.7624049 0.3183972 -0.9160922 0.2437177 0.3184157 -0.9160917 0.2436957 0.3182915 -0.9161035 0.2438135 0.3678501 -0.9106675 0.1880719 0.3678047 -0.9106847 0.1880779 0.3679404 -0.9106351 0.1880526 -0.1995224 -0.4543394 0.8681973 -0.1995157 -0.4544706 0.8681301 -0.1995243 -0.454432 0.8681484 0.05469322 -0.8325082 0.5513066 0.04825347 -0.8278955 0.5588029 0.256354 -0.8753487 0.4099358 0.2563366 -0.8753644 0.409913 0.2563607 -0.8753421 0.4099457 0.3184829 -0.8776922 0.3580851 0.519383 -0.8327241 0.1918646 0.3625079 -0.8528 0.3759258 0.362294 -0.8529273 0.3758433 0.3624909 -0.8528131 0.3759128 -0.07151943 -0.1048212 0.9919161 -0.05691027 -0.6794457 0.7315155 0.517246 -0.8350284 0.1875752 0.5173219 -0.8349737 0.1876086 0.517212 -0.8350545 0.1875519 -0.1468383 -0.4319762 0.8898512 -0.1469881 -0.4319162 0.8898556 -0.1469191 -0.4319486 0.8898513 -0.0858702 -0.6250987 0.775808 -0.08589047 -0.6250739 0.7758256 -0.08573383 -0.6253225 0.7756428 -0.1100794 -0.3280903 0.9382107 0.04682648 -0.7129759 0.6996233 0.2159706 -0.815393 0.5371137 0.4856217 -0.8128424 0.3216502 0.4856008 -0.8128535 0.3216538 0.4856537 -0.8128247 0.3216466 -0.06006377 -0.506983 0.8598609 0.6167987 -0.7579032 0.2124673 0.6167832 -0.7578916 0.2125533 0.6167718 -0.7578719 0.2126569 0.1392289 -0.6489552 0.747979 0.5425496 -0.7295159 0.416469 0.4138907 -0.7436519 0.5250488 0.4138962 -0.743649 0.5250487 0.413872 -0.7436621 0.5250493 0.6405913 -0.7051326 0.3040245 0.6404647 -0.7051041 0.3043574 0.6404225 -0.7050063 0.3046726 0.2731069 -0.7301732 0.6263065 0.5252838 -0.7098479 0.4692474 0.7820066 -0.5828704 0.220744 0.781988 -0.5828636 0.2208279 0.7819779 -0.5828377 0.220932 0.1445441 -0.6172473 0.7733775 -0.07399469 -0.2960863 0.9522908 -0.0739932 -0.2960837 0.9522917 -0.07398974 -0.296078 0.9522938 0.02311581 -0.4683212 0.8832558 0.34519 -0.7044758 0.6201273 0.5452989 -0.6564195 0.5213086 0.5453067 -0.6565751 0.5211045 0.5451994 -0.6562054 0.5216822 0.7174643 -0.6217817 0.314058 0.7174328 -0.6218699 0.3139557 0.7174788 -0.621707 0.3141728 0.8260431 -0.5175908 0.223053 0.8255701 -0.5183979 0.2229301 0.8251106 -0.5193533 0.2224063 -0.01169514 -0.0479995 0.9987789 0.0429629 -0.4197132 0.9066394 0.04342085 -0.4193437 0.9067885 0.04323959 -0.4195491 0.9067022 0.3871219 -0.6071588 0.6938983 0.3871193 -0.6071456 0.6939113 0.3871241 -0.607173 0.6938847 0.21601 -0.5366938 0.8156589 0.2160196 -0.5366821 0.8156641 0.2159987 -0.5367086 0.8156523 0.02610743 -0.2991796 0.9538396 0.8488635 -0.4411031 0.2913057 0.848881 -0.441092 0.2912716 0.8489233 -0.4410691 0.2911826 0.5128528 -0.5976579 0.6162687 0.7116831 -0.5476242 0.4400171 0.7117099 -0.5475803 0.4400284 0.7116988 -0.547598 0.4400242 0.8901984 -0.3610731 0.2778004 0.8902232 -0.3611953 0.277562 0.8901199 -0.3609895 0.2781606 0.6699588 -0.5430806 0.5061806 0.6699296 -0.5431317 0.5061644 0.6698988 -0.5431886 0.5061441 0.3543184 -0.5437449 0.7607892 0.194886 -0.4393711 0.8769109 0.7840814 -0.4575675 0.4193427 0.7840968 -0.4578613 0.4189932 0.7841076 -0.4577687 0.4190741 0.6400178 -0.4839792 0.5967758 0.6400219 -0.4839564 0.5967901 0.640028 -0.4839295 0.5968052 0.05201166 -0.251851 0.9663674 0.3665768 -0.4965306 0.7868157 0.366563 -0.4965094 0.7868355 0.3665544 -0.4964939 0.7868492 0.9016231 -0.3073466 0.3043252 0.9016299 -0.3072539 0.304399 0.9016357 -0.306895 0.3047435 0.5885404 -0.4860945 0.6460126 0.5885473 -0.4861066 0.6459973 0.5885143 -0.4860565 0.6460651 0.955242 -0.2013564 0.2167217 0.9552415 -0.2013678 0.2167141 0.9552552 -0.2012315 0.2167798 0.8825641 -0.2815596 0.3765699 0.8825818 -0.2817245 0.376405 0.8825275 -0.2814494 0.3767379 0.03700923 -0.1412846 0.9892771 0.7177788 -0.380896 0.5828481 0.7177664 -0.3809189 0.5828484 0.7178091 -0.3808379 0.5828488 0.9603492 -0.1109578 0.2557694 0.9603362 -0.1111832 0.2557199 0.9603473 -0.1110113 0.2557531 0.7728765 -0.3687328 0.5164281 0.7727743 -0.3689011 0.5164609 0.7727442 -0.3689471 0.5164731 0.2265962 -0.3644112 0.9032489 0.226594 -0.3645398 0.9031976 0.2266191 -0.3646348 0.903153 0.8111273 -0.3150358 0.4927726 0.81032 -0.3159791 0.4934964 0.8108625 -0.3154423 0.4929485 0.2781407 -0.3678979 0.8872931 0.2779353 -0.3677505 0.8874185 0.2780371 -0.3678492 0.8873457 0.1650904 -0.2858243 0.9439544 0.1651451 -0.285708 0.94398 0.165071 -0.2859994 0.9439046 0.4882678 -0.4076079 0.7716544 0.516649 -0.4021166 0.7558943 0.8947916 -0.1364478 0.4251239 0.8947401 -0.136541 0.425202 0.8946326 -0.136829 0.4253355 0.3384231 -0.3085193 0.8889802 0.3382393 -0.3084452 0.8890758 0.3380318 -0.3082755 0.8892136 0.6459959 -0.2615607 0.7171299 0.6458273 -0.2614696 0.717315 0.6460263 -0.2615934 0.7170906 0.7880443 -0.1605222 0.5943223 0.7880441 -0.1605182 0.5943234 0.7880435 -0.1605879 0.5943055 0.5616106 -0.2839484 0.777153 0.5616002 -0.2841801 0.7770758 0.5616329 -0.2844456 0.7769552 0.858331 -0.08515936 0.5059803 0.858351 -0.08512377 0.5059521 0.8583912 -0.08505892 0.5058947 0.5028015 -0.226984 0.8340677 0.5029393 -0.2272418 0.8339145 0.5028765 -0.2270686 0.8339995 0.6977369 -0.1694865 0.6960155 0.6977092 -0.1692885 0.6960914 0.6977216 -0.1693891 0.6960546 0.7172825 -0.153703 0.6796185 0.7171721 -0.1536567 0.6797453 0.7172577 -0.1536883 0.6796481 0.3444337 -0.2389278 0.9078981 0.3443323 -0.2389597 0.9079281 0.3441541 -0.2390527 0.9079713 0.1856582 -0.1491497 0.9712288 0.1858894 -0.1488896 0.9712246 0.1857908 -0.1490481 0.9712191 0.4901181 -0.1325677 0.8615161 0.4901636 -0.1322839 0.861534 0.4901651 -0.1322777 0.8615341 0.2756413 -0.1520566 0.9491579 0.2754746 -0.1517741 0.9492516 0.2755056 -0.1518684 0.9492275 0.1240525 -0.1064425 0.98655 0.5442638 -0.06821143 0.8361365 0.5443118 -0.06835544 0.8360935 0.5443042 -0.06831949 0.8361014 0.3611763 -0.08861088 0.928278 0.2838734 -0.1381604 0.948856 0.2838498 -0.138332 0.948838 0.2838759 -0.1380523 0.948871 0.977434 7.86806e-5 0.211241 0.9774459 2.72832e-4 0.2111861 0.9775929 -8.02287e-4 0.210503 0.9770085 2.05522e-5 0.2132006 0.9770085 9.98948e-6 0.2132008 0.9770084 -1.17866e-5 0.2132013 0.8917803 0.001303076 0.4524669 0.8915669 7.49293e-4 0.4528887 0.8915646 7.94539e-4 0.452893 0.856006 -4.29544e-4 0.5169658 0.8560107 -5.47638e-4 0.5169579 0.8568053 -0.001902341 0.5156366 0.7078767 2.79319e-4 0.706336 0.7078844 1.82073e-4 0.7063283 0.7078852 1.25201e-4 0.7063275 0.704047 0.001062154 0.7101526 0.7046574 1.51715e-4 0.7095478 0.7046521 7.62892e-5 0.7095531 0.5194983 3.40722e-4 0.8544715 0.5194929 2.54506e-4 0.8544748 0.5194543 8.92219e-5 0.8544983 0.5462871 -6.62287e-5 0.837598 0.5462871 -6.11092e-5 0.837598 0.5455572 -9.22562e-4 0.8380731 0.4251238 4.55178e-4 0.9051351 0.4251653 2.12935e-4 0.9051158 0.4251289 3.69718e-4 0.9051327 0.3655932 -1.25061e-4 0.9307748 0.2093818 2.70859e-4 0.9778339 0.2093836 2.30068e-4 0.9778336 0.2093821 2.53723e-4 0.9778339 0.191008 4.26037e-4 0.9815885 0.1911125 1.81846e-4 0.9815681 0.1911272 4.56913e-5 0.9815654 0.05299502 -5.68215e-4 0.9985947 0.05304616 -6.92568e-4 0.9985918 0.0533241 -8.40748e-4 0.998577 -0.9827778 -3.24245e-4 0.1847911 -0.9827795 -4.41803e-4 0.1847821 -0.982778 -3.58264e-4 0.1847903 -0.9627422 4.71399e-4 0.2704209 -0.9627425 5.25666e-4 0.2704194 -0.9619665 0.003409266 0.273146 -0.9105321 -4.16357e-4 0.4134383 -0.8574959 6.32467e-4 0.5144905 -0.8574979 7.29079e-4 0.514487 -0.8586308 0.002795398 0.512587 -0.7939821 -1.01329e-4 0.6079413 -0.7940704 -7.80448e-4 0.6078254 -0.7939916 -3.26555e-4 0.6079287 -0.7477731 2.95869e-4 0.6639543 -0.7477777 2.09369e-4 0.6639491 -0.7477782 1.7334e-4 0.6639485 -0.6881539 -3.83189e-4 0.7255647 -0.6881538 -3.69006e-4 0.7255648 -0.688153 -3.40465e-4 0.7255656 -0.6194902 2.18584e-4 0.7850044 -0.5271773 -1.2964e-4 0.8497554 -0.527174 -2.01745e-4 0.8497574 -0.527148 -3.4218e-4 0.8497735 -0.4896309 3.97578e-4 0.8719298 -0.4896397 3.38432e-4 0.8719249 -0.4896406 3.11902e-4 0.8719244 -0.2972576 -3.73835e-4 0.9547973 -0.2248766 3.44608e-4 0.9743873 -0.1470178 -3.39907e-4 0.9891338 0.9604452 0.222323 0.1676832 0.9604295 0.22235 0.1677367 0.9603922 0.2224214 0.167856 0.9580647 0.1992261 0.2059633 0.9580732 0.1992221 0.2059285 0.9580794 0.1992216 0.2058997 0.9164597 0.3691865 0.1542819 0.9163596 0.3694852 0.1541616 0.9164149 0.3693286 0.1542084 0.9104277 0.3781289 0.1677493 0.910359 0.3783518 0.1676199 0.9105475 0.377807 0.1678251 0.8817214 0.09302651 0.4625079 0.8817467 0.09278893 0.4625074 0.8817245 0.09300708 0.4625059 0.896606 0.2279289 0.379666 0.8967373 0.2276241 0.3795388 0.8964636 0.2281765 0.3798533 0.8783496 0.2700415 0.3944361 0.8786487 0.2693889 0.3942158 0.8783649 0.2700147 0.3944203 0.870059 0.3762148 0.3185279 0.8700042 0.3761522 0.3187512 0.8699212 0.3761371 0.3189954 0.84363 0.510827 0.1653615 0.843392 0.5112751 0.1651903 0.8435066 0.5110651 0.1652543 0.8243989 0.443368 0.35184 0.8244063 0.4433637 0.3518281 0.8244584 0.4433391 0.351737 0.7980026 0.5399611 0.267645 0.7979466 0.5401841 0.2673621 0.7979779 0.5400791 0.2674807 0.7503075 0.1833135 0.6351653 0.7501515 0.1833375 0.6353427 0.7501931 0.1833369 0.6352936 0.7466975 0.5980913 0.2910838 0.7465747 0.5981093 0.2913615 0.7465226 0.598131 0.2914506 0.782301 0.3150928 0.5373286 0.7822864 0.3151174 0.5373352 0.7823181 0.3150627 0.537321 0.7223976 0.633364 0.277474 0.7223864 0.6333543 0.2775254 0.722406 0.6333765 0.2774237 0.7113241 0.1470444 0.6873108 0.7115327 0.1469479 0.6871154 0.7111605 0.147082 0.6874719 0.7576102 0.4381936 0.4837492 0.7576056 0.4382016 0.4837492 0.7575826 0.4382447 0.4837461 0.7549688 0.2866198 0.589806 0.7549948 0.2866448 0.5897608 0.7549477 0.286591 0.5898471 0.7115631 0.4845005 0.5088588 0.7117073 0.4851294 0.5080573 0.711691 0.4848052 0.5083896 0.5803812 0.785049 0.2164624 0.5803933 0.7850398 0.2164628 0.5802977 0.7851138 0.2164512 0.6347577 0.7038528 0.3188634 0.6346179 0.7039446 0.3189393 0.634584 0.7039651 0.3189613 0.5994443 0.1993626 0.775191 0.5994436 0.1994218 0.7751764 0.5994448 0.1993898 0.7751837 0.676046 0.4941449 0.5466101 0.6757764 0.494289 0.5468133 0.6758415 0.4942488 0.546769 0.6281089 0.3390678 0.7003658 0.6280335 0.3388343 0.7005465 0.6279417 0.3387383 0.7006751 0.4768885 0.8524218 0.2143697 0.4771738 0.8522244 0.2145197 0.4770219 0.8523355 0.2144166 0.4617586 0.8691442 0.1771085 0.4615243 0.8692531 0.1771845 0.4616568 0.869193 0.1771344 0.5742059 0.187425 0.796969 0.5741782 0.1874778 0.7969765 0.5741604 0.187515 0.7969806 0.592201 0.6985827 0.4015972 0.5921489 0.6986395 0.401575 0.5921621 0.6986247 0.4015814 0.6143996 0.3646166 0.6996913 0.6145293 0.3645211 0.6996272 0.6140312 0.3648145 0.6999115 0.5875061 0.5825809 0.5616369 0.5876262 0.582526 0.5615682 0.5874482 0.5825999 0.5616779 0.3346582 0.9334518 0.1291185 0.334534 0.9334872 0.1291844 0.3346619 0.9334509 0.1291161 0.5499551 0.5849425 0.5961475 0.5503014 0.5846489 0.5961159 0.5502091 0.5847354 0.5961163 0.4770549 0.7531732 0.4529334 0.4769937 0.7532714 0.4528346 0.4771652 0.7530332 0.4530501 0.4236707 0.8387843 0.3419709 0.4236252 0.8388136 0.3419555 0.4236873 0.8387745 0.3419742 0.5423955 0.3909778 0.7436017 0.5428938 0.3906009 0.7434362 0.54263 0.3908463 0.7434997 0.2474523 0.9434204 0.2207382 0.2474213 0.9434295 0.2207342 0.2472912 0.9434705 0.2207047 0.4892653 0.4690664 0.7352525 0.4204854 0.7164701 0.5566531 0.420165 0.7166612 0.5566491 0.4203782 0.7165409 0.556643 0.3048479 0.8704723 0.3864527 0.3048237 0.8704805 0.3864533 0.3045456 0.8706066 0.3863888 0.1608355 0.9718131 0.17237 0.4132143 0.2317394 0.8806536 0.4132078 0.2317329 0.8806584 0.4131464 0.231684 0.8807001 0.4386902 0.6537344 0.6165893 0.2655273 0.8945204 0.3596229 0.2655012 0.8945419 0.3595885 0.2656149 0.8944603 0.3597076 0.4266145 0.4790437 0.7671487 0.4265741 0.4790256 0.7671825 0.4265373 0.4790165 0.7672087 0.3544332 0.1803376 0.9175268 0.3542327 0.1802471 0.917622 0.3543573 0.1802934 0.9175648 0.03561365 0.9724906 0.2302039 0.03566724 0.9724891 0.2302022 0.03577136 0.9724919 0.230174 0.4184698 0.2984078 0.8578088 0.2971534 0.7776944 0.5539777 0.3497833 0.3797674 0.8564043 0.3499557 0.3796237 0.8563976 0.3496743 0.3799243 0.8563794 0.1217635 0.8874368 0.4445558 -0.1656314 0.9696059 0.1800854 0.2481722 0.1556389 0.9561314 -0.002117037 0.9585185 0.2850227 0.3662714 0.575348 0.7313139 0.3665471 0.5753666 0.7311611 0.3664441 0.57538 0.7312022 -0.0572595 0.9524145 0.2993793 0.1984488 0.1140024 0.9734585 0.1980379 0.1142014 0.9735189 0.1989694 0.113985 0.9733543 0.217517 0.7594611 0.6131111 0.2174662 0.759438 0.6131577 0.2174032 0.7594203 0.6132019 0.125519 0.103519 0.9866756 0.1031956 0.8502783 0.5161179 0.2741829 0.3787284 0.8839619 0.2742478 0.3788301 0.8838981 0.2742135 0.378769 0.8839349 0.2695971 0.5725082 0.7743073 0.2698961 0.5725297 0.7741873 0.269694 0.5725364 0.7742528 0.1154826 0.8119482 0.5721923 -0.2942508 0.9344347 0.20062 0.1930298 0.6154298 0.7641895 -0.1194387 0.8938863 0.4320902 -0.1194344 0.893887 0.4320896 -0.1195277 0.8938727 0.4320936 0.2242663 0.341176 0.9128547 0.2242599 0.3411883 0.9128517 0.224254 0.3412002 0.9128487 0.1764329 0.610859 0.7718309 0.1765027 0.6108633 0.7718116 0.1764663 0.6108626 0.7718203 -0.08424335 0.8621563 0.4995896 -0.08422952 0.8621559 0.4995926 -0.08423632 0.8621561 0.4995911 -0.3490099 0.8911542 0.2898904 -0.3491408 0.8910836 0.2899498 -0.349134 0.8910869 0.2899475 0.04150444 0.7694424 0.6373664 -0.3880756 0.8739374 0.2926275 -0.3883079 0.8738734 0.2925105 -0.3878875 0.8740001 0.2926899 -0.4764558 0.8584882 0.1897051 -0.4764456 0.8584899 0.189723 -0.4764728 0.8584867 0.1896693 -0.2398773 0.8630829 0.4444625 -0.09034603 0.7888295 0.6079356 -0.6034088 0.7749487 0.1880224 -0.6033756 0.7750995 0.187507 -0.6034325 0.775007 0.1877059 0.0457257 0.6434557 0.7641165 -0.2657046 0.8125169 0.5188617 -0.2655614 0.8125417 0.5188961 -0.2655935 0.8125394 0.5188832 -0.1427056 0.7497025 0.6462054 -0.1427493 0.7497065 0.646191 -0.1427147 0.7497031 0.6462027 0.1303299 0.3292255 0.9352138 0.1302188 0.3291689 0.9352492 0.1302392 0.3291818 0.9352418 -0.6151711 0.7588642 0.213752 -0.6154294 0.758651 0.2137647 -0.6150493 0.7589712 0.2137226 -0.02509111 0.6060028 0.7950668 -0.2031479 0.7536132 0.6251385 -0.4441272 0.7950996 0.4129987 -0.444049 0.7951102 0.4130623 -0.4441937 0.7951017 0.412923 -0.5852748 0.7315382 0.3497218 0.08444648 0.4036346 0.9110147 -0.7404662 0.6399549 0.2053474 -0.7404429 0.6399976 0.2052987 -0.7404798 0.6399272 0.2053848 -0.7448811 0.6300458 0.2195326 -0.7448829 0.6300446 0.2195296 -0.7448949 0.6300375 0.2195095 -0.4024296 0.7452513 0.5316492 -0.4023094 0.7453044 0.5316659 -0.4021269 0.7454174 0.5316455 -0.09734976 0.6372251 0.7645046 -0.0973894 0.6372115 0.764511 -0.09731322 0.6372407 0.7644963 0.079234 0.2122446 0.9739991 -0.02389407 0.5035731 0.8636223 -0.02391463 0.5034556 0.8636902 -0.02391332 0.5034831 0.8636742 -0.40483 0.7372096 0.5409573 -0.404723 0.7371776 0.5410808 -0.4047228 0.7371776 0.5410811 -0.3002587 0.6739325 0.6750258 -0.3000369 0.67383 0.6752267 -0.3004238 0.6741479 0.6747371 -0.6203492 0.6521278 0.4357708 -0.6202173 0.6523005 0.4357002 -0.6199674 0.6527842 0.4353311 0.01647102 0.4206483 0.9070743 0.01641952 0.4206631 0.9070683 0.016438 0.4206588 0.9070701 -0.467963 0.672765 0.5730602 -0.4679805 0.6727597 0.573052 -0.467736 0.6728818 0.5731084 -0.7020958 0.6055312 0.3746914 -0.7019466 0.6056846 0.374723 -0.7019382 0.6056921 0.3747266 -0.8423681 0.4914736 0.2210654 -0.8423558 0.4914945 0.2210655 -0.842374 0.4914632 0.2210659 -0.6027243 0.6405993 0.4757691 -0.6026618 0.6406722 0.4757499 -0.6027017 0.6406273 0.4757598 -0.2296015 0.5509859 0.8023079 -0.469202 0.5997896 0.6481528 -0.3029479 0.5861264 0.7514508 -0.3027921 0.5862386 0.7514261 -0.3028368 0.5862115 0.7514293 0.001168131 0.1577773 0.9874742 -0.9390941 0.2905904 0.1834654 -0.939038 0.2907613 0.1834819 -0.9389786 0.2909654 0.1834623 -0.8540772 0.4219476 0.3041586 -0.8540026 0.4221858 0.3040374 -0.8539566 0.4225791 0.30362 -0.3470637 0.5614994 0.7511759 -0.7510423 0.4823449 0.4508646 -0.7509326 0.4822343 0.4511656 -0.7508985 0.4820862 0.4513807 -0.1514561 0.4250066 0.8924295 -0.2004733 0.4562053 0.8669989 -0.2003209 0.4562807 0.8669945 -0.2003802 0.4562583 0.8669927 -0.5508036 0.5194483 0.6532909 -0.5508267 0.5194197 0.6532942 -0.5508538 0.5193909 0.6532942 -0.5968067 0.5282424 0.6039718 -0.08302843 0.3081589 0.9477049 -0.08333319 0.3078771 0.9477697 -0.0831837 0.308066 0.9477215 -0.8262966 0.4098427 0.3863457 -0.8262041 0.4099072 0.3864753 -0.826276 0.4098582 0.3863735 -0.6861297 0.4622803 0.5617142 -0.6861787 0.4622316 0.5616945 -0.686145 0.4622644 0.5617087 -0.9546159 0.1895446 0.2297421 -0.0802949 0.3548288 0.931477 -0.3858938 0.4244464 0.8191039 -0.8291045 0.3176267 0.4601075 -0.8291454 0.3175995 0.4600526 -0.8290913 0.3176369 0.4601244 -0.94946 0.1670945 0.2657161 -0.9495421 0.1665937 0.2657375 -0.9494265 0.1673616 0.2656676 -0.5188102 0.4446547 0.7301495 -0.5186628 0.4446873 0.7302343 -0.5186688 0.4446865 0.7302305 -0.3674455 0.3999938 0.8396362 -0.3674414 0.4000015 0.8396342 -0.3674452 0.3999944 0.8396361 -0.8908203 0.1969313 0.4094601 -0.8906933 0.1968435 0.4097785 -0.8907316 0.1968788 0.4096781 -0.009796798 0.1234507 0.9923024 -0.2908185 0.3787649 0.8786137 -0.6893509 0.3447285 0.6371482 -0.7501248 0.2828969 0.5977308 -0.7501255 0.2829284 0.5977152 -0.7501392 0.2827363 0.5977888 -0.5926866 0.3259741 0.7365213 -0.5925529 0.3259835 0.7366247 -0.5924405 0.3259503 0.7367298 -0.1661618 0.2267743 0.9596686 -0.213648 0.2486035 0.9447491 -0.8571872 0.1046606 0.5042583 -0.8570743 0.104602 0.5044624 -0.8569476 0.1044153 0.5047162 -0.7442669 0.194625 0.6388959 -0.7445296 0.1951525 0.6384287 -0.7448035 0.1953302 0.6380548 -0.3991446 0.2729245 0.8753262 -0.5519613 0.2333997 0.8005395 -0.5519533 0.2334167 0.8005401 -0.5518571 0.2336714 0.8005321 -0.1142731 0.140053 0.9835278 -0.7226767 0.1676397 0.6705486 -0.722676 0.1676579 0.6705448 -0.7226789 0.1676068 0.6705545 -0.5187146 0.2208399 0.8259328 -0.5185774 0.2215049 0.8258409 -0.5186677 0.2212291 0.8258581 -0.651907 0.1624544 0.7406928 -0.6518015 0.1624754 0.7407811 -0.6518667 0.1624672 0.7407255 -0.1112855 0.1026423 0.9884736 -0.1112728 0.1024959 0.9884902 -0.1112849 0.1025471 0.9884837 -0.3204997 0.2025218 0.9253458 -0.320481 0.2029376 0.9252612 -0.3205096 0.2027987 0.9252818 -0.4535301 0.1378999 0.880508 -0.453667 0.1384661 0.8803485 -0.453615 0.138129 0.8804283 -0.3259032 0.140967 0.9348344 -0.3260309 0.1407716 0.9348194 -0.3259515 0.1408727 0.9348319 -0.2311571 0.05651658 0.9712736 -0.231084 0.05636006 0.9713 -0.2311465 0.05649864 0.9712771 0.9621838 -0.2631265 0.07047492 0.9622161 -0.2630439 0.07034367 0.962257 -0.2629673 0.07006996 -0.0675314 -0.9952475 0.07015788 0.07264757 -0.9948793 0.07026773 -0.1463978 -0.9868109 0.06907957 -0.2454718 -0.9668642 0.07012379 -0.4339056 -0.898204 0.07039475 -0.4339137 -0.8981978 0.07042461 -0.4339197 -0.8981922 0.07045888 0.9964503 -0.04904037 0.06842368 0.9877349 -0.1393497 0.07043832 -0.6825258 -0.7274917 0.07010394 0.9687506 -0.2383453 0.06865835 0.9687172 -0.2384464 0.06877857 0.9687898 -0.2382085 0.06857895 0.4306617 -0.8997173 0.07098799 0.2425833 -0.9675794 0.07030993 0.2487253 -0.966037 0.07005929 0.9005839 -0.4291985 0.06883001 0.9006429 -0.4290856 0.06876009 0.9005682 -0.4292262 0.0688619 0.1461861 -0.9868367 0.0691604 0.7285331 -0.681366 0.07056975 0.7285373 -0.6813683 0.070504 0.7284834 -0.6814691 0.07008522 0.9029815 -0.4240419 0.06937569 0.6701225 -0.7390692 0.06864786 0.8110333 -0.5808277 0.06974571 0.3529019 -0.9331241 0.06884521 0.5964006 -0.7995524 0.07086831 0.04919338 -0.9963573 0.06965786 -0.04926222 -0.9963525 0.06967884 -0.739434 -0.6697066 0.06877893 -0.7395325 -0.6695983 0.06877309 -0.7394919 -0.6696438 0.06876766 -0.8044776 -0.5899015 0.06951171 -0.8041784 -0.5903121 0.06949049 -0.8039993 -0.5905327 0.06968712 0.7965829 -0.6006152 0.06868183 0.7965505 -0.60067 0.06857776 0.7965077 -0.6007341 0.0685141 0.5182323 -0.8525052 0.06833994 -0.2591349 -0.9633436 0.06941431 -0.2591787 -0.9633211 0.06956201 -0.259104 -0.9633551 0.06936955 -0.4139491 -0.9076283 0.06969362 -0.9030377 -0.4237768 0.07025754 -0.5240219 -0.848909 0.06895434 -0.8076586 -0.5854936 0.06989157 -0.5846113 -0.8082441 0.07050514 -0.9436169 -0.3237936 0.06888484 -0.9436168 -0.3237935 0.06888449 -0.9436126 -0.3237923 0.06894713 -0.9677706 -0.2419829 0.06974548 -0.9675031 -0.2429256 0.07017761 -0.967437 -0.2430953 0.07050126 -0.657295 -0.7504479 0.06921929 -0.9963173 -0.04788476 0.07112532 -0.9854021 -0.1558791 0.06844484 -0.9854036 -0.1558746 0.06843274 -0.9853977 -0.1558901 0.06848138 -0.8922365 -0.446227 0.0692507 -0.892218 -0.4462311 0.06946212 -0.8922339 -0.4462412 0.06919199 -0.4710984 -0.8820739 -0.003447175 0.5990387 -0.7976123 0.07047921 0.814305 -0.5761713 0.07024216 0.9622063 -0.2629927 0.07066941 0.9622365 -0.2629136 0.07055139 0.9622739 -0.262841 0.07031083 0.7326901 -0.676911 0.07040476 0.6755165 -0.7340829 0.06928002 0.6755834 -0.7340306 0.06918257 0.6755428 -0.7340615 0.0692498 0.3209049 -0.9445156 0.07007408 -0.03093451 -0.9970577 0.07013702 0.2426081 -0.9676569 0.06914758 0.1464344 -0.9867261 0.07020527 0.04893386 -0.9964078 0.06911689 0.1479377 -0.9865052 0.07015788 0.9877331 -0.139357 0.07044839 0.9964506 -0.04904168 0.06842017 -0.6826993 -0.7273217 0.07017737 -0.6826686 -0.7273855 0.06981343 -0.6826998 -0.7273215 0.07017523 -0.5800528 -0.8115371 0.07033044 -0.5801051 -0.8115216 0.07007634 -0.580079 -0.8115243 0.07026165 0.8621129 -0.5020217 0.06881529 0.8621943 -0.5019047 0.06864941 0.8621592 -0.5019583 0.0686981 0.9021054 -0.4256126 0.07113325 0.9021662 -0.4254891 0.07110047 0.9022056 -0.4254149 0.07104325 0.9715852 -0.2264971 0.06871342 0.9715392 -0.2266417 0.06888431 0.9716385 -0.2263014 0.06860202 0.5946043 -0.8009502 0.07017487 0.5945994 -0.8009523 0.070194 0.5945891 -0.8009551 0.07024985 -0.7396962 -0.6693756 0.06918054 -0.7396454 -0.6694172 0.06932032 -0.7396969 -0.6693752 0.06917649 0.9325699 -0.3544558 0.06837087 0.9324946 -0.3546455 0.06841444 0.9325664 -0.354465 0.06837099 -0.8034904 -0.5911246 0.07053375 -0.803473 -0.5911436 0.07057207 -0.8035572 -0.5910619 0.07029688 -0.0632258 -0.9955899 0.06930547 -0.5150747 -0.8543514 0.06915122 -0.4397218 -0.8953976 0.07005745 -0.3181863 -0.9453943 0.07061868 -0.1599425 -0.9846073 0.07047778 0.5010136 -0.8626912 0.068915 0.4405051 -0.8949701 0.07059723 0.7828739 -0.6183548 0.06889069 -0.9030399 -0.4236816 0.07080179 -0.9029805 -0.4238234 0.07071125 -0.9029384 -0.4239354 0.07057696 -0.2379534 -0.9688537 0.06856113 -0.2378581 -0.9688625 0.06876856 -0.2379555 -0.9688541 0.06854987 -0.9960619 -0.05288213 0.07116377 -0.9961524 -0.05360978 0.06932836 -0.99586 -0.0578525 0.07011431 0.3537188 -0.9327909 0.06916779 -0.9431442 -0.3251069 0.06917095 -0.9431487 -0.3251555 0.0688818 -0.9431549 -0.3251503 0.06882095 -0.9666184 -0.2460852 0.0713523 -0.9666205 -0.2460768 0.0713523 -0.9666811 -0.2458534 0.07130169 -0.4072403 -0.9107026 0.06911027 -0.8075229 -0.5856913 0.06980431 -0.8075736 -0.5856425 0.06962639 -0.8075932 -0.5856204 0.06958556 -0.592581 -0.8024866 0.06973683 -0.6704543 -0.7386727 0.06966984 -0.9849646 -0.1586927 0.06827539 -0.9849761 -0.1586249 0.0682671 -0.9849391 -0.1588231 0.06833845 -0.8925066 -0.4457533 0.06881862 -0.8922697 -0.4462904 0.06840711 -0.8923972 -0.446016 0.0685355 -0.5545204 -0.8313348 0.03728151 -0.5544428 -0.8313922 0.03715401 -0.5545665 -0.8313019 0.03732728 1.7823e-4 0.9596094 0.2813357 -5.17131e-5 0.9638468 0.2664572 9.9254e-5 0.8891888 0.4575406 -2.40796e-4 0.8893413 0.4572439 9.36154e-5 0.8891887 0.4575406 -2.36684e-4 0.8960846 0.4438834 1.19666e-4 0.7591267 0.6509431 -3.68652e-4 0.7455784 0.6664179 4.0663e-4 0.6050391 0.7961958 -2.46653e-4 0.5773366 0.8165062 -1.21706e-5 0.4198232 0.9076059 3.99051e-5 0.417891 0.9084971 2.55475e-4 0.228954 0.9734373 -3.2582e-4 0.2056405 0.9786276 -0.9641313 4.28526e-5 0.2654258 -0.9641314 2.6277e-5 0.2654256 -0.9641314 3.23879e-5 0.2654257 -0.9514986 -1.2918e-4 0.3076532 -0.8964588 2.05722e-4 0.4431271 -0.8964589 1.9895e-4 0.4431272 -0.8964589 2.01689e-4 0.4431272 -0.8444142 -1.79084e-4 0.5356908 -0.7450841 4.98874e-5 0.6669706 -0.7450841 4.80448e-5 0.6669706 -0.7450841 4.9496e-5 0.6669706 -0.7356268 1.31075e-4 0.6773872 -0.5775007 -3.42248e-5 0.8163903 -0.5822 -6.72066e-5 0.8130457 -0.5821999 -6.68012e-5 0.8130457 -0.5821999 -6.33067e-5 0.8130457 -0.4198182 1.44842e-4 0.9076083 -0.3544492 -1.36945e-4 0.9350754 -0.3544492 -1.38089e-4 0.9350754 -0.3544492 -1.37462e-4 0.9350754 -0.2013697 2.19066e-5 0.9795154 -0.2013697 1.97368e-5 0.9795154 -0.2013697 2.24117e-5 0.9795153 -0.1878703 9.91937e-5 0.982194 0.9604122 2.03057e-5 0.2785834 0.9604122 1.46206e-5 0.2785834 0.9604122 1.67352e-5 0.2785834 0.9598833 7.8115e-6 0.2803998 0.9598833 1.06188e-5 0.2803998 0.9598833 8.86782e-6 0.2803998 0.9063683 -4.6159e-5 0.4224887 0.9063683 -4.45686e-5 0.4224887 0.9063683 -4.52931e-5 0.4224887 0.8892335 1.00884e-4 0.4574536 0.8077883 -1.25586e-4 0.5894728 0.8077883 -1.27861e-4 0.5894728 0.8077883 -1.27048e-4 0.5894728 0.7593146 1.31014e-4 0.6507238 0.6804971 -1.15574e-4 0.7327508 0.6057486 1.45399e-4 0.7956561 0.6057487 1.45679e-4 0.7956561 0.6057487 1.43852e-4 0.7956561 0.4963445 -1.85867e-4 0.8681257 0.4191883 1.42964e-4 0.9078993 0.2453967 -2.49571e-5 0.9694228 0.2337262 -1.03157e-4 0.9723024 -4.69958e-4 -0.9515779 0.3074074 3.3839e-5 -0.9609764 0.2766302 6.16489e-4 -0.9054033 0.4245523 -5.10904e-4 -0.8446084 0.5353845 3.80084e-4 -0.8083106 0.5887563 -3.94375e-4 -0.7347744 0.6783115 5.21898e-4 -0.6776608 0.7353745 -7.2097e-4 -0.5805895 0.8141962 9.78937e-4 -0.4983037 0.867002 -8.21205e-4 -0.3537036 0.9353573 -2.90692e-4 -0.1875377 0.9822574 7.44663e-4 -0.2444522 0.9696611 2.40112e-4 -5.9616e-6 1 1.97015e-4 2.54951e-6 1 0 -2.03409e-5 1 -1.05161e-5 8.44452e-6 1 -1.81789e-4 4.41637e-6 1 0 2.18765e-7 1 7.34936e-5 1.2629e-5 1 1.18288e-4 -2.36841e-6 1 -3.61794e-5 8.07723e-7 1 -2.05205e-4 4.65918e-6 1 -4.79298e-4 1.30578e-5 0.9999999 -4.79144e-4 1.96385e-5 0.9999999 -4.79385e-4 4.33526e-6 0.9999999 1.02849e-5 -3.46415e-6 1 4.8156e-5 6.48109e-7 1 2.10996e-5 4.11597e-6 1 7.21994e-4 -1.96199e-5 0.9999998 -4.67624e-5 3.20458e-6 1 3.43369e-5 -6.18663e-6 1 -1.0661e-5 7.02596e-6 1 2.94231e-5 6.76036e-7 1 1.68607e-4 -3.26866e-6 1 -2.01296e-4 -3.7396e-7 1 -6.20853e-5 7.13589e-7 1 0 0 1 0 0 1 3.14266e-6 7.2064e-7 1 0 7.49794e-7 1 1.76868e-5 0 1 0 7.49518e-7 1 0 7.56106e-7 1 2.23064e-5 7.51452e-7 1 -8.46793e-5 7.55235e-7 1 5.79245e-5 -1.03279e-6 1 1.62064e-5 5.10378e-7 1 0 6.07108e-5 1 0 2.59545e-6 1 0 -4.76479e-6 1 -1.18746e-4 7.32161e-5 1 0 -8.91407e-7 1 1.17055e-4 -7.05373e-5 1 0 -7.22305e-5 1 0 4.64963e-5 1 0 -1.56471e-6 1 0 -2.80715e-5 1 0 2.22482e-5 1 1.25055e-4 -9.91855e-5 1 -1.8075e-4 1.4612e-4 1 -3.28355e-6 -1.53557e-6 1 -1.22388e-4 1.72648e-4 1 -1.22458e-4 1.60597e-4 1 -1.22277e-4 1.79982e-4 1 -5.55491e-4 -9.3308e-5 1 -6.15282e-4 -3.75742e-6 0.9999998 -6.15272e-4 4.41709e-7 0.9999998 -6.15261e-4 -4.61559e-6 0.9999998 7.62255e-6 0 1 2.63912e-4 1.9671e-4 1 -1.02965e-4 -9.44897e-5 1 2.10482e-4 7.52277e-5 1 -1.04395e-4 -1.0213e-4 1 1.63123e-5 -1.71462e-5 1 -2.77778e-5 -4.09258e-5 1 -6.16867e-5 -2.17843e-5 1 5.54047e-5 1.7062e-5 1 7.33857e-5 3.65527e-5 1 0 -4.59815e-6 1 2.26171e-5 7.24106e-5 1 -1.10195e-4 -1.02625e-4 1 6.10811e-5 2.49332e-5 1 -3.01659e-5 1.83382e-5 1 -4.61766e-5 -8.87865e-5 1 1.29274e-5 2.01059e-5 1 0 -5.50587e-6 1 0 -6.39974e-6 1 2.73776e-5 5.94642e-5 1 1.07066e-4 -7.6392e-6 1 -3.03263e-4 -1.60462e-4 1 -6.13574e-4 -9.71348e-6 0.9999998 -6.13614e-4 -1.02361e-5 0.9999998 -6.13536e-4 -8.08467e-6 0.9999998 0 -1.29465e-5 1 2.56217e-4 7.31753e-5 1 2.21141e-4 2.17105e-4 1 -4.37542e-6 7.0262e-7 1 3.53107e-5 4.30069e-5 1 -5.12645e-5 -4.55949e-5 1 -1.11896e-6 8.48643e-6 1 0 -1.21706e-5 1 0 -1.23404e-6 1 0 -7.86818e-7 1 0 -1.36314e-4 1 0 8.84045e-5 1 1.93941e-5 0 1 5.86649e-6 1.89961e-6 1 -7.10811e-6 3.35346e-7 1 4.12054e-4 4.6871e-7 1 4.12025e-4 -3.74844e-6 1 4.1205e-4 -1.80497e-6 1 -9.34501e-5 4.92541e-6 1 -4.09298e-5 -1.76085e-5 1 4.25113e-5 1.20097e-5 1 -2.5314e-4 5.95859e-6 1 -2.53138e-4 7.01661e-6 1 -2.53132e-4 8.43348e-6 1 -8.23288e-5 -4.31551e-6 1 4.30377e-5 -2.45329e-6 1 1 0 0 0 -1 0 -1 0 0 0 1 0 -0.9864661 0.1477834 0.07102692 -0.9864988 0.1475466 0.07106524 -0.9864276 0.1481294 0.07084035 -0.6738031 0.7355387 0.07051444 -0.6736693 0.7356672 0.07045173 -0.6737238 0.7356134 0.0704928 -0.8053291 0.5886202 0.07050901 -0.8052573 0.5887209 0.0704872 -0.8053418 0.5886028 0.07050806 -0.5190004 0.851864 0.07047164 -0.738978 0.6701325 0.06952625 -0.7391703 0.6699187 0.06954407 -0.7390599 0.6700392 0.06955569 -0.9974014 0.02158355 0.06873548 -0.8007604 0.5948243 0.07047724 -0.9451743 0.3190402 0.06970578 -0.9842209 0.1627089 0.06953442 -0.6704609 0.7386788 0.06954109 -0.6703053 0.7388149 0.06959491 -0.670477 0.7386642 0.06954097 -0.5947717 0.8009217 0.0690726 -0.5947646 0.8009288 0.06905388 -0.5947787 0.8009146 0.06909471 -0.9407002 0.3322226 0.06864053 -0.9406213 0.3324154 0.06878632 -0.9407733 0.3320242 0.06859755 0.1622499 0.9842587 0.07007044 -0.8963869 0.4378056 0.06940245 -0.896803 0.4369614 0.06934905 -0.8970188 0.4364586 0.06972187 0.3368779 0.9389244 0.07024532 0.242454 0.9676982 0.06911116 -0.1481614 0.9864195 0.07088673 -0.4991502 0.863714 0.06962215 -0.3370668 0.9388591 0.07021176 -0.3518619 0.9334597 0.06961566 0.903037 0.4237321 0.07053655 0.9030213 0.4237527 0.07061469 0.9030133 0.4237639 0.07064843 -0.2318087 0.9703124 0.06898409 -0.8657156 0.4957861 0.06879508 0.03175574 0.997002 0.07055974 0.942523 0.3270106 0.06866168 0.9425818 0.3268678 0.06853502 0.9426405 0.3267093 0.06848406 0.9677225 0.2418588 0.07083559 0.727782 0.6821744 0.07050997 0.7279339 0.6820064 0.07056611 0.7279185 0.6820229 0.07056564 -0.05831342 0.9959595 0.06829619 0.6068978 0.7916434 0.07054084 0.6583191 0.749575 0.068946 0.3488596 0.9345766 0.06974035 0.9965459 0.04261684 0.07127571 0.1273473 0.9894422 0.06918829 0.8115208 0.5800435 0.07059442 0.4989072 0.8639432 0.06851005 0.4989106 0.8639442 0.06847465 0.4990242 0.8639058 0.06813079 0.5126165 0.8558084 0.06939893 0.512624 0.855795 0.0695098 0.5129022 0.8555911 0.06996649 0.8471168 0.5268794 0.06921905 0.8470706 0.5269719 0.0690791 0.8470724 0.5269678 0.06908982 0.9014011 0.4272581 0.07019132 0.7500799 0.6577633 0.06875771 0.7502322 0.6576004 0.06865429 0.7503079 0.6575154 0.06864064 0.9855346 0.1550768 0.06835854 -0.9854001 0.1548412 0.07078772 -0.9854311 0.1546284 0.07082074 -0.9853605 0.1551722 0.07061415 -0.6673521 0.7414216 0.07025033 -0.8042249 0.5901693 0.07016241 -0.7391095 0.669998 0.06942522 -0.7392479 0.6698534 0.06934708 -0.7391899 0.6699122 0.06939804 -0.9972664 0.02693003 0.06880974 -0.9844714 0.1611333 0.06965655 -0.2246052 0.9719215 0.07015168 -0.8007653 0.594828 0.07038921 -0.9448689 0.3199665 0.06960147 -0.6702111 0.7388234 0.07040774 -0.1464961 0.9867926 0.06913256 -0.04635864 0.9964581 0.07015979 -0.8624904 0.5013636 0.06888407 -0.8959898 0.4384266 0.07060098 -0.9393803 0.335963 0.06850939 -0.9393162 0.3361151 0.06864202 -0.9394517 0.3357735 0.06846064 -0.3507566 0.9338051 0.07055419 -0.5096661 0.857449 0.07086426 -0.4282892 0.9010357 0.06857925 -0.4283305 0.9010047 0.06872832 -0.4282887 0.9010372 0.06856185 -0.5793173 0.8121882 0.0688616 -0.03394609 0.9969921 0.06967473 0.6867526 0.7234952 0.07018357 0.6867442 0.7234999 0.07021594 0.6867399 0.7235027 0.07022964 0.9299894 0.3607969 0.0703234 0.1474992 0.9866119 0.06957668 -0.2618578 0.9626263 0.06914663 0.3212009 0.944453 0.06956017 0.1449577 0.9869979 0.06944549 0.5802212 0.8113968 0.07055968 0.4402154 0.8951165 0.07054799 0.3356873 0.9394446 0.06897777 0.5086028 0.858266 0.06857752 0.9965432 0.04269152 0.07126915 0.7944762 0.6033583 0.0690391 0.8601046 0.5052962 0.0699715 0.8598848 0.5056402 0.07018738 0.8598465 0.5056871 0.07031744 0.7936638 0.6044712 0.06864798 0.7936002 0.604557 0.06862783 0.7935789 0.6045848 0.06862878 0.6590755 0.7489162 0.06887811 0.6591063 0.7488805 0.06897163 0.6593116 0.7486867 0.06911218 0.8923822 0.4460027 0.06881678 0.9710337 0.2281249 0.07108193 0.9710194 0.228211 0.07100176 0.9710069 0.2283304 0.07078826 0.9442277 0.3219234 0.06927853 0.944154 0.3220782 0.06956267 0.9442224 0.3219273 0.06933182 0.9866871 0.1474451 0.06861966 0.9866316 0.1476879 0.06889408 0.9866792 0.1474637 0.06869244</float_array>
          <technique_common>
            <accessor source="#Part__Feature_011-mesh-normals-array" count="1489" stride="3">
              <param name="X" type="float"/>
              <param name="Y" type="float"/>
              <param name="Z" type="float"/>
            </accessor>
          </technique_common>
        </source>
        <vertices id="Part__Feature_011-mesh-vertices">
          <input semantic="POSITION" source="#Part__Feature_011-mesh-positions"/>
        </vertices>
        <triangles material="Part__Feature_011-material" count="796">
          <input semantic="VERTEX" source="#Part__Feature_011-mesh-vertices" offset="0"/>
          <input semantic="NORMAL" source="#Part__Feature_011-mesh-normals" offset="1"/>
          <p>0 0 262 1 1 2 2 3 0 4 1 5 2 6 1 7 254 8 2 9 254 9 245 9 3 10 2 11 245 12 3 13 245 14 4 15 5 16 3 17 4 18 5 19 4 19 6 19 5 20 6 21 8 22 7 23 5 23 8 23 7 24 8 24 9 24 10 25 7 25 9 25 10 26 9 26 11 26 10 27 11 27 225 27 12 28 225 28 13 28 12 29 10 29 225 29 12 30 13 31 14 32 12 33 14 33 16 33 15 34 12 34 16 34 15 35 16 35 213 35 17 36 15 37 213 38 17 39 213 40 211 41 17 42 211 43 18 44 19 45 17 46 18 47 19 48 18 49 20 50 19 51 20 51 21 51 22 52 19 53 21 54 45 55 262 55 0 55 23 56 262 56 45 56 24 57 25 58 179 59 26 60 24 60 179 60 26 61 179 62 28 63 27 64 26 65 28 66 27 67 28 68 171 69 27 70 171 71 170 72 29 73 170 74 30 75 29 76 27 77 170 78 29 79 30 79 160 79 31 80 160 80 155 80 31 81 29 81 160 81 31 82 155 83 32 84 33 85 31 85 32 85 33 86 32 86 147 86 33 87 147 88 34 89 35 90 34 90 36 90 35 91 33 91 34 91 37 92 36 92 38 92 37 93 35 94 36 95 37 96 38 97 39 98 40 99 37 100 39 101 40 102 39 103 41 104 40 105 41 105 42 105 43 106 40 106 42 106 43 107 42 108 44 109 45 110 43 111 44 112 45 113 44 114 46 115 45 116 46 117 23 118 22 119 21 119 24 119 24 120 21 120 25 120 206 121 154 121 47 121 206 122 274 122 154 122 206 123 48 123 274 123 235 124 48 124 206 124 49 125 0 126 50 127 50 128 0 128 51 128 51 129 0 129 52 129 51 130 52 130 53 130 51 131 53 131 54 131 22 132 24 133 55 134 22 135 55 135 56 135 22 136 56 136 57 136 22 137 57 138 58 139 58 140 57 141 59 142 59 143 57 143 60 143 60 144 57 144 61 144 40 145 63 145 37 145 62 146 63 147 40 148 40 144 64 144 62 144 63 149 65 149 37 149 40 150 43 150 64 150 65 144 66 144 37 144 43 151 67 151 64 151 37 144 66 144 35 144 45 152 67 153 43 154 66 155 68 155 35 155 45 156 69 156 67 156 35 157 68 157 33 157 68 158 70 158 33 158 45 159 71 159 69 159 70 160 72 160 33 160 33 161 72 161 31 161 72 162 73 162 31 162 31 163 73 164 29 165 73 166 74 167 29 168 74 169 75 170 29 171 29 172 75 173 27 174 76 175 27 176 75 177 77 178 27 178 76 178 77 144 26 144 27 144 78 179 26 179 77 179 79 180 24 181 78 182 78 144 24 144 26 144 79 183 80 184 24 185 80 186 55 186 24 186 82 187 83 187 81 187 81 188 83 188 84 188 83 189 85 189 84 189 81 190 54 190 82 190 51 144 54 144 81 144 84 191 85 191 86 191 85 192 87 192 86 192 86 193 88 193 89 193 87 194 88 194 86 194 89 195 88 195 90 195 88 196 91 196 90 196 91 197 92 197 90 197 90 144 92 144 93 144 0 198 94 198 52 198 93 144 92 144 95 144 0 199 96 199 94 199 92 144 97 144 95 144 2 200 96 201 0 202 2 203 98 203 96 203 95 204 99 204 100 204 97 205 99 205 95 205 2 206 101 207 98 208 99 209 102 209 100 209 100 210 102 210 103 210 3 144 101 144 2 144 3 144 104 144 101 144 103 211 105 211 106 211 102 212 105 212 103 212 106 213 105 213 107 213 105 214 108 214 107 214 3 144 109 144 104 144 3 215 5 216 109 217 107 218 108 219 110 220 108 221 61 221 110 221 110 222 61 223 57 224 109 225 5 226 111 227 5 144 7 144 111 144 7 144 112 144 111 144 7 228 10 228 112 228 112 229 10 229 113 229 114 230 22 230 58 230 10 231 115 231 113 231 10 232 12 233 115 234 115 235 12 235 116 235 114 236 19 236 22 236 117 237 19 237 114 237 116 238 12 239 118 240 117 241 17 242 19 243 119 244 17 244 117 244 118 245 12 246 120 247 12 248 15 249 120 250 121 251 17 252 119 253 120 254 15 255 122 256 121 257 15 257 17 257 122 258 15 258 121 258 45 259 0 260 71 261 71 262 0 262 49 262 123 263 23 264 46 265 127 266 46 267 44 268 124 269 123 270 46 271 127 272 124 273 46 274 124 275 125 276 123 277 126 278 127 278 44 278 126 279 44 280 42 281 128 282 124 283 127 284 129 285 125 286 124 287 130 288 42 289 41 290 130 291 126 292 42 293 128 294 129 295 124 296 132 297 128 298 127 299 132 300 127 301 126 302 133 303 130 304 41 305 132 306 126 307 130 308 133 309 41 310 39 311 134 312 129 313 128 314 134 315 131 316 129 317 135 318 132 319 130 320 135 321 130 322 133 323 137 324 134 325 128 326 137 327 128 328 132 329 138 330 137 331 132 332 139 333 135 334 133 335 38 336 133 337 39 338 138 339 132 340 135 341 141 342 136 343 131 344 141 345 131 346 134 347 138 348 135 349 139 350 142 351 133 351 38 351 143 352 38 352 36 352 144 353 134 354 137 355 142 356 139 357 133 358 138 359 144 360 137 361 140 362 136 363 141 364 143 365 142 366 38 367 34 368 143 368 36 368 146 369 141 370 134 371 146 372 134 373 144 374 145 375 144 375 138 375 148 376 138 377 139 378 149 379 143 379 34 379 142 380 148 381 139 382 147 383 149 383 34 383 145 384 138 385 148 386 150 387 142 388 143 389 146 390 144 391 145 392 151 393 143 393 149 393 151 394 150 395 143 396 152 397 146 398 145 399 153 400 148 400 142 400 150 401 153 401 142 401 156 402 147 402 32 402 151 403 149 403 147 403 152 404 145 404 148 404 157 405 150 406 151 407 155 408 156 408 32 408 156 409 151 410 147 411 158 412 146 412 152 412 153 413 152 414 148 415 158 416 141 416 146 416 159 417 151 417 156 417 153 418 150 419 157 420 161 421 154 421 140 421 161 422 140 423 141 424 158 425 161 425 141 425 162 426 152 426 153 426 163 427 156 428 155 429 163 430 155 431 160 432 162 433 158 434 152 435 164 436 157 436 151 436 164 437 151 437 159 437 165 438 159 439 156 440 165 441 156 441 163 441 30 442 163 442 160 442 166 443 165 444 163 445 177 446 154 446 161 446 168 447 153 447 157 447 167 448 163 449 30 450 169 451 158 452 162 453 168 454 162 455 153 456 169 457 161 457 158 457 164 458 168 458 157 458 164 459 159 459 165 459 167 460 166 461 163 462 169 463 162 463 168 463 170 464 167 465 30 466 173 467 168 467 164 467 172 468 166 468 167 468 175 469 165 470 166 471 172 472 167 473 170 474 173 475 164 475 165 475 172 476 175 476 166 476 176 477 170 478 171 479 174 480 168 480 173 480 177 481 161 482 169 483 174 484 169 484 168 484 175 485 173 485 165 485 178 486 175 487 172 488 176 489 172 490 170 491 28 492 176 493 171 494 47 495 154 495 177 495 180 496 169 497 174 498 181 499 173 500 175 501 182 502 174 503 173 504 177 505 169 505 180 505 183 506 176 507 28 508 181 509 175 509 178 509 184 510 172 511 176 512 179 513 183 514 28 515 184 516 178 517 172 518 182 519 173 519 181 519 180 520 174 520 182 520 184 521 176 522 183 523 185 524 178 525 184 526 187 527 177 527 180 527 186 528 182 529 181 530 188 531 183 532 179 533 185 534 181 535 178 536 188 537 179 538 25 539 188 540 189 541 183 542 47 543 177 543 187 543 190 544 185 545 184 546 191 547 188 548 25 549 190 550 184 551 183 552 192 553 180 554 182 555 189 556 190 557 183 558 186 559 192 560 182 561 187 562 180 563 192 564 193 565 186 565 181 565 193 566 181 566 185 566 191 567 189 568 188 569 192 570 186 571 193 572 194 573 185 574 190 575 195 576 190 577 189 578 194 579 193 580 185 581 195 582 189 583 191 584 196 585 193 586 194 587 197 588 194 589 190 590 197 591 190 592 195 593 196 594 192 595 193 596 199 597 187 598 192 599 198 600 196 601 194 602 196 603 199 604 192 605 47 606 187 606 199 606 198 607 194 608 197 609 200 610 196 610 198 610 200 611 199 612 196 613 191 614 25 615 21 616 191 617 21 618 201 619 191 620 201 621 202 622 195 623 191 624 202 625 197 626 195 627 202 628 197 629 202 630 203 631 198 632 203 633 204 634 198 635 197 636 203 637 198 638 204 639 205 640 200 641 198 641 205 641 200 642 205 643 206 644 199 645 200 646 206 647 47 648 199 649 206 650 262 651 23 652 123 653 265 654 262 655 123 656 265 657 123 657 125 657 269 658 265 659 125 660 269 661 125 662 129 663 273 664 269 665 129 666 273 667 129 668 131 669 272 670 273 670 131 670 272 671 131 672 136 673 275 674 272 675 136 676 275 677 136 677 140 677 274 678 275 678 140 678 274 679 140 679 154 679 207 680 21 681 20 682 207 683 201 684 21 685 18 686 207 687 20 688 208 689 207 690 18 691 209 692 202 693 201 694 207 695 209 696 201 697 210 698 209 699 207 700 210 701 207 702 208 703 211 704 208 705 18 706 212 707 210 708 208 709 211 710 212 711 208 712 214 713 202 714 209 715 215 716 212 717 211 718 216 719 209 720 210 721 213 722 215 723 211 724 214 725 203 726 202 727 216 728 210 729 212 730 216 731 214 732 209 733 215 734 216 735 212 736 217 737 213 738 16 739 217 740 215 741 213 742 218 743 203 744 214 745 219 746 216 747 215 748 218 749 214 750 216 751 221 752 217 753 16 754 221 755 16 756 14 757 218 758 204 759 203 760 217 761 220 762 215 763 219 764 218 765 216 766 220 767 219 768 215 769 221 770 14 771 13 772 223 773 219 774 220 775 222 776 220 777 217 778 222 779 217 780 221 781 224 782 218 783 219 784 226 785 221 786 13 787 224 788 219 788 223 788 227 789 220 790 222 791 228 792 222 793 221 794 225 795 226 795 13 795 229 796 204 797 218 798 227 799 223 799 220 799 226 800 228 801 221 802 230 803 224 804 223 805 205 806 204 807 229 808 11 809 226 810 225 811 229 812 218 812 224 812 228 813 227 813 222 813 229 814 224 815 230 816 231 817 228 817 226 817 232 818 11 818 9 818 233 819 205 819 229 819 231 820 226 820 11 820 230 821 223 822 227 823 232 824 231 824 11 824 206 825 205 826 233 827 234 828 227 829 228 830 233 831 235 831 206 831 236 832 228 832 231 832 237 833 229 834 230 835 237 836 230 837 227 838 236 839 234 839 228 839 8 840 232 840 9 840 234 841 237 841 227 841 238 842 231 843 232 844 233 845 229 846 237 847 239 848 237 849 234 850 238 851 236 852 231 853 242 854 232 855 8 856 240 857 234 857 236 857 241 858 242 859 8 860 241 861 8 862 6 863 242 864 238 864 232 864 238 865 240 865 236 865 241 866 6 867 4 868 240 869 239 869 234 869 243 870 238 871 242 872 244 873 240 874 238 875 246 876 233 877 237 878 247 879 241 880 4 881 249 882 239 882 240 882 243 883 244 883 238 883 248 884 242 885 241 886 247 887 248 887 241 887 246 888 237 888 239 888 245 889 247 890 4 891 250 892 247 893 245 894 248 895 243 896 242 897 249 898 240 899 244 900 235 901 233 901 246 901 251 902 239 903 249 904 252 905 243 906 248 907 252 908 244 909 243 910 255 911 248 912 247 913 251 914 246 915 239 916 253 917 252 918 248 919 255 920 247 921 250 922 254 923 250 924 245 925 255 926 253 927 248 928 257 929 249 929 244 929 258 930 252 930 253 930 257 931 244 932 252 933 256 934 235 934 246 934 1 935 259 936 254 937 259 938 250 939 254 940 258 941 257 941 252 941 260 942 255 943 250 944 261 945 251 945 249 945 261 946 249 947 257 948 263 949 258 950 253 951 263 952 253 952 255 952 261 953 246 954 251 955 259 956 260 957 250 958 263 959 255 960 260 961 262 962 259 962 1 962 256 963 246 963 261 963 264 964 257 964 258 964 266 965 260 966 259 967 265 968 259 969 262 970 264 971 258 972 263 973 267 974 257 975 264 976 266 977 259 978 265 979 48 980 235 980 256 980 267 981 261 981 257 981 268 982 263 982 260 982 268 983 260 984 266 985 264 986 263 987 268 988 270 989 256 989 261 989 267 990 270 990 261 990 269 991 266 992 265 993 269 994 268 995 266 996 271 997 267 997 264 997 272 998 264 999 268 1000 48 1001 256 1001 270 1001 273 1002 268 1003 269 1004 272 1005 271 1006 264 1007 273 1008 272 1009 268 1010 274 1011 48 1012 270 1013 270 1014 267 1015 271 1016 275 1017 271 1018 272 1019 270 1020 271 1021 275 1022 274 1023 270 1024 275 1025 285 1026 79 1027 78 1028 277 1029 70 1029 68 1029 292 1030 72 1030 70 1030 278 1031 277 1031 68 1031 66 1032 278 1032 68 1032 279 1033 66 1034 65 1035 280 1036 276 1036 80 1036 280 1037 80 1037 79 1037 281 1038 63 1038 62 1038 285 1039 280 1040 79 1041 289 1042 74 1042 73 1042 291 1043 290 1043 73 1043 291 1044 73 1044 72 1044 285 1045 78 1046 77 1047 292 1048 291 1048 72 1048 282 1049 76 1050 75 1051 283 1052 285 1052 77 1052 287 1053 282 1053 75 1053 76 1054 283 1054 77 1054 289 1055 73 1055 290 1055 74 1056 287 1056 75 1056 293 1057 292 1057 70 1057 277 1058 293 1058 70 1058 284 1059 281 1060 62 1061 64 1062 284 1063 62 1064 282 1065 283 1066 76 1067 289 1068 287 1068 74 1068 286 1069 278 1070 66 1071 279 1072 286 1072 66 1072 288 1073 64 1073 67 1073 294 1074 279 1074 65 1074 295 1075 284 1075 64 1075 63 1076 294 1076 65 1076 296 1077 288 1078 67 1079 69 1080 296 1081 67 1082 294 1083 63 1083 281 1083 69 1084 71 1084 297 1084 297 1085 296 1086 69 1087 288 1088 295 1089 64 1090 279 1091 294 1091 286 1091 102 1092 298 1092 105 1092 299 1093 61 1093 108 1093 308 1094 59 1095 60 1096 309 1097 108 1097 105 1097 298 1098 309 1099 105 1100 313 1101 99 1101 97 1101 91 1102 316 1102 92 1102 314 1103 313 1103 97 1103 315 1104 314 1104 97 1104 315 1105 92 1105 316 1105 315 1106 97 1106 92 1106 301 1107 58 1107 59 1107 301 1108 300 1108 58 1108 302 1109 83 1110 82 1111 303 1112 85 1113 83 1114 305 1115 61 1116 299 1117 305 1118 60 1119 61 1120 308 1121 301 1122 59 1123 311 1124 298 1125 102 1126 304 1127 302 1128 82 1129 305 1130 308 1131 60 1132 54 1133 304 1134 82 1135 307 1136 316 1136 91 1136 317 1137 85 1137 303 1137 317 1138 87 1138 85 1138 87 1139 306 1139 88 1139 88 1140 307 1140 91 1140 312 1141 311 1141 102 1141 99 1142 312 1142 102 1142 309 1143 299 1143 108 1143 310 1144 54 1145 53 1146 306 1147 307 1148 88 1149 321 1150 52 1151 94 1152 313 1153 312 1153 99 1153 320 1154 310 1155 53 1156 52 1157 320 1158 53 1159 317 1160 306 1160 87 1160 319 1161 304 1162 54 1163 318 1164 303 1164 83 1164 318 1165 83 1165 302 1165 320 1166 52 1167 321 1168 319 1169 54 1170 310 1171 303 1172 318 1173 317 1174 322 1175 324 1175 325 1175 323 1176 324 1176 322 1176 325 1177 326 1178 327 1179 324 1180 326 1180 325 1180 327 1181 326 1181 328 1181 326 1182 329 1182 328 1182 328 1183 329 1183 330 1183 329 1184 331 1184 330 1184 330 1185 332 1185 333 1185 331 1186 332 1186 330 1186 333 1187 332 1187 334 1187 332 1188 335 1188 334 1188 323 1189 336 1190 324 1191 336 1192 337 1192 324 1192 324 1193 337 1194 326 1195 337 1196 338 1196 326 1196 326 1197 339 1198 329 1199 338 1200 339 1200 326 1200 329 1201 340 1201 331 1201 339 1202 340 1203 329 1204 331 1205 340 1205 332 1205 340 1206 341 1207 332 1208 332 1209 342 1210 335 1211 341 1212 342 1212 332 1212 343 1213 325 1214 344 1215 322 1216 325 1217 343 1218 344 1219 325 1220 345 1221 325 1222 327 1222 345 1222 345 1223 327 1224 346 1225 327 1226 328 1226 346 1226 346 1227 328 1227 347 1227 328 1228 330 1229 347 1230 347 1231 330 1231 348 1231 330 1232 333 1232 348 1232 348 1233 334 1233 349 1233 333 1234 334 1234 348 1234 336 1235 344 1235 337 1235 343 1236 344 1236 336 1236 344 1237 345 1237 337 1237 337 1238 345 1238 338 1238 345 1239 346 1239 338 1239 338 1240 346 1240 339 1240 346 1241 347 1241 339 1241 339 1242 347 1242 340 1242 347 1243 348 1243 340 1243 340 1244 348 1244 341 1244 341 1245 349 1245 342 1245 348 1246 349 1246 341 1246 342 1247 349 1247 334 1247 342 1248 334 1248 335 1248 350 144 351 144 352 144 350 144 352 144 353 144 354 1249 343 1249 355 1249 355 1250 343 1250 336 1250 356 1251 357 1251 355 1251 336 1252 356 1252 355 1252 336 1253 358 1253 356 1253 357 1254 359 1254 355 1254 336 1255 360 1255 358 1255 359 1256 393 1256 355 1256 393 1257 361 1258 355 1259 336 1260 362 1260 360 1260 336 1261 363 1261 362 1261 336 1262 364 1262 363 1262 361 1263 300 1263 355 1263 336 1264 365 1264 364 1264 336 1265 366 1265 365 1265 336 1266 367 1266 366 1266 309 1267 368 1267 397 1267 298 1268 368 1268 309 1268 311 1269 368 1269 298 1269 397 1270 369 1270 309 1270 309 1271 369 1271 299 1271 299 1271 369 1271 305 1271 312 1272 370 1272 311 1272 311 1273 370 1273 368 1273 369 1271 396 1271 305 1271 313 1274 371 1274 312 1274 312 1275 371 1275 370 1275 314 1276 371 1276 313 1276 315 1277 372 1277 314 1277 314 1278 372 1278 371 1278 316 1279 372 1279 315 1279 307 1280 373 1280 316 1280 316 1281 373 1281 372 1281 375 1282 323 1282 374 1282 373 1283 323 1283 375 1283 306 1284 323 1284 307 1284 317 1285 323 1285 306 1285 318 1286 323 1286 317 1286 302 1287 323 1287 318 1287 304 1288 323 1288 302 1288 319 1289 323 1289 304 1289 310 1290 323 1290 319 1290 320 1291 323 1291 310 1291 321 1292 323 1292 320 1292 376 1293 323 1293 321 1293 377 1294 323 1294 376 1294 307 1295 323 1295 373 1295 301 1296 378 1297 300 1298 308 1299 378 1299 301 1299 305 1300 378 1301 308 1302 300 1271 378 1271 355 1271 396 1303 378 1303 305 1303 280 1304 378 1304 276 1304 285 1305 378 1305 280 1305 379 1306 378 1306 396 1306 276 1307 378 1307 379 1307 323 1308 380 1308 374 1308 285 1309 283 1309 378 1309 323 1310 381 1310 380 1310 283 1311 282 1311 378 1311 323 1312 394 1312 381 1312 282 1313 287 1313 378 1313 323 1314 395 1314 394 1314 323 1315 382 1315 395 1315 323 1316 383 1316 382 1316 287 1317 289 1317 378 1317 289 1318 290 1318 378 1318 323 1319 384 1319 383 1319 290 1320 291 1320 378 1320 291 1321 292 1321 378 1321 323 1322 385 1322 384 1322 292 1323 293 1323 378 1323 323 1324 297 1324 385 1324 293 1325 277 1326 378 1327 277 1328 278 1328 378 1328 323 1329 296 1329 297 1329 278 1330 286 1330 378 1330 323 1331 322 1331 296 1331 288 1332 322 1332 295 1332 296 1333 322 1333 288 1333 322 1334 386 1334 295 1334 286 1335 386 1335 378 1335 294 1336 386 1336 286 1336 281 1337 386 1337 294 1337 284 1338 386 1338 281 1338 295 1339 386 1339 284 1339 354 1340 386 1340 343 1340 343 1341 386 1341 322 1341 336 1342 323 1342 377 1342 336 1343 377 1344 387 1345 336 1346 387 1346 388 1346 336 1347 388 1347 392 1347 336 1348 392 1348 390 1348 336 1349 390 1350 389 1351 336 1352 389 1352 391 1352 336 1353 391 1353 367 1353 353 1354 355 1354 378 1354 352 1354 355 1354 353 1354 350 1355 353 1355 386 1355 386 1355 353 1355 378 1355 386 1356 354 1356 350 1356 350 1356 354 1356 351 1356 352 1357 351 1357 355 1357 355 1357 351 1357 354 1357 96 1358 376 1359 94 1360 390 1361 104 1362 109 1363 392 1364 101 1365 104 1366 111 1367 391 1367 109 1367 390 1368 392 1369 104 1370 376 1371 321 1371 94 1371 392 1372 388 1372 101 1372 98 1373 377 1373 96 1373 377 1374 376 1374 96 1374 389 1375 390 1376 109 1377 391 1378 389 1379 109 1380 387 1381 377 1382 98 1383 363 1384 115 1384 116 1384 101 1385 387 1386 98 1387 118 1388 362 1388 116 1388 362 1389 363 1389 116 1389 365 1390 112 1390 113 1390 367 1391 391 1391 111 1391 366 1392 111 1392 112 1392 366 1393 367 1393 111 1393 393 1394 119 1395 117 1396 365 1397 366 1397 112 1397 388 1398 387 1398 101 1398 364 1399 113 1399 115 1399 361 1400 393 1401 117 1402 114 1403 361 1403 117 1403 121 1404 356 1405 122 1406 365 1407 113 1407 364 1407 358 1408 120 1408 122 1408 356 1409 358 1409 122 1409 360 1410 362 1410 118 1410 114 1411 58 1411 300 1411 363 1412 364 1412 115 1412 357 1413 121 1413 119 1413 358 1414 118 1415 120 1416 360 1417 118 1418 358 1419 359 1420 357 1421 119 1422 393 1423 359 1423 119 1423 357 1424 356 1425 121 1426 300 1427 361 1427 114 1427 49 1428 385 1429 71 1430 394 1431 81 1431 84 1431 395 1432 51 1432 81 1432 394 1433 395 1434 81 1435 385 1436 297 1436 71 1436 384 1437 385 1437 49 1437 375 1438 89 1438 90 1438 395 1439 382 1439 51 1439 50 1440 384 1440 49 1440 381 1441 394 1441 84 1441 373 1442 375 1442 90 1442 93 1443 373 1443 90 1443 383 1444 51 1444 382 1444 383 1445 50 1445 51 1445 383 1446 384 1447 50 1448 374 1449 86 1449 89 1449 380 1450 84 1450 86 1450 374 1451 380 1452 86 1453 380 1454 381 1454 84 1454 372 1455 373 1455 93 1455 397 1456 106 1457 107 1458 56 1459 396 1459 57 1459 371 1460 93 1460 95 1460 374 1461 89 1461 375 1461 100 1462 371 1462 95 1462 371 1463 372 1463 93 1463 368 1464 103 1464 106 1464 370 1465 100 1465 103 1465 370 1466 371 1466 100 1466 368 1467 370 1467 103 1467 55 1468 80 1468 276 1468 369 1469 107 1469 110 1469 57 1470 369 1471 110 1472 397 1473 107 1474 369 1475 368 1476 106 1477 397 1478 396 1479 369 1479 57 1479 379 1480 56 1481 55 1482 379 1483 396 1484 56 1485 276 1486 379 1487 55 1488</p>
        </triangles>
      </mesh>
    </geometry>
  </library_geometries>
  <library_visual_scenes>
    <visual_scene id="Scene" name="Scene">
      <node id="node0" name="node0" type="NODE">
        <matrix sid="transform">1 0 0 0 0 1 0 0 0 0 1 0 0 0 0 1</matrix>
        <instance_geometry url="#Part__Feature_011-mesh" name="node0">
          <bind_material>
            <technique_common>
              <instance_material symbol="Part__Feature_011-material" target="#Part__Feature_011-material"/>
            </technique_common>
          </bind_material>
        </instance_geometry>
      </node>
      <node id="Camera" name="Camera" type="NODE">
        <matrix sid="transform">0.6859207 -0.3240135 0.6515582 7.358891 0.7276763 0.3054208 -0.6141704 -6.925791 0 0.8953956 0.4452714 4.958309 0 0 0 1</matrix>
        <instance_camera url="#Camera-camera"/>
      </node>
      <node id="Light" name="Light" type="NODE">
        <matrix sid="transform">-0.2908646 -0.7711008 0.5663932 4.076245 0.9551712 -0.1998834 0.2183912 1.005454 -0.05518906 0.6045247 0.7946723 5.903862 0 0 0 1</matrix>
        <instance_light url="#Light-light"/>
      </node>
    </visual_scene>
  </library_visual_scenes>
  <scene>
    <instance_visual_scene url="#Scene"/>
  </scene>
</COLLADA>