<?xml version="1.0" encoding="utf-8"?>
<COLLADA xmlns="http://www.collada.org/2005/11/COLLADASchema" version="1.4.1" xmlns:xsi="http://www.w3.org/2001/XMLSchema-instance">
  <asset>
    <contributor>
      <author>Blender User</author>
      <authoring_tool>Blender 4.0.2 commit date:2023-12-05, commit time:07:41, hash:9be62e85b727</authoring_tool>
    </contributor>
    <created>2024-01-15T15:17:58</created>
    <modified>2024-01-15T15:17:58</modified>
    <unit name="meter" meter="1"/>
    <up_axis>Z_UP</up_axis>
  </asset>
  <library_cameras>
    <camera id="Camera-camera" name="Camera">
      <optics>
        <technique_common>
          <perspective>
            <xfov sid="xfov">39.59775</xfov>
            <aspect_ratio>1.777778</aspect_ratio>
            <znear sid="znear">0.1</znear>
            <zfar sid="zfar">100</zfar>
          </perspective>
        </technique_common>
      </optics>
      <extra>
        <technique profile="blender">
          <shiftx sid="shiftx" type="float">0</shiftx>
          <shifty sid="shifty" type="float">0</shifty>
          <dof_distance sid="dof_distance" type="float">10</dof_distance>
        </technique>
      </extra>
    </camera>
  </library_cameras>
  <library_lights>
    <light id="Light-light" name="Light">
      <technique_common>
        <point>
          <color sid="color">1000 1000 1000</color>
          <constant_attenuation>1</constant_attenuation>
          <linear_attenuation>0</linear_attenuation>
          <quadratic_attenuation>0</quadratic_attenuation>
        </point>
      </technique_common>
      <extra>
        <technique profile="blender">
          <type sid="type" type="int">0</type>
          <flag sid="flag" type="int">0</flag>
          <mode sid="mode" type="int">1</mode>
          <red sid="red" type="float">1</red>
          <green sid="green" type="float">1</green>
          <blue sid="blue" type="float">1</blue>
          <shadow_r sid="blender_shadow_r" type="float">0</shadow_r>
          <shadow_g sid="blender_shadow_g" type="float">0</shadow_g>
          <shadow_b sid="blender_shadow_b" type="float">0</shadow_b>
          <energy sid="blender_energy" type="float">1000</energy>
          <spotsize sid="spotsize" type="float">75</spotsize>
          <spotblend sid="spotblend" type="float">0.15</spotblend>
          <clipsta sid="clipsta" type="float">0.04999995</clipsta>
          <clipend sid="clipend" type="float">30.002</clipend>
          <bias sid="bias" type="float">1</bias>
          <radius sid="radius" type="float">0.1</radius>
          <area_shape sid="area_shape" type="int">1</area_shape>
          <area_size sid="area_size" type="float">0.1</area_size>
          <area_sizey sid="area_sizey" type="float">0.1</area_sizey>
          <area_sizez sid="area_sizez" type="float">1</area_sizez>
        </technique>
      </extra>
    </light>
  </library_lights>
  <library_effects>
    <effect id="Part__Feature_013-effect">
      <profile_COMMON>
        <technique sid="common">
          <lambert>
            <emission>
              <color sid="emission">0 0 0 1</color>
            </emission>
            <diffuse>
              <color sid="diffuse">0 0 0 1</color>
            </diffuse>
            <index_of_refraction>
              <float sid="ior">1.45</float>
            </index_of_refraction>
          </lambert>
        </technique>
      </profile_COMMON>
    </effect>
  </library_effects>
  <library_images/>
  <library_materials>
    <material id="Part__Feature_013-material" name="Part__Feature.013">
      <instance_effect url="#Part__Feature_013-effect"/>
    </material>
  </library_materials>
  <library_geometries>
    <geometry id="Part__Feature_013-mesh" name="Part__Feature.013">
      <mesh>
        <source id="Part__Feature_013-mesh-positions">
          <float_array id="Part__Feature_013-mesh-positions-array" count="1197">0.245417 -0.32964 0.5991897 0.2454543 -0.3294836 0.6060817 0.2456981 -0.3279462 0.5991897 0.2457624 -0.327796 0.6060869 0.2460697 -0.3268733 0.5991896 0.2464348 -0.3261004 0.5991896 0.2464001 -0.3262131 0.6062175 0.2468739 -0.3253672 0.5991896 0.2471289 -0.3250846 0.6064925 0.2476716 -0.3243303 0.5991894 0.2482745 -0.3237627 0.6060732 0.2488726 -0.3232381 0.5991898 0.2495307 -0.3228396 0.6063008 0.2500112 -0.3225233 0.5991896 0.2512994 -0.3219547 0.5991895 0.2523971 -0.3216663 0.606087 0.2528753 -0.3215748 0.5991898 0.2545566 -0.3214973 0.5991896 0.2544584 -0.3215155 0.6060533 0.2561562 -0.3217303 0.5991896 0.257148 -0.3221001 0.6064881 0.2574477 -0.3221607 0.5991895 0.2585598 -0.3227053 0.5991894 0.258528 -0.3227018 0.6059022 0.259957 -0.3237366 0.5991897 0.2611027 -0.3249975 0.5991896 0.2614515 -0.3255496 0.6060969 0.2617908 -0.3261019 0.5991896 0.2620587 -0.3267077 0.6061936 0.2623395 -0.3273301 0.5991896 0.26265 -0.3285083 0.5991896 0.2625944 -0.3283542 0.6062448 0.2628104 -0.329678 0.5991899 0.2627663 -0.3297398 0.6063348 0.2454528 -0.4321984 0.6062905 0.2454395 -0.4310283 0.5991888 0.2454414 -0.3309853 0.5991886 0.2627787 -0.4322488 0.606146 0.2622551 -0.4348464 0.6060906 0.2615846 -0.4362816 0.5991899 0.2607086 -0.4374558 0.6062049 0.2605744 -0.4376462 0.5991896 0.2596353 -0.4385268 0.5991896 0.2593942 -0.4387056 0.6059933 0.2589486 -0.4390363 0.5991896 0.2582162 -0.4394754 0.5991896 0.2570399 -0.4400079 0.5991894 0.2578802 -0.4396293 0.6060979 0.2553217 -0.4404292 0.5991895 0.2541133 -0.4405037 0.5991895 0.2528747 -0.4404256 0.5991893 0.2532186 -0.4404417 0.6061173 0.251171 -0.4400023 0.5991898 0.2505061 -0.439722 0.6059412 0.2492803 -0.4390394 0.5991894 0.2485931 -0.4385302 0.5991894 0.2487978 -0.4386767 0.6060552 0.2479607 -0.4379571 0.5991895 0.2477174 -0.437671 0.6061075 0.2462682 -0.435594 0.5991893 0.2465638 -0.436138 0.6060569 0.2456653 -0.4338815 0.6060827 0.2457826 -0.4343231 0.5991896 0.2454138 -0.4323235 0.5991897 0.2627798 -0.3310154 0.5991888 0.2539937 -0.434652 0.6118839 0.2568712 -0.4325813 0.6118802 0.2458139 -0.4328087 0.6076677 0.2460314 -0.4344016 0.6072247 0.246407 -0.432194 0.6089406 0.2465964 -0.4357818 0.6071346 0.2465813 -0.4334466 0.6089813 0.2473085 -0.4329559 0.6100123 0.2467447 -0.4350802 0.6083323 0.2473801 -0.436787 0.6076073 0.2476444 -0.4348737 0.6097221 0.2482517 -0.4322959 0.6108322 0.2486594 -0.4382287 0.6074728 0.2476714 -0.4359512 0.60904 0.2503406 -0.4394574 0.6070187 0.2487737 -0.4339852 0.6109269 0.2487433 -0.4374938 0.6088152 0.2492666 -0.4326501 0.611357 0.2517403 -0.4401329 0.606338 0.2501316 -0.4326407 0.6116688 0.25009 -0.4388901 0.6081469 0.249087 -0.4360751 0.6102997 0.2500151 -0.4381596 0.6091986 0.252658 -0.4400253 0.6076743 0.2514582 -0.4394561 0.6082776 0.2510893 -0.4330503 0.6118357 0.2503246 -0.4343267 0.6115051 0.2539117 -0.4403151 0.607095 0.2504606 -0.4358317 0.6111184 0.2504253 -0.4370816 0.6104195 0.2550815 -0.440417 0.6063838 0.2511273 -0.4384535 0.6095541 0.2547419 -0.4400003 0.607995 0.2528212 -0.439209 0.6092369 0.2516063 -0.4377244 0.6104139 0.2564705 -0.4401517 0.6061676 0.2538262 -0.4392629 0.6093502 0.2526978 -0.4385446 0.6100016 0.2564262 -0.439868 0.6075036 0.2518274 -0.435029 0.6117074 0.2580695 -0.4393473 0.6071373 0.252487 -0.4373638 0.6109071 0.2551683 -0.4393891 0.6090338 0.2519329 -0.4337672 0.6118807 0.2568324 -0.4393788 0.6083741 0.2521557 -0.436109 0.6114361 0.2595661 -0.4383565 0.6070363 0.2542232 -0.4377261 0.6108136 0.2567222 -0.438843 0.6092824 0.2583406 -0.4387448 0.6081871 0.2552061 -0.4384604 0.6101353 0.2544033 -0.4365081 0.611458 0.2586047 -0.4380732 0.6089652 0.2537637 -0.4358125 0.6116776 0.2597112 -0.4375826 0.6083873 0.2615272 -0.4362261 0.6066341 0.2606175 -0.4372185 0.6072931 0.2567515 -0.4377183 0.6103944 0.255974 -0.4373728 0.6108399 0.2582814 -0.4375053 0.6098189 0.2609378 -0.4360553 0.6083918 0.2625916 -0.4335592 0.6064172 0.261882 -0.43496 0.6075192 0.2595602 -0.4364264 0.609726 0.2583349 -0.4365373 0.6104958 0.2562609 -0.4360896 0.6114101 0.2574139 -0.4363123 0.61102 0.2554664 -0.4352182 0.6117689 0.2622819 -0.4335429 0.6076365 0.2615631 -0.4344488 0.6086326 0.2607886 -0.4351012 0.6093559 0.2625263 -0.4322415 0.6073941 0.2619583 -0.4326279 0.6086906 0.2595321 -0.4351086 0.6104847 0.2583074 -0.4352966 0.6110986 0.2603231 -0.4342057 0.6102263 0.2611991 -0.432899 0.6097123 0.2571459 -0.4348413 0.6115968 0.2584101 -0.4337703 0.6114476 0.259438 -0.4337061 0.6109652 0.2568358 -0.4338247 0.6118177 0.2603035 -0.432465 0.6105821 0.259185 -0.4323537 0.6112791 0.2579007 -0.4325026 0.6117178 0.2622936 -0.329485 0.6080421 0.2612852 -0.3291518 0.6096261 0.2603204 -0.3295229 0.6105824 0.2589847 -0.3296743 0.6113649 0.2579644 -0.3293924 0.6116992 0.2568396 -0.3294425 0.6118822 0.262108 -0.3275925 0.6075087 0.2618029 -0.3284448 0.6086789 0.2612879 -0.3256524 0.6071788 0.261579 -0.3274518 0.6085498 0.2605499 -0.3244051 0.606414 0.2608906 -0.3256099 0.6081008 0.2596945 -0.3235641 0.6062111 0.2607462 -0.3268104 0.6093674 0.2596309 -0.323957 0.6077178 0.2598158 -0.3287778 0.6108292 0.2601695 -0.3276754 0.6103063 0.2583641 -0.3228203 0.6071559 0.2598733 -0.3253177 0.609215 0.2585408 -0.3237716 0.6088454 0.2587841 -0.32839 0.6113204 0.2591997 -0.3268259 0.6106981 0.2560228 -0.3217415 0.6062802 0.257194 -0.3226786 0.608202 0.2584996 -0.3252197 0.6102618 0.2560231 -0.322124 0.607809 0.2574921 -0.323802 0.6096307 0.2541911 -0.3217552 0.6074017 0.2577285 -0.3278719 0.6115915 0.256765 -0.3280299 0.6118139 0.25607 -0.3229734 0.6092912 0.2573692 -0.326491 0.6113688 0.2548313 -0.3222757 0.6085472 0.2525699 -0.3219113 0.6074079 0.2569256 -0.3245322 0.6105117 0.2507951 -0.3222082 0.6065382 0.253572 -0.3224762 0.6089251 0.2557355 -0.324109 0.6105452 0.2544633 -0.3233 0.6099994 0.2558109 -0.3255693 0.6113693 0.2518757 -0.3223396 0.6081317 0.251994 -0.3228675 0.6091032 0.2554365 -0.3264303 0.6116896 0.2502738 -0.3231623 0.6084445 0.2494338 -0.3232972 0.607674 0.2546684 -0.3250889 0.611266 0.2484211 -0.323879 0.6071323 0.2525997 -0.3234842 0.6100092 0.2535965 -0.3243824 0.6108583 0.2509591 -0.3238441 0.6097751 0.2485507 -0.3244139 0.6084385 0.2474297 -0.3252852 0.6077906 0.2521601 -0.3243914 0.6106605 0.2497861 -0.3244265 0.6096452 0.2532659 -0.3260341 0.6116155 0.2542124 -0.3271813 0.6118782 0.2521084 -0.3255528 0.6113013 0.2463619 -0.3270847 0.6077013 0.250933 -0.3249839 0.6106869 0.2486079 -0.3252607 0.6093995 0.2475984 -0.326071 0.6089735 0.2456336 -0.3292167 0.6070704 0.2488602 -0.325904 0.6101117 0.2460976 -0.3284429 0.6080291 0.2501205 -0.3260741 0.6109212 0.2469133 -0.3279372 0.6092262 0.2479888 -0.3275523 0.6102344 0.2507579 -0.3267268 0.6113996 0.2517932 -0.3273468 0.6117646 0.2492617 -0.3270057 0.6108846 0.2461134 -0.3295724 0.6084081 0.2467708 -0.3295654 0.6094443 0.2475189 -0.3290128 0.6102032 0.2518265 -0.3286678 0.611885 0.2506155 -0.3281977 0.6116741 0.2482579 -0.3293234 0.6108087 0.2494785 -0.3282001 0.6113036 0.2494017 -0.3295198 0.611434 0.2507539 -0.3295713 0.6118112 0.2476533 -0.4259502 0.5991893 0.2477168 -0.3361176 0.5991893 0.2489129 -0.337194 0.5991893 0.2485893 -0.4250729 0.5991892 0.24963 -0.4243268 0.5991893 0.2468738 -0.4269666 0.5991892 0.246874 -0.3350337 0.5991892 0.2502806 -0.3380247 0.5991892 0.2511854 -0.4235919 0.5991893 0.2515847 -0.3385289 0.5991892 0.2528951 -0.3388288 0.5991893 0.2528582 -0.4231762 0.5991893 0.2545264 -0.4230954 0.5991893 0.2545406 -0.3389046 0.5991893 0.2558111 -0.3387366 0.5991892 0.2558109 -0.4232634 0.5991892 0.25705 -0.4235954 0.5991893 0.2569258 -0.3384455 0.5991892 0.2585362 -0.3377075 0.5991893 0.2585941 -0.4243264 0.5991893 0.2596353 -0.4250727 0.5991892 0.2598835 -0.3367277 0.5991892 0.2606591 -0.4260519 0.5991893 0.2608423 -0.3357198 0.5991892 0.2626497 -0.430105 0.5991892 0.2626475 -0.3319075 0.5991892 0.2623283 -0.4288946 0.5991893 0.2622974 -0.3331894 0.5991894 0.2615903 -0.3346754 0.5991893 0.2615901 -0.4273249 0.5991893 0.2456577 -0.4296882 0.5991893 0.2456536 -0.3322955 0.5991893 0.2460699 -0.4284718 0.5991892 0.2462332 -0.3339228 0.5991894 0.2464349 -0.4276992 0.5991892 0.2627182 -0.4331692 0.5991888 0.2628131 -0.4313028 0.5991895 0.2623006 -0.4347814 0.5991896 0.2654696 -0.4325432 0.5610895 0.2649908 -0.4351006 0.5610895 0.2500064 -0.4394744 0.5991895 0.2635642 -0.4381165 0.5610895 0.2471051 -0.4369797 0.5991898 0.2652596 -0.4340342 0.5610894 0.2455762 -0.4334978 0.5991899 0.2508105 -0.4426782 0.5610894 0.2497597 -0.4423021 0.5610894 0.2646182 -0.4361439 0.5610894 0.264136 -0.4371645 0.5610894 0.2436072 -0.436145 0.5610894 0.2629046 -0.439007 0.5610894 0.2621554 -0.4398345 0.5610894 0.2609541 -0.4408965 0.5610895 0.2427971 -0.4329 0.5610896 0.2523324 -0.4430406 0.5610895 0.2588838 -0.4421324 0.5610895 0.2574143 -0.4426782 0.5610894 0.2453191 -0.4390059 0.5610894 0.2427543 -0.4310728 0.5610895 0.2563315 -0.4429497 0.5610894 0.2546768 -0.4431686 0.5610895 0.2481965 -0.4415237 0.5610895 0.2464221 -0.4401907 0.5610895 0.2443582 -0.4376662 0.5610895 0.2430495 -0.434477 0.5610894 0.2649908 -0.3335006 0.5610895 0.2654826 -0.3307826 0.5610893 0.2518935 -0.3413496 0.5610894 0.2652595 -0.3324345 0.5610894 0.2497603 -0.3407022 0.5610894 0.2529973 -0.3415135 0.5610894 0.2477942 -0.3396508 0.5610894 0.2468981 -0.3389858 0.5610894 0.2453219 -0.3374087 0.5610894 0.2646189 -0.3345426 0.5610894 0.2641416 -0.3355532 0.5610894 0.2635681 -0.3365111 0.5610893 0.2487502 -0.3402245 0.5610894 0.2629054 -0.3374062 0.5610893 0.2508091 -0.3410781 0.5610894 0.2621535 -0.338236 0.5610893 0.2613285 -0.3389847 0.5610894 0.2604308 -0.3396508 0.5610894 0.2594752 -0.3402243 0.5610894 0.2584643 -0.3407022 0.5610894 0.2460682 -0.3382335 0.5610894 0.2569302 -0.341228 0.5610894 0.2427501 -0.3295195 0.5610894 0.2433654 -0.3339465 0.5610895 0.2552272 -0.3415135 0.5610894 0.2541124 -0.3415682 0.5610894 0.2428564 -0.3318755 0.5610898 0.2443342 -0.3360269 0.5610895 0.07627153 -0.1269599 0.5610632 0.07629501 -0.3810178 0.5610886 0.0772348 -0.3800773 0.5581779 0.07762807 -0.1283189 0.5573989 0.07937294 -0.3779415 0.5549996 0.07986247 -0.1305434 0.5545231 0.0820226 -0.3752888 0.5528283 0.08199322 -0.1326845 0.552861 0.08433127 -0.1350218 0.5516965 0.08474791 -0.372562 0.5515469 0.08725059 -0.1379449 0.5509891 0.08756142 -0.3696979 0.5509617 0.2160693 -0.3810579 0.5610883 0.2146861 -0.3796728 0.5573993 0.2128409 -0.3778287 0.5549232 0.2111485 -0.3761389 0.553424 0.2088218 -0.3737979 0.5520244 0.2053503 -0.3703879 0.5510075 0.21604 -0.1269669 0.5610888 0.2153114 -0.1277029 0.5587638 0.2140004 -0.1290123 0.5563015 0.2115247 -0.1314896 0.553685 0.2088111 -0.134199 0.5520331 0.2054605 -0.1375427 0.5510175 1.12422e-4 -0.4572 0.5356893 0.2922124 -0.05079996 0.5356893 0.2922124 -0.4572 0.5356893 1.12422e-4 -0.05079996 0.5356893 1.12422e-4 -0.05079996 0.5610893 0.2922124 -0.05079996 0.5610893 0.2617836 -0.3217916 0.5610895 0.2629048 -0.3229932 0.5610894 0.2604302 -0.3207489 0.5610894 0.2635681 -0.3238889 0.5610894 0.2594733 -0.3201752 0.5610894 0.2641436 -0.32485 0.5610894 0.2584655 -0.319698 0.5610894 0.2646149 -0.325849 0.5610895 0.264988 -0.3268888 0.5610894 0.2574137 -0.3193217 0.5610894 0.2652626 -0.3279785 0.5610894 0.2563315 -0.3190504 0.5610894 0.2546187 -0.3188297 0.5610895 0.2654279 -0.3291015 0.5610896 0.2529972 -0.3188863 0.5610894 0.2518934 -0.3190504 0.5610894 0.2508106 -0.3193218 0.5610894 0.2497606 -0.3196977 0.5610894 0.2481558 -0.3205028 0.5610895 0.2464237 -0.3218075 0.5610895 0.2453209 -0.3229923 0.5610894 0.2621535 -0.423764 0.5610894 0.2608441 -0.4226227 0.5610894 0.2629055 -0.424594 0.5610893 0.2635641 -0.4254834 0.5610894 0.2641324 -0.4264294 0.5610893 0.2594754 -0.4217759 0.5610894 0.258465 -0.4212979 0.5610894 0.2574145 -0.4209218 0.5610894 0.2557057 -0.4205304 0.5610894 0.2922124 -0.4572 0.5610893 0.2646113 -0.4274395 0.5610894 0.2651261 -0.4289294 0.5610895 0.2429613 -0.3279882 0.5610894 0.2654276 -0.4306995 0.5610896 0.253521 -0.4204334 0.5610895 0.2518935 -0.4206503 0.5610894 0.250248 -0.4210939 0.5610895 0.2487499 -0.4217758 0.5610894 0.2477926 -0.4223501 0.5610894 0.2464196 -0.4234117 0.5610895 0.2453192 -0.424594 0.5610894 0.2443403 -0.4259634 0.5610895 0.2433654 -0.4280536 0.5610895 0.2429603 -0.4295921 0.5610894 1.12422e-4 -0.4572 0.5610893 0.2434075 -0.3263307 0.5610895 0.244343 -0.3243584 0.5610895</float_array>
          <technique_common>
            <accessor source="#Part__Feature_013-mesh-positions-array" count="399" stride="3">
              <param name="X" type="float"/>
              <param name="Y" type="float"/>
              <param name="Z" type="float"/>
            </accessor>
          </technique_common>
        </source>
        <source id="Part__Feature_013-mesh-normals">
          <float_array id="Part__Feature_013-mesh-normals-array" count="2829">-0.9837275 0.1795905 0.005253136 -0.9865056 0.1637195 0.001619815 -0.9449497 0.3272117 0.001677393 -0.9277581 0.3730837 0.008574128 -0.9041801 0.4271448 0.002395689 -0.8579044 0.5137938 0.004012763 -0.840946 0.5410531 0.008442163 -0.7925531 0.6097893 0.004089593 -0.7538102 0.6569856 0.01183599 -0.6728014 0.7398201 -0.002096593 -0.593239 0.8049668 0.009793937 -0.5317615 0.8468925 0.001744389 -0.4481693 0.8938984 0.009492456 -0.4038117 0.9148341 0.003853023 -0.3177103 0.9481249 0.01092749 -0.2343432 0.9721481 -0.003352582 -0.07293385 0.9973356 0.001584112 -0.04603636 0.9988892 0.01005536 0.1424318 0.9897956 0.004226863 0.1441767 0.9895409 0.004685044 0.3023988 0.9531544 0.007192492 0.3161419 0.9486982 0.005102574 0.4001734 0.9164384 0.001413643 0.4397838 0.8980412 0.01060366 0.5938678 0.8045591 0.002387285 0.5940018 0.8044601 0.002439796 0.7000338 0.7140576 0.008622646 0.7401031 0.6724917 0.001489639 0.7867698 0.6171722 0.009595572 0.8487465 0.5287997 -5.99054e-4 0.8854404 0.4647101 0.006326019 0.9130129 0.4079307 3.62966e-4 0.950784 0.3096731 0.01060527 0.9669933 0.2547934 0.002056777 0.9923072 0.1235918 0.007185101 0.9907185 0.1358438 0.004839479 -0.9997894 0.0198692 0.005144536 -0.9999983 1.8243e-5 0.001872479 -0.9998188 -0.01812893 0.005820631 -0.9999983 1.77498e-5 0.001863837 0.9901896 -0.1393836 0.009830236 0.9672699 -0.2537288 0.003259479 0.9680393 -0.2507668 0.004018843 0.8860863 -0.4634059 0.01030397 0.9025116 -0.4306616 0.001894772 0.8307087 -0.5566073 0.01056534 0.803693 -0.5950437 7.77011e-4 0.6886192 -0.7251035 0.005340635 0.6840029 -0.7294484 0.0067119 0.5958424 -0.8031015 1.00057e-5 0.5141662 -0.8576533 0.007998526 0.521102 -0.8534709 0.006338119 0.4124218 -0.9109931 -2.28401e-4 0.3479158 -0.9374819 0.009067714 0.1887983 -0.9819837 0.007957756 0.2381211 -0.9712353 -5.79924e-4 0.01173108 -0.9998765 0.01045852 0.06153863 -0.9980977 0.003743946 -0.06287306 -0.9980213 8.19227e-4 -0.2033081 -0.9790835 0.00783205 -0.3181651 -0.9480014 0.008023262 -0.2411556 -0.9704854 0.001456439 -0.4128958 -0.9107738 -0.002865552 -0.5138929 -0.8578293 0.006564557 -0.5215513 -0.8531783 0.008423507 -0.59541 -0.8034219 6.04628e-4 -0.6714413 -0.7410459 0.004206836 -0.6811487 -0.732118 0.006316542 -0.7524054 -0.6587 7.65953e-4 -0.799178 -0.6009998 0.0106768 -0.856002 -0.5169563 -0.004107415 -0.9289698 -0.3700016 0.01067417 -0.9340893 -0.3569714 0.006988942 -0.9701392 -0.2425472 -9.5536e-4 -0.9905667 -0.1369339 0.005182921 -0.9919764 -0.1261903 0.007675349 0.9987094 -0.05075162 -0.001965105 0.9997229 -0.02277523 0.005966126 0.9999983 3.3106e-4 0.001838386 0.9999878 1.11849e-4 0.004958987 -5.12556e-4 0.002520084 0.9999968 0.001026391 0.002943873 0.9999952 9.71337e-5 -1.9618e-5 1 5.37445e-4 -4.08411e-5 0.9999999 -0.9708951 -0.1460272 0.1898388 -0.9566234 -0.1916615 0.2194027 -0.9209668 -0.3681591 0.1275901 -0.9108595 -0.3828641 0.154111 -0.8803147 -0.1075515 0.4620378 -0.8846954 -0.2331161 0.4036965 -0.8666967 -0.3761597 0.3276289 -0.8765588 -0.2505302 0.4109493 -0.8766323 -0.2504953 0.4108138 -0.8766731 -0.2505125 0.4107165 -0.8162445 -0.5407088 0.2034182 -0.7929313 -0.09083288 0.6025025 -0.7901571 -0.5890122 0.1694595 -0.8092077 -0.4577371 0.3683202 -0.7810813 -0.2964164 0.5495901 -0.7179154 -0.6582391 0.2265368 -0.6677823 -0.7260136 0.1642287 -0.7705122 -0.4698296 0.4307797 -0.7423826 -0.2254582 0.6309016 -0.7566218 -0.3632239 0.5436835 -0.5111877 -0.8495439 0.1302399 -0.5927021 -0.1386435 0.7933992 -0.6948003 -0.5505599 0.4627487 -0.6948177 -0.5505098 0.4627823 -0.6947827 -0.5506963 0.4626128 -0.5408169 -0.8157891 0.2049526 -0.6712059 -0.6317496 0.3877823 -0.6241323 -0.2227129 0.7489045 -0.6241649 -0.2226094 0.748908 -0.6241632 -0.2226182 0.7489068 -0.4844734 -0.1010181 0.8689539 -0.537971 -0.7248099 0.4303926 -0.5114572 -0.8079364 0.2926607 -0.6204698 -0.4305866 0.6554481 -0.6204804 -0.4304735 0.6555125 -0.6205002 -0.4306806 0.6553578 -0.5978111 -0.5061084 0.6216722 -0.5978823 -0.5060083 0.6216851 -0.5978925 -0.5059886 0.6216914 -0.360302 -0.9172402 0.1698611 -0.3602387 -0.917279 0.1697858 -0.3602571 -0.9172687 0.1698028 -0.5165909 -0.7200369 0.4633367 -0.5663036 -0.313636 0.7621895 -0.3867875 -0.8555194 0.3442121 -0.3069825 -0.911577 0.2734763 -0.1723583 -0.9653314 0.19603 -0.2950343 -0.9146731 0.2762753 -0.4954324 -0.5677975 0.6573833 -0.3749812 -0.1559174 0.9138265 -0.3351749 -0.1290085 0.9332817 -0.3695565 -0.7752667 0.5122399 -0.1249642 -0.9688017 0.2140263 -0.4431908 -0.3179826 0.8381342 -0.4863948 -0.5674745 0.6643741 -0.005843937 -0.9911695 0.1324732 -0.3688631 -0.7750526 0.513063 -0.3826216 -0.6250166 0.680408 -0.4015832 -0.4382573 0.8041527 -0.3878359 -0.2623995 0.8835892 -0.3879046 -0.2618671 0.883717 -0.3879159 -0.262186 0.8836175 -0.04530507 -0.929192 0.3668102 -0.2488696 -0.7919862 0.5575141 -0.1739826 -0.8654092 0.4698905 -0.1740942 -0.8653957 0.4698741 -0.1740788 -0.8653987 0.4698743 -0.2310116 -0.1485683 0.9615411 -0.1856768 -0.1160095 0.9757388 0.07734823 -0.9612772 0.2645062 0.07731693 -0.9612806 0.2645028 0.07729107 -0.9612829 0.2645022 -0.09986233 -0.8775972 0.4688824 -0.2201709 -0.7536182 0.6193419 -0.333599 -0.6191617 0.7108802 -0.05805951 -0.8928301 0.4466359 0.214818 -0.9538912 0.2096298 -0.2389736 -0.6709036 0.7019829 0.1555399 -0.9479269 0.2779247 -0.2638539 -0.4649664 0.8450962 -0.2638661 -0.465054 0.845044 -0.2638557 -0.4649723 0.8450922 -0.2475427 -0.2620978 0.9327526 -0.2475449 -0.262137 0.932741 -0.2475427 -0.2620933 0.9327539 0.3495591 -0.9183816 0.1854287 0.3370937 -0.9186037 0.2062408 -0.2632657 -0.4915515 0.8301015 -0.2632946 -0.4914889 0.8301294 -0.2632549 -0.4915944 0.8300795 0.03530901 -0.8675981 0.496011 -0.223377 -0.3009973 0.9270941 -0.2234878 -0.3006817 0.9271697 -0.223458 -0.3008572 0.92712 -0.1555053 -0.1212918 0.9803603 -0.1555305 -0.1212881 0.9803569 -0.1557462 -0.1213398 0.9803162 -0.1129667 -0.7590107 0.641203 -0.1756746 -0.6186059 0.7658102 0.1901751 -0.8911167 0.4120008 0.1808798 -0.8783011 0.4425718 0.5227824 -0.841994 0.1332098 -0.2336524 -0.4291695 0.8724794 -0.2335447 -0.4292523 0.8724674 -0.2338231 -0.4291273 0.8724543 0.3511515 -0.8766673 0.3288573 -0.01797372 -0.6867887 0.7266349 -0.0180509 -0.6867817 0.7266397 -0.01783329 -0.686841 0.726589 0.5513316 -0.8142651 0.1816751 0.209502 -0.8308486 0.5155577 0.07926404 -0.7634611 0.6409716 -0.08627992 -0.6159457 0.7830497 0.3983088 -0.8361808 0.3770305 0.6715524 -0.7288542 0.1333758 0.1648528 -0.7568479 0.6324594 -0.01289552 -0.6875631 0.7260102 -0.01293241 -0.6875606 0.7260118 -0.01305741 -0.6875748 0.7259962 0.5392662 -0.7829696 0.3100817 0.3872008 -0.7727848 0.502871 0.572041 -0.7367065 0.3606005 -0.08066624 -0.4056443 0.9104645 -0.08052086 -0.4055777 0.9105071 -0.08060252 -0.4056224 0.91048 0.7842535 -0.5893552 0.1939252 0.7842423 -0.5893806 0.1938931 0.7842654 -0.5893236 0.1939728 -0.04860299 -0.4611125 0.8860096 -0.0485965 -0.4611122 0.8860101 -0.04861354 -0.4611135 0.8860086 0.6945594 -0.6886375 0.2082442 -0.09429031 -0.2694041 0.9584001 0.5448777 -0.7173172 0.4342399 -0.07308709 -0.3608506 0.9297555 -0.0578705 -0.1310642 0.9896834 0.3970542 -0.7571096 0.5187803 0.2151395 -0.6894689 0.6916269 0.6590067 -0.680987 0.3193228 -0.05158621 -0.1649212 0.9849568 0.1077204 -0.5930032 0.7979623 0.3861471 -0.6938837 0.6077958 0.1669108 -0.6163706 0.7695637 0.3421853 -0.66515 0.6636903 0.08279162 -0.4755223 0.8757991 0.7945665 -0.51798 0.3167979 0.8968061 -0.393166 0.2028776 0.7139596 -0.5745511 0.400191 0.563118 -0.5927805 0.5757686 0.5631263 -0.5927631 0.5757785 0.5631706 -0.592692 0.5758083 0.5418 -0.5906336 0.5980007 0.8286848 -0.4575647 0.3223603 0.1189125 -0.4252727 0.8972197 0.360409 -0.5481389 0.754751 0.3605863 -0.5479673 0.754791 0.3605256 -0.548043 0.7547651 0.9290133 -0.29839 0.2188559 0.6590308 -0.5308097 0.532841 0.3285941 -0.5083894 0.7959687 0.328742 -0.508397 0.7959029 0.3285378 -0.5083985 0.7959862 0.04101204 -0.2663264 0.96301 0.04107648 -0.266416 0.9629825 0.04105567 -0.2663936 0.9629896 0.928973 -0.2820253 0.2397309 0.8262192 -0.3834842 0.4126765 0.2581759 -0.4916236 0.8316559 0.09312504 -0.3052601 0.9477046 0.008679449 -0.1765949 0.9842454 0.008728146 -0.1765312 0.9842564 0.008797764 -0.1764766 0.9842656 0.6765294 -0.4684139 0.5682398 0.2117254 -0.4360157 0.8746787 0.4882482 -0.5180407 0.7023159 0.975302 -0.09836226 0.1977647 0.8811217 -0.2801695 0.3809589 0.7818683 -0.3784237 0.4954569 0.7818447 -0.3785927 0.495365 0.7818577 -0.3785451 0.4953809 0.9599882 -0.1345555 0.2455964 0.8723913 -0.203489 0.4444386 0.5096764 -0.4206787 0.7505061 0.5097228 -0.4206891 0.7504688 0.5096301 -0.4206753 0.7505394 0.6188659 -0.3819721 0.686369 0.9219928 -0.1037057 0.3730609 0.6271299 -0.3502919 0.6957038 0.3785483 -0.3977251 0.8357728 0.2545667 -0.2952647 0.9208771 0.4605366 -0.3796803 0.8023397 0.1545327 -0.2524086 0.9552013 0.7627156 -0.2394128 0.6007882 0.8113341 -0.1937108 0.5515552 0.2634294 -0.3226832 0.9091098 0.7318097 -0.2396926 0.6379671 0.04672998 -0.08078151 0.9956359 0.5383706 -0.24059 0.8076347 0.3053144 -0.2317334 0.9236248 0.1381866 -0.1699659 0.9757132 0.464316 -0.2589823 0.8469586 0.6523473 -0.1446961 0.7439798 0.4253166 -0.2288817 0.875625 0.5791929 -0.1569787 0.7999334 0.03818911 -0.05122137 0.9979569 0.2311167 -0.1387982 0.9629746 0.5194823 -0.1000517 0.8486036 0.5194079 -0.1002494 0.8486256 0.5194314 -0.1002073 0.8486163 0.4280596 -0.1276541 0.8946896 0.2313901 -0.1131209 0.9662621 0.2313786 -0.1130158 0.9662771 0.2313854 -0.113046 0.966272 0.1595319 -0.05406153 0.9857115 0.3295252 -0.06827175 0.9416753 0.9801685 -2.46434e-4 0.1981665 0.9637665 5.00592e-4 0.266747 0.9160075 -4.55358e-4 0.4011609 0.8436173 6.33352e-4 0.5369446 0.8026925 -1.70619e-4 0.5963933 0.7039607 5.78435e-6 0.7102389 0.6966585 -1.17521e-4 0.7174029 0.5289545 -8.99742e-5 0.8486502 0.5054256 2.65803e-4 0.8628702 0.3109963 -1.86415e-4 0.9504112 0.3110068 -1.00493e-4 0.9504077 0.3109973 -1.59059e-4 0.9504108 0.3233038 -2.89104e-5 0.9462952 0.1606768 2.97147e-5 0.9870071 0.1557141 8.19734e-5 0.9878022 -0.9839683 3.76528e-4 0.1783439 -0.9673357 -2.21568e-4 0.2534987 -0.9412468 3.08276e-4 0.3377195 -0.9063687 -4.00464e-4 0.4224874 -0.8443896 3.64922e-4 0.5357295 -0.7653939 -4.4442e-4 0.6435621 -0.7122438 1.52345e-4 0.7019322 -0.6559926 -5.87878e-5 0.7547674 -0.6336236 2.14788e-4 0.7736415 -0.4797821 2.28564e-4 0.8773877 -0.4592429 -6.19679e-5 0.8883108 -0.3392899 -2.58446e-4 0.9406818 -0.2686347 2.9175e-4 0.9632422 -0.1716752 -3.23523e-4 0.9851536 -0.05315685 -9.52663e-5 0.9985862 -0.06878674 1.37121e-5 0.9976314 0.9599223 0.1350439 0.2455862 0.9497225 0.1676643 0.2644165 0.9349907 0.309758 0.1727494 0.9350554 0.3095728 0.172731 0.935055 0.3095743 0.1727309 0.9048799 0.195335 0.3782017 0.8774819 0.4125418 0.2446118 0.8658212 0.4685472 0.1755481 0.8763235 0.2511908 0.411048 0.8763429 0.2511577 0.4110269 0.8763154 0.2512031 0.4110577 0.8483764 0.07991635 0.5233268 0.7963594 0.5788057 0.1754874 0.8424761 0.4146621 0.3439322 0.8367122 0.4031661 0.3706344 0.7592877 0.249273 0.6011201 0.7682398 0.2423429 0.592518 0.7356743 0.6125186 0.2891439 0.735697 0.6124855 0.2891566 0.7356269 0.6126016 0.2890891 0.7799675 0.4074164 0.4750396 0.724721 0.6215132 0.2974911 0.7247367 0.6215461 0.2973841 0.7247286 0.6214636 0.2975759 0.6580849 0.7213329 0.2158776 0.6620535 0.163438 0.7314186 0.561558 0.8136675 0.1503267 0.5928732 0.7727768 0.2265335 0.714904 0.2372703 0.6577349 0.7100871 0.4688414 0.5253229 0.6195412 0.1653172 0.7673584 0.4456184 0.8839634 0.1415383 0.445608 0.8839683 0.1415401 0.4455902 0.8839767 0.1415444 0.6601873 0.6059634 0.443803 0.4999689 0.05225312 0.8644657 0.4999923 0.05222338 0.8644539 0.4999312 0.0523138 0.8644838 0.6045682 0.6357365 0.4799337 0.458676 0.1022072 0.8827061 0.6052123 0.3646092 0.7076569 0.5202545 0.7662762 0.3770359 0.590718 0.4160012 0.691372 0.5255966 0.2210934 0.8215022 0.365439 0.8848989 0.2888048 0.4834743 0.2096942 0.8498712 0.4545145 0.7956253 0.4004961 0.5648461 0.4366872 0.7001808 0.5648536 0.4366831 0.7001774 0.5648021 0.4367073 0.7002038 0.5147734 0.5919559 0.6201585 0.326675 0.8980357 0.2946445 0.3267056 0.8980305 0.2946264 0.3267751 0.8980247 0.2945671 0.2555357 0.9378952 0.2346364 0.3307953 0.08393305 0.9399626 0.3307434 0.08402246 0.9399729 0.3308526 0.08386349 0.9399487 0.1124355 0.9742429 0.1954718 0.4619539 0.6134074 0.6405701 0.1399734 0.9605475 0.2403247 0.3709449 0.7660309 0.5249731 0.2989802 0.1135169 0.9474834 0.1579533 0.05602353 0.9858561 0.3734987 0.2555636 0.891732 0.2403017 0.8454838 0.4768778 -0.06936937 0.9844706 0.1612621 0.1060953 0.92628 0.3615925 0.3223183 0.7756502 0.5426581 0.3489934 0.2375535 0.9065164 0.349443 0.2373296 0.9064018 0.3492981 0.2374753 0.9064195 -0.09333491 0.9766619 0.193443 0.3789197 0.3927596 0.8379498 0.2076796 0.1012347 0.9729444 0.2076854 0.1012673 0.9729397 0.2076769 0.1011843 0.9729502 0.1907278 0.8542993 0.4835243 0.3698961 0.584403 0.7222535 -0.01766693 0.9064958 0.4218452 0.3250846 0.4398964 0.8371446 0.2369464 0.6877956 0.686144 0.2540793 0.6583628 0.7085212 0.2541515 0.6583048 0.7085492 0.2541169 0.6583359 0.7085326 -0.260095 0.9427145 0.2089019 0.09719371 0.8015446 0.5899828 0.2583182 0.4357117 0.8622223 0.2583193 0.4357037 0.862226 0.2583214 0.4356785 0.8622381 -0.1082957 0.9148685 0.3889572 -0.08411002 0.8908131 0.4465172 0.1577893 0.7106336 0.6856402 0.1883239 0.2039538 0.9606961 0.04602628 0.8107945 0.5835187 -0.2860102 0.9194814 0.2697262 0.1979137 0.4895249 0.8492324 -0.1582477 0.8593669 0.4862574 -0.3798226 0.8646216 0.3288838 0.1664998 0.2130801 0.9627434 0.04187875 0.05046993 0.9978471 -0.4219518 0.8516506 0.3108825 -0.4696534 0.8469905 0.2490637 0.1292344 0.4924262 0.860706 -0.6033048 0.7793999 0.1689953 -0.07193326 0.7617825 0.643827 -0.1240989 0.7797214 0.6137052 0.1658398 0.2797781 0.9456329 -0.5724519 0.7891465 0.222591 -0.3240349 0.8141469 0.4818364 0.05055743 0.5555564 0.8299404 0.03996515 0.6012324 0.7980743 0.06969052 0.1346604 0.9884381 -0.7163932 0.6758208 0.173341 -0.6008729 0.7170457 0.3532665 -0.2500317 0.7144493 0.6534879 -0.06022495 0.6495915 0.7578944 -0.5265242 0.7228047 0.4475777 -0.3442379 0.7517228 0.5625061 -0.7247691 0.6354995 0.2661771 -0.244859 0.6410173 0.7274208 -0.2448377 0.6410486 0.7274003 -0.2448655 0.6410067 0.727428 -0.6909673 0.642342 0.3316037 -0.5025782 0.6893552 0.5217323 -0.1113346 0.6146325 0.7809172 -0.4140103 0.7057521 0.5748996 0.03816759 0.2961417 0.9543812 0.02942913 0.3372951 0.9409389 -0.06420284 0.4233096 0.9037074 -0.06410098 0.4233524 0.9036946 -0.06438291 0.4232881 0.9037047 -0.8343262 0.4818511 0.2678045 -0.838857 0.4785469 0.2594451 -0.2757652 0.6043335 0.7474855 -0.122384 0.4835831 0.8667005 -0.9168133 0.3541858 0.1844072 -0.06585687 0.4302181 0.9003196 -0.06569457 0.4304375 0.9002266 -0.06580227 0.4303439 0.9002634 -0.6950575 0.5492378 0.4639322 -0.5509111 0.6095479 0.5700424 -0.5509132 0.6095959 0.569989 -0.550891 0.609499 0.5701143 -0.3704694 0.5854331 0.7211245 -0.7925036 0.4498413 0.4118021 0.008757472 0.2301115 0.9731249 -0.2130835 0.4792031 0.8514457 -0.657274 0.5455684 0.5199481 -0.975598 0.1777004 0.1289622 -0.5181429 0.5353047 0.6670659 -0.938452 0.2500252 0.2383177 -0.4320873 0.5060493 0.7464681 -0.432088 0.5060497 0.7464675 -0.4320622 0.5060368 0.7464911 -0.9354346 0.2437981 0.2559776 -0.7957692 0.3586979 0.4879419 -0.7957039 0.3587015 0.4880458 -0.7956807 0.3586946 0.4880886 -0.6295925 0.4524093 0.6316162 -0.2706401 0.3907909 0.8797934 -0.4265578 0.482256 0.765165 -0.8445934 0.2751747 0.459283 -0.6446601 0.3898217 0.6576113 -0.0581116 0.1766435 0.982558 -0.0580216 0.1767001 0.9825532 -0.05795431 0.1767807 0.9825426 -0.2695522 0.3840394 0.8830942 -0.7048497 0.3428046 0.6210249 -0.1454364 0.2712766 0.9514501 -0.1692299 0.2741748 0.9466728 -0.1692765 0.2740765 0.946693 -0.1692696 0.274087 0.9466912 -0.9262647 0.108168 0.3610172 -0.4591915 0.3919533 0.7971926 -0.8458204 0.1590039 0.5092207 -0.359764 0.2969302 0.8845351 -0.5398948 0.3426701 0.7688243 -0.8362961 0.1439623 0.5290405 -0.836265 0.1442102 0.5290222 -0.8362851 0.1441169 0.5290158 -0.7077518 0.213341 0.6734784 -0.05287814 0.08936417 0.9945944 -0.7571681 0.1515712 0.6353919 -0.7570204 0.1518088 0.6355111 -0.7571374 0.1516457 0.6354105 -0.3565134 0.2509885 0.8999462 -0.2173694 0.199356 0.9555143 -0.3037505 0.2031214 0.9308477 -0.5811581 0.1695886 0.7959241 -0.5811434 0.1695613 0.7959405 -0.5811514 0.1695755 0.7959318 -0.512433 0.1999633 0.835121 -0.5156469 0.1923617 0.8349283 -0.4617233 0.1136203 0.8797171 -0.4617256 0.1136247 0.8797153 -0.4617267 0.113627 0.8797144 -0.3081231 0.1112987 0.9448136 -0.137181 0.0847305 0.9869155 -0.1404427 0.08638566 0.986313 -0.2655482 0.06926095 0.9616065 3.35558e-4 2.88014e-6 -1 3.35566e-4 -3.03806e-7 -1 3.35573e-4 1.29134e-6 -1 0 0 -1 0 4.6858e-7 -1 5.83244e-4 -1.05794e-5 -0.9999998 5.83355e-4 2.75252e-6 -0.9999998 5.83352e-4 -3.672e-6 -0.9999998 1.07539e-5 0 -1 0 -3.60456e-7 -1 0 -6.93134e-7 -1 0 -6.99426e-7 -1 0 -9.13274e-7 -1 -5.36788e-5 0 -1 0 0 -1 -6.86212e-5 0 -1 7.11348e-5 0 -1 0 -6.99749e-7 -1 5.42999e-5 -6.4557e-7 -1 -8.08349e-5 1.60502e-7 -1 -6.38118e-5 0 -1 8.21539e-5 -1.63081e-7 -1 0 -6.6127e-7 -1 -4.79382e-4 1.3334e-6 -0.9999999 -4.79384e-4 0 -0.9999999 -4.79381e-4 -1.48617e-6 -0.9999999 1.10584e-4 -8.23753e-7 -1 0.003156721 -7.30596e-6 -0.9999951 0.003156721 -6.38149e-6 -0.9999951 0.003156661 -5.68496e-6 -0.9999951 -0.003438234 0 -0.9999941 -3.31955e-4 0 -1 -2.22127e-4 5.12327e-7 -1 1.10014e-4 6.49545e-7 -1 -8.51094e-5 0 -1 0.002390265 -1.23616e-6 -0.9999971 0.002663195 -1.14975e-6 -0.9999966 0.002663254 -6.51898e-6 -0.9999966 0.002663314 -1.15546e-5 -0.9999966 -5.75252e-4 -4.33876e-7 -0.9999998 -5.75258e-4 -1.69573e-6 -0.9999998 -5.75266e-4 -1.69306e-6 -0.9999998 2.63686e-4 2.06361e-6 -1 2.63675e-4 4.58114e-6 -1 2.63677e-4 2.6377e-6 -1 0 1.2654e-6 -1 0 1.26666e-6 -1 -2.21344e-4 0 -1 0.9961634 -0.05099278 0.07112061 0.9961965 -0.0507937 0.0708003 0.9961524 -0.05088579 0.07135152 0.9656482 -0.2501691 0.07027918 0.9395126 -0.3354613 0.06915038 0.9019368 -0.4261398 0.07010698 0.9002853 -0.4295964 0.07023859 0.8017203 -0.5935578 0.07023936 0.8552067 -0.5136516 0.06916356 0.9672814 -0.2438421 0.07005637 0.9878696 -0.1390893 0.06905066 0.8015941 -0.593729 0.07023358 0.4113972 -0.9087191 0.07058334 0.7395282 -0.6695652 0.06914103 0.347388 -0.9351829 0.06895488 0.6823363 -0.7276688 0.07010835 0.2375467 -0.9688225 0.07038927 0.2425283 -0.9676014 0.07019722 -0.2310609 -0.9704256 0.0698927 -0.240536 -0.9680933 0.07027029 -0.3362786 -0.9392204 0.06915056 -0.4118641 -0.9085455 0.07009398 0.6607326 -0.7474104 0.0693559 0.5943649 -0.8011083 0.0703985 0.5130181 -0.8556272 0.06866294 -0.9317969 -0.3561221 0.07022547 0.511345 -0.8566219 0.0687403 0.1308537 -0.9890053 0.06889021 0.0613867 -0.9956179 0.07054626 -0.9881481 -0.1366493 0.06993138 -0.06273251 -0.9956263 0.0692318 -0.05437558 -0.9961428 0.06886923 -0.6697703 -0.7392255 0.07038211 -0.7505477 -0.6570852 0.07012438 -0.730201 -0.6797052 0.06933569 -0.9973537 -0.02334874 0.06885224 -0.5126539 -0.8557061 0.07037997 -0.5939579 -0.8015183 0.06915533 -0.5991978 -0.7976301 0.06890738 -0.8538677 -0.515645 0.07085329 -0.8106576 -0.58145 0.06892234 -0.4446676 -0.8930219 0.06915634 -0.8945484 -0.4416341 0.06886696 -0.9850524 -0.1576673 0.0693745 -0.9677349 -0.2419359 0.07039994 -0.9461274 -0.3163256 0.06914681 0.7227281 -0.68755 0.07027846 0.9622859 -0.2628332 0.07017481 0.4156221 -0.9068013 0.07049643 0.9972442 -0.02278333 0.07060337 0.9007467 -0.4286353 0.07019543 0.8559656 -0.5123922 0.06911927 0.5866907 -0.8067519 0.07032358 0.8110135 -0.5808138 0.0700891 0.1307702 -0.9889335 0.07007098 0.93957 -0.3352992 0.06915873 0.04897922 -0.9964061 0.06910914 0.9019725 -0.4260669 0.07008939 -0.2225546 -0.9723908 0.07018315 0.9867745 -0.1463626 0.06967204 -0.04593354 -0.9964761 0.07018357 -0.3596802 -0.9304237 0.0702995 0.9673157 -0.2438102 0.06969177 0.6704014 -0.7387659 0.06918811 0.5944364 -0.8010897 0.07000559 -0.04888772 -0.9963431 0.0700758 0.801741 -0.5935953 0.06968611 -0.517867 -0.8525774 0.07018244 -0.1465992 -0.9867765 0.06914383 0.7392302 -0.6698383 0.06968045 -0.59447 -0.8011422 0.06911516 -0.6672692 -0.7415046 0.07016289 0.9886251 -0.1334766 0.06931489 0.5133541 -0.8553859 0.06915795 -0.7874938 -0.6123067 0.07024484 0.4263948 -0.9018185 0.07007908 0.3233788 -0.9437539 0.06895601 0.252058 -0.9651396 0.07051503 -0.4265516 -0.9018121 0.06919926 0.1649486 -0.9838732 0.06917899 -0.5132505 -0.8553792 0.07000309 -0.2422386 -0.9677112 0.06968206 -0.3365703 -0.9390765 0.06968355 -0.670006 -0.7390453 0.07002967 -0.7397444 -0.6693218 0.06918382 -0.997398 -0.01819616 0.06975817 -0.9396579 -0.33468 0.07093971 -0.9966267 -0.04493916 0.06867158 -0.9846815 -0.1594579 0.07053762 -0.9688048 -0.2381689 0.06850439 -0.864069 -0.4983993 0.07059001 -0.8115831 -0.5801216 0.06922554 -0.9044142 -0.4211474 0.06833732 0.9516167 1.18842e-4 0.3072878 0.9377529 -3.90204e-4 0.3473031 0.8295794 4.31798e-4 0.5583887 0.7895375 -3.80228e-4 0.6137023 0.6336632 2.36085e-4 0.7736091 0.6150419 -3.1775e-5 0.7884945 0.4457442 -6.65854e-5 0.8951605 0.425381 1.76115e-4 0.9050144 0.2352862 -1.9937e-4 0.9719261 0.2030025 1.59835e-4 0.9791783 0.2030025 1.54939e-4 0.9791783 0.2030025 1.62391e-4 0.9791783 2.73636e-4 0.9515395 0.3075269 -7.62162e-4 0.9360976 0.3517395 7.19837e-4 0.8297794 0.5580911 -3.35845e-4 0.801871 0.5974972 -1.32725e-4 0.6635837 0.7481021 5.96478e-4 0.633046 0.774114 -5.85084e-4 0.5127132 0.8585599 7.46459e-4 0.4247172 0.9053258 -8.51021e-4 0.2849819 0.9585326 7.87243e-4 0.199424 0.9799131 -1.02809e-4 -0.9533693 0.3018061 7.44785e-4 -0.9375085 0.3479616 -7.07926e-4 -0.8827689 0.4698069 9.07107e-4 -0.7906334 0.6122892 -8.36918e-4 -0.7257767 0.6879299 6.26161e-4 -0.6128218 0.790221 -6.35402e-4 -0.5200805 0.854117 5.24015e-4 -0.4455198 0.8952719 -6.70938e-4 -0.2900212 0.95702 5.65305e-4 -0.2346747 0.9720738 -0.9542358 -1.10755e-4 0.2990554 -0.9361745 4.23255e-4 0.3515357 -0.9362927 8.60157e-5 0.351221 -0.9361744 4.21329e-4 0.3515357 -0.8826044 -3.5543e-4 0.4701164 -0.8019869 4.18678e-4 0.5973416 -0.8019869 4.2703e-4 0.5973416 -0.8019869 4.23718e-4 0.5973416 -0.726172 -4.24251e-4 0.6875131 -0.6629673 2.20941e-4 0.7486484 -0.5155723 -1.2117e-4 0.8568461 -0.5199095 -5.47177e-5 0.8542215 -0.2810264 9.16728e-5 0.9597001 -0.2900366 -4.81201e-5 0.9570156 -2.39327e-4 -1.18372e-4 1 -3.88371e-4 -4.28216e-5 1 -1.82691e-4 -5.24979e-4 1 0 -6.26042e-6 1 4.23073e-4 8.40198e-7 1 4.23115e-4 -2.15304e-6 1 4.23122e-4 -5.63289e-6 1 -8.13187e-6 1.53513e-6 1 -1.31513e-4 -8.51504e-6 1 0 3.82399e-7 1 3.45735e-5 3.56557e-6 1 0 3.71437e-7 1 1.40495e-5 3.45258e-6 1 -6.68951e-4 7.50403e-6 0.9999998 -6.68908e-4 4.43137e-6 0.9999998 -6.68954e-4 1.14159e-5 0.9999998 5.62471e-4 -1.74131e-5 0.9999999 5.62514e-4 -1.42699e-5 0.9999999 5.62521e-4 -1.1971e-5 0.9999999 -6.23415e-7 3.35694e-6 1 0 3.10348e-7 1 -4.64035e-5 3.27531e-6 1 9.11869e-5 1.81933e-5 1 -3.91619e-4 6.35836e-5 1 -7.25109e-5 -1.09785e-5 1 -1.28883e-5 3.0194e-6 1 -8.28765e-6 2.96441e-6 1 1.28577e-5 2.91016e-6 1 8.49479e-5 1.47912e-5 1 -2.00655e-5 -1.79097e-6 1 -7.10003e-5 -4.33674e-6 1 0 -4.2065e-7 1 -1.03952e-5 6.96904e-7 1 0 0 1 1.15837e-4 6.96959e-7 1 3.35563e-4 -1.85824e-6 1 3.35569e-4 -1.5792e-7 1 3.35567e-4 -1.05957e-6 1 -1.29757e-4 0 1 0 6.69964e-7 1 2.94698e-4 6.65166e-7 1 2.31363e-5 0 1 -2.85999e-4 -6.45464e-7 1 -9.14446e-5 0 1 1.41279e-6 0 1 8.59327e-6 0 1 1.49814e-5 0 1 7.64051e-5 1.50338e-5 1 7.63124e-5 2.27422e-5 1 7.6479e-5 1.17446e-5 1 7.18686e-4 3.19169e-5 0.9999998 7.18746e-4 2.43989e-5 0.9999998 7.18734e-4 2.76569e-5 0.9999998 -6.79743e-4 -1.89229e-5 0.9999998 -6.79742e-4 -2.2608e-5 0.9999998 -6.79697e-4 -1.57455e-5 0.9999998 1.63178e-4 -3.44704e-6 1 1.63169e-4 -8.04299e-7 1 1.6317e-4 -2.1754e-6 1 1.09515e-5 0 1 5.83882e-6 -6.56027e-7 1 -0.001175463 -1.67491e-4 0.9999994 2.73411e-4 1.24933e-4 1 1.44363e-4 1.29884e-4 1 0 -2.73841e-5 1 0 -2.51504e-5 1 0 -2.32656e-5 1 0 -2.15986e-5 1 0 -2.01188e-5 1 0 -1.87365e-5 1 0 -1.74362e-5 1 0 -1.61735e-5 1 -3.35563e-4 -1.67383e-5 1 1.9056e-4 2.61305e-4 1 -3.35568e-4 -1.61373e-5 1 4.45951e-5 -3.42635e-5 1 -7.27392e-5 -1.1275e-5 1 1.85082e-4 -1.28786e-4 1 -3.81575e-4 1.6113e-4 1 0 7.98313e-6 1 1.41743e-4 8.37287e-5 1 -3.25362e-5 1.74838e-6 1 5.41789e-5 -3.34466e-4 1 3.89938e-4 2.83607e-6 1 3.89924e-4 4.62943e-6 1 -7.71784e-5 -9.89149e-5 1 -1.3804e-4 -3.36158e-5 1 -4.13445e-5 -3.62146e-5 1 1.33597e-4 7.56923e-5 1 1.06525e-4 4.5022e-5 1 -5.0844e-5 -4.61084e-5 1 -4.86145e-5 -1.50029e-6 1 -1.17416e-4 -2.6406e-5 1 -7.05595e-6 1.87739e-5 1 9.7561e-5 4.20415e-5 1 -9.77804e-5 -4.79155e-5 1 4.25081e-5 3.81274e-5 1 4.91666e-5 -2.35739e-6 1 0 3.1229e-5 1 -7.33891e-5 -6.02883e-6 1 4.78774e-5 3.44981e-5 1 0 2.06251e-5 1 -4.30037e-5 1.12974e-5 1 -4.61766e-5 -1.07182e-4 1 0 -5.12889e-6 1 -1.08718e-4 -1.87432e-5 1 5.92487e-5 6.17543e-5 1 9.58254e-5 3.68609e-5 1 5.49339e-5 1.01254e-4 1 0 6.47183e-5 1 -4.92693e-4 -2.31169e-4 0.9999999 -2.62329e-4 -7.20652e-4 0.9999997 2.99399e-6 2.24956e-5 1 4.40557e-4 9.9985e-5 1 0 4.40633e-5 1 0 -1.7399e-6 1 0 -8.20903e-6 1 9.38523e-6 0 1 0 -1.14302e-6 1 8.55988e-6 -6.92388e-5 1 -1.9585e-6 1.01503e-5 1 0 -8.85076e-7 1 0 4.663e-5 1 5.38352e-6 -4.25735e-5 1 -3.54293e-5 -2.1156e-6 1 -1.32614e-4 -9.96695e-6 1 -5.42197e-5 2.55053e-6 1 9.04347e-5 1.00478e-5 1 0 -1 0 -1 0 0 0 1 0 1 0 0 -0.9840478 0.1633375 0.07050472 -0.4030113 0.9125091 0.07006549 -0.4030942 0.9124637 0.07018041 -0.4027566 0.9126264 0.07000297 -0.9882159 0.1363255 0.06960415 -0.7905776 0.6083321 0.07013797 0.3153728 0.9463647 0.07024204 -0.5304285 0.8447823 0.07062935 0.4387521 0.8958764 0.07001698 0.5923919 0.8025777 0.07029187 0.5130531 0.8555694 0.06911939 -0.3363205 0.9392005 0.0692172 -0.2337759 0.9697474 0.07027631 -0.2425063 0.9676226 0.06997966 -0.6711277 0.7379488 0.07084614 -0.730223 0.6797232 0.06892746 -0.9020336 0.4261 0.06909704 -0.9425875 0.3264306 0.07051169 -0.9013585 0.4275366 0.06903201 0.1438153 0.987119 0.07009428 -0.8557853 0.5125164 0.07041764 -0.8111835 0.5806758 0.06926077 -0.9633342 0.2593037 0.06891214 0.2425768 0.9676625 0.0691806 0.9107644 0.4069141 0.07020908 -0.6002519 0.7968721 0.06850242 0.3361015 0.9392442 0.06968712 -0.04591977 0.9964777 0.07016909 -0.1466612 0.9867662 0.06915968 0.4268414 0.9016382 0.0696792 -0.0348401 0.9969561 0.0697478 -0.447335 0.8916955 0.06907033 0.8466705 0.5274758 0.07013207 0.938986 0.3369274 0.06917506 0.7382833 0.6708266 0.07020968 0.729376 0.6805521 0.06971001 0.9646149 0.2542011 0.06999933 0.127519 0.9893994 0.06948292 0.8016763 0.5937451 0.0691508 0.6087972 0.7902731 0.06952935 0.9882974 0.1355552 0.06994986 0.9970924 0.03235834 0.0689916 0.8558514 0.5125051 0.06969285 0.9022133 0.4256202 0.06970411 0.9869213 0.1453576 0.06969523 0.9673453 0.2436855 0.06971782 -0.9973379 0.01931619 0.07031291 -0.9973356 0.02041625 0.07003605 -0.9973654 0.01946467 0.06988131 -0.9846503 0.1602322 0.06920701 -0.9880166 0.1374098 0.07029938 -0.9647368 0.2540292 0.06893682 -0.9447342 0.3201506 0.07057619 -0.2405743 0.9680836 0.07027375 -0.581233 0.8107127 0.07009351 0.6894811 0.7208805 0.07033652 -0.791585 0.6070246 0.07010269 -0.4261446 0.9019249 0.07023119 -0.5131934 0.8554843 0.06913316 -0.6821517 0.7277962 0.07058197 -0.7302706 0.6796718 0.06892818 -0.9020091 0.4262149 0.06870532 -0.9041139 0.4216965 0.06892138 -0.8557289 0.5126132 0.07039809 0.258157 0.9635577 0.07008117 -0.811566 0.580143 0.06924378 -0.1318485 0.9888728 0.06889748 -0.413266 0.9079393 0.06969618 0.336224 0.939242 0.06912285 -0.04825299 0.9963166 0.07088679 0.4268549 0.9015897 0.07022124 -0.6102322 0.789198 0.06916195 0.1293482 0.9890831 0.07059633 -0.2599588 0.9631107 0.06956535 -0.2599599 0.9631114 0.06955218 -0.2599485 0.9631095 0.06962031 0.902702 0.4244834 0.07030707 0.04427212 0.9966704 0.06847059 0.8051788 0.588865 0.07018065 0.9013155 0.427439 0.07018733 0.8551936 0.5136774 0.06913465 0.9884033 0.1347777 0.06995773 0.4265534 0.9017317 0.07022994 0.9429329 0.3257671 0.06894588 0.9640962 0.2560064 0.07056427 0.5811259 0.8107482 0.07057136 0.5248785 0.8483812 0.06893455 0.2227667 0.9724171 0.06913816 0.73926 0.6698537 0.06921577 0.9973723 0.0226925 0.06880146 0.8017059 0.5936073 0.06998682 0.6554956 0.7520259 0.0691573 0.9834385 0.1675576 0.06908798</float_array>
          <technique_common>
            <accessor source="#Part__Feature_013-mesh-normals-array" count="943" stride="3">
              <param name="X" type="float"/>
              <param name="Y" type="float"/>
              <param name="Z" type="float"/>
            </accessor>
          </technique_common>
        </source>
        <vertices id="Part__Feature_013-mesh-vertices">
          <input semantic="POSITION" source="#Part__Feature_013-mesh-positions"/>
        </vertices>
        <triangles material="Part__Feature_013-material" count="798">
          <input semantic="VERTEX" source="#Part__Feature_013-mesh-vertices" offset="0"/>
          <input semantic="NORMAL" source="#Part__Feature_013-mesh-normals" offset="1"/>
          <p>2 0 1 0 3 0 2 1 0 1 1 1 4 2 2 2 3 2 4 3 3 3 6 3 5 4 4 4 6 4 7 5 5 5 6 5 7 6 6 6 8 6 9 7 7 7 8 7 9 8 8 8 10 8 11 9 9 9 10 9 11 10 10 10 12 10 13 11 11 11 12 11 13 12 12 12 184 12 14 13 13 13 184 13 14 14 184 14 15 14 16 15 14 15 15 15 17 16 15 16 18 16 17 17 16 17 15 17 19 18 18 18 171 18 19 19 17 19 18 19 19 20 171 20 20 20 21 21 19 21 20 21 22 22 20 22 23 22 22 23 21 23 20 23 24 24 22 24 23 24 24 25 23 25 161 25 24 26 161 26 159 26 25 27 24 27 159 27 25 28 159 28 26 28 27 29 25 29 26 29 27 30 26 30 28 30 29 31 27 31 28 31 29 32 28 32 31 32 30 33 29 33 31 33 32 34 31 34 33 34 32 35 30 35 31 35 63 36 34 36 35 36 34 37 36 37 35 37 36 38 1 38 0 38 34 39 1 39 36 39 263 40 37 40 126 40 263 41 126 41 38 41 265 42 263 42 38 42 39 43 38 43 120 43 39 44 265 44 38 44 39 45 120 45 40 45 41 46 39 46 40 46 42 47 40 47 43 47 42 48 41 48 40 48 44 49 42 49 43 49 45 50 44 50 43 50 45 51 43 51 47 51 46 52 45 52 47 52 46 53 47 53 100 53 48 54 100 54 95 54 48 55 46 55 100 55 49 56 95 56 51 56 49 57 48 57 95 57 50 58 49 58 51 58 50 59 51 59 83 59 52 60 83 60 53 60 52 61 50 61 83 61 268 62 52 62 53 62 54 63 268 63 53 63 54 64 53 64 56 64 55 65 54 65 56 65 57 66 55 66 56 66 57 67 56 67 58 67 270 68 57 68 58 68 270 69 58 69 60 69 59 70 270 70 60 70 59 71 60 71 61 71 62 72 59 72 61 72 272 73 62 73 61 73 63 74 272 74 61 74 63 75 61 75 34 75 264 76 37 76 263 76 32 77 33 77 64 77 64 78 33 78 264 78 264 79 33 79 37 79 66 80 108 80 65 80 154 81 204 81 222 81 154 82 108 82 66 82 154 83 222 83 108 83 67 84 34 84 61 84 68 85 67 85 61 85 60 86 68 86 61 86 70 87 68 87 60 87 71 88 69 88 67 88 71 89 67 89 68 89 73 90 68 90 70 90 73 91 71 92 68 93 74 94 70 94 60 94 71 95 72 95 69 95 74 96 60 96 58 96 74 97 73 97 70 97 75 98 71 98 73 98 77 99 74 99 58 99 77 100 58 100 56 100 78 101 73 101 74 101 75 102 72 102 71 102 78 103 75 103 73 103 79 104 56 104 53 104 80 105 76 105 72 105 81 106 78 107 74 108 79 109 77 109 56 109 81 110 74 110 77 110 80 111 72 112 75 113 80 114 82 114 76 114 85 115 81 115 77 115 85 116 77 116 79 116 86 117 75 118 78 119 86 120 78 121 81 122 83 123 79 124 53 125 87 126 81 126 85 126 86 127 80 127 75 127 89 128 85 128 79 128 89 129 79 129 83 129 88 130 83 130 51 130 88 131 89 131 83 131 87 132 86 132 81 132 91 133 82 133 80 133 91 134 84 134 82 134 87 135 85 135 89 135 92 136 88 136 51 136 93 137 80 137 86 137 94 138 86 138 87 138 92 139 51 139 95 139 96 140 87 140 89 140 96 141 94 141 87 141 93 142 86 142 94 142 93 143 91 144 80 145 97 146 88 146 92 146 98 147 96 147 89 147 98 148 89 149 88 150 104 151 90 151 84 151 104 152 84 152 91 152 97 153 92 154 95 155 101 156 98 156 88 156 98 157 102 157 96 157 99 158 94 158 96 158 101 159 88 159 97 159 103 160 95 160 100 160 102 161 99 161 96 161 103 162 97 162 95 162 106 163 93 164 94 165 104 166 91 167 93 168 105 169 100 169 47 169 105 170 103 170 100 170 106 171 94 172 99 173 107 174 101 174 97 174 110 175 104 176 93 177 108 178 90 179 104 180 101 181 102 181 98 181 106 182 99 182 102 182 109 183 97 183 103 183 109 184 107 184 97 184 43 185 105 185 47 185 110 186 93 187 106 188 109 189 103 189 105 189 112 190 102 191 101 192 111 193 105 193 43 193 113 194 107 194 109 194 115 195 101 195 107 195 112 196 106 196 102 196 114 197 109 197 105 197 40 198 111 198 43 198 113 199 115 199 107 199 115 200 112 201 101 202 111 203 114 203 105 203 114 204 113 204 109 204 119 205 114 205 111 205 116 206 110 207 106 208 120 209 121 210 40 211 116 212 106 213 112 214 121 215 111 215 40 215 118 216 104 216 110 216 119 217 117 217 114 217 118 218 110 218 116 218 65 219 108 219 104 219 117 220 113 220 114 220 122 221 115 221 113 221 121 222 119 222 111 222 118 223 65 223 104 223 123 224 112 224 115 224 124 225 113 225 117 225 123 226 115 226 122 226 124 227 122 227 113 227 123 228 116 228 112 228 120 229 125 229 121 229 127 230 120 230 38 230 125 231 119 231 121 231 128 232 117 233 119 234 128 235 124 235 117 235 127 236 125 236 120 236 130 237 116 237 123 237 129 238 122 239 124 240 126 241 127 241 38 241 125 242 128 242 119 242 131 243 122 244 129 245 132 246 118 247 116 248 133 249 127 249 126 249 134 250 125 250 127 250 131 251 123 251 122 251 132 252 116 252 130 252 132 253 65 254 118 255 135 256 128 256 125 256 130 257 123 257 131 257 128 258 129 258 124 258 136 259 126 259 37 259 133 260 134 260 127 260 135 261 125 262 134 263 136 264 133 264 126 264 137 265 134 265 133 265 138 266 129 267 128 268 138 269 128 269 135 269 137 270 133 270 136 270 140 271 138 271 135 271 139 272 131 272 129 272 130 273 131 273 139 273 139 274 129 274 138 274 142 275 132 275 130 275 141 276 135 276 134 276 141 277 134 277 137 277 142 278 130 278 139 278 141 279 140 279 135 279 65 280 132 280 145 280 144 281 138 281 140 281 143 282 142 282 139 282 145 283 132 283 142 283 144 284 139 284 138 284 146 285 140 285 141 285 143 286 139 286 144 286 146 287 144 287 140 287 66 288 65 288 145 288 143 289 145 289 142 289 147 290 144 291 146 292 147 293 143 293 144 293 148 294 145 295 143 296 66 297 145 297 148 297 148 298 143 298 147 298 136 299 37 299 33 299 136 300 33 300 149 300 137 301 136 301 149 301 137 302 149 302 150 302 141 303 137 303 150 303 141 304 150 304 151 304 146 305 141 305 151 305 147 306 146 306 151 306 147 307 151 307 152 307 147 308 152 309 153 310 148 311 147 311 153 311 66 312 153 312 154 312 66 313 148 313 153 313 210 314 1 314 34 314 210 315 34 315 67 315 219 316 210 316 67 316 219 317 67 317 69 317 220 318 219 318 69 318 220 319 69 319 72 319 221 320 220 320 72 320 221 321 72 321 76 321 224 322 221 322 76 322 226 323 224 323 76 323 226 324 76 324 82 324 226 325 82 325 84 325 227 326 226 326 84 326 227 327 84 327 90 327 222 328 90 328 108 328 222 329 227 329 90 329 149 330 33 330 31 330 155 331 149 331 31 331 155 332 31 333 28 334 156 335 149 335 155 335 157 336 155 336 28 336 26 337 157 337 28 337 158 338 156 339 155 340 156 341 150 341 149 341 159 342 157 342 26 342 160 343 155 343 157 343 160 344 158 344 155 344 150 345 156 345 158 345 162 346 150 346 158 346 160 347 157 348 159 349 162 350 158 350 160 350 163 351 160 352 159 353 163 354 159 354 161 354 165 355 151 355 150 355 166 356 161 356 23 356 166 357 163 357 161 357 165 358 150 358 162 358 167 359 162 359 160 359 165 360 164 360 151 360 20 361 166 362 23 363 167 364 160 364 163 364 152 365 151 366 164 367 168 368 167 368 163 368 169 369 152 369 164 369 170 370 165 370 162 370 168 371 163 371 166 371 170 372 162 372 167 372 170 373 164 373 165 373 20 374 172 374 166 374 170 375 169 375 164 375 172 376 168 376 166 376 173 377 170 378 167 379 173 380 167 380 168 380 174 381 172 382 20 383 174 384 20 384 171 384 153 385 152 386 169 387 176 388 171 388 18 388 175 389 173 389 168 389 176 390 174 390 171 390 172 391 175 391 168 391 153 392 169 392 177 392 178 393 154 393 153 393 180 394 169 394 170 394 174 395 179 395 172 395 15 396 176 396 18 396 181 397 174 397 176 397 179 398 175 398 172 398 177 399 169 400 180 401 182 402 176 402 15 402 180 403 170 403 173 403 178 404 153 405 177 406 181 407 179 407 174 407 183 408 173 408 175 408 185 409 181 409 176 409 180 410 173 410 183 410 186 411 175 411 179 411 186 412 183 413 175 414 184 415 182 415 15 415 187 416 179 416 181 416 188 417 180 418 183 419 189 420 185 420 176 420 189 421 176 421 182 421 187 422 186 422 179 422 178 423 177 423 180 423 185 424 187 424 181 424 189 425 182 425 184 425 186 426 188 426 183 426 190 427 185 427 189 427 192 428 189 428 184 428 191 429 178 429 180 429 204 430 154 430 178 430 193 431 192 431 184 431 193 432 184 432 12 432 194 433 188 433 186 433 195 434 12 434 10 434 196 435 187 435 185 435 190 436 196 436 185 436 191 437 180 437 188 437 195 438 193 438 12 438 192 439 190 439 189 439 197 440 194 440 186 440 197 441 186 441 187 441 204 442 178 442 191 442 8 443 195 443 10 443 199 444 193 444 195 444 198 445 196 445 190 445 196 446 197 446 187 446 199 447 192 447 193 447 198 448 190 448 192 448 200 449 195 449 8 449 198 450 201 451 196 452 200 453 199 453 195 453 199 454 202 454 192 454 201 455 197 455 196 455 202 456 198 456 192 456 203 457 188 457 194 457 203 458 191 458 188 458 205 459 194 460 197 461 206 462 200 462 8 462 206 463 8 463 6 463 207 464 201 464 198 464 205 465 197 465 201 465 206 466 6 466 3 466 203 467 194 468 205 469 209 470 199 470 200 470 208 471 202 472 199 473 202 474 207 474 198 474 206 475 209 475 200 475 204 476 191 476 203 476 205 477 201 477 207 477 209 478 208 478 199 478 1 479 210 479 3 479 211 480 202 480 208 480 210 481 206 481 3 481 211 482 207 483 202 484 212 485 206 485 210 485 214 486 209 487 206 488 211 489 208 489 209 489 213 490 205 490 207 490 213 491 207 491 211 491 212 492 214 492 206 492 215 493 211 493 209 493 217 494 204 495 203 496 216 497 205 497 213 497 215 498 209 498 214 498 217 499 203 499 205 499 216 500 217 501 205 502 219 503 212 503 210 503 218 504 213 504 211 504 219 505 214 505 212 505 218 506 216 506 213 506 215 507 218 507 211 507 220 508 214 509 219 510 221 511 215 511 214 511 222 512 204 512 217 512 220 513 221 514 214 515 225 516 216 516 218 516 223 517 217 517 216 517 225 518 223 518 216 518 224 519 215 520 221 521 225 522 218 522 215 522 224 523 225 523 215 523 226 524 225 525 224 526 223 527 225 527 226 527 227 528 217 528 223 528 222 529 217 529 227 529 227 530 223 530 226 530 228 531 230 532 231 533 229 534 230 534 228 534 231 535 230 535 232 535 233 536 234 537 228 538 228 539 234 539 229 539 230 540 235 540 232 540 232 541 235 541 236 541 235 542 237 542 236 542 236 534 238 534 239 534 237 543 238 543 236 543 239 534 241 534 240 534 238 544 241 544 239 544 241 545 242 545 240 545 240 546 242 546 243 546 243 547 242 547 244 547 242 548 245 548 244 548 245 549 246 549 244 549 244 534 246 534 247 534 247 550 249 550 248 550 246 551 249 551 247 551 248 552 249 552 250 552 249 553 251 553 250 553 250 554 256 555 257 556 251 557 256 557 250 557 64 558 264 559 252 560 64 561 252 561 253 561 253 562 252 562 254 562 253 563 254 563 255 563 255 564 254 564 256 564 256 565 254 565 257 565 35 566 36 566 258 566 258 567 36 568 259 569 258 570 259 571 260 572 260 573 259 574 261 575 260 576 261 576 262 576 262 577 261 577 233 577 233 578 261 578 234 578 266 579 264 580 263 581 267 582 263 582 265 582 275 583 267 583 265 583 276 584 275 584 265 584 276 585 265 585 39 585 269 586 39 586 41 586 269 587 276 587 39 587 271 588 263 588 267 588 271 589 266 589 263 589 278 590 269 590 41 590 283 591 45 591 46 591 279 592 278 592 41 592 284 593 283 593 46 593 42 594 279 594 41 594 287 595 46 595 48 595 287 596 284 596 46 596 273 597 282 597 50 597 273 598 50 598 52 598 274 599 273 599 52 599 268 600 274 600 52 600 280 601 279 601 42 601 44 602 280 602 42 602 283 603 44 603 45 603 277 604 59 604 62 604 283 605 280 605 44 605 288 606 287 606 48 606 288 607 48 607 49 607 281 608 272 608 63 608 282 609 49 609 50 609 282 610 288 610 49 610 290 611 55 611 57 611 285 612 57 612 270 612 285 613 290 613 57 613 281 614 63 614 286 614 289 615 268 615 54 615 289 616 54 616 55 616 290 617 289 617 55 617 291 618 270 618 59 618 291 619 285 619 270 619 289 620 274 620 268 620 277 621 291 621 59 621 292 622 272 622 281 622 292 623 62 623 272 623 292 624 277 624 62 624 308 625 251 625 249 625 293 626 253 626 255 626 312 627 246 627 245 627 64 628 294 628 32 628 303 629 255 629 256 629 304 630 303 630 256 630 310 631 249 631 246 631 251 632 304 632 256 632 317 633 242 633 241 633 302 634 293 634 255 634 318 635 317 635 241 635 303 636 302 636 255 636 237 637 295 637 238 637 296 638 64 638 253 638 238 639 318 639 241 639 297 640 237 640 235 640 293 641 296 641 253 641 309 642 308 642 249 642 310 643 309 643 249 643 298 644 318 644 238 644 306 645 304 645 251 645 299 646 235 646 230 646 295 647 298 647 238 647 308 648 306 648 251 648 300 649 299 649 230 649 229 650 300 650 230 650 296 651 294 651 64 651 311 652 310 652 246 652 234 653 301 653 229 653 312 654 311 654 246 654 314 655 312 655 245 655 242 656 314 656 245 656 305 657 297 657 235 657 314 658 242 658 317 658 299 659 305 659 235 659 307 660 295 660 237 660 297 661 307 661 237 661 313 662 300 662 229 662 301 663 313 663 229 663 36 664 0 664 315 664 316 665 261 665 259 665 319 666 36 666 315 666 319 667 259 667 36 667 319 668 316 668 259 668 320 669 234 669 261 669 320 670 301 670 234 670 316 671 320 671 261 671 322 672 323 672 321 672 321 673 323 673 324 673 323 674 325 674 324 674 324 675 325 675 326 675 325 676 327 676 326 676 326 677 327 677 328 677 328 678 327 678 329 678 327 679 330 679 329 679 329 680 330 680 331 680 330 681 332 682 331 683 322 684 333 684 323 684 333 685 334 685 323 685 323 686 334 686 325 686 334 687 335 687 325 687 335 688 336 688 325 688 325 689 336 689 327 689 336 690 337 690 327 690 327 691 337 691 330 691 337 692 338 692 330 692 330 693 338 693 332 693 339 694 321 694 340 694 321 695 324 695 340 695 340 696 324 696 341 696 324 697 326 697 341 697 341 698 326 698 342 698 326 699 328 699 342 699 342 700 328 700 343 700 328 701 329 701 343 701 343 702 329 702 344 702 329 703 331 703 344 703 339 704 340 704 333 704 333 705 340 706 334 707 340 708 341 708 334 708 334 709 341 710 335 711 341 712 342 712 335 712 335 713 342 713 336 713 336 714 342 714 337 714 342 715 343 715 337 715 337 716 344 716 338 716 343 717 344 717 337 717 344 718 331 718 332 718 344 719 332 719 338 719 345 534 346 534 347 534 345 534 348 534 346 534 339 720 349 720 321 720 350 721 349 721 339 721 351 722 352 723 350 724 339 725 351 725 350 725 339 726 353 726 351 726 352 727 354 727 350 727 339 728 355 728 353 728 354 729 356 729 350 729 339 730 357 730 355 730 356 731 358 732 350 733 358 734 359 735 350 736 339 737 360 737 357 737 359 738 361 738 350 738 339 739 362 739 360 739 339 740 363 740 362 740 361 741 364 741 350 741 339 742 365 742 363 742 339 743 366 743 365 743 339 744 367 744 366 744 339 745 368 745 367 745 339 746 369 746 368 746 339 747 370 747 369 747 339 748 371 748 370 748 309 749 373 749 308 749 308 750 373 750 372 750 308 751 374 751 306 751 372 752 374 752 308 752 310 753 373 754 309 755 374 756 375 756 306 756 306 757 375 757 304 757 375 758 376 758 304 758 310 759 377 759 373 759 311 751 377 751 310 751 304 760 376 760 303 760 312 761 378 761 311 761 311 762 378 762 377 762 314 751 379 751 312 751 312 763 379 763 378 763 314 764 380 764 379 764 296 765 381 766 294 767 293 768 381 769 296 770 302 771 381 772 293 773 303 774 381 775 302 776 364 777 381 777 350 777 376 778 381 778 303 778 294 779 381 779 364 779 382 780 381 780 376 780 383 781 381 781 382 781 298 782 333 782 318 782 295 783 333 783 298 783 307 784 333 784 295 784 297 785 333 785 307 785 305 786 333 786 297 786 299 787 333 787 305 787 300 788 333 788 299 788 313 789 333 789 300 789 301 790 333 791 313 792 320 793 333 793 301 793 316 794 333 794 320 794 319 795 333 795 316 795 315 796 333 796 319 796 384 797 333 797 315 797 317 751 380 751 314 751 383 798 385 798 381 798 318 751 380 751 317 751 333 799 386 799 318 799 318 800 386 801 380 802 385 803 266 803 381 803 333 804 387 804 386 804 266 805 271 805 381 805 333 806 388 806 387 806 271 807 267 807 381 807 267 808 275 808 381 808 275 809 276 809 381 809 333 810 389 810 388 810 333 811 390 811 389 811 276 812 269 812 381 812 269 813 278 813 381 813 333 814 391 814 390 814 278 815 279 815 381 815 279 816 280 816 381 816 333 817 392 817 391 817 333 818 393 818 392 818 280 819 283 819 381 819 333 820 394 820 393 820 283 821 284 821 381 821 284 822 287 822 381 822 333 823 395 823 394 823 287 824 288 824 381 824 333 825 286 825 395 825 333 826 281 826 286 826 288 827 282 827 381 827 333 828 292 828 281 828 282 829 273 829 381 829 333 830 322 830 292 830 349 831 322 831 321 831 277 832 322 832 291 832 292 833 322 833 277 833 273 834 396 834 381 834 349 835 396 835 322 835 274 836 396 836 273 836 289 837 396 837 274 837 322 838 396 838 291 838 290 839 396 839 289 839 285 840 396 840 290 840 291 841 396 841 285 841 339 842 333 842 384 842 339 843 384 843 397 843 339 844 397 844 398 844 339 845 398 845 371 845 345 846 347 846 396 846 396 846 347 846 381 846 396 847 349 847 345 847 345 847 349 847 348 847 350 848 346 848 349 848 349 848 346 848 348 848 347 849 346 849 381 849 381 849 346 849 350 849 384 850 0 850 2 850 368 851 13 852 14 853 384 854 315 854 0 854 371 855 7 855 9 855 21 856 360 856 19 856 13 857 369 857 11 857 355 858 21 858 22 858 24 859 353 859 22 859 353 860 355 860 22 860 367 861 368 861 14 861 366 862 14 862 16 862 366 863 367 863 14 863 370 864 9 864 11 864 370 865 371 865 9 865 397 866 4 866 5 866 397 867 2 867 4 867 398 868 397 868 5 868 362 869 17 869 19 869 398 870 5 870 7 870 398 871 7 871 371 871 397 872 384 872 2 872 360 873 362 873 19 873 358 874 27 874 29 874 370 875 11 875 369 875 357 876 360 876 21 876 365 877 16 877 17 877 365 878 366 878 16 878 355 879 357 879 21 879 363 880 365 880 17 880 368 881 369 881 13 881 27 882 354 882 25 882 359 883 358 883 29 883 352 884 24 884 25 884 352 885 351 885 24 885 30 886 359 886 29 886 362 887 363 887 17 887 354 888 352 888 25 888 351 889 353 889 24 889 364 890 30 890 32 890 364 891 32 891 294 891 356 892 354 892 27 892 358 893 356 893 27 893 361 894 30 894 364 894 361 895 359 895 30 895 286 896 63 897 35 898 286 899 35 899 258 899 395 900 286 900 258 900 394 901 395 901 258 901 394 902 258 902 260 902 387 903 236 903 239 903 390 904 231 904 232 904 372 905 248 905 250 905 392 906 233 906 228 906 389 907 232 907 236 907 389 908 390 908 232 908 391 909 228 909 231 909 391 910 392 910 228 910 394 911 260 911 262 911 393 912 394 912 262 912 393 913 262 913 233 913 379 914 243 914 244 914 392 915 393 915 233 915 386 916 387 916 239 916 388 917 389 917 236 917 378 918 379 918 244 918 240 919 386 919 239 919 247 920 378 920 244 920 390 921 391 921 231 921 243 922 380 922 240 922 387 923 388 924 236 925 382 926 257 926 254 926 380 927 386 927 240 927 375 928 250 928 257 928 376 929 257 929 382 929 376 930 375 930 257 930 385 931 252 931 264 931 377 932 378 932 247 932 383 933 382 933 254 933 383 934 254 934 252 934 373 935 247 935 248 935 373 936 377 936 247 936 380 937 243 937 379 937 374 938 372 938 250 938 385 939 264 939 266 939 375 940 374 940 250 940 372 941 373 941 248 941 383 942 252 942 385 942</p>
        </triangles>
      </mesh>
    </geometry>
  </library_geometries>
  <library_visual_scenes>
    <visual_scene id="Scene" name="Scene">
      <node id="node0" name="node0" type="NODE">
        <matrix sid="transform">1 0 0 0 0 1 0 0 0 0 1 0 0 0 0 1</matrix>
        <instance_geometry url="#Part__Feature_013-mesh" name="node0">
          <bind_material>
            <technique_common>
              <instance_material symbol="Part__Feature_013-material" target="#Part__Feature_013-material"/>
            </technique_common>
          </bind_material>
        </instance_geometry>
      </node>
      <node id="Camera" name="Camera" type="NODE">
        <matrix sid="transform">0.6859207 -0.3240135 0.6515582 7.358891 0.7276763 0.3054208 -0.6141704 -6.925791 0 0.8953956 0.4452714 4.958309 0 0 0 1</matrix>
        <instance_camera url="#Camera-camera"/>
      </node>
      <node id="Light" name="Light" type="NODE">
        <matrix sid="transform">-0.2908646 -0.7711008 0.5663932 4.076245 0.9551712 -0.1998834 0.2183912 1.005454 -0.05518906 0.6045247 0.7946723 5.903862 0 0 0 1</matrix>
        <instance_light url="#Light-light"/>
      </node>
    </visual_scene>
  </library_visual_scenes>
  <scene>
    <instance_visual_scene url="#Scene"/>
  </scene>
</COLLADA>