<?xml version="1.0" encoding="utf-8"?>
<COLLADA xmlns="http://www.collada.org/2005/11/COLLADASchema" version="1.4.1" xmlns:xsi="http://www.w3.org/2001/XMLSchema-instance">
  <asset>
    <contributor>
      <author>Blender User</author>
      <authoring_tool>Blender 4.0.2 commit date:2023-12-05, commit time:07:41, hash:9be62e85b727</authoring_tool>
    </contributor>
    <created>2024-01-15T15:21:52</created>
    <modified>2024-01-15T15:21:52</modified>
    <unit name="meter" meter="1"/>
    <up_axis>Z_UP</up_axis>
  </asset>
  <library_cameras>
    <camera id="Camera-camera" name="Camera">
      <optics>
        <technique_common>
          <perspective>
            <xfov sid="xfov">39.59775</xfov>
            <aspect_ratio>1.777778</aspect_ratio>
            <znear sid="znear">0.1</znear>
            <zfar sid="zfar">100</zfar>
          </perspective>
        </technique_common>
      </optics>
      <extra>
        <technique profile="blender">
          <shiftx sid="shiftx" type="float">0</shiftx>
          <shifty sid="shifty" type="float">0</shifty>
          <dof_distance sid="dof_distance" type="float">10</dof_distance>
        </technique>
      </extra>
    </camera>
  </library_cameras>
  <library_lights>
    <light id="Light-light" name="Light">
      <technique_common>
        <point>
          <color sid="color">1000 1000 1000</color>
          <constant_attenuation>1</constant_attenuation>
          <linear_attenuation>0</linear_attenuation>
          <quadratic_attenuation>0</quadratic_attenuation>
        </point>
      </technique_common>
      <extra>
        <technique profile="blender">
          <type sid="type" type="int">0</type>
          <flag sid="flag" type="int">0</flag>
          <mode sid="mode" type="int">1</mode>
          <red sid="red" type="float">1</red>
          <green sid="green" type="float">1</green>
          <blue sid="blue" type="float">1</blue>
          <shadow_r sid="blender_shadow_r" type="float">0</shadow_r>
          <shadow_g sid="blender_shadow_g" type="float">0</shadow_g>
          <shadow_b sid="blender_shadow_b" type="float">0</shadow_b>
          <energy sid="blender_energy" type="float">1000</energy>
          <spotsize sid="spotsize" type="float">75</spotsize>
          <spotblend sid="spotblend" type="float">0.15</spotblend>
          <clipsta sid="clipsta" type="float">0.04999995</clipsta>
          <clipend sid="clipend" type="float">30.002</clipend>
          <bias sid="bias" type="float">1</bias>
          <radius sid="radius" type="float">0.1</radius>
          <area_shape sid="area_shape" type="int">1</area_shape>
          <area_size sid="area_size" type="float">0.1</area_size>
          <area_sizey sid="area_sizey" type="float">0.1</area_sizey>
          <area_sizez sid="area_sizez" type="float">1</area_sizez>
        </technique>
      </extra>
    </light>
  </library_lights>
  <library_effects>
    <effect id="Part__Feature_015-effect">
      <profile_COMMON>
        <technique sid="common">
          <lambert>
            <emission>
              <color sid="emission">0 0 0 1</color>
            </emission>
            <diffuse>
              <color sid="diffuse">0.928846 0.07904382 0.04389809 1</color>
            </diffuse>
            <index_of_refraction>
              <float sid="ior">1.45</float>
            </index_of_refraction>
          </lambert>
        </technique>
      </profile_COMMON>
    </effect>
  </library_effects>
  <library_images/>
  <library_materials>
    <material id="Part__Feature_015-material" name="Part__Feature.015">
      <instance_effect url="#Part__Feature_015-effect"/>
    </material>
  </library_materials>
  <library_geometries>
    <geometry id="Part__Feature_015-mesh" name="Part__Feature.015">
      <mesh>
        <source id="Part__Feature_015-mesh-positions">
          <float_array id="Part__Feature_015-mesh-positions-array" count="1707">1.69034e-4 3.22837e-5 -0.001894116 0.001102864 3.23301e-5 -0.001576423 0.001857697 3.46184e-5 -3.40368e-4 0.002046465 6.0922e-4 2.12601e-4 0.00212121 8.73917e-4 2.46226e-4 0.001003801 0.008000254 -0.002946794 -0.001752972 3.24755e-5 -7.56529e-4 -0.002046227 6.09379e-4 -2.43314e-4 0.001015663 0.007336497 -0.003016591 0.002449929 0.002201795 2.4938e-4 -0.002492725 0.002224743 -2.54191e-4 0.002049267 5.5269e-4 -4.23225e-4 0.002434432 0.002159118 -2.51521e-4 0.00232917 0.004511594 -0.001854419 0.001753866 3.51338e-5 7.59667e-4 0.001088321 2.9741e-5 0.001592516 3.73761e-6 3.28684e-5 0.001883208 0.002287745 0.006836891 -0.002184867 -6.65658e-4 6.89529e-4 0.001997828 -0.001126825 3.2421e-5 0.001506745 -0.001752316 6.76873e-4 0.00118786 -0.001861214 5.57368e-5 3.40286e-4 -0.002018809 0.003084957 0.001767158 -0.002447307 0.002190411 2.4927e-4 0.001731038 0.007347464 0.002621471 0.001004159 0.00800091 0.002943158 -0.002313673 0.003639161 -0.001594364 -0.00127387 3.54756e-5 -0.001418113 -6.48011e-4 3.25992e-5 -0.001795291 -0.001739203 0.007987439 0.002577662 -9.97473e-4 0.007543861 0.002995014 -0.002443253 0.007999956 0.001906156 -0.001011848 0.007990241 -0.002964973 -1.36805e-6 0.007504999 -0.003139853 0.00166893 0.004805445 -0.002526342 8.09905e-4 0.002489745 0.002403378 0.00265181 0.007993817 -0.001683473 0.003017127 0.007999241 -7.93155e-4 7.03892e-4 0.007466256 0.003103017 -9.9254e-4 0.006338298 0.003019213 -0.001908361 0.004751861 -0.002325475 -0.001287102 0.0071913 -0.002905964 0.002961397 0.004876196 -7.36488e-4 0.002994179 0.004758596 3.3013e-4 0.002739727 0.005262732 0.001532673 -0.002704858 0.003834366 8.80034e-4 -0.002344787 0.005966901 0.002156853 -0.003089547 0.005871713 -5.14437e-4 -0.001045346 0.004015803 -0.00269407 2.29153e-4 0.004097998 -0.002908587 -0.002871513 0.006631195 -0.001375615 2.68697e-4 0.004630386 0.002999782 0.003115653 0.006435334 5.71705e-4 0.001752376 0.0045138 0.002428829 -0.001224994 0.003838121 0.002560555 0.002785205 0.008000254 0.001474738 -0.003104388 0.006047904 5.83116e-4 -0.003116846 0.007999837 3.2853e-4 -0.002519607 0.007998347 -0.001877903 -4.47481e-4 0.005966722 -0.003105819 -3.88755e-4 0.004799783 0.002996027 -0.000999987 0.008017122 -6.62156e-4 -2.64099e-4 -0.01853561 -0.005553841 0.003975331 -0.0254265 0.002542614 9.61421e-4 -0.01841354 -0.005488812 0.004347562 -0.02635455 0.001447141 0.001155614 -0.02459543 0.004687309 -5.01494e-4 -0.02474218 0.004779636 0.004401743 -0.01575934 -0.003987967 0.002784967 -0.01633673 -0.00516802 -0.001402199 -0.02422314 0.004655003 0.001782119 -0.02522206 0.004393696 -0.003213942 -0.02285426 0.003931462 -0.004693508 -0.01875305 -0.002942204 -0.005046486 -0.01626414 -0.002983093 7.71942e-4 -0.01550042 -0.005937516 -0.003212094 -0.0211454 0.004176437 3.96811e-4 -0.0228278 0.005043029 0.0020563 -0.02289944 0.004624545 -0.005381226 -0.01861631 -0.001367688 -0.001902341 -0.01602125 -0.00559777 0.003531694 -0.01409357 -0.005094408 -0.003815412 -0.01567327 -0.004566371 -0.001795589 -0.02213037 0.004817306 -0.004960596 -0.01409083 -0.00369817 -9.5403e-4 -0.02106642 0.005170583 -0.004593193 -0.01999062 0.002829253 -0.004819154 -0.01820915 0.002851545 -0.005413353 -0.01820814 0.001426517 0.006443202 -0.008976399 -0.002262771 0.005738377 -0.01088106 -0.003356099 0.005170345 -0.009898602 -0.004360318 0.003645479 -0.02111315 0.003773689 0.003961145 -0.02327024 0.003046989 0.001319229 -0.02202701 0.004990339 -0.003651022 -0.01864373 0.004197537 -0.003531277 -0.01413476 -0.00507903 0.002564311 -0.0205875 0.004677474 -0.005630671 -0.01644277 -0.00155723 4.07208e-4 -0.01238578 -0.006430149 0.002142667 -0.01184475 -0.00616306 0.003802895 -0.01160836 -0.005341708 0.005668342 -0.00640285 -0.003941118 -0.001416027 -0.01059156 -0.006552696 -0.003641307 -0.0121777 -0.005314767 0.002652764 -0.009703636 -0.006232261 -0.002292811 -0.01806616 0.005140602 -0.003978848 -0.01688838 0.0041942 0.0013929 -0.009524583 -0.006636977 -4.17198e-5 -0.009929358 -0.006760716 -0.004284262 -0.0101493 -0.005182564 0.004662156 -0.007739603 -0.005097091 -0.003023505 -0.01047134 -0.005961179 0.004715204 -0.01823812 0.003017723 0.003528952 -0.01871699 0.004287302 -0.006005704 -0.01008206 -0.003112316 -0.005887806 -0.01258462 0.002588987 -0.004935026 -0.0141384 0.003718137 -0.005208015 -0.01002854 -0.004284203 0.001492559 -0.01847881 0.005397081 -0.001489698 -0.0162518 0.005660474 0.006414949 -0.006028175 -0.00245577 -0.003661513 -0.01391434 0.00501722 -0.006569921 -0.01148557 3.37529e-4 0.002192676 -0.005355715 -0.00644952 0.002855598 -0.007313132 -0.006282806 -0.002889275 -0.007218778 -0.006272196 0.00256437 -0.01720583 0.005109548 0.002491772 -0.01408457 0.005656123 0.001467823 -0.0162484 0.005666673 0.001240134 -0.01358634 0.006142437 0.003667593 -0.01690727 0.004460215 0.004781067 -0.01631486 0.003381907 0.003751933 -0.01443248 0.004850983 -0.005785346 -0.007325768 -0.003736853 -0.006869256 -0.008564412 -8.05585e-5 -0.00690627 -0.00643903 -1.93317e-4 -0.004691779 -0.01232916 0.00444436 -0.003958404 -0.005812287 -0.005565822 -0.003585934 -0.01226735 0.005357146 -0.005349576 -0.005872011 -0.004247486 -0.006162464 -0.007706403 0.003154098 -0.006617903 -0.008901357 0.001800477 -0.002687036 -0.009077489 0.006303787 -0.004268825 -0.008999824 0.00535959 -0.005388259 -0.008459568 0.004264831 5.84323e-4 -0.01070272 0.006671249 -0.001018464 -0.01173925 0.006467521 0.002610146 -0.010683 0.006136536 0.003125011 -0.01163339 0.005750834 -9.46881e-4 -0.008269548 0.00682491 0.003556966 -0.008487045 0.005877375 0.00456041 -0.009754717 0.004991948 0.005566835 -0.01126873 0.003534436 0.005782425 -0.009166002 0.00361979 0.002017617 -0.007060408 0.006605505 0.005328118 -0.00630176 0.004346847 0.00639671 -0.006081998 0.002530276 0.002771615 -0.03068888 -0.002581596 -0.003256142 -0.02935546 -0.002451658 -0.002259552 -0.02968895 -0.003309071 -0.00290513 -0.02552396 -0.003693819 4.37204e-4 -0.02601182 -0.004612565 0.00205338 -0.02642387 -0.004094958 -0.001239895 -0.02469491 -0.004668712 -0.003765761 -0.0257551 -0.002756953 -0.002742886 -0.03061366 0.002648293 0.003196299 -0.03085684 0.002014338 0.005416631 -0.01861941 -0.001314461 0.002716958 -0.02850013 0.003259479 -0.002972126 -0.0240302 0.003899157 -4.3757e-5 -0.01583778 0.005931735 -0.006374001 -0.005523741 -0.002362489 0.001767516 -0.03058499 -0.003393411 0.003535509 -0.02899378 -0.002184867 -0.001573503 -0.03040003 0.003549933 -0.00351423 -0.02929633 0.002091407 0.005404114 -0.01683717 -0.002127528 -0.005025327 -0.02051317 0.001756429 0.004149556 -0.005549013 -0.00536549 0.001533448 -0.009215354 0.006677448 0.004266321 -0.006374597 0.005395174 0.001387357 -0.02929788 0.003858089 0.001068174 -0.02899682 -0.004009902 -0.001244902 -0.02912104 -0.003924727 -0.001442253 -0.02754604 0.004150867 7.4061e-4 -0.02781701 0.004276096 -0.005559802 -0.01844072 3.12328e-4 -2.85714e-4 -0.02896642 0.004144072 -1.61229e-4 -0.02921015 -0.004115521 3.06475e-4 -0.03061109 0.003772556 0.002297699 -0.005515158 0.006425976 3.03798e-4 -0.03499954 -9.00433e-5 7.38725e-5 -0.03470361 -0.001151084 -0.001470804 -0.03438901 -8.74739e-4 -0.001356065 -0.03454178 5.6045e-4 -5.96954e-4 -0.03457337 0.001242101 5.75471e-4 -0.03466707 0.001071214 5.06558e-5 -0.007138669 -0.006875336 -0.00517857 -0.007046461 -0.004465162 -0.006322205 -0.007365405 -0.002662658 0.002280473 -0.03382259 -4.58908e-5 0.001541316 -0.03426456 -9.84467e-4 0.002568483 -0.03319895 -9.84421e-4 7.14449e-4 -0.03420341 -0.001793384 0.002042233 -0.03285932 -0.002143859 0.003439664 -0.03180754 -3.48383e-4 -6.20349e-4 -0.03369486 -0.002332389 7.92405e-4 -0.03299409 -0.002746939 0.004057526 -0.02938991 4.45984e-4 -0.002036631 -0.03234183 -0.002545118 0.004370391 -0.02708262 -9.35375e-4 -0.002469539 -0.03357833 5.65037e-4 -2.29192e-4 -0.03200751 -0.003339946 -0.002686738 -0.03298401 -0.001097321 -0.003657102 -0.0304653 -0.001216769 -7.76352e-4 -0.03402096 0.002014756 -0.00371164 -0.03084844 6.87621e-4 -0.00242716 -0.03283762 0.00169444 6.69818e-4 -0.03374356 0.002268433 0.001420676 -0.03450775 3.77723e-4 -0.001036882 -0.03250092 0.002997517 0.001849949 -0.03346347 0.001845419 0.001210391 -0.03215497 0.003067612 0.002568483 -0.03319895 9.84421e-4 0.002470135 -0.02260076 -0.004434168 0.005541741 -0.01834487 6.64998e-4 0.005310535 -0.01892602 -0.001535832 0.004952669 -0.02335417 6.03314e-4 0.001100897 -0.02267283 -0.004965424 0.004533946 -0.01870137 -0.003179132 -0.003646075 -0.02619773 0.002808511 -0.002754628 -0.02620279 0.003689289 -0.002727031 -0.01912206 -0.004773139 -0.003471076 -0.01990824 -0.004143893 0.00641781 -0.01113516 -0.001619756 0.006674051 -0.01049929 5.49926e-4 0.002253174 -0.0121268 -0.006071031 -0.001162886 -0.01276069 -0.006287157 -0.002698421 -0.01262784 -0.005800843 -0.005587756 -0.01809495 3.43374e-4 0.006869733 -0.007775843 6.6146e-4 0.006862759 -0.008101522 -6.57367e-4 0.00673151 -0.005244851 4.65337e-4 -4.45682e-4 -0.01863521 0.005536198 -0.002981781 -0.01664376 0.004986345 0.00661695 -0.005347549 -0.001418948 0.00628072 -0.003372132 0 0.001588881 -0.007641851 -0.006682097 0.005143225 -0.01815807 0.002239465 0.00571829 -0.002860009 -0.00213474 0.004777431 -0.003094971 -0.00397408 0.00550723 -0.001988053 0 0.003324508 -0.003358721 -0.005320608 0.001270353 -0.003676772 -0.006286084 -0.001172721 -0.012766 0.006286084 -0.002604901 -0.01265555 0.00583446 0.005523204 -0.01788508 0.001160919 0.004255831 -8.67837e-4 -9.97824e-4 -4.40427e-4 -0.005264461 -0.006746351 0.0032413 -0.001003742 -0.003243327 -0.002106547 -0.004530429 -0.006304979 0.001837372 -9.67564e-4 -0.004152715 -0.003001391 -0.002988159 -0.005365848 0.00102961 -0.001983404 -0.005452215 -0.001106441 -0.002639293 -0.005846798 -0.004615545 -0.0030725 -0.004159033 0.003242611 -0.01196324 0.00563395 -0.005917966 -0.003254175 -0.002015709 -0.006446719 -0.004380941 0.001465857 -0.00544995 -0.004331171 0.003791809 -0.006100773 -0.002880871 -3.90871e-4 -0.004757642 -0.001566529 -0.002064883 -0.001448035 -0.001113176 -0.004430592 -0.003104269 -0.001118957 -0.003492593 -0.003829658 -0.005594491 0.005629658 -0.003354907 -4.14381e-4 -0.00109297 -0.005349218 -0.002295434 0.002008616 -0.002640485 -0.004453003 0.006127655 -0.004880726 -0.001307249 4.82385e-4 -0.003908634 -0.002031624 0.004038274 -6.8384e-4 -0.004474103 0.006621539 9.02279e-4 -0.002966701 0.006091952 -0.003585219 -7.57673e-4 0.00221467 0.00265479 -0.00377804 0.005877315 -0.002136468 -0.002447783 0.005458176 0.004870235 -0.003471791 0.004070878 0.00571829 -0.002860009 0.00213474 0.001877248 -0.001463055 0.004711925 0.003648638 -0.001885056 0.004125833 -6.99892e-4 -0.001528263 0.005079448 0.002667546 -5.85326e-4 0.002798914 0.004268229 -9.4536e-4 0.001235425 0.004260301 -0.02579224 -0.001878917 0.004790067 -0.02365785 -0.001255691 -0.004283487 -0.02599966 -0.00177294 -0.004473209 -0.02726489 -3.49738e-6 0.001787483 -0.02388083 -0.004588186 -1.19565e-4 -0.02421498 -0.004883885 -0.002880871 -0.02265703 -0.004171073 -0.002562642 -0.02411144 -0.004190325 -4.07622e-4 -0.02218812 -0.005102694 0.004557251 -0.01891505 -0.003073453 0.001101851 -0.02161478 -0.005082607 0.003589212 -0.01938736 -0.004118919 -0.004380941 -0.02592206 0.001547336 -0.004316389 -0.02367496 -0.002450644 -0.003935277 -0.02297526 -0.003155887 0.002559661 -0.01839762 -0.00498569 -0.004791259 -0.01899719 -0.002705156 -0.001617312 -0.01856648 -0.005327224 -0.0054304 -0.01880586 -0.001055717 0.005227446 -0.01219516 -0.003817796 0.005767166 -0.01237273 -0.002884149 0.001800239 -0.02388578 0.004593312 3.98019e-6 -0.01374596 -0.006246507 0.004113376 -0.01192116 -0.005066454 0.004542112 -0.01171314 -0.004687011 -0.002153277 -0.01315969 -0.005939364 -0.003963768 -0.01307022 -0.004956722 -0.005407154 -0.01781368 0.001617908 0.005009889 -0.02080833 0.001726567 -0.004774212 -0.01792752 0.002973377 -0.006530284 -0.0108121 -0.001415073 0.005184829 -0.01779711 0.002213954 -0.002388656 -0.01308852 0.005851149 -0.002108156 -0.006804227 -0.006526589 -0.003753602 -0.00682646 -0.005728602 8.42208e-4 -0.0122407 0.006426155 0.002269983 -0.01212656 0.006063759 0.005800843 -0.0124194 0.002791225 0.005032837 -0.01212489 0.004089534 0.006337583 -0.01072007 0.002106785 0.001819491 -1.29091e-4 -0.002041101 2.64859e-5 -4.3219e-4 -0.003522217 -6.94755e-4 -1.23842e-4 -0.002554953 -0.002191185 -2.23811e-4 -0.002154648 -0.002550482 -1.87624e-4 0.001271665 -0.001283764 -2.92238e-4 0.002977609 2.38227e-4 -3.28154e-4 0.00330615 0.001563072 -1.61584e-4 0.002275884 0.00281614 -1.7492e-4 7.43345e-4 0.003500401 -0.02532774 -0.003191173 0.002667129 -0.02466768 -0.004011571 0.004282057 -0.02336883 -0.002569735 -0.002046167 -0.02671778 -0.004030406 0.001173377 -0.0245946 -0.004691243 0.003309488 -0.02339041 -0.003734052 -0.003343701 -0.02412527 -0.003577589 0.003512978 -0.02040821 -0.004044234 -0.001776337 -0.02167803 -0.004879951 0.002454519 -0.02004134 -0.004784405 0.003834009 -0.01838999 -0.004030942 -0.00377494 -0.0248956 0.002942562 -0.004114925 -0.02374613 0.00271213 -0.00332868 -0.02411669 0.003566324 -0.002200484 -0.02449929 0.004312753 -0.003855168 -0.01841145 -0.004011034 0.002205073 -0.026259 0.004052877 -1.45923e-4 -0.02420997 0.004874467 0.003112614 -0.02469199 0.003685355 0.003149867 -0.02349668 0.003831565 -0.001309871 -0.01313477 -0.006190061 0.004499018 -0.02366995 0.002077937 1.13652e-4 -0.01277858 -0.006374061 0.001784503 -0.01352483 -0.006018102 -0.002917289 -0.01285457 -0.00563395 -0.001545369 -0.009761333 -0.00658214 -2.05267e-4 -0.008140444 -0.006869792 -0.001879632 -0.008328139 -0.006600856 -0.00105381 -0.007296562 -0.006793558 0.004550516 -0.01805609 0.003268241 -0.004746377 -0.007249951 -0.004951834 -0.001216351 -0.01315313 0.006210088 3.63159e-5 -0.0128057 0.006380319 0.004647433 -0.01174467 0.004578173 0.000999987 0.007983505 -3.26482e-4 0.004107713 -0.01194149 0.005031168 0.000999987 0.008211195 0.003644406 0.000999987 0.01032257 0.002026975 0.000999987 0.0110715 0.003975689 0.000999987 0.01177859 0.001066803 0.000999987 0.01331293 0.002327919 0.000999987 0.008123278 -0.003582775 0.000999987 0.00871843 -0.001580297 0.000999987 0.01024085 -0.002059996 0.000999987 0.01401787 4.00244e-4 0.000999987 0.01029658 -0.004047572 0.000999987 0.01187574 -9.22506e-4 0.000999987 0.01362758 -0.001850366 0.000999987 0.0121718 -0.003389596 0.000999987 0.008552849 0.001508414 -0.000999987 0.008204042 0.003634512 -0.000999987 0.009336173 0.001923263 -0.000999987 0.01009529 0.004024565 -0.000999987 0.01073187 0.001910746 -0.000999987 0.01192414 0.003562629 -0.000999987 0.01191729 7.7081e-4 -0.000999987 0.01360917 0.001878201 -0.000999987 0.007805347 -0.003363013 -0.000999987 0.00917834 -0.001861333 -0.000999987 0.009623825 -0.004054844 -0.000999987 0.01402217 -1.67799e-4 -0.000999987 0.0108245 -0.001911759 -0.000999987 0.01189517 -7.25991e-4 -0.000999987 0.01176625 -0.003622591 -0.000999987 0.01342624 -0.002200841 -0.000999987 0.008214056 0.00101155 0.01068717 -0.01227509 -2.5e-4 0.01104635 -0.009150505 -2.52485e-4 0.009824156 -0.007264375 -2.50512e-4 0.01098352 -0.007948517 -2.27181e-4 0.01043468 -0.005345463 -2.23579e-4 0.008727669 -0.007730782 -2.46711e-4 0.008474588 -0.006301403 -2.5e-4 0.008627116 -0.004407763 -2.50048e-4 0.009177625 -0.002918362 -2.28947e-4 0.007180869 -0.004910469 -2.46016e-4 0.007798016 -0.001262426 -2.34281e-4 0.006932497 -0.001697778 -2.5e-4 0.00589466 -6.70795e-4 -2.4826e-4 0.005573034 -0.001649856 -2.24558e-4 0.005954325 1.0012e-4 -2.27656e-4 0.004583239 -1.1581e-5 -2.5e-4 0.003777742 7.36444e-4 -2.19418e-4 0.002450764 1.73832e-4 -2.4967e-4 0.002117872 7.6624e-4 -2.46388e-4 0.004608392 -2.84705e-5 2.5e-4 0.005550205 -0.001624107 2.29015e-4 0.0069229 -0.001627326 2.5e-4 0.007180392 -0.004912972 2.44163e-4 0.008039772 -0.003514707 2.45243e-4 0.008655488 -0.004647433 2.49755e-4 0.00846827 -0.00674504 2.50012e-4 0.009372711 -0.006420791 2.48034e-4 0.009973049 -0.007992804 2.5e-4 0.01069271 -0.01228034 2.5e-4 0.002456247 1.70454e-4 2.50004e-4 0.008788645 -0.00770998 2.46472e-4 0.005864143 -6.80596e-4 2.45987e-4 0.00797522 -0.003583014 -2.44825e-4 0.009340345 -0.006444633 -2.47974e-4 0.01105934 -0.009117484 2.50307e-4 0.01093065 -0.00747168 2.29671e-4 0.0104289 -0.005318224 2.31656e-4 0.009518206 -0.003454267 2.31037e-4 0.007924914 -0.001382768 2.27399e-4 0.005872666 1.14186e-4 2.25957e-4 0.003773152 7.82537e-4 2.22416e-4 0.008741378 -0.002306401 2.32054e-4 0.003743708 9.38077e-4 2.55792e-4 0.003716945 9.41332e-4 -2.5489e-4 0.005931437 3.00607e-4 2.53547e-4 0.007281422 -5.69368e-4 -2.4803e-4 0.008256435 -0.001437246 2.48893e-4 0.008550465 -0.001852214 -2.59925e-4 0.009687304 -0.003385066 -2.54662e-4 0.01027369 -0.00443083 2.46999e-4 0.01058483 -0.005340814 -2.58184e-4 0.01106333 -0.007077515 2.45076e-4 0.01116675 -0.007961809 -2.57094e-4 0.01083344 -0.01087188 2.5e-4 0.01103776 -0.01278227 -2.5e-4 0.01118016 -0.01315695 2.5e-4 0.01232683 -0.009555041 -2.5e-4 0.01149624 -0.005171835 -2.49959e-4 0.00560683 0.002463519 -2.5e-4 0.01214146 -0.005991518 -2.45284e-4 0.01235538 -0.004971385 -2.49839e-4 0.01049506 -0.003073036 -2.49833e-4 0.01199001 -0.003778517 -2.5e-4 0.008209884 5.33237e-4 -2.4845e-4 0.0104016 -2.39755e-4 -2.5e-4 0.01151996 -0.001871883 -2.47319e-4 0.009155094 0.001722991 -2.50204e-4 0.009128928 0.001188337 -2.50276e-4 0.01232248 -0.009528994 2.5e-4 0.01151323 -0.005190968 2.49578e-4 0.01049375 -0.003065705 2.49823e-4 0.007993698 0.002238035 2.50084e-4 0.01209759 -0.003853201 2.5e-4 0.008215188 5.31194e-4 2.46693e-4 0.01010513 -9.04087e-5 2.5e-4 0.01144975 -0.001937448 2.46749e-4 0.0113067 -0.001232743 2.50029e-4 0.009286105 0.001429975 2.46544e-4 0.01217806 -0.00599265 2.48392e-4 0.01009708 -0.002074599 2.48073e-4 0.01006174 -0.002090275 -2.47831e-4 0.005562424 4.52042e-4 -2.54059e-4 -0.01110005 -0.009129047 -2.53574e-4 -0.01099342 -0.008065998 -2.28351e-4 -0.01102703 -0.006855189 -2.48302e-4 -0.01061385 -0.005951285 -2.26993e-4 -0.0104506 -0.004994392 -2.60083e-4 -0.009708046 -0.003403544 -2.52958e-4 -0.009585142 -0.003541231 -2.27224e-4 -0.008098363 -0.001301348 -2.48705e-4 -0.008152008 -0.001614034 -2.26254e-4 -0.006519913 -6.54148e-5 -2.55087e-4 -0.005960226 9.04794e-5 -2.29462e-4 -0.00364679 7.895e-4 -2.23483e-4 -0.002125322 8.75772e-4 -2.53245e-4 -0.004529416 8.47058e-4 -2.47979e-4 -0.01102262 -0.009148955 2.4814e-4 -0.01116991 -0.008070349 2.58496e-4 -0.01095163 -0.007561087 2.31162e-4 -0.0106545 -0.00587511 2.4785e-4 -0.009950578 -0.004263281 2.27413e-4 -0.00978744 -0.003525078 2.58113e-4 -0.008874714 -0.002488136 2.31221e-4 -0.007942199 -0.001148164 2.48015e-4 -0.00792545 -0.001383423 2.27365e-4 -0.006315529 6.24104e-5 2.6081e-4 -0.005888998 1.03073e-4 2.23919e-4 -0.004101157 9.30812e-4 2.57398e-4 -0.003869652 7.79009e-4 2.27392e-4 -0.002094626 7.11422e-4 2.36979e-4 -0.007993698 0.002238035 2.50084e-4 -0.007423162 0.002306878 -2.5e-4 -0.008219122 5.38546e-4 2.48042e-4 -0.008211195 5.27176e-4 -2.47711e-4 -0.01040971 -2.36266e-4 2.5e-4 -0.01021677 -1.47409e-4 -2.5e-4 -0.011415 -0.001954972 -2.46379e-4 -0.01152008 -0.001879096 2.47477e-4 -0.01006549 -0.002084553 2.47843e-4 -0.01049506 -0.003073036 2.49833e-4 -0.01049375 -0.003065705 -2.49823e-4 -0.01200699 -0.003784239 -2.5e-4 -0.01216727 -0.003927171 2.5e-4 -0.01235443 -0.005034267 -2.49855e-4 -0.01216185 -0.005992352 2.46354e-4 -0.01152056 -0.005175888 2.4903e-4 -0.01148819 -0.0051862 -2.50524e-4 -0.01232564 -0.009556412 2.5e-4 -0.01232153 -0.009542584 -2.5e-4 -0.01105731 -0.01298063 2.1875e-4 -0.009301126 0.001461863 -2.46759e-4 -0.009289681 0.001427114 2.46353e-4 -0.01140421 -0.00140655 -2.4976e-4 -0.01009231 -0.002080202 -2.48293e-4 -0.01214289 -0.005982816 -2.44854e-4 -0.01080828 -0.01120042 -2.5e-4 -0.01068717 -0.01227509 2.5e-4 -0.01069271 -0.01228034 -2.5e-4 -0.009984672 -0.008069038 -2.5e-4 -0.009824156 -0.007264375 2.50512e-4 -0.009374678 -0.006419539 -2.47916e-4 -0.008760571 -0.007727265 2.46521e-4 -0.008465468 -0.006495237 2.5e-4 -0.008568763 -0.004932165 -2.5e-4 -0.008649289 -0.004624783 2.49774e-4 -0.007187843 -0.004911661 -2.44624e-4 -0.007167518 -0.004904031 2.4495e-4 -0.0069229 -0.001627326 -2.5e-4 -0.006932497 -0.001697778 2.5e-4 -0.004608392 -2.84705e-5 -2.5e-4 -0.004583239 -1.1581e-5 2.5e-4 -0.005550146 -0.001623034 -2.27396e-4 -0.008038818 -0.00353384 -2.45946e-4 -0.002444922 1.78015e-4 2.49926e-4 -0.0024603 1.67922e-4 -2.49715e-4 -0.00933963 -0.00644356 2.48086e-4 -0.008732557 -0.007739961 -2.46666e-4 -0.008046627 -0.00352931 2.44769e-4 -0.005915403 -6.78404e-4 2.47094e-4 -0.005841493 -6.7474e-4 -2.47409e-4 -0.005573034 -0.001648902 2.22789e-4</float_array>
          <technique_common>
            <accessor source="#Part__Feature_015-mesh-positions-array" count="569" stride="3">
              <param name="X" type="float"/>
              <param name="Y" type="float"/>
              <param name="Z" type="float"/>
            </accessor>
          </technique_common>
        </source>
        <source id="Part__Feature_015-mesh-normals">
          <float_array id="Part__Feature_015-mesh-normals-array" count="3390">0.9391436 -0.3417853 0.03452694 -0.9343779 -0.3460356 -0.08483773 -0.8885787 -0.4586566 0.00787431 0.9294308 -0.230776 0.2879255 0.8007416 -0.2529205 -0.5429956 0.9691818 -0.2206806 -0.1094841 0.918646 -0.3854149 0.08686107 0.9366536 -0.2895241 0.1971189 0.2479215 -0.2778433 0.9280831 -0.283815 -0.4381991 0.8528954 -0.9081603 -0.273386 0.3170254 -0.9344256 -0.2853335 -0.2131515 0.6045219 0.3116019 0.733115 -0.930718 -0.2536651 -0.2634734 -0.906653 -0.2240011 -0.3574966 0.7929981 -0.3705955 -0.4835424 0.3508728 -0.2226283 -0.9095741 -0.06156891 -0.232208 0.9707157 0.1110351 -0.2405864 0.9642559 -0.5866846 -0.1785289 0.7898916 -0.7406914 -0.4929898 0.4564397 -0.5766334 -0.2508587 0.7775371 0.4271456 0.03029119 0.9036753 -0.06243789 0.01977133 0.9978531 -0.5021751 -0.2377073 -0.8314539 -0.116668 -0.238819 -0.9640302 0.3131141 -0.234279 -0.9203657 -0.1864968 0.03234761 -0.9819229 0.6451616 -0.2220033 -0.7310821 0.3031486 -0.1052181 -0.9471167 0.8783969 -0.2161997 -0.4262356 0.9780911 -0.2077983 -0.01255315 0.9786022 -0.1990778 -0.05201685 0.9069806 -0.2046831 0.3680911 0.54065 -0.02335101 -0.8409236 0.8764838 -0.05239409 -0.4785718 0.601817 0.1505518 -0.7843153 0.5708482 0.09599769 -0.8154243 0.8702412 -0.06202507 -0.4887056 0.995365 -0.01947325 -0.09417861 -0.8512206 -0.209909 0.4810006 -0.9150515 -0.2448101 0.3205447 0.7355898 0.002127647 0.677424 0.6894916 -0.04395639 0.7229587 -0.9512129 -0.2285501 0.2072652 -0.8426749 -0.1646351 0.5126349 -0.8977397 -0.1046169 0.4279239 -0.6035739 -0.2117589 -0.7686721 -0.6885944 0.05579608 0.7229969 -0.9346296 -0.1750397 -0.3095622 -0.1469051 -0.2316419 -0.961645 -0.5754747 -0.2922313 -0.7638258 -0.7489983 -0.04992997 -0.660688 0.9643311 -0.2146672 -0.1548662 0.6904857 -0.0896964 -0.7177633 0.9321235 -0.2184957 0.2888001 0.9249354 -0.0233913 -0.379404 0.9630042 -0.105514 0.2479712 -0.9802381 -0.1826877 0.07588392 -0.9869377 -0.1606223 0.01243281 -0.9838086 -0.1698961 0.05706202 -0.9210636 -0.145303 -0.3612879 -0.7940257 -0.1042454 -0.598879 -0.3515098 -0.08895206 -0.9319487 -0.6468865 -0.01668405 -0.7624039 -0.5785838 0.1399934 -0.8035189 0.1266477 -0.05864799 -0.9902126 0.1103032 -0.05988144 -0.9920925 0.7604339 -0.2330481 0.6061591 0.4676772 -0.2285043 0.8538525 0.4181933 -0.05847543 0.9064739 0.3517453 -0.08789384 0.9319603 -0.6089769 -0.1735365 0.7739717 -0.5131671 -0.108453 0.8514091 -0.7828897 -0.253685 -0.5680913 -0.9196792 0.003863811 0.3926518 -0.4576736 -0.0938453 -0.8841539 -0.9542124 0.1507103 -0.2583897 -0.1539042 -0.1586543 -0.9752653 0.743383 -0.2274058 0.6290218 0.9970441 -0.06677967 -0.03799623 -0.0651316 -0.2313557 0.9706866 -0.2473958 -0.2128959 0.9452359 -0.5619541 -0.2412506 0.7912054 0.9836058 0.1497104 0.1005312 0.3421463 -0.1709302 0.9239692 0.9345162 -0.007980763 0.3558312 -0.03121834 -0.02727901 0.9991403 -0.01448398 -0.03414303 0.999312 -0.5404887 0.01467174 0.8412233 -0.5032793 -0.0290327 0.863636 -0.8983709 0.05116432 0.4362477 -0.9793543 0.06345593 -0.1919339 -0.3244371 -0.141389 0.9352806 -0.9998932 -0.007980465 -0.01225036 -0.006819307 0.9999728 0.002855539 -0.009701609 0.9999475 -0.003304123 -0.003014028 0.9999275 -0.01166194 0.007375478 0.9999141 0.01083278 0.4621066 0.8795327 0.1134891 0.8805291 -0.1693881 0.4426922 -0.08328127 -0.2080759 -0.9745609 -0.4793297 -0.1240366 0.8688256 -0.9107329 -0.1355591 -0.3901145 -0.7479104 -0.1367059 0.6495702 -0.9162262 -0.1209959 0.3819549 0.9740305 -0.07509356 -0.2136016 -0.7676187 -0.1052755 0.6322014 0.5909341 -0.1480048 0.7930268 -0.9174335 -0.09118247 -0.3873004 0.1813045 -0.09855175 -0.9784765 0.1290745 -0.1582544 -0.9789256 0.8953573 -0.02053856 -0.4448748 -0.05579966 -0.1431813 -0.9881223 -0.08638656 -0.1309832 -0.9876137 0.7460494 -0.1046596 0.6576144 -0.3710467 -0.1605733 0.914626 0.2961065 0.01895284 -0.954967 0.3367035 -0.1548045 0.9287984 0.1270061 -0.1639911 0.9782518 0.72485 -0.1314833 0.6762431 -0.8936583 -0.02998542 -0.4477454 -0.9465461 -0.05772793 -0.3173611 -0.9790076 -0.02776581 -0.2019238 -0.7195367 -0.09760546 0.687561 0.2546542 -0.1103784 0.9607121 0.3262026 -0.1983623 0.9242534 0.5980319 -0.1380175 0.7894993 -0.2451757 -0.09432321 0.9648793 0.5260866 -0.05927306 0.8483629 0.5498505 -0.1399014 0.8234634 0.8916428 -0.1092512 0.4393602 0.9211822 -0.04702103 0.3862804 -0.6934473 -0.1672526 0.7008262 -0.4508088 -0.1307718 -0.8829894 0.7368534 -0.1482415 -0.6595997 -0.479995 -0.1225469 0.8686697 -0.7619668 -0.1185147 -0.6366797 -0.9119367 -0.1383275 -0.3863122 -0.7412363 -0.1150203 0.6613162 -0.7418719 -0.1829479 -0.6451017 -0.692363 -0.1097845 -0.7131487 -0.5434365 -0.1181133 -0.8310993 -0.50558 -0.139519 -0.8514243 -0.3507643 -0.1219102 -0.9284946 0.7521047 -0.1089197 0.6499808 -0.562063 -0.1248965 -0.81761 -0.6999331 -0.1310886 -0.7020752 0.009972214 -0.09882199 0.9950553 0.5060784 -0.1373273 0.8514846 0.531304 -0.1497742 0.8338368 -0.8483814 -0.1078069 0.5182923 -0.826272 -0.1232151 0.5496296 -0.02140331 -0.1608165 0.9867523 0.6345701 -0.03688335 0.7719848 0.7557091 -0.04597079 0.653292 0.7032017 -0.02358949 0.710599 0.7301027 -0.174368 -0.6607162 0.6087192 -0.1708359 -0.7747748 -0.5454164 -0.1605437 -0.8226462 -0.007182478 -0.05170685 -0.9986366 -0.7571792 -0.177667 0.6285811 0.7677237 -0.1702344 0.6177543 -0.4438546 -0.1519141 0.8831282 -0.8969566 -0.127431 0.4233562 0.8796049 -0.1291418 0.4578402 0.5645497 0.1216701 -0.8163824 0.4850538 0.006370842 -0.8744611 0.3848214 -0.05720657 0.9212166 -0.6748318 -0.1709267 -0.717904 -0.7073445 -0.1585324 -0.6888623 0.7051231 0.07866334 -0.7047081 0.2531946 -0.1655416 0.9531466 0.6123711 -0.1721618 -0.771597 -0.5777518 -0.1889441 0.7940422 -0.4330219 -0.183167 -0.882577 -0.2283759 -0.1905181 0.95475 0.477196 0.04013323 0.8778801 0.1141206 -0.1733745 -0.9782218 0.1326161 -0.1727363 0.9759997 0.1218714 -0.2199578 0.9678668 0.4450553 0.02331799 0.8951995 -0.2315973 -0.9488821 -0.214442 -0.2933031 -0.9528346 -0.07797086 -0.1973602 -0.9645673 0.1750972 -0.0353794 -0.9585554 0.2827011 0.7000513 -0.6748104 -0.233579 0.3604029 -0.8753757 -0.3222222 0.2773922 -0.8943119 -0.3510839 0.6361278 -0.6131809 -0.4683488 0.5070866 -0.6488474 -0.5673274 -0.0365684 -0.7704595 -0.6364393 -0.2594348 -0.8044026 -0.5344439 0.07875269 -0.6203431 -0.780367 0.8429918 -0.3356864 -0.4203327 0.8649106 -0.2946555 -0.4063349 0.802932 -0.3648942 -0.4713305 -0.5075282 -0.6245862 -0.5935547 0.5691313 -0.3420649 -0.7477173 -0.5957749 -0.60016 -0.5337231 0.9703097 -0.2067249 -0.1255552 0.4336131 -0.3931038 -0.8108325 -0.6541283 -0.7558595 -0.02815431 0.2123162 -0.3325231 -0.9188854 0.1649843 -0.2672328 -0.9494034 0.1341734 -0.3067263 -0.9422933 -0.7376629 -0.6605428 -0.139774 -0.1880741 -0.2581603 -0.9476189 -0.3753163 -0.2854713 -0.8818412 -0.3371199 -0.2994558 -0.8925673 -0.7899236 -0.3059413 -0.5314328 -0.7972136 -0.3310816 -0.5048123 -0.6782482 -0.2554028 -0.6890202 -0.5766675 -0.6687043 0.4693498 -0.5737801 -0.6748161 0.4641117 -0.9269364 -0.3618282 -0.09934467 -0.4389832 -0.7760013 0.4528969 -0.9103208 -0.4129078 -0.02869373 0.02040845 -0.8110487 0.5846226 0.04543095 -0.7927076 0.6079069 -0.5097351 -0.527019 0.6800155 -0.8634738 -0.406302 0.2988842 0.3739659 -0.748363 0.547816 -0.8364073 -0.3120141 0.4506331 -0.8400789 -0.3012125 0.4511523 0.4822188 -0.7742631 0.4098559 -0.5778211 -0.3896241 0.7171583 0.6364668 -0.7041229 0.314835 -0.5345104 -0.3399991 0.7737566 0.03285503 -0.3991311 0.916305 -0.1442568 -0.2859519 0.9473234 0.9912413 -0.1130721 -0.06822955 0.9905731 -0.1155785 -0.0735287 0.6739883 -0.7002214 0.2354358 -0.1427873 -0.2667335 0.9531343 0.2576175 -0.2724359 0.9270448 0.5867977 -0.2817333 0.7591409 0.6100173 -0.3607954 0.7054825 0.7554812 -0.4226512 0.5006136 0.5208887 -0.2574372 0.8138803 0.9088696 -0.3460237 0.2328596 0.8917127 -0.1826405 -0.4141147 0.9379555 -0.1384347 -0.3179238 0.9878103 -0.1352773 -0.07701367 -0.9817272 -0.1540313 -0.1117418 0.9984203 0.05309152 -0.0183922 0.9696111 -0.1166667 0.2150425 0.9736454 0.2167268 -0.07102298 0.9406945 0.2884168 -0.1786335 0.913676 0.234543 -0.3319427 0.8471353 0.2233521 -0.4821572 0.8529089 0.2347933 -0.4662815 0.7261752 0.1889909 -0.6610235 0.6324529 0.2532323 -0.7320362 0.8674183 0.4847595 -0.1122226 0.4897917 0.201875 -0.8481454 0.3701347 0.2892788 -0.88279 0.1160383 0.1591944 -0.9804042 -0.842341 -0.02283936 -0.5384607 0.4453381 0.6010826 -0.6636067 0.4910467 0.5859504 -0.6446203 0.7353136 0.6497595 -0.1926826 -0.8730769 0.05440169 -0.4845381 -0.4921594 0.2262915 -0.8405779 0.3936602 0.5893808 -0.7054516 0.3201961 0.4547744 -0.8310564 -0.1216139 0.2940032 -0.948036 -0.03757482 0.3153879 -0.9482187 -0.5876998 0.2535502 -0.7683237 0.6565553 0.6745727 -0.3374712 0.6571812 0.628251 -0.4164297 -0.6784287 0.2002263 -0.706855 0.02876639 0.4448943 -0.895121 -0.8352339 0.2347168 -0.4972851 -0.8379746 0.2430531 -0.4885936 0.9881111 -0.1537112 0.003067612 -0.2918374 0.3682057 -0.8827545 -0.9135109 0.1193662 0.3889082 -0.9662777 0.2105264 -0.1482778 -0.9630734 0.2177296 -0.1583772 0.01510244 0.7831642 -0.6216315 0.01977705 0.7842767 -0.620096 -0.06927436 0.6702232 -0.7389194 -0.800717 0.05635607 0.5963861 -0.7550283 0.5069754 -0.4158226 -0.9753537 0.2206199 -0.003488957 -0.2985305 0.6124584 -0.7319661 -0.3783686 0.6447776 -0.664153 -0.4991097 0.5995448 -0.6256481 -0.5977533 0.6310812 -0.4943962 -0.4773433 0.8283948 -0.2930963 -0.8073556 0.5487523 -0.2169053 -0.6012297 0.3039722 0.7390018 -0.8892925 0.4223244 0.175502 -0.8606622 0.3589461 0.361135 -0.5841996 0.8041092 -0.110087 -0.8152699 0.5671418 0.1169845 -0.7533836 0.4539976 0.4757093 -0.5970974 0.3214542 0.7349435 0.1336278 0.2003908 0.9705602 0.2307531 0.2496275 0.9404463 -0.5202398 0.3852264 0.7622016 0.5121312 0.1612176 0.8436414 -0.2248027 0.3589353 0.9058859 0.5963506 0.2271784 0.7699066 -0.6360485 0.6809723 0.3629313 0.6848763 0.1796789 0.7061586 -0.1126415 0.4327717 0.8944387 -0.09387481 0.5010175 0.8603307 0.8369749 0.1856288 0.5147963 0.860292 0.2365742 0.4515866 -0.328088 0.80072 0.5012044 0.3765995 0.4819107 0.7911606 0.3422787 0.534989 0.7724198 -0.3109777 0.7343431 0.6033515 -0.2995028 0.7837417 0.5441021 0.9421155 0.2284893 0.2453792 0.5469349 0.3955427 0.7378402 -0.09308731 0.846736 0.5238062 0.06245458 0.8109016 0.5818403 0.09257644 0.6400146 0.7627653 0.944413 0.272895 0.1833371 0.7050762 0.5263811 0.4751743 0.1898624 0.8602771 0.4731551 0.3549016 0.7854808 0.5070156 0.8674182 0.4847596 0.1122224 0.5272307 0.7683641 0.3628286 0.6563768 0.6647199 0.3568148 0.7368716 0.6482239 0.1919013 0.6567872 0.7537394 0.02253097 0.4610315 0.8869345 0.02823752 0.1942136 0.9807966 0.01786577 0.5930639 -0.8000724 -0.09033012 0.8598405 -0.5054589 -0.07201027 0.4033264 -0.5824395 -0.7057564 0.00271672 -0.513149 -0.8582953 -0.2922438 -0.4394539 -0.8493962 0.9323384 -0.2193577 -0.2874498 0.3287223 -0.9255143 0.1880561 -0.972674 -0.2206469 -0.07225269 0.04326421 -0.4607092 0.8864961 -0.04158055 -0.5474836 0.8357828 0.39492 -0.5165951 0.7597155 0.364261 -0.08263367 -0.9276236 0.05861371 -0.09891045 -0.9933686 0.1837357 -0.1963364 -0.9631683 -0.2756986 -0.1785925 -0.9445078 -0.4780832 -0.09303861 -0.8733729 0.8690317 -0.4917219 0.05471241 -0.665537 -0.1359037 -0.7338874 0.7526959 -0.1037293 -0.6501454 0.9254909 -0.3086583 0.2195373 -0.6450473 -0.06869137 0.7610489 0.9252224 -0.1956315 0.3251031 -0.8224621 -0.1138123 -0.5573176 0.5945957 -0.13512 -0.7925898 0.06699585 -0.1348317 0.988601 0.312718 -0.1598135 0.9363051 0.2244561 -0.2204187 0.9492287 -0.8925591 -0.1231049 0.4338012 -0.4863494 -0.1014539 -0.8678546 -0.615938 -0.1479894 -0.7737697 0.434644 -0.1153768 -0.8931813 0.2311179 -0.2036345 0.9513766 0.5199939 -0.16151 0.8387617 0.7839018 -0.1735068 -0.596149 0.9894916 -0.1191282 -0.08194494 -0.9892437 -0.1207156 -0.08261251 -0.4609224 -0.08831876 0.8830348 -0.4784865 -0.09404933 -0.8730438 -0.842418 -0.1381229 0.5208205 -0.3069846 -0.12072 0.9440271 0.952341 0.01953166 0.3044096 -0.02404433 -0.1704821 0.9850674 0.8921896 -0.1701241 0.4183964 -0.9721757 0.01078194 -0.2340045 0.956995 -0.232201 0.1739065 0.3284425 0.9389886 -0.1021085 -0.9771831 0.05224341 0.2058737 -0.9603146 0.05658286 0.2731195 0.3684861 0.9029476 -0.2211419 0.3169458 0.9433753 -0.09792125 0.2532506 0.899847 -0.3551614 0.157712 0.9825981 -0.09812271 0.1452224 0.9199798 -0.3640709 -0.7248427 0.06770968 0.6855789 -0.6909492 0.03182613 0.7222024 -0.5126089 -0.001989185 0.8586201 -0.4174041 0.03877997 0.9078932 -0.303381 0.03931456 0.9520581 -0.2434781 0.068713 0.9674695 0.05353426 0.04972851 0.9973271 0.0988717 0.09712857 0.9903487 0.07532805 0.9722309 -0.2215691 -0.165503 0.8990402 -0.4053831 -0.1700301 0.8951205 -0.4121276 0.0561648 0.9626159 -0.2649835 0.06520837 0.9487015 -0.309376 -0.757907 0.6443058 -0.1022111 -0.2412145 0.8746116 -0.4205597 -0.02383691 0.9794555 -0.2002472 0.9973136 -0.07216894 0.01254343 -0.4113103 0.8620656 -0.296086 -0.1168128 0.9741353 -0.1934303 -0.1153879 0.9732061 -0.1988859 -0.176773 0.9764621 -0.1235848 -0.2302219 0.9699887 -0.07823085 -0.3654971 0.9291408 -0.05576163 -0.457043 0.8873997 0.06027871 -0.4371656 0.8971943 0.06267935 -0.3138915 0.9493284 0.01574456 -0.2734323 0.9261341 0.2598282 -0.1720841 0.9767495 0.1278572 -0.180997 0.9642545 0.1935286 -0.06961935 0.9756639 0.2079263 0.1740761 0.9120498 0.3712988 -0.03126984 0.9675756 0.2506389 0.2633767 0.9421888 0.2071548 0.06153076 0.9698234 0.2359166 0.06382519 0.9716367 0.2277029 0.4028432 0.891525 0.2071246 0.1855592 0.9721332 0.1432655 0.1938273 0.9677088 0.1611545 0.4416108 -0.8891914 -0.1196604 0.9212148 -0.1753787 -0.3472833 0.9890566 -0.1461557 -0.02013933 0.8350623 -0.1381742 -0.5325213 0.9896662 -0.1274293 -0.06574666 0.7643224 -0.1030524 -0.6365467 -0.1840512 -0.1627256 -0.9693531 0.4080599 -0.09951853 -0.9075148 0.2564041 -0.185851 -0.9485339 -0.0762403 -0.1391724 -0.987329 -0.3436483 -0.1552863 -0.9261707 0.5646201 -0.1234264 -0.81607 0.5248692 -0.1797881 -0.8319787 -0.962098 -0.162246 -0.2191889 -0.4752325 -0.07615739 -0.8765581 -0.9247573 -0.1837908 0.3332342 -0.2076564 -0.1341177 -0.9689641 0.9161693 -0.1233521 -0.3813373 -0.7059701 -0.1640928 -0.6889702 0.7620002 -0.1190884 -0.6365327 0.3645932 -0.1240525 -0.9228667 0.892798 -0.1047288 -0.4381139 -0.9652832 -0.1662942 0.2014312 -0.7113177 -0.2676732 -0.6499062 0.7559722 -0.1289919 -0.6417688 -0.9704046 -0.1347308 -0.2004058 -0.9313419 -0.1140021 -0.3458409 -0.8686535 -0.1350311 0.4766632 0.5981109 -0.07648795 -0.7977551 0.5583407 -0.1359417 -0.8183982 -0.9908747 -0.1198011 -0.0617671 -0.1852095 -0.1554439 0.9703271 -0.8587694 -0.156229 0.4879629 -0.7521446 -0.09168809 0.6525885 0.4945779 -0.1874786 0.8486722 0.03729712 -0.1468062 0.9884619 0.6128013 -0.1194826 -0.7811521 -0.4720086 -0.1634969 0.8663007 -0.2789704 -0.1200475 0.9527666 -0.5931815 -0.2680795 0.7591239 -0.9786489 -0.1229585 0.1647048 -0.9307923 -0.1133968 -0.3475154 0.3116293 -0.1174864 -0.9429126 0.299009 -0.1262431 -0.9458628 -0.7618691 -0.09126162 -0.6412698 -0.7299431 -0.1682703 0.6624712 -0.1612451 -0.1221698 -0.9793236 0.06708544 -0.1476285 -0.9867651 -0.5924263 -0.08086156 -0.8015564 -0.772781 -0.1434198 -0.618256 0.9284356 -0.1342061 -0.3464044 -0.3852484 -0.1401134 -0.912114 0.6212483 -0.1817977 -0.7622337 -0.7627063 -0.1178969 -0.6359084 0.4569421 0.04043811 0.8885769 0.8420155 -0.155991 -0.5164075 -0.1086344 -0.08807879 -0.9901721 0.2834823 -0.1836801 -0.9412223 0.9742678 -0.1488981 0.169209 -0.1234039 -0.1750934 -0.9767875 0.8897732 -0.1513714 0.43057 0.955987 -0.1171431 0.2690101 -0.9771856 -0.1418832 0.1580428 0.8474745 -0.1156091 0.5180943 0.5501675 -0.09426081 0.8297173 0.7078059 -0.1303275 0.6942806 0.4819242 -0.1178808 -0.8682472 -0.2784665 -0.1378709 -0.9504988 0.921386 -0.1009758 -0.3753024 0.1674168 -0.09332132 -0.9814595 0.1436256 -0.1453664 -0.9788976 -0.09788173 -0.1191911 -0.9880347 0.3472659 -0.09766286 0.9326673 -0.07889223 -0.1320852 0.9880939 0.8546336 -0.08977323 0.5114119 0.9545713 -0.13798 0.2641121 -0.4621174 -0.3355083 -0.8209029 0.1338184 -0.08921056 0.9869824 -0.5271255 -0.1312717 0.8395872 -0.9788229 -0.1206882 0.1653487 0.2913802 -0.1001716 -0.9513482 -0.7694587 -0.1425043 0.6225961 -0.5146142 -0.1525251 -0.8437466 0.9684197 -0.00703001 -0.2492264 -0.2393717 -0.1060534 0.9651187 -0.2970705 -0.08095145 0.951418 0.7730808 -0.03416806 -0.6333867 0.6590959 -0.09925323 -0.7454807 0.4722473 -0.06009346 0.8794154 0.3739148 -0.1236416 0.9191847 -0.8996908 -0.1582603 0.4068293 0.539424 -0.06673723 -0.8393855 0.08051115 -0.1174048 0.9898152 0.9953926 0.07103496 -0.06440305 -0.1237645 -0.054421 -0.9908182 0.5371109 -0.06336319 -0.8411284 0.3112669 -0.04648888 -0.9491848 -0.153094 -0.04858797 -0.9870164 0.06130617 0.1507524 -0.9866688 0.7389597 -0.1199793 0.6629808 0.9619643 -0.09776049 0.2550833 -0.2969697 -0.1413151 0.9443724 -0.964414 -0.1431188 0.2223124 -0.6844206 -0.1904765 0.7037665 -0.1371787 -0.161259 0.9773318 -0.1553078 0.02724689 -0.9874903 -0.4673057 -0.158082 0.869848 -0.9916954 -0.1109325 -0.0650711 -0.6268777 -0.1297809 0.7682327 -0.2156605 0.09484767 -0.9718511 -0.03383052 -0.3386622 0.9402998 -0.4362563 0.05607414 -0.8980736 -0.4213563 0.08824402 -0.9025918 -0.6622036 -0.01344156 -0.7492034 -0.6882128 0.03412038 -0.7247062 -0.9142989 -0.09703254 0.3932459 0.1572947 -0.05781382 0.985858 -0.9913759 -0.01033759 0.1306412 0.9562205 -0.1271923 0.2635613 0.8380802 -0.1394265 0.5274295 0.7795785 -0.2201597 0.5863336 0.8913372 -0.1037557 0.4413083 0.976663 -0.07836115 0.1999722 0.9601267 -0.03754258 0.2770329 -0.6514657 0.7122833 0.2612378 0.9801089 0.06796497 0.1864605 0.3897178 -0.1790806 -0.903355 0.2707846 -0.1351844 -0.9531008 0.6149476 -0.1784334 -0.7681152 0.9174544 -0.1166411 -0.380358 0.8284797 -0.1603709 -0.5365656 0.6300511 -0.1513442 -0.761663 -0.8559391 -0.1627672 -0.4907906 0.4137158 -0.01023685 -0.9103486 0.5435191 -0.1105414 -0.8320863 0.05498558 -0.1099351 -0.9924167 -0.8843513 -0.006024479 -0.4667832 -0.8682816 -0.1466009 0.4739151 -0.7793346 -0.185511 -0.5985176 0.3282337 -0.1042509 -0.9388261 -0.4700758 -0.1610927 0.8678007 0.5461996 -0.1015731 -0.831474 0.06056863 -0.1247073 -0.9903432 -0.2058882 -0.1289028 -0.9700485 -0.1615582 -0.1147227 -0.9801723 -0.6655988 -0.1356649 -0.7338756 -0.5685253 -0.1140232 -0.8147256 -0.6962167 -0.1413488 0.7037776 0.2924126 -0.1393249 0.9460886 0.2995095 -0.1071634 -0.948056 0.3616326 -0.1360881 -0.9223351 -0.3991603 -0.110423 -0.9102076 -0.9755929 -0.1265528 0.1794523 0.6931083 -0.2421951 0.6789274 0.6735864 -0.1051429 0.7315917 -0.1699824 -0.1079134 0.9795207 0.4938729 -0.08303064 0.8655607 -0.04240477 -0.1045014 0.9936203 -0.218916 -0.147142 0.9645854 0.1706297 -0.1850062 0.9678111 0.6813098 -0.1233847 -0.7215214 0.8250636 -0.1653386 -0.5403085 0.239692 -0.09279263 0.9664043 -0.7683837 -0.09000718 0.6336287 0.4475281 -0.1222984 0.8858678 0.7064962 -0.107563 0.6994951 0.7411086 -0.1482871 0.6548045 0.1401013 -0.111923 -0.9837911 -0.4925615 -0.1919033 -0.848856 0.7134578 -0.1823348 -0.6765589 -0.4483588 -0.1446003 -0.8820801 -0.9068104 -0.09383577 0.4109622 0.4156644 -0.1731842 -0.8928777 0.7821897 -0.1625469 -0.601463 0.9179112 -0.1231582 -0.3771884 0.4548322 -0.1368084 -0.8800064 0.6530507 -0.09075736 -0.7518563 0.8443747 -0.05638885 -0.5327776 -0.684289 -0.197319 -0.702007 0.8761464 -0.04893958 -0.4795545 -0.3102999 -0.1511067 -0.9385525 -0.5387752 -0.09901332 0.8366109 -0.8767048 -0.1623977 -0.4527867 -0.7165915 -0.1421523 -0.6828539 -0.5802627 -0.19533 0.7906588 -0.2538457 -0.1609258 0.9537637 0.9773492 0.02927029 -0.2095989 0.2984518 -0.05391275 -0.9529008 -0.9275718 -0.1394478 -0.346648 -0.8167553 -0.1308134 -0.5619598 0.5937162 -0.1409229 0.7922385 -0.986064 -0.1466021 -0.07864975 -0.7616458 -0.1559484 0.6289482 0.1002015 -0.0514146 -0.9936379 -0.1255478 -0.07179999 -0.989486 -0.3903959 -0.08974039 0.9162629 -0.3497568 -0.08756816 -0.932739 0.1137517 -0.03564256 -0.9928697 -0.6984072 -0.1207169 0.7054465 -0.5906896 -0.1560686 0.7916619 -0.150613 -0.1171566 0.9816263 0.4535243 -0.1849188 0.8718491 0.5275942 -0.1207807 0.8408666 0.8740497 -0.1343287 0.4668972 -0.3472359 -0.09316575 -0.9331385 -0.3798364 -0.07250499 -0.922208 0.08289277 -0.1511861 0.9850236 0.374372 -0.1071611 0.9210658 -0.699822 -0.05485183 -0.7122082 -0.5353178 -0.05847722 -0.8426241 0.1405547 -0.1172552 0.9831051 0.7262732 -0.1401025 0.6729774 0.8631288 -0.1458516 0.4834626 -0.5789369 -0.02740925 -0.8149116 -0.4829248 -0.1300691 0.8659479 -0.1513735 -0.06313604 -0.9864583 0.1444165 0.06233054 -0.987552 -0.2715665 0.03771787 -0.9616803 -0.8285731 -0.1090384 0.5491605 -0.9643974 -0.1436085 0.2220684 -0.8237522 -0.06181716 -0.5635701 -0.7587351 -0.03028398 -0.650695 0.309054 -0.1416636 0.9404346 0.114837 0.09810179 -0.9885284 -0.9895093 -0.08463758 0.1170813 -0.9747078 -0.02166646 -0.2224307 0.4197303 -0.139198 0.8969117 0.3008975 -0.1616011 0.9398648 -0.6266712 -0.1315447 0.7681011 -0.3013551 -0.1307939 0.9444989 0.7007749 -0.1595304 0.6953163 -0.4665468 -0.0981636 0.8790324 0.3861843 -0.757138 0.5268813 0.4975973 -0.1672362 0.851134 0.6438618 -0.1073966 0.7575672 -0.513086 -0.1231881 0.8494513 -0.2054965 0.1270875 0.9703711 0.01992034 -0.1028464 0.9944978 0.7694206 -0.1044648 0.630142 0.7638601 -0.0992034 0.6377118 0.06633788 0.01839184 0.9976277 0.3843584 -0.05560237 0.921508 0.8614971 0.007765591 0.5077033 0.9408731 -0.143981 -0.3066391 -0.8773918 -0.1785302 -0.4453207 -0.4693644 -0.09010326 -0.8783954 0.7631685 -0.1181723 -0.6353025 0.8490961 -0.1042285 -0.5178537 0.06480216 -0.1228239 -0.9903106 0.7520553 -0.1887538 0.6314941 0.877135 -0.06746697 0.4754813 0.8505222 0.04873222 0.5236766 0.9315676 -0.2486046 0.2652882 0.9462938 -0.08704304 0.3113706 0.9887962 0.126053 -0.0799542 0.948409 -0.3166455 -0.01600629 0.903896 -0.004027485 -0.4277336 0.8913286 -0.1188845 -0.4374929 0.6998621 -0.2536249 -0.6677331 -9.93265e-4 0.9999791 0.006394982 -0.008415102 0.9999612 -0.00263983 -0.008101105 0.9999664 -0.001279473 -0.004032135 0.9999778 -0.005314409 -0.07168036 0.9974273 9.54622e-4 -0.0122441 -0.3908069 -0.9203912 -0.110632 0.2802258 -0.9535378 -0.3957564 -0.3988372 -0.8272279 -0.1871132 0.6309727 -0.7529025 -0.4835448 0.5671994 -0.6666854 -0.6031278 -0.3112093 -0.7344289 -0.7702221 -0.3283419 -0.5467629 -0.3407871 0.8202182 -0.4594631 -0.4947052 -0.2147023 0.8421221 -0.2965884 -0.1116768 0.9484533 -0.3078216 -0.1497197 0.9395903 -0.0823605 -0.1829824 0.9796603 -0.0767408 0.02856904 0.9966418 0.2541433 -0.4327222 0.864964 0.2241452 0.2146012 0.9506343 0.4872407 -0.3323233 0.8075627 0.6112054 0.1232598 0.7818152 0.6731386 -0.2236379 0.7048905 0.8486735 0.3033887 0.4332536 0.2469435 -0.9286971 0.27666 -0.2465597 0.5872157 -0.7709643 0.09189456 0.9866399 0.1345255 0.7103376 -0.3499368 -0.6107084 0.6629762 -6.73379e-4 -0.7486402 0.4811646 -0.09564357 -0.8713972 0.4572952 -0.2867926 -0.8418023 0.2048058 -0.2300405 -0.9513863 -0.05911999 0.3404877 -0.9383885 -0.064058 -0.5606317 -0.8255839 -0.3510066 0.0565316 -0.934665 -0.3101724 -0.3509351 -0.8835371 -0.5054187 -0.1389839 -0.8516076 -0.6772002 -0.3548549 -0.6445758 -0.91685 -0.0201528 -0.398723 -0.9038753 -0.287355 -0.3169174 -0.9904839 0.03992533 -0.1317108 -0.9944977 -0.0737484 -0.07440143 -0.9844875 -0.09297841 0.1487935 -0.9865342 -0.05852639 0.1527252 -0.8967732 -0.1816031 0.4035073 -0.9228142 -0.01904863 0.384774 -0.7699873 -0.1457142 0.6211981 -0.6939362 0.150584 0.7041143 -0.5964046 -0.3400272 0.727106 -0.4214322 0.1012753 0.9011873 -0.2917687 -0.2873373 0.9123093 0.0738511 -0.2226246 0.9721031 -0.1711469 -0.06095224 0.9833583 0.1427462 0.001430749 0.9897584 0.5353356 -0.3868403 0.7508465 0.5419921 -0.3564664 -0.7610363 0.1510207 0.01277762 -0.9884481 0.009299874 -0.4271103 -0.9041517 -0.2611328 0.1847808 -0.9474523 -0.4918199 -0.5900658 -0.6402621 -0.5330182 0.5196551 -0.6677201 0.8805944 -0.4524485 0.1408683 0.9999158 0.01282387 0.002033233 1 4.82632e-6 -1.69201e-5 1 1.38539e-5 -5.32047e-6 1 0 0 0.9998323 0.0181545 -0.00243771 0.9999969 7.54337e-4 0.002394318 0.9999794 0.003768205 -0.005221009 1 0 0 1 1.36623e-5 3.82124e-7 0.9999958 0.002510368 0.001471459 0.9999905 0.004172921 -0.001294732 -0.9999992 -8.12241e-4 9.9979e-4 -0.9999961 -0.002352058 -0.001575291 -1 1.86697e-5 -6.77565e-6 -1 0 0 -1 1.27319e-7 0 -1 0 0 -0.9352602 0.30956 -0.1716423 -0.9999733 0.005260229 0.005093693 -0.9996336 -0.009616911 -0.02530503 -0.9999633 0.008405864 0.001707077 -1 0 0 -1 0 0 -1 0 0 -1 0 0 -1 0 0 -1 0 0 -0.9999961 -0.002797126 3.29117e-4 -0.07710301 -0.6938848 0.7159463 -0.001882612 -0.5874083 0.8092886 -0.004104733 -0.2019713 0.9793829 0.08016502 -0.114691 0.9901615 -0.0954163 0.2437738 0.965127 0.08578431 0.5901392 0.8027309 -0.05421501 0.7059329 0.7062008 0.06178158 0.9373733 0.3428037 -0.05400907 0.9787994 0.1975728 0.05058735 0.984031 -0.1706575 -0.04723972 0.9585546 -0.2809654 0.047239 0.7257264 -0.6863598 -0.04337364 0.6498922 -0.7587878 0.04276013 0.3307962 -0.9427329 -0.06285017 0.1973686 -0.9783126 0.07368612 -0.208572 -0.9752272 -0.0461229 -0.3551845 -0.9336577 -0.003455042 -0.6038198 -0.7971135 0.003655672 -0.5840379 -0.8117183 -2.52963e-4 -0.5969892 -0.8022493 0.03627204 0.992496 -0.1167739 -0.0878337 0.9513925 -0.2951908 0.08566737 0.6282591 -0.7732734 -0.08858001 0.2800998 -0.9558754 0.05618453 -0.008954107 -0.9983803 -0.06401115 -0.5494049 -0.8331008 0.05851209 -0.6919584 -0.7195624 -0.06192862 -0.9968928 -0.04868042 -0.008248269 -0.9998566 0.01479595 0.05854469 -0.7409507 0.6690027 -0.1052429 -0.5679557 0.8163028 0.08273059 0.03049373 0.9961054 -0.06479012 0.2998918 0.9517706 0.06729596 0.7167576 0.6940676 -0.07020324 0.860598 0.5044229 0.03355747 0.02278959 -0.999177 -0.002413809 -5.17974e-4 -0.999997 0.02391022 0.006424427 -0.9996935 0.01204091 0.01020312 -0.9998755 0.00201869 -0.00194323 -0.9999961 0.01724529 0.005020737 -0.9998387 0.002305269 -2.10864e-4 -0.9999973 0.01845037 0.007344841 -0.9998028 0.006753563 0.01166975 -0.9999092 0.0102601 0.005326807 -0.9999333 0.003162622 -9.95515e-4 -0.9999946 0.01528602 0.005710303 -0.9998669 0.01147413 0.01328903 -0.9998459 0.01527816 0.02553302 -0.9995573 -0.009303271 -0.02114605 -0.9997331 0.01420295 0.02561658 -0.999571 0.01190233 0.05363845 -0.9984895 0.003747344 0.04487723 -0.9989856 0.01650983 0.01481723 -0.999754 0.6355737 0.3609607 -0.6824614 -0.0919997 -0.9953368 -0.02899521 -0.08662098 -0.9962245 -0.005790889 -0.8558157 -0.516648 0.02558255 -0.8611666 -0.5081176 -0.01444339 -0.665417 -0.7443799 -0.0558474 -0.7006874 -0.7082236 0.08635169 -0.9969433 -0.07811611 -0.001418471 -0.99699 -0.07709425 -0.00820595 0.8519427 -0.5236322 -0.00178498 -0.9938559 0.08872932 0.06616437 -0.9922891 0.07992416 0.09473323 -0.9710971 -0.1723243 -0.1651515 0.8988592 -0.4282472 -0.09304147 0.9101783 -0.4123157 -0.0396378 -0.9079387 -0.3470346 -0.2349773 -0.984444 -0.1695425 0.04610222 -0.9861645 -0.1655166 0.009163379 -0.6986966 -0.7128724 0.06030017 -0.7309822 -0.6823884 0.003350377 -0.9409293 -0.3128593 0.129504 0.8573735 -0.5130265 -0.04140847 -0.864496 -0.4706292 -0.1765077 -0.7701856 -0.609939 0.1865174 -0.85828 -0.5068436 0.08040499 0.946479 -0.3160536 0.06548041 0.9491185 -0.3105216 0.05244624 0.993383 -0.1142001 -0.01219028 0.9931865 -0.1151236 -0.01808667 -3.41766e-4 -5.73606e-5 1 0.01381522 0.01361608 0.9998118 0.01928126 0.003571152 0.9998077 0.01015323 0.005127787 0.9999353 0.003128707 -0.002628862 0.9999917 0.01161515 0.003727197 0.9999257 0.002213299 -7.53112e-5 0.9999976 0.01267278 0.006523728 0.9998984 0.009239733 0.009006142 0.9999168 0.009245455 0.008867383 0.9999181 0.001449406 -0.00166285 0.9999976 0.02024221 0.009458601 0.9997504 0.01671779 0.02388125 0.9995751 0.01855701 0.0249896 0.9995155 -0.005238771 -0.01624155 0.9998544 0.01618564 0.02501606 0.9995561 0.01358181 0.04795795 0.998757 0.003473997 0.03756612 0.9992881 -0.01298457 0.07288557 0.9972558 -0.02858507 -0.02023172 0.9993867 -0.9916678 0.1276648 0.01722335 -0.9231241 0.001923859 -0.3844973 -0.974824 -0.1479084 0.166858 0.001723468 -6.88454e-4 -0.9999983 6.93784e-4 -0.003947377 -0.9999921 0.008283138 0.001578807 -0.9999645 -0.005038559 -0.002540469 -0.9999841 0.008740842 0.001524746 -0.9999607 1.94512e-4 0.002970755 -0.9999957 0.001242458 -0.004725933 -0.9999881 9.7967e-4 0.00199598 -0.9999976 0.004435598 0.003993034 -0.9999822 0.004487037 0.003859817 -0.9999825 0.001657187 0.00374782 -0.9999917 1.59453e-4 -8.56724e-5 -1 0.009663999 -0.003453671 -0.9999474 0.008448064 0.002832651 -0.9999603 -0.001458287 0.007828891 -0.9999684 -6.48784e-4 1.65837e-4 -0.9999998 0.004644513 0.001914978 -0.9999874 1.92954e-4 -5.4291e-4 -0.9999998 -3.13409e-4 -0.00122565 -0.9999993 0.007597506 -0.00256735 -0.9999679 5.41554e-4 -0.001271426 -0.9999991 -0.002156317 2.3851e-4 -0.9999977 0 0 1 1.78404e-4 -1.97795e-4 1 0.001077473 0.002561867 0.9999961 -0.005859494 -9.24495e-4 0.9999824 -0.005843162 -9.92677e-4 0.9999825 -0.003091633 -0.001648843 0.9999939 9.18388e-4 -7.1689e-4 0.9999994 0.001180946 5.29918e-4 0.9999992 -1.59235e-4 0.004911243 0.999988 2.95431e-4 -4.33648e-4 0.9999999 -0.006830036 -9.67664e-4 0.9999763 -0.001043558 -0.001900494 0.9999977 -0.001793622 4.67705e-4 0.9999983 0.002882182 0.001178145 0.9999952 -0.001391947 0.001088619 0.9999985 0.003160357 -0.00157696 0.9999939 1.09167e-4 -9.71738e-4 0.9999996 0.001420974 -0.004365265 0.9999895 -9.43795e-4 -9.67464e-4 0.9999992 0.001629173 -0.001775681 0.9999972 0.8162782 -0.3260623 -0.4768367 0.9535607 -0.3002441 0.02398979 0.9825156 0.1861771 -0.001126527 0.982701 0.1833184 -0.02633005 -0.7846663 -0.6173154 0.05675107 0.9173578 0.03421723 0.3965907 0.943859 0.2890833 -0.1598784 0.4407306 0.8975595 -0.01198303 0.42641 0.9034981 0.04319614 0.148045 -0.9887648 0.0206598 0.1000762 -0.9880957 -0.1168413 0.7734238 0.5293732 -0.348683 0.6766677 0.7117252 0.1885953 0.331371 0.9397335 -0.08422863 0.3124336 0.9499395 5.48798e-4 0.5804142 -0.8142647 -0.009620487 0.6338862 -0.7552367 0.1667506 0.1802158 0.8636602 -0.4707583 -0.005949497 0.9006685 0.4344662 -0.09516525 0.9921118 -0.08159643 0.9760478 -0.2049924 -0.07286214 0.9149816 0.4034807 -0.003480553 0.9256444 0.3703238 -0.07773512 0.9587069 -0.04685151 -0.2805106 -0.7697339 -0.638363 0.001648426 0.9669995 0.1955031 0.1633725 0.4994868 0.7973865 0.3386558 -0.2205141 -0.09945261 -0.9703003 -0.1634355 -0.1245675 -0.9786582 -0.1179702 -0.204279 -0.9717783 -0.03784537 -0.1166032 -0.9924573 -0.04842758 -0.1843214 -0.9816723 0.01302427 -0.1668225 -0.9859009 -0.1602486 0.01240253 -0.9869988 -0.1636239 -0.03673624 -0.9858386 -0.222966 -0.04566478 -0.9737561 -0.09917742 -0.0535646 -0.9936271 -0.1044691 -0.09022504 -0.990427 -0.1178141 -0.1073912 -0.9872117 -0.0405544 -0.05002135 -0.9979245 -0.08284795 -0.1134867 0.9900794 -0.04391276 -0.1327 0.990183 -8.75636e-4 -0.1257759 0.9920583 0.0152207 -0.2070322 0.9782158 -0.06683528 -0.01649188 0.9976277 -0.1529301 -0.1043678 0.9827104 -0.06334716 -0.2208301 0.9732529 -0.1235108 0.002788484 0.9923394 -0.1328926 -0.04036951 0.990308 -0.05607396 -0.02706551 0.9980597 -0.166743 -0.1129816 0.979506 -0.0745396 -0.06087481 0.9953583 -0.08737641 -0.1188333 0.9890623 0.07164323 -0.09398943 -0.9929921 0.002279222 -0.3618088 -0.9322496 -0.01714092 -0.04232805 -0.9989567 0.08231604 -0.01413625 -0.996506 0.13915 -0.06052434 -0.9884201 0.1133861 -0.08382076 -0.990009 0.023225 -0.06833404 -0.9973921 0.2996089 -0.007407724 -0.9540334 0.198444 -0.06766313 -0.9777739 0.1331524 -0.05692887 -0.9894592 0.12279 -0.09202539 -0.9881569 0.05997526 -0.08172738 -0.9948486 0.107586 -0.2271549 -0.9678978 0.1112697 0.005647718 0.9937743 0.05429142 -0.08346682 0.9950306 0.1087319 -0.2735048 0.9557054 0.04225748 -0.1313319 0.9904374 -0.01340693 -0.2135361 0.9768432 0.2428978 -0.09383285 0.9655031 0.2439318 -0.05257266 0.9683663 0.101683 -0.0637595 0.9927715 0.2018864 -0.1526206 0.9674445 0.09728813 -0.08013665 0.9920248 0.09788066 -0.1318018 0.9864318 0.008578777 0.9977012 0.0672214 0.01659029 0.9877944 0.1548779 -0.3885827 0.8623285 -0.3246428 -0.6381324 -0.7689137 -0.03948265 -0.6509788 -0.7590638 0.006993353 -0.3333548 0.9424164 -0.02694791 -0.3185259 0.9468299 0.04532629 -0.718526 0.6775689 -0.1569104 -0.7849607 0.5300334 0.3207827 -0.1398887 -0.9901666 -0.001222431 -0.09323263 -0.9868808 0.1318104 -0.4289146 0.903264 0.01209813 -0.4522157 0.885334 0.1080967 -0.9385024 0.2607941 -0.226274 -0.9342663 -0.003078162 0.3565629 0.7725188 -0.6347512 0.01749122 0.7847119 -0.6166028 0.06346786 -0.9813048 0.1803365 -0.06722968 -0.9821883 0.1878778 -0.002873539 -0.9376548 -0.3471393 -0.01726037 -0.977393 0.01795846 -0.2106668 -0.924817 0.3766529 0.05335032 -0.9171089 0.3986223 0.003403186 -0.9751285 -0.2176476 -0.04188179 -0.5292251 0.8454347 0.07184177 0.9004484 -0.01148074 0.4348115 0.9796982 0.1377522 -0.145657 0.009515225 -0.006040513 0.9999366 2.00006e-4 0.006190061 0.9999808 -3.01369e-4 0.004697263 0.999989 -0.006782472 -3.018e-4 0.9999771 -0.006998419 -0.001165151 0.9999749 -0.00232011 -8.93791e-4 0.999997 8.50051e-4 1.23372e-4 0.9999997 4.00779e-4 -0.001092195 0.9999994 -0.002972066 0.006555497 0.9999741 -0.008150756 0.005555868 0.9999514 -4.27544e-4 -0.001246511 0.9999992 -0.005142986 0.0102638 0.9999341 -0.001666486 -0.003752291 0.9999917 -0.003014028 -0.002337634 0.9999927 -0.001918733 -0.001770377 0.9999966 0.001342475 -2.53213e-5 0.9999992 -0.01945656 0.009416282 0.9997664 0.004248678 -0.009020864 0.9999503 0.003837049 -0.007704496 0.9999631 -0.002175033 -0.001293241 -0.9999969 -9.02833e-4 -0.003174066 -0.9999946 0.002203345 0.002983033 -0.9999932 -0.004165291 5.58287e-4 -0.9999912 -0.004262626 2.8071e-4 -0.9999909 -0.00143224 -6.51938e-4 -0.9999988 9.38909e-4 6.01776e-4 -0.9999994 1.34668e-4 -8.74594e-4 -0.9999997 -0.001422464 0.003112077 -0.9999942 6.87651e-4 -8.38984e-4 -0.9999994 -0.002827167 0.002704203 -0.9999924 -0.0020262 -0.006124496 -0.9999793 -0.00203824 0.004538834 -0.9999877 -0.002198159 0.005504488 -0.9999825 -0.008686661 -0.002841174 -0.9999583 -7.55242e-4 9.4114e-5 -0.9999998 -0.008530199 -0.003687977 -0.9999569 -0.001765489 -0.005666375 -0.9999824 0.0118317 0.001938343 -0.9999281 -0.003084957 4.69896e-4 -0.9999952 -0.002235114 -0.002040266 -0.9999954 -0.2369084 -0.2162516 -0.9471588 0.9861178 -0.1657952 -0.00915879 0.9845783 -0.1695662 -0.04304653 0.908205 -0.3361733 0.2493016 -0.8985177 -0.4368975 0.04226958 -0.9107947 -0.4108015 -0.04117548 0.9706301 -0.2326759 0.06114864 0.9301307 -0.05468976 -0.3631337 0.9902392 0.09734833 0.09974789 0.8768783 -0.3333421 0.3463631 -0.8416777 -0.5382423 0.04328817 -0.8507739 -0.5254584 -0.008790791 0.9972841 -0.07312828 0.008770227 0.9959585 -0.08040106 -0.0400334 0.7051783 -0.7038381 -0.08564782 0.6580461 -0.7472442 0.09274381 0.8556939 -0.5168505 -0.02556973 0.8610425 -0.5083242 0.01456958 0.0910055 -0.9954267 0.02904826 0.08830732 -0.9959414 0.0174005 0.7109134 -0.6699313 0.2139961 0.8356233 -0.5491084 -0.01462632 0.8760444 -0.4818776 0.01844614 0.8579069 -0.5067075 -0.08510804 -0.9534503 -0.2943577 -0.06546926 -0.9346077 -0.3261039 -0.1420024 -0.9810972 -0.1266537 0.1463117 -0.9942187 -0.1066886 0.01212114 -0.02044594 0.03032624 0.9993309 -0.01663243 0.01944482 0.9996727 -0.0161634 0.04315501 0.9989377 -0.005753874 0.008434653 0.999948 -0.01730811 0.03022217 0.9993934 -0.01521581 0.007076859 0.9998593 -0.006273984 0.008020937 0.9999482 -0.01986777 0.009230375 0.9997601 0.008797526 -0.02193194 0.9997208 -0.0121808 0.01799583 0.9997639 -0.002717435 0.03103548 0.9995146 -4.99272e-4 -7.38379e-4 0.9999997 8.74495e-4 0.0024392 0.9999967 -0.002394735 -0.001399457 0.9999962 -0.002194464 -9.4938e-5 0.9999976 -0.004366099 0.02713114 0.9996224 -0.01526391 -0.007206737 0.9998576 -0.002322912 -0.002267003 0.9999948 -0.02020931 0.01159316 0.9997286 -0.002494573 3.27396e-4 0.9999969 -0.01606339 0.02095347 -0.9996515 -0.01906627 0.02263522 -0.999562 -0.01117092 0.04551512 -0.9989013 -0.01215136 0.009539663 -0.9998807 -0.01330626 0.02138197 -0.9996829 -0.01921671 0.009122014 -0.9997738 -0.01214188 0.00750029 -0.9998983 0.007714867 -0.01872891 -0.9997949 -0.01422673 0.005976498 -0.999881 -0.003170013 0.03612363 -0.9993423 -0.01445263 0.00642991 -0.9998749 -9.69714e-4 -0.001558542 -0.9999984 -0.009728372 0.02361887 -0.9996737 -0.01439368 0.006585896 -0.9998747 -0.02144163 0.004490673 -0.9997601 -4.41779e-4 -0.001161515 -0.9999993 -0.02136969 0.02585583 -0.9994373 0.003813564 -6.41174e-4 -0.9999926</float_array>
          <technique_common>
            <accessor source="#Part__Feature_015-mesh-normals-array" count="1130" stride="3">
              <param name="X" type="float"/>
              <param name="Y" type="float"/>
              <param name="Z" type="float"/>
            </accessor>
          </technique_common>
        </source>
        <vertices id="Part__Feature_015-mesh-vertices">
          <input semantic="POSITION" source="#Part__Feature_015-mesh-positions"/>
        </vertices>
        <triangles material="Part__Feature_015-material" count="1138">
          <input semantic="VERTEX" source="#Part__Feature_015-mesh-vertices" offset="0"/>
          <input semantic="NORMAL" source="#Part__Feature_015-mesh-normals" offset="1"/>
          <p>3 0 2 0 11 0 517 1 6 1 21 1 7 2 6 2 517 2 14 3 4 3 9 3 13 4 11 4 1 4 12 5 426 5 11 5 14 6 2 6 3 6 14 7 3 7 4 7 16 8 15 8 35 8 18 9 19 9 16 9 517 10 21 10 20 10 6 11 7 11 502 11 24 12 55 12 25 12 10 13 6 13 502 13 26 14 6 14 10 14 11 15 2 15 1 15 34 16 1 16 49 16 51 17 18 17 16 17 51 18 16 18 35 18 18 19 20 19 19 19 20 20 21 20 19 20 22 21 20 21 18 21 24 22 25 22 38 22 39 23 38 23 30 23 48 24 28 24 27 24 49 25 0 25 28 25 0 26 49 26 1 26 33 27 59 27 41 27 34 28 13 28 1 28 34 29 49 29 8 29 42 30 11 30 13 30 43 31 9 31 12 31 43 32 12 32 42 32 43 33 14 33 9 33 17 34 34 34 8 34 42 35 13 35 17 35 17 36 5 36 36 36 17 37 8 37 5 37 36 38 42 38 17 38 37 39 52 39 42 39 45 40 20 40 22 40 45 41 517 41 20 41 44 42 55 42 24 42 24 43 53 43 44 43 45 44 23 44 517 44 46 45 45 45 22 45 56 46 45 46 46 46 26 47 48 47 27 47 46 48 29 48 31 48 10 49 47 49 26 49 48 50 49 50 28 50 48 51 26 51 40 51 58 52 40 52 50 52 42 53 12 53 11 53 13 54 34 54 17 54 44 55 14 55 43 55 36 56 37 56 42 56 43 57 52 57 44 57 10 58 23 58 45 58 10 59 56 59 47 59 10 60 45 60 56 60 47 61 50 61 26 61 40 62 26 62 50 62 48 63 41 63 59 63 41 64 40 64 58 64 41 65 58 65 32 65 49 66 59 66 33 66 49 67 33 67 8 67 44 68 15 68 14 68 53 69 35 69 15 69 53 70 24 70 38 70 51 71 53 71 38 71 46 72 22 72 54 72 39 73 46 73 54 73 6 74 26 74 27 74 31 75 57 75 46 75 41 76 48 76 40 76 50 77 57 77 58 77 49 78 48 78 59 78 53 79 15 79 44 79 43 80 42 80 52 80 18 81 51 81 60 81 18 82 60 82 54 82 18 83 54 83 22 83 52 84 37 84 55 84 51 85 35 85 53 85 52 86 55 86 44 86 38 87 39 87 60 87 38 88 60 88 51 88 46 89 39 89 30 89 46 90 30 90 29 90 56 91 46 91 57 91 57 92 50 92 47 92 60 93 39 93 54 93 57 94 47 94 56 94 61 95 57 95 31 95 61 96 58 96 57 96 61 97 32 97 58 97 29 98 61 98 31 98 30 99 61 99 29 99 65 100 63 100 167 100 80 101 315 101 75 101 72 102 83 102 76 102 74 103 73 103 98 103 95 104 86 104 76 104 86 105 87 105 88 105 89 106 242 106 235 106 87 107 86 107 95 107 78 108 92 108 97 108 74 109 98 109 84 109 99 110 109 110 100 110 100 111 109 111 108 111 121 112 89 112 102 112 99 113 238 113 109 113 109 114 238 114 103 114 92 115 113 115 114 115 120 116 325 116 245 116 124 117 125 117 248 117 127 118 128 118 129 118 129 119 130 119 171 119 133 120 131 120 132 120 115 121 200 121 134 121 323 122 200 122 115 122 323 123 135 123 136 123 137 124 144 124 145 124 328 125 148 125 146 125 149 126 148 126 328 126 152 127 149 127 375 127 147 128 150 128 143 128 148 129 149 129 152 129 152 130 151 130 148 130 154 131 153 131 332 131 154 132 332 132 157 132 231 133 166 133 232 133 233 134 350 134 299 134 230 135 352 135 68 135 72 136 170 136 83 136 74 137 82 137 73 137 73 138 79 138 98 138 76 139 86 139 354 139 74 140 84 140 82 140 96 141 82 141 84 141 110 142 112 142 104 142 104 143 112 143 239 143 239 144 112 144 103 144 93 145 113 145 92 145 104 146 319 146 110 146 110 147 319 147 118 147 373 148 171 148 130 148 128 149 127 149 133 149 133 150 127 150 131 150 116 151 145 151 141 151 137 152 145 152 116 152 328 153 146 153 147 153 151 154 152 154 181 154 156 155 152 155 154 155 181 156 152 156 156 156 174 157 158 157 342 157 158 158 173 158 342 158 161 159 345 159 160 159 346 160 162 160 164 160 176 161 166 161 231 161 169 162 167 162 63 162 170 163 70 163 83 163 354 164 86 164 178 164 321 165 113 165 93 165 124 166 111 166 125 166 124 167 179 167 111 167 151 168 180 168 148 168 159 169 161 169 160 169 165 170 161 170 159 170 111 171 179 171 102 171 180 172 146 172 148 172 342 173 173 173 163 173 166 174 175 174 232 174 184 175 160 175 345 175 175 176 188 176 185 176 181 177 191 177 151 177 183 178 189 178 162 178 182 179 188 179 190 179 182 180 186 180 188 180 191 181 155 181 151 181 192 182 194 182 193 182 192 183 195 183 194 183 192 184 196 184 195 184 192 185 197 185 196 185 202 186 203 186 201 186 193 187 204 187 192 187 192 188 204 188 202 188 203 189 202 189 205 189 202 190 204 190 205 190 204 191 193 191 207 191 193 192 194 192 207 192 207 193 208 193 204 193 203 194 158 194 206 194 206 195 158 195 174 195 205 196 158 196 203 196 207 197 194 197 210 197 205 198 173 198 158 198 210 199 194 199 214 199 206 200 211 200 209 200 208 201 173 201 205 201 194 202 195 202 212 202 208 203 213 203 173 203 213 204 189 204 173 204 173 205 189 205 183 205 212 206 214 206 194 206 184 207 189 207 213 207 160 208 184 208 210 208 210 209 184 209 213 209 159 210 210 210 215 210 214 211 215 211 210 211 210 212 159 212 160 212 195 213 216 213 212 213 212 214 216 214 218 214 214 215 217 215 215 215 196 216 216 216 195 216 212 217 217 217 214 217 196 218 197 218 216 218 216 219 197 219 219 219 216 220 221 220 218 220 218 221 217 221 212 221 219 222 197 222 222 222 218 223 166 223 217 223 217 224 166 224 176 224 197 225 220 225 222 225 221 226 166 226 218 226 220 227 224 227 222 227 221 228 175 228 166 228 223 229 190 229 221 229 221 230 190 230 175 230 294 231 227 231 228 231 228 232 227 232 226 232 220 233 201 233 224 233 190 234 188 234 175 234 182 235 190 235 223 235 223 236 167 236 169 236 222 237 167 237 223 237 224 238 167 238 222 238 223 239 169 239 182 239 206 240 167 240 224 240 230 241 177 241 168 241 177 242 235 242 168 242 168 243 235 243 236 243 240 244 323 244 98 244 241 245 242 245 243 245 226 246 321 246 228 246 243 247 246 247 247 247 250 248 247 248 246 248 121 249 250 249 246 249 102 250 251 250 121 250 121 251 251 251 250 251 179 252 251 252 102 252 179 253 253 253 251 253 247 254 250 254 252 254 124 255 253 255 179 255 124 256 254 256 253 256 124 257 259 257 254 257 200 258 140 258 199 258 260 259 253 259 262 259 251 260 253 260 260 260 250 261 258 261 252 261 200 262 172 262 140 262 138 263 263 263 261 263 253 264 264 264 262 264 254 265 264 265 253 265 261 266 265 266 259 266 259 267 265 267 254 267 138 268 266 268 263 268 250 269 260 269 258 269 251 270 260 270 250 270 140 271 266 271 138 271 254 272 265 272 264 272 172 273 266 273 140 273 172 274 268 274 266 274 168 275 236 275 257 275 261 276 263 276 265 276 269 277 141 277 270 277 136 278 271 278 172 278 172 279 271 279 268 279 262 280 264 280 334 280 264 281 273 281 334 281 265 282 273 282 264 282 145 283 270 283 141 283 266 284 268 284 272 284 136 285 269 285 271 285 263 286 273 286 265 286 263 287 274 287 273 287 266 288 274 288 263 288 272 289 274 289 266 289 274 290 272 290 276 290 268 291 271 291 272 291 275 292 278 292 270 292 269 293 277 293 271 293 270 294 277 294 269 294 276 295 272 295 279 295 277 296 279 296 271 296 270 297 280 297 277 297 270 298 278 298 280 298 191 299 282 299 281 299 191 300 284 300 282 300 278 301 285 301 280 301 181 302 284 302 191 302 281 303 285 303 278 303 181 304 286 304 284 304 280 305 283 305 277 305 156 306 286 306 181 306 281 307 282 307 285 307 285 308 282 308 290 308 157 309 286 309 156 309 157 310 287 310 286 310 283 311 280 311 338 311 282 312 289 312 288 312 284 313 289 313 282 313 285 314 290 314 280 314 280 315 290 315 338 315 157 316 243 316 287 316 286 317 289 317 284 317 338 318 290 318 339 318 290 319 288 319 339 319 282 320 288 320 290 320 243 321 247 321 287 321 289 322 286 322 287 322 339 323 288 323 291 323 288 324 289 324 291 324 247 325 252 325 287 325 291 326 289 326 292 326 287 327 292 327 289 327 287 328 252 328 292 328 258 329 292 329 252 329 341 330 292 330 258 330 14 331 341 331 2 331 220 332 202 332 201 332 201 333 203 333 206 333 204 334 208 334 205 334 208 335 207 335 213 335 213 336 207 336 210 336 206 337 174 337 211 337 197 338 192 338 220 338 217 339 296 339 215 339 223 340 221 340 219 340 219 341 221 341 216 341 222 342 223 342 219 342 225 343 297 343 229 343 229 344 298 344 301 344 297 345 298 345 229 345 300 346 350 346 298 346 300 347 299 347 350 347 206 348 224 348 201 348 300 349 307 349 299 349 349 350 304 350 302 350 206 351 209 351 167 351 232 352 356 352 353 352 209 353 65 353 167 353 306 354 309 354 307 354 352 355 308 355 69 355 186 356 66 356 67 356 358 357 66 357 186 357 358 358 71 358 66 358 305 359 354 359 178 359 80 360 233 360 82 360 233 361 357 361 82 361 69 362 365 362 81 362 77 363 78 363 94 363 361 364 78 364 314 364 317 365 90 365 313 365 236 366 235 366 242 366 79 367 240 367 98 367 83 368 95 368 76 368 96 369 319 369 318 369 116 370 322 370 117 370 147 371 256 371 255 371 132 372 324 372 257 372 255 373 328 373 147 373 257 374 330 374 132 374 136 375 172 375 200 375 236 376 332 376 330 376 333 377 341 377 258 377 142 378 269 378 136 378 141 379 269 379 142 379 258 380 260 380 333 380 341 381 333 381 2 381 260 382 262 382 333 382 2 383 333 383 1 383 333 384 262 384 334 384 145 385 275 385 270 385 144 386 275 386 145 386 143 387 275 387 144 387 278 388 275 388 143 388 150 389 278 389 143 389 281 390 278 390 150 390 155 391 281 391 150 391 191 392 281 392 155 392 1 393 333 393 0 393 273 394 336 394 334 394 334 395 336 395 335 395 334 396 335 396 333 396 333 397 335 397 0 397 279 398 272 398 271 398 274 399 336 399 273 399 0 400 335 400 28 400 242 401 241 401 236 401 274 402 276 402 336 402 335 403 336 403 28 403 28 404 336 404 27 404 27 405 336 405 6 405 276 406 21 406 336 406 336 407 21 407 6 407 279 408 283 408 276 408 276 409 283 409 337 409 337 410 21 410 276 410 337 411 283 411 338 411 21 412 337 412 19 412 337 413 338 413 19 413 19 414 338 414 16 414 339 415 291 415 340 415 338 416 339 416 16 416 340 417 291 417 341 417 339 418 340 418 16 418 16 419 340 419 15 419 341 420 291 420 292 420 340 421 341 421 15 421 15 422 341 422 14 422 220 423 192 423 202 423 211 424 174 424 293 424 209 425 211 425 228 425 293 426 174 426 342 426 211 427 294 427 228 427 347 428 344 428 342 428 189 429 184 429 164 429 163 430 346 430 343 430 162 431 346 431 163 431 189 432 164 432 162 432 184 433 345 433 164 433 349 434 347 434 225 434 347 435 297 435 225 435 215 436 296 436 295 436 164 437 161 437 348 437 217 438 176 438 305 438 301 439 298 439 350 439 294 440 344 440 227 440 165 441 348 441 161 441 344 442 349 442 302 442 229 443 351 443 225 443 344 444 302 444 227 444 217 445 305 445 296 445 300 446 306 446 307 446 302 447 304 447 352 447 296 448 311 448 295 448 306 449 295 449 311 449 231 450 353 450 305 450 304 451 308 451 352 451 351 452 308 452 304 452 187 453 311 453 296 453 67 454 185 454 188 454 353 455 354 455 305 455 354 456 353 456 355 456 169 457 358 457 182 457 67 458 188 458 186 458 69 459 68 459 352 459 185 460 356 460 232 460 67 461 356 461 185 461 356 462 355 462 353 462 178 463 296 463 305 463 309 464 306 464 311 464 69 465 308 465 75 465 75 466 308 466 64 466 307 467 309 467 234 467 170 468 72 468 354 468 80 469 62 469 310 469 64 470 62 470 75 470 233 471 234 471 357 471 357 472 234 472 309 472 177 473 313 473 235 473 80 474 310 474 233 474 81 475 68 475 69 475 73 476 82 476 357 476 71 477 360 477 66 477 312 478 313 478 177 478 80 479 75 479 62 479 75 480 365 480 69 480 65 481 209 481 228 481 362 482 315 482 80 482 65 483 363 483 63 483 228 484 363 484 65 484 187 485 178 485 88 485 63 486 363 486 93 486 78 487 361 487 92 487 92 488 361 488 93 488 316 489 81 489 237 489 80 490 318 490 362 490 313 491 90 491 235 491 237 492 365 492 364 492 365 493 315 493 364 493 364 494 315 494 362 494 94 495 78 495 97 495 85 496 77 496 244 496 363 497 321 497 93 497 228 498 321 498 363 498 318 499 319 499 366 499 77 500 94 500 244 500 106 501 95 501 83 501 240 502 320 502 116 502 100 503 108 503 105 503 95 504 107 504 322 504 366 505 319 505 104 505 89 506 121 506 242 506 83 507 244 507 106 507 85 508 244 508 83 508 91 509 111 509 102 509 101 510 111 510 91 510 114 511 119 511 97 511 97 512 119 512 94 512 322 513 116 513 320 513 101 514 105 514 111 514 94 515 119 515 244 515 242 516 246 516 243 516 367 517 109 517 103 517 105 518 125 518 111 518 248 519 125 519 105 519 368 520 367 520 369 520 248 521 368 521 370 521 371 522 131 522 114 522 226 523 249 523 321 523 373 524 325 524 120 524 116 525 123 525 240 525 137 526 117 526 122 526 120 527 171 527 373 527 326 528 259 528 198 528 139 529 122 529 325 529 123 530 135 530 323 530 139 531 137 531 122 531 326 532 261 532 259 532 373 533 130 533 374 533 327 534 138 534 326 534 326 535 138 535 261 535 199 536 138 536 327 536 140 537 138 537 199 537 142 538 116 538 141 538 374 539 130 539 329 539 135 540 142 540 136 540 236 541 330 541 257 541 132 542 330 542 331 542 330 543 153 543 375 543 332 544 153 544 330 544 241 545 332 545 236 545 241 546 157 546 332 546 279 547 277 547 283 547 241 548 243 548 157 548 183 549 163 549 173 549 162 550 163 550 183 550 343 551 342 551 163 551 294 552 293 552 344 552 293 553 342 553 344 553 343 554 347 554 342 554 295 555 165 555 159 555 347 556 343 556 346 556 351 557 349 557 225 557 303 558 229 558 301 558 165 559 295 559 348 559 305 560 176 560 231 560 348 561 295 561 306 561 303 562 351 562 229 562 185 563 232 563 175 563 351 564 304 564 349 564 301 565 62 565 303 565 301 566 350 566 310 566 310 567 62 567 301 567 234 568 299 568 307 568 299 569 234 569 233 569 232 570 353 570 231 570 182 571 358 571 186 571 64 572 308 572 303 572 303 573 308 573 351 573 350 574 233 574 310 574 296 575 178 575 187 575 360 576 358 576 63 576 63 577 358 577 169 577 83 578 70 578 359 578 358 579 360 579 71 579 77 580 85 580 359 580 359 581 85 581 83 581 314 582 77 582 359 582 312 583 68 583 81 583 177 584 68 584 312 584 78 585 77 585 314 585 72 586 76 586 354 586 360 587 361 587 66 587 360 588 93 588 361 588 360 589 63 589 93 589 365 590 75 590 315 590 80 591 82 591 96 591 81 592 316 592 312 592 80 593 96 593 318 593 178 594 86 594 88 594 81 595 365 595 237 595 317 596 91 596 90 596 235 597 90 597 89 597 101 598 100 598 105 598 317 599 101 599 91 599 102 600 90 600 91 600 84 601 319 601 96 601 102 602 89 602 90 602 238 603 239 603 103 603 95 604 106 604 107 604 98 605 115 605 84 605 118 606 319 606 84 606 245 607 107 607 106 607 244 608 120 608 106 608 242 609 121 609 246 609 108 610 248 610 105 610 98 611 323 611 115 611 84 612 115 612 118 612 97 613 92 613 114 613 240 614 123 614 323 614 322 615 107 615 117 615 108 616 109 616 368 616 368 617 109 617 367 617 106 618 120 618 245 618 103 619 112 619 367 619 368 620 248 620 108 620 107 621 122 621 117 621 245 622 122 622 107 622 120 623 244 623 171 623 114 624 127 624 119 624 131 625 127 625 114 625 249 626 113 626 321 626 367 627 112 627 369 627 369 628 112 628 126 628 244 629 119 629 171 629 127 630 129 630 119 630 372 631 110 631 118 631 112 632 110 632 126 632 119 633 129 633 171 633 131 634 371 634 132 634 132 635 371 635 324 635 372 636 126 636 110 636 325 637 122 637 245 637 368 638 369 638 370 638 198 639 124 639 248 639 369 640 126 640 370 640 137 641 116 641 117 641 123 642 116 642 142 642 134 643 118 643 115 643 134 644 372 644 118 644 128 645 130 645 129 645 198 646 259 646 124 646 135 647 123 647 142 647 200 648 323 648 136 648 267 649 329 649 128 649 128 650 329 650 130 650 139 651 144 651 137 651 147 652 143 652 256 652 133 653 132 653 331 653 139 654 256 654 144 654 377 655 267 655 331 655 133 656 267 656 128 656 331 657 267 657 133 657 256 658 143 658 144 658 180 659 147 659 146 659 180 660 150 660 147 660 375 661 153 661 154 661 154 662 152 662 375 662 155 663 150 663 180 663 180 664 151 664 155 664 157 665 156 665 154 665 293 666 294 666 211 666 295 667 159 667 215 667 345 668 161 668 164 668 347 669 349 669 344 669 230 670 68 670 177 670 62 671 64 671 303 671 114 672 113 672 371 672 249 673 324 673 113 673 113 674 324 674 371 674 226 675 257 675 249 675 249 676 257 676 324 676 226 677 168 677 257 677 227 678 168 678 226 678 227 679 230 679 168 679 302 680 230 680 227 680 302 681 352 681 230 681 376 682 36 682 5 682 37 683 36 683 376 683 55 684 37 684 376 684 55 685 376 685 25 685 134 686 200 686 372 686 248 687 370 687 198 687 370 688 326 688 198 688 370 689 327 689 326 689 126 690 327 690 370 690 372 691 199 691 126 691 126 692 199 692 327 692 200 693 199 693 372 693 377 694 329 694 267 694 325 695 256 695 139 695 373 696 256 696 325 696 373 697 255 697 256 697 374 698 255 698 373 698 374 699 328 699 255 699 374 700 329 700 328 700 329 701 149 701 328 701 377 702 149 702 329 702 377 703 375 703 149 703 331 704 375 704 377 704 331 705 330 705 375 705 100 706 238 706 99 706 362 707 318 707 364 707 312 708 316 708 313 708 316 709 317 709 313 709 316 710 101 710 317 710 237 711 100 711 316 711 316 712 100 712 101 712 364 713 100 713 237 713 364 714 238 714 100 714 318 715 238 715 364 715 366 716 238 716 318 716 366 717 239 717 238 717 104 718 239 718 366 718 309 719 73 719 357 719 309 720 79 720 73 720 311 721 79 721 309 721 311 722 240 722 79 722 311 723 187 723 240 723 187 724 88 724 240 724 88 725 320 725 240 725 88 726 322 726 320 726 87 727 322 727 88 727 95 728 322 728 87 728 355 729 170 729 354 729 356 730 170 730 355 730 356 731 70 731 170 731 67 732 70 732 356 732 66 733 359 733 67 733 67 734 359 734 70 734 66 735 314 735 359 735 66 736 361 736 314 736 346 737 297 737 347 737 346 738 298 738 297 738 164 739 298 739 346 739 164 740 300 740 298 740 348 741 300 741 164 741 348 742 306 742 300 742 25 743 378 743 38 743 391 744 378 744 25 744 379 745 378 745 391 745 379 746 380 746 378 746 381 747 380 747 379 747 381 747 382 747 380 747 5 748 8 748 383 748 385 749 384 749 5 749 383 750 385 750 5 750 386 751 382 751 381 751 387 752 385 752 383 752 386 747 381 747 388 747 389 747 386 747 388 747 390 747 385 747 387 747 390 747 388 747 385 747 389 747 388 747 390 747 376 753 5 753 384 753 25 754 376 754 391 754 30 755 393 755 407 755 392 756 393 756 30 756 394 757 393 757 392 757 394 758 395 758 393 758 396 759 395 759 394 759 396 760 397 760 395 760 396 760 398 760 397 760 41 761 32 761 399 761 400 762 32 762 61 762 32 763 401 763 399 763 400 764 401 764 32 764 398 765 402 765 397 765 403 760 401 760 400 760 397 766 402 766 404 766 403 767 405 767 401 767 402 768 406 768 404 768 404 769 406 769 403 769 403 770 406 770 405 770 61 771 30 771 407 771 392 772 30 772 38 772 392 773 38 773 378 773 394 774 392 774 378 774 394 775 378 775 380 775 396 776 394 776 380 776 396 777 380 777 382 777 398 778 396 778 382 778 398 779 382 779 386 779 402 780 398 780 386 780 402 781 386 781 389 781 406 782 402 782 389 782 406 783 389 783 390 783 405 784 406 784 390 784 405 785 390 785 387 785 401 786 405 786 387 786 401 787 387 787 383 787 399 788 401 788 383 788 399 789 8 789 33 789 399 790 383 790 8 790 399 791 33 791 41 791 61 792 407 792 376 792 376 793 407 793 391 793 407 794 393 794 391 794 391 795 393 795 379 795 393 796 395 796 379 796 379 797 395 797 381 797 395 798 397 798 381 798 381 799 397 799 388 799 397 800 404 800 388 800 404 801 403 801 388 801 388 802 403 802 385 802 403 803 400 803 385 803 385 804 400 804 384 804 400 805 61 805 384 805 384 806 61 806 376 806 410 807 411 807 409 807 410 808 409 808 408 808 410 809 412 809 411 809 441 810 412 810 410 810 414 811 441 811 413 811 415 812 412 812 441 812 415 813 441 813 414 813 415 814 416 814 412 814 440 815 416 815 415 815 418 816 416 816 440 816 419 817 440 817 417 817 419 818 418 818 440 818 420 819 418 819 419 819 422 820 418 820 420 820 423 821 420 821 421 821 423 822 422 822 420 822 424 823 422 823 423 823 424 824 423 824 425 824 426 825 424 825 425 825 11 826 426 826 425 826 437 827 423 827 427 827 425 828 423 828 437 828 423 829 421 829 427 829 427 830 421 830 428 830 439 831 420 831 429 831 420 832 419 832 429 832 429 833 417 833 430 833 419 834 417 834 429 834 430 835 417 835 431 835 432 836 414 836 433 836 415 837 414 837 432 837 414 838 413 838 433 838 413 839 441 839 438 839 438 840 441 840 434 840 434 841 410 841 435 841 410 842 408 842 435 842 435 843 408 843 436 843 11 844 425 844 3 844 3 845 425 845 437 845 433 846 413 846 438 846 417 847 440 847 431 847 432 848 431 848 415 848 415 849 431 849 440 849 434 850 441 850 410 850 428 851 421 851 439 851 420 852 439 852 421 852 408 853 409 853 436 853 409 854 442 854 436 854 442 855 435 855 436 855 443 856 435 856 442 856 444 857 435 857 443 857 444 858 434 858 435 858 434 859 433 859 438 859 444 860 432 860 434 860 434 861 432 861 433 861 445 862 432 862 444 862 445 863 431 863 432 863 445 864 446 864 431 864 431 865 429 865 430 865 446 866 429 866 431 866 446 867 447 867 429 867 447 868 439 868 429 868 439 869 427 869 428 869 447 870 427 870 439 870 447 871 448 871 427 871 427 872 448 872 437 872 448 873 3 873 437 873 449 874 446 874 445 874 442 875 409 875 461 875 409 876 462 876 461 876 461 877 462 877 463 877 409 878 464 878 462 878 460 879 464 879 409 879 460 880 465 880 464 880 426 881 12 881 451 881 458 882 465 882 460 882 12 883 466 883 451 883 465 884 468 884 467 884 451 885 466 885 489 885 456 886 488 886 469 886 456 887 469 887 458 887 469 888 470 888 458 888 465 889 470 889 468 889 458 890 470 890 465 890 455 891 488 891 456 891 453 892 472 892 455 892 471 893 472 893 453 893 489 894 466 894 453 894 453 895 466 895 471 895 466 896 474 896 471 896 455 897 472 897 488 897 488 898 472 898 473 898 471 899 474 899 475 899 476 900 461 900 463 900 476 901 442 901 461 901 476 902 459 902 442 902 9 903 4 903 450 903 477 904 459 904 476 904 477 905 457 905 459 905 480 906 477 906 486 906 479 907 450 907 452 907 479 908 9 908 450 908 487 909 454 909 457 909 487 910 457 910 478 910 480 911 478 911 457 911 480 912 457 912 477 912 481 913 452 913 454 913 482 914 481 914 454 914 479 915 452 915 481 915 482 916 454 916 487 916 484 917 487 917 483 917 482 918 487 918 484 918 479 919 481 919 485 919 462 920 464 920 463 920 463 921 464 921 476 921 464 922 465 922 476 922 465 923 477 923 476 923 465 924 467 924 486 924 486 925 468 925 480 925 468 926 470 926 480 926 480 927 469 927 478 927 470 928 469 928 480 928 488 929 473 929 487 929 487 930 473 930 483 930 473 931 472 931 484 931 484 932 472 932 482 932 472 933 471 933 482 933 482 934 471 934 481 934 471 935 475 935 481 935 481 936 475 936 485 936 474 937 466 937 479 937 479 938 466 938 9 938 466 939 12 939 9 939 486 940 467 940 468 940 469 941 488 941 478 941 478 942 488 942 487 942 475 943 474 943 485 943 486 944 477 944 465 944 483 945 473 945 484 945 485 946 474 946 479 946 412 947 456 947 458 947 416 948 455 948 456 948 422 949 489 949 453 949 424 950 489 950 422 950 424 951 451 951 489 951 426 952 451 952 424 952 411 953 460 953 409 953 458 954 460 954 411 954 412 955 458 955 411 955 456 956 412 956 416 956 418 957 455 957 416 957 455 958 418 958 453 958 422 959 453 959 418 959 454 960 452 960 446 960 452 961 448 961 447 961 4 962 3 962 450 962 450 963 3 963 448 963 443 964 459 964 444 964 454 965 449 965 445 965 448 966 452 966 450 966 459 967 443 967 442 967 457 968 444 968 459 968 445 969 444 969 457 969 454 970 445 970 457 970 446 971 449 971 454 971 452 972 447 972 446 972 499 973 500 973 498 973 502 974 501 974 503 974 502 975 7 975 501 975 492 976 493 976 491 976 495 977 496 977 494 977 495 978 498 978 496 978 503 979 501 979 500 979 491 980 490 980 492 980 492 981 494 981 493 981 494 982 496 982 493 982 495 983 497 983 498 983 497 984 499 984 498 984 500 985 499 985 503 985 505 986 504 986 506 986 513 987 511 987 512 987 514 988 515 988 513 988 516 989 515 989 514 989 517 990 515 990 516 990 509 991 507 991 508 991 506 992 507 992 505 992 508 993 510 993 509 993 510 994 511 994 509 994 510 995 512 995 511 995 514 996 513 996 512 996 23 997 10 997 518 997 10 998 519 998 518 998 519 999 538 999 518 999 539 1000 538 1000 520 1000 538 1001 521 1001 520 1001 520 1002 521 1002 522 1002 521 1003 523 1003 522 1003 523 1004 540 1004 522 1004 522 1005 540 1005 525 1005 525 1006 541 1006 526 1006 524 1007 541 1007 525 1007 528 1008 529 1008 527 1008 527 1009 529 1009 530 1009 529 1010 531 1010 530 1010 530 1011 531 1011 532 1011 542 1012 534 1012 532 1012 532 1013 534 1013 533 1013 533 1014 534 1014 535 1014 534 1015 536 1015 535 1015 536 1016 537 1016 535 1016 525 1017 540 1017 524 1017 528 1018 526 1018 541 1018 527 1019 526 1019 528 1019 531 1020 542 1020 532 1020 518 1021 538 1021 539 1021 537 1022 543 1022 504 1022 543 1023 490 1023 504 1023 515 1024 517 1024 23 1024 515 1025 23 1025 518 1025 513 1026 515 1026 518 1026 520 1027 513 1027 518 1027 520 1028 511 1028 513 1028 539 1029 520 1029 518 1029 511 1030 520 1030 522 1030 526 1031 511 1031 522 1031 526 1032 509 1032 511 1032 527 1033 509 1033 526 1033 525 1034 526 1034 522 1034 530 1035 509 1035 527 1035 533 1036 507 1036 509 1036 533 1037 509 1037 530 1037 532 1038 533 1038 530 1038 535 1039 507 1039 533 1039 535 1040 505 1040 507 1040 535 1041 504 1041 505 1041 535 1042 537 1042 504 1042 502 1043 503 1043 10 1043 10 1044 503 1044 519 1044 503 1045 499 1045 519 1045 499 1046 521 1046 519 1046 497 1047 521 1047 499 1047 521 1048 538 1048 519 1048 521 1049 497 1049 523 1049 497 1050 541 1050 523 1050 495 1051 541 1051 497 1051 523 1052 541 1052 540 1052 495 1053 528 1053 541 1053 541 1054 524 1054 540 1054 495 1055 529 1055 528 1055 495 1056 494 1056 529 1056 494 1057 534 1057 529 1057 534 1058 531 1058 529 1058 492 1059 534 1059 494 1059 542 1060 531 1060 534 1060 490 1061 534 1061 492 1061 490 1062 536 1062 534 1062 543 1063 536 1063 490 1063 543 1064 537 1064 536 1064 545 1065 546 1065 544 1065 544 1066 546 1066 547 1066 546 1067 548 1067 547 1067 548 1068 564 1068 563 1068 563 1069 564 1069 549 1069 549 1070 564 1070 550 1070 564 1071 551 1071 550 1071 550 1072 551 1072 552 1072 551 1073 560 1073 552 1073 565 1074 553 1074 554 1074 560 1075 553 1075 565 1075 554 1076 555 1076 556 1076 553 1077 555 1077 554 1077 556 1078 555 1078 566 1078 555 1079 567 1079 566 1079 568 1080 557 1080 558 1080 559 1081 557 1081 568 1081 557 1082 562 1082 558 1082 558 1083 562 1083 561 1083 517 1084 562 1084 7 1084 561 1085 562 1085 517 1085 560 1086 565 1086 552 1086 548 1087 563 1087 547 1087 559 1088 568 1088 567 1088 566 1089 567 1089 568 1089 490 1090 545 1090 504 1090 545 1091 544 1091 504 1091 512 1092 566 1092 514 1092 512 1093 556 1093 566 1093 514 1094 558 1094 516 1094 510 1095 565 1095 512 1095 566 1096 558 1096 514 1096 508 1097 552 1097 510 1097 510 1098 552 1098 565 1098 565 1099 556 1099 512 1099 566 1100 568 1100 558 1100 507 1101 552 1101 508 1101 558 1102 561 1102 516 1102 507 1103 563 1103 552 1103 507 1104 547 1104 563 1104 565 1105 554 1105 556 1105 563 1106 550 1106 552 1106 516 1107 561 1107 517 1107 506 1108 547 1108 507 1108 549 1109 550 1109 563 1109 504 1110 547 1110 506 1110 504 1111 544 1111 547 1111 567 1112 555 1112 500 1112 555 1113 498 1113 500 1113 557 1114 500 1114 501 1114 560 1115 496 1115 498 1115 557 1116 567 1116 500 1116 555 1117 560 1117 498 1117 551 1118 496 1118 560 1118 559 1119 567 1119 557 1119 551 1120 493 1120 496 1120 562 1121 557 1121 501 1121 548 1122 493 1122 551 1122 553 1123 560 1123 555 1123 562 1124 501 1124 7 1124 546 1125 493 1125 548 1125 546 1126 491 1126 493 1126 564 1127 548 1127 551 1127 546 1128 490 1128 491 1128 546 1129 545 1129 490 1129</p>
        </triangles>
      </mesh>
    </geometry>
  </library_geometries>
  <library_visual_scenes>
    <visual_scene id="Scene" name="Scene">
      <node id="node0" name="node0" type="NODE">
        <matrix sid="transform">1 0 0 0 0 1 0 0 0 0 1 0 0 0 0 1</matrix>
        <instance_geometry url="#Part__Feature_015-mesh" name="node0">
          <bind_material>
            <technique_common>
              <instance_material symbol="Part__Feature_015-material" target="#Part__Feature_015-material"/>
            </technique_common>
          </bind_material>
        </instance_geometry>
      </node>
      <node id="Camera" name="Camera" type="NODE">
        <matrix sid="transform">0.6859207 -0.3240135 0.6515582 7.358891 0.7276763 0.3054208 -0.6141704 -6.925791 0 0.8953956 0.4452714 4.958309 0 0 0 1</matrix>
        <instance_camera url="#Camera-camera"/>
      </node>
      <node id="Light" name="Light" type="NODE">
        <matrix sid="transform">-0.2908646 -0.7711008 0.5663932 4.076245 0.9551712 -0.1998834 0.2183912 1.005454 -0.05518906 0.6045247 0.7946723 5.903862 0 0 0 1</matrix>
        <instance_light url="#Light-light"/>
      </node>
    </visual_scene>
  </library_visual_scenes>
  <scene>
    <instance_visual_scene url="#Scene"/>
  </scene>
</COLLADA>