<?xml version="1.0" encoding="utf-8"?>
<COLLADA xmlns="http://www.collada.org/2005/11/COLLADASchema" version="1.4.1" xmlns:xsi="http://www.w3.org/2001/XMLSchema-instance">
  <asset>
    <contributor>
      <author>Blender User</author>
      <authoring_tool>Blender 4.0.2 commit date:2023-12-05, commit time:07:41, hash:9be62e85b727</authoring_tool>
    </contributor>
    <created>2024-01-15T15:24:44</created>
    <modified>2024-01-15T15:24:44</modified>
    <unit name="meter" meter="1"/>
    <up_axis>Z_UP</up_axis>
  </asset>
  <library_cameras>
    <camera id="Camera-camera" name="Camera">
      <optics>
        <technique_common>
          <perspective>
            <xfov sid="xfov">39.59775</xfov>
            <aspect_ratio>1.777778</aspect_ratio>
            <znear sid="znear">0.1</znear>
            <zfar sid="zfar">100</zfar>
          </perspective>
        </technique_common>
      </optics>
      <extra>
        <technique profile="blender">
          <shiftx sid="shiftx" type="float">0</shiftx>
          <shifty sid="shifty" type="float">0</shifty>
          <dof_distance sid="dof_distance" type="float">10</dof_distance>
        </technique>
      </extra>
    </camera>
  </library_cameras>
  <library_lights>
    <light id="Light-light" name="Light">
      <technique_common>
        <point>
          <color sid="color">1000 1000 1000</color>
          <constant_attenuation>1</constant_attenuation>
          <linear_attenuation>0</linear_attenuation>
          <quadratic_attenuation>0</quadratic_attenuation>
        </point>
      </technique_common>
      <extra>
        <technique profile="blender">
          <type sid="type" type="int">0</type>
          <flag sid="flag" type="int">0</flag>
          <mode sid="mode" type="int">1</mode>
          <red sid="red" type="float">1</red>
          <green sid="green" type="float">1</green>
          <blue sid="blue" type="float">1</blue>
          <shadow_r sid="blender_shadow_r" type="float">0</shadow_r>
          <shadow_g sid="blender_shadow_g" type="float">0</shadow_g>
          <shadow_b sid="blender_shadow_b" type="float">0</shadow_b>
          <energy sid="blender_energy" type="float">1000</energy>
          <spotsize sid="spotsize" type="float">75</spotsize>
          <spotblend sid="spotblend" type="float">0.15</spotblend>
          <clipsta sid="clipsta" type="float">0.04999995</clipsta>
          <clipend sid="clipend" type="float">30.002</clipend>
          <bias sid="bias" type="float">1</bias>
          <radius sid="radius" type="float">0.1</radius>
          <area_shape sid="area_shape" type="int">1</area_shape>
          <area_size sid="area_size" type="float">0.1</area_size>
          <area_sizey sid="area_sizey" type="float">0.1</area_sizey>
          <area_sizez sid="area_sizez" type="float">1</area_sizez>
        </technique>
      </extra>
    </light>
  </library_lights>
  <library_effects>
    <effect id="Part__Feature003_005-effect">
      <profile_COMMON>
        <technique sid="common">
          <lambert>
            <emission>
              <color sid="emission">0 0 0 1</color>
            </emission>
            <diffuse>
              <color sid="diffuse">0.8 0.8 0.8 1</color>
            </diffuse>
            <index_of_refraction>
              <float sid="ior">1.45</float>
            </index_of_refraction>
          </lambert>
        </technique>
      </profile_COMMON>
    </effect>
    <effect id="Part__Feature002_006-effect">
      <profile_COMMON>
        <technique sid="common">
          <lambert>
            <emission>
              <color sid="emission">0 0 0 1</color>
            </emission>
            <diffuse>
              <color sid="diffuse">0.8 0.8 0.8 1</color>
            </diffuse>
            <index_of_refraction>
              <float sid="ior">1.45</float>
            </index_of_refraction>
          </lambert>
        </technique>
      </profile_COMMON>
    </effect>
    <effect id="Part__Feature001_008-effect">
      <profile_COMMON>
        <technique sid="common">
          <lambert>
            <emission>
              <color sid="emission">0 0 0 1</color>
            </emission>
            <diffuse>
              <color sid="diffuse">0.8 0.8 0.8 1</color>
            </diffuse>
            <index_of_refraction>
              <float sid="ior">1.45</float>
            </index_of_refraction>
          </lambert>
        </technique>
      </profile_COMMON>
    </effect>
    <effect id="Part__Feature_016-effect">
      <profile_COMMON>
        <technique sid="common">
          <lambert>
            <emission>
              <color sid="emission">0 0 0 1</color>
            </emission>
            <diffuse>
              <color sid="diffuse">0.8 0.8 0.8 1</color>
            </diffuse>
            <index_of_refraction>
              <float sid="ior">1.45</float>
            </index_of_refraction>
          </lambert>
        </technique>
      </profile_COMMON>
    </effect>
  </library_effects>
  <library_images/>
  <library_materials>
    <material id="Part__Feature003_005-material" name="Part__Feature003.005">
      <instance_effect url="#Part__Feature003_005-effect"/>
    </material>
    <material id="Part__Feature002_006-material" name="Part__Feature002.006">
      <instance_effect url="#Part__Feature002_006-effect"/>
    </material>
    <material id="Part__Feature001_008-material" name="Part__Feature001.008">
      <instance_effect url="#Part__Feature001_008-effect"/>
    </material>
    <material id="Part__Feature_016-material" name="Part__Feature.016">
      <instance_effect url="#Part__Feature_016-effect"/>
    </material>
  </library_materials>
  <library_geometries>
    <geometry id="Part__Feature003_005-mesh" name="Part__Feature003.005">
      <mesh>
        <source id="Part__Feature003_005-mesh-positions">
          <float_array id="Part__Feature003_005-mesh-positions-array" count="18">-0.03540587 0.07320135 0.2596128 0.03540587 0.07320135 0.2596128 0.03540581 0.07320135 0.2620322 -0.03540587 0.07320135 0.2620322 -0.03540581 0.07320135 0.2620322 0.03540587 0.07320135 0.2620322</float_array>
          <technique_common>
            <accessor source="#Part__Feature003_005-mesh-positions-array" count="6" stride="3">
              <param name="X" type="float"/>
              <param name="Y" type="float"/>
              <param name="Z" type="float"/>
            </accessor>
          </technique_common>
        </source>
        <source id="Part__Feature003_005-mesh-normals">
          <float_array id="Part__Feature003_005-mesh-normals-array" count="12">0 -1 -3.91103e-7 0 -1 0 0 1 3.91103e-7 0 1 0</float_array>
          <technique_common>
            <accessor source="#Part__Feature003_005-mesh-normals-array" count="4" stride="3">
              <param name="X" type="float"/>
              <param name="Y" type="float"/>
              <param name="Z" type="float"/>
            </accessor>
          </technique_common>
        </source>
        <vertices id="Part__Feature003_005-mesh-vertices">
          <input semantic="POSITION" source="#Part__Feature003_005-mesh-positions"/>
        </vertices>
        <triangles material="Part__Feature003_005-material" count="4">
          <input semantic="VERTEX" source="#Part__Feature003_005-mesh-vertices" offset="0"/>
          <input semantic="NORMAL" source="#Part__Feature003_005-mesh-normals" offset="1"/>
          <p>0 0 1 0 2 0 0 1 2 1 3 1 1 2 0 2 4 2 1 3 4 3 5 3</p>
        </triangles>
      </mesh>
    </geometry>
    <geometry id="Part__Feature002_006-mesh" name="Part__Feature002.006">
      <mesh>
        <source id="Part__Feature002_006-mesh-positions">
          <float_array id="Part__Feature002_006-mesh-positions-array" count="285">-0.02624261 0.02006101 0.2878496 -9.63438e-4 0.01998794 0.2903501 0.0271126 0.02027463 0.2877823 -0.03719007 0.07218229 0.2632596 -0.03670161 0.06787884 0.2663888 -0.04377359 0.0670951 0.2664543 -0.03067588 0.02448207 0.2882603 -0.03730964 0.01536428 0.2922679 -0.02881062 0.02121186 0.2897759 -0.02545762 0.01997238 0.2903596 0.03721117 0.07225513 0.2632384 0.0431742 0.06704139 0.2666737 0.03354424 0.04516589 0.2779235 0.02638465 0.02001434 0.2903148 -0.03546226 0.07325881 0.2621136 0.043078 0.0735929 0.2620183 0.03473258 0.07359892 0.2619466 0.0437206 0.07618379 0.2548388 -0.01044881 0.07326358 0.2621326 0.03544193 0.07325267 0.2621104 0.00918895 0.07320612 0.2620899 0.01758968 0.07327115 0.2621335 0.007383465 0.07328522 0.2621356 -0.02313363 0.07326316 0.262137 -0.001515746 0.07326823 0.2621352 0.02648198 0.07326382 0.2621359 -0.03285527 0.04018551 0.2804345 -0.03554147 0.05955535 0.2707967 0.0365194 0.06661576 0.2671076 0.03560805 0.05994647 0.2706059 0.03401154 0.0486198 0.2761886 0.03160947 0.03131711 0.2848885 0.03034883 0.02287638 0.2889989 0.04787814 0.07354807 0.2547727 0.04427492 0.07550483 0.2585656 0.04547303 0.07296144 0.2611123 0.04202741 0.03163486 0.2821125 0.04204779 0.04427415 0.2773196 0.03847396 0.01947551 0.2903504 0.04667633 0.07194149 0.2607076 -0.03969311 0.01523637 0.2910488 -0.04779678 0.07371437 0.2547665 -0.04414159 0.07512474 0.2596445 -0.04135692 0.0211519 0.28649 -0.03928351 0.03087753 0.2848539 -0.04670161 0.07143217 0.2607254 -0.04377502 0.07153588 0.2636862 -0.04412955 0.0761379 0.2547976 -0.03719294 0.07204401 0.2608531 -0.03556126 0.0728951 0.2595797 -0.03658103 0.06715768 0.2643783 -0.02948582 0.02184039 0.2870365 0.03014111 0.02288866 0.2865237 0.03657943 0.06714844 0.2643845 0.03719341 0.07204306 0.260854 0.03556013 0.07289344 0.2595794 0.04433584 0.072842 0.2552641 0.04057317 0.01380956 0.290019 0.03946375 0.00275743 0.2916355 0.03811341 0.01231151 0.2929571 0.03730791 0.002801835 0.2928192 0.04073768 -0.001352667 0.2889333 0.04812794 -0.07273453 0.2547674 0.04335582 -0.03045618 0.276722 -0.04054063 0.002364397 0.2902028 -0.03830361 4.62757e-4 0.2919815 -0.0382725 0.008512794 0.2931566 -0.04202735 -0.04230463 0.2746231 0.03874093 -0.01105213 0.2876203 -0.04436105 0.07284104 0.2552582 -0.04688799 -0.07232481 0.2605492 -0.04773277 -0.07374829 0.2547618 -0.04343795 0.07296454 0.2456935 0.04450643 0.0724281 0.2451024 0.04341137 0.07295912 0.2457012 0.04461419 -0.07599234 0.2548045 0.04498493 -0.06643939 0.2651255 0.04426252 -0.073076 0.2623418 0.04590189 -0.07376176 0.2601895 0.04330438 -0.04070895 0.2741177 0.04311674 -0.07023113 0.2645224 0.04701739 -0.07116913 0.2603424 0.04371243 -0.07516735 0.2598382 0.04112821 -0.02901196 0.2798928 -0.04421555 -0.07481122 0.2607106 -0.04417836 -0.07610863 0.2548171 -0.04374164 -0.04268139 0.2729208 -0.04455876 -0.06963121 0.2644292 -0.04459947 0.07234054 0.2450835 0.04462659 -0.0725634 0.255373 -0.044505 -0.07267838 0.2554136 0.04344606 -0.07293868 0.2457539 -0.04479438 -0.07204115 0.2451931 0.04486387 -0.07196217 0.2451749 -0.0434162 -0.07294094 0.2457588</float_array>
          <technique_common>
            <accessor source="#Part__Feature002_006-mesh-positions-array" count="95" stride="3">
              <param name="X" type="float"/>
              <param name="Y" type="float"/>
              <param name="Z" type="float"/>
            </accessor>
          </technique_common>
        </source>
        <source id="Part__Feature002_006-mesh-normals">
          <float_array id="Part__Feature002_006-mesh-normals-array" count="624">-9.15874e-4 0.9992594 0.03847163 -0.003855466 0.9948645 0.1011422 -0.005269169 0.5876986 0.8090628 -0.05068784 0.5282945 0.8475469 -0.04141604 0.4484561 0.8928449 -0.04055297 0.4266372 0.9035133 -0.01681089 0.4125449 0.9107822 -0.009827971 0.4040755 0.914673 0.04378998 0.5615414 0.8262892 0.01608729 0.5793156 0.8149446 0.02832293 0.4612988 0.8867927 1.10732e-4 0.3823638 0.9240119 0.05732101 0.4365134 0.89787 0.03523927 0.4406498 0.8969871 0.04330396 0.4417628 0.8960863 0.01514804 0.4002979 0.9162599 0.001193583 0.09257304 0.9957052 0.004571318 0.3522648 0.9358893 -0.02120435 0.447611 0.8939769 -0.03013259 0.7460642 0.665192 -0.0276966 0.7485949 0.6624489 -0.02772694 0.7486119 0.6624284 -0.02774524 0.7486237 0.6624143 -0.02427381 0.72969 0.6833472 -6.0724e-4 0.978841 0.2046222 -0.002038836 0.9837509 0.1795272 -0.007513105 0.4148452 0.909861 0.002319395 0.868304 0.4960271 -0.00239855 0.7937409 0.6082513 -0.003527641 0.8753383 0.4834982 -6.73686e-5 -0.9459995 0.3241683 -6.75289e-5 -0.9459995 0.3241683 -6.75114e-5 -0.9459995 0.3241683 8.19797e-5 -0.9901486 0.1400214 4.29701e-4 -0.5946778 0.803964 4.30994e-4 -0.5946778 0.803964 4.28401e-4 -0.5946778 0.803964 -2.83906e-4 0.5328791 -0.8461915 -2.83849e-4 0.5328791 -0.8461915 -2.8442e-4 0.5328791 -0.8461915 -8.01308e-4 0.5680817 0.8229719 -7.94379e-4 0.5680817 0.8229718 -7.7368e-4 0.5680818 0.8229718 -6.99524e-4 0.9828289 0.1845181 -6.99596e-4 0.9828289 0.1845181 -6.99418e-4 0.9828289 0.1845181 5.78244e-5 -0.5834201 0.8121706 5.56451e-5 -0.5834201 0.8121706 5.63213e-5 -0.5834201 0.8121706 4.59207e-4 0.4845361 0.8747712 -0.002444505 0.4818335 0.8762595 0.0034976 0.4819384 0.8761981 -5.20924e-4 0.4335247 0.9011415 0.004646599 0.4296199 0.9029979 0.006842792 0.4327272 0.901499 3.2378e-4 -0.4021324 0.9155816 3.29709e-4 -0.4021324 0.9155816 3.30769e-4 -0.4021324 0.9155816 -7.47663e-4 -0.6429039 0.7659465 -7.41453e-4 -0.6429039 0.7659465 -7.38454e-4 -0.642904 0.7659465 0.003789901 0.172327 0.9850325 0.002561211 0.1752369 0.9845229 -4.08584e-4 0.1764329 0.9843127 8.73765e-4 -0.4858025 0.8740683 -1.70255e-4 -0.484844 0.8746007 8.53874e-4 -0.4858022 0.8740684 -8.58039e-4 -0.9907931 0.1353827 -8.55349e-4 -0.9907931 0.1353827 -8.60155e-4 -0.9907931 0.1353827 -0.001827061 -0.5093702 0.8605456 7.55733e-4 -0.5094783 0.8604832 2.88576e-5 -0.5103757 0.8599516 -0.9912346 -0.1316037 0.01159811 -0.9912346 -0.1316039 0.01159816 -0.9912347 -0.1316028 0.01159787 -0.9892438 -0.07293736 0.1267951 -0.9916964 -0.126759 0.02169334 -0.8049153 0.3494865 0.4795526 -0.8049145 0.3494948 0.4795477 -0.8049147 0.3494926 0.4795489 -0.7751233 0.366195 0.5148642 -0.7751232 0.3661948 0.5148646 -0.7751234 0.3661952 0.5148638 0.1236552 0.4323308 0.8931963 0.1236552 0.4323311 0.8931961 0.1236553 0.4323309 0.8931962 0.8001481 -0.3549607 -0.4834936 0.6877114 0.6535198 0.3161723 0.691671 0.2159499 0.6891711 0.6925964 0.2547861 0.6748291 0.534806 0.8417455 0.07380449 0.6719851 0.6575897 0.3406051 0.4005764 0.7356466 0.5462259 0.4186865 0.530098 0.7373586 0.588535 0.4202614 0.6906569 0.7216341 0.2636151 0.6401182 0.7806954 0.2204758 0.5847265 0.4887472 0.3495821 0.7993237 0.7232187 0.2298589 0.6512447 -0.0064947 -0.144416 0.9894958 0.003347456 -0.01477926 0.9998853 -0.003832757 0.12917 0.9916151 0.005242466 0.3416894 0.9397983 -0.4426004 0.3401969 0.8296814 -0.5670884 0.3160935 0.7605891 -0.7135422 0.6003942 0.3610878 -0.5442854 0.8214194 0.1703639 -0.5916418 0.575461 0.5646278 -0.6595411 0.397466 0.6379861 -0.8002701 0.2043864 0.5637322 -0.8118848 0.1955756 0.5500849 6.81817e-5 -0.1262382 -0.992 5.36625e-4 -0.1383728 -0.9903801 0.4919237 -0.8692377 0.04936486 0.5709493 -0.8154996 0.09474909 0.9172039 0.2835482 0.2798882 0.9901089 0.1401857 0.005690872 0.9897789 0.142368 0.008321046 0.9922097 0.1236516 0.01517999 0.9929127 0.1185771 -0.007993996 0.3577191 0.9304811 -0.07900696 0.46194 0.882474 0.0886079 0.8848249 0.4516429 -0.1144712 -6.2211e-4 0.9993695 0.03550195 -0.6027344 0.7926455 -0.09178566 -0.638549 0.7674377 0.0574001 -0.9799976 0.1808063 0.08314865 -0.9845535 0.1679552 0.04945218 -0.9889473 0.1473803 0.01619648 -0.9904121 0.1380483 0.005168557 -0.9923714 0.1232644 0.002233684 -0.9925228 0.1220104 -0.003452122 -0.508724 -0.8572027 0.08002138 -0.533924 -0.8402517 0.09435254 -0.1075606 -0.1449799 -0.9835708 0.7620565 0.01817381 0.6472555 0.8904007 -0.02288979 0.4546017 0.4797693 -0.05333387 0.8757722 0.9751039 -0.00529474 0.2216856 0.9789263 1.93856e-4 0.204214 0.929746 0.08323657 0.35867 0.9801478 -7.75808e-4 0.1982668 0.9771474 0.002368509 0.2125496 0.9808191 0.001667976 0.1949132 -0.8072983 0.01438117 0.5899684 -0.4556697 0.177196 0.8723341 -0.6718366 -0.1044479 0.7332983 -0.9230326 0.03559952 0.3830713 0.001315653 -0.9867961 0.1619622 -0.00182259 -0.9766147 0.2149896 0.003246128 -0.7678109 0.6406684 -0.002678334 -0.6090209 0.7931497 -0.004855096 -0.5833726 0.8121902 -0.003385603 -0.3492356 0.9370288 -0.003499329 -0.3495395 0.9369151 0.001417279 -0.3761886 0.9265421 -0.007212102 -0.3960312 0.9182088 4.95361e-4 -0.351296 0.9362643 0.1040171 -0.1447458 -0.9839863 -0.9774625 -7.47588e-4 0.211108 -0.9787571 0.001017689 0.2050213 -0.9834536 0.001053094 0.1811573 -0.9894983 -4.34164e-4 0.1445446 6.14515e-5 0.9999251 0.012241 -1.19547e-5 0.9999167 0.01291263 -0.1703854 -2.555e-4 -0.9853776 -0.1372074 -0.001015543 -0.9905419 0.4229053 0.9056841 -0.02979177 0.5197357 -0.3779471 0.7661794 0.691824 -0.3420381 0.6359164 0.6985601 -0.3377556 0.6308208 0.8339158 -0.1397987 0.5338921 0.3492087 -0.3125616 0.8833791 0.8706026 -0.1106676 0.4793788 0.3929862 -0.7463639 0.5371245 0.5001891 -0.8357467 0.2265799 0.6740572 -0.725425 0.1393039 0.6387993 -0.2308649 0.7339189 0.7719101 -0.1601462 0.6152301 0.874408 -0.3930018 0.2845355 0.4591292 -0.2701014 0.846313 0.7596416 -0.1923324 0.6212512 0.6914577 -0.2348303 0.6831845 0.7554625 -0.1716327 0.6323121 -0.5239663 -0.5193454 0.6750851 -0.6647925 -0.6971053 0.2685058 -0.7107472 -0.2073796 0.6721846 -0.6754551 -0.2218075 0.703251 -0.6589777 -0.2329035 0.7151954 -0.7927755 -0.1611778 0.5878171 -0.6664301 -0.2056049 0.7166574 -0.5463943 -0.8186589 0.1767793 -3.64467e-4 0.171286 -0.9852214 -6.61744e-4 0.1635493 -0.986535 -0.4595484 0.8875436 -0.03288924 0.1416879 9.29189e-5 -0.9899114 0.1983352 -0.001243233 -0.9801335 -0.1604625 0.1619905 -0.9736585 0.999723 0.002486646 0.023409 0.9998586 0.002011537 0.01669996 0.1362227 0.1822994 -0.9737609 2.78569e-5 -0.9996303 0.02719217 0.00130701 -0.9992452 0.0388236 -0.9997264 0.001014113 0.02337515 -0.9995961 0.001371204 0.02838665 0.5568419 -0.8298396 -0.03596407 -0.5354782 -0.8437188 -0.03744077</float_array>
          <technique_common>
            <accessor source="#Part__Feature002_006-mesh-normals-array" count="208" stride="3">
              <param name="X" type="float"/>
              <param name="Y" type="float"/>
              <param name="Z" type="float"/>
            </accessor>
          </technique_common>
        </source>
        <vertices id="Part__Feature002_006-mesh-vertices">
          <input semantic="POSITION" source="#Part__Feature002_006-mesh-positions"/>
        </vertices>
        <triangles material="Part__Feature002_006-material" count="170">
          <input semantic="VERTEX" source="#Part__Feature002_006-mesh-vertices" offset="0"/>
          <input semantic="NORMAL" source="#Part__Feature002_006-mesh-normals" offset="1"/>
          <p>13 0 0 0 1 0 2 1 0 1 13 1 4 2 3 2 46 2 4 3 46 3 5 3 44 4 4 4 5 4 6 5 44 5 7 5 8 6 6 6 7 6 9 7 8 7 7 7 15 8 10 8 28 8 11 9 15 9 28 9 11 10 28 10 29 10 1 11 9 11 7 11 12 12 11 12 29 12 38 13 12 13 32 13 38 14 11 14 12 14 38 15 32 15 13 15 38 16 13 16 1 16 7 17 38 17 1 17 6 18 4 18 44 18 42 19 46 19 3 19 42 20 3 21 14 22 15 23 19 23 10 23 42 24 17 24 47 24 34 25 17 25 42 25 15 26 16 26 19 26 42 27 16 27 34 27 42 28 14 28 16 28 34 29 16 29 15 29 18 30 14 31 19 32 18 33 23 33 14 33 20 34 19 35 21 36 20 37 18 38 19 39 22 40 16 41 14 42 22 43 14 44 23 45 18 46 20 47 24 48 25 49 16 50 22 51 19 52 16 53 25 54 18 55 22 56 23 57 21 58 25 59 22 60 18 61 24 62 22 63 24 64 20 65 22 66 25 67 21 68 19 69 21 70 22 71 20 72 26 73 4 74 6 75 26 76 6 76 27 76 27 77 4 77 26 77 30 78 12 79 29 80 31 81 30 82 32 83 31 84 12 85 30 86 31 87 32 87 12 87 34 88 39 88 33 88 57 89 38 89 59 89 38 90 36 90 37 90 17 91 34 91 33 91 34 92 35 92 39 92 34 93 15 93 35 93 35 94 15 94 11 94 39 95 35 95 11 95 39 96 11 96 37 96 37 97 36 97 39 97 11 98 38 98 37 98 38 99 57 99 36 99 65 100 60 100 66 100 60 101 59 101 66 101 66 102 59 102 7 102 59 103 38 103 7 103 40 104 7 104 44 104 40 105 44 105 5 105 41 106 45 106 42 106 42 107 47 107 41 107 42 108 45 108 46 108 46 109 45 109 5 109 45 110 40 110 5 110 43 111 40 111 45 111 56 112 69 112 17 112 17 113 69 113 47 113 48 114 49 114 3 114 3 115 49 115 14 115 51 116 50 116 6 116 50 117 27 117 6 117 50 118 4 118 27 118 4 119 50 119 3 119 50 120 48 120 3 120 9 121 0 121 8 121 0 122 51 122 8 122 8 123 51 123 6 123 1 124 0 124 9 124 2 125 13 125 32 125 52 126 2 126 32 126 30 127 52 127 32 127 53 128 52 128 30 128 53 129 30 129 29 129 53 130 29 130 28 130 53 131 28 131 10 131 54 132 53 132 10 132 55 133 54 133 10 133 55 134 10 134 19 134 33 135 56 135 17 135 59 136 58 136 57 136 58 137 61 137 57 137 60 138 58 138 59 138 63 139 57 139 61 139 63 140 39 140 57 140 57 141 39 141 36 141 33 142 39 142 63 142 63 143 81 143 33 143 33 144 81 144 62 144 40 145 64 145 66 145 66 146 7 146 40 146 64 147 65 147 66 147 43 148 64 148 40 148 85 149 75 149 82 149 84 150 85 150 82 150 84 151 82 151 77 151 84 152 77 152 80 152 87 153 84 153 80 153 67 154 87 154 80 154 67 155 80 155 83 155 65 156 67 156 83 156 65 157 83 157 68 157 65 158 68 158 60 158 47 159 69 159 41 159 43 160 70 160 64 160 45 161 70 161 43 161 45 162 41 162 70 162 70 163 41 163 71 163 74 164 72 164 56 164 56 165 72 165 69 165 89 166 33 166 62 166 89 167 56 167 33 167 73 168 74 168 56 168 77 169 76 169 80 169 77 170 78 170 76 170 76 171 78 171 81 171 63 172 79 172 81 172 80 173 76 173 83 173 76 174 81 174 79 174 77 175 82 175 78 175 75 176 78 176 82 176 62 177 78 177 75 177 68 178 83 178 61 178 83 179 79 179 63 179 78 180 62 180 81 180 58 181 60 181 68 181 61 182 83 182 63 182 61 183 58 183 68 183 76 184 79 184 83 184 70 185 84 185 87 185 84 186 70 186 71 186 65 187 64 187 86 187 86 188 64 188 70 188 67 189 65 189 86 189 70 190 87 190 86 190 87 191 67 191 86 191 85 192 84 192 71 192 90 193 75 193 85 193 90 194 89 194 75 194 72 195 88 195 69 195 69 196 71 196 41 196 69 197 90 197 71 197 75 198 89 198 62 198 93 199 73 199 89 199 89 200 73 200 56 200 71 201 90 201 85 201 94 202 91 202 90 202 90 203 91 203 89 203 88 204 90 204 69 204 88 205 92 205 90 205 91 206 93 206 89 206 92 207 94 207 90 207</p>
        </triangles>
      </mesh>
    </geometry>
    <geometry id="Part__Feature001_008-mesh" name="Part__Feature001.008">
      <mesh>
        <source id="Part__Feature001_008-mesh-positions">
          <float_array id="Part__Feature001_008-mesh-positions-array" count="207">1.5577e-4 0.07636898 0.2672137 -0.002362608 0.07617342 0.2680078 -0.001574158 0.0598517 0.2707068 -0.01425606 0.07059681 0.2646129 -0.01135987 0.06461745 0.2682507 -0.006154835 0.07557517 0.2668414 0.009613633 0.06281024 0.2692183 0.01459354 0.07290756 0.2626683 0.01348429 0.0692532 0.2656157 0.006394803 0.07555264 0.2667379 -0.03557395 0.07294982 0.2624566 -0.03512859 0.05998492 0.2705689 0.03558582 0.06302249 0.2689969 0.03674352 0.07171213 0.2635576 0.03577589 0.07292991 0.2624741 0.03222811 0.0386492 0.2810817 0.03427022 0.05347031 0.2737341 0.03660553 0.07020193 0.2647461 0.03362679 0.04902988 0.2759454 0.03612214 0.06670594 0.2669548 0.03121197 0.03168201 0.2846485 0.03508239 0.05917793 0.2708982 0.02563744 0.02034306 0.2898994 0.02735865 0.02094006 0.2898542 0.02913951 0.02235174 0.2891703 0.03018623 0.02427631 0.2882885 0.01703995 0.0203734 0.2899766 0.001687705 0.02039617 0.2900116 0.005499303 0.02039933 0.2900032 0.02065867 0.02041381 0.2900138 0.01084965 0.02042663 0.2900202 0.02359557 0.02042216 0.2900278 -0.02547091 0.02007627 0.2889672 -0.007246315 0.02037823 0.2899836 -0.0136978 0.02043336 0.2900243 -0.02263343 0.02041757 0.2900195 -0.002142429 0.02044188 0.2900366 -0.01832854 0.0203883 0.2899957 -0.03022992 0.02447468 0.2881816 -0.02937787 0.02264517 0.2890359 -0.02703911 0.02075839 0.2899194 -0.032561 0.04107391 0.2798708 -0.03108453 0.03061217 0.2851578 -0.03633922 0.06825882 0.2660535 -0.03567147 0.06347119 0.2687439 -0.03447729 0.05494379 0.2730084 -0.03383803 0.05038738 0.2752616 -0.03307664 0.04502177 0.2779425 -0.03677195 0.07172769 0.2635471 -0.01466619 0.07297188 0.2624561 0.01431775 0.07306659 0.2615614 0.03660005 0.07235443 0.262063 0.03547787 0.07295483 0.2615136 0.03571605 0.06324088 0.2678008 0.03649282 0.06880903 0.264609 0.02649241 0.02044844 0.2889031 0.02962344 0.02270311 0.2879138 -0.03009736 0.02373009 0.2874486 -0.02813047 0.02123451 0.2885565 -0.03631871 0.0675587 0.2654868 -0.03563785 0.07287979 0.2615366 -0.03676521 0.07190233 0.2623769 -0.01435726 0.07306104 0.261549 -0.009416937 0.07459443 0.2652426 -0.00675106 0.07542973 0.2656136 -0.00312227 0.07614988 0.2668 0.006355404 0.07553362 0.265793 0.00139594 0.07627242 0.2681919 0.003043651 0.07615572 0.2668071</float_array>
          <technique_common>
            <accessor source="#Part__Feature001_008-mesh-positions-array" count="69" stride="3">
              <param name="X" type="float"/>
              <param name="Y" type="float"/>
              <param name="Z" type="float"/>
            </accessor>
          </technique_common>
        </source>
        <source id="Part__Feature001_008-mesh-normals">
          <float_array id="Part__Feature001_008-mesh-normals-array" count="453">0.03289055 -0.9896927 -0.1393799 0.05251437 -0.1604525 -0.9856456 0.5200929 -0.5232338 -0.6750777 0.169947 -0.152778 -0.9735383 0.4079378 -0.3354592 -0.849149 0.3877843 -0.3344769 -0.858923 0.387798 -0.3344272 -0.8589361 0.3877786 -0.3345637 -0.8588917 0.06520831 0.7857532 -0.6150934 -0.09586757 -0.1337231 -0.9863709 -0.3550461 -0.2846205 -0.8904681 -0.5091617 -0.44139 -0.7388703 -0.2974926 -0.1673753 -0.9399382 -0.1225079 -0.591241 -0.7971361 6.9067e-4 -0.6722061 -0.7403638 0.0128594 -0.6097514 -0.7924885 -0.004930436 -0.4904201 -0.8714723 0.007021784 -0.5172528 -0.8558039 0.003864228 -0.463292 -0.8861973 -0.001301586 -0.4421699 -0.8969305 0.005880653 -0.4485473 -0.8937398 0.001305103 -0.4227225 -0.9062584 0.001327991 -0.4227411 -0.9062495 0.001307249 -0.4227244 -0.9062573 -0.03805238 -0.4499095 -0.8922632 0.09028124 -0.6210104 -0.7785855 -0.006358563 -0.6410976 -0.7674331 -0.003562152 -0.627143 -0.7788962 -0.009942352 -0.5331192 -0.8459818 -0.003472328 -0.4864551 -0.8736987 -0.002775609 -0.4845533 -0.8747574 0.001093745 -0.4403775 -0.8978121 -0.001409769 -0.4429146 -0.8965628 -0.0327208 -0.4016068 -0.9152275 -0.03270959 -0.4015877 -0.9152363 -0.03273338 -0.401627 -0.9152183 0.001597046 -0.4259393 -0.9047504 0.003689408 -0.440405 -0.8977918 -0.00169593 -0.4442784 -0.8958872 -0.003997027 -0.4452575 -0.8953937 0.8638914 0.1223358 0.4885956 -0.2198293 -0.4091755 -0.8855793 0.9922477 -0.1038903 0.06820154 -0.8287279 -0.1545073 -0.5379011 -0.8287277 -0.154506 -0.5379018 -0.828728 -0.1545078 -0.5379009 -0.8476683 0.3263356 0.4182866 -0.2012347 -0.4129239 -0.888256 -0.3691227 -0.3706232 -0.8522834 -0.9402423 -0.03621512 -0.338575 -0.2766349 -0.3960315 -0.8755755 -0.05882424 0.09427523 -0.9938068 7.57931e-4 0.9564499 -0.2918959 -5.10627e-4 0.5980836 -0.8014336 -0.002213835 0.04210537 -0.9991108 -0.001862704 -0.2629906 -0.9647967 -0.001521408 -0.2633074 -0.9647108 -0.001191675 -0.2629796 -0.9648007 -6.10181e-4 0.4400875 -0.8979548 -6.10883e-4 0.4400875 -0.8979548 -6.10395e-4 0.4400875 -0.8979548 -9.6321e-4 0.7818 -0.6235285 -0.00307244 0.7817911 -0.6235329 -0.002015411 0.781139 -0.6243541 5.00508e-4 -0.3211807 -0.9470179 4.81678e-4 -0.3211821 -0.9470174 9.31199e-4 -0.3207178 -0.9471743 6.42533e-4 0.7939405 -0.6079953 -4.12316e-4 0.7945778 -0.6071623 6.38282e-4 0.7939405 -0.6079953 3.68252e-4 0.6600843 -0.7511916 0.00152111 0.6592177 -0.7519507 3.72607e-4 0.6600843 -0.7511915 0.002399206 0.5515773 -0.8341203 -0.001960635 0.8371897 -0.5469093 -0.001098096 0.9637913 -0.2666556 -3.91779e-4 0.5643361 -0.8255451 5.43767e-4 0.9558776 -0.2937648 0.001214504 -0.2620912 -0.9650424 0.001210689 -0.2620912 -0.9650424 0.001209616 -0.2620912 -0.9650424 0.001341819 -0.269713 -0.9629398 6.71024e-4 -0.2696945 -0.9629458 9.96519e-4 -0.2700234 -0.9628533 5.2582e-4 0.5772238 -0.8165858 -0.001679241 0.5772112 -0.8165933 -5.75176e-4 0.5763215 -0.8172228 0.004681348 0.9474358 -0.3199117 3.63122e-4 0.6214986 -0.7834153 3.6483e-4 0.6214986 -0.7834153 -7.80204e-4 0.6223949 -0.7827031 0.001428127 0.570092 -0.8215797 0.07796937 0.8670879 -0.4920158 0.07800567 0.8671059 -0.4919782 0.0780583 0.8671228 -0.49194 0.9870001 0.06505674 -0.1469642 0.942555 -0.03433489 -0.332282 0.819791 -0.1601326 -0.5498184 0.8100346 -0.1661283 -0.562357 0.8100346 -0.1661285 -0.5623569 0.8100347 -0.1661283 -0.562357 0.6667022 -0.2530103 -0.7010663 0.6667022 -0.2530101 -0.7010664 0.6667025 -0.2530123 -0.7010654 -0.1097049 -0.4527231 -0.8848766 -0.9734414 -0.1948634 -0.1201671 0.8400085 -0.1455234 -0.5226938 0.6819849 -0.2471105 -0.6883554 -2.58713e-4 -0.9898422 -0.1421703 -0.00533533 -0.9996911 -0.02427554 -0.6354356 -0.7296683 -0.2525981 -0.5192713 -0.8431933 0.1392209 -0.9268218 0.2691901 0.2617981 -0.9922026 0.109843 -0.05889582 -0.9921405 0.08410596 -0.09264731 -0.9914229 0.0940442 -0.09075522 -0.9927186 0.09993976 -0.06724441 -0.9930611 0.08803158 -0.07797503 -0.9511141 0.2399514 0.1944361 -0.9953088 0.07446515 0.06176942 -0.3264867 0.9275 -0.1820726 -0.5634596 0.821379 0.08859997 -0.6265497 0.7790268 -0.02351194 -0.8947544 0.3770746 -0.2392269 -0.007256925 0.9932754 -0.1155478 0.00270754 0.9942064 0.107454 0.9211478 0.3437338 -0.182576 0.7613961 0.6415249 0.09339165 0.664924 0.6873303 -0.2923236 0.3992023 0.9168627 6.51042e-4 0.9926428 0.1187974 0.02340197 0.9949201 0.07932567 -0.06198012 0.9924103 0.09362024 -0.07973182 0.9922976 0.1058085 -0.06442135 0.9881721 0.1512935 0.02502387 0.9899659 0.1412988 0.001545846 0.715674 -0.6984258 0.003504276 0.6006215 -0.7912694 -0.1146587 0.008533835 -0.9954483 -0.09492063 0.001054763 -0.9971171 0.07587158 0.2925541 -0.9562321 0.005692481 0.2995746 -0.9540618 -0.004615008 0.3031997 -0.9523053 -0.03441733 0.1864756 -0.9821214 0.02577865 0.1840477 -0.9781509 -0.09668225 0.0697506 -0.9972658 -0.02441185 -0.3303877 -0.9423497 -0.05311548 -0.2807368 -0.959283 0.03103321 -0.1782092 -0.9753938 -0.1298017 -0.1764886 -0.9839283 0.02714371 -0.07426524 -0.9972293 -0.004314959</float_array>
          <technique_common>
            <accessor source="#Part__Feature001_008-mesh-normals-array" count="151" stride="3">
              <param name="X" type="float"/>
              <param name="Y" type="float"/>
              <param name="Z" type="float"/>
            </accessor>
          </technique_common>
        </source>
        <vertices id="Part__Feature001_008-mesh-vertices">
          <input semantic="POSITION" source="#Part__Feature001_008-mesh-positions"/>
        </vertices>
        <triangles material="Part__Feature001_008-material" count="117">
          <input semantic="VERTEX" source="#Part__Feature001_008-mesh-vertices" offset="0"/>
          <input semantic="NORMAL" source="#Part__Feature001_008-mesh-normals" offset="1"/>
          <p>0 0 67 0 1 0 1 1 67 1 2 1 3 2 49 2 63 2 2 3 4 3 1 3 4 4 63 4 1 4 3 5 63 6 4 7 63 8 5 8 1 8 6 9 2 9 67 9 8 10 6 10 67 10 8 11 9 11 7 11 9 12 8 12 67 12 10 13 43 13 48 13 49 14 3 14 10 14 10 15 3 15 43 15 43 16 3 16 44 16 3 17 4 17 44 17 44 18 4 18 11 18 11 19 4 19 47 19 4 20 2 20 47 20 38 21 40 22 39 23 47 24 40 24 38 24 13 25 17 25 14 25 14 26 17 26 7 26 7 27 17 27 8 27 17 28 19 28 8 28 8 29 12 29 6 29 19 30 12 30 8 30 2 31 36 31 47 31 47 32 36 32 40 32 25 33 24 34 23 35 36 36 25 36 23 36 2 37 25 37 36 37 6 38 25 38 2 38 12 39 25 39 6 39 25 40 15 40 21 40 15 41 16 41 21 41 25 42 18 42 20 42 20 43 18 44 15 45 12 46 18 46 25 46 12 47 21 47 18 47 18 48 21 48 16 48 25 49 20 49 15 49 18 50 16 50 15 50 31 51 23 51 22 51 27 52 26 52 22 52 30 53 26 53 28 53 28 54 26 54 27 54 23 55 30 56 36 57 36 58 30 59 27 60 27 61 30 62 28 63 23 64 31 65 30 66 30 67 31 68 29 69 26 70 30 71 29 72 29 73 31 73 26 73 26 74 31 74 22 74 32 75 33 75 27 75 34 76 33 76 37 76 37 77 33 77 32 77 36 78 34 79 40 80 40 81 34 82 35 83 35 84 34 85 37 86 32 87 35 87 37 87 33 88 34 89 36 90 33 91 36 91 27 91 32 92 40 93 35 94 41 95 42 95 38 95 44 96 45 96 41 96 11 97 45 97 44 97 47 98 46 99 11 100 11 101 46 102 45 103 45 104 46 104 41 104 38 105 42 105 47 105 47 106 42 106 41 106 46 107 47 107 41 107 50 108 14 108 7 108 50 109 52 109 14 109 51 110 13 110 14 110 52 111 51 111 14 111 53 112 56 112 25 112 21 113 53 113 25 113 12 114 53 114 21 114 19 115 53 115 12 115 54 116 53 116 19 116 54 117 19 117 17 117 51 118 17 118 13 118 51 119 54 119 17 119 55 120 22 120 23 120 56 121 55 121 23 121 56 122 23 122 24 122 56 123 24 123 25 123 55 124 32 124 27 124 55 125 27 125 22 125 57 126 38 126 39 126 58 127 57 127 39 127 58 128 39 128 40 128 32 129 58 129 40 129 59 130 61 130 48 130 59 131 48 131 43 131 44 132 59 132 43 132 41 133 59 133 44 133 57 134 41 134 38 134 57 135 59 135 41 135 60 136 10 136 48 136 61 137 60 137 48 137 60 138 62 138 49 138 60 139 49 139 10 139 62 140 63 140 49 140 62 141 64 141 63 141 64 142 5 142 63 142 65 143 5 143 64 143 65 144 1 144 5 144 0 145 1 145 65 145 7 146 9 146 50 146 9 147 66 147 50 147 67 148 68 148 9 148 9 149 68 149 66 149 67 150 0 150 68 150</p>
        </triangles>
      </mesh>
    </geometry>
    <geometry id="Part__Feature_016-mesh" name="Part__Feature.016">
      <mesh>
        <source id="Part__Feature_016-mesh-positions">
          <float_array id="Part__Feature_016-mesh-positions-array" count="408">0.04807311 0.07240444 0.2539642 0.05227357 0.06832218 0.2322022 0.04118931 0.08004236 0.1168357 0.04002052 -0.0813139 0.1045506 0.03917402 0.0816859 0.08484435 0.03902822 -0.08228075 0.08092558 0.04093492 -0.07989341 0.04598987 0.04649776 -0.07370281 0.009717941 0.04822295 -0.0707165 0.002370953 0.04667079 0.07208549 -5.64701e-4 0.04653137 -0.07243674 -5.00495e-4 0.04441076 -0.0727753 -0.00171554 0.04419684 0.0747199 3.68408e-5 0.04419761 0.07161974 -0.001964569 0.04639405 0.07414287 0.001451432 0.04811334 0.07141172 0.00287342 0.04413467 -0.07599383 0.2539247 0.04785037 -0.07272052 0.2401365 0.05051666 -0.0701583 0.210983 0.03974127 -0.08084905 0.06347632 0.04405313 -0.07666707 0.02203023 0.04432648 -0.07513129 0.001291334 0.05119228 -0.07001489 0.224397 0.05274271 -0.06792211 0.2263968 0.04868048 -0.07200706 0.1851052 0.05072247 -0.0699281 0.1767978 0.05296194 -0.06781327 0.1986723 0.04779857 -0.07336044 0.1727208 0.03796625 -0.08268439 0.11921 0.04205203 -0.07908374 0.140567 0.03677058 -0.08450108 0.0945605 0.03597956 -0.08476865 0.07128924 0.04036754 -0.08007967 0.02634441 0.04731494 -0.07386475 0.2540151 0.0484035 -0.07160556 0.253978 0.05318564 -0.06796205 0.2106658 0.0465216 -0.0748344 0.1608644 0.0405668 -0.08107918 0.1198648 0.03805088 -0.08358633 0.07162451 0.03859376 -0.0826897 0.04764145 0.04724651 -0.07336097 0.00225085 0.04480683 -0.07649368 0.1446953 0.04299193 -0.07768183 0.1298483 0.04546296 -0.0751909 0.005090773 -0.04380565 -0.07221269 -0.001916229 -0.04409819 0.07514923 0.001229405 0.04550421 0.07555401 0.2539571 0.05337822 0.06742513 0.2091489 0.05086457 0.07022869 0.2012631 0.03899198 0.08138996 0.1291997 0.04695326 0.07374376 0.1727918 0.0452817 0.07603275 0.1559224 0.03825986 0.08331602 0.07521277 0.04002684 0.08074486 0.05676901 0.05044674 0.07078903 0.2349587 0.05013638 0.07029318 0.212334 0.05212807 0.06872582 0.1887312 0.03622579 0.08481824 0.07524323 0.04859638 0.07183372 0.2335596 0.05029779 0.07096904 0.1874737 0.04941976 0.07179605 0.1715058 0.04436206 0.07639175 0.1394016 0.04305422 0.0785799 0.1399018 0.03962171 0.08190953 0.1188508 0.0370447 0.08417999 0.1009065 0.03804051 0.08321583 0.05181908 0.04117947 0.07999277 0.04021155 0.03929841 0.08143472 0.03604197 0.04518616 0.07527041 0.01556295 0.04196941 0.07891052 0.02122938 0.04408657 0.07654076 0.009969174 0.03960311 0.08202546 0.1053513 -0.0482214 0.07066547 0.002607345 -0.04789149 -0.07217067 0.002934336 -0.04757058 -0.07134425 6.21301e-4 -0.04647928 0.07173991 -8.20591e-4 -0.04602748 -0.07229191 -9.86175e-4 -0.04428154 -0.07493776 5.91043e-4 -0.04887717 -0.07135987 0.2301147 -0.05001956 -0.07040929 0.2082623 -0.04057365 -0.080145 0.1363631 -0.04736566 0.07286369 0.2403292 -0.04455715 0.07590836 0.2539231 -0.04040837 0.08041346 0.134416 -0.04710197 0.0734201 0.1750913 -0.04460787 0.07284766 -0.001586258 -0.05103856 0.06978678 0.1800559 -0.04311728 0.07781988 0.1313726 -0.04038631 0.08097738 0.1097368 -0.04006874 -0.08117753 0.105148 -0.03942352 0.08150786 0.09151548 -0.03927642 0.08154481 0.07316088 -0.04108911 0.07950693 0.04525798 -0.04388779 0.07653063 0.02412617 -0.05095779 -0.07035881 0.2313111 -0.04795885 -0.07287579 0.2539893 -0.04493051 -0.07573664 0.2539372 -0.05233407 -0.06794911 0.2321776 -0.05233532 -0.06902199 0.2076892 -0.05348652 -0.06726551 0.2081901 -0.05114817 -0.07012939 0.1973227 -0.05175429 -0.06914579 0.1861032 -0.04975551 -0.07133054 0.1725941 -0.04652947 -0.07484471 0.1620069 -0.04044401 -0.08120912 0.1175114 -0.03910076 -0.08231711 0.08904516 -0.0365495 -0.08447474 0.06668955 -0.03902256 -0.08229231 0.0737034 -0.03851628 -0.08258116 0.04607027 -0.04088795 -0.07971984 0.02473312 -0.04636919 -0.07424902 0.001683235 -0.0487045 -0.07212913 0.1831265 -0.04155522 -0.07990539 0.1330344 -0.04303723 -0.07810062 0.1320513 -0.03730595 -0.08394128 0.1043183 -0.03652453 -0.08474433 0.0846104 -0.04005992 -0.08114397 0.05375713 -0.04340928 -0.07730716 0.02592694 -0.04808074 0.07265859 0.2539951 -0.04957747 0.07167261 0.1794998 -0.04589784 0.07471996 0.0109471 -0.04981982 0.07144331 0.2386137 -0.0358867 0.08491718 0.08735823 -0.04374927 0.07696479 0.01226145 -0.05161064 0.06935781 0.2358064 -0.05352532 0.06720238 0.2074446 -0.05112349 0.07003188 0.2045207 -0.05035287 0.07031667 0.2166398 -0.03777664 0.08356624 0.1079521 -0.03668969 0.08428966 0.06241822 -0.03988552 0.08151322 0.04610848 -0.03933155 0.08105754 0.03186935 -0.04713338 0.07400321 0.1577511 -0.04471188 0.07658416 0.153295 -0.03832161 0.08334636 0.0761078 -0.04680001 0.0738992 0.001755237</float_array>
          <technique_common>
            <accessor source="#Part__Feature_016-mesh-positions-array" count="136" stride="3">
              <param name="X" type="float"/>
              <param name="Y" type="float"/>
              <param name="Z" type="float"/>
            </accessor>
          </technique_common>
        </source>
        <source id="Part__Feature_016-mesh-normals">
          <float_array id="Part__Feature_016-mesh-normals-array" count="783">0.9819534 0.002271056 0.1891094 0.98791 -0.003202259 0.1549959 0.9996016 0.00224328 0.02813857 0.998852 -8.83929e-4 0.04789668 0.9998244 -0.001631081 -0.01866775 0.9948124 -0.001330077 -0.1017182 0.9981359 0.001654088 -0.06100922 0.987949 0.00330317 -0.1547446 0.986678 0.001312792 -0.1626798 0.987884 0.003287076 -0.1551599 0.9931427 0.00170648 -0.1168967 0.9902562 -1.71361e-4 -0.139258 0.9980111 -0.002432703 -0.062994 0.9991189 1.14752e-4 -0.04197013 0.999536 -0.001615643 0.03041559 0.9991664 -7.13617e-5 0.04082238 0.9976739 0.001066029 0.06815969 0.9922036 -0.002751886 0.1245971 0.9916684 -0.001912355 0.1288036 0.9808076 9.85338e-4 0.1949763 0.9735239 -5.70074e-5 0.2285851 0.9743947 -2.43072e-4 0.2248444 0.4927115 -7.73582e-4 -0.8701925 0.4972544 -8.65068e-4 -0.8676044 0.8618853 -0.001056492 -0.5071022 0.9222667 0.002078056 -0.3865486 0.8884158 -0.31278 -0.3359852 0.349785 0.5081877 -0.7870171 0.870931 0.3986798 -0.2872865 0.00226432 -0.001721501 -0.999996 -0.004229307 0.002251565 -0.9999886 0.4292995 -0.7167344 -0.5495396 0.5522561 -0.8144571 -0.1779688 0.5676945 -0.7244995 -0.3909265 0.8926039 -0.4448081 -0.07351297 0.4990576 -0.8645617 0.05894517 -0.5806982 -0.777279 0.2421303 0.4570544 -0.8877021 -0.05555367 0.8982477 -0.4314464 0.08369761 0.7922466 -0.6097346 0.02385407 0.6335521 -0.7733387 -0.02364313 0.7930729 -0.608717 -0.02234196 0.4215009 -0.9042143 0.06880068 0.7722995 -0.6349652 -0.01930689 0.7005236 -0.7136293 -2.19287e-4 0.4981963 -0.8668068 -0.02112847 0.8956595 -0.4432057 0.03691685 0.7647635 -0.6442756 -0.006775557 0.7708954 -0.636795 0.01458048 0.6546022 -0.7550173 -0.03801077 0.7996359 -0.6003165 0.01423877 0.7919852 -0.6100534 0.02438277 0.5706342 -0.8209617 -0.01996451 0.6360815 -0.7715573 0.009987294 0.7621757 -0.6473682 -0.001609683 0.6026329 -0.7972849 0.03421235 0.665313 -0.7461727 0.02418971 0.9045312 -0.4193966 -0.07700526 0.5164139 -0.8551362 0.04537433 0.8429362 -0.5375706 -0.02182698 0.5179563 -0.854569 0.0378589 0.7235782 -0.6900744 -0.0152325 0.7459391 -0.6658434 0.01508265 0.4965598 -0.8679752 -0.006900072 0.836036 -0.5485674 -0.01084774 0.6741741 -0.7385264 -0.008247435 0.3667284 -0.9220059 -0.1241596 0.9341026 -0.3484426 0.07771867 0.5566121 -0.8294471 -0.04690939 0.7930558 -0.6087647 -0.02163791 0.6829819 -0.730431 0.002521157 0.7493337 -0.660669 0.04489582 0.003155052 -0.7871955 -0.6166955 -0.002641618 -0.6768368 -0.7361284 0.5309996 0.6284469 -0.5684136 0.003920197 0.5423828 -0.8401225 -0.004774332 0.7746647 -0.6323543 0.427952 0.9002758 0.07975369 0.1491666 0.9728959 -0.1766998 0.7741622 0.6315246 0.04300904 0.5317637 0.8437173 -0.07327044 0.8317062 0.5522893 0.0569328 0.5062242 0.8620148 -0.02583527 0.8121136 0.583274 0.01621842 0.7470545 0.6647604 -0.001791656 0.7497796 0.6616771 -0.003756105 0.5866768 0.8095899 0.01935362 0.4332301 0.8984457 0.071464 0.768212 0.6401802 0.004440963 0.6382985 0.7697676 0.005733728 0.9287484 0.3698287 -0.02555668 0.639659 0.7686462 0.004405498 0.5940849 0.8044016 0.00104779 0.5939622 0.8044425 -0.009015321 0.7890728 0.6142178 -0.01002961 0.8433603 0.5362496 0.03435146 0.6328328 0.7740839 -0.01779991 0.7437604 0.6684079 -0.007159054 0.7742263 0.6329054 0.002160012 0.7775724 0.6287108 -0.0101968 0.3938867 0.914677 0.09066057 0.7552419 0.6551554 -0.01952296 0.3489311 0.934667 0.06815314 0.8498685 0.5263284 -0.02649664 0.8506732 0.5256307 0.008221566 0.7562474 0.6538833 0.02294391 0.6534536 0.7562349 -0.03327471 0.7510949 0.6601903 0.002285897 -0.1982964 0.9799627 -0.01875525 0.6217655 0.7831776 0.006371021 0.6326509 0.7732843 0.0422396 0.8541272 0.5187977 -0.03627216 0.8541405 0.5187833 -0.03616583 0.8391961 0.5430851 0.02843773 0.3486797 0.9225579 -0.1652556 0.7362307 0.6766715 0.008949756 0.7657588 0.6424888 -0.0286653 -0.9903829 -0.002604186 -0.1383298 -0.891761 0.002241492 -0.4525015 -0.7218307 -0.001468598 -0.6920681 -0.386151 -3.68101e-5 -0.9224357 -0.378603 -1.23572e-4 -0.9255591 -0.2833651 -0.6220732 -0.7298831 -0.5069522 -0.6629336 -0.5509251 -0.002841472 -0.9727827 -0.2317023 0.004971206 -0.9833795 -0.1814943 -0.004895091 -0.996109 -0.08799421 0.003675639 -0.9990401 -0.0436511 -1.97421e-4 -0.9974569 0.07127374 6.42738e-4 -0.9976649 0.06829702 0.002131998 -0.9973003 0.07339978 -0.002199351 -0.999172 0.04062652 0.001765787 -0.9999331 0.01143532 -0.003097891 -0.9998822 -0.01503717 0.001506805 -0.9961714 -0.08740854 4.62185e-4 -0.9958054 -0.09149599 0.001079201 -0.992584 -0.1215558 -0.001757562 -0.9911522 -0.1327192 -5.00587e-4 -0.9810313 -0.1938486 -6.0706e-4 -0.9809575 -0.194222 -0.002189159 -0.9856858 0.1685789 0.002913713 -0.9871959 0.1594866 -0.006560206 -0.9931122 0.1169837 0.00392127 0.9756436 -0.2193264 -0.002121448 0.9837118 -0.1797409 -0.002877533 0.9973574 -0.07259505 0.003102481 0.9942234 -0.1072869 -7.71101e-4 0.9997248 -0.02344661 -0.002120375 0.99998 -0.005969941 -0.002038896 0.9978656 0.06527024 0.005518972 0.9996801 0.0246852 -0.002838492 0.9996819 -0.02506214 0.004707932 0.997682 -0.06788498 0.001181781 0.9936977 -0.1120874 -6.25306e-4 0.9944551 -0.1051601 0.004147052 0.985904 -0.1672604 0.002152979 0.981046 -0.193763 0.001128613 0.9818777 -0.1895126 0.02335864 0.9925794 0.1193344 0.002783358 0.9891467 0.146905 -0.8951805 0.4399023 -0.07167881 0.001070916 0.9951798 0.09806233 -7.54798e-4 0.9849391 0.1729003 -0.00446999 0.9930201 0.1178616 -0.4400201 0.7326553 -0.5192289 -0.7574996 -0.476469 -0.4462866 -0.847015 -0.4523795 -0.2791388 -0.5790832 0.5878406 -0.5648948 -0.8859467 0.2951601 -0.3577415 -0.9804706 -3.15874e-5 0.1966658 -0.9816554 -8.29605e-4 0.1906619 -0.9988479 -2.19625e-5 0.04798817 -0.9977408 0.003483772 0.0670917 -0.9969432 -7.20641e-4 -0.0781269 -0.995913 0.001199781 -0.09031075 -0.9892591 -0.001265764 -0.1461672 -0.9870073 -4.78182e-4 -0.1606752 -0.986579 -0.001217246 -0.1632807 -0.9921078 -0.001055061 -0.1253832 -0.9939526 0.001160919 -0.1098038 -0.9986062 -4.61889e-4 -0.0527786 -0.998202 -0.00106281 -0.05993127 -0.9999859 -0.001566112 -0.005096554 -0.9999663 -0.001849114 -0.00801599 -0.9986537 -0.001375436 0.05185663 -0.9978781 -0.00295186 0.06504243 -0.9928364 -3.95311e-5 0.1194819 -0.9913141 -0.001544356 0.1315068 -0.9815576 -8.15745e-4 0.1911656 -0.9802213 -0.001810967 0.1978963 -0.4705943 -0.8783977 -0.08341807 -0.686589 -0.7269755 0.01010888 -0.444937 -0.8952207 -0.02471727 -0.8637958 -0.5031096 0.02716231 -0.833953 -0.5515607 0.01741635 -0.5194181 -0.8539305 0.03174316 -0.7556378 -0.6547799 -0.01658278 -0.8580179 -0.5104686 0.05680787 -0.5119473 -0.8589515 -0.01060318 -0.5171216 -0.8553333 0.03146982 -0.8387455 -0.5441761 -0.01945406 -0.7105974 -0.7032141 -0.02326351 -0.6920226 -0.7217336 0.01432865 -0.5163416 -0.8545038 0.05669736 -0.7645338 -0.6443006 -0.01909977 -0.7673502 -0.6409228 -0.01979511 -0.7723014 -0.6352533 -0.001930296 -0.4318282 -0.8997838 0.06256002 -0.8250606 -0.5644232 -0.02648395 -0.710534 -0.7032749 -0.02336305 -0.6833189 -0.7301152 0.002657353 -0.6900014 -0.7237929 -0.004685461 -0.6776236 -0.7353394 -0.01011651 -0.6735669 -0.7390881 -0.007519662 -0.6853935 -0.7281714 -0.001497328 -0.7110595 -0.7030404 -0.01135003 -0.6959071 -0.7178826 -0.0189166 -0.3712989 -0.9193794 -0.1299185 -0.8001564 -0.5993847 0.02208489 -0.4660962 -0.8816363 0.07397264 -0.5948504 -0.8034508 0.02489835 -0.7060564 -0.7081142 0.007668673 -0.6929207 -0.7209859 -0.006346285 -0.7098279 -0.7041593 0.01743823 -0.5518756 0.8336728 0.02056735 -0.9360534 0.338433 0.09626728 -0.2197132 0.9637055 -0.151651 -0.7838525 0.619679 0.03966498 -0.6776439 0.7351567 0.0185315 -0.7479217 0.6635971 -0.01588159 -0.4831941 0.8748861 -0.03313589 -0.494565 0.8690708 0.01102429 -0.76129 0.6484082 0.002116739 -0.792468 0.6097431 -0.01441645 -0.8869517 0.4566852 -0.06895941 -0.858087 0.5124083 -0.03353327 -0.6210896 0.7835475 0.01734954 -0.6987588 0.7151847 0.01571834 -0.9782047 0.2025316 -0.04578959 -0.5542397 0.8323488 0.003736972 -0.7018164 0.7123226 0.007090508 -0.8794042 0.4760372 -0.006088495 -0.6043904 0.7965034 -0.01716482 -0.8963549 0.4429007 0.01966369 -0.5553454 0.8302236 -0.04816985 -0.805332 0.5926968 0.01228499 -0.4399003 0.8914352 -0.1087716 -0.7649179 0.6441082 -0.005026578 -0.4846052 0.8716486 0.0733934 -0.4366961 0.8958496 0.0821585 -0.5277317 0.8493998 -0.004381477 -0.8608619 0.5084918 0.01878809 -0.5066965 0.8608283 -0.04725754 -0.8648209 0.5001406 0.04409378 -0.7271755 0.6862505 0.01662099 -0.7252284 0.6884399 0.009709537 -0.7936859 0.6078521 -0.02405577 -0.7384109 0.6742658 -0.01072663 -0.437323 0.8894819 -0.1325547 -0.7431061 0.6689741 -0.01634365 -0.9090605 0.4133673 0.05231225</float_array>
          <technique_common>
            <accessor source="#Part__Feature_016-mesh-normals-array" count="261" stride="3">
              <param name="X" type="float"/>
              <param name="Y" type="float"/>
              <param name="Z" type="float"/>
            </accessor>
          </technique_common>
        </source>
        <vertices id="Part__Feature_016-mesh-vertices">
          <input semantic="POSITION" source="#Part__Feature_016-mesh-positions"/>
        </vertices>
        <triangles material="Part__Feature_016-material" count="261">
          <input semantic="VERTEX" source="#Part__Feature_016-mesh-vertices" offset="0"/>
          <input semantic="NORMAL" source="#Part__Feature_016-mesh-normals" offset="1"/>
          <p>1 0 0 0 34 0 1 1 34 1 23 1 1 2 23 2 35 2 47 3 1 3 35 3 47 4 35 4 26 4 56 5 26 5 25 5 56 6 47 6 26 6 60 7 56 7 25 7 61 8 25 8 42 8 61 9 60 9 25 9 2 10 42 10 3 10 2 11 61 11 42 11 4 12 2 12 3 12 4 13 3 13 5 13 53 14 4 14 5 14 53 15 5 15 19 15 53 16 19 16 6 16 68 17 53 17 6 17 68 18 6 18 20 18 68 19 20 19 7 19 15 20 7 20 8 20 15 21 68 21 7 21 9 22 11 22 13 22 9 23 10 23 11 23 9 24 8 24 10 24 15 25 8 25 9 25 8 26 40 26 10 26 13 27 12 27 9 27 15 28 9 28 14 28 13 29 11 29 44 29 13 30 44 30 85 30 11 31 10 31 21 31 43 32 21 32 40 32 10 33 40 33 21 33 41 34 42 34 25 34 27 35 24 35 28 35 28 36 29 36 27 36 22 37 33 37 17 37 23 38 34 38 33 38 35 39 23 39 22 39 18 40 35 40 22 40 26 41 35 41 25 41 35 42 24 42 27 42 25 43 35 43 27 43 5 44 3 44 30 44 39 45 38 45 31 45 38 46 6 46 19 46 39 47 6 47 38 47 6 48 39 48 20 48 20 49 39 49 32 49 7 50 20 50 43 50 33 51 22 51 23 51 18 52 22 52 17 52 24 53 35 53 18 53 36 54 25 54 27 54 29 55 36 55 27 55 41 56 29 56 37 56 42 57 41 57 37 57 37 58 29 58 28 58 37 59 3 59 42 59 30 60 37 60 28 60 30 61 3 61 37 61 5 62 30 62 38 62 38 63 30 63 31 63 38 64 19 64 5 64 20 65 32 65 43 65 32 66 21 66 43 66 8 67 7 67 40 67 16 68 17 68 33 68 25 69 36 69 41 69 29 70 41 70 36 70 7 71 43 71 40 71 77 72 11 72 21 72 44 73 11 73 77 73 12 74 14 74 9 74 85 75 12 75 13 75 45 76 12 76 85 76 49 77 50 77 51 77 70 78 12 78 69 78 0 79 54 79 46 79 58 80 46 80 54 80 54 81 0 81 1 81 55 82 58 82 54 82 54 83 1 83 47 83 47 84 48 84 54 84 47 85 56 85 48 85 48 86 59 86 50 86 49 87 62 87 63 87 71 88 63 88 2 88 71 89 64 89 63 89 71 90 4 90 52 90 64 91 71 91 52 91 52 92 57 92 64 92 57 93 52 93 65 93 65 94 52 94 53 94 68 95 66 95 53 95 66 96 69 96 67 96 66 97 68 97 69 97 59 98 48 98 56 98 60 99 59 99 56 99 62 100 49 100 51 100 63 101 62 101 2 101 63 102 64 102 49 102 71 103 2 103 4 103 53 104 52 104 4 104 66 105 65 105 53 105 66 106 67 106 65 106 70 107 69 107 68 107 55 108 54 108 48 108 59 109 60 109 50 109 51 110 50 110 60 110 62 111 51 111 61 111 61 112 2 112 62 112 14 113 68 113 15 113 12 114 70 114 14 114 68 115 14 115 70 115 51 116 60 116 61 116 72 117 74 117 73 117 75 118 74 118 72 118 75 119 76 119 74 119 85 120 44 120 76 120 85 121 76 121 75 121 77 122 76 122 44 122 110 123 76 123 77 123 16 124 96 124 17 124 96 125 78 125 17 125 17 126 78 126 18 126 78 127 79 127 18 127 18 128 111 128 24 128 79 129 111 129 18 129 28 130 114 130 30 130 114 131 115 131 30 131 30 132 115 132 31 132 115 133 106 133 31 133 31 134 106 134 39 134 106 135 108 135 39 135 39 136 108 136 32 136 108 137 109 137 32 137 32 138 109 138 21 138 109 139 77 139 21 139 111 140 80 140 24 140 24 141 80 141 28 141 28 142 80 142 114 142 81 143 82 143 46 143 81 144 46 144 58 144 127 145 58 145 55 145 127 146 81 146 58 146 126 147 127 147 55 147 126 148 55 148 48 148 122 149 128 149 64 149 122 150 64 150 57 150 129 151 122 151 57 151 129 152 57 152 65 152 131 153 65 153 67 153 131 154 129 154 65 154 131 155 67 155 69 155 45 156 69 156 12 156 45 157 131 157 69 157 83 158 48 158 50 158 83 159 126 159 48 159 83 160 84 160 126 160 49 161 64 161 128 161 49 162 83 162 50 162 83 163 49 163 128 163 135 164 45 164 85 164 76 165 110 165 74 165 74 166 110 166 73 166 75 167 135 167 85 167 72 168 135 168 75 168 95 169 124 169 97 169 118 170 124 170 95 170 97 171 125 171 99 171 124 172 125 172 97 172 99 173 125 173 101 173 125 174 86 174 101 174 101 175 86 175 102 175 86 176 87 176 102 176 102 177 87 177 113 177 87 178 88 178 113 178 113 179 88 179 89 179 88 180 90 180 89 180 89 181 90 181 105 181 105 182 91 182 107 182 90 183 91 183 105 183 107 184 91 184 116 184 91 185 92 185 116 185 116 186 92 186 117 186 92 187 93 187 117 187 117 188 93 188 73 188 93 189 72 189 73 189 96 190 94 190 78 190 95 191 94 191 96 191 94 192 98 192 78 192 97 193 99 193 94 193 94 194 99 194 98 194 100 195 79 195 98 195 98 196 101 196 100 196 94 197 95 197 97 197 98 198 79 198 78 198 100 199 111 199 79 199 98 200 99 200 101 200 100 201 101 201 111 201 111 202 101 202 102 202 111 203 103 203 80 203 103 204 102 204 113 204 103 205 113 205 112 205 112 206 113 206 104 206 112 207 114 207 80 207 104 208 113 208 89 208 89 209 114 209 104 209 114 210 105 210 115 210 105 211 107 211 115 211 115 212 107 212 106 212 107 213 116 213 106 213 106 214 116 214 108 214 117 215 108 215 116 215 117 216 109 216 108 216 77 217 109 217 110 217 110 218 117 218 73 218 80 219 103 219 112 219 104 220 114 220 112 220 105 221 114 221 89 221 117 222 110 222 109 222 102 223 103 223 111 223 126 224 84 224 119 224 93 225 120 225 72 225 45 226 123 226 131 226 121 227 124 227 118 227 118 228 82 228 121 228 124 229 121 229 127 229 81 230 127 230 121 230 127 231 126 231 124 231 124 232 126 232 125 232 86 233 125 233 119 233 132 234 87 234 86 234 133 235 88 235 87 235 83 236 88 236 133 236 83 237 128 237 88 237 88 238 134 238 90 238 122 239 134 239 128 239 128 240 134 240 88 240 134 241 91 241 90 241 130 242 134 242 129 242 130 243 91 243 134 243 131 244 123 244 130 244 130 245 123 245 93 245 121 246 82 246 81 246 126 247 119 247 125 247 119 248 84 248 133 248 84 249 83 249 133 249 122 250 129 250 134 250 130 251 92 251 91 251 131 252 130 252 129 252 92 253 130 253 93 253 93 254 123 254 120 254 135 255 120 255 123 255 86 256 119 256 132 256 119 257 133 257 132 257 45 258 135 258 123 258 87 259 132 259 133 259 120 260 135 260 72 260</p>
        </triangles>
      </mesh>
    </geometry>
  </library_geometries>
  <library_visual_scenes>
    <visual_scene id="Scene" name="Scene">
      <node id="node3" name="node3" type="NODE">
        <matrix sid="transform">1 0 0 0 0 1 0 0 0 0 1 0 0 0 0 1</matrix>
        <instance_geometry url="#Part__Feature003_005-mesh" name="node3">
          <bind_material>
            <technique_common>
              <instance_material symbol="Part__Feature003_005-material" target="#Part__Feature003_005-material"/>
            </technique_common>
          </bind_material>
        </instance_geometry>
      </node>
      <node id="node2" name="node2" type="NODE">
        <matrix sid="transform">1 0 0 0 0 1 0 0 0 0 1 0 0 0 0 1</matrix>
        <instance_geometry url="#Part__Feature002_006-mesh" name="node2">
          <bind_material>
            <technique_common>
              <instance_material symbol="Part__Feature002_006-material" target="#Part__Feature002_006-material"/>
            </technique_common>
          </bind_material>
        </instance_geometry>
      </node>
      <node id="node1" name="node1" type="NODE">
        <matrix sid="transform">1 0 0 0 0 1 0 0 0 0 1 0 0 0 0 1</matrix>
        <instance_geometry url="#Part__Feature001_008-mesh" name="node1">
          <bind_material>
            <technique_common>
              <instance_material symbol="Part__Feature001_008-material" target="#Part__Feature001_008-material"/>
            </technique_common>
          </bind_material>
        </instance_geometry>
      </node>
      <node id="node0" name="node0" type="NODE">
        <matrix sid="transform">1 0 0 0 0 1 0 0 0 0 1 0 0 0 0 1</matrix>
        <instance_geometry url="#Part__Feature_016-mesh" name="node0">
          <bind_material>
            <technique_common>
              <instance_material symbol="Part__Feature_016-material" target="#Part__Feature_016-material"/>
            </technique_common>
          </bind_material>
        </instance_geometry>
      </node>
      <node id="Camera" name="Camera" type="NODE">
        <matrix sid="transform">0.6859207 -0.3240135 0.6515582 7.358891 0.7276763 0.3054208 -0.6141704 -6.925791 0 0.8953956 0.4452714 4.958309 0 0 0 1</matrix>
        <instance_camera url="#Camera-camera"/>
      </node>
      <node id="Light" name="Light" type="NODE">
        <matrix sid="transform">-0.2908646 -0.7711008 0.5663932 4.076245 0.9551712 -0.1998834 0.2183912 1.005454 -0.05518906 0.6045247 0.7946723 5.903862 0 0 0 1</matrix>
        <instance_light url="#Light-light"/>
      </node>
    </visual_scene>
  </library_visual_scenes>
  <scene>
    <instance_visual_scene url="#Scene"/>
  </scene>
</COLLADA>