<?xml version="1.0" encoding="UTF-8" standalone="no" ?>
<COLLADA xmlns="http://www.collada.org/2005/11/COLLADASchema" version="1.4.1">
  <asset>
    <contributor>
      <author>Assimp</author>
      <authoring_tool>Assimp Exporter</authoring_tool>
    </contributor>
    <created>2025-12-28T00:09:16</created>
    <modified>2025-12-28T00:09:16</modified>
    <unit name="meter" meter="1" />
    <up_axis>Y_UP</up_axis>
  </asset>
  <library_images>
  </library_images>
  <library_effects>
    <effect id="material_0-fx" name="">
      <profile_COMMON>
        <technique sid="standard">
          <phong>
            <emission>
              <color sid="emission">0   0   0   -nan</color>
            </emission>
            <ambient>
              <color sid="ambient">0.883559942   0.72630465   0.581145883   0</color>
            </ambient>
            <diffuse>
              <color sid="diffuse">0.883559942   0.72630465   0.581145883   0</color>
            </diffuse>
            <specular>
              <color sid="specular">0.150000006   0.150000006   0.150000006   8.1645573e-36</color>
            </specular>
          </phong>
        </technique>
      </profile_COMMON>
    </effect>
    <effect id="material_1-fx" name="">
      <profile_COMMON>
        <technique sid="standard">
          <phong>
            <emission>
              <color sid="emission">0   0   0   -nan</color>
            </emission>
            <ambient>
              <color sid="ambient">0.997058809   0.981930017   0.618838608   0</color>
            </ambient>
            <diffuse>
              <color sid="diffuse">0.997058809   0.981930017   0.618838608   0</color>
            </diffuse>
            <specular>
              <color sid="specular">0.150000006   0.150000006   0.150000006   8.1645573e-36</color>
            </specular>
          </phong>
        </technique>
      </profile_COMMON>
    </effect>
  </library_effects>
  <library_materials>
    <material id="material_0" name="">
      <instance_effect url="#material_0-fx"/>
    </material>
    <material id="material_1" name="">
      <instance_effect url="#material_1-fx"/>
    </material>
  </library_materials>
  <library_geometries>
    <geometry id="mesh_0" name="" >
      <mesh>
        <source id="mesh_0-positions" name="mesh_0-positions">
          <float_array id="mesh_0-positions-array" count="1611"> 0.25 -3.72499895 0.299999624 0.209999949 -3.68499899 0.299999684 0.25000003 -3.68499899 0.299999624 0.209999949 -3.68499899 0.299999684 0.25 -3.72499895 0.299999624 0.209999919 -3.72499895 0.299999624 0.25 -3.72499895 0.299999624 0.209999919 -3.67499876 0.749999821 0.209999919 -3.72499895 0.299999624 0.209999919 -3.67499876 0.749999821 0.25 -3.72499895 0.299999624 0.249999925 -3.67499876 0.749999821 0.25 -3.72499895 0.299999624 0.249999896 -3.64388776 0.669999659 0.249999925 -3.67499876 0.749999821 0.249999896 -3.64388776 0.669999659 0.25 -3.72499895 0.299999624 0.25000003 -3.68499899 0.299999624 0.23999995 -3.66944337 0.43999967 0.249999896 -3.64388776 0.669999659 0.25000003 -3.68499899 0.299999624 0.219999954 -3.66944337 0.4399997 0.249999896 -3.64388776 0.669999659 0.23999995 -3.66944337 0.43999967 0.219999954 -3.66944337 0.4399997 0.209999919 -3.64388776 0.669999778 0.249999896 -3.64388776 0.669999659 0.209999919 -3.64388776 0.669999778 0.219999954 -3.66944337 0.4399997 0.219999954 -3.67388797 0.399999738 0.219999954 -3.66944337 0.4399997 0.219999939 -3.5122211 0.399999619 0.219999954 -3.67388797 0.399999738 0.219999939 -3.5122211 0.399999619 0.219999954 -3.66944337 0.4399997 0.219999909 -3.5122211 0.43999967 0.23999995 -3.66944337 0.43999967 0.219999909 -3.5122211 0.43999967 0.219999954 -3.66944337 0.4399997 0.23999995 -3.66944337 0.43999967 0.219999969 -3.49222112 0.43999967 0.219999909 -3.5122211 0.43999967 0.23999998 -3.33499885 0.43999964 0.219999969 -3.49222112 0.43999967 0.23999995 -3.66944337 0.43999967 0.219999969 -3.49222112 0.43999967 0.23999998 -3.33499885 0.43999964 0.219999969 -3.33499885 0.43999967 0.219999969 -3.33499885 0.43999967 0.23999995 -3.33499885 0.399999648 0.23999998 -3.33499885 0.43999964 0.23999995 -3.33499885 0.399999648 0.219999969 -3.33499885 0.43999967 0.219999924 -3.33499885 0.399999648 0.219999924 -3.33499885 0.399999648 0.219999969 -3.49222112 0.43999967 0.219999969 -3.33499885 0.43999967 0.219999969 -3.49222112 0.43999967 0.219999924 -3.33499885 0.399999648 0.219999909 -3.49222112 0.399999619 0.219999924 -3.33499885 0.399999648 0.24000001 -3.67388773 0.399999708 0.219999909 -3.49222112 0.399999619 0.24000001 -3.67388773 0.399999708 0.219999924 -3.33499885 0.399999648 0.23999995 -3.33499885 0.399999648 0.219999924 -3.33499885 0.399999648 0.24999997 -3.33499885 0.299999654 0.23999995 -3.33499885 0.399999648 0.219999924 -3.33499885 0.399999648 0.209999993 -3.33499885 0.299999505 0.24999997 -3.33499885 0.299999654 0.209999993 -3.33499885 0.299999505 0.219999924 -3.33499885 0.399999648 0.209999919 -3.33499861 0.669999719 0.219999969 -3.33499885 0.43999967 0.209999919 -3.33499861 0.669999719 0.219999924 -3.33499885 0.399999648 0.209999919 -3.33499861 0.669999719 0.219999969 -3.33499885 0.43999967 0.249999866 -3.33499861 0.669999719 0.249999866 -3.33499861 0.669999719 0.219999969 -3.33499885 0.43999967 0.23999998 -3.33499885 0.43999964 0.249999866 -3.33499861 0.669999719 0.23999998 -3.33499885 0.43999964 0.24999997 -3.33499885 0.299999654 0.23999995 -3.33499885 0.399999648 0.24999997 -3.33499885 0.299999654 0.23999998 -3.33499885 0.43999964 0.23999995 -3.66944337 0.43999967 0.23999995 -3.33499885 0.399999648 0.23999998 -3.33499885 0.43999964 0.23999995 -3.33499885 0.399999648 0.23999995 -3.66944337 0.43999967 0.24000001 -3.67388773 0.399999708 0.24000001 -3.67388773 0.399999708 0.219999954 -3.66944337 0.4399997 0.23999995 -3.66944337 0.43999967 0.219999954 -3.66944337 0.4399997 0.24000001 -3.67388773 0.399999708 0.219999954 -3.67388797 0.399999738 0.219999939 -3.5122211 0.399999619 0.24000001 -3.67388773 0.399999708 0.219999954 -3.67388797 0.399999738 0.219999909 -3.49222112 0.399999619 0.24000001 -3.67388773 0.399999708 0.219999939 -3.5122211 0.399999619 0.219999909 -3.49222112 0.399999619 0.219999939 -3.5122211 0.399999619 -0.120000169 -3.49222112 0.399999529 -0.120000191 -3.5122211 0.399999529 -0.120000169 -3.49222112 0.399999529 0.219999939 -3.5122211 0.399999619 -0.140000194 -3.67388773 0.399999648 -0.120000169 -3.49222112 0.399999529 -0.120000191 -3.5122211 0.399999529 -0.140000165 -3.33499885 0.399999589 -0.120000169 -3.49222112 0.399999529 -0.140000194 -3.67388773 0.399999648 -0.120000169 -3.49222112 0.399999529 -0.140000165 -3.33499885 0.399999589 -0.120000146 -3.33499885 0.399999589 -0.120000176 -3.33499885 0.439999491 -0.140000165 -3.33499885 0.399999589 -0.120000146 -3.33499885 0.399999589 -0.140000165 -3.33499885 0.399999589 -0.120000176 -3.33499885 0.439999491 -0.140000209 -3.33499885 0.439999491 -0.140000239 -3.66944337 0.43999964 -0.120000176 -3.33499885 0.439999491 -0.140000209 -3.33499885 0.439999491 -0.120000176 -3.33499885 0.439999491 -0.140000239 -3.66944337 0.43999964 -0.120000191 -3.49222112 0.43999964 -0.120000191 -3.49222112 0.43999964 -0.140000239 -3.66944337 0.43999964 -0.120000176 -3.5122211 0.43999964 -0.120000176 -3.5122211 0.43999964 -0.140000239 -3.66944337 0.43999964 -0.120000176 -3.66944337 0.43999964 -0.120000176 -3.66944337 0.43999964 -0.140000194 -3.67388773 0.399999648 -0.140000239 -3.66944337 0.43999964 -0.140000194 -3.67388773 0.399999648 -0.120000176 -3.66944337 0.43999964 -0.120000184 -3.67388773 0.399999589 -0.120000191 -3.5122211 0.399999529 -0.120000176 -3.66944337 0.43999964 -0.120000184 -3.67388773 0.399999589 -0.120000176 -3.66944337 0.43999964 -0.120000191 -3.5122211 0.399999529 -0.120000176 -3.5122211 0.43999964 0.219999939 -3.5122211 0.399999619 -0.120000176 -3.5122211 0.43999964 -0.120000191 -3.5122211 0.399999529 -0.120000176 -3.5122211 0.43999964 0.219999939 -3.5122211 0.399999619 0.219999909 -3.5122211 0.43999967 0.219999909 -3.5122211 0.43999967 0.219999969 -3.49222112 0.43999967 -0.120000176 -3.5122211 0.43999964 -0.120000191 -3.49222112 0.43999964 -0.120000176 -3.5122211 0.43999964 0.219999969 -3.49222112 0.43999967 0.219999969 -3.49222112 0.43999967 -0.120000169 -3.49222112 0.399999529 -0.120000191 -3.49222112 0.43999964 -0.120000169 -3.49222112 0.399999529 0.219999969 -3.49222112 0.43999967 0.219999909 -3.49222112 0.399999619 -0.120000146 -3.33499885 0.399999589 -0.120000191 -3.49222112 0.43999964 -0.120000169 -3.49222112 0.399999529 -0.120000191 -3.49222112 0.43999964 -0.120000146 -3.33499885 0.399999589 -0.120000176 -3.33499885 0.439999491 -0.110000201 -3.33499861 0.669999659 -0.120000176 -3.33499885 0.439999491 -0.120000146 -3.33499885 0.399999589 -0.110000201 -3.33499861 0.669999659 -0.140000209 -3.33499885 0.439999491 -0.120000176 -3.33499885 0.439999491 -0.150000229 -3.33499885 0.669999659 -0.140000209 -3.33499885 0.439999491 -0.110000201 -3.33499861 0.669999659 -0.140000209 -3.33499885 0.439999491 -0.150000229 -3.33499885 0.669999659 -0.150000155 -3.33499885 0.299999595 -0.150000229 -3.33499885 0.669999659 -0.15000014 -3.29499865 0.299999595 -0.150000155 -3.33499885 0.299999595 -0.15000014 -3.29499865 0.299999595 -0.150000229 -3.33499885 0.669999659 -0.150000215 -3.29499865 0.70999974 -0.150000215 -3.29499865 0.70999974 -0.150000229 -3.33499885 0.669999659 -0.150000229 -3.6349988 0.709999681 -0.1500002 -3.64388776 0.669999599 -0.150000229 -3.6349988 0.709999681 -0.150000229 -3.33499885 0.669999659 -0.1500002 -3.64388776 0.669999599 -0.150000229 -3.67499876 0.749999762 -0.150000229 -3.6349988 0.709999681 -0.150000155 -3.68499899 0.299999565 -0.150000229 -3.67499876 0.749999762 -0.1500002 -3.64388776 0.669999599 -0.150000229 -3.67499876 0.749999762 -0.150000155 -3.68499899 0.299999565 -0.150000155 -3.72499895 0.299999654 -0.150000155 -3.68499899 0.299999565 -0.110000141 -3.72499895 0.299999565 -0.150000155 -3.72499895 0.299999654 -0.110000141 -3.72499895 0.299999565 -0.150000155 -3.68499899 0.299999565 -0.110000156 -3.68499899 0.299999475 -0.150000155 -3.68499899 0.299999565 -0.140000194 -3.67388773 0.399999648 -0.110000156 -3.68499899 0.299999475 -0.140000194 -3.67388773 0.399999648 -0.150000155 -3.68499899 0.299999565 -0.140000239 -3.66944337 0.43999964 -0.1500002 -3.64388776 0.669999599 -0.140000239 -3.66944337 0.43999964 -0.150000155 -3.68499899 0.299999565 -0.140000239 -3.66944337 0.43999964 -0.1500002 -3.64388776 0.669999599 -0.110000215 -3.64388776 0.669999778 -0.1500002 -3.64388776 0.669999599 -0.110000215 -3.63499904 0.669999599 -0.110000215 -3.64388776 0.669999778 -0.1500002 -3.64388776 0.669999599 -0.110000208 -3.5994432 0.669999719 -0.110000215 -3.63499904 0.669999599 -0.150000229 -3.33499885 0.669999659 -0.110000208 -3.5994432 0.669999719 -0.1500002 -3.64388776 0.669999599 -0.110000208 -3.5994432 0.669999719 -0.150000229 -3.33499885 0.669999659 -0.110000201 -3.33499861 0.669999659 -0.110000201 -3.33499861 0.669999659 -0.110000208 -3.5994432 0.70999974 -0.110000208 -3.5994432 0.669999719 -0.110000208 -3.5994432 0.70999974 -0.110000201 -3.33499861 0.669999659 -0.110000215 -3.33499861 0.70999974 0.209999919 -3.33499861 0.669999719 -0.110000215 -3.33499861 0.70999974 -0.110000201 -3.33499861 0.669999659 -0.110000215 -3.33499861 0.70999974 0.209999919 -3.33499861 0.669999719 0.209999874 -3.33499885 0.70999974 0.209999919 -3.33499861 0.669999719 0.209999934 -3.5994432 0.70999974 0.209999874 -3.33499885 0.70999974 0.209999934 -3.5994432 0.70999974 0.209999919 -3.33499861 0.669999719 0.209999859 -3.5994432 0.669999778 0.209999919 -3.33499861 0.669999719 0.249999896 -3.64388776 0.669999659 0.209999859 -3.5994432 0.669999778 0.249999896 -3.64388776 0.669999659 0.209999919 -3.33499861 0.669999719 0.249999866 -3.33499861 0.669999719 0.249999866 -3.33499861 0.669999719 0.249999881 -3.29499865 0.709999859 0.249999896 -3.64388776 0.669999659 0.24999997 -3.33499885 0.299999654 0.249999881 -3.29499865 0.709999859 0.249999866 -3.33499861 0.669999719 0.249999881 -3.29499865 0.709999859 0.24999997 -3.33499885 0.299999654 0.249999985 -3.29499865 0.299999505 0.24999997 -3.33499885 0.299999654 0.209999964 -3.29499865 0.299999505 0.249999985 -3.29499865 0.299999505 0.209999964 -3.29499865 0.299999505 0.24999997 -3.33499885 0.299999654 0.209999993 -3.33499885 0.299999505 0.209999919 -3.33499861 0.669999719 0.209999964 -3.29499865 0.299999505 0.209999993 -3.33499885 0.299999505 0.209999964 -3.29499865 0.299999505 0.209999919 -3.33499861 0.669999719 0.209999919 -3.29499865 0.669999838 0.209999919 -3.33499861 0.669999719 -0.110000223 -3.29499865 0.669999659 0.209999919 -3.29499865 0.669999838 -0.110000223 -3.29499865 0.669999659 0.209999919 -3.33499861 0.669999719 -0.110000201 -3.33499861 0.669999659 -0.110000171 -3.33499885 0.299999624 -0.110000223 -3.29499865 0.669999659 -0.110000201 -3.33499861 0.669999659 -0.110000223 -3.29499865 0.669999659 -0.110000171 -3.33499885 0.299999624 -0.110000141 -3.29499865 0.299999595 -0.110000171 -3.33499885 0.299999624 -0.15000014 -3.29499865 0.299999595 -0.110000141 -3.29499865 0.299999595 -0.15000014 -3.29499865 0.299999595 -0.110000171 -3.33499885 0.299999624 -0.150000155 -3.33499885 0.299999595 -0.140000165 -3.33499885 0.399999589 -0.150000155 -3.33499885 0.299999595 -0.110000171 -3.33499885 0.299999624 -0.150000155 -3.33499885 0.299999595 -0.140000165 -3.33499885 0.399999589 -0.140000209 -3.33499885 0.439999491 -0.140000165 -3.33499885 0.399999589 -0.140000239 -3.66944337 0.43999964 -0.140000209 -3.33499885 0.439999491 -0.140000239 -3.66944337 0.43999964 -0.140000165 -3.33499885 0.399999589 -0.140000194 -3.67388773 0.399999648 -0.140000165 -3.33499885 0.399999589 -0.110000171 -3.33499885 0.299999624 -0.120000146 -3.33499885 0.399999589 -0.120000146 -3.33499885 0.399999589 -0.110000171 -3.33499885 0.299999624 -0.110000201 -3.33499861 0.669999659 -0.15000014 -3.29499865 0.299999595 -0.110000223 -3.29499865 0.669999659 -0.110000141 -3.29499865 0.299999595 -0.15000014 -3.29499865 0.299999595 -0.110000238 -3.29499865 0.709999561 -0.110000223 -3.29499865 0.669999659 -0.110000238 -3.29499865 0.709999561 -0.15000014 -3.29499865 0.299999595 -0.150000215 -3.29499865 0.70999974 -0.150000229 -3.6349988 0.709999681 -0.110000238 -3.29499865 0.709999561 -0.150000215 -3.29499865 0.70999974 -0.110000238 -3.29499865 0.709999561 -0.150000229 -3.6349988 0.709999681 -0.110000215 -3.33499861 0.70999974 -0.110000215 -3.33499861 0.70999974 -0.150000229 -3.6349988 0.709999681 -0.110000208 -3.5994432 0.70999974 -0.110000208 -3.5994432 0.70999974 -0.150000229 -3.6349988 0.709999681 -0.110000223 -3.6349988 0.70999974 -0.110000223 -3.6349988 0.70999974 0.209999934 -3.5994432 0.70999974 -0.110000208 -3.5994432 0.70999974 0.249999896 -3.6349988 0.70999974 0.209999934 -3.5994432 0.70999974 -0.110000223 -3.6349988 0.70999974 0.249999896 -3.6349988 0.70999974 0.209999874 -3.33499885 0.70999974 0.209999934 -3.5994432 0.70999974 0.249999881 -3.29499865 0.709999859 0.209999874 -3.33499885 0.70999974 0.249999896 -3.6349988 0.70999974 0.209999874 -3.33499885 0.70999974 0.249999881 -3.29499865 0.709999859 0.209999919 -3.29499865 0.709999681 0.209999919 -3.29499865 0.669999838 0.209999919 -3.29499865 0.709999681 0.249999881 -3.29499865 0.709999859 -0.110000223 -3.29499865 0.669999659 0.209999919 -3.29499865 0.709999681 0.209999919 -3.29499865 0.669999838 0.209999919 -3.29499865 0.709999681 -0.110000223 -3.29499865 0.669999659 -0.110000238 -3.29499865 0.709999561 -0.110000215 -3.33499861 0.70999974 0.209999919 -3.29499865 0.709999681 -0.110000238 -3.29499865 0.709999561 0.209999919 -3.29499865 0.709999681 -0.110000215 -3.33499861 0.70999974 0.209999874 -3.33499885 0.70999974 0.209999919 -3.29499865 0.669999838 0.249999881 -3.29499865 0.709999859 0.249999985 -3.29499865 0.299999505 0.249999985 -3.29499865 0.299999505 0.209999964 -3.29499865 0.299999505 0.209999919 -3.29499865 0.669999838 0.249999896 -3.6349988 0.70999974 0.249999896 -3.64388776 0.669999659 0.249999881 -3.29499865 0.709999859 0.249999925 -3.67499876 0.749999821 0.249999896 -3.64388776 0.669999659 0.249999896 -3.6349988 0.70999974 0.249999925 -3.67499876 0.749999821 0.249999896 -3.6349988 0.70999974 0.249999925 -3.6349988 0.749999881 0.249999925 -3.67499876 0.749999821 0.249999925 -3.6349988 0.749999881 0.249999821 -3.68499875 1.19999993 0.209999844 -3.6349988 0.749999821 0.249999821 -3.68499875 1.19999993 0.249999925 -3.6349988 0.749999881 0.249999821 -3.68499875 1.19999993 0.209999844 -3.6349988 0.749999821 0.209999785 -3.68499875 1.19999993 0.209999844 -3.6349988 0.749999821 0.209999844 -3.72499871 1.19999993 0.209999785 -3.68499875 1.19999993 0.209999844 -3.6349988 0.749999821 0.209999919 -3.67499876 0.749999821 0.209999844 -3.72499871 1.19999993 0.209999934 -3.6349988 0.7099998 0.209999919 -3.67499876 0.749999821 0.209999844 -3.6349988 0.749999821 0.209999904 -3.6349988 0.669999778 0.209999919 -3.67499876 0.749999821 0.209999934 -3.6349988 0.7099998 0.209999919 -3.64388776 0.669999778 0.209999919 -3.67499876 0.749999821 0.209999904 -3.6349988 0.669999778 0.209999949 -3.68499899 0.299999684 0.209999919 -3.67499876 0.749999821 0.209999919 -3.64388776 0.669999778 0.209999919 -3.67499876 0.749999821 0.209999949 -3.68499899 0.299999684 0.209999919 -3.72499895 0.299999624 0.219999954 -3.67388797 0.399999738 0.209999949 -3.68499899 0.299999684 0.209999919 -3.64388776 0.669999778 0.209999949 -3.68499899 0.299999684 0.219999954 -3.67388797 0.399999738 0.25000003 -3.68499899 0.299999624 0.25000003 -3.68499899 0.299999624 0.219999954 -3.67388797 0.399999738 0.24000001 -3.67388773 0.399999708 0.25000003 -3.68499899 0.299999624 0.24000001 -3.67388773 0.399999708 0.23999995 -3.66944337 0.43999967 0.209999904 -3.6349988 0.669999778 0.249999896 -3.64388776 0.669999659 0.209999919 -3.64388776 0.669999778 0.209999859 -3.5994432 0.669999778 0.249999896 -3.64388776 0.669999659 0.209999904 -3.6349988 0.669999778 0.209999859 -3.5994432 0.669999778 0.209999904 -3.6349988 0.669999778 -0.110000215 -3.63499904 0.669999599 0.209999904 -3.6349988 0.669999778 -0.110000223 -3.6349988 0.70999974 -0.110000215 -3.63499904 0.669999599 -0.110000223 -3.6349988 0.70999974 0.209999904 -3.6349988 0.669999778 0.209999934 -3.6349988 0.7099998 -0.110000223 -3.6349988 0.70999974 -0.110000215 -3.64388776 0.669999778 -0.110000215 -3.63499904 0.669999599 -0.11000023 -3.67499876 0.749999762 -0.110000215 -3.64388776 0.669999778 -0.110000223 -3.6349988 0.70999974 -0.110000141 -3.72499895 0.299999565 -0.110000215 -3.64388776 0.669999778 -0.11000023 -3.67499876 0.749999762 -0.110000215 -3.64388776 0.669999778 -0.110000141 -3.72499895 0.299999565 -0.110000156 -3.68499899 0.299999475 -0.110000156 -3.68499899 0.299999475 -0.120000184 -3.67388773 0.399999589 -0.110000215 -3.64388776 0.669999778 -0.110000156 -3.68499899 0.299999475 -0.140000194 -3.67388773 0.399999648 -0.120000184 -3.67388773 0.399999589 -0.140000194 -3.67388773 0.399999648 -0.120000191 -3.5122211 0.399999529 -0.120000184 -3.67388773 0.399999589 -0.120000176 -3.66944337 0.43999964 -0.110000215 -3.64388776 0.669999778 -0.120000184 -3.67388773 0.399999589 -0.140000239 -3.66944337 0.43999964 -0.110000215 -3.64388776 0.669999778 -0.120000176 -3.66944337 0.43999964 -0.150000229 -3.67499876 0.749999762 -0.110000141 -3.72499895 0.299999565 -0.11000023 -3.67499876 0.749999762 -0.110000141 -3.72499895 0.299999565 -0.150000229 -3.67499876 0.749999762 -0.150000155 -3.72499895 0.299999654 -0.11000023 -3.67499876 0.749999762 -0.150000289 -3.72499895 1.20000005 -0.150000229 -3.67499876 0.749999762 -0.150000289 -3.72499895 1.20000005 -0.11000023 -3.67499876 0.749999762 -0.110000283 -3.72499871 1.19999981 -0.11000023 -3.67499876 0.749999762 -0.11000026 -3.68499875 1.19999981 -0.110000283 -3.72499871 1.19999981 -0.11000023 -3.67499876 0.749999762 -0.110000223 -3.6349988 0.749999762 -0.11000026 -3.68499875 1.19999981 -0.11000023 -3.67499876 0.749999762 -0.110000223 -3.6349988 0.70999974 -0.110000223 -3.6349988 0.749999762 -0.150000244 -3.6349988 0.749999762 -0.11000026 -3.68499875 1.19999981 -0.110000223 -3.6349988 0.749999762 -0.11000026 -3.68499875 1.19999981 -0.150000244 -3.6349988 0.749999762 -0.150000274 -3.68499875 1.20000005 -0.150000244 -3.6349988 0.749999762 -0.150000289 -3.72499895 1.20000005 -0.150000274 -3.68499875 1.20000005 -0.150000244 -3.6349988 0.749999762 -0.150000229 -3.67499876 0.749999762 -0.150000289 -3.72499895 1.20000005 -0.150000229 -3.6349988 0.709999681 -0.150000229 -3.67499876 0.749999762 -0.150000244 -3.6349988 0.749999762 -0.150000289 -3.72499895 1.20000005 -0.11000026 -3.68499875 1.19999981 -0.150000274 -3.68499875 1.20000005 -0.11000026 -3.68499875 1.19999981 -0.150000289 -3.72499895 1.20000005 -0.110000283 -3.72499871 1.19999981 -0.110000215 -3.63499904 0.669999599 -0.110000208 -3.5994432 0.669999719 0.209999859 -3.5994432 0.669999778 -0.110000208 -3.5994432 0.669999719 0.209999934 -3.5994432 0.70999974 0.209999859 -3.5994432 0.669999778 0.209999934 -3.5994432 0.70999974 -0.110000208 -3.5994432 0.669999719 -0.110000208 -3.5994432 0.70999974 0.249999925 -3.67499876 0.749999821 0.209999844 -3.72499871 1.19999993 0.209999919 -3.67499876 0.749999821 0.209999844 -3.72499871 1.19999993 0.249999925 -3.67499876 0.749999821 0.249999881 -3.72499895 1.19999993 0.249999925 -3.67499876 0.749999821 0.249999821 -3.68499875 1.19999993 0.249999881 -3.72499895 1.19999993 0.249999821 -3.68499875 1.19999993 0.209999844 -3.72499871 1.19999993 0.249999881 -3.72499895 1.19999993 0.209999844 -3.72499871 1.19999993 0.249999821 -3.68499875 1.19999993 0.209999785 -3.68499875 1.19999993 </float_array>
          <technique_common>
            <accessor count="537" offset="0" source="#mesh_0-positions-array" stride="3">
              <param name="X" type="float" />
              <param name="Y" type="float" />
              <param name="Z" type="float" />
            </accessor>
          </technique_common>
        </source>
        <source id="mesh_0-normals" name="mesh_0-normals">
          <float_array id="mesh_0-normals-array" count="1611"> 1.55544001e-07 -1.28913001e-07 -1 1.55544001e-07 -1.28913001e-07 -1 1.55544001e-07 -1.28913001e-07 -1 1.55544001e-07 -1.28913001e-07 -1 1.55544001e-07 -1.28913001e-07 -1 1.55544001e-07 -1.28913001e-07 -1 -2.05890327e-08 -0.991227925 0.132163838 -1.03733377e-08 -0.997785151 0.0665191337 -2.05890327e-08 -0.991227925 0.132163838 -1.03733377e-08 -0.997785151 0.0665191337 -2.05890327e-08 -0.991227925 0.132163838 1.02871143e-08 -0.997785211 -0.0665188804 1 1.25844613e-11 1.55543205e-07 1 1.25844613e-11 1.55543205e-07 1 1.25844613e-11 1.55543205e-07 1 1.25844613e-11 1.55543205e-07 1 1.25844613e-11 1.55543205e-07 1 1.25844613e-11 1.55543205e-07 2.05890327e-08 0.991227925 -0.132163838 2.05890327e-08 0.991227925 -0.132163838 2.05890327e-08 0.991227925 -0.132163838 2.05890327e-08 0.991227925 -0.132163838 2.05890327e-08 0.991227925 -0.132163838 2.05890327e-08 0.991227925 -0.132163838 2.05890327e-08 0.991227925 -0.132163838 2.05890327e-08 0.991227925 -0.132163838 2.05890327e-08 0.991227925 -0.132163838 2.05890327e-08 0.991227925 -0.132163838 2.05890327e-08 0.991227925 -0.132163838 2.05890327e-08 0.991227925 -0.132163838 -1 -1.25845306e-11 -1.55543205e-07 -1 -1.25845306e-11 -1.55543205e-07 -1 -1.25845306e-11 -1.55543205e-07 -1 -1.25845306e-11 -1.55543205e-07 -1 -1.25845306e-11 -1.55543205e-07 -1 -1.25845306e-11 -1.55543205e-07 -1.55544001e-07 1.28913001e-07 1 -1.55544001e-07 1.28913001e-07 1 -1.55544001e-07 1.28913001e-07 1 -1.55544001e-07 1.28913001e-07 1 -1.55544001e-07 1.28913001e-07 1 -1.55544001e-07 1.28913001e-07 1 -1.55544001e-07 1.28913001e-07 1 -1.55544001e-07 1.28913001e-07 1 -1.55544001e-07 1.28913001e-07 1 -1.55544001e-07 1.28913001e-07 1 -1.55544001e-07 1.28913001e-07 1 -1.55544001e-07 1.28913001e-07 1 7.66228986e-13 -1 1.28301977e-07 7.66228986e-13 -1 1.28301977e-07 7.66228986e-13 -1 1.28301977e-07 7.66228986e-13 -1 1.28301977e-07 7.66228986e-13 -1 1.28301977e-07 7.66228986e-13 -1 1.28301977e-07 -1 -1.25845306e-11 -1.55543205e-07 -1 -1.25845306e-11 -1.55543205e-07 -1 -1.25845306e-11 -1.55543205e-07 -1 -1.25845306e-11 -1.55543205e-07 -1 -1.25845306e-11 -1.55543205e-07 -1 -1.25845306e-11 -1.55543205e-07 1.55544001e-07 -1.28913001e-07 -1 1.55544001e-07 -1.28913001e-07 -1 1.55544001e-07 -1.28913001e-07 -1 1.55544001e-07 -1.28913001e-07 -1 1.55544001e-07 -1.28913001e-07 -1 1.55544001e-07 -1.28913001e-07 -1 7.66228986e-13 -1 1.28301977e-07 7.66228986e-13 -1 1.28301977e-07 7.66228986e-13 -1 1.28301977e-07 7.66228986e-13 -1 1.28301977e-07 7.66228986e-13 -1 1.28301977e-07 7.66228986e-13 -1 1.28301977e-07 7.66228986e-13 -1 1.28301977e-07 7.66228986e-13 -1 1.28301977e-07 7.66228986e-13 -1 1.28301977e-07 7.66228986e-13 -1 1.28301977e-07 7.66228986e-13 -1 1.28301977e-07 7.66228986e-13 -1 1.28301977e-07 7.66228986e-13 -1 1.28301977e-07 7.66228986e-13 -1 1.28301977e-07 7.66228986e-13 -1 1.28301977e-07 7.66228986e-13 -1 1.28301977e-07 7.66228986e-13 -1 1.28301977e-07 7.66228986e-13 -1 1.28301977e-07 7.66228986e-13 -1 1.28301977e-07 7.66228986e-13 -1 1.28301977e-07 7.66228986e-13 -1 1.28301977e-07 7.66228986e-13 -1 1.28301977e-07 7.66228986e-13 -1 1.28301977e-07 7.66228986e-13 -1 1.28301977e-07 1 1.25844613e-11 1.55543205e-07 1 1.25844613e-11 1.55543205e-07 1 1.25844613e-11 1.55543205e-07 1 1.25844613e-11 1.55543205e-07 1 1.25844613e-11 1.55543205e-07 1 1.25844613e-11 1.55543205e-07 2.05890327e-08 0.991227925 -0.132163838 2.05890327e-08 0.991227925 -0.132163838 2.05890327e-08 0.991227925 -0.132163838 2.05890327e-08 0.991227925 -0.132163838 2.05890327e-08 0.991227925 -0.132163838 2.05890327e-08 0.991227925 -0.132163838 1.55544001e-07 -1.28913001e-07 -1 1.55544001e-07 -1.28913001e-07 -1 1.55544001e-07 -1.28913001e-07 -1 1.55544001e-07 -1.28913001e-07 -1 1.55544001e-07 -1.28913001e-07 -1 1.55544001e-07 -1.28913001e-07 -1 1.55544001e-07 -1.28913001e-07 -1 1.55544001e-07 -1.28913001e-07 -1 1.55544001e-07 -1.28913001e-07 -1 1.55544001e-07 -1.28913001e-07 -1 1.55544001e-07 -1.28913001e-07 -1 1.55544001e-07 -1.28913001e-07 -1 1.55544001e-07 -1.28913001e-07 -1 1.55544001e-07 -1.28913001e-07 -1 1.55544001e-07 -1.28913001e-07 -1 1.55544001e-07 -1.28913001e-07 -1 1.55544001e-07 -1.28913001e-07 -1 1.55544001e-07 -1.28913001e-07 -1 1.55544001e-07 -1.28913001e-07 -1 1.55544001e-07 -1.28913001e-07 -1 1.55544001e-07 -1.28913001e-07 -1 7.66228986e-13 -1 1.28301977e-07 7.66228986e-13 -1 1.28301977e-07 7.66228986e-13 -1 1.28301977e-07 7.66228986e-13 -1 1.28301977e-07 7.66228986e-13 -1 1.28301977e-07 7.66228986e-13 -1 1.28301977e-07 -1.55544001e-07 1.28913001e-07 1 -1.55544001e-07 1.28913001e-07 1 -1.55544001e-07 1.28913001e-07 1 -1.55544001e-07 1.28913001e-07 1 -1.55544001e-07 1.28913001e-07 1 -1.55544001e-07 1.28913001e-07 1 -1.55544001e-07 1.28913001e-07 1 -1.55544001e-07 1.28913001e-07 1 -1.55544001e-07 1.28913001e-07 1 -1.55544001e-07 1.28913001e-07 1 -1.55544001e-07 1.28913001e-07 1 -1.55544001e-07 1.28913001e-07 1 2.05890327e-08 0.991227925 -0.132163838 2.05890327e-08 0.991227925 -0.132163838 2.05890327e-08 0.991227925 -0.132163838 2.05890327e-08 0.991227925 -0.132163838 2.05890327e-08 0.991227925 -0.132163838 2.05890327e-08 0.991227925 -0.132163838 1 1.25844613e-11 1.55543205e-07 1 1.25844613e-11 1.55543205e-07 1 1.25844613e-11 1.55543205e-07 1 1.25844613e-11 1.55543205e-07 1 1.25844613e-11 1.55543205e-07 1 1.25844613e-11 1.55543205e-07 7.66228986e-13 -1 1.28301977e-07 7.66228986e-13 -1 1.28301977e-07 7.66228986e-13 -1 1.28301977e-07 7.66228986e-13 -1 1.28301977e-07 7.66228986e-13 -1 1.28301977e-07 7.66228986e-13 -1 1.28301977e-07 -1.55544001e-07 1.28913001e-07 1 -1.55544001e-07 1.28913001e-07 1 -1.55544001e-07 1.28913001e-07 1 -1.55544001e-07 1.28913001e-07 1 -1.55544001e-07 1.28913001e-07 1 -1.55544001e-07 1.28913001e-07 1 -7.66228986e-13 1 -1.28301977e-07 -7.66228986e-13 1 -1.28301977e-07 -7.66228986e-13 1 -1.28301977e-07 -7.66228986e-13 1 -1.28301977e-07 -7.66228986e-13 1 -1.28301977e-07 -7.66228986e-13 1 -1.28301977e-07 1 1.25844613e-11 1.55543205e-07 1 1.25844613e-11 1.55543205e-07 1 1.25844613e-11 1.55543205e-07 1 1.25844613e-11 1.55543205e-07 1 1.25844613e-11 1.55543205e-07 1 1.25844613e-11 1.55543205e-07 7.66228986e-13 -1 1.28301977e-07 7.66228986e-13 -1 1.28301977e-07 7.66228986e-13 -1 1.28301977e-07 7.66228986e-13 -1 1.28301977e-07 7.66228986e-13 -1 1.28301977e-07 7.66228986e-13 -1 1.28301977e-07 7.66228986e-13 -1 1.28301977e-07 7.66228986e-13 -1 1.28301977e-07 7.66228986e-13 -1 1.28301977e-07 7.66228986e-13 -1 1.28301977e-07 7.66228986e-13 -1 1.28301977e-07 7.66228986e-13 -1 1.28301977e-07 -1 -1.25845306e-11 -1.55543205e-07 -1 -1.25845306e-11 -1.55543205e-07 -1 -1.25845306e-11 -1.55543205e-07 -1 -1.25845306e-11 -1.55543205e-07 -1 -1.25845306e-11 -1.55543205e-07 -1 -1.25845306e-11 -1.55543205e-07 -1 -1.25845306e-11 -1.55543205e-07 -1 -1.25845306e-11 -1.55543205e-07 -1 -1.25845306e-11 -1.55543205e-07 -1 -1.25845306e-11 -1.55543205e-07 -1 -1.25845306e-11 -1.55543205e-07 -1 -1.25845306e-11 -1.55543205e-07 -1 -1.25845306e-11 -1.55543205e-07 -1 -1.25845306e-11 -1.55543205e-07 -1 -1.25845306e-11 -1.55543205e-07 -1 -1.25845306e-11 -1.55543205e-07 -1 -1.25845306e-11 -1.55543205e-07 -1 -1.25845306e-11 -1.55543205e-07 -1 -1.25845306e-11 -1.55543205e-07 -1 -1.25845306e-11 -1.55543205e-07 -1 -1.25845306e-11 -1.55543205e-07 1.55544001e-07 -1.28913001e-07 -1 1.55544001e-07 -1.28913001e-07 -1 1.55544001e-07 -1.28913001e-07 -1 1.55544001e-07 -1.28913001e-07 -1 1.55544001e-07 -1.28913001e-07 -1 1.55544001e-07 -1.28913001e-07 -1 2.05890327e-08 0.991227925 -0.132163838 2.05890327e-08 0.991227925 -0.132163838 2.05890327e-08 0.991227925 -0.132163838 2.05890327e-08 0.991227925 -0.132163838 2.05890327e-08 0.991227925 -0.132163838 2.05890327e-08 0.991227925 -0.132163838 2.05890327e-08 0.991227925 -0.132163838 2.05890327e-08 0.991227925 -0.132163838 2.05890327e-08 0.991227925 -0.132163838 2.05890327e-08 0.991227925 -0.132163838 2.05890327e-08 0.991227925 -0.132163838 2.05890327e-08 0.991227925 -0.132163838 1.55544001e-07 -1.28913001e-07 -1 1.55544001e-07 -1.28913001e-07 -1 1.55544001e-07 -1.28913001e-07 -1 1.55544001e-07 -1.28913001e-07 -1 1.55544001e-07 -1.28913001e-07 -1 1.55544001e-07 -1.28913001e-07 -1 1.55544001e-07 -1.28913001e-07 -1 1.55544001e-07 -1.28913001e-07 -1 1.55544001e-07 -1.28913001e-07 -1 1.55544001e-07 -1.28913001e-07 -1 1.55544001e-07 -1.28913001e-07 -1 1.55544001e-07 -1.28913001e-07 -1 1 1.25844613e-11 1.55543205e-07 1 1.25844613e-11 1.55543205e-07 1 1.25844613e-11 1.55543205e-07 1 1.25844613e-11 1.55543205e-07 1 1.25844613e-11 1.55543205e-07 1 1.25844613e-11 1.55543205e-07 7.66228986e-13 -1 1.28301977e-07 7.66228986e-13 -1 1.28301977e-07 7.66228986e-13 -1 1.28301977e-07 7.66228986e-13 -1 1.28301977e-07 7.66228986e-13 -1 1.28301977e-07 7.66228986e-13 -1 1.28301977e-07 -1 -1.25845306e-11 -1.55543205e-07 -1 -1.25845306e-11 -1.55543205e-07 -1 -1.25845306e-11 -1.55543205e-07 -1 -1.25845306e-11 -1.55543205e-07 -1 -1.25845306e-11 -1.55543205e-07 -1 -1.25845306e-11 -1.55543205e-07 1.55544001e-07 -1.28913001e-07 -1 1.55544001e-07 -1.28913001e-07 -1 1.55544001e-07 -1.28913001e-07 -1 1.55544001e-07 -1.28913001e-07 -1 1.55544001e-07 -1.28913001e-07 -1 1.55544001e-07 -1.28913001e-07 -1 1 1.25844613e-11 1.55543205e-07 1 1.25844613e-11 1.55543205e-07 1 1.25844613e-11 1.55543205e-07 1 1.25844613e-11 1.55543205e-07 1 1.25844613e-11 1.55543205e-07 1 1.25844613e-11 1.55543205e-07 1 1.25844613e-11 1.55543205e-07 1 1.25844613e-11 1.55543205e-07 1 1.25844613e-11 1.55543205e-07 1.55544001e-07 -1.28913001e-07 -1 1.55544001e-07 -1.28913001e-07 -1 1.55544001e-07 -1.28913001e-07 -1 1.55544001e-07 -1.28913001e-07 -1 1.55544001e-07 -1.28913001e-07 -1 1.55544001e-07 -1.28913001e-07 -1 -1 -1.25845306e-11 -1.55543205e-07 -1 -1.25845306e-11 -1.55543205e-07 -1 -1.25845306e-11 -1.55543205e-07 -1 -1.25845306e-11 -1.55543205e-07 -1 -1.25845306e-11 -1.55543205e-07 -1 -1.25845306e-11 -1.55543205e-07 1.55544001e-07 -1.28913001e-07 -1 1.55544001e-07 -1.28913001e-07 -1 1.55544001e-07 -1.28913001e-07 -1 1.55544001e-07 -1.28913001e-07 -1 1.55544001e-07 -1.28913001e-07 -1 1.55544001e-07 -1.28913001e-07 -1 1 1.25844613e-11 1.55543205e-07 1 1.25844613e-11 1.55543205e-07 1 1.25844613e-11 1.55543205e-07 1 1.25844613e-11 1.55543205e-07 1 1.25844613e-11 1.55543205e-07 1 1.25844613e-11 1.55543205e-07 1.55544001e-07 -1.28913001e-07 -1 1.55544001e-07 -1.28913001e-07 -1 1.55544001e-07 -1.28913001e-07 -1 1.55544001e-07 -1.28913001e-07 -1 1.55544001e-07 -1.28913001e-07 -1 1.55544001e-07 -1.28913001e-07 -1 7.66228986e-13 -1 1.28301977e-07 7.66228986e-13 -1 1.28301977e-07 7.66228986e-13 -1 1.28301977e-07 7.66228986e-13 -1 1.28301977e-07 7.66228986e-13 -1 1.28301977e-07 7.66228986e-13 -1 1.28301977e-07 -1 -1.25845306e-11 -1.55543205e-07 -1 -1.25845306e-11 -1.55543205e-07 -1 -1.25845306e-11 -1.55543205e-07 -1 -1.25845306e-11 -1.55543205e-07 -1 -1.25845306e-11 -1.55543205e-07 -1 -1.25845306e-11 -1.55543205e-07 7.66228986e-13 -1 1.28301977e-07 7.66228986e-13 -1 1.28301977e-07 7.66228986e-13 -1 1.28301977e-07 7.66228986e-13 -1 1.28301977e-07 7.66228986e-13 -1 1.28301977e-07 7.66228986e-13 -1 1.28301977e-07 -7.66228986e-13 1 -1.28301977e-07 -7.66228986e-13 1 -1.28301977e-07 -7.66228986e-13 1 -1.28301977e-07 -7.66228986e-13 1 -1.28301977e-07 -7.66228986e-13 1 -1.28301977e-07 -7.66228986e-13 1 -1.28301977e-07 -7.66228986e-13 1 -1.28301977e-07 -7.66228986e-13 1 -1.28301977e-07 -7.66228986e-13 1 -1.28301977e-07 -1.55544001e-07 1.28913001e-07 1 -1.55544001e-07 1.28913001e-07 1 -1.55544001e-07 1.28913001e-07 1 -1.55544001e-07 1.28913001e-07 1 -1.55544001e-07 1.28913001e-07 1 -1.55544001e-07 1.28913001e-07 1 -1.55544001e-07 1.28913001e-07 1 -1.55544001e-07 1.28913001e-07 1 -1.55544001e-07 1.28913001e-07 1 -1.55544001e-07 1.28913001e-07 1 -1.55544001e-07 1.28913001e-07 1 -1.55544001e-07 1.28913001e-07 1 -1.55544001e-07 1.28913001e-07 1 -1.55544001e-07 1.28913001e-07 1 -1.55544001e-07 1.28913001e-07 1 -1.55544001e-07 1.28913001e-07 1 -1.55544001e-07 1.28913001e-07 1 -1.55544001e-07 1.28913001e-07 1 -1.55544001e-07 1.28913001e-07 1 -1.55544001e-07 1.28913001e-07 1 -1.55544001e-07 1.28913001e-07 1 -1.55544001e-07 1.28913001e-07 1 -1.55544001e-07 1.28913001e-07 1 -1.55544001e-07 1.28913001e-07 1 -1.55544001e-07 1.28913001e-07 1 -1.55544001e-07 1.28913001e-07 1 -1.55544001e-07 1.28913001e-07 1 -7.66228986e-13 1 -1.28301977e-07 -7.66228986e-13 1 -1.28301977e-07 -7.66228986e-13 1 -1.28301977e-07 -7.66228986e-13 1 -1.28301977e-07 -7.66228986e-13 1 -1.28301977e-07 -7.66228986e-13 1 -1.28301977e-07 -7.66228986e-13 1 -1.28301977e-07 -7.66228986e-13 1 -1.28301977e-07 -7.66228986e-13 1 -1.28301977e-07 -1.55544001e-07 1.28913001e-07 1 -1.55544001e-07 1.28913001e-07 1 -1.55544001e-07 1.28913001e-07 1 -1.55544001e-07 1.28913001e-07 1 -1.55544001e-07 1.28913001e-07 1 -1.55544001e-07 1.28913001e-07 1 -7.66228986e-13 1 -1.28301977e-07 -7.66228986e-13 1 -1.28301977e-07 -7.66228986e-13 1 -1.28301977e-07 -7.66228986e-13 1 -1.28301977e-07 -7.66228986e-13 1 -1.28301977e-07 -7.66228986e-13 1 -1.28301977e-07 1 1.25844613e-11 1.55543205e-07 1 1.25844613e-11 1.55543205e-07 1 1.25844613e-11 1.55543205e-07 1 1.25844613e-11 1.55543205e-07 1 1.25844613e-11 1.55543205e-07 1 1.25844613e-11 1.55543205e-07 1 1.25844613e-11 1.55543205e-07 1 1.25844613e-11 1.55543205e-07 1 1.25844613e-11 1.55543205e-07 1 1.25844613e-11 1.55543205e-07 1 1.25844613e-11 1.55543205e-07 1 1.25844613e-11 1.55543205e-07 -2.0543224e-08 0.991227925 0.132163584 -2.0543224e-08 0.991227925 0.132163584 -2.0543224e-08 0.991227925 0.132163584 -2.0543224e-08 0.991227925 0.132163584 -2.0543224e-08 0.991227925 0.132163584 -2.0543224e-08 0.991227925 0.132163584 -1 -1.25845306e-11 -1.55543205e-07 -1 -1.25845306e-11 -1.55543205e-07 -1 -1.25845306e-11 -1.55543205e-07 -1 -1.25845306e-11 -1.55543205e-07 -1 -1.25845306e-11 -1.55543205e-07 -1 -1.25845306e-11 -1.55543205e-07 -1 -1.25845306e-11 -1.55543205e-07 -1 -1.25845306e-11 -1.55543205e-07 -1 -1.25845306e-11 -1.55543205e-07 -1 -1.25845306e-11 -1.55543205e-07 -1 -1.25845306e-11 -1.55543205e-07 -1 -1.25845306e-11 -1.55543205e-07 -1 -1.25845306e-11 -1.55543205e-07 -1 -1.25845306e-11 -1.55543205e-07 -1 -1.25845306e-11 -1.55543205e-07 -1 -1.25845306e-11 -1.55543205e-07 -1 -1.25845306e-11 -1.55543205e-07 -1 -1.25845306e-11 -1.55543205e-07 -1 -1.25845306e-11 -1.55543205e-07 -1 -1.25845306e-11 -1.55543205e-07 -1 -1.25845306e-11 -1.55543205e-07 2.05890327e-08 0.991227925 -0.132163838 2.05890327e-08 0.991227925 -0.132163838 2.05890327e-08 0.991227925 -0.132163838 2.05890327e-08 0.991227925 -0.132163838 2.05890327e-08 0.991227925 -0.132163838 2.05890327e-08 0.991227925 -0.132163838 2.05890327e-08 0.991227925 -0.132163838 2.05890327e-08 0.991227925 -0.132163838 2.05890327e-08 0.991227925 -0.132163838 2.05890327e-08 0.991227925 -0.132163838 2.05890327e-08 0.991227925 -0.132163838 2.05890327e-08 0.991227925 -0.132163838 1.55544001e-07 -1.28913001e-07 -1 1.55544001e-07 -1.28913001e-07 -1 1.55544001e-07 -1.28913001e-07 -1 1.55544001e-07 -1.28913001e-07 -1 1.55544001e-07 -1.28913001e-07 -1 1.55544001e-07 -1.28913001e-07 -1 1.55544001e-07 -1.28913001e-07 -1 1.55544001e-07 -1.28913001e-07 -1 1.55544001e-07 -1.28913001e-07 -1 7.66228986e-13 -1 1.28301977e-07 7.66228986e-13 -1 1.28301977e-07 7.66228986e-13 -1 1.28301977e-07 7.66228986e-13 -1 1.28301977e-07 7.66228986e-13 -1 1.28301977e-07 7.66228986e-13 -1 1.28301977e-07 1 1.25844613e-11 1.55543205e-07 1 1.25844613e-11 1.55543205e-07 1 1.25844613e-11 1.55543205e-07 1 1.25844613e-11 1.55543205e-07 1 1.25844613e-11 1.55543205e-07 1 1.25844613e-11 1.55543205e-07 1 1.25844613e-11 1.55543205e-07 1 1.25844613e-11 1.55543205e-07 1 1.25844613e-11 1.55543205e-07 1 1.25844613e-11 1.55543205e-07 1 1.25844613e-11 1.55543205e-07 1 1.25844613e-11 1.55543205e-07 2.05890327e-08 0.991227925 -0.132163838 2.05890327e-08 0.991227925 -0.132163838 2.05890327e-08 0.991227925 -0.132163838 2.05890327e-08 0.991227925 -0.132163838 2.05890327e-08 0.991227925 -0.132163838 2.05890327e-08 0.991227925 -0.132163838 1.55544001e-07 -1.28913001e-07 -1 1.55544001e-07 -1.28913001e-07 -1 1.55544001e-07 -1.28913001e-07 -1 2.05890327e-08 0.991227925 -0.132163838 2.05890327e-08 0.991227925 -0.132163838 2.05890327e-08 0.991227925 -0.132163838 2.05890327e-08 0.991227925 -0.132163838 2.05890327e-08 0.991227925 -0.132163838 2.05890327e-08 0.991227925 -0.132163838 -1.03733377e-08 -0.997785151 0.0665191337 -2.05890327e-08 -0.991227925 0.132163838 1.02871143e-08 -0.997785211 -0.0665188804 -2.05890327e-08 -0.991227925 0.132163838 -1.03733377e-08 -0.997785151 0.0665191337 -2.05890327e-08 -0.991227925 0.132163838 1.02871143e-08 -0.997785211 -0.0665188804 2.0543224e-08 -0.991227925 -0.132163584 -1.03733377e-08 -0.997785151 0.0665191337 2.0543224e-08 -0.991227925 -0.132163584 1.02871143e-08 -0.997785211 -0.0665188804 2.0543224e-08 -0.991227925 -0.132163584 1 1.25844613e-11 1.55543205e-07 1 1.25844613e-11 1.55543205e-07 1 1.25844613e-11 1.55543205e-07 1 1.25844613e-11 1.55543205e-07 1 1.25844613e-11 1.55543205e-07 1 1.25844613e-11 1.55543205e-07 1 1.25844613e-11 1.55543205e-07 1 1.25844613e-11 1.55543205e-07 1 1.25844613e-11 1.55543205e-07 -2.0543224e-08 0.991227925 0.132163584 -2.0543224e-08 0.991227925 0.132163584 -2.0543224e-08 0.991227925 0.132163584 -2.0543224e-08 0.991227925 0.132163584 -2.0543224e-08 0.991227925 0.132163584 -2.0543224e-08 0.991227925 0.132163584 -1 -1.25845306e-11 -1.55543205e-07 -1 -1.25845306e-11 -1.55543205e-07 -1 -1.25845306e-11 -1.55543205e-07 -1 -1.25845306e-11 -1.55543205e-07 -1 -1.25845306e-11 -1.55543205e-07 -1 -1.25845306e-11 -1.55543205e-07 -1 -1.25845306e-11 -1.55543205e-07 -1 -1.25845306e-11 -1.55543205e-07 -1 -1.25845306e-11 -1.55543205e-07 -1.55544001e-07 1.28913001e-07 1 -1.55544001e-07 1.28913001e-07 1 -1.55544001e-07 1.28913001e-07 1 -1.55544001e-07 1.28913001e-07 1 -1.55544001e-07 1.28913001e-07 1 -1.55544001e-07 1.28913001e-07 1 1.55544001e-07 -1.28913001e-07 -1 1.55544001e-07 -1.28913001e-07 -1 1.55544001e-07 -1.28913001e-07 -1 -7.66228986e-13 1 -1.28301977e-07 -7.66228986e-13 1 -1.28301977e-07 -7.66228986e-13 1 -1.28301977e-07 -7.66228986e-13 1 -1.28301977e-07 -7.66228986e-13 1 -1.28301977e-07 -7.66228986e-13 1 -1.28301977e-07 1.02871143e-08 -0.997785211 -0.0665188804 2.0543224e-08 -0.991227925 -0.132163584 -1.03733377e-08 -0.997785151 0.0665191337 2.0543224e-08 -0.991227925 -0.132163584 1.02871143e-08 -0.997785211 -0.0665188804 2.0543224e-08 -0.991227925 -0.132163584 1 1.25844613e-11 1.55543205e-07 1 1.25844613e-11 1.55543205e-07 1 1.25844613e-11 1.55543205e-07 -1.55544001e-07 1.28913001e-07 1 -1.55544001e-07 1.28913001e-07 1 -1.55544001e-07 1.28913001e-07 1 -1.55544001e-07 1.28913001e-07 1 -1.55544001e-07 1.28913001e-07 1 -1.55544001e-07 1.28913001e-07 1 </float_array>
          <technique_common>
            <accessor count="537" offset="0" source="#mesh_0-normals-array" stride="3">
              <param name="X" type="float" />
              <param name="Y" type="float" />
              <param name="Z" type="float" />
            </accessor>
          </technique_common>
        </source>
        <vertices id="mesh_0-vertices">
          <input semantic="POSITION" source="#mesh_0-positions" />
        </vertices>
        <polylist count="179" material="defaultMaterial">
          <input offset="0" semantic="VERTEX" source="#mesh_0-vertices" />
          <input offset="0" semantic="NORMAL" source="#mesh_0-normals" />
          <vcount>3 3 3 3 3 3 3 3 3 3 3 3 3 3 3 3 3 3 3 3 3 3 3 3 3 3 3 3 3 3 3 3 3 3 3 3 3 3 3 3 3 3 3 3 3 3 3 3 3 3 3 3 3 3 3 3 3 3 3 3 3 3 3 3 3 3 3 3 3 3 3 3 3 3 3 3 3 3 3 3 3 3 3 3 3 3 3 3 3 3 3 3 3 3 3 3 3 3 3 3 3 3 3 3 3 3 3 3 3 3 3 3 3 3 3 3 3 3 3 3 3 3 3 3 3 3 3 3 3 3 3 3 3 3 3 3 3 3 3 3 3 3 3 3 3 3 3 3 3 3 3 3 3 3 3 3 3 3 3 3 3 3 3 3 3 3 3 3 3 3 3 3 3 3 3 3 3 3 3 </vcount>
          <p>0 1 2 3 4 5 6 7 8 9 10 11 12 13 14 15 16 17 18 19 20 21 22 23 24 25 26 27 28 29 30 31 32 33 34 35 36 37 38 39 40 41 42 43 44 45 46 47 48 49 50 51 52 53 54 55 56 57 58 59 60 61 62 63 64 65 66 67 68 69 70 71 72 73 74 75 76 77 78 79 80 81 82 83 84 85 86 87 88 89 90 91 92 93 94 95 96 97 98 99 100 101 102 103 104 105 106 107 108 109 110 111 112 113 114 115 116 117 118 119 120 121 122 123 124 125 126 127 128 129 130 131 132 133 134 135 136 137 138 139 140 141 142 143 144 145 146 147 148 149 150 151 152 153 154 155 156 157 158 159 160 161 162 163 164 165 166 167 168 169 170 171 172 173 174 175 176 177 178 179 180 181 182 183 184 185 186 187 188 189 190 191 192 193 194 195 196 197 198 199 200 201 202 203 204 205 206 207 208 209 210 211 212 213 214 215 216 217 218 219 220 221 222 223 224 225 226 227 228 229 230 231 232 233 234 235 236 237 238 239 240 241 242 243 244 245 246 247 248 249 250 251 252 253 254 255 256 257 258 259 260 261 262 263 264 265 266 267 268 269 270 271 272 273 274 275 276 277 278 279 280 281 282 283 284 285 286 287 288 289 290 291 292 293 294 295 296 297 298 299 300 301 302 303 304 305 306 307 308 309 310 311 312 313 314 315 316 317 318 319 320 321 322 323 324 325 326 327 328 329 330 331 332 333 334 335 336 337 338 339 340 341 342 343 344 345 346 347 348 349 350 351 352 353 354 355 356 357 358 359 360 361 362 363 364 365 366 367 368 369 370 371 372 373 374 375 376 377 378 379 380 381 382 383 384 385 386 387 388 389 390 391 392 393 394 395 396 397 398 399 400 401 402 403 404 405 406 407 408 409 410 411 412 413 414 415 416 417 418 419 420 421 422 423 424 425 426 427 428 429 430 431 432 433 434 435 436 437 438 439 440 441 442 443 444 445 446 447 448 449 450 451 452 453 454 455 456 457 458 459 460 461 462 463 464 465 466 467 468 469 470 471 472 473 474 475 476 477 478 479 480 481 482 483 484 485 486 487 488 489 490 491 492 493 494 495 496 497 498 499 500 501 502 503 504 505 506 507 508 509 510 511 512 513 514 515 516 517 518 519 520 521 522 523 524 525 526 527 528 529 530 531 532 533 534 535 536 </p>
        </polylist>
      </mesh>
    </geometry>
    <geometry id="mesh_1" name="" >
      <mesh>
        <source id="mesh_1-positions" name="mesh_1-positions">
          <float_array id="mesh_1-positions-array" count="468"> -0.110000148 -3.71272922 1.17901826 0.210000083 -3.69285131 1.18122685 -0.11000023 -3.69285131 1.18122697 0.210000083 -3.69285131 1.18122685 -0.110000148 -3.71272922 1.17901826 0.210000113 -3.71272898 1.17901838 -0.110000148 -3.71272922 1.17901826 0.210000038 -3.7083118 1.1392628 0.210000113 -3.71272898 1.17901838 0.210000038 -3.7083118 1.1392628 -0.110000148 -3.71272922 1.17901826 -0.110000163 -3.7083118 1.13926291 -0.110000148 -3.71272922 1.17901826 -0.110000148 -3.68843412 1.14147139 -0.110000163 -3.7083118 1.13926291 -0.110000148 -3.68843412 1.14147139 -0.110000148 -3.71272922 1.17901826 -0.11000023 -3.69285131 1.18122697 0.210000083 -3.69285131 1.18122685 -0.110000148 -3.68843412 1.14147139 -0.11000023 -3.69285131 1.18122697 -0.110000148 -3.68843412 1.14147139 0.210000083 -3.69285131 1.18122685 0.210000142 -3.68843412 1.14147139 0.210000083 -3.69285131 1.18122685 0.210000038 -3.7083118 1.1392628 0.210000142 -3.68843412 1.14147139 0.210000038 -3.7083118 1.1392628 0.210000083 -3.69285131 1.18122685 0.210000113 -3.71272898 1.17901838 0.210000038 -3.7083118 1.1392628 -0.110000148 -3.68843412 1.14147139 0.210000142 -3.68843412 1.14147139 -0.110000148 -3.68843412 1.14147139 0.210000038 -3.7083118 1.1392628 -0.110000163 -3.7083118 1.13926291 -0.110000178 -3.70389462 1.09950745 0.210000187 -3.68401694 1.10171604 -0.110000178 -3.68401694 1.10171604 0.210000187 -3.68401694 1.10171604 -0.110000178 -3.70389462 1.09950745 0.210000142 -3.70389462 1.09950757 -0.110000178 -3.70389462 1.09950745 0.210000098 -3.69947743 1.05975199 0.210000142 -3.70389462 1.09950757 0.210000098 -3.69947743 1.05975199 -0.110000178 -3.70389462 1.09950745 -0.110000141 -3.69947743 1.05975199 -0.110000178 -3.70389462 1.09950745 -0.110000178 -3.67959952 1.06196082 -0.110000141 -3.69947743 1.05975199 -0.110000178 -3.67959952 1.06196082 -0.110000178 -3.70389462 1.09950745 -0.110000178 -3.68401694 1.10171604 0.210000187 -3.68401694 1.10171604 -0.110000178 -3.67959952 1.06196082 -0.110000178 -3.68401694 1.10171604 -0.110000178 -3.67959952 1.06196082 0.210000187 -3.68401694 1.10171604 0.210000068 -3.67959976 1.0619607 0.210000187 -3.68401694 1.10171604 0.210000098 -3.69947743 1.05975199 0.210000068 -3.67959976 1.0619607 0.210000098 -3.69947743 1.05975199 0.210000187 -3.68401694 1.10171604 0.210000142 -3.70389462 1.09950757 0.210000098 -3.69947743 1.05975199 -0.110000178 -3.67959952 1.06196082 0.210000068 -3.67959976 1.0619607 -0.110000178 -3.67959952 1.06196082 0.210000098 -3.69947743 1.05975199 -0.110000141 -3.69947743 1.05975199 -0.150000155 -3.6349988 0.75 0.250000238 -3.27499866 0.749999762 -0.150000155 -3.27499866 0.749999702 0.250000238 -3.27499866 0.749999762 -0.150000155 -3.6349988 0.75 0.250000119 -3.6349988 0.75 -0.150000155 -3.6349988 0.75 -0.110000096 -3.6349988 0.70999974 -0.110000119 -3.6349988 0.749999821 -0.110000096 -3.6349988 0.70999974 -0.150000155 -3.6349988 0.75 -0.15000014 -3.6349988 0.709999859 -0.150000155 -3.6349988 0.75 -0.150000125 -3.27499866 0.7099998 -0.15000014 -3.6349988 0.709999859 -0.150000125 -3.27499866 0.7099998 -0.150000155 -3.6349988 0.75 -0.150000155 -3.27499866 0.749999702 0.250000238 -3.27499866 0.749999762 -0.150000125 -3.27499866 0.7099998 -0.150000155 -3.27499866 0.749999702 -0.150000125 -3.27499866 0.7099998 0.250000238 -3.27499866 0.749999762 0.25000006 -3.27499866 0.709999859 0.250000238 -3.27499866 0.749999762 0.250000179 -3.6349988 0.7099998 0.25000006 -3.27499866 0.709999859 0.250000179 -3.6349988 0.7099998 0.250000238 -3.27499866 0.749999762 0.250000119 -3.6349988 0.75 0.210000142 -3.6349988 0.75 0.250000179 -3.6349988 0.7099998 0.250000119 -3.6349988 0.75 0.250000179 -3.6349988 0.7099998 0.210000142 -3.6349988 0.75 0.210000113 -3.6349988 0.7099998 -0.110000119 -3.6349988 0.749999821 0.210000113 -3.6349988 0.7099998 0.210000142 -3.6349988 0.75 0.210000113 -3.6349988 0.7099998 -0.110000119 -3.6349988 0.749999821 -0.110000096 -3.6349988 0.70999974 -0.150000125 -3.27499866 0.7099998 0.250000179 -3.6349988 0.7099998 -0.15000014 -3.6349988 0.709999859 0.250000179 -3.6349988 0.7099998 -0.150000125 -3.27499866 0.7099998 0.25000006 -3.27499866 0.709999859 -0.110000096 -3.69506001 1.01999676 0.210000172 -3.67518234 1.02220535 -0.110000178 -3.67518234 1.02220523 0.210000172 -3.67518234 1.02220535 -0.110000096 -3.69506001 1.01999676 0.210000083 -3.69506001 1.01999664 -0.110000096 -3.69506001 1.01999676 0.210000128 -3.69064283 0.980241477 0.210000083 -3.69506001 1.01999664 0.210000128 -3.69064283 0.980241477 -0.110000096 -3.69506001 1.01999676 -0.110000126 -3.6906426 0.980241299 -0.110000096 -3.69506001 1.01999676 -0.110000156 -3.67076516 0.982449949 -0.110000126 -3.6906426 0.980241299 -0.110000156 -3.67076516 0.982449949 -0.110000096 -3.69506001 1.01999676 -0.110000178 -3.67518234 1.02220523 0.210000172 -3.67518234 1.02220535 -0.110000156 -3.67076516 0.982449949 -0.110000178 -3.67518234 1.02220523 -0.110000156 -3.67076516 0.982449949 0.210000172 -3.67518234 1.02220535 0.210000113 -3.67076516 0.982449949 0.210000172 -3.67518234 1.02220535 0.210000128 -3.69064283 0.980241477 0.210000113 -3.67076516 0.982449949 0.210000128 -3.69064283 0.980241477 0.210000172 -3.67518234 1.02220535 0.210000083 -3.69506001 1.01999664 0.210000128 -3.69064283 0.980241477 -0.110000156 -3.67076516 0.982449949 0.210000113 -3.67076516 0.982449949 -0.110000156 -3.67076516 0.982449949 0.210000128 -3.69064283 0.980241477 -0.110000126 -3.6906426 0.980241299 </float_array>
          <technique_common>
            <accessor count="156" offset="0" source="#mesh_1-positions-array" stride="3">
              <param name="X" type="float" />
              <param name="Y" type="float" />
              <param name="Z" type="float" />
            </accessor>
          </technique_common>
        </source>
        <source id="mesh_1-normals" name="mesh_1-normals">
          <float_array id="mesh_1-normals-array" count="468"> -1.54170465e-07 -0.132163599 0.991227925 -1.54170465e-07 -0.132163599 0.991227925 -1.54170465e-07 -0.132163599 0.991227925 -1.54170465e-07 -0.132163599 0.991227925 -1.54170465e-07 -0.132163599 0.991227925 -1.54170465e-07 -0.132163599 0.991227925 2.05664534e-08 -0.991227925 -0.132163599 2.05664534e-08 -0.991227925 -0.132163599 2.05664534e-08 -0.991227925 -0.132163599 2.05664534e-08 -0.991227925 -0.132163599 2.05664534e-08 -0.991227925 -0.132163599 2.05664534e-08 -0.991227925 -0.132163599 -1 -9.90722174e-12 -1.55534977e-07 -1 -9.90722174e-12 -1.55534977e-07 -1 -9.90722174e-12 -1.55534977e-07 -1 -9.90722174e-12 -1.55534977e-07 -1 -9.90722174e-12 -1.55534977e-07 -1 -9.90722174e-12 -1.55534977e-07 -2.05664534e-08 0.991227925 0.132163599 -2.05664534e-08 0.991227925 0.132163599 -2.05664534e-08 0.991227925 0.132163599 -2.05664534e-08 0.991227925 0.132163599 -2.05664534e-08 0.991227925 0.132163599 -2.05664534e-08 0.991227925 0.132163599 1 9.90722174e-12 1.55534977e-07 1 9.90722174e-12 1.55534977e-07 1 9.90722174e-12 1.55534977e-07 1 9.90722174e-12 1.55534977e-07 1 9.90722174e-12 1.55534977e-07 1 9.90722174e-12 1.55534977e-07 1.54170465e-07 0.132163599 -0.991227925 1.54170465e-07 0.132163599 -0.991227925 1.54170465e-07 0.132163599 -0.991227925 1.54170465e-07 0.132163599 -0.991227925 1.54170465e-07 0.132163599 -0.991227925 1.54170465e-07 0.132163599 -0.991227925 -1.54170465e-07 -0.132163599 0.991227925 -1.54170465e-07 -0.132163599 0.991227925 -1.54170465e-07 -0.132163599 0.991227925 -1.54170465e-07 -0.132163599 0.991227925 -1.54170465e-07 -0.132163599 0.991227925 -1.54170465e-07 -0.132163599 0.991227925 2.05664534e-08 -0.991227925 -0.132163599 2.05664534e-08 -0.991227925 -0.132163599 2.05664534e-08 -0.991227925 -0.132163599 2.05664534e-08 -0.991227925 -0.132163599 2.05664534e-08 -0.991227925 -0.132163599 2.05664534e-08 -0.991227925 -0.132163599 -1 -9.90722174e-12 -1.55534977e-07 -1 -9.90722174e-12 -1.55534977e-07 -1 -9.90722174e-12 -1.55534977e-07 -1 -9.90722174e-12 -1.55534977e-07 -1 -9.90722174e-12 -1.55534977e-07 -1 -9.90722174e-12 -1.55534977e-07 -2.05664534e-08 0.991227925 0.132163599 -2.05664534e-08 0.991227925 0.132163599 -2.05664534e-08 0.991227925 0.132163599 -2.05664534e-08 0.991227925 0.132163599 -2.05664534e-08 0.991227925 0.132163599 -2.05664534e-08 0.991227925 0.132163599 1 9.90722174e-12 1.55534977e-07 1 9.90722174e-12 1.55534977e-07 1 9.90722174e-12 1.55534977e-07 1 9.90722174e-12 1.55534977e-07 1 9.90722174e-12 1.55534977e-07 1 9.90722174e-12 1.55534977e-07 1.54170465e-07 0.132163599 -0.991227925 1.54170465e-07 0.132163599 -0.991227925 1.54170465e-07 0.132163599 -0.991227925 1.54170465e-07 0.132163599 -0.991227925 1.54170465e-07 0.132163599 -0.991227925 1.54170465e-07 0.132163599 -0.991227925 -1.55543873e-07 1.27564164e-07 1 -1.55543873e-07 1.27564164e-07 1 -1.55543873e-07 1.27564164e-07 1 -1.55543873e-07 1.27564164e-07 1 -1.55543873e-07 1.27564164e-07 1 -1.55543873e-07 1.27564164e-07 1 1.46624119e-11 -1 9.67592868e-08 1.46624119e-11 -1 9.67592868e-08 1.46624119e-11 -1 9.67592868e-08 1.46624119e-11 -1 9.67592868e-08 1.46624119e-11 -1 9.67592868e-08 1.46624119e-11 -1 9.67592868e-08 -1 -9.90722174e-12 -1.55534977e-07 -1 -9.90722174e-12 -1.55534977e-07 -1 -9.90722174e-12 -1.55534977e-07 -1 -9.90722174e-12 -1.55534977e-07 -1 -9.90722174e-12 -1.55534977e-07 -1 -9.90722174e-12 -1.55534977e-07 -1.46623564e-11 1 -9.67592868e-08 -1.46623564e-11 1 -9.67592868e-08 -1.46623564e-11 1 -9.67592868e-08 -1.46623564e-11 1 -9.67592868e-08 -1.46623564e-11 1 -9.67592868e-08 -1.46623564e-11 1 -9.67592868e-08 1 9.90722174e-12 1.55534977e-07 1 9.90722174e-12 1.55534977e-07 1 9.90722174e-12 1.55534977e-07 1 9.90722174e-12 1.55534977e-07 1 9.90722174e-12 1.55534977e-07 1 9.90722174e-12 1.55534977e-07 1.46624119e-11 -1 9.67592868e-08 1.46624119e-11 -1 9.67592868e-08 1.46624119e-11 -1 9.67592868e-08 1.46624119e-11 -1 9.67592868e-08 1.46624119e-11 -1 9.67592868e-08 1.46624119e-11 -1 9.67592868e-08 1.46624119e-11 -1 9.67592868e-08 1.46624119e-11 -1 9.67592868e-08 1.46624119e-11 -1 9.67592868e-08 1.46624119e-11 -1 9.67592868e-08 1.46624119e-11 -1 9.67592868e-08 1.46624119e-11 -1 9.67592868e-08 1.55543873e-07 -1.27564164e-07 -1 1.55543873e-07 -1.27564164e-07 -1 1.55543873e-07 -1.27564164e-07 -1 1.55543873e-07 -1.27564164e-07 -1 1.55543873e-07 -1.27564164e-07 -1 1.55543873e-07 -1.27564164e-07 -1 -1.54170465e-07 -0.132163599 0.991227925 -1.54170465e-07 -0.132163599 0.991227925 -1.54170465e-07 -0.132163599 0.991227925 -1.54170465e-07 -0.132163599 0.991227925 -1.54170465e-07 -0.132163599 0.991227925 -1.54170465e-07 -0.132163599 0.991227925 2.05664534e-08 -0.991227925 -0.132163599 2.05664534e-08 -0.991227925 -0.132163599 2.05664534e-08 -0.991227925 -0.132163599 2.05664534e-08 -0.991227925 -0.132163599 2.05664534e-08 -0.991227925 -0.132163599 2.05664534e-08 -0.991227925 -0.132163599 -1 -9.90722174e-12 -1.55534977e-07 -1 -9.90722174e-12 -1.55534977e-07 -1 -9.90722174e-12 -1.55534977e-07 -1 -9.90722174e-12 -1.55534977e-07 -1 -9.90722174e-12 -1.55534977e-07 -1 -9.90722174e-12 -1.55534977e-07 -2.05664534e-08 0.991227925 0.132163599 -2.05664534e-08 0.991227925 0.132163599 -2.05664534e-08 0.991227925 0.132163599 -2.05664534e-08 0.991227925 0.132163599 -2.05664534e-08 0.991227925 0.132163599 -2.05664534e-08 0.991227925 0.132163599 1 9.90722174e-12 1.55534977e-07 1 9.90722174e-12 1.55534977e-07 1 9.90722174e-12 1.55534977e-07 1 9.90722174e-12 1.55534977e-07 1 9.90722174e-12 1.55534977e-07 1 9.90722174e-12 1.55534977e-07 1.54170465e-07 0.132163599 -0.991227925 1.54170465e-07 0.132163599 -0.991227925 1.54170465e-07 0.132163599 -0.991227925 1.54170465e-07 0.132163599 -0.991227925 1.54170465e-07 0.132163599 -0.991227925 1.54170465e-07 0.132163599 -0.991227925 </float_array>
          <technique_common>
            <accessor count="156" offset="0" source="#mesh_1-normals-array" stride="3">
              <param name="X" type="float" />
              <param name="Y" type="float" />
              <param name="Z" type="float" />
            </accessor>
          </technique_common>
        </source>
        <vertices id="mesh_1-vertices">
          <input semantic="POSITION" source="#mesh_1-positions" />
        </vertices>
        <polylist count="52" material="defaultMaterial">
          <input offset="0" semantic="VERTEX" source="#mesh_1-vertices" />
          <input offset="0" semantic="NORMAL" source="#mesh_1-normals" />
          <vcount>3 3 3 3 3 3 3 3 3 3 3 3 3 3 3 3 3 3 3 3 3 3 3 3 3 3 3 3 3 3 3 3 3 3 3 3 3 3 3 3 3 3 3 3 3 3 3 3 3 3 3 3 </vcount>
          <p>0 1 2 3 4 5 6 7 8 9 10 11 12 13 14 15 16 17 18 19 20 21 22 23 24 25 26 27 28 29 30 31 32 33 34 35 36 37 38 39 40 41 42 43 44 45 46 47 48 49 50 51 52 53 54 55 56 57 58 59 60 61 62 63 64 65 66 67 68 69 70 71 72 73 74 75 76 77 78 79 80 81 82 83 84 85 86 87 88 89 90 91 92 93 94 95 96 97 98 99 100 101 102 103 104 105 106 107 108 109 110 111 112 113 114 115 116 117 118 119 120 121 122 123 124 125 126 127 128 129 130 131 132 133 134 135 136 137 138 139 140 141 142 143 144 145 146 147 148 149 150 151 152 153 154 155 </p>
        </polylist>
      </mesh>
    </geometry>
  </library_geometries>
  <library_controllers>
  </library_controllers>
  <library_visual_scenes>
    <visual_scene id="Scene" name="Scene">
      <node id="node" name="" type="NODE">
        <matrix sid="matrix">1 0 0 0 0 1 0 0 0 0 1 0 0 0 0 1</matrix>
        <instance_geometry url="#mesh_0">
          <bind_material>
            <technique_common>
              <instance_material symbol="defaultMaterial" target="#material_0">
              </instance_material>
            </technique_common>
          </bind_material>
        </instance_geometry>
        <instance_geometry url="#mesh_1">
          <bind_material>
            <technique_common>
              <instance_material symbol="defaultMaterial" target="#material_1">
              </instance_material>
            </technique_common>
          </bind_material>
        </instance_geometry>
      </node>
    </visual_scene>
  </library_visual_scenes>
  <scene>
    <instance_visual_scene url="#Scene" />
  </scene>
</COLLADA>
