<?xml version="1.0" encoding="utf-8"?>
<COLLADA xmlns="http://www.collada.org/2005/11/COLLADASchema" version="1.4.1" xmlns:xsi="http://www.w3.org/2001/XMLSchema-instance">
  <asset>
    <contributor>
      <author>Blender User</author>
      <authoring_tool>Blender 4.0.2 commit date:2023-12-05, commit time:07:41, hash:9be62e85b727</authoring_tool>
    </contributor>
    <created>2024-01-15T15:25:45</created>
    <modified>2024-01-15T15:25:45</modified>
    <unit name="meter" meter="1"/>
    <up_axis>Z_UP</up_axis>
  </asset>
  <library_cameras>
    <camera id="Camera-camera" name="Camera">
      <optics>
        <technique_common>
          <perspective>
            <xfov sid="xfov">39.59775</xfov>
            <aspect_ratio>1.777778</aspect_ratio>
            <znear sid="znear">0.1</znear>
            <zfar sid="zfar">100</zfar>
          </perspective>
        </technique_common>
      </optics>
      <extra>
        <technique profile="blender">
          <shiftx sid="shiftx" type="float">0</shiftx>
          <shifty sid="shifty" type="float">0</shifty>
          <dof_distance sid="dof_distance" type="float">10</dof_distance>
        </technique>
      </extra>
    </camera>
  </library_cameras>
  <library_lights>
    <light id="Light-light" name="Light">
      <technique_common>
        <point>
          <color sid="color">1000 1000 1000</color>
          <constant_attenuation>1</constant_attenuation>
          <linear_attenuation>0</linear_attenuation>
          <quadratic_attenuation>0</quadratic_attenuation>
        </point>
      </technique_common>
      <extra>
        <technique profile="blender">
          <type sid="type" type="int">0</type>
          <flag sid="flag" type="int">0</flag>
          <mode sid="mode" type="int">1</mode>
          <red sid="red" type="float">1</red>
          <green sid="green" type="float">1</green>
          <blue sid="blue" type="float">1</blue>
          <shadow_r sid="blender_shadow_r" type="float">0</shadow_r>
          <shadow_g sid="blender_shadow_g" type="float">0</shadow_g>
          <shadow_b sid="blender_shadow_b" type="float">0</shadow_b>
          <energy sid="blender_energy" type="float">1000</energy>
          <spotsize sid="spotsize" type="float">75</spotsize>
          <spotblend sid="spotblend" type="float">0.15</spotblend>
          <clipsta sid="clipsta" type="float">0.04999995</clipsta>
          <clipend sid="clipend" type="float">30.002</clipend>
          <bias sid="bias" type="float">1</bias>
          <radius sid="radius" type="float">0.1</radius>
          <area_shape sid="area_shape" type="int">1</area_shape>
          <area_size sid="area_size" type="float">0.1</area_size>
          <area_sizey sid="area_sizey" type="float">0.1</area_sizey>
          <area_sizez sid="area_sizez" type="float">1</area_sizez>
        </technique>
      </extra>
    </light>
  </library_lights>
  <library_effects>
    <effect id="Part__Feature002_007-effect">
      <profile_COMMON>
        <technique sid="common">
          <lambert>
            <emission>
              <color sid="emission">0 0 0 1</color>
            </emission>
            <diffuse>
              <color sid="diffuse">0.8 0.8 0.8 1</color>
            </diffuse>
            <index_of_refraction>
              <float sid="ior">1.45</float>
            </index_of_refraction>
          </lambert>
        </technique>
      </profile_COMMON>
    </effect>
    <effect id="Part__Feature001_009-effect">
      <profile_COMMON>
        <technique sid="common">
          <lambert>
            <emission>
              <color sid="emission">0 0 0 1</color>
            </emission>
            <diffuse>
              <color sid="diffuse">0.8 0.8 0.8 1</color>
            </diffuse>
            <index_of_refraction>
              <float sid="ior">1.45</float>
            </index_of_refraction>
          </lambert>
        </technique>
      </profile_COMMON>
    </effect>
    <effect id="Part__Feature_017-effect">
      <profile_COMMON>
        <technique sid="common">
          <lambert>
            <emission>
              <color sid="emission">0 0 0 1</color>
            </emission>
            <diffuse>
              <color sid="diffuse">0.8 0.8 0.8 1</color>
            </diffuse>
            <index_of_refraction>
              <float sid="ior">1.45</float>
            </index_of_refraction>
          </lambert>
        </technique>
      </profile_COMMON>
    </effect>
  </library_effects>
  <library_images/>
  <library_materials>
    <material id="Part__Feature002_007-material" name="Part__Feature002.007">
      <instance_effect url="#Part__Feature002_007-effect"/>
    </material>
    <material id="Part__Feature001_009-material" name="Part__Feature001.009">
      <instance_effect url="#Part__Feature001_009-effect"/>
    </material>
    <material id="Part__Feature_017-material" name="Part__Feature.017">
      <instance_effect url="#Part__Feature_017-effect"/>
    </material>
  </library_materials>
  <library_geometries>
    <geometry id="Part__Feature002_007-mesh" name="Part__Feature002.007">
      <mesh>
        <source id="Part__Feature002_007-mesh-positions">
          <float_array id="Part__Feature002_007-mesh-positions-array" count="474">-0.05187469 -0.002037763 0.07235258 -0.05995142 -8.98495e-4 0.06867033 -0.0583285 -3.33216e-4 0.05757635 -0.03407937 -4.05544e-4 0.07755351 -0.05526244 -0.003990352 0.06636041 -0.03423666 -0.01009529 0.06479084 -0.05634266 -0.004972934 0.03832006 -0.05333346 -0.008816361 0.05812799 -0.04327183 -0.01158326 0.0580365 -0.05672615 0.003641307 0.03598737 -0.05818241 -0.001571893 0.01042556 0 -2.33862e-4 0.07789641 -0.01089745 -3.56456e-4 0.07770484 -0.002975881 -0.01440596 0.05904948 8.92268e-4 -0.01013439 0.06847101 7.36383e-4 -0.01635414 0.0447995 -0.03765922 -0.01435697 -0.01103591 -0.002909004 -0.01604324 -0.03452748 -0.05309808 -0.007867038 -0.06296747 -0.05715185 -0.001869797 -0.06995838 -0.04847913 -0.002518534 -0.07282263 -0.03510689 -0.01325696 -0.0594905 -0.03602486 -0.0107299 -0.0647279 -0.01815754 -0.009731531 -0.06866973 -0.05828839 -0.002917349 0.06229752 -0.05594211 -0.00723952 0.05700457 -0.05805271 -0.002632915 -0.007777988 -0.05696278 0.003728151 -0.02841925 -0.05622154 -0.005841672 -0.03191435 -0.05852383 -4.34228e-4 -0.0587967 -0.05805182 -0.002782344 -0.06526625 -0.06135672 -7.29996e-5 -0.06881612 -0.05348455 -0.01038277 -0.05563229 -0.05686759 -9.22593e-4 -0.07397997 -0.007204413 -0.001798987 -0.07544624 -5.27936e-4 -0.001111924 -0.07633268 -0.05128455 -0.01003104 0.0327394 -0.05635052 -0.005733132 0.009670615 -0.05365836 -0.008910179 -0.02249944 -0.06387615 -6.19658e-6 -0.07570087 -0.04388916 -2.67132e-4 -0.07785141 -0.05611568 -0.008391976 -0.05721485 -1.76435e-4 -7.57613e-5 -0.07832622 -0.02610927 -9.58123e-4 -0.07648241 -0.06073462 -6.66804e-5 0.06661206 0.06449949 -5.80866e-6 0.07735723 0.05280947 -0.001483321 0.07315433 0.0583285 3.33216e-4 0.05757635 0.03421807 -3.34191e-4 0.07776314 0.05209934 -0.009527802 0.0583567 0.03671652 -0.00990349 0.06454735 0.05643355 -0.006932258 0.05636268 0.01214808 -3.4758e-4 0.07773256 0.05672615 -0.003641307 0.03598737 0.02406144 -0.01379418 0.05741643 0.03754931 -0.01439911 -0.01355475 0.05852383 4.34228e-4 -0.0587967 0.05655211 -0.007799863 -0.05705267 0.04891306 -0.00985223 -0.06194633 0.04708039 -0.002394855 -0.07318633 0.05300873 -0.01010477 -0.05843651 0.02648043 -0.01399141 -0.05707436 0.01855897 -0.009943783 -0.0686388 0.01128304 -0.01203393 -0.06512224 0.05769085 -0.001998603 0.06777936 0.05895268 -0.001596331 0.06393396 0.05817997 -0.002458274 0.001522481 0.05696278 -0.003728151 -0.02841925 0.05677866 -0.005028545 -0.04532659 0.05842673 -0.002675175 -0.06394934 0.0605356 -7.40015e-5 -0.06626588 0.05615139 -0.002655267 -0.0692355 0.05327719 -0.01042425 -0.05292367 0.05852514 -8.40222e-4 -0.0735976 0.007148087 -0.002058744 -0.07522344 0.06073462 6.66804e-5 0.06661206 0.05475431 -0.007434606 0.03457766 0.05132055 -0.01000744 0.03244614 0.05637633 -0.005785644 0.004031717 0.05504399 -0.007758021 -0.02944999 0.04388916 -2.67132e-4 -0.07785141 0.06218558 1.14106e-5 0.07072073 0.05213618 -0.009765326 -0.01981502 0.02610927 -9.58123e-4 -0.07648241 -0.06449949 5.80866e-6 0.07735723 -0.05280947 0.001483321 0.07315433 -0.03421807 3.34191e-4 0.07776314 -0.05209934 0.009527802 0.0583567 -0.03671652 0.00990349 0.06454735 -0.05643355 0.006932258 0.05636268 -0.01214808 3.4758e-4 0.07773256 -0.02406144 0.01379418 0.05741643 0 2.64117e-4 0.07784426 -8.92268e-4 0.01013439 0.06847101 -7.36383e-4 0.01635414 0.0447995 -0.03754931 0.01439911 -0.01355475 -0.05655211 0.007799863 -0.05705267 -0.04891306 0.00985223 -0.06194633 -0.04708039 0.002394855 -0.07318633 0.002909004 0.01604324 -0.03452748 -0.05300873 0.01010477 -0.05843651 -0.02648043 0.01399141 -0.05707436 -0.01855897 0.009943783 -0.0686388 -0.01128304 0.01203393 -0.06512224 -0.05769085 0.001998603 0.06777936 -0.05895268 0.001596331 0.06393396 -0.05817997 0.002458274 0.001522481 -0.05677866 0.005028545 -0.04532659 -0.05842673 0.002675175 -0.06394934 -0.0605356 7.40015e-5 -0.06626588 -0.05615139 0.002655267 -0.0692355 -0.05327719 0.01042425 -0.05292367 -0.05852514 8.40222e-4 -0.0735976 -0.007148087 0.002058744 -0.07522344 -3.26897e-5 6.04425e-4 -0.07703882 -0.05475431 0.007434606 0.03457766 -0.05132055 0.01000744 0.03244614 -0.05637633 0.005785644 0.004031717 -0.05504399 0.007758021 -0.02944999 -0.04388916 2.67132e-4 -0.07785141 -0.06218558 -1.14106e-5 0.07072073 -0.05213618 0.009765326 -0.01981502 -0.02610927 9.58123e-4 -0.07648241 0.05187469 0.002037763 0.07235258 0.05995142 8.98495e-4 0.06867033 0.03407937 4.05544e-4 0.07755351 0.05526244 0.003990352 0.06636041 0.03423666 0.01009529 0.06479084 0.05634266 0.004972934 0.03832006 0.05333346 0.008816361 0.05812799 0.04327183 0.01158326 0.0580365 0.01089745 3.56456e-4 0.07770484 0.002975881 0.01440596 0.05904948 0.03765922 0.01435697 -0.01103591 0.04738831 0.01144671 0.02950531 0.05309808 0.007867038 -0.06296747 0.05715185 0.001869797 -0.06995838 0.04847913 0.002518534 -0.07282263 0.03510689 0.01325696 -0.0594905 0.03602486 0.0107299 -0.0647279 0.01815754 0.009731531 -0.06866973 0.05828839 0.002917349 0.06229752 0.05594211 0.00723952 0.05700457 0.05622154 0.005841672 -0.03191435 0.05805182 0.002782344 -0.06526625 0.06135672 7.29996e-5 -0.06881612 0.05348455 0.01038277 -0.05563229 0.05686759 9.22593e-4 -0.07397997 0.007204413 0.001798987 -0.07544624 0.05223488 0.009423673 0.03034013 0.05635052 0.005733132 0.009670615 0.05365836 0.008910179 -0.02249944 0.06387615 6.19658e-6 -0.07570087 0.04388916 2.67132e-4 -0.07785141 0.05818241 0.001571893 0.01042556 0.05805271 0.002632915 -0.007777988 0.05611568 0.008391976 -0.05721485 0.02610927 9.58123e-4 -0.07648241</float_array>
          <technique_common>
            <accessor source="#Part__Feature002_007-mesh-positions-array" count="158" stride="3">
              <param name="X" type="float"/>
              <param name="Y" type="float"/>
              <param name="Z" type="float"/>
            </accessor>
          </technique_common>
        </source>
        <source id="Part__Feature002_007-mesh-normals">
          <float_array id="Part__Feature002_007-mesh-normals-array" count="936">-0.1504151 -0.9883283 0.02413398 -0.01491749 -0.9382961 0.3455113 -0.00891453 -0.1908661 0.9815757 -0.1034144 -0.7915738 0.6022595 -0.99398 -0.06760281 -0.08621978 -0.9878197 -0.1398751 -0.06816971 -0.2250718 -0.8817449 0.4145706 -0.2328902 -0.861796 0.4506326 -0.212903 -0.8548854 0.473121 -0.002524375 -0.7709469 0.6368946 -0.9976692 -0.02751052 0.06244617 -0.06415468 -0.7944365 0.6039493 -0.07418411 -0.9484354 0.3081676 -0.04584658 -0.9025943 0.4280441 -0.07231765 -0.9905446 0.1165831 -0.2471078 -0.9688051 0.01882457 -0.09821605 -0.9946518 0.03196096 -0.04957258 -0.9987692 -0.001636385 -0.6289649 -0.7316263 -0.2629185 -0.2408223 -0.8012537 -0.5477201 -0.2126564 -0.9207853 -0.3270042 -0.1915076 -0.896691 -0.3990866 -0.06606388 -0.9974734 -0.02612429 -0.1930721 -0.8215957 -0.5363801 -0.007907867 -0.9948709 -0.1008449 -0.0439555 -0.9027667 -0.4278789 -0.02396392 -0.9176446 -0.3966786 -0.004508316 -0.8554899 -0.5177999 -0.3239412 -0.8302065 0.4536732 -0.5170543 -0.8559523 -7.75712e-4 -0.2648599 -0.9639694 0.02474427 -0.004969894 -0.68974 0.7240402 -0.9962792 -0.05209201 -0.06866073 -0.7721704 -0.6132816 0.1662492 -0.1607646 -0.9865101 -0.03086376 -0.4373215 -0.8633413 -0.2517774 -0.4472935 -0.8385177 -0.3111542 -0.1499788 -0.959936 -0.2367051 -0.003097236 -0.647048 -0.762443 -0.4946315 -0.8522652 -0.1702462 -0.94343 -0.2941628 -0.1529973 -0.5526277 -0.8243254 -0.1228431 -0.4950576 -0.85712 0.1423496 -0.6434715 -0.7074136 0.2924218 -0.5852335 -0.7518713 0.3036304 -0.003274202 -0.6886675 0.7250699 -0.5906631 -0.8066559 -0.02057564 -0.6151568 -0.7877638 0.03178519 -0.9581941 -0.2850489 0.02472466 -0.9584122 -0.2834784 0.03295749 -0.5767822 -0.7287746 -0.3690663 -0.4352868 -0.8689602 -0.2354433 -0.1395432 -0.9893475 0.0414645 -0.05714499 -0.7434986 -0.6662914 -0.1121253 -0.7155863 -0.6894665 -0.8954994 -0.4437136 -0.03463011 -0.9899037 -0.1416846 0.004031658 -0.9139552 -0.4054537 0.01712238 -0.8381856 -0.542974 0.05122637 -0.9928181 -0.1005654 0.06479907 -0.04635667 -0.9476758 -0.3158506 -0.09941834 -0.871186 -0.4807817 -0.006234765 0.9841274 -0.1773543 -0.9144464 -0.4045581 0.01098579 -0.8361766 -0.5482316 -0.01583319 -8.68266e-4 -0.8972165 -0.4415901 0.01191383 -0.65894 -0.7521011 -0.008744537 -0.8485349 -0.5290674 -0.4882147 -0.8577684 -0.1608718 -0.6848068 -0.7285776 0.01464486 -0.7965237 -0.6042796 0.01990324 0.03085201 -0.8890835 -0.4567043 -0.3187151 -0.9478344 -0.005536019 -0.347469 -0.9368458 0.03981524 -0.003740072 -0.9114183 -0.4114642 -0.7707141 -0.5718206 0.2811068 -0.8017901 -0.5234505 0.2883268 0.1438586 -0.9881929 -0.05272156 0.0143243 -0.9551017 0.2959321 0.004870712 0.568067 0.822968 0.3835289 -0.8189818 0.4268192 0.09842216 -0.7970992 0.5957733 0.2061024 -0.8638213 0.4597114 -2.67053e-4 -0.8306999 0.5567204 0.135339 -0.9508255 0.2785932 0.05053406 -0.911696 0.4077461 0.04473215 -0.9166325 0.3972205 0.03103876 -0.9891892 0.1433233 0.2747442 -0.9614701 0.00954014 0.1491256 -0.9881346 0.03676307 0.09487652 -0.995136 0.02651292 0.345973 -0.8163533 -0.4624608 0.04366844 -0.9990286 -0.005922198 0.222781 -0.795212 -0.5639208 0.1302176 -0.9664292 -0.2214903 0.08691537 -0.9202249 -0.3816176 0.05231821 -0.9983733 -0.02265983 0.1265177 -0.8169559 -0.5626512 0.08179897 -0.9218984 -0.3786984 -0.002503693 -0.9727434 -0.2318707 0.7612495 -0.6215767 0.1847746 0.9683568 -0.2481933 -0.02617973 -3.20945e-4 -0.809992 0.586441 0.07888466 -0.7315681 0.6771894 0.5139185 -0.8578389 4.33336e-4 0.003317296 -0.6893528 0.7244182 0.99989 0.01340824 -0.006339967 0.9982102 -0.04564166 -0.03864294 0.9600834 -0.279496 0.01103985 0.9574044 -0.2846028 0.04876536 0.9869987 -0.1451618 0.06900507 0.8502358 -0.4576289 0.2601442 0.1414374 -0.9878672 -0.06414103 0.1385955 -0.989348 -0.04451918 0.6172647 -0.7395293 -0.2684789 0.5641824 -0.8222249 -0.07512956 0.6035569 -0.7097322 -0.3633171 0.6601659 -0.6942203 -0.2867739 0.1156309 -0.937816 -0.3273084 3.25228e-4 -0.6406971 -0.7677938 -0.004206418 -0.7748081 -0.6321826 0.2241636 -0.9295613 0.2926886 0.3905516 -0.9200277 0.03191483 0.8283734 -0.5082322 -0.2355792 0.9610942 -0.2235747 -0.1622108 0.5826487 -0.7674465 0.2674816 0.894513 -0.4431674 -0.05873221 0.6107832 -0.7912727 -0.02883398 0.900267 -0.4346966 0.02362859 -0.006307542 -0.9220203 -0.3870902 0.06659334 -0.6873217 -0.7232941 0.9954637 -0.08677607 0.03901243 0.8770315 -0.4803878 -0.00660026 0.6160275 -0.7874209 0.02187317 0.4278866 -0.8923021 0.1439098 0.04293715 -0.959895 -0.2770524 0.1022221 -0.8768128 -0.4698403 0.006240665 0.9831024 -0.1829503 0.8538451 -0.4202214 -0.3071852 0.8838256 -0.4673343 0.02124023 0.8857924 -0.4635594 0.02201259 0.6039412 -0.7969537 -0.01095211 0.6488392 -0.7600016 0.03748792 0.9524996 -0.2999815 0.05249536 8.62326e-4 -0.8971852 -0.4416539 -0.01254296 -0.6515555 -0.7584974 7.13967e-4 -0.7581791 -0.652046 0.002535462 -0.8874701 -0.4608585 0.6634685 -0.7481725 0.006887376 0.6527726 -0.7566592 0.03681159 0.9045687 -0.4259175 -0.01870882 0.3028807 -0.9530285 3.11022e-4 0.3141869 -0.9488961 0.02971386 0.003234863 -0.9089916 -0.416802 -0.1438586 0.9881929 -0.05272156 -0.0143243 0.9551017 0.2959321 -0.009114742 -0.3273766 0.94485 -0.3835289 0.8189818 0.4268192 -0.09842216 0.7970992 0.5957733 -0.2061024 0.8638213 0.4597114 0.001145541 0.2933546 0.9560031 -0.00842756 0.1042023 0.9945204 -0.135339 0.9508255 0.2785932 -0.05053406 0.911696 0.4077461 -0.04473215 0.9166325 0.3972205 -0.03103876 0.9891892 0.1433233 -0.2747442 0.9614701 0.00954014 -0.1491256 0.9881346 0.03676307 -0.09487652 0.995136 0.02651292 -0.345973 0.8163533 -0.4624608 -0.04366844 0.9990286 -0.005922198 -0.222781 0.795212 -0.5639208 -0.1302176 0.9664292 -0.2214903 -0.08691537 0.9202249 -0.3816176 -0.05231821 0.9983733 -0.02265983 -0.1265177 0.8169559 -0.5626512 -0.08179897 0.9218984 -0.3786984 0.002503693 0.9727434 -0.2318707 -0.7612495 0.6215767 0.1847746 -0.9683568 0.2481933 -0.02617973 3.20945e-4 0.809992 0.586441 -0.07888466 0.7315681 0.6771894 -0.5139185 0.8578389 4.33336e-4 -0.001934945 0.6885188 0.7252159 -0.99989 -0.01340824 -0.006339967 -0.9982102 0.04564166 -0.03864294 -0.9600834 0.279496 0.01103985 -0.9574044 0.2846028 0.04876536 -0.9869987 0.1451618 0.06900507 -0.8502358 0.4576289 0.2601442 -0.1414374 0.9878672 -0.06414103 -0.1385955 0.989348 -0.04451918 -0.6172647 0.7395293 -0.2684789 -0.5641824 0.8222249 -0.07512956 -0.6035569 0.7097322 -0.3633171 -0.6601659 0.6942203 -0.2867739 -0.1156309 0.937816 -0.3273084 -3.25228e-4 0.6406971 -0.7677938 0.004758179 0.789456 -0.6137888 -0.2241636 0.9295613 0.2926886 -0.3905516 0.9200277 0.03191483 -0.8283734 0.5082322 -0.2355792 -0.9610942 0.2235747 -0.1622108 -0.5826487 0.7674465 0.2674816 -0.894513 0.4431674 -0.05873221 -0.6107832 0.7912727 -0.02883398 -0.900267 0.4346966 0.02362859 0.006307542 0.9220203 -0.3870902 -0.06659334 0.6873217 -0.7232941 -0.9954637 0.08677607 0.03901243 -0.8770315 0.4803878 -0.00660026 -0.6160275 0.7874209 0.02187317 -0.4278866 0.8923021 0.1439098 -0.04293715 0.959895 -0.2770524 -0.1022221 0.8768128 -0.4698403 -0.01001513 -0.9760894 -0.2171385 0.001859188 0.8840897 -0.4673137 -0.8538451 0.4202214 -0.3071852 -0.8838256 0.4673343 0.02124023 -0.8857924 0.4635594 0.02201259 -0.6039412 0.7969537 -0.01095211 -0.6488392 0.7600016 0.03748792 -0.9524996 0.2999815 0.05249536 0.001930415 0.8824131 -0.4704716 0.01254296 0.6515555 -0.7584974 -0.00298357 0.7747057 -0.6323151 -0.6634685 0.7481725 0.006887376 -0.6527726 0.7566592 0.03681159 -0.9045687 0.4259175 -0.01870882 -0.3028807 0.9530285 3.11022e-4 -0.3141869 0.9488961 0.02971386 -0.003234863 0.9089916 -0.416802 0.1504151 0.9883283 0.02413398 0.01491749 0.9382961 0.3455113 0.007914841 0.1110913 0.9937788 0.1034144 0.7915738 0.6022595 0.99398 0.06760281 -0.08621978 0.9878197 0.1398751 -0.06816971 0.2250718 0.8817449 0.4145706 0.2328902 0.861796 0.4506326 0.212903 0.8548854 0.473121 0.005944371 0.2077327 0.9781675 0.9976692 0.02751052 0.06244617 0.01184034 0.1041987 0.9944861 0.06415468 0.7944365 0.6039493 0.07418411 0.9484354 0.3081676 0.04584658 0.9025943 0.4280441 0.07231765 0.9905446 0.1165831 0.1953671 0.9804488 0.02349644 0.09821605 0.9946518 0.03196096 0.04957258 0.9987692 -0.001636385 0.6289649 0.7316263 -0.2629185 0.2408223 0.8012537 -0.5477201 0.2126564 0.9207853 -0.3270042 0.1915076 0.896691 -0.3990866 0.06606388 0.9974734 -0.02612429 0.1930721 0.8215957 -0.5363801 0.007907867 0.9948709 -0.1008449 0.0439555 0.9027667 -0.4278789 0.02396392 0.9176446 -0.3966786 0.004508316 0.8554899 -0.5177999 0.3239412 0.8302065 0.4536732 0.3844743 0.9231224 0.004974961 0.516755 0.8561317 -0.001718759 0.2647168 0.9637414 0.03358203 0.003437221 0.6887716 0.7249703 0.9962792 0.05209201 -0.06866073 0.7721704 0.6132816 0.1662492 0.1607646 0.9865101 -0.03086376 0.4373215 0.8633413 -0.2517774 0.4472935 0.8385177 -0.3111542 0.1499788 0.959936 -0.2367051 0.003097236 0.647048 -0.762443 0.4946315 0.8522652 -0.1702462 0.94343 0.2941628 -0.1529973 0.5526277 0.8243254 -0.1228431 0.4950576 0.85712 0.1423496 0.6434715 0.7074136 0.2924218 0.5852335 0.7518713 0.3036304 0.003274202 0.6886675 0.7250699 0.6101007 0.792073 -0.01994377 0.6151568 0.7877638 0.03178519 0.9581941 0.2850489 0.02472466 0.9584122 0.2834784 0.03295749 0.5767822 0.7287746 -0.3690663 0.4352868 0.8689602 -0.2354433 0.1395432 0.9893475 0.0414645 0.05714499 0.7434986 -0.6662914 0.1121253 0.7155863 -0.6894665 0.8954994 0.4437136 -0.03463011 0.9899037 0.1416846 0.004031658 0.9139552 0.4054537 0.01712238 0.8381856 0.542974 0.05122637 0.9928181 0.1005654 0.06479907 0.04635667 0.9476758 -0.3158506 0.09941834 0.871186 -0.4807817 0.009873628 -0.9775703 -0.2103779 -0.001849114 0.8842607 -0.4669901 0.9144464 0.4045581 0.01098579 0.8361766 0.5482316 -0.01583319 -0.001926958 0.8824334 -0.4704334 -0.01191383 0.65894 -0.7521011 0.002143204 0.7952617 -0.6062626 0.4882147 0.8577684 -0.1608718 0.7000896 0.7139555 0.01192194 0.3850017 0.9229148 0.001403093 0.7965237 0.6042796 0.01990324 0.3171104 0.9483547 -0.008023262 0.347469 0.9368458 0.03981524 0.003740072 0.9114183 -0.4114642 0.7707141 0.5718206 0.2811068 0.8017901 0.5234505 0.2883268</float_array>
          <technique_common>
            <accessor source="#Part__Feature002_007-mesh-normals-array" count="312" stride="3">
              <param name="X" type="float"/>
              <param name="Y" type="float"/>
              <param name="Z" type="float"/>
            </accessor>
          </technique_common>
        </source>
        <vertices id="Part__Feature002_007-mesh-vertices">
          <input semantic="POSITION" source="#Part__Feature002_007-mesh-positions"/>
        </vertices>
        <triangles material="Part__Feature002_007-material" count="312">
          <input semantic="VERTEX" source="#Part__Feature002_007-mesh-vertices" offset="0"/>
          <input semantic="NORMAL" source="#Part__Feature002_007-mesh-normals" offset="1"/>
          <p>0 0 84 0 1 0 0 1 3 1 84 1 3 2 11 2 84 2 5 3 3 3 0 3 6 4 2 4 9 4 6 5 24 5 2 5 5 6 0 6 4 6 8 7 4 7 7 7 8 8 5 8 4 8 12 9 11 9 3 9 6 10 9 10 10 10 14 11 3 11 5 11 13 12 5 12 8 12 13 13 14 13 5 13 15 14 13 14 8 14 16 15 8 15 36 15 15 16 8 16 16 16 17 17 15 17 16 17 18 18 30 18 19 18 18 19 19 19 20 19 21 20 32 20 18 20 22 21 21 21 18 21 21 22 17 22 16 22 22 23 18 23 20 23 21 24 61 24 17 24 23 25 21 25 22 25 63 26 21 26 23 26 23 27 62 27 63 27 0 28 1 28 4 28 7 29 25 29 36 29 8 30 7 30 36 30 12 31 14 31 11 31 26 32 27 32 28 32 109 33 30 33 29 33 32 34 21 34 16 34 19 35 30 35 31 35 32 36 41 36 18 36 33 37 20 37 19 37 34 38 62 38 23 38 1 39 84 39 120 39 2 40 24 40 1 40 2 41 1 41 44 41 24 42 4 42 1 42 4 43 24 43 25 43 25 44 7 44 4 44 12 45 3 45 14 45 25 46 37 46 36 46 41 47 32 47 38 47 41 48 28 48 29 48 29 49 30 49 41 49 41 50 30 50 18 50 19 51 31 51 33 51 39 52 33 52 31 52 43 53 22 53 20 53 43 54 23 54 22 54 25 55 24 55 6 55 6 56 37 56 25 56 26 57 37 57 10 57 38 58 28 58 41 58 28 59 27 59 29 59 33 60 39 60 40 60 40 61 20 61 33 61 40 62 39 62 42 62 6 63 10 63 37 63 38 64 37 64 26 64 40 65 42 65 43 65 34 66 23 66 43 66 34 67 43 67 42 67 120 68 44 68 1 68 38 69 36 69 37 69 26 70 28 70 38 70 42 71 35 71 34 71 16 72 36 72 38 72 16 73 38 73 32 73 43 74 20 74 40 74 31 75 30 75 109 75 31 76 109 76 39 76 45 77 46 77 81 77 48 78 46 78 45 78 11 79 48 79 45 79 46 80 49 80 64 80 48 81 50 81 46 81 46 82 50 82 49 82 11 83 52 83 48 83 50 84 54 84 49 84 14 85 54 85 50 85 14 86 13 86 54 86 13 87 15 87 54 87 49 88 55 88 77 88 54 89 55 89 49 89 54 90 15 90 55 90 60 91 58 91 71 91 15 92 17 92 55 92 58 93 59 93 71 93 60 94 61 94 58 94 61 95 62 95 58 95 17 96 61 96 55 96 58 97 62 97 59 97 61 98 63 98 62 98 21 99 63 99 61 99 64 100 51 100 65 100 47 101 51 101 53 101 48 102 52 102 50 102 50 103 52 103 14 103 51 104 49 104 77 104 14 105 52 105 11 105 154 106 66 106 155 106 66 107 67 107 155 107 67 108 68 108 56 108 69 109 68 109 57 109 56 110 68 110 69 110 56 111 69 111 70 111 60 112 72 112 61 112 61 113 72 113 55 113 70 114 69 114 71 114 72 115 60 115 57 115 57 116 60 116 69 116 69 117 60 117 71 117 59 118 73 118 71 118 34 119 74 119 62 119 35 120 74 120 34 120 64 121 81 121 46 121 64 122 65 122 81 122 47 123 75 123 65 123 51 124 47 124 65 124 49 125 51 125 64 125 51 126 76 126 53 126 51 127 77 127 76 127 68 128 67 128 79 128 71 129 73 129 152 129 62 130 83 130 59 130 53 131 66 131 154 131 78 132 79 132 66 132 82 133 79 133 78 133 152 134 70 134 71 134 152 135 73 135 80 135 59 136 80 136 73 136 152 137 80 137 42 137 75 138 81 138 65 138 76 139 66 139 53 139 76 140 78 140 66 140 78 141 76 141 77 141 79 142 82 142 72 142 79 143 57 143 68 143 42 144 80 144 83 144 62 145 74 145 83 145 74 146 35 146 83 146 83 147 35 147 42 147 77 148 82 148 78 148 72 149 57 149 79 149 67 150 66 150 79 150 77 151 55 151 82 151 82 152 55 152 72 152 59 153 83 153 80 153 84 154 85 154 120 154 86 155 85 155 84 155 11 156 86 156 84 156 85 157 87 157 104 157 86 158 88 158 85 158 85 159 88 159 87 159 11 160 90 160 86 160 11 161 92 161 90 161 88 162 91 162 87 162 93 163 91 163 88 163 93 164 132 164 91 164 132 165 94 165 91 165 87 166 95 166 116 166 91 167 95 167 87 167 91 168 94 168 95 168 100 169 97 169 110 169 94 170 99 170 95 170 97 171 98 171 110 171 100 172 101 172 97 172 101 173 102 173 97 173 99 174 101 174 95 174 97 175 102 175 98 175 101 176 103 176 102 176 138 177 103 177 101 177 104 178 89 178 105 178 2 179 89 179 9 179 86 180 90 180 88 180 88 181 90 181 93 181 89 182 87 182 116 182 93 183 90 183 92 183 10 184 106 184 26 184 106 185 27 185 26 185 27 186 107 186 29 186 108 187 107 187 96 187 29 188 107 188 108 188 29 189 108 189 109 189 100 190 111 190 101 190 101 191 111 191 95 191 109 192 108 192 110 192 111 193 100 193 96 193 96 194 100 194 108 194 108 195 100 195 110 195 98 196 112 196 110 196 148 197 113 197 102 197 114 198 113 198 148 198 104 199 120 199 85 199 104 200 105 200 120 200 2 201 44 201 105 201 89 202 2 202 105 202 87 203 89 203 104 203 89 204 115 204 9 204 89 205 116 205 115 205 107 206 27 206 118 206 110 207 112 207 39 207 102 208 122 208 98 208 9 209 106 209 10 209 117 210 118 210 106 210 121 211 118 211 117 211 39 212 109 212 110 212 39 213 112 213 119 213 98 214 119 214 112 214 39 215 119 215 42 215 119 216 114 216 42 216 44 217 120 217 105 217 115 218 106 218 9 218 115 219 117 219 106 219 117 220 115 220 116 220 118 221 121 221 111 221 118 222 96 222 107 222 114 223 119 223 122 223 102 224 113 224 122 224 113 225 114 225 122 225 116 226 121 226 117 226 111 227 96 227 118 227 27 228 106 228 118 228 116 229 95 229 121 229 121 230 95 230 111 230 98 231 122 231 119 231 123 232 45 232 124 232 123 233 125 233 45 233 125 234 11 234 45 234 127 235 125 235 123 235 128 236 47 236 53 236 128 237 141 237 47 237 127 238 123 238 126 238 130 239 126 239 129 239 130 240 127 240 126 240 131 241 11 241 125 241 128 242 53 242 154 242 92 243 11 243 131 243 93 244 125 244 127 244 132 245 127 245 130 245 132 246 93 246 127 246 94 247 132 247 130 247 133 248 130 248 134 248 94 249 130 249 133 249 99 250 94 250 133 250 135 251 144 251 136 251 135 252 136 252 137 252 138 253 146 253 135 253 139 254 138 254 135 254 138 255 99 255 133 255 139 256 135 256 137 256 138 257 101 257 99 257 140 258 138 258 139 258 103 259 138 259 140 259 140 260 102 260 103 260 123 261 124 261 126 261 129 262 149 262 134 262 129 263 142 263 149 263 130 264 129 264 134 264 131 265 93 265 92 265 155 266 67 266 143 266 70 267 144 267 56 267 146 268 138 268 133 268 136 269 144 269 145 269 146 270 156 270 135 270 147 271 137 271 136 271 148 272 102 272 140 272 124 273 45 273 81 273 47 274 141 274 124 274 47 275 124 275 75 275 141 276 126 276 124 276 126 277 141 277 142 277 142 278 129 278 126 278 131 279 125 279 93 279 142 280 150 280 149 280 156 281 146 281 151 281 156 282 143 282 56 282 56 283 144 283 156 283 156 284 144 284 135 284 136 285 145 285 147 285 152 286 147 286 145 286 157 287 139 287 137 287 157 288 140 288 139 288 142 289 141 289 128 289 128 290 150 290 142 290 155 291 150 291 154 291 151 292 143 292 156 292 143 293 67 293 56 293 147 294 152 294 153 294 153 295 137 295 147 295 153 296 152 296 42 296 114 297 153 297 42 297 128 298 154 298 150 298 151 299 150 299 155 299 153 300 114 300 157 300 148 301 140 301 157 301 148 302 157 302 114 302 81 303 75 303 124 303 151 304 149 304 150 304 134 305 149 305 151 305 155 306 143 306 151 306 133 307 134 307 151 307 133 308 151 308 146 308 157 309 137 309 153 309 145 310 144 310 70 310 145 311 70 311 152 311</p>
        </triangles>
      </mesh>
    </geometry>
    <geometry id="Part__Feature001_009-mesh" name="Part__Feature001.009">
      <mesh>
        <source id="Part__Feature001_009-mesh-positions">
          <float_array id="Part__Feature001_009-mesh-positions-array" count="12">0.06499999 0 -0.08499997 -0.06499999 0 -0.08499997 -0.06499999 0 -0.07999998 0.06499999 0 -0.07999998</float_array>
          <technique_common>
            <accessor source="#Part__Feature001_009-mesh-positions-array" count="4" stride="3">
              <param name="X" type="float"/>
              <param name="Y" type="float"/>
              <param name="Z" type="float"/>
            </accessor>
          </technique_common>
        </source>
        <source id="Part__Feature001_009-mesh-normals">
          <float_array id="Part__Feature001_009-mesh-normals-array" count="3">0 1 0</float_array>
          <technique_common>
            <accessor source="#Part__Feature001_009-mesh-normals-array" count="1" stride="3">
              <param name="X" type="float"/>
              <param name="Y" type="float"/>
              <param name="Z" type="float"/>
            </accessor>
          </technique_common>
        </source>
        <vertices id="Part__Feature001_009-mesh-vertices">
          <input semantic="POSITION" source="#Part__Feature001_009-mesh-positions"/>
        </vertices>
        <triangles material="Part__Feature001_009-material" count="2">
          <input semantic="VERTEX" source="#Part__Feature001_009-mesh-vertices" offset="0"/>
          <input semantic="NORMAL" source="#Part__Feature001_009-mesh-normals" offset="1"/>
          <p>0 0 1 0 2 0 3 0 0 0 2 0</p>
        </triangles>
      </mesh>
    </geometry>
    <geometry id="Part__Feature_017-mesh" name="Part__Feature.017">
      <mesh>
        <source id="Part__Feature_017-mesh-positions">
          <float_array id="Part__Feature_017-mesh-positions-array" count="12">-0.06499999 0 0.08499997 0.06499999 0 0.08499997 -0.06499999 0 0.07999998 0.06499999 0 0.07999998</float_array>
          <technique_common>
            <accessor source="#Part__Feature_017-mesh-positions-array" count="4" stride="3">
              <param name="X" type="float"/>
              <param name="Y" type="float"/>
              <param name="Z" type="float"/>
            </accessor>
          </technique_common>
        </source>
        <source id="Part__Feature_017-mesh-normals">
          <float_array id="Part__Feature_017-mesh-normals-array" count="3">0 1 0</float_array>
          <technique_common>
            <accessor source="#Part__Feature_017-mesh-normals-array" count="1" stride="3">
              <param name="X" type="float"/>
              <param name="Y" type="float"/>
              <param name="Z" type="float"/>
            </accessor>
          </technique_common>
        </source>
        <vertices id="Part__Feature_017-mesh-vertices">
          <input semantic="POSITION" source="#Part__Feature_017-mesh-positions"/>
        </vertices>
        <triangles material="Part__Feature_017-material" count="2">
          <input semantic="VERTEX" source="#Part__Feature_017-mesh-vertices" offset="0"/>
          <input semantic="NORMAL" source="#Part__Feature_017-mesh-normals" offset="1"/>
          <p>0 0 1 0 2 0 1 0 3 0 2 0</p>
        </triangles>
      </mesh>
    </geometry>
  </library_geometries>
  <library_visual_scenes>
    <visual_scene id="Scene" name="Scene">
      <node id="node2" name="node2" type="NODE">
        <matrix sid="transform">1 0 0 0 0 1 0 0 0 0 1 0 0 0 0 1</matrix>
        <instance_geometry url="#Part__Feature002_007-mesh" name="node2">
          <bind_material>
            <technique_common>
              <instance_material symbol="Part__Feature002_007-material" target="#Part__Feature002_007-material"/>
            </technique_common>
          </bind_material>
        </instance_geometry>
      </node>
      <node id="node1" name="node1" type="NODE">
        <matrix sid="transform">1 0 0 0 0 1 0 0 0 0 1 0 0 0 0 1</matrix>
        <instance_geometry url="#Part__Feature001_009-mesh" name="node1">
          <bind_material>
            <technique_common>
              <instance_material symbol="Part__Feature001_009-material" target="#Part__Feature001_009-material"/>
            </technique_common>
          </bind_material>
        </instance_geometry>
      </node>
      <node id="node0" name="node0" type="NODE">
        <matrix sid="transform">1 0 0 0 0 1 0 0 0 0 1 0 0 0 0 1</matrix>
        <instance_geometry url="#Part__Feature_017-mesh" name="node0">
          <bind_material>
            <technique_common>
              <instance_material symbol="Part__Feature_017-material" target="#Part__Feature_017-material"/>
            </technique_common>
          </bind_material>
        </instance_geometry>
      </node>
      <node id="Camera" name="Camera" type="NODE">
        <matrix sid="transform">0.6859207 -0.3240135 0.6515582 7.358891 0.7276763 0.3054208 -0.6141704 -6.925791 0 0.8953956 0.4452714 4.958309 0 0 0 1</matrix>
        <instance_camera url="#Camera-camera"/>
      </node>
      <node id="Light" name="Light" type="NODE">
        <matrix sid="transform">-0.2908646 -0.7711008 0.5663932 4.076245 0.9551712 -0.1998834 0.2183912 1.005454 -0.05518906 0.6045247 0.7946723 5.903862 0 0 0 1</matrix>
        <instance_light url="#Light-light"/>
      </node>
    </visual_scene>
  </library_visual_scenes>
  <scene>
    <instance_visual_scene url="#Scene"/>
  </scene>
</COLLADA>