<?xml version="1.0" encoding="utf-8"?>
<COLLADA xmlns="http://www.collada.org/2005/11/COLLADASchema" version="1.4.1" xmlns:xsi="http://www.w3.org/2001/XMLSchema-instance">
  <asset>
    <contributor>
      <author>Blender User</author>
      <authoring_tool>Blender 4.0.2 commit date:2023-12-05, commit time:07:41, hash:9be62e85b727</authoring_tool>
    </contributor>
    <created>2024-01-22T16:54:36</created>
    <modified>2024-01-22T16:54:36</modified>
    <unit name="meter" meter="1"/>
    <up_axis>Z_UP</up_axis>
  </asset>
  <library_cameras>
    <camera id="Camera-camera" name="Camera">
      <optics>
        <technique_common>
          <perspective>
            <xfov sid="xfov">39.59775</xfov>
            <aspect_ratio>1.777778</aspect_ratio>
            <znear sid="znear">0.1</znear>
            <zfar sid="zfar">100</zfar>
          </perspective>
        </technique_common>
      </optics>
      <extra>
        <technique profile="blender">
          <shiftx sid="shiftx" type="float">0</shiftx>
          <shifty sid="shifty" type="float">0</shifty>
          <dof_distance sid="dof_distance" type="float">10</dof_distance>
        </technique>
      </extra>
    </camera>
  </library_cameras>
  <library_lights>
    <light id="Light-light" name="Light">
      <technique_common>
        <point>
          <color sid="color">1000 1000 1000</color>
          <constant_attenuation>1</constant_attenuation>
          <linear_attenuation>0</linear_attenuation>
          <quadratic_attenuation>0</quadratic_attenuation>
        </point>
      </technique_common>
      <extra>
        <technique profile="blender">
          <type sid="type" type="int">0</type>
          <flag sid="flag" type="int">0</flag>
          <mode sid="mode" type="int">1</mode>
          <red sid="red" type="float">1</red>
          <green sid="green" type="float">1</green>
          <blue sid="blue" type="float">1</blue>
          <shadow_r sid="blender_shadow_r" type="float">0</shadow_r>
          <shadow_g sid="blender_shadow_g" type="float">0</shadow_g>
          <shadow_b sid="blender_shadow_b" type="float">0</shadow_b>
          <energy sid="blender_energy" type="float">1000</energy>
          <spotsize sid="spotsize" type="float">75</spotsize>
          <spotblend sid="spotblend" type="float">0.15</spotblend>
          <clipsta sid="clipsta" type="float">0.04999995</clipsta>
          <clipend sid="clipend" type="float">30.002</clipend>
          <bias sid="bias" type="float">1</bias>
          <radius sid="radius" type="float">0.1</radius>
          <area_shape sid="area_shape" type="int">1</area_shape>
          <area_size sid="area_size" type="float">0.1</area_size>
          <area_sizey sid="area_sizey" type="float">0.1</area_sizey>
          <area_sizez sid="area_sizez" type="float">1</area_sizez>
        </technique>
      </extra>
    </light>
  </library_lights>
  <library_effects>
    <effect id="Part__Feature001_005-effect">
      <profile_COMMON>
        <technique sid="common">
          <lambert>
            <emission>
              <color sid="emission">0 0 0 1</color>
            </emission>
            <diffuse>
              <color sid="diffuse">0 0 0 1</color>
            </diffuse>
            <index_of_refraction>
              <float sid="ior">1.45</float>
            </index_of_refraction>
          </lambert>
        </technique>
      </profile_COMMON>
    </effect>
    <effect id="Part__Feature_009-effect">
      <profile_COMMON>
        <technique sid="common">
          <lambert>
            <emission>
              <color sid="emission">0 0 0 1</color>
            </emission>
            <diffuse>
              <color sid="diffuse">0.4870227 0.2351473 0.01269004 1</color>
            </diffuse>
            <index_of_refraction>
              <float sid="ior">1.45</float>
            </index_of_refraction>
          </lambert>
        </technique>
      </profile_COMMON>
    </effect>
  </library_effects>
  <library_images/>
  <library_materials>
    <material id="Part__Feature001_005-material" name="Part__Feature001.005">
      <instance_effect url="#Part__Feature001_005-effect"/>
    </material>
    <material id="Part__Feature_009-material" name="Part__Feature.009">
      <instance_effect url="#Part__Feature_009-effect"/>
    </material>
  </library_materials>
  <library_geometries>
    <geometry id="Part__Feature001_005-mesh" name="Part__Feature001.005">
      <mesh>
        <source id="Part__Feature001_005-mesh-positions">
          <float_array id="Part__Feature001_005-mesh-positions-array" count="549">-0.09033858 1.364817 2.802703 -0.08908426 1.36551 2.807803 -0.0891214 1.359768 2.804826 -0.08600735 1.351764 2.804056 -0.086703 1.366673 2.811167 -0.08649945 1.3543 2.806765 -0.08621042 1.358947 2.810274 -0.0833491 1.36146 2.813283 -0.07828521 1.342866 2.801658 -0.08048355 1.346052 2.80757 -0.07969242 1.361196 2.814664 -0.08169543 1.351515 2.811352 -0.07374352 1.339813 2.804347 -0.07521671 1.361843 2.814731 -0.07453739 1.342847 2.810225 -0.07740801 1.3497 2.813457 -0.06511759 1.336651 2.805361 -0.07238692 1.364125 2.813784 -0.06975734 1.339141 2.80869 -0.06376427 1.336936 2.808078 -0.06927245 1.36588 2.811645 -0.07114952 1.345963 2.814369 -0.06757575 1.349627 2.815886 -0.06450235 1.341254 2.813677 -0.06659692 1.366707 2.808048 -0.06116122 1.338532 2.811598 -0.06529766 1.366703 2.803952 -0.06798124 1.362165 2.8122 -0.06383049 1.344832 2.815586 -0.06870126 1.356507 2.8148 -0.06511515 1.363598 2.807902 -0.06169176 1.358207 2.812012 -0.06390273 1.363875 2.803521 -0.06270098 1.35439 2.815045 -0.06376045 1.360476 2.810463 -0.06303834 1.362536 2.805702 -0.06034553 1.360193 2.808663 -0.06002986 1.361146 2.804144 -0.06206393 1.610696 2.801712 -0.06135368 1.610299 2.807643 -0.06695395 1.609205 2.80748 -0.07105654 1.608384 2.803612 -0.06135058 1.608129 2.811707 -0.07579183 1.605756 2.802691 -0.06201303 1.604653 2.814697 -0.07348185 1.605379 2.80936 -0.06619852 1.60593 2.812757 -0.06126338 1.599966 2.816375 -0.08062005 1.601403 2.805328 -0.06797158 1.60114 2.815079 -0.07897496 1.600571 2.809778 -0.08467167 1.596364 2.805681 -0.0734632 1.601538 2.81293 -0.0853908 1.595933 2.801935 -0.0663765 1.595125 2.815735 -0.06493169 1.592806 2.815088 -0.08900928 1.58827 2.803403 -0.08063519 1.594836 2.812471 -0.08476352 1.593957 2.808692 -0.07532238 1.594186 2.814958 -0.06012147 1.589402 2.812808 -0.08948057 1.583388 2.806533 -0.08740866 1.584969 2.809866 -0.06401211 1.589985 2.813774 -0.06001597 1.586516 2.808598 -0.08108007 1.585795 2.814221 -0.08489155 1.583024 2.81254 -0.05954164 1.58574 2.803081 -0.072034 1.587279 2.81465 -0.07698398 1.585963 2.814913 -0.06565195 1.587522 2.812492 -0.06333345 1.585721 2.809235 -0.06924903 1.583855 2.812558 -0.06161689 1.585046 2.804914 -0.07368069 1.581709 2.814182 -0.06436473 1.583357 2.80675 -0.0675165 1.581613 2.809885 -0.07025635 1.580122 2.812343 -0.06606727 1.580333 2.806908 -0.06511813 1.580713 2.803373 -0.02784514 1.335946 2.804401 -0.02721202 1.339768 2.797763 -0.02687811 1.347644 2.794262 -0.027098 1.355418 2.796567 -0.02756392 1.359746 2.801452 -0.0283249 1.360945 2.809431 -0.08962953 1.365005 2.798271 -0.08742511 1.363396 2.794338 -0.08315271 1.364822 2.790889 -0.07780039 1.360742 2.789785 -0.07059341 1.364917 2.791853 -0.06803208 1.36605 2.794184 -0.06563186 1.365764 2.798496 -0.06528979 1.366948 2.801012 -0.02805429 1.61101 2.806593 -0.02736175 1.608575 2.799333 -0.06169909 1.606633 2.794504 -0.0268802 1.599994 2.794283 -0.06194585 1.60183 2.791675 -0.0271846 1.589793 2.797475 -0.05893486 1.591833 2.793244 -0.05943411 1.589303 2.795198 -0.0279538 1.585792 2.80554 -0.02901029 1.356621 2.816617 -0.02929139 1.349759 2.819563 -0.02916771 1.342709 2.818268 -0.0286467 1.33703 2.812805 -0.06419229 1.364162 2.800956 -0.06625908 1.361457 2.7941 -0.06330353 1.359941 2.795569 -0.0736804 1.363283 2.790324 -0.06215107 1.361266 2.798837 -0.06970119 1.358167 2.790888 -0.05926805 1.360368 2.799945 -0.06348866 1.352231 2.791381 -0.06133115 1.354962 2.792819 -0.059376 1.358138 2.795815 -0.08283323 1.355442 2.792661 -0.07147216 1.350759 2.790587 -0.07730168 1.352555 2.791105 -0.06135994 1.346959 2.791295 -0.08868265 1.359422 2.798427 -0.08664923 1.354635 2.798126 -0.08092468 1.348744 2.79529 -0.07308268 1.345463 2.792822 -0.06280684 1.342794 2.792557 -0.08272325 1.347643 2.799645 -0.07503807 1.34314 2.796018 -0.06203466 1.340039 2.79457 -0.06787967 1.339533 2.796503 -0.06927758 1.338378 2.799685 -0.06079053 1.337139 2.798536 -0.06099063 1.335846 2.803087 -0.05870807 1.586852 2.798834 -0.06174123 1.586188 2.797983 -0.0627942 1.584105 2.802253 -0.06331503 1.587525 2.794875 -0.06437444 1.582856 2.799685 -0.06462424 1.591414 2.791858 -0.06034958 1.595193 2.791703 -0.0655772 1.583835 2.79585 -0.06613719 1.602155 2.791952 -0.06576031 1.579843 2.798512 -0.06868147 1.585771 2.792165 -0.06706148 1.595936 2.790687 -0.07578241 1.587092 2.789851 -0.0686255 1.580693 2.793537 -0.06112152 1.608743 2.796915 -0.0726425 1.583174 2.790709 -0.0738666 1.59461 2.790487 -0.0699563 1.60498 2.794553 -0.07685512 1.595632 2.79135 -0.06996792 1.607515 2.798272 -0.07729959 1.600128 2.794142 -0.07713347 1.602866 2.796918 -0.08169686 1.582127 2.79031 -0.08314299 1.591626 2.793103 -0.08019804 1.602016 2.800634 -0.0833249 1.585497 2.791463 -0.08429867 1.595302 2.796838 -0.08771133 1.589129 2.797333 -0.08745819 1.581853 2.794202 -0.09026181 1.58136 2.800073 -0.02865242 1.587151 2.812865 -0.02918916 1.592952 2.818492 -0.02924919 1.602589 2.819122 -0.02868777 1.609425 2.813236 -0.02379113 1.574039 2.782962 -0.02379345 1.622752 2.782982 -0.02578079 1.622717 2.782757 -0.03040432 1.622751 2.83123 -0.03040605 1.57404 2.83125 -0.02841418 1.574048 2.831432 -0.02841639 1.622716 2.831454 -0.025783 1.574047 2.782779 -0.02578175 1.324039 2.782771 -0.02378994 1.372717 2.782947 -0.02578401 1.372751 2.782791 -0.0304054 1.37273 2.831243 -0.0304073 1.324061 2.831263 -0.02841514 1.372738 2.831441 -0.02841287 1.324026 2.831419 -0.0237919 1.324047 2.78297</float_array>
          <technique_common>
            <accessor source="#Part__Feature001_005-mesh-positions-array" count="183" stride="3">
              <param name="X" type="float"/>
              <param name="Y" type="float"/>
              <param name="Z" type="float"/>
            </accessor>
          </technique_common>
        </source>
        <source id="Part__Feature001_005-mesh-normals">
          <float_array id="Part__Feature001_005-mesh-normals-array" count="2424">-0.965579 -0.2547717 -0.05242621 -0.9593006 -0.1249884 0.25322 -0.9593042 -0.1249523 0.2532241 -0.9593239 -0.1248306 0.2532093 -0.9323538 -0.3587985 -0.04449784 -0.9323497 -0.3588023 -0.0445525 -0.9323602 -0.3587878 -0.04444956 -0.9103649 -0.3712625 0.1827564 -0.9103979 -0.3712748 0.1825674 -0.9103855 -0.3714324 0.1823081 -0.8738834 -0.2193304 0.4338455 -0.8664177 -0.2654631 0.4229066 -0.7906714 -0.1199176 0.6003822 -0.790643 -0.1200591 0.6003912 -0.7906597 -0.1199874 0.6003835 -0.6633805 -0.1275497 0.7373313 -0.7450993 -0.6636905 0.06589347 -0.7448554 -0.6640079 0.06545227 -0.7449893 -0.6638444 0.06558549 -0.7415279 -0.6656444 0.08398777 -0.7414586 -0.6657192 0.0840063 -0.741573 -0.6655964 0.08396923 -0.7447953 -0.3720114 0.5539744 -0.7716776 -0.5282126 0.3542674 -0.733936 -0.4886505 0.4717614 -0.7338489 -0.4887 0.4718455 -0.7339842 -0.4886327 0.4717047 -0.6203075 -0.763168 0.1810889 -0.620431 -0.7631033 0.1809392 -0.6204911 -0.7630898 0.1807894 -0.5907002 -0.2470102 0.7681532 -0.5907137 -0.247016 0.7681409 -0.5907186 -0.2470184 0.7681363 -0.556602 -0.7661162 0.3213412 -0.5565308 -0.7661472 0.3213909 -0.5565361 -0.7661447 0.3213875 -0.5092339 -0.2449461 0.8250348 -0.5089021 -0.2454283 0.8250962 -0.5090704 -0.245266 0.8250405 -0.5437796 -0.5558843 0.6287262 -0.5674911 -0.5339713 0.6267605 -0.5676273 -0.5338823 0.6267127 -0.567453 -0.5339903 0.6267787 -0.5051584 -0.7927578 0.3411014 -0.3589435 -0.1677417 0.9181624 -0.3572165 -0.9152914 0.1861132 -0.3572988 -0.9152655 0.1860828 -0.357214 -0.915292 0.1861145 -0.312166 -0.916295 0.2509105 -0.3121429 -0.9163146 0.2508674 -0.3121669 -0.9162941 0.2509123 -0.4211269 -0.525381 0.7393423 -0.4211122 -0.5253361 0.7393825 -0.4211445 -0.5254112 0.7393109 -0.330666 -0.6921287 0.6415746 -0.1054152 -0.9822155 0.1553719 -0.1057177 -0.9822201 0.1551374 -0.1056125 -0.9822249 0.1551784 -0.2380273 -0.1483398 0.9598637 -0.2380056 -0.1482926 0.9598764 -0.2380487 -0.1483727 0.9598534 -0.3445652 -0.5922952 0.7283278 -0.3442918 -0.5923889 0.7283808 -0.3439768 -0.5925713 0.7283813 -0.2406344 -0.8046691 0.5427734 -0.2547906 -0.7650574 0.5914128 -0.2550929 -0.764869 0.5915262 -0.2548759 -0.765017 0.5914282 -0.2367625 -0.1642774 0.9575785 -0.2368118 -0.1641061 0.9575957 -0.2367464 -0.1643804 0.9575647 -0.02538931 0.07816231 0.9966174 -0.02543735 0.07734376 0.99668 -0.02536666 0.0781005 0.9966228 0.4312197 0.278306 0.8582513 0.431333 0.2788822 0.8580073 0.4312649 0.278719 0.8580946 0.1571427 0.2057732 0.9659004 0.156981 0.2055156 0.9659816 0.1570947 0.2057191 0.9659198 -0.2122165 -0.4285414 0.8782463 0.4453436 0.326573 0.8336781 0.1341716 0.1762254 0.9751629 0.1343494 0.1759842 0.9751819 0.1337229 0.1763491 0.9752022 0.7155793 0.3397856 0.6103212 0.7348583 0.322054 0.596879 0.7348918 0.3218485 0.5969486 0.7348678 0.3217032 0.5970566 -0.1924299 -0.2098051 0.9586201 -0.1923883 -0.2096666 0.9586588 -0.192389 -0.2096682 0.9586583 0.2625668 0.3745878 0.8892371 0.262297 0.3746532 0.8892892 0.2624561 0.3746011 0.8892643 0.4839045 0.750165 0.4506542 0.4839711 0.7499428 0.4509521 0.4842088 0.7495746 0.4513089 0.8774601 0.3909621 0.2778712 0.8774841 0.3909487 0.2778145 0.877506 0.3909317 0.2777692 0.8743909 0.4047089 0.2676779 0.8743852 0.4047022 0.2677063 0.874379 0.4046906 0.2677443 0.0156508 0.1595059 0.987073 0.01558816 0.1595123 0.987073 0.01520246 0.1594762 0.9870848 0.4963905 0.6692035 0.5529586 0.4964445 0.6690745 0.5530661 0.4963774 0.6692278 0.5529411 0.173615 0.5849066 0.7923018 0.1736435 0.5849066 0.7922956 0.1735476 0.5849037 0.7923188 0.6180174 0.755174 0.2185562 0.6180667 0.7551271 0.2185785 0.618043 0.7551503 0.2185657 0.7033712 0.6070092 0.3698769 0.70273 0.6072492 0.370701 0.703182 0.6070191 0.3702201 0.3646524 0.7285146 0.5799096 0.3646678 0.7284941 0.5799257 0.3645665 0.7286499 0.5797936 0.2906287 0.8616876 0.415968 0.2905645 0.8616893 0.4160094 0.2904386 0.8616819 0.4161126 0.4975141 0.8413155 0.211348 0.4974191 0.84134 0.2114744 0.4972983 0.8413546 0.2117004 -0.1935207 0.9770742 0.08874571 -0.2393751 0.9697638 0.04751783 -0.2391945 0.9698085 0.04751342 -0.2392182 0.9698029 0.04750984 -0.1825263 0.8673667 0.4629895 -0.1826102 0.8674007 0.4628927 -0.1825845 0.8673929 0.4629173 -0.2496061 0.8063599 0.5361721 -0.4275904 0.8625822 0.2704047 -0.1393368 0.6612703 0.7370935 -0.1393225 0.6612344 0.7371285 -0.1393016 0.6611512 0.7372071 -0.5058202 0.8335261 0.2222172 -0.3082565 0.7883952 0.5323635 -0.3083212 0.7883687 0.5323653 -0.3083451 0.7883582 0.5323672 -0.6572374 0.7526345 0.03975337 -0.6572313 0.7526397 0.03975576 -0.6572808 0.7525977 0.03973269 -0.5732311 0.7823879 0.2434656 -0.5731531 0.7824373 0.2434905 -0.5728283 0.7826774 0.243483 -0.7584345 0.6515505 0.01609349 -0.7583088 0.6516937 0.01622188 -0.7583821 0.6516106 0.01613837 -0.237563 0.4930427 0.8369424 -0.2375782 0.4930447 0.836937 -0.2374225 0.4930433 0.836982 -0.6006806 0.7164097 0.3548802 -0.6003121 0.7167776 0.354761 -0.6004798 0.7166292 0.3547769 -0.1276343 0.3158405 0.9401885 -0.1274358 0.315537 0.9403173 -0.1277599 0.3164532 0.9399654 -0.7747383 0.6277006 0.07597744 -0.7745899 0.6279056 0.07579731 -0.7746809 0.6277834 0.07587987 -0.3650309 0.632044 0.6835737 -0.3649997 0.6320842 0.683553 -0.3647903 0.6324668 0.6833109 -0.283616 0.5013417 0.8174464 -0.4753478 0.5976051 0.6456878 -0.4751413 0.59825 0.6452425 -0.4752383 0.5980757 0.6453326 -0.709798 0.5969635 0.3739269 -0.8886464 0.4427701 0.1194251 -0.8886992 0.4426785 0.1193719 -0.8886739 0.4427239 0.1193922 -0.7152916 0.5567514 0.4223577 -0.7152761 0.5567664 0.422364 -0.7152779 0.5567647 0.4223633 -0.4965743 0.4832993 0.7209964 -0.4966676 0.4833122 0.7209235 -0.4965648 0.4832971 0.7210044 -0.3232711 0.3263047 0.8882686 -0.3232589 0.326316 0.8882689 -0.323508 0.3261443 0.8882412 -0.08171623 -0.04544919 0.9956188 -0.3663367 0.3310074 0.8696158 -0.3666856 0.3310394 0.8694565 -0.3667731 0.3310633 0.8694105 -0.8760203 0.3893674 0.2845727 -0.648599 0.4691392 0.5993561 -0.1618381 0.1537922 0.9747597 -0.1618363 0.1536652 0.97478 -0.1618433 0.1537383 0.9747673 -0.8763217 0.31708 0.3626578 0.1707284 -0.369419 0.9134448 0.1706812 -0.3695867 0.9133858 0.1706874 -0.3695456 0.9134013 -0.9869187 0.1430003 0.07444822 -0.6792335 0.288075 0.675022 -0.8668773 0.3066594 0.3930445 -0.8667364 0.3068574 0.3932008 -0.8668472 0.3067142 0.3930679 -0.08853977 0.01252889 0.9959939 -0.08854812 0.01206082 0.9959989 -0.08858031 0.0122978 0.9959931 -0.3965268 0.1932288 0.8974571 -0.6204436 0.228269 0.7502954 -0.6204993 0.2284168 0.7502043 -0.6206965 0.2285522 0.7499999 0.1294057 -0.5244773 0.8415329 0.1293981 -0.5246864 0.8414039 0.1293904 -0.5246054 0.8414555 -0.5072838 0.187776 0.8410727 0.292004 -0.7863197 0.5444585 0.2921041 -0.7863197 0.5444049 0.2915307 -0.7862392 0.5448282 0.1014879 -0.2086575 0.9727087 0.1010231 -0.2081707 0.9728615 0.1011868 -0.2084802 0.9727782 0.1078093 -0.2122842 0.9712429 0.1078097 -0.2122554 0.9712491 0.107819 -0.2121949 0.9712613 -0.04945319 -0.434167 0.8994739 -0.04964315 -0.4341567 0.8994684 -0.04938912 -0.4341787 0.8994719 -0.1677608 0.02806812 0.9854281 -0.1677407 0.02805447 0.985432 -0.1676672 0.02801591 0.9854455 0.2298293 -0.773735 0.5903498 0.2298994 -0.7736343 0.5904542 0.2297445 -0.7738214 0.5902693 0.464612 -0.4417156 0.7674785 0.464043 -0.4421938 0.7675474 0.4630537 -0.4424809 0.7679793 0.2717092 -0.9283571 0.2536282 0.2717688 -0.9283593 0.2535563 0.2718788 -0.9283744 0.2533829 0.2301517 -0.3659802 0.9017144 0.2301478 -0.3659873 0.9017125 0.2302596 -0.3657402 0.9017842 0.4395544 -0.8835469 0.1616691 0.4395486 -0.8835524 0.1616544 0.439598 -0.8834926 0.1618472 0.08218443 -0.1075594 0.990796 0.08213877 -0.1076578 0.9907891 0.08212006 -0.1076919 0.990787 0.4206893 -0.1986621 0.8851858 0.5698212 -0.4762873 0.6696673 0.5698857 -0.4764104 0.6695249 0.5698144 -0.4762704 0.669685 0.4983139 -0.4764207 0.7243664 0.498277 -0.4764963 0.7243421 0.4982733 -0.4765043 0.7243393 0.65209 -0.6659314 0.362373 0.6522179 -0.665779 0.3624225 0.6523424 -0.6655831 0.3625583 0.6869612 -0.6467553 0.3313485 0.6869505 -0.6467646 0.3313526 0.686954 -0.6467615 0.3313513 0.408206 -0.1616041 0.8984721 0.4081731 -0.1615301 0.8985003 0.4080694 -0.1614074 0.8985694 0.548049 -0.8347772 0.05281382 0.5480131 -0.8348024 0.05278831 0.5480298 -0.8347907 0.05280131 0.7483653 -0.3932727 0.5341217 0.7483589 -0.3932802 0.5341253 0.7483148 -0.3933352 0.5341464 0.7167541 -0.2318686 0.6576477 0.7168661 -0.2316929 0.6575877 0.7169818 -0.2314187 0.657558 0.837266 -0.5055506 0.2083373 0.8372174 -0.5055363 0.2085672 0.8372377 -0.5055527 0.2084454 0.8610935 -0.4754716 0.180124 0.01380521 -0.9618448 -0.2732471 0.01374292 -0.9618441 -0.2732527 0.0137993 -0.9618448 -0.2732479 0.05654639 -0.8672652 -0.4946248 0.05660152 -0.8672627 -0.4946228 0.05655038 -0.8672649 -0.4946249 0.04880595 -0.7994598 -0.5987337 0.04889953 -0.7994513 -0.5987375 0.04902261 -0.7994313 -0.5987541 0.0703004 -0.5750635 -0.8150827 0.07007896 -0.5750828 -0.8150882 0.07023251 -0.575063 -0.8150889 0.09812062 -0.4077223 -0.9078189 0.0875318 -0.3156301 -0.9448364 0.08787113 -0.3156668 -0.9447926 0.08766293 -0.3156303 -0.9448242 0.08462047 0.05045121 -0.9951352 0.09428381 0.4035343 -0.9100939 0.09400415 0.4035569 -0.9101128 0.0934872 0.4037779 -0.910068 0.1106762 0.2854443 -0.9519835 0.07305324 0.6600771 -0.7476373 0.07851314 0.7499197 -0.6568533 0.03978049 0.8794424 -0.4743402 0.03988397 0.8794395 -0.4743369 0.03984969 0.8794409 -0.4743372 0.03555119 0.9837951 -0.1757372 0.02639144 0.9888045 -0.1468646 0.02636027 0.9888052 -0.1468654 0.02639418 0.9888045 -0.1468644 -0.9874291 -0.001569747 -0.1580552 -0.8722686 0.001721203 -0.4890244 -0.8722835 0.001590192 -0.4889982 -0.8719975 9.52866e-4 -0.4895095 -0.9023712 -4.04236e-4 -0.4309593 -0.6276515 -5.20123e-4 -0.7784943 -0.6276635 -4.338e-4 -0.7784847 -0.6280938 -0.001153588 -0.7781367 -0.5598332 0.00154525 -0.828604 -0.2022518 -0.001364231 -0.9793327 -0.2023519 -0.001591682 -0.9793117 -0.2028038 -0.001822829 -0.9792178 -0.07811945 0.001324236 -0.9969432 -0.07844495 9.08133e-4 -0.9969182 -0.07837677 7.73319e-4 -0.9969235 0.1305868 -7.80605e-4 -0.9914366 0.1305253 -6.19899e-4 -0.9914448 0.1301177 -0.001349389 -0.9914976 0.2638562 4.42571e-4 -0.9645619 0.4433637 -8.98083e-4 -0.8963415 0.4432972 -6.52345e-4 -0.8963746 0.4440674 -0.001391172 -0.8959924 0.5761097 0.002034187 -0.8173698 0.5767789 7.12816e-4 -0.8169001 0.5768486 9.74794e-4 -0.8168505 0.6728909 -5.1927e-4 -0.7397417 0.672875 -4.16826e-4 -0.7397562 0.6732277 -8.49629e-4 -0.7394348 0.8665804 5.55447e-4 -0.4990371 0.8739858 9.46829e-4 -0.4859506 0.8739855 9.28516e-4 -0.4859511 0.8738245 6.12409e-4 -0.4862411 0.990804 4.6214e-4 -0.1353039 0.9908003 5.55386e-4 -0.1353316 0.9907998 6.0101e-4 -0.1353351 0.9914153 -0.001185297 -0.1307455 0.9999935 0.002243578 0.002856254 0.03639179 0.9486139 -0.3143364 0.03637808 0.948614 -0.3143377 0.03638428 0.948614 -0.3143371 0.03132212 0.927658 -0.3721151 0.03135424 0.9276594 -0.3721086 0.03128844 0.9276574 -0.3721196 0.05131465 0.745378 -0.6646642 0.09146553 0.5075734 -0.8567399 0.09166657 0.5075606 -0.8567261 0.09146392 0.5075737 -0.8567401 0.09026378 0.5020181 -0.860134 0.07893061 0.09780359 -0.9920709 0.1135857 -0.2792217 -0.953485 0.1159408 -0.3000395 -0.9468548 0.1159744 -0.3000414 -0.9468501 0.115935 -0.3000388 -0.9468559 0.09774744 -0.3795456 -0.9199949 0.09811061 -0.379473 -0.9199862 0.09827387 -0.3794833 -0.9199646 0.0647152 -0.6179567 -0.7835442 0.05256873 -0.8236378 -0.5646747 0.05262213 -0.8236303 -0.5646807 0.05251312 -0.8236437 -0.5646713 0.06474876 -0.8963614 -0.4385702 0.0210579 -0.9680867 -0.2497294 0.02106708 -0.968087 -0.2497279 0.02105766 -0.9680867 -0.2497295 -0.0278666 0.9785058 0.204328 -0.02874612 0.864521 0.501774 -0.02882009 0.8645262 0.5017607 -0.0287618 0.8645216 0.5017721 -0.03244584 0.8577861 0.5129819 -0.07787078 0.6326086 0.7705469 -0.07793509 0.6326125 0.7705373 -0.07788616 0.6326087 0.7705454 -0.06891024 0.3962417 0.9155566 -0.06892818 0.396242 0.9155551 -0.06892091 0.396242 0.9155557 -0.09310388 0.2643134 0.9599325 -0.09341812 0.264428 0.9598702 -0.09320771 0.264324 0.9599195 -0.0942102 -0.136165 0.9861965 -0.09386569 -0.1360504 0.9862452 -0.09407049 -0.1361438 0.9862129 -0.08690953 -0.1815798 0.9795282 -0.09633058 -0.4534731 0.8860489 -0.09626322 -0.4534785 0.8860534 -0.09617203 -0.4534935 0.8860557 -0.07013231 -0.658919 0.7489374 -0.06989157 -0.6588507 0.74902 -0.07003384 -0.6589054 0.7489587 -0.05875611 -0.6941702 0.7174088 -0.05885201 -0.6941744 0.717397 -0.05885326 -0.6941745 0.7173968 -0.05771446 -0.8930451 0.4462505 -0.05852872 -0.8929055 0.446424 -0.0579859 -0.8930281 0.4462495 -0.02421194 -0.9795155 0.1999084 -0.02410358 -0.9795094 0.1999508 -0.02416455 -0.9795135 0.1999233 -0.002133905 -0.9917305 0.1283202 -0.002202033 -0.991732 0.1283082 -0.002202451 -0.991732 0.1283081 0.8982232 0.437815 0.03889709 0.8982274 0.4378116 0.0388416 0.8982227 0.4378153 0.03890836 0.9281035 0.3668287 -0.0637241 0.8883476 0.3571679 -0.2885648 0.8883008 0.3570976 -0.2887957 0.8883126 0.3571223 -0.2887288 0.833808 0.3295183 -0.4429242 0.8338741 0.3294354 -0.4428617 0.8339057 0.3294006 -0.4428279 0.8659002 0.4531202 -0.2118939 0.8658838 0.4531254 -0.2119495 0.8658985 0.4531211 -0.2118988 0.5207762 0.8035619 0.2882366 0.5211482 0.8035083 0.2877138 0.5207955 0.803555 0.288221 0.5906964 0.2422381 -0.7696744 0.5905636 0.2428125 -0.7695953 0.590556 0.243212 -0.7694749 0.519529 0.712425 -0.4717417 0.5194424 0.7120413 -0.472416 0.5194005 0.7122268 -0.4721825 0.5796042 0.5388491 -0.6113107 0.5797727 0.5386689 -0.6113096 0.5799587 0.5385438 -0.6112434 0.8081871 0.5883635 -0.02573072 0.8081874 0.5883631 -0.02573108 0.8082299 0.588303 -0.02576988 0.5673928 0.1882441 -0.8016417 0.5673576 0.1882308 -0.8016699 0.5672137 0.1881927 -0.8017807 0.5853508 0.7812561 -0.2168025 0.5854148 0.7812126 -0.2167868 0.5853005 0.7812929 -0.2168061 0.360002 0.1771677 -0.915975 0.3606618 0.1780893 -0.9155367 0.3605545 0.1777502 -0.9156448 0.3345368 0.9355111 -0.1135967 0.3345221 0.9355164 -0.1135957 0.3344162 0.9355561 -0.1135809 0.4190391 0.3697403 -0.8292759 0.4190075 0.3697763 -0.8292757 0.4189925 0.3697947 -0.829275 0.5809639 0.5582401 -0.5923252 0.5812402 0.5580276 -0.5922543 0.5811237 0.5581297 -0.5922724 0.3937838 0.7946704 -0.4619885 0.3939252 0.7946184 -0.4619572 0.3940801 0.7945761 -0.461898 0.4156739 0.7947866 -0.4421874 0.4157655 0.7947203 -0.4422203 0.4157363 0.794741 -0.4422106 0.1965345 0.3307199 -0.9230378 0.1965957 0.3308293 -0.9229854 0.1964473 0.3306533 -0.9230801 0.1340171 -0.006426095 -0.9909582 0.134227 -0.005605638 -0.9909348 0.1342356 -0.005775034 -0.9909327 0.2993339 0.5500907 -0.7796151 0.2994541 0.5504793 -0.7792944 0.2997345 0.5508246 -0.7789427 -0.331873 -0.1857845 -0.9248484 -0.3319028 -0.1857368 -0.9248473 -0.3319194 -0.1857131 -0.924846 -0.3471238 -0.1692347 -0.9224234 -0.3472713 -0.1690595 -0.9223999 -0.347127 -0.1692302 -0.9224229 -0.5841457 -0.1699164 -0.7936638 -0.1384045 -0.1670033 -0.9761937 -0.1380208 -0.1670725 -0.9762362 -0.1377363 -0.1670456 -0.9762809 0.05065441 -0.04666525 -0.9976254 0.05060964 -0.04702925 -0.9976107 0.05088979 -0.04612201 -0.9976387 0.1602571 0.08417022 -0.9834801 0.1608573 0.08400577 -0.9833962 0.1606296 0.08418637 -0.9834179 -0.8875778 -0.1626123 -0.4310023 0.1517564 0.07783228 -0.9853488 0.1518102 0.07797515 -0.9853292 0.1518823 0.07807874 -0.9853099 -0.7886058 -0.3013861 -0.5359734 -0.788841 -0.3010185 -0.5358336 -0.7886814 -0.3012092 -0.5359614 -0.7561023 -0.3146245 -0.5738648 -0.7561241 -0.3146979 -0.5737957 -0.7561334 -0.3147457 -0.5737572 -0.9720298 -0.1694085 -0.162662 -0.4529094 -0.454728 -0.766874 -0.4525154 -0.4552846 -0.7667763 -0.4527033 -0.4548998 -0.7668938 -0.4304062 -0.4337487 -0.7915886 -0.4302923 -0.4337613 -0.7916437 -0.4301836 -0.4337427 -0.7917131 -0.1858439 -0.3341768 -0.9240064 -0.1858352 -0.3341953 -0.9240016 -0.1857481 -0.3343368 -0.9239678 -0.712521 -0.4227472 -0.5599988 -0.03713518 -0.2778025 -0.9599202 -0.1160094 -0.3563098 -0.9271382 -0.1159371 -0.3558465 -0.9273252 -0.1159099 -0.3560163 -0.9272634 -0.9188809 -0.3848555 -0.08685827 -0.7415602 -0.510707 -0.4350482 -0.7415519 -0.5107372 -0.4350269 -0.7415562 -0.5107229 -0.4350364 -0.4526571 -0.5657321 -0.6892379 -0.4527984 -0.5654785 -0.6893532 -0.4526724 -0.5656935 -0.6892594 -0.8467062 -0.5090355 -0.1548277 -0.1785752 -0.612146 -0.770317 -0.1783469 -0.6123411 -0.7702147 -0.1784543 -0.6122351 -0.7702741 -0.5980989 -0.6827846 -0.4196225 -0.2965996 -0.676675 -0.6738988 -0.2966477 -0.6767081 -0.6738445 -0.2968114 -0.6768934 -0.6735861 -0.5944865 -0.7108003 -0.3759637 -0.5944354 -0.7108498 -0.3759509 -0.5944971 -0.7107896 -0.3759674 -0.1928106 -0.6334078 -0.7494122 -0.1930203 -0.6334036 -0.7493618 -0.1929392 -0.6333988 -0.7493867 -0.3752657 -0.8062383 -0.4573351 -0.4772894 -0.820526 -0.3145344 -0.4772621 -0.8205288 -0.3145686 -0.4773455 -0.820515 -0.3144778 -0.4701429 -0.8627532 -0.1860716 -0.4707062 -0.8624612 -0.1860009 -0.4705777 -0.8625197 -0.1860551 -0.1151878 -0.8186786 -0.562581 -0.1853019 -0.8943047 -0.4072865 -0.1849459 -0.894443 -0.4071446 -0.1851375 -0.8943613 -0.4072372 -0.3395482 -0.9399079 -0.03577899 -0.3400281 -0.9397411 -0.03560256 -0.3401325 -0.9397035 -0.03559994 -0.1757583 -0.9449242 -0.2760929 -0.1757542 -0.9449307 -0.2760732 -0.1757485 -0.9449378 -0.2760528 -0.2484451 -0.9622765 -0.1109011 -0.2485395 -0.9622479 -0.110938 -0.2485207 -0.9622533 -0.1109326 0.9657858 -1.08687e-4 0.2593415 0.9532027 -7.49121e-4 0.3023312 0.8991226 1.07319e-4 0.4376969 0.8030336 -0.001524746 0.5959318 0.8030401 -0.001612424 0.5959229 0.8025796 -0.002430915 0.5965401 0.6675953 0.001313745 0.7445232 0.6671289 3.9065e-4 0.7449422 0.6670967 5.5426e-4 0.744971 0.5661202 -8.26803e-5 0.8243227 0.4736313 0.001204967 0.8807225 0.3163718 -8.37031e-5 0.9486353 0.3165628 -5.18341e-4 0.9485715 0.3163477 1.56273e-4 0.9486433 0.2171292 0.001496613 0.9761418 0.2167778 0.001371562 0.9762201 0.2165899 0.001088201 0.9762622 -0.01507395 -9.27266e-4 0.999886 -0.1665087 0.001394152 0.986039 -0.1669847 8.95449e-4 0.9859592 -0.166985 9.07243e-4 0.985959 -0.4037579 0.001550793 0.9148645 -0.4047516 -4.60191e-4 0.9144267 -0.4049259 -1.66207e-6 0.9143495 -0.3528943 -3.7102e-4 0.9356632 -0.3528934 -3.47432e-4 0.9356635 -0.3533446 -8.1814e-4 0.9354929 -0.5341946 -0.001269876 0.8453607 -0.5340532 -0.001030743 0.8454504 -0.5344422 -0.001367688 0.8452039 -0.7276734 0.001737833 0.6859216 -0.8162519 8.04871e-4 0.5776956 -0.8495851 0.001528739 0.5274494 -0.9710528 -3.74238e-4 0.238865 -0.9928351 0.0018031 0.1194798 0.2621186 -0.9446703 -0.1972102 0.2620977 -0.9446749 -0.1972167 0.261565 -0.9448128 -0.1972624 0.4175399 -0.8989637 0.132381 0.4176189 -0.8989384 0.1323033 0.4175263 -0.8989676 0.1323971 0.4865809 -0.8265203 -0.2830253 0.4865823 -0.8265605 -0.2829054 0.4865799 -0.8265286 -0.2830029 0.3171091 -0.8020069 -0.5061887 0.3173471 -0.8018538 -0.506282 0.3170461 -0.8020822 -0.5061088 0.3804269 -0.729045 -0.5690069 0.3803086 -0.7291723 -0.5689229 0.3803245 -0.7291538 -0.568936 0.2278727 -0.6238003 -0.7476279 0.2279673 -0.623794 -0.7476042 0.2276691 -0.62379 -0.7476984 0.7422091 -0.6558449 -0.137816 0.7423628 -0.6557681 -0.1373524 0.7423783 -0.6557889 -0.1371695 0.77991 -0.5965095 -0.1895177 0.7798687 -0.5966175 -0.1893473 0.7799012 -0.5965474 -0.1894341 0.2470731 -0.3167147 -0.9157766 0.2471864 -0.3164576 -0.9158349 0.2471587 -0.3165448 -0.9158121 0.3042447 -0.5175366 -0.7997444 0.3043172 -0.5176119 -0.7996681 0.3043684 -0.5177456 -0.799562 0.6266921 -0.6850727 -0.3713926 0.1275609 -0.1845455 -0.9745109 0.1276636 -0.1844716 -0.9745113 0.1276544 -0.1844795 -0.974511 0.9146921 -0.4012264 -0.04853785 0.9146895 -0.4012328 -0.04853171 0.9147116 -0.4011751 -0.04859381 0.5136585 -0.4112285 -0.7530246 0.5136663 -0.4112431 -0.7530114 0.5136644 -0.4112396 -0.7530145 0.4954773 -0.6788346 -0.5419279 0.4964272 -0.6781966 -0.5418574 0.4959977 -0.6785807 -0.5417699 0.6120877 -0.3592708 -0.7044666 0.2242786 -0.1298364 -0.9658372 0.2242211 -0.1298853 -0.965844 0.2242859 -0.1298287 -0.9658367 0.8951337 -0.2743591 -0.3513728 0.8953148 -0.2742471 -0.3509987 0.8953323 -0.2742474 -0.3509539 -0.01769804 0.508148 -0.861088 0.7741621 -0.3750934 -0.5098807 0.7741935 -0.375114 -0.5098178 0.7742078 -0.3751289 -0.5097849 0.704568 -0.1778226 -0.6869957 -0.04652065 0.2355835 -0.9707401 -0.04603922 0.2353252 -0.9708257 -0.04629451 0.2353655 -0.9708038 -0.003427684 0.1688194 -0.9856411 -0.003421366 0.1684109 -0.985711 -0.003408432 0.1684414 -0.9857058 0.1981732 -0.05711418 -0.9785017 0.1983691 -0.05702155 -0.9784673 0.1982495 -0.05708229 -0.978488 0.5473389 -0.4317895 -0.7169227 0.547394 -0.4319093 -0.7168083 0.5473883 -0.4318869 -0.7168263 -0.1206414 0.579023 -0.8063362 -0.1529834 0.3371843 -0.9289257 -0.156143 0.7615076 -0.6290672 -0.2360685 0.4658128 -0.852813 -0.235834 0.4657585 -0.8529075 -0.235888 0.4657598 -0.852892 -0.1972339 0.8106656 -0.5512896 -0.1974587 0.8106108 -0.5512895 -0.1969466 0.8107087 -0.5513287 -0.1867295 0.8966071 -0.401532 -0.1867332 0.8965918 -0.4015645 -0.1867129 0.8966447 -0.4014557 0.4632194 -0.2251399 -0.8571697 0.4630132 -0.2252351 -0.8572561 0.4629896 -0.2252491 -0.8572652 0.01204234 0.08048599 -0.9966831 0.01213133 0.08017921 -0.9967067 0.01224988 0.07995027 -0.9967237 -0.2751228 0.4875053 -0.8286412 -0.2751358 0.4875341 -0.8286199 -0.2751192 0.4874957 -0.828648 -0.3939138 0.7588055 -0.5186965 -0.3939961 0.7587019 -0.5187858 -0.3939338 0.7587749 -0.5187263 -0.2849094 0.9354305 -0.2092763 -0.2849664 0.9354141 -0.2092716 -0.2849315 0.9354242 -0.209274 -0.4031589 0.6635107 -0.6302512 -0.2254112 0.1543366 -0.9619616 -0.2254257 0.1543564 -0.961955 -0.2253441 0.1542639 -0.9619889 -0.1836625 0.1280158 -0.9746179 -0.1846095 0.1280159 -0.974439 -0.1840311 0.1279281 -0.9745599 -0.4778666 0.8249559 -0.3018132 -0.477865 0.8249793 -0.3017521 -0.477878 0.8249993 -0.3016766 -0.4847005 0.4263867 -0.7637146 -0.43781 0.8688511 -0.2311277 -0.4376283 0.8689197 -0.2312145 -0.4378142 0.8688498 -0.231125 -0.5469572 0.7922601 -0.2704842 -0.5469921 0.7922403 -0.2704721 -0.547055 0.7922058 -0.2704457 -0.2963353 0.179006 -0.9381589 -0.2965192 0.1787459 -0.9381505 -0.2958593 0.1793206 -0.9382491 -0.5832454 0.4805018 -0.6549373 -0.5831603 0.4805918 -0.6549471 -0.5831717 0.4805788 -0.6549463 -0.403658 0.2479894 -0.8806597 -0.4037399 0.2478851 -0.8806515 -0.4037722 0.2478229 -0.8806543 -0.6087959 0.5830307 -0.537999 -0.6087132 0.5829964 -0.5381298 -0.6086958 0.5829792 -0.5381681 -0.662687 0.6319386 -0.4018701 -0.6628354 0.2113955 -0.7183044 -0.6630185 0.2114905 -0.7181074 -0.662773 0.211399 -0.7183609 -0.7321354 0.3586663 -0.5790822 -0.7320922 0.3586724 -0.5791332 -0.7320527 0.358666 -0.579187 -0.7633039 0.6007875 -0.2375328 -0.7633038 0.6007875 -0.2375328 -0.7633308 0.6007531 -0.2375328 -0.7278431 0.2494837 -0.6387506 -0.5607085 0.01325833 -0.8279071 -0.5607467 0.01319825 -0.8278824 -0.5608446 0.0129283 -0.8278203 -0.8575365 0.4551191 -0.2397872 -0.8575186 0.4551396 -0.2398121 -0.8575016 0.4551572 -0.2398396 -0.9056035 0.4014403 -0.1368506 -0.8972218 0.1477999 -0.4161109 -0.9526568 0.2535531 -0.1677979 -0.009150505 -0.9902141 0.1392564 -0.009242415 -0.9902138 0.1392523 -0.009135842 -0.9902143 0.1392562 -0.004877388 -0.9832194 0.1823619 -0.004878938 -0.9832195 0.1823618 -0.004890501 -0.9832197 0.1823605 -0.05997276 -0.8245316 0.5626286 -0.05992639 -0.8245337 0.5626304 -0.05993139 -0.8245336 0.5626301 -0.05117154 -0.6984657 0.7138118 -0.05119729 -0.6984649 0.7138106 -0.05113589 -0.698466 0.7138141 -0.07167714 -0.6228094 0.7790835 -0.0885939 -0.3186442 0.9437251 -0.07758283 -0.06548869 0.9948328 -0.08171069 -0.0454688 0.9956184 -0.1069239 0.3196801 0.9414733 -0.1069489 0.3196759 0.9414719 -0.1069732 0.3196734 0.94147 -0.06009775 0.6571958 0.7513203 -0.06009447 0.6571954 0.7513208 -0.06010645 0.6571969 0.7513186 -0.06124782 0.6541277 0.7539003 -0.05684912 0.8811241 0.4694558 -0.05693948 0.8811232 0.4694463 -0.05683374 0.8811237 0.4694581 -0.01350569 0.972898 0.2308399 -0.01906275 0.9973857 0.06970202 -0.01909512 0.997385 0.06970441 -0.01913368 0.9973842 0.06970483 0.004077315 -0.9999916 5.83341e-4 -0.004197657 -0.999991 -5.92883e-4 0.1122648 4.13927e-4 -0.9936783 0.091259 -4.69021e-4 -0.9958271 0.09125906 -4.68988e-4 -0.9958271 0.09125906 -4.6866e-4 -0.9958271 0.01718056 0.9998497 0.00235188 -0.01730555 0.9998475 -0.002342879 -0.111632 4.12495e-4 0.9937496 -0.09123122 -4.62732e-4 0.9958297 0.9954823 8.73667e-6 0.09494853 0.9954829 1.86672e-6 0.09494149 -0.9954825 3.21133e-6 -0.09494626 -0.9954825 1.0533e-5 -0.09494662 -0.9954824 8.5936e-7 -0.09494721 -0.9954825 0 -0.09494572 -0.9954825 4.27375e-6 -0.0949456 -0.9954807 -4.22161e-6 -0.09496426 -0.9954814 -8.91617e-6 -0.09495657 -0.9954828 8.68444e-7 -0.09494298 -0.9954829 -2.47556e-5 -0.09494256 -0.995482 -8.76902e-6 -0.09495091 -0.9954814 -7.89897e-6 -0.09495782 -0.995482 7.2373e-7 -0.09495133 -0.9954829 2.44114e-6 -0.09494197 -0.0172379 -0.9998508 -0.001194596 0.003899514 -0.9999924 -4.78472e-5 0.07847505 4.12199e-4 -0.9969161 0.07847505 4.1516e-4 -0.9969161 0.07847499 4.05395e-4 -0.9969161 0.09921473 -4.67168e-4 -0.995066 0.01706081 0.9998538 0.001194715 -0.004137814 0.9999915 5.74018e-5 -0.09858763 4.0842e-4 0.9951284 -0.07798641 -4.62323e-4 0.9969543 0.9954825 2.74733e-6 0.09494626 0.9954825 3.1454e-6 0.09494674 -0.9954826 5.9373e-6 -0.09494405 -0.9954809 -6.50644e-6 -0.09496194 -0.9954823 2.69496e-6 -0.09494882 -0.9954811 -1.32581e-5 -0.09496062 -0.9954813 -1.96861e-5 -0.0949583 -0.9954824 1.95964e-6 -0.09494668 -0.9954824 -3.05548e-7 -0.09494668 -0.9954818 -1.6187e-6 -0.09495288 -0.9954812 -1.17137e-5 -0.09495955 -0.9954833 7.87925e-7 -0.09493666 -0.9954799 -8.39265e-6 -0.09497243 -0.9954817 2.00816e-7 -0.0949546 -0.995482 -6.0837e-7 -0.09495115 -0.9954828 6.43081e-6 -0.09494268</float_array>
          <technique_common>
            <accessor source="#Part__Feature001_005-mesh-normals-array" count="808" stride="3">
              <param name="X" type="float"/>
              <param name="Y" type="float"/>
              <param name="Z" type="float"/>
            </accessor>
          </technique_common>
        </source>
        <vertices id="Part__Feature001_005-mesh-vertices">
          <input semantic="POSITION" source="#Part__Feature001_005-mesh-positions"/>
        </vertices>
        <triangles material="Part__Feature001_005-material" count="362">
          <input semantic="VERTEX" source="#Part__Feature001_005-mesh-vertices" offset="0"/>
          <input semantic="NORMAL" source="#Part__Feature001_005-mesh-normals" offset="1"/>
          <p>2 0 0 0 121 0 2 1 1 2 0 3 3 4 2 5 121 6 5 7 2 8 3 9 6 10 1 10 2 10 5 11 6 11 2 11 6 12 4 13 1 14 7 15 4 15 6 15 8 16 3 17 126 18 9 19 3 20 8 21 11 22 6 22 5 22 9 23 5 23 3 23 11 24 5 25 9 26 12 27 9 28 8 29 11 30 7 31 6 32 14 33 9 34 12 35 15 36 7 37 11 38 15 39 11 39 9 39 14 40 15 41 9 42 18 43 14 43 12 43 10 44 7 44 15 44 16 45 18 46 12 47 19 48 18 49 16 50 21 51 15 52 14 53 23 54 14 54 18 54 19 55 16 56 132 57 22 58 10 59 15 60 23 61 21 62 14 63 25 64 18 64 19 64 25 65 23 66 18 67 22 68 15 69 21 70 13 71 10 72 22 73 27 74 20 75 17 76 29 77 17 78 13 79 28 80 21 80 23 80 27 81 17 81 29 81 29 82 13 83 22 84 27 85 24 85 20 85 27 86 30 87 24 88 22 89 21 90 28 91 31 92 27 93 29 94 34 95 27 96 31 97 32 98 26 99 24 100 32 101 24 102 30 103 33 104 29 105 22 106 30 107 27 108 34 109 31 110 29 111 33 112 35 113 32 114 30 115 35 116 30 117 34 118 36 119 34 120 31 121 36 122 35 123 34 124 37 125 35 126 36 127 40 128 39 128 38 128 40 129 38 130 41 131 40 132 42 133 39 134 46 135 42 135 40 135 45 136 40 136 41 136 46 137 44 138 42 139 45 140 41 140 43 140 45 141 46 142 40 143 48 144 43 145 157 146 48 147 45 148 43 149 53 150 48 151 157 152 49 153 44 154 46 155 50 156 45 157 48 158 49 159 47 160 44 161 51 162 48 163 53 164 52 165 46 166 45 167 52 168 49 168 46 168 52 169 45 170 50 171 51 172 50 172 48 172 56 173 51 174 53 175 58 176 50 177 51 178 57 179 52 180 50 181 59 182 49 183 52 184 59 185 54 185 47 185 57 186 59 187 52 188 58 189 51 189 56 189 57 190 50 190 58 190 59 191 47 192 49 193 61 194 58 194 56 194 60 195 55 196 63 197 61 198 56 198 162 198 62 199 57 199 58 199 61 200 62 201 58 202 69 203 54 204 59 205 65 206 59 206 57 206 66 207 57 208 62 209 70 210 60 211 63 212 65 213 57 213 66 213 71 214 64 215 60 216 55 217 54 218 68 219 69 220 68 221 54 222 55 223 70 224 63 225 69 226 59 227 65 228 71 229 60 230 70 231 72 232 70 233 55 234 73 235 64 236 71 237 72 238 55 239 68 240 67 241 64 242 73 243 74 244 68 245 69 246 74 247 72 247 68 247 76 248 71 249 70 250 76 251 70 252 72 253 75 254 73 255 71 256 75 257 71 258 76 259 77 260 72 261 74 262 135 263 73 264 75 265 75 266 76 267 78 268 77 269 76 270 72 271 135 272 75 273 79 274 78 275 79 275 75 275 80 276 132 277 131 278 81 279 80 280 131 281 81 282 131 283 128 284 81 285 128 286 125 287 82 288 81 288 125 288 82 289 125 290 120 291 82 292 120 292 114 292 83 293 114 294 115 295 83 296 82 296 114 296 83 297 115 297 116 297 84 298 83 298 116 298 84 299 116 300 113 301 85 302 113 302 37 302 85 303 84 304 113 305 86 306 0 306 162 306 87 307 86 308 162 309 87 310 162 310 161 310 88 311 87 312 161 313 88 314 161 314 155 314 89 315 88 316 155 317 89 318 155 319 145 320 110 321 89 322 145 323 110 324 145 324 148 324 90 325 110 326 148 327 90 328 148 329 146 330 91 331 90 332 146 333 92 334 146 334 142 334 92 335 91 336 146 337 93 338 92 339 142 340 26 341 142 341 79 341 26 342 93 342 142 342 38 343 94 344 95 345 147 346 38 347 95 348 96 349 147 349 95 349 96 350 95 351 97 352 98 353 96 353 97 353 144 354 98 354 97 354 139 355 144 355 97 355 139 356 97 357 99 358 100 359 139 360 99 361 101 362 100 362 99 362 133 363 101 364 99 365 133 366 99 366 102 366 67 367 133 368 102 369 85 370 37 370 36 370 103 371 36 372 31 373 103 374 85 374 36 374 103 375 31 376 33 377 104 378 103 379 33 380 104 381 33 382 22 383 104 384 22 385 28 386 105 387 104 387 28 387 105 388 28 389 23 390 105 391 23 392 25 393 106 394 105 395 25 396 106 397 25 398 19 399 106 400 19 401 132 402 80 403 106 404 132 405 93 406 26 407 32 408 107 409 93 409 32 409 92 410 93 411 107 412 92 413 108 414 91 415 107 416 109 417 92 418 37 419 32 420 35 421 108 422 90 423 91 424 111 425 109 426 107 427 109 428 108 429 92 430 111 431 107 432 32 433 112 434 90 435 108 436 111 437 32 438 37 439 110 440 90 441 112 442 111 443 37 444 113 445 114 446 112 447 108 448 115 449 108 450 109 451 116 452 109 453 111 454 116 455 111 456 113 457 115 458 114 459 108 460 89 461 110 462 112 463 115 464 109 465 116 466 117 467 88 468 89 469 119 470 117 471 89 472 87 473 88 473 117 473 118 474 119 475 89 476 118 477 89 478 120 479 120 480 89 481 112 482 86 483 87 483 121 483 120 484 112 485 114 486 122 487 121 488 87 489 122 490 87 491 117 492 121 493 0 493 86 493 124 494 117 495 119 496 124 497 123 498 117 499 124 500 119 501 118 502 123 503 122 503 117 503 125 504 118 504 120 504 124 505 118 506 125 507 3 508 121 508 122 508 126 509 122 510 123 511 127 512 123 513 124 514 126 515 3 515 122 515 128 516 124 517 125 518 127 519 126 519 123 519 129 520 127 521 124 522 8 523 126 524 127 525 129 526 124 527 128 528 130 529 127 529 129 529 130 530 8 531 127 532 12 533 8 534 130 535 131 536 129 536 128 536 131 537 130 538 129 539 130 540 16 541 12 542 132 543 130 544 131 545 16 546 130 547 132 548 26 549 79 549 78 549 24 550 26 550 78 550 24 551 78 551 76 551 20 552 24 553 76 554 20 555 76 556 77 557 17 558 20 558 77 558 17 559 77 559 74 559 13 560 17 561 74 562 13 563 74 564 69 565 10 566 13 566 69 566 10 567 69 568 65 569 7 570 65 571 66 572 7 573 10 574 65 575 4 576 7 577 66 578 4 579 66 579 62 579 1 580 4 580 62 580 1 581 62 581 61 581 0 582 1 582 61 582 0 583 61 583 162 583 134 584 133 585 67 586 135 587 67 588 73 589 134 590 67 591 135 592 136 593 133 594 134 595 136 596 101 597 133 598 101 599 138 600 100 601 137 602 134 603 135 604 79 605 137 606 135 607 138 608 139 609 100 610 138 611 101 612 136 613 140 614 134 614 137 614 144 615 139 616 138 617 142 618 137 619 79 620 143 621 138 622 136 623 143 624 136 625 134 626 140 627 143 627 134 627 145 628 144 629 138 630 142 631 140 632 137 633 141 634 96 634 98 634 146 635 140 636 142 637 146 638 143 638 140 638 141 639 98 640 149 641 149 642 98 643 144 644 145 645 138 646 148 647 148 648 138 649 143 650 150 651 96 651 141 651 151 652 141 652 149 652 150 653 147 653 96 653 150 654 141 655 151 656 152 657 147 658 150 659 152 660 38 661 147 662 148 663 143 664 146 665 145 666 149 667 144 668 153 669 150 670 151 671 154 672 152 673 150 674 41 675 38 676 152 677 153 678 154 678 150 678 155 679 151 680 149 681 155 682 149 683 145 684 43 685 152 686 154 687 156 688 153 688 151 688 43 689 41 690 152 691 157 692 43 693 154 694 158 695 151 696 155 697 159 698 153 699 156 700 158 701 156 702 151 703 159 704 154 705 153 706 157 707 154 707 159 707 161 708 156 709 158 710 160 711 159 712 156 713 53 714 157 715 159 716 161 717 160 717 156 717 161 718 158 719 155 720 160 721 53 722 159 723 160 724 56 724 53 724 162 725 160 725 161 725 162 726 56 726 160 726 64 727 67 728 102 729 64 730 102 731 163 732 60 733 64 734 163 735 60 736 163 737 164 738 55 739 60 739 164 739 54 740 55 740 164 740 54 741 164 741 165 741 47 742 54 742 165 742 44 743 47 744 165 745 42 746 44 747 165 748 42 749 165 749 166 749 39 750 42 751 166 752 39 753 166 753 94 753 38 754 39 755 94 756 171 757 167 757 172 757 174 758 167 758 171 758 168 759 167 759 169 759 167 760 174 761 169 762 173 763 168 763 170 763 168 764 169 764 170 764 170 765 171 765 173 765 171 766 172 766 173 766 167 767 168 767 172 767 172 768 168 768 173 768 163 769 171 769 164 769 102 770 171 770 163 770 165 771 164 771 171 771 174 772 102 772 99 772 174 773 171 773 102 773 170 774 165 774 171 774 166 775 165 775 170 775 97 776 174 776 99 776 94 777 166 777 170 777 169 778 94 778 170 778 169 779 95 779 94 779 169 780 174 780 97 780 169 781 97 781 95 781 179 782 175 782 181 782 175 783 182 783 181 783 176 784 175 785 177 786 182 787 175 787 176 787 176 788 177 788 180 788 180 789 177 789 178 789 178 790 179 790 180 790 179 791 181 791 180 791 181 792 176 792 180 792 182 793 176 793 181 793 105 794 106 794 179 794 104 795 105 795 179 795 80 796 179 796 106 796 175 797 80 797 81 797 175 798 179 798 80 798 178 799 103 799 104 799 178 800 104 800 179 800 85 801 103 801 178 801 82 802 175 802 81 802 177 803 82 803 83 803 177 804 175 804 82 804 177 805 83 805 84 805 177 806 85 806 178 806 177 807 84 807 85 807</p>
        </triangles>
      </mesh>
    </geometry>
    <geometry id="Part__Feature_009-mesh" name="Part__Feature.009">
      <mesh>
        <source id="Part__Feature_009-mesh-positions">
          <float_array id="Part__Feature_009-mesh-positions-array" count="408">0.06041795 2.17139 1.984373 0.06047672 2.17339 1.983406 0.06074708 2.17339 1.985676 0.06173968 2.17139 1.98733 0.06219065 2.17339 1.987703 0.06409519 2.17139 1.988731 0.06453663 2.17339 1.988869 0.0672174 2.17139 1.988712 0.06783378 2.17339 1.98842 0.06971448 2.17139 1.986639 0.06998866 2.17339 1.986171 0.07058042 2.17139 1.983775 0.0705353 2.17339 1.98344 0.060418 0.3757895 1.984373 0.06052047 0.3737895 1.982818 0.06071412 0.3737895 1.985554 0.06138551 0.3757895 1.986808 0.06209141 0.3737895 1.987628 0.06294757 0.3757895 1.988242 0.06405758 0.3737895 1.988711 0.06546604 0.3757895 1.988957 0.06692987 0.3737895 1.98879 0.06843334 0.3757895 1.988026 0.06963837 0.3737895 1.986792 0.07006049 0.3757895 1.98597 0.07050311 0.3737895 1.984323 0.07053744 0.3757895 1.983648 -0.0396071 2.17038 2.948559 0.05438762 2.170391 1.963039 0.05438947 0.3767995 1.963027 -0.0396068 0.3767881 2.948547 0.05638688 0.3767724 1.963202 -0.03765517 2.170425 2.9488 -0.0376141 0.3767718 2.948764 0.05638527 2.170408 1.963203 0.05490893 2.17213 1.962964 0.05685824 2.171366 1.963072 0.05666154 2.173372 1.96299 -0.03726041 2.173375 2.949044 -0.03707468 2.17137 2.949006 -0.03912436 2.172178 2.948719 0.06942981 2.17339 1.980704 0.06687599 2.17339 1.978993 0.0634765 2.17339 1.979188 0.06115317 2.17339 1.981265 0.06950533 2.17139 1.980807 0.0670759 2.17139 1.979058 0.06104511 2.17139 1.981445 0.0627256 2.17139 1.979666 0.06458693 2.17139 1.978936 -0.03911513 2.170523 2.950649 -0.03703206 2.170624 2.949774 -0.03745871 2.170649 2.951741 -0.03804457 0.3765625 2.95158 -0.03722786 0.3765951 2.949688 -0.03944158 0.3767046 2.949918 -9.99503e-4 2.170682 2.955066 -0.001838922 2.170682 2.953107 -0.001840114 0.3764966 2.95312 -0.0391094 0.3750497 2.948719 -0.03718358 0.3758243 2.948979 -0.03739875 0.3738149 2.949023 0.0567975 0.3738 1.962994 0.05696725 0.3758033 1.963066 0.05489355 0.3750014 1.962962 -0.001473188 0.3737982 2.952488 0.06503111 0.3737895 1.978788 0.06198227 0.3737895 1.980209 0.06999003 0.3737895 1.9815 0.06794935 0.3737895 1.979488 -0.001777172 0.3758028 2.952459 0.06780594 0.3757895 1.979387 0.06524497 0.3757895 1.978838 0.06263917 0.3757895 1.979681 0.06094622 0.3757895 1.981682 0.09227466 0.3757984 1.966348 0.06973457 0.3757895 1.98116 0.0549649 0.3766897 1.961498 0.05681586 0.3766145 1.96241 0.05662995 0.3765566 1.960337 0.05656683 2.170618 1.96035 0.05695366 2.170586 1.962357 0.05485439 2.170478 1.961638 -0.01970356 2.16929 2.95075 -0.001777112 2.171373 2.952459 -0.01970356 2.17129 2.95075 -9.10142e-4 2.169425 2.952542 0.07434833 2.16929 1.964639 0.07434833 2.17129 1.964639 0.09227472 2.171383 1.966348 0.09298592 2.169385 1.966416 0.09405344 2.172325 1.966518 0.09421747 2.170645 1.966533 0.09282642 2.173369 1.966401 1.16798e-4 2.170643 2.95264 6.06e-5 2.172316 2.952635 -0.001336097 2.17337 2.952501 -0.0195713 0.3764966 2.949363 -0.0197612 0.3764966 2.951354 -0.001025855 0.3764966 2.951207 -0.0195713 2.170682 2.949363 -0.0197612 2.170682 2.951354 -0.001251935 2.170682 2.951141 1.35934e-4 2.170682 2.953598 -1.04235e-4 2.170682 2.95198 -0.001108467 0.3764966 2.955088 -3.43143e-5 0.3764966 2.954013 1.44103e-4 0.3764966 2.952485 0.07421606 2.170682 1.966025 0.09233719 2.170682 1.965694 0.07440596 2.170682 1.964034 0.09251171 2.170682 1.967742 0.07421606 0.3764966 1.966025 0.07440596 0.3764966 1.964034 0.09233719 0.3764966 1.965694 0.09380871 0.3764966 1.967115 0.09263986 0.3764966 1.967737 0.09338206 0.3764966 1.963875 0.09440165 0.3764966 1.96552 0.09364926 2.170682 1.967277 0.09432375 2.170682 1.966075 0.09413963 2.170682 1.964724 0.09308952 2.170682 1.963766 0.07434833 0.3778895 1.964639 0.07434833 0.3758895 1.964639 0.09258681 0.3778696 1.966378 -0.01970356 0.3778895 2.95075 -0.01970356 0.3758895 2.95075 -0.001218676 0.3778288 2.952512 -3.68942e-4 0.3743546 2.952594 2.48554e-4 0.3757001 2.952652 -1.58981e-4 0.3770707 2.952614 0.09267914 0.3737995 1.966387 0.09393781 0.3746399 1.966507 0.09427863 0.3759779 1.966539 0.09373342 0.377301 1.966488</float_array>
          <technique_common>
            <accessor source="#Part__Feature_009-mesh-positions-array" count="136" stride="3">
              <param name="X" type="float"/>
              <param name="Y" type="float"/>
              <param name="Z" type="float"/>
            </accessor>
          </technique_common>
        </source>
        <source id="Part__Feature_009-mesh-normals">
          <float_array id="Part__Feature_009-mesh-normals-array" count="1497">0.9892975 -0.08603078 -0.1178532 0.9068993 0.1148823 -0.4053835 0.8119063 -0.0754863 -0.5788868 0.8118922 -0.07525455 -0.5789369 0.8119074 -0.07549124 -0.5788847 0.5075747 0.04566949 -0.8603965 0.5075333 0.045089 -0.8604516 0.5075343 0.04497313 -0.860457 0.4431353 -0.03741276 -0.8956738 0.4429624 -0.0365079 -0.8957967 0.4431579 -0.03746449 -0.8956604 -0.008893728 0.0704894 -0.9974729 -0.00892198 0.06993257 -0.9975119 -0.008924722 0.07006317 -0.9975026 -0.134059 -0.1026721 -0.9856402 -0.6375751 0.08446359 -0.7657441 -0.6376088 0.084239 -0.7657407 -0.637612 0.08419203 -0.7657433 -0.722009 -0.06413108 -0.6889052 -0.7223537 -0.0628193 -0.6886646 -0.7219711 -0.06420016 -0.6889384 -0.9552929 0.0633555 -0.2887932 -0.9790674 -0.05490994 -0.1959899 0.9919433 0.1054467 -0.07021164 0.9260838 -0.08038437 -0.3686561 0.9260854 -0.08014786 -0.3687034 0.9260812 -0.0803318 -0.3686739 0.8319011 0.06703573 -0.5508601 0.8318632 0.067344 -0.5508798 0.8318396 0.06745165 -0.5509022 0.6745612 -0.06347036 -0.7354854 0.6745464 -0.06328529 -0.7355149 0.6745558 -0.06344157 -0.7354929 0.4796922 0.06270211 -0.8751937 0.4796689 0.06253355 -0.8752185 0.4796588 0.06224036 -0.8752449 0.2731085 -0.07367974 -0.9591575 0.2730714 -0.07389044 -0.9591518 0.2730849 -0.07384586 -0.9591514 0.02872765 0.1032888 -0.9942365 0.02863973 0.1037858 -0.9941872 0.02859771 0.1038895 -0.9941777 -0.2983683 -0.1386983 -0.9443194 -0.2985691 -0.137876 -0.9443764 -0.2984431 -0.1385166 -0.9443225 -0.5859274 0.1375806 -0.7985991 -0.5859938 0.1384913 -0.798393 -0.5860507 0.1386923 -0.7983165 -0.7811796 -0.08940887 -0.6178709 -0.7812274 -0.08919173 -0.6178418 -0.7811832 -0.08939951 -0.6178678 -0.9419158 0.06328243 -0.3298337 -0.978278 -0.05093866 -0.2009418 -0.9954826 -4.40197e-7 -0.09494495 -0.9954825 4.58412e-7 -0.0949465 0.9954823 2.08873e-5 0.09494721 0.9954789 8.57989e-7 0.09498333 0.03397476 -0.05397212 -0.9979643 0.03439998 -0.05414426 -0.9979405 0.0342828 -0.05411988 -0.9979458 0.08247542 -0.1744936 -0.9811982 0.08207774 -0.1746406 -0.9812054 0.08224838 -0.1746016 -0.9811981 0.04418039 -0.03633338 -0.9983627 0.04407 -0.03598415 -0.9983802 0.04374784 -0.03534668 -0.9984172 -0.1521985 -0.03390181 0.9877684 -0.1522698 -0.03385579 0.987759 -0.1526316 -0.03349119 0.9877156 -0.1769402 -0.1034433 0.9787706 -0.1768892 -0.1036123 0.9787618 -0.1769295 -0.1034721 0.9787694 -0.1213179 -0.05715113 0.9909672 -0.1215552 -0.05714643 0.9909383 -0.12169 -0.05712896 0.9909228 -0.5320898 0.8451744 -0.05060428 -0.5320868 0.845175 -0.05062484 -0.5320869 0.8451749 -0.05062431 -0.5748168 0.8164212 -0.05515605 -0.5748169 0.816421 -0.05515843 -0.5748169 0.8164207 -0.05516237 -0.9548701 0.2826498 -0.09128165 -0.9548702 0.2826492 -0.0912826 -0.9548702 0.2826486 -0.0912835 -0.9596997 0.2657026 -0.09153574 0.8422981 -0.5330054 0.08024471 0.8423037 -0.5330052 0.08018743 0.8422946 -0.5330061 0.08027678 0.8979826 -0.4316011 0.08572047 2.81777e-6 1 9.46807e-6 1.2331e-4 1 2.99344e-5 9.15429e-4 0.9999997 8.74718e-5 0.005377829 0.9999727 0.005093455 0.00113213 0.9999977 0.001870036 -2.50938e-4 0.9999994 0.001204073 0.001138865 0.9999977 0.001870036 -7.50532e-6 1 1.25682e-5 7.11049e-5 1 1.77006e-4 7.19e-4 0.9999996 5.33634e-4 7.34096e-4 0.9999997 5.33515e-4 1.69531e-4 0.9999998 -5.90439e-4 4.65987e-4 0.9999998 -4.06318e-4 4.75158e-4 0.9999998 -4.06367e-4 -1.51576e-4 0.9999981 -0.001996397 3.49591e-4 1 -2.7821e-4 -2.87953e-5 0.9999981 -0.001999974 1.92299e-4 0.9999992 -0.001253366 -0.01326555 0.9999105 0.0017789 -7.93062e-4 0.9999989 -0.001303195 -5.88493e-4 0.9999998 -3.7116e-4 -7.27418e-4 0.9999989 -0.001306474 -0.001788258 0.9999983 -5.93226e-4 -0.002927541 0.9999957 -2.75798e-4 -1.94564e-5 1 0 -1.55037e-5 -1 -2.63335e-5 9.56422e-5 -1 -1.2619e-5 0 -1 -9.90854e-6 -0.001364111 -0.9999991 5.00267e-4 -4.12605e-4 -0.9999995 9.40811e-4 -4.13966e-4 -0.9999995 9.4093e-4 -3.56542e-4 -1 -4.2494e-5 1.18113e-5 -1 -3.71956e-5 -2.55379e-4 -1 8.96421e-5 -1.66899e-4 -1 1.98842e-4 0.002994477 -0.9999954 6.26564e-4 0.001129031 -0.9999988 0.001081347 5.0424e-4 -0.9999992 0.001244723 -7.70223e-5 -0.9999989 0.001570641 3.65592e-4 -0.9999991 0.001300692 0.004335343 -0.9999906 4.25221e-4 3.83342e-5 -1 -2.38308e-6 0.09206533 -0.03201597 -0.9952382 0.09388625 1.48684e-4 -0.9955829 -0.09580004 2.39282e-4 0.9954006 -0.09732818 -0.02782607 0.9948633 -0.01549464 0.9977508 -0.06521791 -0.01545178 0.9977511 -0.06522369 -0.01538217 0.997752 -0.06522488 -0.1060045 0.9849859 -0.1362572 -0.1054732 0.9849955 -0.1365995 -0.1059676 0.9849856 -0.1362872 -0.0583558 0.9979739 -0.02535504 -0.05839669 0.997973 -0.02529233 -0.0585156 0.9979698 -0.02514988 -0.05351126 -0.9977374 -0.04070365 -0.05355924 -0.9977348 -0.04070371 -0.05368 -0.9977297 -0.04067194 -0.06542372 -0.9847977 -0.160914 -0.001584529 -0.9981622 -0.06057924 -0.5488403 1.04348e-4 0.8359273 -0.5488404 1.05785e-4 0.8359273 -0.5488402 1.08244e-4 0.8359273 -0.765376 -1.23034e-4 0.6435835 -0.9734146 8.37409e-5 0.2290506 -0.9928074 -9.14115e-7 0.1197227 0.8425905 -6.83034e-5 -0.5385549 0.8425905 -6.61641e-5 -0.5385549 0.8425905 -7.16867e-5 -0.5385549 0.9229125 3.14279e-5 -0.3850098 0.9229125 3.51999e-5 -0.3850098 0.9229125 2.92638e-5 -0.3850098 -0.09456712 1.77812e-5 0.9955186 -0.0908336 -5.98009e-5 0.9958661 0.09427654 -7.34065e-6 -0.9955461 0.0965293 3.69503e-5 -0.9953302 -0.00171566 0.9999983 6.75718e-4 2.7059e-4 0.9999139 -0.01312196 -0.001064479 -0.9998428 -0.01770633 -0.001848638 -0.9999982 6.68242e-4 -0.1551783 0.05644261 0.9862728 -0.1538277 0.0564292 0.9864852 -0.153907 0.05644696 0.9864717 -0.1050245 0.1748694 0.9789743 -0.1053704 0.1748549 0.9789397 -0.1051846 0.1748852 0.9789543 -0.1460267 0.03761053 0.9885655 -0.1460203 0.03714722 0.988584 -0.1461688 0.03648734 0.9885866 0.04013144 0.03078174 -0.9987202 0.04049134 0.03125047 -0.9986912 0.04059219 0.03142678 -0.9986815 -0.002795815 0.136648 -0.9906157 0.08788782 0.05967557 -0.9943413 0.0883212 0.05985945 -0.9942918 0.08831393 0.05985468 -0.9942927 -0.5322936 -0.8450322 -0.05083429 -0.5782216 -0.8140205 -0.05505084 -0.5782216 -0.8140203 -0.05505198 -0.5782216 -0.8140205 -0.05505168 -0.9550059 -0.2822622 -0.0910592 -0.9597046 -0.2656848 -0.09153527 0.8600332 0.5035861 0.08212327 0.8996029 0.4281955 0.08580917 -1.37656e-5 -1 2.61036e-5 -4.63079e-4 -1 -2.38318e-5 -7.20688e-7 -1 2.69337e-5 7.00371e-6 -1 9.03628e-6 -0.004547655 -0.9999896 3.30114e-4 -2.50476e-4 -0.9999998 -5.36813e-4 -7.11334e-4 -0.9999998 -3.97181e-4 1.83142e-4 -0.9999997 -7.6216e-4 4.68665e-5 -0.9999998 -6.69068e-4 4.70664e-4 -0.9999999 4.3702e-5 6.26168e-4 -0.9999998 2.37234e-4 3.91327e-4 -1 -7.78296e-5 2.6176e-4 -1 -2.67897e-4 -0.001793444 -0.9999984 -1.57154e-4 -3.44091e-5 -1 2.44924e-5 3.03282e-5 1 -3.17177e-5 9.98865e-6 1 -3.58891e-5 6.04926e-4 0.9999999 2.83072e-5 -4.41549e-6 1 -1.33219e-5 -2.11295e-4 0.9999995 9.77517e-4 2.41791e-4 0.9999998 7.45881e-4 6.9939e-4 0.9999997 5.89814e-4 0.001807868 0.9999984 3.47095e-4 -3.27247e-4 1 1.19875e-4 -0.001696646 0.9999983 -7.15726e-4 -0.001358091 0.999999 -5.54814e-4 -0.00134629 0.999999 -5.54457e-4 -2.31278e-4 1 2.46357e-4 -4.91684e-4 1 -1.16481e-4 -4.1498e-4 1 -4.4069e-5 6.28787e-5 0.9999997 8.00972e-4 0.002598106 0.9999966 2.25935e-4 7.23292e-5 1 -2.54519e-5 -0.09602206 -3.54012e-4 0.9953792 -0.0977447 0.03206622 0.9946949 0.09253007 0.02805554 -0.9953147 0.09410703 -1.46499e-5 -0.9955621 -0.06390476 -0.9968244 0.0475136 -0.02913111 -0.9831678 0.1803678 -0.05646407 -0.9978657 0.03280109 -0.05647021 -0.9978659 0.03278374 -0.05651581 -0.997866 0.0327019 -0.06235772 0.9976236 0.02930259 -0.06235915 0.9976236 0.02930116 -0.06281363 0.9976134 0.02867203 -0.0995301 0.98473 0.1428309 -0.09954279 0.9847293 0.1428265 -0.09940814 0.984737 0.1428681 -0.01257002 0.9981691 0.05916649 -0.01278853 0.9981638 0.05920809 -0.01296168 0.998161 0.05921757 -0.5731302 -1.42451e-5 -0.8194644 -0.5731302 -1.0448e-5 -0.8194644 -0.5731302 -1.2123e-5 -0.8194644 -0.6010728 2.54383e-5 -0.7991943 -0.9359562 -3.01238e-5 -0.3521164 -0.9488598 1.44427e-6 -0.3156979 -0.9488598 2.38274e-6 -0.3156979 -0.9488598 9.79671e-7 -0.3156979 0.8301755 -4.89061e-5 0.5575021 0.8301755 -5.18322e-5 0.5575022 0.8301755 -4.73368e-5 0.5575021 0.8790068 -4.48327e-6 0.4768093 0.8790068 5.05507e-7 0.4768093 0.8790068 -1.34117e-6 0.4768093 0.0931214 1.06854e-5 -0.9956548 0.09581393 -4.47598e-5 -0.9953993 -0.09206151 3.64512e-5 0.9957534 -0.09389978 0 0.9955817 -0.00594294 -0.9995784 0.0284242 -0.001545965 -0.9999985 -8.94034e-4 -0.001681566 0.9999985 -6.1236e-4 -0.004298508 0.9998504 0.01675581 -0.9808729 0.07703095 0.1787591 -0.9808785 0.0769481 0.1787633 -0.9808768 0.07697141 0.1787636 -0.9493956 -0.06917607 0.3063702 -0.6758093 0.03882938 0.7360531 -0.6758073 0.0387507 0.736059 -0.6758311 0.03896057 0.7360261 -0.7016083 -0.01403617 0.7124246 -0.7016376 -0.01397997 0.7123969 -0.7015424 -0.01434248 0.7124835 -0.2322155 0.0323764 0.9721254 -0.2322459 0.03216999 0.972125 -0.2322151 0.03240174 0.9721247 -0.2106343 -0.002127766 0.9775626 -0.2106248 -0.00199753 0.9775649 -0.2105669 -0.001789093 0.9775778 0.3075778 -0.05669176 0.9498327 0.3075787 -0.05667084 0.9498336 0.3075768 -0.05662757 0.9498368 0.4210712 0.1007384 0.9014161 0.4210717 0.1007375 0.9014158 0.4212125 0.1002302 0.9014067 0.7604309 -0.07980453 0.6444969 0.7604533 -0.08013403 0.6444296 0.7604497 -0.08011645 0.644436 0.8682326 0.09164625 0.4876201 0.868228 0.09187966 0.4875841 0.8682355 0.09198194 0.4875515 0.9763397 -0.09897071 0.1922646 0.9763253 -0.09919661 0.1922214 0.9763267 -0.09915554 0.1922353 -0.9395911 0.03578937 0.340423 -0.9270431 -0.01575529 0.3746237 -0.5831851 0.01959955 0.812103 -0.5832161 0.01937901 0.8120859 -0.583184 0.01963907 0.8121026 -0.5566344 -0.02827322 0.8302763 -0.04784083 0.02808797 0.9984601 -0.0478453 0.02789223 0.9984653 -0.04783844 0.0280137 0.9984622 0.05887502 -0.09444266 0.9937879 0.05919438 -0.09336751 0.9938705 0.05890887 -0.09438812 0.9937911 0.3623763 0.08505201 0.9281431 0.3623925 0.08529752 0.9281142 0.3624078 0.08537471 0.9281012 0.6636364 -0.07202404 0.74458 0.6637679 -0.07281172 0.7443862 0.6637637 -0.07280182 0.7443909 0.7275301 0.02317154 0.6856843 0.7274905 0.02325379 0.6857237 0.727689 0.02243137 0.6855404 0.9751156 0.07239437 0.2095441 0.975113 0.0724343 0.2095423 0.9751088 0.0725333 0.2095277 0.9532494 -0.02443319 0.3011953 -0.09494751 0 0.9954823 -0.09489184 -2.04973e-4 0.9954876 -0.9954826 0 -0.09494549 -0.9954826 0 -0.0949456 0.09492987 1.09527e-4 -0.995484 0.09491032 0 -0.9954859 0.00506699 -0.9999871 5.22252e-4 0.007128059 -0.9999744 6.77672e-4 -0.005141019 0.9999867 -4.81155e-4 -0.00459975 0.9999894 -4.36047e-4 0.09390485 -3.41673e-4 -0.9955812 0.09403383 -5.62076e-4 -0.9955689 0.09386754 -2.41989e-4 -0.9955847 0.09419304 -0.003681719 -0.9955472 0.09506326 -0.003728628 -0.9954643 0.09396743 -0.003635466 -0.9955687 0.09967154 -0.001675546 -0.9950191 0.09914952 -0.002807796 -0.9950687 0.09913498 -0.00283128 -0.99507 -0.09190613 9.85404e-4 0.9957672 -0.09196382 0.00113058 0.9957618 -0.09172898 2.80106e-4 0.9957841 -0.09459292 -0.004950881 0.9955037 -0.09549278 -0.004882156 0.9954183 -0.09582155 -0.004813492 0.9953869 -0.09855991 5.56304e-4 0.995131 -0.09837567 -0.001169145 0.9951487 -0.0985642 -4.29004e-4 0.9951307 0.7126314 -0.6982583 0.06776291 0.7126316 -0.6982585 0.06776052 0.7126312 -0.6982583 0.06776595 0.7588766 -0.6471568 0.07276284 0.7588766 -0.6471572 0.07276099 0.7588766 -0.647157 0.07276177 0.9949378 0.03340202 0.09477955 0.9949377 0.03340172 0.09478014 0.9949377 0.03340131 0.09478092 0.9905893 0.0992515 0.09424436 0.9905897 0.09925121 0.09424138 0.9905893 0.09925156 0.09424507 0.6414671 0.7647054 0.06120347 0.6414675 0.7647055 0.06119769 0.641467 0.7647054 0.06120413 0.5954839 0.8013146 0.05739313 0.5954839 0.8013147 0.05739277 0.595484 0.8013145 0.0573939 1.64769e-6 -1 0 1.54171e-6 -1 -4.72315e-6 -0.9954809 0 -0.09496265 -0.9954833 0 -0.0949375 0 1 2.01021e-4 0 1 -1.53532e-4 0.09894329 -2.4554e-5 -0.9950931 0.09657257 0 -0.9953259 -0.09805512 7.34038e-6 0.995181 -0.09734684 0 0.9952506 0 1 -6.73521e-5 0 1 0 -7.66338e-4 0.9999976 0.002118766 3.32668e-4 0.9999976 0.002228379 -2.75958e-4 0.9999976 0.002236127 -1.85766e-4 -0.9999999 4.61993e-4 -2.42464e-5 -0.9999999 4.98839e-4 -1.42251e-4 -0.9999999 4.77867e-4 -4.42269e-5 -0.9999999 4.82324e-4 4.45058e-5 -0.9999999 4.82297e-4 -6.03432e-5 -0.9999999 4.80557e-4 6.87647e-5 -1 4.3892e-4 -1.89895e-4 -0.9999999 4.04651e-4 -8.155e-5 -1 4.36874e-4 0.5893324 4.41838e-5 -0.8078908 0.5893324 4.4219e-5 -0.8078908 0.5893324 4.43316e-5 -0.8078907 0.7367289 -8.80977e-5 -0.6761882 0.736729 -8.76819e-5 -0.6761882 0.736729 -8.84011e-5 -0.6761882 0.9892674 9.57595e-5 -0.1461163 0.9892674 9.55911e-5 -0.1461162 0.9892674 9.5381e-5 -0.1461163 0.9931137 -6.71917e-5 0.1171551 0.9931137 -6.74415e-5 0.1171551 0.9931137 -6.70959e-5 0.1171551 0.7900466 6.67311e-5 0.6130468 0.7900466 6.63888e-5 0.6130469 0.7900468 6.56207e-5 0.6130467 0.704727 -3.41109e-5 0.7094787 0.704727 -3.441e-5 0.7094787 0.704727 -3.40488e-5 0.7094787 0 1 -1.09612e-4 -0.9954832 0 -0.09493845 -0.995482 0 -0.09495103 1.64028e-6 -1 0 1.64729e-6 -1 -8.08059e-6 -0.09251815 0 0.9957111 -0.09347236 -9.65004e-6 0.9956219 0.09219574 0 -0.995741 0.09219563 0 -0.995741 -6.83301e-5 -1 3.19415e-4 2.46808e-5 -1 3.25537e-4 -6.29587e-5 -1 3.20484e-4 0 -1 0 0 -1 1.62859e-5 1.93122e-5 0.9999976 0.002252995 -5.66348e-4 0.9999976 0.002180755 -4.75006e-4 0.9999976 0.002202451 1.42478e-4 0.9999995 0.001044988 -2.19742e-4 0.9999995 0.001032173 -6.20488e-5 0.9999995 0.001052498 2.44381e-4 0.9999882 0.004855215 -4.22079e-4 0.9999882 0.004842936 -7.54102e-4 0.9999882 0.004799664 0 1 -1.69567e-4 0.3798887 2.37526e-5 0.9250321 0.3798887 2.42816e-5 0.9250323 0.3798887 2.35159e-5 0.9250323 0.4644064 -3.37887e-5 0.8856223 0.4644066 -3.50597e-5 0.8856222 0.4644063 -3.78999e-5 0.8856223 0.8702829 3.33426e-5 0.4925522 0.8702829 3.33956e-5 0.4925521 0.8702829 3.55502e-5 0.4925522 0.9376898 -6.76943e-5 0.3474736 0.9376898 -6.71234e-5 0.3474736 0.9376898 -6.70202e-5 0.3474736 0.9908396 8.48206e-5 -0.1350442 0.8499931 -1.09433e-4 -0.5267941 0.6699112 6.50425e-5 -0.7424413 0.6699113 6.51094e-5 -0.7424412 0.6699112 6.50112e-5 -0.7424412 0.09492427 0 -0.9954846 0.09494292 -3.83189e-5 -0.9954828 -0.9954828 0 -0.09494233 -0.9954822 0 -0.09494972 -0.09492343 4.29921e-5 0.9954847 -0.09492987 0 0.995484 0.001080036 0.9999994 1.03043e-4 0.003249108 0.9999948 3.50626e-4 -0.004796206 -0.9999885 -4.52756e-4 -0.005034685 -0.9999873 -4.79904e-4 -0.092229 0.001777887 0.9957363 -0.09198695 0.001334428 0.9957594 -0.09231942 0.001911878 0.9957276 -0.09325933 -5.81343e-4 0.9956417 -0.09364092 -9.94682e-4 0.9956056 -0.09344524 -8.26522e-4 0.9956242 -0.09430086 -0.001915752 0.995542 -0.09453892 -0.001968324 0.9955192 -0.09463715 -0.001979649 0.9955099 -0.091416 5.05933e-4 0.9958127 -0.09156006 0.001214921 0.9957989 -0.09144335 2.14406e-4 0.9958103 0.08834671 -0.00312674 -0.9960849 0.08848059 -0.003388047 -0.9960722 0.08926218 -0.004561543 -0.9959977 0.09449052 -0.001607298 -0.9955245 0.0949037 -0.001638114 -0.9954851 0.09449118 -0.001607418 -0.9955244 0.09623521 -0.004030644 -0.9953505 0.09673231 -0.003814399 -0.9953032 0.09599435 -0.004109501 -0.9953734 0.09235334 -2.97948e-5 -0.9957264 0.09244704 6.7781e-4 -0.9957174 0.09236425 2.0202e-4 -0.9957253 0.440078 0.8969809 0.04191255 0.440078 0.8969809 0.04191249 0.440078 0.8969809 0.04191172 0.5777168 0.8143707 0.05517017 0.5777168 0.8143707 0.05516993 0.5777168 0.8143707 0.05516982 0.9538507 0.2861499 0.09103405 0.9195838 0.3829957 0.08763575 0.9195837 0.3829957 0.087637 0.9195837 0.3829957 0.08763688 0.9644097 -0.2479326 0.09188818 0.9040342 -0.4186499 0.08633977 0.5510928 -0.8327936 0.05245733 0.4462698 -0.8938835 0.04260879</float_array>
          <technique_common>
            <accessor source="#Part__Feature_009-mesh-normals-array" count="499" stride="3">
              <param name="X" type="float"/>
              <param name="Y" type="float"/>
              <param name="Z" type="float"/>
            </accessor>
          </technique_common>
        </source>
        <vertices id="Part__Feature_009-mesh-vertices">
          <input semantic="POSITION" source="#Part__Feature_009-mesh-positions"/>
        </vertices>
        <triangles material="Part__Feature_009-material" count="276">
          <input semantic="VERTEX" source="#Part__Feature_009-mesh-vertices" offset="0"/>
          <input semantic="NORMAL" source="#Part__Feature_009-mesh-normals" offset="1"/>
          <p>1 0 2 0 0 0 0 1 2 1 3 1 2 2 4 3 3 4 3 5 4 6 5 7 4 8 6 9 5 10 5 11 6 12 7 13 6 14 8 14 7 14 7 15 8 16 9 17 8 18 10 19 9 20 9 21 10 21 11 21 10 22 12 22 11 22 14 23 13 23 15 23 13 24 16 25 15 26 15 27 16 28 17 29 16 30 18 31 17 32 17 33 18 34 19 35 18 36 20 37 19 38 19 39 20 40 21 41 20 42 22 43 21 44 21 45 22 46 23 47 22 48 24 49 23 50 23 51 24 51 25 51 24 52 26 52 25 52 27 53 28 53 29 53 27 54 29 54 30 54 31 55 32 55 33 55 34 56 32 56 31 56 35 57 36 58 28 59 28 60 36 61 34 62 37 63 36 64 35 65 40 66 39 67 38 68 40 69 32 70 39 71 27 72 32 73 40 74 40 75 38 76 37 77 40 78 37 79 35 80 40 81 35 82 28 83 27 84 40 84 28 84 39 85 32 86 36 87 36 88 32 88 34 88 8 89 6 89 96 89 96 90 6 90 38 90 96 91 93 91 8 91 8 92 93 92 10 92 10 93 93 94 12 95 6 96 4 96 38 96 93 97 41 98 12 99 93 100 42 101 41 102 42 103 37 104 43 105 93 106 37 106 42 106 1 107 37 107 2 107 43 108 37 109 44 110 44 111 37 111 1 111 37 112 38 112 2 112 2 113 38 113 4 113 9 114 84 114 7 114 5 115 84 115 39 115 5 116 7 116 84 116 89 117 9 118 11 119 89 120 84 120 9 120 3 121 5 121 39 121 45 122 89 122 11 122 46 123 89 123 45 123 36 124 47 124 0 124 36 125 48 125 47 125 36 126 49 126 48 126 36 127 46 127 49 127 36 128 89 128 46 128 39 129 36 129 0 129 39 130 0 130 3 130 37 131 89 131 36 131 37 132 93 132 89 132 96 133 38 133 84 133 84 134 38 134 39 134 50 135 32 136 27 137 50 138 51 139 32 140 52 141 51 142 50 143 55 144 54 145 53 146 55 147 33 147 54 147 30 148 33 148 55 148 53 149 52 150 50 151 55 152 53 152 50 152 55 153 50 153 27 153 30 154 55 154 27 154 51 155 54 156 32 157 54 158 33 159 32 160 105 161 56 161 53 161 56 162 52 162 53 162 51 163 57 163 58 163 51 164 58 164 54 164 57 165 51 165 56 165 56 166 51 166 52 166 54 167 58 167 53 167 53 168 58 168 105 168 59 169 60 170 30 171 30 172 60 173 33 174 61 175 60 176 59 177 64 178 63 179 62 180 64 181 31 181 63 181 29 182 31 183 64 184 64 185 62 185 61 185 64 186 61 187 59 188 64 189 59 189 30 189 29 190 64 190 30 190 63 191 31 191 60 191 60 192 31 192 33 192 17 193 19 193 61 193 61 194 21 194 65 194 19 195 21 195 61 195 21 196 23 196 65 196 15 197 62 197 14 197 67 198 62 198 66 198 14 199 62 199 67 199 66 200 62 200 69 200 62 201 132 201 69 201 23 202 132 202 65 202 25 203 132 203 23 203 68 204 132 204 25 204 69 205 132 205 68 205 61 206 62 206 15 206 61 207 15 207 17 207 18 208 16 208 60 208 20 209 18 209 60 209 20 210 60 210 70 210 22 211 20 211 70 211 63 212 72 212 71 212 63 213 73 213 72 213 63 214 74 214 73 214 63 215 13 215 74 215 75 216 76 216 26 216 75 217 24 218 22 219 75 220 71 220 76 220 75 221 26 221 24 221 75 222 22 222 70 222 75 223 63 223 71 223 63 224 60 224 13 224 13 225 60 225 16 225 70 226 61 226 65 226 70 227 60 227 61 227 63 228 75 228 62 228 62 229 75 229 132 229 77 230 78 230 29 230 29 231 78 231 31 231 79 232 78 233 77 234 82 235 81 236 80 237 82 238 34 239 81 240 28 241 34 242 82 243 80 244 79 245 77 246 82 247 80 247 77 247 82 248 77 248 29 248 28 249 82 250 29 251 81 252 34 253 78 254 78 255 34 256 31 257 80 258 122 258 79 258 79 259 122 259 117 259 81 260 78 260 114 260 109 261 81 261 114 261 79 262 114 262 78 262 79 263 117 263 114 263 122 264 80 264 109 264 109 265 80 265 81 265 25 266 26 267 68 268 26 269 76 269 68 269 76 270 71 271 68 272 68 273 71 274 69 275 69 276 71 277 66 278 71 279 72 280 66 281 72 282 73 283 66 284 66 285 73 286 67 287 73 288 74 289 67 290 67 291 74 292 14 293 74 294 13 295 14 296 11 297 12 297 45 297 12 298 41 298 45 298 45 299 41 300 46 301 41 302 42 302 46 302 46 303 42 304 49 305 42 306 43 307 49 308 49 309 43 310 48 311 43 312 44 313 48 314 48 315 44 316 47 317 47 318 1 319 0 320 44 321 1 321 47 321 83 322 84 322 85 322 83 323 86 323 84 323 87 324 83 324 88 324 88 325 83 325 85 325 90 326 87 326 89 326 89 327 87 327 88 327 87 328 90 328 86 328 87 329 86 329 83 329 89 330 88 330 84 330 84 331 88 331 85 331 89 332 92 333 90 334 89 335 91 336 92 337 93 338 91 339 89 340 94 341 84 342 86 343 95 344 84 345 94 346 95 347 96 348 84 349 86 350 90 351 92 352 94 353 86 354 92 355 95 356 94 357 92 358 95 359 92 360 91 361 95 362 91 363 93 364 96 365 95 366 93 367 97 368 58 368 98 368 97 369 99 369 58 369 100 370 97 370 101 370 101 371 97 371 98 371 102 372 100 372 57 372 57 373 100 373 101 373 102 374 99 374 97 374 100 375 102 375 97 375 58 376 57 376 98 376 57 377 101 377 98 377 103 378 57 378 56 378 104 379 57 379 103 379 104 380 102 381 57 382 58 383 106 384 105 385 58 386 107 387 106 388 99 389 107 390 58 391 99 392 102 393 104 394 107 395 99 396 104 397 107 398 104 399 103 400 106 401 107 402 103 403 106 404 103 405 56 406 105 407 106 408 56 409 108 379 109 379 110 379 108 410 111 410 109 410 112 411 108 411 113 411 113 412 108 412 110 412 116 413 112 413 114 413 114 414 112 414 113 414 108 415 112 415 116 415 111 416 108 416 116 416 113 417 110 417 114 417 110 418 109 418 114 418 114 419 118 420 115 421 114 422 115 422 116 422 114 423 117 423 118 423 120 424 109 425 119 426 119 427 109 428 111 429 121 430 109 431 120 432 121 433 122 433 109 433 119 434 111 435 116 436 119 437 116 438 115 439 120 440 119 441 115 442 120 443 115 444 118 445 121 446 120 446 118 446 121 447 118 447 117 447 122 448 121 449 117 450 123 451 75 451 124 451 123 452 125 452 75 452 126 453 123 453 127 453 127 454 123 454 124 454 128 455 126 455 70 455 70 456 126 456 127 456 125 457 123 457 126 457 125 458 126 458 128 458 127 459 75 459 70 459 124 460 75 460 127 460 70 461 65 462 129 463 130 464 70 465 129 466 131 467 70 468 130 469 131 470 128 471 70 472 132 473 75 474 133 475 75 476 134 477 133 478 75 479 135 480 134 481 125 482 135 483 75 484 135 485 125 486 128 487 135 488 128 489 131 490 134 491 131 491 130 491 134 492 135 493 131 494 133 495 134 495 130 495 133 496 130 496 129 496 132 497 133 497 129 497 132 498 129 498 65 498</p>
        </triangles>
      </mesh>
    </geometry>
  </library_geometries>
  <library_visual_scenes>
    <visual_scene id="Scene" name="Scene">
      <node id="node1" name="node1" type="NODE">
        <matrix sid="transform">1 0 0 0 0 1 0 0 0 0 1 0 0 0 0 1</matrix>
        <instance_geometry url="#Part__Feature001_005-mesh" name="node1">
          <bind_material>
            <technique_common>
              <instance_material symbol="Part__Feature001_005-material" target="#Part__Feature001_005-material"/>
            </technique_common>
          </bind_material>
        </instance_geometry>
      </node>
      <node id="node0" name="node0" type="NODE">
        <matrix sid="transform">1 0 0 0 0 1 0 0 0 0 1 0 0 0 0 1</matrix>
        <instance_geometry url="#Part__Feature_009-mesh" name="node0">
          <bind_material>
            <technique_common>
              <instance_material symbol="Part__Feature_009-material" target="#Part__Feature_009-material"/>
            </technique_common>
          </bind_material>
        </instance_geometry>
      </node>
      <node id="Camera" name="Camera" type="NODE">
        <matrix sid="transform">0.6859207 -0.3240135 0.6515582 7.358891 0.7276763 0.3054208 -0.6141704 -6.925791 0 0.8953956 0.4452714 4.958309 0 0 0 1</matrix>
        <instance_camera url="#Camera-camera"/>
      </node>
      <node id="Light" name="Light" type="NODE">
        <matrix sid="transform">-0.2908646 -0.7711008 0.5663932 4.076245 0.9551712 -0.1998834 0.2183912 1.005454 -0.05518906 0.6045247 0.7946723 5.903862 0 0 0 1</matrix>
        <instance_light url="#Light-light"/>
      </node>
    </visual_scene>
  </library_visual_scenes>
  <scene>
    <instance_visual_scene url="#Scene"/>
  </scene>
</COLLADA>