<?xml version="1.0" encoding="UTF-8" standalone="no" ?>
<COLLADA xmlns="http://www.collada.org/2005/11/COLLADASchema" version="1.4.1">
  <asset>
    <contributor>
      <author>Assimp</author>
      <authoring_tool>Assimp Exporter</authoring_tool>
    </contributor>
    <created>2025-12-28T00:08:20</created>
    <modified>2025-12-28T00:08:20</modified>
    <unit name="meter" meter="1" />
    <up_axis>Y_UP</up_axis>
  </asset>
  <library_images>
  </library_images>
  <library_effects>
    <effect id="material_0-fx" name="">
      <profile_COMMON>
        <technique sid="standard">
          <phong>
            <emission>
              <color sid="emission">0   0   0   -nan</color>
            </emission>
            <ambient>
              <color sid="ambient">0.883559942   0.72630465   0.581145883   0</color>
            </ambient>
            <diffuse>
              <color sid="diffuse">0.883559942   0.72630465   0.581145883   0</color>
            </diffuse>
            <specular>
              <color sid="specular">0.150000006   0.150000006   0.150000006   8.1645573e-36</color>
            </specular>
          </phong>
        </technique>
      </profile_COMMON>
    </effect>
    <effect id="material_1-fx" name="">
      <profile_COMMON>
        <technique sid="standard">
          <phong>
            <emission>
              <color sid="emission">0   0   0   -nan</color>
            </emission>
            <ambient>
              <color sid="ambient">0.997058809   0.981930017   0.618838608   0</color>
            </ambient>
            <diffuse>
              <color sid="diffuse">0.997058809   0.981930017   0.618838608   0</color>
            </diffuse>
            <specular>
              <color sid="specular">0.150000006   0.150000006   0.150000006   8.1645573e-36</color>
            </specular>
          </phong>
        </technique>
      </profile_COMMON>
    </effect>
  </library_effects>
  <library_materials>
    <material id="material_0" name="">
      <instance_effect url="#material_0-fx"/>
    </material>
    <material id="material_1" name="">
      <instance_effect url="#material_1-fx"/>
    </material>
  </library_materials>
  <library_geometries>
    <geometry id="mesh_0" name="" >
      <mesh>
        <source id="mesh_0-positions" name="mesh_0-positions">
          <float_array id="mesh_0-positions-array" count="720"> 1.19500089 -2.24499965 0.920004666 1.15500093 -2.24499965 0.300004244 1.19500077 -2.24499965 0.300004363 1.15500093 -2.24499965 0.300004244 1.19500089 -2.24499965 0.920004666 1.16500103 -2.24499965 0.920004785 1.19500089 -2.24499965 0.920004666 1.16500103 -3.20500064 0.920004785 1.16500103 -2.24499965 0.920004785 1.16500103 -3.20500064 0.920004785 1.19500089 -2.24499965 0.920004666 1.19500089 -3.20500064 0.920004666 1.19500101 -2.20499969 1.02000499 1.19500089 -3.20500064 0.920004666 1.19500089 -2.24499965 0.920004666 1.19500089 -3.20500064 0.920004666 1.19500101 -2.20499969 1.02000499 1.19500101 -3.2450006 1.02000499 -0.345000535 -3.2450006 1.02000499 -0.305000573 -3.2450006 0.920004725 1.19500101 -3.2450006 1.02000499 -0.345000535 -3.2450006 0.300004274 -0.305000573 -3.2450006 0.920004725 -0.345000535 -3.2450006 1.02000499 -0.305000573 -3.2450006 0.920004725 -0.345000535 -3.2450006 0.300004274 -0.305000573 -3.2450006 0.300004274 -0.345000535 -3.2450006 0.300004274 -0.305000573 -3.20500064 0.300004274 -0.305000573 -3.2450006 0.300004274 -0.305000573 -3.20500064 0.300004274 -0.345000535 -3.2450006 0.300004274 -0.345000535 -3.20500064 0.300004274 -0.345000535 -3.20500064 0.300004274 -0.345000535 -3.2450006 0.300004274 -0.345000535 -3.20500064 0.920004725 -0.345000535 -3.2450006 1.02000499 -0.345000535 -3.20500064 0.920004725 -0.345000535 -3.2450006 0.300004274 -0.345000535 -3.20500064 0.920004725 -0.345000535 -3.2450006 1.02000499 -0.345000535 -2.20499969 1.02000499 -0.345000535 -3.20500064 0.920004725 -0.345000535 -2.20499969 1.02000499 -0.345000535 -2.24499965 0.920004725 -0.345000535 -2.24499965 0.920004725 -0.345000535 -2.20499969 1.02000499 -0.345000535 -2.24499965 0.300004274 -0.345000535 -2.24499965 0.300004274 -0.345000535 -2.20499969 1.02000499 -0.345000535 -2.20499969 0.300004274 -0.345000535 -2.20499969 1.02000499 -0.305000573 -2.20499969 0.300004274 -0.345000535 -2.20499969 0.300004274 -0.305000573 -2.20499969 0.300004274 -0.345000535 -2.20499969 1.02000499 -0.305000573 -2.20499969 0.920004725 -0.305000573 -2.20499969 0.920004725 -0.345000535 -2.20499969 1.02000499 1.15500104 -2.20499969 0.920004725 1.19500101 -2.20499969 1.02000499 1.15500104 -2.20499969 0.920004725 -0.345000535 -2.20499969 1.02000499 1.19500077 -2.20499969 0.300004363 1.15500104 -2.20499969 0.920004725 1.19500101 -2.20499969 1.02000499 1.15500104 -2.20499969 0.920004725 1.19500077 -2.20499969 0.300004363 1.15500093 -2.20499969 0.300004244 1.19500077 -2.20499969 0.300004363 1.15500093 -2.24499965 0.300004244 1.15500093 -2.20499969 0.300004244 1.15500093 -2.24499965 0.300004244 1.19500077 -2.20499969 0.300004363 1.19500077 -2.24499965 0.300004363 1.19500077 -2.20499969 0.300004363 1.19500089 -2.24499965 0.920004666 1.19500077 -2.24499965 0.300004363 1.19500101 -2.20499969 1.02000499 1.19500089 -2.24499965 0.920004666 1.19500077 -2.20499969 0.300004363 1.15500093 -2.24499965 0.300004244 1.15500104 -2.23499966 0.920004725 1.15500093 -2.20499969 0.300004244 1.15500093 -2.24499965 0.300004244 1.15500104 -2.23499966 1.02000487 1.15500104 -2.23499966 0.920004725 1.15500104 -2.23499966 1.02000487 1.15500093 -2.24499965 0.300004244 1.15500104 -2.24499965 1.02000487 1.15500093 -2.24499965 0.300004244 1.16500103 -2.24499965 0.920004785 1.15500104 -2.24499965 1.02000487 1.15500104 -2.24499965 1.02000487 1.16500103 -2.24499965 0.920004785 1.1650008 -2.24499965 1.02000487 1.16500103 -3.20500064 0.920004785 1.1650008 -2.24499965 1.02000487 1.16500103 -2.24499965 0.920004785 1.1650008 -2.24499965 1.02000487 1.16500103 -3.20500064 0.920004785 1.1650008 -3.20500064 1.02000487 1.16500103 -3.20500064 0.920004785 1.15500104 -3.20500064 1.02000487 1.1650008 -3.20500064 1.02000487 1.19500077 -3.20500064 0.300004363 1.15500104 -3.20500064 1.02000487 1.16500103 -3.20500064 0.920004785 1.15500104 -3.20500064 1.02000487 1.19500077 -3.20500064 0.300004363 1.15500093 -3.20500064 0.300004244 1.19500077 -3.20500064 0.300004363 1.15500093 -3.2450006 0.300004244 1.15500093 -3.20500064 0.300004244 1.15500093 -3.2450006 0.300004244 1.19500077 -3.20500064 0.300004363 1.19500077 -3.2450006 0.300004363 1.19500077 -3.20500064 0.300004363 1.19500101 -3.2450006 1.02000499 1.19500077 -3.2450006 0.300004363 1.19500101 -3.2450006 1.02000499 1.19500077 -3.20500064 0.300004363 1.19500089 -3.20500064 0.920004666 1.19500089 -3.20500064 0.920004666 1.19500077 -3.20500064 0.300004363 1.16500103 -3.20500064 0.920004785 1.19500101 -3.2450006 1.02000499 1.15500093 -3.2450006 0.300004244 1.19500077 -3.2450006 0.300004363 1.15500093 -3.2450006 0.300004244 1.19500101 -3.2450006 1.02000499 1.15500104 -3.2450006 0.920004725 1.15500104 -3.2450006 0.920004725 1.19500101 -3.2450006 1.02000499 -0.305000573 -3.2450006 0.920004725 -0.305000573 -3.2450006 0.920004725 1.15500104 -3.21500063 0.920004725 1.15500104 -3.2450006 0.920004725 1.15500104 -3.21500063 0.920004725 -0.305000573 -3.2450006 0.920004725 -0.305000573 -3.21500063 0.920004725 -0.305000573 -3.2450006 0.920004725 -0.305000573 -3.20500064 0.300004274 -0.305000573 -3.21500063 0.920004725 -0.305000573 -3.20500064 0.300004274 -0.305000573 -3.2450006 0.920004725 -0.305000573 -3.2450006 0.300004274 -0.305000573 -3.21500063 0.920004725 -0.305000573 -3.20500064 0.300004274 -0.305000573 -3.21500063 1.02000487 -0.305000573 -3.21500063 1.02000487 -0.305000573 -3.20500064 0.300004274 -0.305000573 -3.20500064 1.02000487 -0.305000573 -3.20500064 0.300004274 -0.315000564 -3.20500064 0.920004725 -0.305000573 -3.20500064 1.02000487 -0.305000573 -3.20500064 0.300004274 -0.345000535 -3.20500064 0.920004725 -0.315000564 -3.20500064 0.920004725 -0.345000535 -3.20500064 0.920004725 -0.305000573 -3.20500064 0.300004274 -0.345000535 -3.20500064 0.300004274 -0.345000535 -3.20500064 0.920004725 -0.315000564 -2.24499965 0.920004725 -0.315000564 -3.20500064 0.920004725 -0.315000564 -2.24499965 0.920004725 -0.345000535 -3.20500064 0.920004725 -0.345000535 -2.24499965 0.920004725 -0.345000535 -2.24499965 0.920004725 -0.345000535 -2.24499965 0.300004274 -0.315000564 -2.24499965 0.920004725 -0.345000535 -2.24499965 0.300004274 -0.305000573 -2.24499965 1.02000487 -0.315000564 -2.24499965 0.920004725 -0.305000573 -2.24499965 1.02000487 -0.345000535 -2.24499965 0.300004274 -0.305000573 -2.24499965 0.300004274 -0.345000535 -2.24499965 0.300004274 -0.305000573 -2.20499969 0.300004274 -0.305000573 -2.24499965 0.300004274 -0.305000573 -2.20499969 0.300004274 -0.345000535 -2.24499965 0.300004274 -0.345000535 -2.20499969 0.300004274 -0.305000573 -2.20499969 0.300004274 -0.305000573 -2.24499965 1.02000487 -0.305000573 -2.24499965 0.300004274 -0.305000573 -2.24499965 1.02000487 -0.305000573 -2.20499969 0.300004274 -0.305000573 -2.23499966 0.920004725 -0.305000573 -2.23499966 0.920004725 -0.305000573 -2.20499969 0.300004274 -0.305000573 -2.20499969 0.920004725 1.15500104 -2.20499969 0.920004725 -0.305000573 -2.23499966 0.920004725 -0.305000573 -2.20499969 0.920004725 -0.305000573 -2.23499966 0.920004725 1.15500104 -2.20499969 0.920004725 1.15500104 -2.23499966 0.920004725 1.15500093 -2.20499969 0.300004244 1.15500104 -2.23499966 0.920004725 1.15500104 -2.20499969 0.920004725 1.15500104 -2.23499966 1.02000487 -0.305000573 -2.23499966 0.920004725 1.15500104 -2.23499966 0.920004725 -0.305000573 -2.23499966 0.920004725 1.15500104 -2.23499966 1.02000487 -0.305000573 -2.23499966 1.02000487 1.15500104 -3.20500064 1.02000487 1.15500104 -3.21500063 0.920004725 1.15500104 -3.21500063 1.02000487 1.15500093 -3.20500064 0.300004244 1.15500104 -3.21500063 0.920004725 1.15500104 -3.20500064 1.02000487 1.15500093 -3.2450006 0.300004244 1.15500104 -3.21500063 0.920004725 1.15500093 -3.20500064 0.300004244 1.15500104 -3.21500063 0.920004725 1.15500093 -3.2450006 0.300004244 1.15500104 -3.2450006 0.920004725 1.15500104 -3.21500063 0.920004725 -0.305000573 -3.21500063 1.02000487 1.15500104 -3.21500063 1.02000487 -0.305000573 -3.21500063 1.02000487 1.15500104 -3.21500063 0.920004725 -0.305000573 -3.21500063 0.920004725 -0.315000564 -3.20500064 1.02000499 -0.315000564 -2.24499965 0.920004725 -0.315000564 -2.24499965 1.02000499 -0.315000564 -2.24499965 0.920004725 -0.315000564 -3.20500064 1.02000499 -0.315000564 -3.20500064 0.920004725 -0.305000573 -3.20500064 1.02000487 -0.315000564 -3.20500064 0.920004725 -0.315000564 -3.20500064 1.02000499 -0.315000564 -2.24499965 0.920004725 -0.305000573 -2.24499965 1.02000487 -0.315000564 -2.24499965 1.02000499 -0.305000573 -2.23499966 1.02000487 -0.305000573 -2.24499965 1.02000487 -0.305000573 -2.23499966 0.920004725 </float_array>
          <technique_common>
            <accessor count="240" offset="0" source="#mesh_0-positions-array" stride="3">
              <param name="X" type="float" />
              <param name="Y" type="float" />
              <param name="Z" type="float" />
            </accessor>
          </technique_common>
        </source>
        <source id="mesh_0-normals" name="mesh_0-normals">
          <float_array id="mesh_0-normals-array" count="720"> 0 -1 0 0 -1 0 0 -1 0 0 -1 0 0 -1 0 0 -1 0 0 0 -1 0 0 -1 0 0 -1 0 0 -1 0 0 -1 0 0 -1 1 0 0 1 0 0 1 0 0 1 0 0 1 0 0 1 0 0 0 -1 0 0 -1 0 0 -1 0 0 -1 0 0 -1 0 0 -1 0 0 -1 0 0 -1 0 0 -1 0 0 0 -1 0 0 -1 0 0 -1 0 0 -1 0 0 -1 0 0 -1 -1 0 0 -1 0 0 -1 0 0 -1 0 0 -1 0 0 -1 0 0 -1 0 0 -1 0 0 -1 0 0 -1 0 0 -1 0 0 -1 0 0 -1 0 0 -1 0 0 -1 0 0 -1 0 0 -1 0 0 -1 0 0 0 1 0 0 1 0 0 1 0 0 1 0 0 1 0 0 1 0 0 1 0 0 1 0 0 1 0 0 1 0 0 1 0 0 1 0 0 1 0 0 1 0 0 1 0 0 1 0 0 1 0 0 1 0 0 0 -1 0 0 -1 0 0 -1 0 0 -1 0 0 -1 0 0 -1 1 0 0 1 0 0 1 0 0 1 0 0 1 0 0 1 0 0 -1 0 0 -1 0 0 -1 0 0 -1 0 0 -1 0 0 -1 0 0 -1 0 0 -1 0 0 -1 0 0 0 -1 0 0 -1 0 0 -1 0 0 -1 0 0 -1 0 0 -1 0 -1 0 0 -1 0 0 -1 0 0 -1 0 0 -1 0 0 -1 0 0 0 1 0 0 1 0 0 1 0 0 1 0 0 1 0 0 1 0 0 1 0 0 1 0 0 1 0 0 0 -1 0 0 -1 0 0 -1 0 0 -1 0 0 -1 0 0 -1 1 0 0 1 0 0 1 0 0 1 0 0 1 0 0 1 0 0 0 1 0 0 1 0 0 1 0 0 -1 0 0 -1 0 0 -1 0 0 -1 0 0 -1 0 0 -1 0 0 -1 0 0 -1 0 0 -1 0 0 0 -1 0 0 -1 0 0 -1 0 0 -1 0 0 -1 0 0 -1 1 0 0 1 0 0 1 0 0 1 0 0 1 0 0 1 0 0 1 0 0 1 0 0 1 0 0 1 0 0 1 0 0 1 0 0 0 1 0 0 1 0 0 1 0 0 1 0 0 1 0 0 1 0 0 1 0 0 1 0 0 1 0 0 0 -1 0 0 -1 0 0 -1 0 0 -1 0 0 -1 0 0 -1 0 -1 0 0 -1 0 0 -1 0 0 -1 0 0 -1 0 0 -1 0 0 -1 0 0 -1 0 0 -1 0 0 0 -1 0 0 -1 0 0 -1 0 0 -1 0 0 -1 0 0 -1 1 0 0 1 0 0 1 0 0 1 0 0 1 0 0 1 0 0 1 0 0 1 0 0 1 0 0 0 0 -1 0 0 -1 0 0 -1 0 0 -1 0 0 -1 0 0 -1 -1 0 0 -1 0 0 -1 0 0 0 -1 0 0 -1 0 0 -1 0 0 -1 0 0 -1 0 0 -1 0 -1 0 0 -1 0 0 -1 0 0 -1 0 0 -1 0 0 -1 0 0 -1 0 0 -1 0 0 -1 0 0 -1 0 0 -1 0 0 -1 0 0 0 1 0 0 1 0 0 1 0 0 1 0 0 1 0 0 1 0 1 0 0 1 0 0 1 0 0 1 0 0 1 0 0 1 0 0 0 1 0 0 1 0 0 1 0 0 -1 0 0 -1 0 0 -1 0 1 0 0 1 0 0 1 0 0 </float_array>
          <technique_common>
            <accessor count="240" offset="0" source="#mesh_0-normals-array" stride="3">
              <param name="X" type="float" />
              <param name="Y" type="float" />
              <param name="Z" type="float" />
            </accessor>
          </technique_common>
        </source>
        <vertices id="mesh_0-vertices">
          <input semantic="POSITION" source="#mesh_0-positions" />
        </vertices>
        <polylist count="80" material="defaultMaterial">
          <input offset="0" semantic="VERTEX" source="#mesh_0-vertices" />
          <input offset="0" semantic="NORMAL" source="#mesh_0-normals" />
          <vcount>3 3 3 3 3 3 3 3 3 3 3 3 3 3 3 3 3 3 3 3 3 3 3 3 3 3 3 3 3 3 3 3 3 3 3 3 3 3 3 3 3 3 3 3 3 3 3 3 3 3 3 3 3 3 3 3 3 3 3 3 3 3 3 3 3 3 3 3 3 3 3 3 3 3 3 3 3 3 3 3 </vcount>
          <p>0 1 2 3 4 5 6 7 8 9 10 11 12 13 14 15 16 17 18 19 20 21 22 23 24 25 26 27 28 29 30 31 32 33 34 35 36 37 38 39 40 41 42 43 44 45 46 47 48 49 50 51 52 53 54 55 56 57 58 59 60 61 62 63 64 65 66 67 68 69 70 71 72 73 74 75 76 77 78 79 80 81 82 83 84 85 86 87 88 89 90 91 92 93 94 95 96 97 98 99 100 101 102 103 104 105 106 107 108 109 110 111 112 113 114 115 116 117 118 119 120 121 122 123 124 125 126 127 128 129 130 131 132 133 134 135 136 137 138 139 140 141 142 143 144 145 146 147 148 149 150 151 152 153 154 155 156 157 158 159 160 161 162 163 164 165 166 167 168 169 170 171 172 173 174 175 176 177 178 179 180 181 182 183 184 185 186 187 188 189 190 191 192 193 194 195 196 197 198 199 200 201 202 203 204 205 206 207 208 209 210 211 212 213 214 215 216 217 218 219 220 221 222 223 224 225 226 227 228 229 230 231 232 233 234 235 236 237 238 239 </p>
        </polylist>
      </mesh>
    </geometry>
    <geometry id="mesh_1" name="" >
      <mesh>
        <source id="mesh_1-positions" name="mesh_1-positions">
          <float_array id="mesh_1-positions-array" count="234"> 1.19500065 -2.20499969 1.02000499 1.22500074 -2.17499971 1.02000511 1.19500065 -3.24500036 1.02000499 -0.345000595 -2.20499969 1.02000487 1.22500074 -2.17499971 1.02000511 1.19500065 -2.20499969 1.02000499 -0.345000595 -2.20499969 1.02000487 -0.375000566 -2.17499971 1.02000487 1.22500074 -2.17499971 1.02000511 -0.375000566 -2.17499971 1.02000487 -0.345000595 -2.20499969 1.02000487 -0.375000566 -3.27500033 1.02000487 -0.345000595 -3.24500036 1.02000487 -0.375000566 -3.27500033 1.02000487 -0.345000595 -2.20499969 1.02000487 -0.375000566 -3.27500033 1.02000487 -0.345000595 -3.24500036 1.02000487 1.22500074 -3.27500033 1.02000511 1.22500074 -3.27500033 1.02000511 -0.345000595 -3.24500036 1.02000487 1.19500065 -3.24500036 1.02000499 1.15500081 -2.23499966 1.02000499 -0.305000633 -2.24499965 1.02000475 -0.305000633 -2.23499966 1.02000475 -0.305000633 -2.24499965 1.02000475 1.15500081 -2.23499966 1.02000499 -0.305000633 -3.2050004 1.02000475 -0.305000633 -3.2050004 1.02000475 1.15500081 -2.23499966 1.02000499 -0.305000633 -3.21500039 1.02000475 -0.305000633 -3.21500039 1.02000475 1.15500081 -2.23499966 1.02000499 1.15500081 -3.21500039 1.02000499 1.16500056 -2.24499965 1.02000487 1.15500081 -3.2050004 1.02000499 1.15500081 -2.24499965 1.02000499 1.15500081 -3.2050004 1.02000499 1.16500056 -2.24499965 1.02000487 1.16500056 -3.2050004 1.02000487 -0.315000623 -3.2050004 1.02000487 -0.305000633 -2.24499965 1.02000475 -0.305000633 -3.2050004 1.02000475 -0.305000633 -2.24499965 1.02000475 -0.315000623 -3.2050004 1.02000487 -0.315000623 -2.24499965 1.02000487 1.22500074 -3.27500033 1.02000511 1.19500065 -3.24500036 1.02000499 1.22500074 -2.17499971 1.02000511 1.22500074 -2.17499971 1.02000511 1.22500074 -3.27500033 1.05000496 1.22500074 -3.27500033 1.02000511 1.22500074 -3.27500033 1.05000496 1.22500074 -2.17499971 1.02000511 1.22500074 -2.17499971 1.05000496 1.22500074 -2.17499971 1.02000511 -0.375000685 -2.17499971 1.05000472 1.22500074 -2.17499971 1.05000496 -0.375000685 -2.17499971 1.05000472 1.22500074 -2.17499971 1.02000511 -0.375000566 -2.17499971 1.02000487 -0.375000566 -3.27500033 1.02000487 -0.375000685 -2.17499971 1.05000472 -0.375000566 -2.17499971 1.02000487 -0.375000685 -2.17499971 1.05000472 -0.375000566 -3.27500033 1.02000487 -0.375000685 -3.27500033 1.05000472 -0.375000566 -3.27500033 1.02000487 1.22500074 -3.27500033 1.05000496 -0.375000685 -3.27500033 1.05000472 1.22500074 -3.27500033 1.05000496 -0.375000566 -3.27500033 1.02000487 1.22500074 -3.27500033 1.02000511 1.22500074 -3.27500033 1.05000496 -0.375000685 -2.17499971 1.05000472 -0.375000685 -3.27500033 1.05000472 -0.375000685 -2.17499971 1.05000472 1.22500074 -3.27500033 1.05000496 1.22500074 -2.17499971 1.05000496 </float_array>
          <technique_common>
            <accessor count="78" offset="0" source="#mesh_1-positions-array" stride="3">
              <param name="X" type="float" />
              <param name="Y" type="float" />
              <param name="Z" type="float" />
            </accessor>
          </technique_common>
        </source>
        <source id="mesh_1-normals" name="mesh_1-normals">
          <float_array id="mesh_1-normals-array" count="234"> 0 0 -1 0 0 -1 0 0 -1 0 0 -1 0 0 -1 0 0 -1 0 0 -1 0 0 -1 0 0 -1 0 0 -1 0 0 -1 0 0 -1 0 0 -1 0 0 -1 0 0 -1 0 0 -1 0 0 -1 0 0 -1 0 0 -1 0 0 -1 0 0 -1 0 0 -1 0 0 -1 0 0 -1 0 0 -1 0 0 -1 0 0 -1 0 0 -1 0 0 -1 0 0 -1 0 0 -1 0 0 -1 0 0 -1 0 0 -1 0 0 -1 0 0 -1 0 0 -1 0 0 -1 0 0 -1 0 0 -1 0 0 -1 0 0 -1 0 0 -1 0 0 -1 0 0 -1 0 0 -1 0 0 -1 0 0 -1 1 0 0 1 0 0 1 0 0 1 0 0 1 0 0 1 0 0 0 1 0 0 1 0 0 1 0 0 1 0 0 1 0 0 1 0 -1 0 0 -1 0 0 -1 0 0 -1 0 0 -1 0 0 -1 0 0 0 -1 0 0 -1 0 0 -1 0 0 -1 0 0 -1 0 0 -1 0 0 0 1 0 0 1 0 0 1 0 0 1 0 0 1 0 0 1 </float_array>
          <technique_common>
            <accessor count="78" offset="0" source="#mesh_1-normals-array" stride="3">
              <param name="X" type="float" />
              <param name="Y" type="float" />
              <param name="Z" type="float" />
            </accessor>
          </technique_common>
        </source>
        <vertices id="mesh_1-vertices">
          <input semantic="POSITION" source="#mesh_1-positions" />
        </vertices>
        <polylist count="26" material="defaultMaterial">
          <input offset="0" semantic="VERTEX" source="#mesh_1-vertices" />
          <input offset="0" semantic="NORMAL" source="#mesh_1-normals" />
          <vcount>3 3 3 3 3 3 3 3 3 3 3 3 3 3 3 3 3 3 3 3 3 3 3 3 3 3 </vcount>
          <p>0 1 2 3 4 5 6 7 8 9 10 11 12 13 14 15 16 17 18 19 20 21 22 23 24 25 26 27 28 29 30 31 32 33 34 35 36 37 38 39 40 41 42 43 44 45 46 47 48 49 50 51 52 53 54 55 56 57 58 59 60 61 62 63 64 65 66 67 68 69 70 71 72 73 74 75 76 77 </p>
        </polylist>
      </mesh>
    </geometry>
  </library_geometries>
  <library_controllers>
  </library_controllers>
  <library_visual_scenes>
    <visual_scene id="Scene" name="Scene">
      <node id="node" name="" type="NODE">
        <matrix sid="matrix">1 0 0 0 0 1 0 0 0 0 1 0 0 0 0 1</matrix>
        <instance_geometry url="#mesh_0">
          <bind_material>
            <technique_common>
              <instance_material symbol="defaultMaterial" target="#material_0">
              </instance_material>
            </technique_common>
          </bind_material>
        </instance_geometry>
        <instance_geometry url="#mesh_1">
          <bind_material>
            <technique_common>
              <instance_material symbol="defaultMaterial" target="#material_1">
              </instance_material>
            </technique_common>
          </bind_material>
        </instance_geometry>
      </node>
    </visual_scene>
  </library_visual_scenes>
  <scene>
    <instance_visual_scene url="#Scene" />
  </scene>
</COLLADA>
