<COLLADA xmlns="http://www.collada.org/2005/11/COLLADASchema" version="1.4.1">
  <asset>
    <contributor />
    <created>2023-12-26T18:23:20.899477</created>
    <modified>2023-12-26T18:23:20.899477</modified>
    <unit name="meter" meter="1.0" />
    <up_axis>Z_UP</up_axis>
  </asset>
  <library_effects>
    <effect id="effect_Part__Feature" name="effect_Part__Feature">
      <profile_COMMON>
        <technique sid="common">
          <phong>
            <emission>
              <color>0.0 0.0 0.0 1.0</color>
            </emission>
            <ambient>
              <color>0.0 0.0 0.0 1.0</color>
            </ambient>
            <diffuse>
              <color>1.0 1.0 1.0 1.0</color>
            </diffuse>
            <specular>
              <color>1 1 1 1.0</color>
            </specular>
            <shininess>
              <float>0.0</float>
            </shininess>
            <reflective>
              <color>0.0 0.0 0.0 1.0</color>
            </reflective>
            <reflectivity>
              <float>0.0</float>
            </reflectivity>
            <transparent>
              <color>0.0 0.0 0.0 1.0</color>
            </transparent>
            <transparency>
              <float>1.0</float>
            </transparency>
          </phong>
        </technique>
        <extra>
          <technique profile="GOOGLEEARTH">
            <double_sided>0</double_sided>
          </technique>
        </extra>
      </profile_COMMON>
    </effect>
  </library_effects>
  <library_geometries>
    <geometry id="geometry0" name="Part__Feature">
      <mesh>
        <source id="cubeverts-array0">
          <float_array count="960" id="cubeverts-array0-array">-0.3316703 0.9145826 0.3875 -0.3316703 0.8645826 0.3875 -0.3215 0.8645826 0.3875 -0.3215 0.9145826 0.3875 -0.3545992 0.8645826 0.3645711 -0.3545992 0.9145826 0.3645711 -0.3545992 0.9145826 0.3061012 -0.3545992 0.8645826 0.3061012 -0.35 0.9145826 0.3061012 -0.35 0.8645826 0.3061012 -0.3495992 0.9145826 0.3625 -0.3495992 0.8645826 0.3625 -0.3495992 0.8645826 0.3475802 -0.3495992 0.9145826 0.3475802 -0.3295992 0.9145826 0.3825 -0.3295992 0.8645826 0.3825 -0.301887 0.9145826 0.3825 -0.301887 0.8645826 0.3825 -0.301887 0.9145826 0.3875 -0.301887 0.8645826 0.3875 -0.35 0.8645826 0.3475 -0.35 0.9145826 0.3475 -0.3316703 1.354583 0.3875 -0.3316703 1.304583 0.3875 -0.3215 1.304583 0.3875 -0.3215 1.354583 0.3875 -0.3545992 1.354583 0.3645711 -0.3545992 1.304583 0.3645711 -0.3545992 1.354583 0.3061012 -0.3545992 1.304583 0.3061012 -0.35 1.354583 0.3061012 -0.35 1.304583 0.3061012 -0.3495992 1.354583 0.3625 -0.3495992 1.304583 0.3625 -0.3495992 1.304583 0.3475802 -0.3495992 1.354583 0.3475802 -0.3295992 1.354583 0.3825 -0.3295992 1.304583 0.3825 -0.301887 1.354583 0.3825 -0.301887 1.304583 0.3825 -0.301887 1.354583 0.3875 -0.301887 1.304583 0.3875 -0.35 1.304583 0.3475 -0.35 1.354583 0.3475 -0.3218925 0.857 0.3875096 -0.3215 0.857 0.3875 -0.3218925 1.357 0.3875096 -0.3215 1.357 0.3875 -0.3222841 0.857 0.3875385 -0.3222841 1.357 0.3875385 -0.3226739 0.857 0.3875866 -0.3226739 1.357 0.3875866 -0.3230607 0.857 0.3876537 -0.3230607 1.357 0.3876537 -0.3234438 0.857 0.3877397 -0.3234438 1.357 0.3877397 -0.3238223 0.857 0.3878445 -0.3238223 1.357 0.3878445 -0.3241951 0.857 0.3879677 -0.3241951 1.357 0.3879677 -0.3245615 0.857 0.388109 -0.3245615 1.357 0.388109 -0.3249204 0.857 0.3882681 -0.3249204 1.357 0.3882681 -0.3252712 0.857 0.3884446 -0.3252712 1.357 0.3884446 -0.3256128 0.857 0.3886382 -0.3256128 1.357 0.3886382 -0.3259445 1.357 0.3888482 -0.3259445 0.857 0.3888482 -0.3262656 0.857 0.3890743 -0.3262656 1.357 0.3890743 -0.3265751 0.857 0.3893159 -0.3265751 1.357 0.3893159 -0.3268725 1.357 0.3895724 -0.3268725 0.857 0.3895724 -0.3271569 0.857 0.3898431 -0.3271569 1.357 0.3898431 -0.3274276 1.357 0.3901275 -0.3274276 0.857 0.3901275 -0.3276841 1.357 0.3904249 -0.3276841 0.857 0.3904249 -0.3279257 0.857 0.3907344 -0.3279257 1.357 0.3907344 -0.3281518 1.357 0.3910555 -0.3281518 0.857 0.3910555 -0.3283618 1.357 0.3913872 -0.3283618 0.857 0.3913872 -0.3285554 0.857 0.3917288 -0.3285554 1.357 0.3917288 -0.3287319 1.357 0.3920796 -0.3287319 0.857 0.3920796 -0.328891 1.357 0.3924385 -0.328891 0.857 0.3924385 -0.3290323 0.857 0.3928049 -0.3290323 1.357 0.3928049 -0.3291555 0.857 0.3931777 -0.3291555 1.357 0.3931777 -0.3292603 1.357 0.3935562 -0.3292603 0.857 0.3935562 -0.3293463 1.357 0.3939393 -0.3293463 0.857 0.3939393 -0.3294134 1.357 0.3943261 -0.3294134 0.857 0.3943261 -0.3294615 1.357 0.3947159 -0.3294615 0.857 0.3947159 -0.3294904 0.857 0.3951075 -0.3294904 1.357 0.3951075 -0.3295 1.357 0.3955 -0.3295 0.857 0.3955 -0.3295 1.357 0.3995 -0.3295 0.857 0.3995 -0.3294904 0.857 0.3998925 -0.3294904 1.357 0.3998925 -0.3294615 0.857 0.4002841 -0.3294615 1.357 0.4002841 -0.3294134 0.857 0.4006739 -0.3294134 1.357 0.4006739 -0.3293463 0.857 0.4010607 -0.3293463 1.357 0.4010607 -0.3292603 0.857 0.4014438 -0.3292603 1.357 0.4014438 -0.3291555 0.857 0.4018223 -0.3291555 1.357 0.4018223 -0.3290323 0.857 0.4021951 -0.3290323 1.357 0.4021951 -0.328891 0.857 0.4025615 -0.328891 1.357 0.4025615 -0.3287319 0.857 0.4029204 -0.3287319 1.357 0.4029204 -0.3285554 0.857 0.4032712 -0.3285554 1.357 0.4032712 -0.3283618 0.857 0.4036128 -0.3283618 1.357 0.4036128 -0.3281518 1.357 0.4039445 -0.3281518 0.857 0.4039445 -0.3279257 0.857 0.4042656 -0.3279257 1.357 0.4042656 -0.3276841 0.857 0.4045751 -0.3276841 1.357 0.4045751 -0.3274276 1.357 0.4048725 -0.3274276 0.857 0.4048725 -0.3271569 0.857 0.4051569 -0.3271569 1.357 0.4051569 -0.3268725 1.357 0.4054276 -0.3268725 0.857 0.4054276 -0.3265751 1.357 0.4056841 -0.3265751 0.857 0.4056841 -0.3262656 0.857 0.4059257 -0.3262656 1.357 0.4059257 -0.3259445 1.357 0.4061518 -0.3259445 0.857 0.4061518 -0.3256128 1.357 0.4063618 -0.3256128 0.857 0.4063618 -0.3252712 0.857 0.4065554 -0.3252712 1.357 0.4065554 -0.3249204 1.357 0.4067319 -0.3249204 0.857 0.4067319 -0.3245615 1.357 0.406891 -0.3245615 0.857 0.406891 -0.3241951 0.857 0.4070323 -0.3241951 1.357 0.4070323 -0.3238223 0.857 0.4071555 -0.3238223 1.357 0.4071555 -0.3234438 1.357 0.4072603 -0.3234438 0.857 0.4072603 -0.3230607 1.357 0.4073463 -0.3230607 0.857 0.4073463 -0.3226739 1.357 0.4074134 -0.3226739 0.857 0.4074134 -0.3222841 1.357 0.4074615 -0.3222841 0.857 0.4074615 -0.3218925 0.857 0.4074904 -0.3218925 1.357 0.4074904 -0.3215 0.857 0.4075 -0.3215 1.357 0.4075 -0.2895 0.857 0.3995 -0.2895 1.357 0.3995 -0.2895096 1.357 0.3998925 -0.2895096 0.857 0.3998925 -0.2895385 1.357 0.4002841 -0.2895385 0.857 0.4002841 -0.2895866 1.357 0.4006739 -0.2895866 0.857 0.4006739 -0.2896537 1.357 0.4010607 -0.2896537 0.857 0.4010607 -0.2897397 1.357 0.4014438 -0.2897397 0.857 0.4014438 -0.2898445 1.357 0.4018223 -0.2898445 0.857 0.4018223 -0.2899677 1.357 0.4021951 -0.2899677 0.857 0.4021951 -0.290109 1.357 0.4025615 -0.290109 0.857 0.4025615 -0.2902681 1.357 0.4029204 -0.2902681 0.857 0.4029204 -0.2904446 1.357 0.4032712 -0.2904446 0.857 0.4032712 -0.2906382 1.357 0.4036128 -0.2906382 0.857 0.4036128 -0.2908482 0.857 0.4039445 -0.2908482 1.357 0.4039445 -0.2910743 1.357 0.4042656 -0.2910743 0.857 0.4042656 -0.2913159 1.357 0.4045751 -0.2913159 0.857 0.4045751 -0.2915724 0.857 0.4048725 -0.2915724 1.357 0.4048725 -0.2918431 1.357 0.4051569 -0.2918431 0.857 0.4051569 -0.2921275 0.857 0.4054276 -0.2921275 1.357 0.4054276 -0.2924249 0.857 0.4056841 -0.2924249 1.357 0.4056841 -0.2927344 1.357 0.4059257 -0.2927344 0.857 0.4059257 -0.2930555 0.857 0.4061518 -0.2930555 1.357 0.4061518 -0.2933872 0.857 0.4063618 -0.2933872 1.357 0.4063618 -0.2937288 1.357 0.4065554 -0.2937288 0.857 0.4065554 -0.2940796 0.857 0.4067319 -0.2940796 1.357 0.4067319 -0.2944385 0.857 0.406891 -0.2944385 1.357 0.406891 -0.2948049 1.357 0.4070323 -0.2948049 0.857 0.4070323 -0.2951777 1.357 0.4071555 -0.2951777 0.857 0.4071555 -0.2955562 0.857 0.4072603 -0.2955562 1.357 0.4072603 -0.2959393 0.857 0.4073463 -0.2959393 1.357 0.4073463 -0.2963261 0.857 0.4074134 -0.2963261 1.357 0.4074134 -0.2967159 0.857 0.4074615 -0.2967159 1.357 0.4074615 -0.2971075 1.357 0.4074904 -0.2971075 0.857 0.4074904 -0.2975 1.357 0.4075 -0.2975 0.857 0.4075 -0.2975 0.857 0.3875 -0.2975 1.357 0.3875 -0.2971075 1.357 0.3875096 -0.2971075 0.857 0.3875096 -0.2967159 1.357 0.3875385 -0.2967159 0.857 0.3875385 -0.2963261 1.357 0.3875866 -0.2963261 0.857 0.3875866 -0.2959393 1.357 0.3876537 -0.2959393 0.857 0.3876537 -0.2955562 1.357 0.3877397 -0.2955562 0.857 0.3877397 -0.2951777 1.357 0.3878445 -0.2951777 0.857 0.3878445 -0.2948049 1.357 0.3879677 -0.2948049 0.857 0.3879677 -0.2944385 1.357 0.388109 -0.2944385 0.857 0.388109 -0.2940796 1.357 0.3882681 -0.2940796 0.857 0.3882681 -0.2937288 1.357 0.3884446 -0.2937288 0.857 0.3884446 -0.2933872 1.357 0.3886382 -0.2933872 0.857 0.3886382 -0.2930555 0.857 0.3888482 -0.2930555 1.357 0.3888482 -0.2927344 1.357 0.3890743 -0.2927344 0.857 0.3890743 -0.2924249 1.357 0.3893159 -0.2924249 0.857 0.3893159 -0.2921275 0.857 0.3895724 -0.2921275 1.357 0.3895724 -0.2918431 1.357 0.3898431 -0.2918431 0.857 0.3898431 -0.2915724 0.857 0.3901275 -0.2915724 1.357 0.3901275 -0.2913159 0.857 0.3904249 -0.2913159 1.357 0.3904249 -0.2910743 1.357 0.3907344 -0.2910743 0.857 0.3907344 -0.2908482 0.857 0.3910555 -0.2908482 1.357 0.3910555 -0.2906382 0.857 0.3913872 -0.2906382 1.357 0.3913872 -0.2904446 1.357 0.3917288 -0.2904446 0.857 0.3917288 -0.2902681 0.857 0.3920796 -0.2902681 1.357 0.3920796 -0.290109 0.857 0.3924385 -0.290109 1.357 0.3924385 -0.2899677 1.357 0.3928049 -0.2899677 0.857 0.3928049 -0.2898445 1.357 0.3931777 -0.2898445 0.857 0.3931777 -0.2897397 0.857 0.3935562 -0.2897397 1.357 0.3935562 -0.2896537 0.857 0.3939393 -0.2896537 1.357 0.3939393 -0.2895866 0.857 0.3943261 -0.2895866 1.357 0.3943261 -0.2895385 0.857 0.3947159 -0.2895385 1.357 0.3947159 -0.2895096 1.357 0.3951075 -0.2895096 0.857 0.3951075 -0.2895 0.857 0.3955 -0.2895 1.357 0.3955 0.35 0.071 0.3475 0.35 1.37 0.3475 0.3 1.37 0.3575 0.3 0.071 0.3575 -0.35 0.071 0.3475 -0.3 0.071 0.3575 -0.3 1.37 0.3575 -0.35 1.37 0.3475 -0.35 0.071 0.2925 -0.35 1.37 0.2925 0.35 1.37 0.2925 0.35 0.071 0.2925</float_array>
          <technique_common>
            <accessor count="320" source="#cubeverts-array0-array" stride="3">
              <param type="float" name="X" />
              <param type="float" name="Y" />
              <param type="float" name="Z" />
            </accessor>
          </technique_common>
        </source>
        <source id="cubenormals-array0">
          <float_array count="1920" id="cubenormals-array0-array">0 0 1 0 0 1 -0.7071068 0 0.7071068 -0.7071068 0 0.7071068 -1 0 -0 -1 -0 0 0 0 -1 0 0 -1 1 0 0 1 0 0 0.7071068 0 -0.7071068 0.7071068 0 -0.7071068 0 0 -1 0 0 -1 1 0 0 1 0 0 0 -1 0 -0 -1 0 -0 -1 0 0 -1 0 -0 -1 0 0 -1 0 0 -1 0 0 -1 0 0 -1 0 0 1 0 0 1 0 0 1 0 0 1 -0 0 1 -0 0 1 -0 0 1 0 0 1 0 0 1 -0 0 0 1 0 0 1 -0.7071068 0 0.7071068 -0.7071068 0 0.7071068 -1 0 -0 -1 -0 0 0 0 -1 0 0 -1 1 0 0 1 0 0 0.7071068 0 -0.7071068 0.7071068 0 -0.7071068 0 0 -1 0 0 -1 1 0 0 1 0 0 0 -1 0 -0 -1 0 -0 -1 0 0 -1 0 -0 -1 0 0 -1 0 0 -1 0 0 -1 0 0 -1 0 0 1 0 0 1 0 0 1 0 0 1 -0 0 1 -0 0 1 -0 0 1 0 0 1 0 0 1 -0 -0.02455918 0 -0.9996983 -0.02455918 0 -0.9996983 -0.02455918 0 -0.9996984 -0.02455918 0 -0.9996983 -0.02455918 0 -0.9996984 -0.07352243 -0 -0.9972936 -0.02455918 -0 -0.9996984 -0.1224084 -0 -0.9924799 -0.07352243 -0 -0.9972936 -0.1709869 -0 -0.9852733 -0.1224084 -0 -0.9924799 -0.2190942 -0 -0.9757037 -0.1709869 -0 -0.9852733 -0.2667458 -0 -0.9637669 -0.2190942 -0 -0.9757037 -0.2667458 -0 -0.9637669 -0.313662 -0 -0.9495347 -0.313662 -0 -0.9495347 -0.359932 -0 -0.9329785 -0.359932 -0 -0.9329785 -0.4052297 -0 -0.914215 -0.4052297 -0 -0.914215 -0.4496057 -0 -0.8932271 -0.4496057 -0 -0.8932271 -0.4929047 -0 -0.8700833 -0.4929047 -0 -0.8700833 -0.5349781 0 -0.8448659 -0.5758072 -0 -0.8175855 -0.5349781 -0 -0.8448659 -0.5758072 -0 -0.8175855 -0.6152473 -0 -0.7883342 -0.6152473 -0 -0.7883342 -0.6531563 0 -0.757223 -0.6895232 -0 -0.7242636 -0.6531563 -0 -0.757223 -0.6895232 -0 -0.7242636 -0.7242636 0 -0.6895232 -0.7242636 -0 -0.6895232 -0.7883342 -0 -0.6152473 -0.757223 -0 -0.6531563 -0.757223 0 -0.6531563 -0.7883342 -0 -0.6152473 -0.8175855 -0 -0.5758072 -0.8175855 0 -0.5758072 -0.8700833 -0 -0.4929047 -0.8448659 -0 -0.5349781 -0.8448659 0 -0.5349781 -0.8700833 -0 -0.4929047 -0.8932271 -0 -0.4496057 -0.8932271 0 -0.4496057 -0.914215 0 -0.4052297 -0.9329785 -0 -0.359932 -0.914215 -0 -0.4052297 -0.9495347 -0 -0.313662 -0.9329785 -0 -0.359932 -0.9495347 -0 -0.313662 -0.9637669 -0 -0.2667458 -0.9637669 0 -0.2667458 -0.9757037 -0 -0.2190942 -0.9757037 0 -0.2190942 -0.9852733 -0 -0.1709869 -0.9852733 0 -0.1709869 -0.9924799 0 -0.1224084 -0.9972936 -0 -0.07352243 -0.9924799 -0 -0.1224084 -0.9972936 -0 -0.07352243 -0.9996984 0 -0.02455918 -0.9996984 -0 -0.02455918 -0.9996984 0 0.02455918 -0.9972936 0 0.07352243 -0.9996984 0 0.02455918 -0.9924799 0 0.1224084 -0.9972936 0 0.07352243 -0.9852733 0 0.1709869 -0.9924799 0 0.1224084 -0.9757037 0 0.2190942 -0.9852733 0 0.1709869 -0.9637669 0 0.2667458 -0.9757037 0 0.2190942 -0.9495347 0 0.313662 -0.9637669 0 0.2667458 -0.9329785 0 0.359932 -0.9495347 0 0.313662 -0.914215 0 0.4052297 -0.9329785 0 0.359932 -0.914215 0 0.4052297 -0.8932271 0 0.4496057 -0.8932271 0 0.4496057 -0.8700833 0 0.4929047 -0.8700833 0 0.4929047 -0.8448659 0 0.5349781 -0.8175855 0 0.5758072 -0.8448659 0 0.5349781 -0.8175855 0 0.5758072 -0.7883342 0 0.6152473 -0.7883342 0 0.6152473 -0.7242636 0 0.6895232 -0.757223 0 0.6531563 -0.757223 0 0.6531563 -0.7242636 0 0.6895232 -0.6895232 0 0.7242636 -0.6895232 0 0.7242636 -0.6152473 0 0.7883342 -0.6531563 0 0.757223 -0.6531563 0 0.757223 -0.6152473 0 0.7883342 -0.5758072 0 0.8175855 -0.5758072 0 0.8175855 -0.4929047 0 0.8700833 -0.5349781 0 0.8448659 -0.5349781 0 0.8448659 -0.4929047 0 0.8700833 -0.4496057 0 0.8932271 -0.4496057 0 0.8932271 -0.359932 0 0.9329785 -0.4052297 0 0.914215 -0.4052297 0 0.914215 -0.313662 0 0.9495347 -0.359932 0 0.9329785 -0.313662 0 0.9495347 -0.2667458 0 0.9637669 -0.2667458 0 0.9637669 -0.2190942 0 0.9757037 -0.2190942 0 0.9757037 -0.1709869 0 0.9852733 -0.1709869 0 0.9852733 -0.07352243 0 0.9972936 -0.1224084 0 0.9924799 -0.1224084 0 0.9924799 -0.02455918 0 0.9996984 -0.07352243 0 0.9972936 -0.02455918 0 0.9996984 0.9996984 -0 0.02455918 0.9972936 -0 0.07352243 0.9996984 -0 0.02455918 0.9924799 -0 0.1224084 0.9972936 -0 0.07352243 0.9852733 -0 0.1709869 0.9924799 -0 0.1224084 0.9757037 -0 0.2190942 0.9852733 -0 0.1709869 0.9637669 -0 0.2667458 0.9757037 -0 0.2190942 0.9495347 -0 0.313662 0.9637669 -0 0.2667458 0.9329785 -0 0.359932 0.9495347 -0 0.313662 0.914215 -0 0.4052297 0.9329785 -0 0.359932 0.914215 -0 0.4052297 0.8932271 -0 0.4496057 0.8932271 -0 0.4496057 0.8700833 -0 0.4929047 0.8700833 -0 0.4929047 0.8448659 0 0.5349781 0.8175855 -0 0.5758072 0.8448659 -0 0.5349781 0.8175855 -0 0.5758072 0.7883342 -0 0.6152473 0.7883342 -0 0.6152473 0.7242636 -0 0.6895232 0.757223 -0 0.6531563 0.757223 0 0.6531563 0.7242636 -0 0.6895232 0.6895232 -0 0.7242636 0.6895232 0 0.7242636 0.6152473 -0 0.7883342 0.6531563 -0 0.757223 0.6531563 0 0.757223 0.6152473 -0 0.7883342 0.5758072 -0 0.8175855 0.5758072 0 0.8175855 0.4929047 -0 0.8700833 0.5349781 -0 0.8448659 0.5349781 0 0.8448659 0.4929047 -0 0.8700833 0.4496057 -0 0.8932271 0.4496057 0 0.8932271 0.359932 -0 0.9329785 0.4052297 -0 0.914215 0.4052297 0 0.914215 0.313662 -0 0.9495347 0.359932 -0 0.9329785 0.313662 -0 0.9495347 0.2667458 -0 0.9637669 0.2667458 0 0.9637669 0.2190942 -0 0.9757037 0.2190942 0 0.9757037 0.1709869 -0 0.9852733 0.1709869 0 0.9852733 0.07352243 -0 0.9972936 0.1224084 -0 0.9924799 0.1224084 0 0.9924799 0.02455918 -0 0.9996984 0.07352243 -0 0.9972936 0.02455918 -0 0.9996984 0.02455918 0 -0.9996984 0.07352243 0 -0.9972936 0.02455918 0 -0.9996984 0.1224084 0 -0.9924799 0.07352243 0 -0.9972936 0.1709869 0 -0.9852733 0.1224084 0 -0.9924799 0.2190942 0 -0.9757037 0.1709869 0 -0.9852733 0.2667458 0 -0.9637669 0.2190942 0 -0.9757037 0.313662 0 -0.9495347 0.2667458 0 -0.9637669 0.359932 0 -0.9329785 0.313662 0 -0.9495347 0.4052297 0 -0.914215 0.359932 0 -0.9329785 0.4052297 0 -0.914215 0.4496057 0 -0.8932271 0.4496057 0 -0.8932271 0.4929047 0 -0.8700833 0.4929047 0 -0.8700833 0.5349781 0 -0.8448659 0.5758072 0 -0.8175855 0.5349781 0 -0.8448659 0.5758072 0 -0.8175855 0.6152473 0 -0.7883342 0.6152473 0 -0.7883342 0.6531563 0 -0.757223 0.6895232 0 -0.7242636 0.6531563 0 -0.757223 0.6895232 0 -0.7242636 0.7242636 0 -0.6895232 0.7242636 0 -0.6895232 0.757223 0 -0.6531563 0.7883342 0 -0.6152473 0.757223 0 -0.6531563 0.7883342 0 -0.6152473 0.8175855 0 -0.5758072 0.8175855 0 -0.5758072 0.8448659 0 -0.5349781 0.8700833 0 -0.4929047 0.8448659 0 -0.5349781 0.8700833 0 -0.4929047 0.8932271 0 -0.4496057 0.8932271 0 -0.4496057 0.9329785 0 -0.359932 0.914215 0 -0.4052297 0.914215 0 -0.4052297 0.9495347 0 -0.313662 0.9329785 0 -0.359932 0.9495347 0 -0.313662 0.9637669 0 -0.2667458 0.9637669 0 -0.2667458 0.9757037 0 -0.2190942 0.9757037 0 -0.2190942 0.9852733 0 -0.1709869 0.9852733 0 -0.1709869 0.9972936 0 -0.07352243 0.9924799 0 -0.1224084 0.9924799 0 -0.1224084 0.9972936 0 -0.07352243 0.9996984 0 -0.02455918 0.9996984 0 -0.02455918 0 1 0 0 1 0 0 1 0 0 1 0 0 1 0 0 1 0 0 1 0 0 1 0 0 1 0 0 1 0 0 1 0 0 1 0 0 1 0 0 1 0 0 1 0 0 1 0 0 1 0 0 1 0 0 1 0 0 1 0 0 1 0 0 1 0 0 1 0 0 1 0 0 1 0 0 1 0 0 1 0 0 1 0 0 1 0 0 1 0 0 1 0 0 1 0 0 1 0 0 1 0 0 1 0 0 1 0 0 1 0 0 1 0 0 1 0 0 1 0 0 1 0 0 1 0 0 1 0 0 1 0 0 1 0 0 1 0 0 1 0 0 1 0 0 1 0 0 1 0 0 1 0 0 1 0 0 1 0 0 1 0 0 1 0 0 1 0 0 1 0 0 1 0 0 1 0 0 1 0 0 1 0 0 1 0 0 1 0 0 1 -0 0 1 0 0 1 0 0 1 0 0 1 0 0 1 0 0 1 0 0 1 0 0 1 0 0 1 0 0 1 0 0 1 0 0 1 0 0 1 0 0 1 0 0 1 0 0 1 0 0 1 0 0 1 0 0 1 0 0 1 0 0 1 0 0 1 0 0 1 0 0 1 0 0 1 0 0 1 0 0 1 0 0 1 0 0 1 0 0 1 0 0 1 0 0 1 0 0 1 0 0 1 -0 0 1 -0 0 1 0 0 1 0 0 1 0 0 1 0 0 1 0 0 1 0 0 1 0 0 1 0 0 1 0 0 1 0 0 1 0 0 1 0 0 1 0 0 1 -0 0 1 0 0 1 0 0 1 0 0 1 0 0 1 0 0 1 0 0 1 0 0 1 0 0 1 0 0 1 0 0 1 0 0 1 0 0 1 0 0 1 -0 0 1 0 0 1 0 0 1 0 1 0 0 1 0 0 0 -1 0 0 -1 0 0 -1 0 0 -1 0 0 -1 0 0 -1 0 0 -1 0 0 -1 0 0 -1 0 0 -1 0 0 -1 0 0 -1 0 0 -1 0 0 -1 0 0 -1 0 0 -1 0 0 -1 0 0 -1 0 0 -1 0 0 -1 0 0 -1 0 0 -1 0 0 -1 0 0 -1 0 0 -1 0 0 -1 0 0 -1 0 0 -1 0 0 -1 0 0 -1 0 0 -1 0 0 -1 0 0 -1 0 0 -1 0 0 -1 0 0 -1 0 0 -1 0 0 -1 0 0 -1 0 0 -1 0 0 -1 0 0 -1 0 0 -1 0 0 -1 0 0 -1 0 0 -1 0 0 -1 0 0 -1 0 0 -1 0 0 -1 0 0 -1 0 0 -1 0 0 -1 0 0 -1 0 0 -1 0 0 -1 0 0 -1 0 0 -1 0 0 -1 0 0 -1 0 0 -1 0 0 -1 0 0 -1 0 0 -1 0 -0 -1 0 0 -1 0 0 -1 0 0 -1 0 0 -1 0 0 -1 0 0 -1 0 0 -1 0 0 -1 0 0 -1 0 0 -1 0 0 -1 0 0 -1 0 0 -1 0 0 -1 0 0 -1 0 0 -1 0 0 -1 0 0 -1 0 0 -1 0 0 -1 0 0 -1 0 0 -1 0 0 -1 0 0 -1 0 0 -1 0 0 -1 0 0 -1 0 0 -1 0 0 -1 0 0 -1 0 0 -1 0 0 -1 0 0 -1 0 -0 -1 0 0 -1 0 0 -1 0 0 -1 0 0 -1 0 0 -1 0 0 -1 0 0 -1 0 0 -1 0 0 -1 0 0 -1 0 0 -1 0 0 -1 0 0 -1 0 0 -1 0 0 -1 0 0 -1 0 0 -1 0 0 -1 0 0 -1 0 0 -1 0 0 -1 0 0 -1 0 0 -1 0 -0 -1 0 0 -1 0 0 -1 0 -0 -1 0 0 -1 0 0 -1 0 -0 -1 0 0 -1 0 -1 0 0 -1 -0 -0 0 0 -1 0 0 -1 0 0 -1 0 0 -1 0 0 -1 0 0 -1 0 0 -1 0 0 -1 0 0 -1 0 0 -1 0 0 1 0 0 1 0.1961161 -0 0.9805806 0.1961161 0 0.9805806 -0.1961161 -1.508347e-08 0.9805807 -0.1961449 0 0.9805749 -0.1961448 0 0.9805748 -0.1961448 0 0.9805748 -0.196116 0 0.9805807 -0.1961159 0 0.9805807 -0.1961159 0 0.9805807 -0.1961159 0 0.9805807 -0.1961449 0 0.9805749 -0.1961161 7.763901e-07 0.9805807 0 0 -1 0 0 -1 -1 -0 0 -1 -0 -0 -1 -0 0 -1 0 -0 -1 0 0 -1 0 0 -1 -0 0 -1 0 -0 -1 0 0 -1 0 0 0 0 1 0 0 1 1 0 0 1 0 0 0 1 0 0 1 0 0 1 -0 0 1 0 0 -1 0 -0 -1 0 0 -1 0 0 -1 0</float_array>
          <technique_common>
            <accessor count="640" source="#cubenormals-array0-array" stride="3">
              <param type="float" name="X" />
              <param type="float" name="Y" />
              <param type="float" name="Z" />
            </accessor>
          </technique_common>
        </source>
        <vertices id="cubeverts-array0-vertices">
          <input semantic="POSITION" source="#cubeverts-array0" />
        </vertices>
        <triangles count="640" material="ref_Part__Feature">
          <input offset="0" semantic="VERTEX" source="#cubeverts-array0-vertices" />
          <input offset="1" semantic="NORMAL" source="#cubenormals-array0" />
          <p>0 0 1 0 2 0 3 1 0 1 2 1 0 2 4 2 1 2 5 3 4 3 0 3 5 4 6 4 7 4 5 5 7 5 4 5 7 6 8 6 9 6 7 7 6 7 8 7 10 8 11 8 12 8 10 9 12 9 13 9 11 10 14 10 15 10 11 11 10 11 14 11 15 12 16 12 17 12 15 13 14 13 16 13 18 14 19 14 17 14 18 15 17 15 16 15 11 16 1 16 4 16 15 17 1 17 11 17 2 18 1 18 15 18 20 19 11 19 4 19 12 20 11 20 20 20 17 21 19 21 2 21 17 22 2 22 15 22 7 23 20 23 4 23 9 24 20 24 7 24 14 25 5 25 0 25 14 26 10 26 5 26 3 27 14 27 0 27 21 28 5 28 10 28 13 29 21 29 10 29 16 30 3 30 18 30 16 31 14 31 3 31 6 32 5 32 21 32 8 33 6 33 21 33 22 34 23 34 24 34 25 35 22 35 24 35 26 36 27 36 23 36 26 37 23 37 22 37 26 38 28 38 29 38 26 39 29 39 27 39 29 40 30 40 31 40 29 41 28 41 30 41 32 42 33 42 34 42 32 43 34 43 35 43 33 44 36 44 37 44 33 45 32 45 36 45 37 46 38 46 39 46 37 47 36 47 38 47 40 48 41 48 39 48 40 49 39 49 38 49 33 50 23 50 27 50 37 51 23 51 33 51 24 52 23 52 37 52 42 53 33 53 27 53 34 54 33 54 42 54 39 55 41 55 24 55 39 56 24 56 37 56 29 57 42 57 27 57 31 58 42 58 29 58 36 59 26 59 22 59 36 60 32 60 26 60 25 61 36 61 22 61 43 62 26 62 32 62 35 63 43 63 32 63 38 64 25 64 40 64 38 65 36 65 25 65 28 66 26 66 43 66 30 67 28 67 43 67 44 68 3 68 2 68 44 69 2 69 45 69 46 70 47 70 25 70 46 71 25 71 24 71 46 72 24 72 3 72 46 73 44 73 48 73 46 74 3 74 44 74 49 75 48 75 50 75 49 76 46 76 48 76 51 77 50 77 52 77 51 78 49 78 50 78 53 79 52 79 54 79 53 80 51 80 52 80 55 81 54 81 56 81 55 82 53 82 54 82 57 83 55 83 56 83 57 84 56 84 58 84 59 85 57 85 58 85 59 86 58 86 60 86 61 87 59 87 60 87 61 88 60 88 62 88 63 89 61 89 62 89 63 90 62 90 64 90 65 91 63 91 64 91 65 92 64 92 66 92 67 93 65 93 66 93 68 94 67 94 66 94 68 95 69 95 70 95 68 96 66 96 69 96 71 97 68 97 70 97 71 98 70 98 72 98 73 99 71 99 72 99 74 100 73 100 72 100 74 101 75 101 76 101 74 102 72 102 75 102 77 103 74 103 76 103 78 104 77 104 76 104 78 105 76 105 79 105 80 106 81 106 82 106 80 107 79 107 81 107 80 108 78 108 79 108 83 109 80 109 82 109 84 110 82 110 85 110 84 111 83 111 82 111 86 112 87 112 88 112 86 113 85 113 87 113 86 114 84 114 85 114 89 115 86 115 88 115 90 116 88 116 91 116 90 117 89 117 88 117 92 118 90 118 91 118 92 119 93 119 94 119 92 120 91 120 93 120 95 121 94 121 96 121 95 122 92 122 94 122 97 123 95 123 96 123 98 124 96 124 99 124 98 125 97 125 96 125 100 126 99 126 101 126 100 127 98 127 99 127 102 128 101 128 103 128 102 129 100 129 101 129 104 130 102 130 103 130 104 131 105 131 106 131 104 132 103 132 105 132 107 133 104 133 106 133 108 134 107 134 106 134 108 135 106 135 109 135 110 136 111 136 112 136 113 137 112 137 114 137 113 138 110 138 112 138 115 139 114 139 116 139 115 140 113 140 114 140 117 141 116 141 118 141 117 142 115 142 116 142 119 143 118 143 120 143 119 144 117 144 118 144 121 145 120 145 122 145 121 146 119 146 120 146 123 147 122 147 124 147 123 148 121 148 122 148 125 149 124 149 126 149 125 150 123 150 124 150 127 151 126 151 128 151 127 152 125 152 126 152 129 153 127 153 128 153 129 154 128 154 130 154 131 155 129 155 130 155 131 156 130 156 132 156 133 157 131 157 132 157 134 158 133 158 132 158 134 159 135 159 136 159 134 160 132 160 135 160 137 161 134 161 136 161 137 162 136 162 138 162 139 163 137 163 138 163 140 164 141 164 142 164 140 165 138 165 141 165 140 166 139 166 138 166 143 167 140 167 142 167 144 168 142 168 145 168 144 169 143 169 142 169 146 170 147 170 148 170 146 171 145 171 147 171 146 172 144 172 145 172 149 173 146 173 148 173 150 174 148 174 151 174 150 175 149 175 148 175 152 176 153 176 154 176 152 177 151 177 153 177 152 178 150 178 151 178 155 179 152 179 154 179 156 180 154 180 157 180 156 181 155 181 154 181 158 182 159 182 160 182 158 183 157 183 159 183 158 184 156 184 157 184 161 185 160 185 162 185 161 186 158 186 160 186 163 187 161 187 162 187 164 188 162 188 165 188 164 189 163 189 162 189 166 190 165 190 167 190 166 191 164 191 165 191 168 192 167 192 169 192 168 193 166 193 167 193 170 194 171 194 172 194 170 195 169 195 171 195 170 196 168 196 169 196 173 197 172 197 174 197 173 198 170 198 172 198 175 199 173 199 174 199 176 200 177 200 178 200 179 201 178 201 180 201 179 202 176 202 178 202 181 203 180 203 182 203 181 204 179 204 180 204 183 205 182 205 184 205 183 206 181 206 182 206 185 207 184 207 186 207 185 208 183 208 184 208 187 209 186 209 188 209 187 210 185 210 186 210 189 211 188 211 190 211 189 212 187 212 188 212 191 213 190 213 192 213 191 214 189 214 190 214 193 215 192 215 194 215 193 216 191 216 192 216 195 217 193 217 194 217 195 218 194 218 196 218 197 219 195 219 196 219 197 220 196 220 198 220 199 221 197 221 198 221 200 222 199 222 198 222 200 223 201 223 202 223 200 224 198 224 201 224 203 225 200 225 202 225 203 226 202 226 204 226 205 227 203 227 204 227 206 228 207 228 208 228 206 229 204 229 207 229 206 230 205 230 204 230 209 231 206 231 208 231 210 232 208 232 211 232 210 233 209 233 208 233 212 234 213 234 214 234 212 235 211 235 213 235 212 236 210 236 211 236 215 237 212 237 214 237 216 238 214 238 217 238 216 239 215 239 214 239 218 240 219 240 220 240 218 241 217 241 219 241 218 242 216 242 217 242 221 243 218 243 220 243 222 244 220 244 223 244 222 245 221 245 220 245 224 246 225 246 226 246 224 247 223 247 225 247 224 248 222 248 223 248 227 249 226 249 228 249 227 250 224 250 226 250 229 251 227 251 228 251 230 252 228 252 231 252 230 253 229 253 228 253 232 254 231 254 233 254 232 255 230 255 231 255 234 256 233 256 235 256 234 257 232 257 233 257 236 258 237 258 238 258 236 259 235 259 237 259 236 260 234 260 235 260 239 261 238 261 240 261 239 262 236 262 238 262 241 263 239 263 240 263 242 264 243 264 244 264 245 265 244 265 246 265 245 266 242 266 244 266 247 267 246 267 248 267 247 268 245 268 246 268 249 269 248 269 250 269 249 270 247 270 248 270 251 271 250 271 252 271 251 272 249 272 250 272 253 273 252 273 254 273 253 274 251 274 252 274 255 275 254 275 256 275 255 276 253 276 254 276 257 277 256 277 258 277 257 278 255 278 256 278 259 279 258 279 260 279 259 280 257 280 258 280 261 281 259 281 260 281 261 282 260 282 262 282 263 283 261 283 262 283 263 284 262 284 264 284 265 285 263 285 264 285 266 286 265 286 264 286 266 287 267 287 268 287 266 288 264 288 267 288 269 289 266 289 268 289 269 290 268 290 270 290 271 291 269 291 270 291 272 292 271 292 270 292 272 293 273 293 274 293 272 294 270 294 273 294 275 295 272 295 274 295 276 296 275 296 274 296 276 297 274 297 277 297 278 298 276 298 277 298 278 299 279 299 280 299 278 300 277 300 279 300 281 301 278 301 280 301 282 302 280 302 283 302 282 303 281 303 280 303 284 304 282 304 283 304 284 305 285 305 286 305 284 306 283 306 285 306 287 307 284 307 286 307 288 308 286 308 289 308 288 309 287 309 286 309 290 310 291 310 292 310 290 311 289 311 291 311 290 312 288 312 289 312 293 313 292 313 294 313 293 314 290 314 292 314 295 315 293 315 294 315 296 316 294 316 297 316 296 317 295 317 294 317 298 318 297 318 299 318 298 319 296 319 297 319 300 320 299 320 301 320 300 321 298 321 299 321 302 322 303 322 304 322 302 323 301 323 303 323 302 324 300 324 301 324 305 325 302 325 304 325 306 326 304 326 307 326 306 327 305 327 304 327 139 328 140 328 143 328 149 329 144 329 146 329 134 330 137 330 139 330 150 331 144 331 149 331 156 332 133 332 134 332 156 333 143 333 144 333 156 334 150 334 152 334 156 335 152 335 155 335 156 336 139 336 143 336 156 337 134 337 139 337 156 338 144 338 150 338 125 339 127 339 129 339 123 340 129 340 131 340 123 341 131 341 133 341 123 342 125 342 129 342 164 343 156 343 158 343 164 344 158 344 161 344 164 345 161 345 163 345 168 346 164 346 166 346 170 347 164 347 168 347 170 348 133 348 156 348 170 349 156 349 164 349 110 350 113 350 115 350 110 351 115 351 117 351 110 352 117 352 119 352 110 353 119 353 121 353 175 354 121 354 123 354 175 355 170 355 173 355 175 356 123 356 133 356 175 357 133 357 170 357 175 358 110 358 121 358 108 359 110 359 175 359 104 360 107 360 108 360 102 361 104 361 108 361 97 362 98 362 100 362 97 363 100 363 102 363 95 364 97 364 102 364 92 365 102 365 108 365 92 366 95 366 102 366 86 367 92 367 108 367 86 368 89 368 90 368 86 369 90 369 92 369 80 370 83 370 84 370 80 371 84 371 86 371 77 372 80 372 86 372 77 373 78 373 80 373 74 374 77 374 86 374 73 375 74 375 86 375 67 376 68 376 71 376 65 377 67 377 71 377 65 378 71 378 73 378 59 379 61 379 63 379 57 380 86 380 108 380 57 381 73 381 86 381 57 382 59 382 63 382 57 383 63 383 65 383 57 384 65 384 73 384 53 385 55 385 57 385 46 386 49 386 51 386 46 387 51 387 53 387 47 388 57 388 108 388 47 389 53 389 57 389 47 390 46 390 53 390 47 391 108 391 175 391 240 392 47 392 175 392 237 393 240 393 238 393 233 394 237 394 235 394 228 395 233 395 231 395 228 396 237 396 233 396 225 397 228 397 226 397 225 398 240 398 237 398 225 399 237 399 228 399 223 400 240 400 225 400 217 401 223 401 220 401 217 402 220 402 219 402 217 403 240 403 223 403 214 404 240 404 217 404 213 405 240 405 214 405 207 406 213 406 211 406 207 407 211 407 208 407 202 408 207 408 204 408 202 409 240 409 213 409 202 410 213 410 207 410 196 411 240 411 202 411 196 412 202 412 201 412 196 413 201 413 198 413 192 414 196 414 194 414 188 415 192 415 190 415 186 416 192 416 188 416 184 417 192 417 186 417 182 418 240 418 196 418 182 419 196 419 192 419 182 420 192 420 184 420 178 421 182 421 180 421 177 422 240 422 182 422 177 423 182 423 178 423 243 424 240 424 177 424 243 425 47 425 240 425 307 426 243 426 177 426 246 427 244 427 243 427 303 428 307 428 304 428 248 429 246 429 243 429 299 430 303 430 301 430 299 431 307 431 303 431 252 432 248 432 243 432 252 433 250 433 248 433 294 434 299 434 297 434 254 435 252 435 243 435 292 436 299 436 294 436 291 437 307 437 299 437 291 438 299 438 292 438 289 439 307 439 291 439 260 440 243 440 307 440 260 441 254 441 243 441 260 442 258 442 256 442 260 443 256 443 254 443 286 444 307 444 289 444 264 445 262 445 260 445 280 446 285 446 283 446 270 447 268 447 267 447 270 448 267 448 264 448 279 449 286 449 285 449 279 450 307 450 286 450 279 451 285 451 280 451 274 452 279 452 277 452 274 453 273 453 270 453 274 454 260 454 307 454 274 455 264 455 260 455 274 456 270 456 264 456 274 457 307 457 279 457 177 458 176 458 306 458 177 459 306 459 307 459 138 460 142 460 141 460 136 461 145 461 142 461 136 462 142 462 138 462 151 463 148 463 147 463 151 464 147 464 145 464 132 465 136 465 135 465 154 466 153 466 151 466 130 467 136 467 132 467 159 468 157 468 154 468 159 469 145 469 136 469 159 470 151 470 145 470 159 471 154 471 151 471 124 472 130 472 128 472 124 473 128 473 126 473 162 474 160 474 159 474 162 475 159 475 136 475 120 476 124 476 122 476 120 477 130 477 124 477 167 478 165 478 162 478 118 479 130 479 120 479 171 480 169 480 167 480 172 481 171 481 167 481 111 482 118 482 116 482 111 483 116 483 114 483 111 484 114 484 112 484 111 485 130 485 118 485 174 486 136 486 130 486 174 487 167 487 162 487 174 488 162 488 136 488 174 489 172 489 167 489 174 490 130 490 111 490 109 491 174 491 111 491 103 492 109 492 106 492 103 493 106 493 105 493 99 494 103 494 101 494 96 495 109 495 103 495 96 496 103 496 99 496 93 497 96 497 94 497 88 498 96 498 93 498 88 499 93 499 91 499 85 500 88 500 87 500 82 501 109 501 96 501 82 502 96 502 88 502 82 503 88 503 85 503 76 504 81 504 79 504 72 505 81 505 76 505 72 506 82 506 81 506 72 507 76 507 75 507 70 508 109 508 82 508 70 509 82 509 72 509 66 510 109 510 70 510 66 511 70 511 69 511 62 512 109 512 66 512 62 513 66 513 64 513 54 514 62 514 60 514 54 515 60 515 58 515 54 516 58 516 56 516 52 517 109 517 62 517 52 518 62 518 54 518 48 519 52 519 50 519 44 520 52 520 48 520 45 521 109 521 52 521 45 522 52 522 44 522 45 523 174 523 109 523 241 524 174 524 45 524 236 525 239 525 241 525 230 526 232 526 234 526 229 527 234 527 236 527 229 528 230 528 234 528 227 529 229 529 236 529 224 530 227 530 236 530 224 531 236 531 241 531 222 532 224 532 241 532 221 533 222 533 241 533 216 534 218 534 221 534 216 535 221 535 241 535 215 536 216 536 241 536 209 537 210 537 212 537 209 538 212 538 215 538 206 539 215 539 241 539 206 540 209 540 215 540 205 541 206 541 241 541 203 542 205 542 241 542 200 543 203 543 241 543 197 544 199 544 200 544 195 545 197 545 200 545 193 546 200 546 241 546 193 547 195 547 200 547 189 548 191 548 193 548 185 549 187 549 189 549 185 550 189 550 193 550 183 551 185 551 193 551 181 552 193 552 241 552 181 553 183 553 193 553 179 554 181 554 241 554 176 555 179 555 241 555 242 556 176 556 241 556 242 557 241 557 45 557 306 558 176 558 242 558 302 559 305 559 306 559 300 560 302 560 306 560 249 561 242 561 245 561 249 562 245 562 247 562 251 563 242 563 249 563 253 564 242 564 251 564 257 565 253 565 255 565 293 566 295 566 296 566 293 567 296 567 298 567 290 568 300 568 306 568 290 569 293 569 298 569 290 570 298 570 300 570 259 571 242 571 253 571 259 572 253 572 257 572 287 573 288 573 290 573 266 574 259 574 261 574 266 575 261 575 263 575 266 576 263 576 265 576 281 577 282 577 284 577 281 578 284 578 287 578 269 579 259 579 266 579 278 580 287 580 290 580 278 581 281 581 287 581 271 582 306 582 242 582 271 583 242 583 259 583 271 584 259 584 269 584 272 585 306 585 271 585 276 586 290 586 306 586 276 587 278 587 290 587 275 588 306 588 272 588 275 589 276 589 306 589 108 590 109 590 111 590 110 591 108 591 111 591 47 592 243 592 40 592 25 593 47 593 40 593 41 594 40 594 243 594 18 595 41 595 243 595 3 596 24 596 41 596 3 597 41 597 18 597 242 598 19 598 18 598 242 599 18 599 243 599 45 600 2 600 19 600 45 601 19 601 242 601 175 602 174 602 241 602 240 603 175 603 241 603 308 604 309 604 310 604 308 605 310 605 311 605 12 606 312 606 313 606 20 607 312 607 12 607 42 608 21 608 13 608 42 609 13 609 34 609 314 610 13 610 12 610 314 611 12 611 313 611 314 612 34 612 13 612 35 613 34 613 314 613 315 614 43 614 35 614 315 615 35 615 314 615 316 616 317 616 318 616 316 617 318 617 319 617 9 618 316 618 312 618 20 619 9 619 312 619 42 620 8 620 21 620 42 621 31 621 8 621 317 622 31 622 30 622 317 623 8 623 31 623 315 624 30 624 43 624 315 625 317 625 30 625 317 626 316 626 9 626 317 627 9 627 8 627 314 628 313 628 311 628 310 629 314 629 311 629 309 630 319 630 318 630 309 631 308 631 319 631 317 632 315 632 314 632 318 633 314 633 310 633 318 634 310 634 309 634 318 635 317 635 314 635 316 636 313 636 312 636 311 637 313 637 316 637 319 638 308 638 311 638 319 639 311 639 316 639</p>
        </triangles>
      </mesh>
    </geometry>
  </library_geometries>
  <library_materials>
    <material id="mat_Part__Feature" name="Part__Feature">
      <instance_effect url="#effect_Part__Feature" />
    </material>
  </library_materials>
  <library_visual_scenes>
    <visual_scene id="myscene">
      <node id="node0" name="node0">
        <instance_geometry url="#geometry0">
          <bind_material>
            <technique_common>
              <instance_material symbol="ref_Part__Feature" target="#mat_Part__Feature" />
            </technique_common>
          </bind_material>
        </instance_geometry>
      </node>
    </visual_scene>
  </library_visual_scenes>
  <scene>
    <instance_visual_scene url="#myscene" />
  </scene>
</COLLADA>
