<COLLADA xmlns="http://www.collada.org/2005/11/COLLADASchema" version="1.4.1">
  <asset>
    <contributor />
    <created>2023-12-26T18:20:33.783759</created>
    <modified>2023-12-26T18:20:33.783759</modified>
    <unit name="meter" meter="1.0" />
    <up_axis>Z_UP</up_axis>
  </asset>
  <library_effects>
    <effect id="effect_Part__Feature" name="effect_Part__Feature">
      <profile_COMMON>
        <technique sid="common">
          <phong>
            <emission>
              <color>0.0 0.0 0.0 1.0</color>
            </emission>
            <ambient>
              <color>0.0 0.0 0.0 1.0</color>
            </ambient>
            <diffuse>
              <color>1.0 1.0 1.0 1.0</color>
            </diffuse>
            <specular>
              <color>1 1 1 1.0</color>
            </specular>
            <shininess>
              <float>0.0</float>
            </shininess>
            <reflective>
              <color>0.0 0.0 0.0 1.0</color>
            </reflective>
            <reflectivity>
              <float>0.0</float>
            </reflectivity>
            <transparent>
              <color>0.0 0.0 0.0 1.0</color>
            </transparent>
            <transparency>
              <float>1.0</float>
            </transparency>
          </phong>
        </technique>
        <extra>
          <technique profile="GOOGLEEARTH">
            <double_sided>0</double_sided>
          </technique>
        </extra>
      </profile_COMMON>
    </effect>
    <effect id="effect_Part__Feature001" name="effect_Part__Feature001">
      <profile_COMMON>
        <technique sid="common">
          <phong>
            <emission>
              <color>0.0 0.0 0.0 1.0</color>
            </emission>
            <ambient>
              <color>0.0 0.0 0.0 1.0</color>
            </ambient>
            <diffuse>
              <color>1.0 1.0 1.0 1.0</color>
            </diffuse>
            <specular>
              <color>1 1 1 1.0</color>
            </specular>
            <shininess>
              <float>0.0</float>
            </shininess>
            <reflective>
              <color>0.0 0.0 0.0 1.0</color>
            </reflective>
            <reflectivity>
              <float>0.0</float>
            </reflectivity>
            <transparent>
              <color>0.0 0.0 0.0 1.0</color>
            </transparent>
            <transparency>
              <float>1.0</float>
            </transparency>
          </phong>
        </technique>
        <extra>
          <technique profile="GOOGLEEARTH">
            <double_sided>0</double_sided>
          </technique>
        </extra>
      </profile_COMMON>
    </effect>
  </library_effects>
  <library_geometries>
    <geometry id="geometry0" name="Part__Feature">
      <mesh>
        <source id="cubeverts-array0">
          <float_array count="732" id="cubeverts-array0-array">0.35 0.03 0.2925 0.35 0.03 0.3475 0.3499804 0.02891722 0.347484 0.3499639 0.02852797 0.2925 0.3499217 0.02783425 0.3474358 0.3498555 0.02705949 0.2925 0.3498237 0.02675252 0.3473553 0.3496753 0.02559809 0.2925 0.3496864 0.02567346 0.3472428 0.3495097 0.02459851 0.347098 0.3494236 0.02414729 0.2925 0.3492938 0.02352911 0.3469211 0.349101 0.02271059 0.2925 0.3490486 0.02250498 0.3467201 0.3487694 0.02149587 0.3464911 0.3487082 0.02129146 0.2925 0.3484538 0.020493 0.3462322 0.3482463 0.0198933 0.2925 0.3481017 0.01949774 0.3459436 0.3477164 0.0185195 0.2925 0.347713 0.01851146 0.3456251 0.3472881 0.01753558 0.3452767 0.3471197 0.01717335 0.2925 0.3468489 0.01661592 0.3449167 0.3464576 0.0158581 0.2925 0.346392 0.01573604 0.3445421 0.3459028 0.0148658 0.344141 0.3457319 0.01457692 0.2925 0.3453813 0.01400649 0.3437133 0.3449441 0.01333289 0.2925 0.3448273 0.01315945 0.3432593 0.3442411 0.01232601 0.3427788 0.3440962 0.01212902 0.2925 0.3436469 0.01153861 0.3422917 0.3431903 0.0109682 0.2925 0.3430612 0.0108119 0.3418114 0.3424467 0.01009666 0.3413076 0.3422285 0.009853231 0.2925 0.3418036 0.009394165 0.3407804 0.3412132 0.008786797 0.2925 0.3411318 0.008705744 0.3402297 0.3404313 0.008032741 0.3396555 0.3401468 0.007771466 0.2925 0.339718 0.007390267 0.3390708 0.3390318 0.006809686 0.2925 0.3388163 0.006634493 0.3383315 0.337871 0.005903774 0.2925 0.3377454 0.005811168 0.3374534 0.3369724 0.005262633 0.3368197 0.3366671 0.005055912 0.2925 0.3360989 0.004685484 0.3361037 0.3354231 0.004268142 0.2925 0.335203 0.004137492 0.3353693 0.3341419 0.003542362 0.2925 0.3341067 0.003523553 0.3344704 0.3327995 0.002867486 0.3333987 0.3328267 0.002880321 0.2925 0.3314805 0.002283614 0.2925 0.3314138 0.002256079 0.3322628 0.3301067 0.001753678 0.2925 0.3300236 0.001724069 0.3311232 0.3287372 0.001300473 0.3300683 0.3287085 0.00129179 0.2925 0.3273487 0.0009139839 0.32893 0.3272894 0.0008990624 0.2925 0.3258581 0.0005775113 0.3277083 0.3258527 0.0005764416 0.2925 0.3244496 0.0003318056 0.3265536 0.3244019 0.0003247047 0.2925 0.3229981 0.0001501879 0.3253637 0.3229405 0.0001444582 0.2925 0.3217551 5.061553e-05 0.3243447 0.321472 3.613631e-05 0.2925 0.3209545 1.462389e-05 0.3236884 0.32 0 0.2925 0.32 0 0.3229059 0.3 0.03 0.3575 0.2999969 0.02863499 0.3574689 0.299992 0.0278035 0.3574195 0.2999848 0.02697364 0.357347 0.2999729 0.02595657 0.3572263 0.2999554 0.02481814 0.3570491 0.2999335 0.02368746 0.3568283 0.2999073 0.02256616 0.3565644 0.299877 0.02145592 0.3562576 0.2998424 0.02035838 0.3559084 0.2998037 0.01927518 0.3555175 0.2997609 0.01820792 0.3550853 0.2997141 0.01715817 0.3546125 0.2996633 0.01612749 0.3540999 0.2996087 0.01511738 0.3535482 0.2995503 0.01412933 0.3529582 0.2994882 0.0131648 0.3523309 0.2994225 0.01222519 0.3516672 0.2993532 0.01131188 0.3509681 0.2992806 0.01042619 0.3502347 0.2992047 0.009569426 0.349468 0.2991256 0.008742816 0.3486691 0.2990434 0.007947567 0.3478394 0.2989583 0.007184819 0.3469799 0.2988704 0.006455678 0.3460921 0.2987798 0.005761189 0.3451771 0.2986866 0.005102352 0.3442364 0.2985911 0.004480105 0.3432713 0.2984933 0.003895342 0.3422833 0.2983933 0.003348895 0.3412738 0.2982914 0.00284154 0.3402443 0.2981876 0.002374002 0.3391963 0.2980821 0.001946939 0.3381313 0.2979752 0.001560961 0.337051 0.2978668 0.001216606 0.3359567 0.2977572 0.0009143695 0.3348502 0.2976466 0.0006546696 0.3337331 0.2975351 0.0004378796 0.332607 0.2974229 0.0002642938 0.3314734 0.29731 0.0001341645 0.330334 0.2971968 4.768173e-05 0.3291907 0.2971132 1.192262e-05 0.3283457 0.2970294 0 0.3275 -0.3 0.03 0.3575 -0.2999969 0.02863499 0.3574689 -0.299992 0.0278035 0.3574195 -0.2999848 0.02697364 0.357347 -0.2999729 0.02595657 0.3572263 -0.2999554 0.02481814 0.3570491 -0.2999335 0.02368746 0.3568283 -0.2999073 0.02256616 0.3565644 -0.299877 0.02145592 0.3562576 -0.2998424 0.02035838 0.3559084 -0.2998037 0.01927518 0.3555175 -0.2997609 0.01820792 0.3550853 -0.2997141 0.01715817 0.3546125 -0.2996633 0.01612749 0.3540999 -0.2996087 0.01511738 0.3535482 -0.2995503 0.01412933 0.3529582 -0.2994882 0.0131648 0.3523309 -0.2994225 0.01222519 0.3516672 -0.2993532 0.01131188 0.3509681 -0.2992806 0.01042619 0.3502347 -0.2992047 0.009569426 0.349468 -0.2991256 0.008742816 0.3486691 -0.2990434 0.007947567 0.3478394 -0.2989583 0.007184819 0.3469799 -0.2988704 0.006455678 0.3460921 -0.2987798 0.005761189 0.3451771 -0.2986866 0.005102352 0.3442364 -0.2985911 0.004480105 0.3432713 -0.2984933 0.003895342 0.3422833 -0.2983933 0.003348895 0.3412738 -0.2982914 0.00284154 0.3402443 -0.2981876 0.002374002 0.3391963 -0.2980821 0.001946939 0.3381313 -0.2979752 0.001560961 0.337051 -0.2978668 0.001216606 0.3359567 -0.2977572 0.0009143695 0.3348502 -0.2976466 0.0006546696 0.3337331 -0.2975351 0.0004378796 0.332607 -0.2974229 0.0002642938 0.3314734 -0.29731 0.0001341645 0.330334 -0.2971968 4.768173e-05 0.3291907 -0.2971132 1.192262e-05 0.3283457 -0.2970294 0 0.3275 -0.35 0.03 0.3475 -0.3499804 0.02891704 0.347484 -0.3499216 0.027834 0.3474358 -0.3498235 0.02675231 0.3473555 -0.3496862 0.0256734 0.3472429 -0.3495097 0.0245987 0.3470981 -0.3492939 0.02352966 0.3469212 -0.3490487 0.02250549 0.3467202 -0.3487694 0.02149632 0.3464913 -0.3484537 0.02049348 0.3462326 -0.3481017 0.01949832 0.3459439 -0.3477133 0.01851223 0.3456254 -0.3472885 0.01753659 0.3452771 -0.3468494 0.01661688 0.3449171 -0.3463924 0.01573693 0.3445426 -0.3459032 0.01486669 0.3441416 -0.3453817 0.01400745 0.3437141 -0.344828 0.01316054 0.34326 -0.344242 0.01232728 0.3427796 -0.3436478 0.01153977 0.3422924 -0.3430619 0.01081283 0.3418121 -0.3424474 0.01009749 0.3413084 -0.3418043 0.009395027 0.3407813 -0.3411328 0.008706746 0.3402307 -0.3404327 0.008033984 0.3396567 -0.3397195 0.00739153 0.339072 -0.3388174 0.00663541 0.3383325 -0.3377464 0.005811985 0.3374546 -0.3369735 0.005263485 0.336821 -0.3361006 0.00468655 0.3361052 -0.3352049 0.004138608 0.3353709 -0.3341077 0.003524158 0.3344715 -0.3328003 0.002867977 0.3333998 -0.3314156 0.002256828 0.3322645 -0.3300254 0.001724729 0.3311248 -0.3287375 0.001300679 0.3300692 -0.3273493 0.0009142137 0.3289312 -0.3258607 0.0005780317 0.3277105 -0.3244499 0.0003318601 0.326554 -0.3230004 0.0001504192 0.3253656 -0.3217517 5.046593e-05 0.3243419 -0.3209507 1.453724e-05 0.3236852 -0.32 0 0.3229059 -0.35 0.03 0.2925 -0.3499639 0.02852797 0.2925 -0.3498555 0.02705949 0.2925 -0.3496753 0.02559809 0.2925 -0.3494236 0.02414729 0.2925 -0.349101 0.02271059 0.2925 -0.3487082 0.02129146 0.2925 -0.3482463 0.0198933 0.2925 -0.3477164 0.0185195 0.2925 -0.3471197 0.01717335 0.2925 -0.3464576 0.0158581 0.2925 -0.3457319 0.01457692 0.2925 -0.3449441 0.01333289 0.2925 -0.3440962 0.01212902 0.2925 -0.3431903 0.0109682 0.2925 -0.3422285 0.009853231 0.2925 -0.3412132 0.008786797 0.2925 -0.3401468 0.007771466 0.2925 -0.3390318 0.006809686 0.2925 -0.337871 0.005903774 0.2925 -0.3366671 0.005055912 0.2925 -0.3354231 0.004268142 0.2925 -0.3341419 0.003542362 0.2925 -0.3328267 0.002880321 0.2925 -0.3314805 0.002283614 0.2925 -0.3301067 0.001753678 0.2925 -0.3287085 0.00129179 0.2925 -0.3272894 0.0008990624 0.2925 -0.3258527 0.0005764416 0.2925 -0.3244019 0.0003247047 0.2925 -0.3229405 0.0001444582 0.2925 -0.321472 3.613631e-05 0.2925 -0.32 0 0.2925 0.35 0.068 0.3475 0.3 0.068 0.3575 -0.35 0.068 0.3475 -0.3 0.068 0.3575 0.35 0.068 0.2925 -0.35 0.068 0.2925</float_array>
          <technique_common>
            <accessor count="244" source="#cubeverts-array0-array" stride="3">
              <param type="float" name="X" />
              <param type="float" name="Y" />
              <param type="float" name="Z" />
            </accessor>
          </technique_common>
        </source>
        <source id="cubenormals-array0">
          <float_array count="1452" id="cubenormals-array0-array">0.9998368 -0.01806328 0 0.9985333 -0.05414156 8.234858e-05 0.9996988 -0.02453884 -0.0001275701 0.995919 -0.090252 7.283829e-05 0.9972897 -0.0735751 -0.000164009 0.991999 -0.1262459 -2.692587e-05 0.9867664 -0.1621484 2.356427e-05 0.9924803 -0.1224041 -0.000109078 0.9802179 -0.1979212 8.842798e-05 0.9852773 -0.1709637 -0.0001423423 0.975705 -0.2190885 -0.0001627744 0.9725166 -0.2328337 5.525843e-05 0.9637865 -0.2666748 -8.149521e-05 0.9637755 -0.2667149 -8.246573e-05 0.9538654 -0.3002344 5.566896e-05 0.9495229 -0.3136976 -0.0001649593 0.9427321 -0.3335507 8.283606e-05 0.9329994 -0.3598779 -0.000138371 0.9303825 -0.3665901 3.353192e-06 0.9168324 -0.3992723 -2.44535e-06 0.914209 -0.4052431 -0.0001350514 0.9023975 -0.4309046 7.87581e-05 0.8932223 -0.4496153 -0.0001676144 0.8874703 -0.4608649 3.796694e-05 0.8717065 -0.4900284 -5.030842e-05 0.8700901 -0.4928927 -0.0001227134 0.8548486 -0.5188774 7.30931e-05 0.8448501 -0.5350029 -0.0001749688 0.8369169 -0.54733 5.488744e-05 0.817946 -0.575295 -8.430798e-05 0.8175825 -0.5758114 -9.973079e-05 0.7982254 -0.6023588 6.005152e-05 0.7883458 -0.6152325 -0.0001817462 0.7785412 -0.6275935 4.977574e-05 0.7585788 -0.6515812 -7.854162e-05 0.757215 -0.6531657 -0.0001276106 0.7375738 -0.6752666 7.042484e-05 0.715673 -0.6984354 3.387673e-05 0.6928304 -0.7211006 -4.354992e-05 0.7242403 -0.6895476 -0.0001827067 0.6692095 -0.7430738 7.856717e-05 0.6895398 -0.7242477 -0.0001484332 0.6423101 -0.7664448 9.0583e-05 0.6531764 -0.7572058 -0.0001847118 0.609482 -0.7927998 6.900437e-05 0.5787448 -0.8155087 -6.362233e-05 0.6152287 -0.7883487 -0.0001204919 0.5512108 -0.834366 9.47152e-05 0.575813 -0.8175814 -0.0001530465 0.5217334 -0.8531086 7.900774e-05 0.5349994 -0.8448524 -0.0002056233 0.488593 -0.8725119 1.932553e-05 0.4485812 -0.8937421 -2.379153e-05 0.4928957 -0.8700884 -0.0001208149 0.449612 -0.893224 1.85946e-05 0.4036526 -0.9149123 4.36685e-05 0.4052386 -0.914211 -1.749363e-05 0.3573647 -0.9339649 5.317053e-05 0.3128065 -0.9498169 -5.488574e-05 0.3598944 -0.9329931 -4.2266e-05 0.2681544 -0.9633759 1.833136e-05 0.3136802 -0.9495286 -1.955775e-05 0.2667139 -0.9637758 -3.958673e-05 0.2201532 -0.9754653 4.102511e-05 0.2191041 -0.9757015 -3.780268e-06 0.1718422 -0.9851245 3.715916e-06 0.1709607 -0.9852778 -3.370879e-05 0.1241336 -0.9922655 3.325517e-05 0.1224111 -0.9924795 -4.14631e-05 0.07982235 -0.9968091 3.391947e-05 0.07356347 -0.9972905 -0.0002004869 0.04486525 -0.998993 5.539819e-05 0.02454147 -0.9996987 -0.0002823267 0.01531923 -0.9998826 0 0.1960842 -0.01804963 0.9804209 0.1959673 -0.02275434 0.9803464 0.195764 -0.05935049 0.9788533 0.1953812 -0.08708453 0.9768533 0.1959007 -0.05421541 0.9791239 0.1946947 -0.1178418 0.9737594 0.1953788 -0.09030034 0.9765618 0.1937055 -0.1537898 0.9689308 0.194623 -0.1262534 0.9727188 0.1924162 -0.1916047 0.9624259 0.1935858 -0.1620996 0.9675993 0.1908447 -0.2291606 0.9544966 0.1922876 -0.1978593 0.9611853 0.1907469 -0.232819 0.9536304 0.1890199 -0.2663219 0.9451689 0.1889861 -0.2667612 0.9450517 0.1868429 -0.3031558 0.9344444 0.1870802 -0.3002968 0.9353196 0.1843968 -0.3395226 0.9223461 0.1849313 -0.333544 0.9244181 0.1816882 -0.3753465 0.9089028 0.1825334 -0.3665501 0.9123172 0.1787143 -0.4106504 0.8941071 0.179891 -0.3992371 0.8990268 0.1754856 -0.4453119 0.8780104 0.1770598 -0.4309033 0.8848572 0.1720112 -0.4793436 0.8606055 0.1741228 -0.4609498 0.8701761 0.1682985 -0.5126726 0.8419278 0.1710202 -0.4901116 0.8547179 0.1643573 -0.5451984 0.8220374 0.167693 -0.5189018 0.8382244 0.1641452 -0.5472642 0.820706 0.1601395 -0.5769406 0.8009338 0.1604138 -0.5752794 0.8020729 0.1556392 -0.6078308 0.7786644 0.1565871 -0.602336 0.7827336 0.1509278 -0.6378212 0.7552516 0.1527425 -0.627657 0.7633587 0.1460281 -0.6668676 0.7307279 0.1488363 -0.6516821 0.743746 0.1409446 -0.6949236 0.7051353 0.1447164 -0.6752703 0.7232338 0.1403801 -0.6984116 0.7017939 0.1356513 -0.721958 0.6785097 0.1358633 -0.7210697 0.6794112 0.130072 -0.7479408 0.6508961 0.1312908 -0.7430437 0.6562383 0.1243672 -0.7728012 0.6223432 0.1260673 -0.7664782 0.6297764 0.1185354 -0.796539 0.5928532 0.1196399 -0.7928567 0.5975488 0.112403 -0.8190951 0.5625378 0.1135257 -0.8155397 0.5674565 0.106149 -0.8404492 0.5313921 0.1082034 -0.8343381 0.5405293 0.1024349 -0.8530996 0.5115938 0.0997468 -0.8605737 0.4994631 0.09595998 -0.872589 0.4789364 0.0932284 -0.8794296 0.4668105 0.08812634 -0.8938313 0.4396583 0.08666513 -0.8969921 0.4334677 0.07993936 -0.9132402 0.3995024 0.07933012 -0.9149382 0.3957207 0.07286905 -0.928158 0.3649833 0.07032707 -0.9340173 0.3502369 0.06581575 -0.9417118 0.3299201 0.0615128 -0.9499033 0.3064308 0.05874094 -0.9538853 0.2943679 0.05274112 -0.9634139 0.2627777 0.05167914 -0.9646613 0.2583757 0.04440866 -0.9740267 0.2220355 0.0433979 -0.9754936 0.2157058 0.03690475 -0.9819729 0.1853843 0.02949173 -0.9884805 0.1484471 0.03395127 -0.9851651 0.168217 0.0221517 -0.9935418 0.1112831 0.02458936 -0.9922913 0.1214639 0.01471561 -0.9971519 0.07397011 0.0157503 -0.9968141 0.07818839 0.008213435 -0.9991062 0.04146574 0.008809329 -0.998991 0.04403795 0.002764546 -0.9999006 0.01382273 0.003039493 -0.9998832 0.01497947 0 -0.02275355 0.9997411 0 -0.05935303 0.998237 0 -0.02275355 0.9997411 0 -0.05935304 0.998237 0 -0.08708015 0.9962013 0 -0.117845 0.993032 0 -0.08708015 0.9962013 0 -0.1537881 0.9881039 0 -0.117845 0.993032 0 -0.1537881 0.9881039 0 -0.1916043 0.9814723 0 -0.1916043 0.9814722 0 -0.2291567 0.9733896 0 -0.2291567 0.9733896 0 -0.2663229 0.9638839 0 -0.2663229 0.9638839 0 -0.3031538 0.9529416 0 -0.3395186 0.9405993 0 -0.3031538 0.9529417 0 -0.3753445 0.9268853 0 -0.3395186 0.9405993 0 -0.4106466 0.9117946 0 -0.3753446 0.9268853 0 -0.4453084 0.8953773 0 -0.4106465 0.9117946 0 -0.4793393 0.8776296 0 -0.4453084 0.8953773 0 -0.4793393 0.8776296 0 -0.5126662 0.858588 0 -0.5126662 0.858588 0 -0.5451975 0.8383076 0 -0.5451976 0.8383076 0 -0.5769399 0.8167866 0 -0.5769399 0.8167866 0 -0.6078244 0.7940714 0 -0.6078244 0.7940714 0 -0.6378148 0.7701898 0 -0.6668643 0.7451792 0 -0.6378148 0.7701898 0 -0.6949196 0.7190874 0 -0.6668643 0.7451792 0 -0.7219536 0.6919414 0 -0.6949196 0.7190874 0 -0.7479373 0.6637693 0 -0.7219536 0.6919414 0 -0.7479374 0.6637694 0 -0.772796 0.6346545 0 -0.772796 0.6346545 0 -0.7965372 0.6045896 0 -0.7965371 0.6045897 0 -0.8190908 0.5736638 0 -0.8190908 0.5736638 0 -0.840444 0.5418985 0 -0.840444 0.5418984 0 -0.8605672 0.5093369 0 -0.8605672 0.509337 0 -0.8794236 0.4760401 0 -0.8794236 0.4760401 0 -0.8969915 0.4420479 0 -0.8969915 0.4420478 0 -0.9132419 0.4074177 0 -0.913242 0.4074177 0 -0.9281533 0.3721981 0 -0.9281533 0.3721981 0 -0.9417068 0.3364345 0 -0.9417068 0.3364345 0 -0.9538813 0.3001841 0 -0.9538813 0.3001841 0 -0.9646614 0.2634926 0 -0.9646614 0.2634926 0 -0.9740267 0.2264332 0 -0.9740266 0.2264332 0 -0.9819698 0.189038 0 -0.9884777 0.1513668 0 -0.9819697 0.189038 0 -0.9935406 0.1134766 0 -0.9884776 0.1513668 0 -0.9971514 0.07542693 0 -0.9935407 0.1134766 0 -0.9991058 0.04227905 0 -0.9971514 0.07542694 0 -0.9999006 0.01409647 0 -0.9991058 0.04227905 0 -0.9999006 0.01409647 -0.1960842 -0.01805216 0.9804209 -0.1959009 -0.054179 0.9791259 -0.1959674 -0.02275464 0.9803464 -0.1957632 -0.05935013 0.9788536 -0.1953778 -0.09022683 0.9765688 -0.1953802 -0.08708456 0.9768535 -0.1946202 -0.1262652 0.9727178 -0.1946921 -0.1178421 0.9737598 -0.1935822 -0.1621736 0.9675875 -0.193703 -0.1537898 0.9689313 -0.192286 -0.1979016 0.9611769 -0.1924154 -0.1916046 0.9624261 -0.1907484 -0.2327828 0.9536389 -0.1889908 -0.26668 0.9450737 -0.1908453 -0.2291603 0.9544966 -0.1870845 -0.3002056 0.935348 -0.1890183 -0.2663216 0.9451692 -0.1849288 -0.3335388 0.9244205 -0.1868397 -0.3031558 0.934445 -0.1825292 -0.3665732 0.9123087 -0.184394 -0.3395226 0.9223466 -0.1798875 -0.3992645 0.8990152 -0.1816864 -0.3753464 0.9089033 -0.1770617 -0.430881 0.8848676 -0.1787138 -0.4106504 0.8941072 -0.1741308 -0.460863 0.8702205 -0.1754855 -0.445312 0.8780103 -0.1710277 -0.4900203 0.8547688 -0.1720099 -0.4793436 0.8606058 -0.1676951 -0.5188559 0.8382523 -0.1682959 -0.5126729 0.8419281 -0.1641418 -0.5472721 0.8207014 -0.1604102 -0.575295 0.8020625 -0.1643546 -0.5451986 0.8220378 -0.15659 -0.6023169 0.7827476 -0.1601386 -0.5769405 0.8009341 -0.1527574 -0.6275619 0.7634338 -0.155639 -0.607831 0.7786643 -0.1488468 -0.651607 0.7438098 -0.1509263 -0.6378212 0.7552518 -0.1447211 -0.6752263 0.7232739 -0.1460256 -0.6668679 0.7307283 -0.1403784 -0.6984065 0.7017993 -0.1358624 -0.7210661 0.6794153 -0.1409418 -0.694924 0.7051355 -0.1312938 -0.7430281 0.6562554 -0.1356496 -0.7219581 0.67851 -0.1260849 -0.7664027 0.6298647 -0.1300715 -0.747941 0.6508961 -0.1196543 -0.792794 0.5976291 -0.124365 -0.7728014 0.6223435 -0.1135271 -0.8155242 0.5674785 -0.1185312 -0.7965393 0.5928536 -0.108204 -0.8343285 0.540544 -0.1123997 -0.8190953 0.5625381 -0.106147 -0.8404493 0.5313923 -0.102439 -0.8530837 0.5116194 -0.0997461 -0.8605738 0.4994633 -0.09597647 -0.8725404 0.4790217 -0.08813987 -0.893792 0.4397354 -0.09322627 -0.8794297 0.4668107 -0.08666091 -0.8969923 0.4334682 -0.07993665 -0.9132403 0.3995026 -0.07932971 -0.9149324 0.3957342 -0.07286801 -0.928158 0.3649835 -0.07033435 -0.9340007 0.3502796 -0.06581501 -0.9417117 0.3299202 -0.06153072 -0.9498721 0.3065241 -0.05873792 -0.9538853 0.2943683 -0.05274697 -0.9634023 0.2628191 -0.05167531 -0.9646612 0.2583761 -0.04440647 -0.9740269 0.2220358 -0.04339901 -0.9754892 0.2157249 -0.03690486 -0.9819728 0.1853842 -0.03396111 -0.9851568 0.1682638 -0.02459709 -0.9922858 0.1215062 -0.02949134 -0.9884805 0.1484471 -0.01574025 -0.9968191 0.07812758 -0.02215034 -0.9935419 0.1112833 -0.008789417 -0.9989957 0.04393683 -0.01471975 -0.9971519 0.07396968 -0.003032752 -0.9998837 0.01495111 -0.008216461 -0.9991062 0.04146543 -0.002764546 -0.9999006 0.01382273 -0.9998364 -0.01808846 0 -0.9996988 -0.02453884 -0.0001270953 -0.9972897 -0.07357509 -0.0001615708 -0.9985274 -0.0542504 8.349815e-05 -0.9924804 -0.1224041 -0.000106233 -0.9959162 -0.09028323 7.56407e-05 -0.9920002 -0.1262356 -2.43158e-05 -0.9852774 -0.1709638 -0.0001406433 -0.9867737 -0.1621039 2.607104e-05 -0.9802268 -0.1978773 8.983825e-05 -0.975705 -0.2190885 -0.0001616646 -0.9725188 -0.2328244 5.636295e-05 -0.9637749 -0.266717 -8.027461e-05 -0.9637755 -0.2667149 -8.022294e-05 -0.9538547 -0.3002687 5.83354e-05 -0.9495229 -0.3136976 -0.0001616127 -0.9427392 -0.3335309 8.61058e-05 -0.9329994 -0.3598779 -0.0001349725 -0.9304285 -0.3664736 4.360821e-06 -0.9168688 -0.3991887 -9.109418e-07 -0.914209 -0.4052431 -0.0001352324 -0.8932223 -0.4496154 -0.0001676718 -0.9024175 -0.4308628 7.881688e-05 -0.8874475 -0.4609088 3.897513e-05 -0.8700901 -0.4928927 -0.0001208586 -0.8717057 -0.4900298 -4.855231e-05 -0.8448502 -0.535003 -0.0001724755 -0.8548572 -0.5188633 7.540562e-05 -0.8369749 -0.5472413 5.601497e-05 -0.8175825 -0.5758114 -9.997033e-05 -0.8179972 -0.5752223 -8.239595e-05 -0.7883457 -0.6152325 -0.0001815208 -0.7982571 -0.6023169 6.058011e-05 -0.7785406 -0.6275943 5.047419e-05 -0.757215 -0.6531656 -0.0001259359 -0.7585725 -0.6515887 -7.714186e-05 -0.7242403 -0.6895476 -0.0001804619 -0.7375907 -0.6752481 7.254996e-05 -0.7157444 -0.6983623 3.460065e-05 -0.6895398 -0.7242477 -0.0001489643 -0.6929046 -0.7210293 -4.189454e-05 -0.6531764 -0.7572057 -0.0001847221 -0.6692618 -0.7430267 7.852695e-05 -0.6152287 -0.7883486 -0.0001190546 -0.6423166 -0.7664394 9.099641e-05 -0.609484 -0.7927985 7.059798e-05 -0.5758131 -0.8175815 -0.0001515971 -0.5787948 -0.8154733 -6.076294e-05 -0.5349994 -0.8448524 -0.0002055613 -0.5513229 -0.8342921 9.596888e-05 -0.4928958 -0.8700883 -0.0001206011 -0.521815 -0.8530586 7.80246e-05 -0.4885921 -0.8725124 1.982434e-05 -0.4052386 -0.914211 -1.498082e-05 -0.449612 -0.893224 1.992684e-05 -0.448592 -0.8937367 -2.198392e-05 -0.3598944 -0.9329931 -4.072501e-05 -0.4037341 -0.9148763 4.307576e-05 -0.3574377 -0.933937 5.208273e-05 -0.3127864 -0.9498234 -5.377286e-05 -0.3136802 -0.9495286 -1.76423e-05 -0.2681706 -0.9633714 2.078846e-05 -0.2667139 -0.9637758 -3.775178e-05 -0.2191041 -0.9757015 -5.312625e-06 -0.2202493 -0.9754437 4.350527e-05 -0.1709607 -0.9852779 -3.381577e-05 -0.1718929 -0.9851156 5.751789e-06 -0.1224111 -0.9924795 -4.311545e-05 -0.1241816 -0.9922595 3.355191e-05 -0.07356346 -0.9972905 -0.0001973638 -0.07976062 -0.996814 3.541193e-05 -0.02454148 -0.9996988 -0.0002821548 -0.0447639 -0.9989976 5.63746e-05 -0.01528908 -0.9998832 -0 0.1961161 -0 0.9805807 0.1961161 0 0.9805807 -0.1961161 0 0.9805807 -0.1961161 0 0.9805807 0 0 -1 0 0 -1 0 0 -1 0 0 -1 0 0 -1 0 0 -1 0 0 -1 0 0 -1 0 0 -1 0 0 -1 0 0 -1 0 0 -1 0 0 -1 0 0 -1 0 0 -1 0 0 -1 0 0 -1 0 0 -1 0 0 -1 0 0 -1 0 0 -1 0 0 -1 0 0 -1 0 0 -1 0 0 -1 0 0 -1 0 0 -1 0 0 -1 0 0 -1 0 0 -1 0 0 -1 0 0 -1 0 0 -1 0 0 -1 0 0 -1 0 0 -1 0 0 -1 0 0 -1 0 0 -1 0 0 -1 0 0 -1 0 0 -1 0 0 -1 0 0 -1 0 0 -1 0 0 -1 0 0 -1 0 0 -1 0 0 -1 0 0 -1 0 0 -1 0 0 -1 0 0 -1 0 0 -1 0 0 -1 0 0 -1 0 0 -1 0 0 -1 0 0 -1 0 0 -1 0 0 -1 0 0 -1 0 0 -1 0 0 -1 0 0 -1 0 0 -1 -1 -0 0 -1 0 -0 0 0 1 0 0 1 1 0 0 1 0 0 0 1 0 0 1 0 0 1 -0 0 1 0 0 -1 0 -0 -1 0 0 -1 0 0 -1 0</float_array>
          <technique_common>
            <accessor count="484" source="#cubenormals-array0-array" stride="3">
              <param type="float" name="X" />
              <param type="float" name="Y" />
              <param type="float" name="Z" />
            </accessor>
          </technique_common>
        </source>
        <vertices id="cubeverts-array0-vertices">
          <input semantic="POSITION" source="#cubeverts-array0" />
        </vertices>
        <triangles count="484" material="ref_Part__Feature">
          <input offset="0" semantic="VERTEX" source="#cubeverts-array0-vertices" />
          <input offset="1" semantic="NORMAL" source="#cubenormals-array0" />
          <p>0 0 1 0 2 0 3 1 2 1 4 1 3 2 0 2 2 2 5 3 4 3 6 3 5 4 3 4 4 4 7 5 6 5 8 5 7 6 8 6 9 6 7 7 5 7 6 7 10 8 9 8 11 8 10 9 7 9 9 9 12 10 10 10 11 10 12 11 11 11 13 11 12 12 13 12 14 12 15 13 12 13 14 13 15 14 14 14 16 14 17 15 15 15 16 15 17 16 16 16 18 16 19 17 17 17 18 17 19 18 18 18 20 18 19 19 20 19 21 19 22 20 19 20 21 20 22 21 21 21 23 21 24 22 22 22 23 22 24 23 23 23 25 23 24 24 25 24 26 24 27 25 24 25 26 25 27 26 26 26 28 26 29 27 27 27 28 27 29 28 28 28 30 28 29 29 30 29 31 29 32 30 29 30 31 30 32 31 31 31 33 31 34 32 32 32 33 32 34 33 33 33 35 33 34 34 35 34 36 34 37 35 34 35 36 35 37 36 36 36 38 36 39 37 38 37 40 37 39 38 40 38 41 38 39 39 37 39 38 39 42 40 41 40 43 40 42 41 39 41 41 41 44 42 43 42 45 42 44 43 42 43 43 43 46 44 45 44 47 44 46 45 47 45 48 45 46 46 44 46 45 46 49 47 48 47 50 47 49 48 46 48 48 48 51 49 50 49 52 49 51 50 49 50 50 50 53 51 52 51 54 51 53 52 54 52 55 52 53 53 51 53 52 53 56 54 53 54 55 54 57 55 55 55 58 55 57 56 56 56 55 56 59 57 58 57 60 57 59 58 60 58 61 58 59 59 57 59 58 59 62 60 61 60 63 60 62 61 59 61 61 61 64 62 62 62 63 62 64 63 63 63 65 63 66 64 64 64 65 64 66 65 65 65 67 65 68 66 66 66 67 66 68 67 67 67 69 67 70 68 68 68 69 68 70 69 69 69 71 69 72 70 70 70 71 70 72 71 71 71 73 71 74 72 72 72 73 72 74 73 73 73 75 73 2 74 1 74 76 74 2 75 76 75 77 75 4 76 77 76 78 76 4 77 78 77 79 77 4 78 2 78 77 78 6 79 79 79 80 79 6 80 4 80 79 80 8 81 80 81 81 81 8 82 6 82 80 82 9 83 81 83 82 83 9 84 8 84 81 84 11 85 82 85 83 85 11 86 9 86 82 86 13 87 11 87 83 87 14 88 83 88 84 88 14 89 13 89 83 89 16 90 84 90 85 90 16 91 14 91 84 91 18 92 85 92 86 92 18 93 16 93 85 93 20 94 86 94 87 94 20 95 18 95 86 95 21 96 87 96 88 96 21 97 20 97 87 97 23 98 88 98 89 98 23 99 21 99 88 99 25 100 89 100 90 100 25 101 23 101 89 101 26 102 90 102 91 102 26 103 25 103 90 103 28 104 91 104 92 104 28 105 26 105 91 105 30 106 28 106 92 106 31 107 92 107 93 107 31 108 30 108 92 108 33 109 93 109 94 109 33 110 31 110 93 110 35 111 94 111 95 111 35 112 33 112 94 112 36 113 95 113 96 113 36 114 35 114 95 114 38 115 96 115 97 115 38 116 36 116 96 116 40 117 38 117 97 117 41 118 97 118 98 118 41 119 40 119 97 119 43 120 98 120 99 120 43 121 41 121 98 121 45 122 99 122 100 122 45 123 43 123 99 123 47 124 100 124 101 124 47 125 45 125 100 125 48 126 101 126 102 126 48 127 47 127 101 127 50 128 102 128 103 128 50 129 48 129 102 129 52 130 50 130 103 130 52 131 103 131 104 131 54 132 52 132 104 132 54 133 104 133 105 133 55 134 54 134 105 134 55 135 105 135 106 135 55 136 106 136 107 136 58 137 55 137 107 137 58 138 107 138 108 138 60 139 58 139 108 139 60 140 108 140 109 140 61 141 60 141 109 141 61 142 109 142 110 142 63 143 61 143 110 143 63 144 110 144 111 144 63 145 111 145 112 145 65 146 63 146 112 146 65 147 112 147 113 147 67 148 113 148 114 148 67 149 65 149 113 149 69 150 114 150 115 150 69 151 67 151 114 151 71 152 115 152 116 152 71 153 69 153 115 153 73 154 116 154 117 154 73 155 71 155 116 155 75 156 117 156 118 156 75 157 73 157 117 157 76 158 119 158 120 158 77 159 120 159 121 159 77 160 76 160 120 160 78 161 77 161 121 161 78 162 121 162 122 162 79 163 122 163 123 163 79 164 78 164 122 164 80 165 123 165 124 165 80 166 79 166 123 166 81 167 80 167 124 167 82 168 124 168 125 168 82 169 81 169 124 169 83 170 125 170 126 170 83 171 82 171 125 171 84 172 126 172 127 172 84 173 83 173 126 173 85 174 127 174 128 174 85 175 128 175 129 175 85 176 84 176 127 176 86 177 129 177 130 177 86 178 85 178 129 178 87 179 130 179 131 179 87 180 86 180 130 180 88 181 131 181 132 181 88 182 87 182 131 182 89 183 132 183 133 183 89 184 88 184 132 184 90 185 89 185 133 185 91 186 133 186 134 186 91 187 90 187 133 187 92 188 134 188 135 188 92 189 91 189 134 189 93 190 135 190 136 190 93 191 92 191 135 191 94 192 136 192 137 192 94 193 93 193 136 193 95 194 137 194 138 194 95 195 138 195 139 195 95 196 94 196 137 196 96 197 139 197 140 197 96 198 95 198 139 198 97 199 140 199 141 199 97 200 96 200 140 200 98 201 141 201 142 201 98 202 97 202 141 202 99 203 98 203 142 203 100 204 142 204 143 204 100 205 99 205 142 205 101 206 143 206 144 206 101 207 100 207 143 207 102 208 144 208 145 208 102 209 101 209 144 209 103 210 145 210 146 210 103 211 102 211 145 211 104 212 103 212 146 212 104 213 146 213 147 213 104 214 147 214 148 214 105 215 104 215 148 215 105 216 148 216 149 216 106 217 105 217 149 217 106 218 149 218 150 218 107 219 106 219 150 219 107 220 150 220 151 220 108 221 107 221 151 221 109 222 108 222 151 222 109 223 151 223 152 223 110 224 109 224 152 224 110 225 152 225 153 225 111 226 110 226 153 226 111 227 153 227 154 227 112 228 111 228 154 228 112 229 154 229 155 229 113 230 155 230 156 230 113 231 156 231 157 231 113 232 112 232 155 232 114 233 157 233 158 233 114 234 113 234 157 234 115 235 158 235 159 235 115 236 114 236 158 236 116 237 159 237 160 237 116 238 115 238 159 238 117 239 160 239 161 239 117 240 116 240 160 240 118 241 117 241 161 241 119 242 162 242 163 242 120 243 163 243 164 243 120 244 119 244 163 244 121 245 120 245 164 245 122 246 164 246 165 246 122 247 121 247 164 247 123 248 165 248 166 248 123 249 122 249 165 249 124 250 166 250 167 250 124 251 123 251 166 251 125 252 167 252 168 252 125 253 124 253 167 253 126 254 168 254 169 254 126 255 169 255 170 255 126 256 125 256 168 256 127 257 170 257 171 257 127 258 126 258 170 258 128 259 171 259 172 259 128 260 127 260 171 260 129 261 172 261 173 261 129 262 128 262 172 262 130 263 173 263 174 263 130 264 129 264 173 264 131 265 174 265 175 265 131 266 130 266 174 266 132 267 175 267 176 267 132 268 131 268 175 268 133 269 176 269 177 269 133 270 132 270 176 270 134 271 177 271 178 271 134 272 133 272 177 272 135 273 178 273 179 273 135 274 179 274 180 274 135 275 134 275 178 275 136 276 180 276 181 276 136 277 135 277 180 277 137 278 181 278 182 278 137 279 136 279 181 279 138 280 182 280 183 280 138 281 137 281 182 281 139 282 183 282 184 282 139 283 138 283 183 283 140 284 184 284 185 284 140 285 185 285 186 285 140 286 139 286 184 286 141 287 186 287 187 287 141 288 140 288 186 288 142 289 187 289 188 289 142 290 141 290 187 290 143 291 188 291 189 291 143 292 142 292 188 292 144 293 189 293 190 293 144 294 143 294 189 294 145 295 190 295 191 295 145 296 144 296 190 296 146 297 145 297 191 297 146 298 191 298 192 298 147 299 146 299 192 299 147 300 192 300 193 300 148 301 193 301 194 301 148 302 147 302 193 302 149 303 148 303 194 303 150 304 149 304 194 304 150 305 194 305 195 305 151 306 150 306 195 306 151 307 195 307 196 307 152 308 151 308 196 308 152 309 196 309 197 309 153 310 152 310 197 310 153 311 197 311 198 311 154 312 153 312 198 312 155 313 154 313 198 313 155 314 198 314 199 314 156 315 155 315 199 315 156 316 199 316 200 316 157 317 200 317 201 317 157 318 156 318 200 318 158 319 201 319 202 319 158 320 157 320 201 320 159 321 202 321 203 321 159 322 158 322 202 322 160 323 203 323 204 323 160 324 159 324 203 324 161 325 160 325 204 325 163 326 162 326 205 326 163 327 205 327 206 327 164 328 206 328 207 328 164 329 163 329 206 329 165 330 207 330 208 330 165 331 164 331 207 331 166 332 165 332 208 332 167 333 208 333 209 333 167 334 166 334 208 334 168 335 167 335 209 335 168 336 209 336 210 336 169 337 168 337 210 337 170 338 169 338 210 338 170 339 210 339 211 339 171 340 170 340 211 340 171 341 211 341 212 341 172 342 171 342 212 342 172 343 212 343 213 343 173 344 172 344 213 344 174 345 173 345 213 345 174 346 213 346 214 346 175 347 214 347 215 347 175 348 174 348 214 348 176 349 175 349 215 349 177 350 215 350 216 350 177 351 176 351 215 351 178 352 216 352 217 352 178 353 177 353 216 353 179 354 178 354 217 354 180 355 217 355 218 355 180 356 179 356 217 356 181 357 218 357 219 357 181 358 180 358 218 358 182 359 181 359 219 359 183 360 219 360 220 360 183 361 182 361 219 361 184 362 220 362 221 362 184 363 183 363 220 363 185 364 184 364 221 364 186 365 221 365 222 365 186 366 185 366 221 366 187 367 222 367 223 367 187 368 186 368 222 368 188 369 223 369 224 369 188 370 187 370 223 370 189 371 188 371 224 371 190 372 224 372 225 372 190 373 189 373 224 373 191 374 225 374 226 374 191 375 190 375 225 375 192 376 226 376 227 376 192 377 191 377 226 377 193 378 192 378 227 378 194 379 228 379 229 379 194 380 227 380 228 380 194 381 193 381 227 381 195 382 229 382 230 382 195 383 194 383 229 383 196 384 195 384 230 384 197 385 196 385 230 385 197 386 230 386 231 386 198 387 197 387 231 387 198 388 231 388 232 388 199 389 232 389 233 389 199 390 198 390 232 390 200 391 233 391 234 391 200 392 199 392 233 392 201 393 234 393 235 393 201 394 200 394 234 394 202 395 235 395 236 395 202 396 201 396 235 396 203 397 236 397 237 397 203 398 202 398 236 398 204 399 203 399 237 399 1 400 238 400 239 400 1 401 239 401 76 401 240 402 162 402 119 402 240 403 119 403 241 403 7 404 0 404 3 404 7 405 3 405 5 405 10 406 0 406 7 406 15 407 10 407 12 407 15 408 0 408 10 408 17 409 0 409 15 409 22 410 17 410 19 410 22 411 0 411 17 411 34 412 29 412 32 412 39 413 29 413 34 413 39 414 22 414 24 414 39 415 24 415 27 415 39 416 27 416 29 416 39 417 34 417 37 417 42 418 22 418 39 418 44 419 22 419 42 419 49 420 44 420 46 420 51 421 44 421 49 421 56 422 51 422 53 422 56 423 44 423 51 423 59 424 44 424 56 424 59 425 56 425 57 425 59 426 0 426 22 426 59 427 22 427 44 427 62 428 0 428 59 428 64 429 0 429 62 429 70 430 66 430 68 430 74 431 0 431 64 431 74 432 66 432 70 432 74 433 242 433 0 433 74 434 64 434 66 434 74 435 70 435 72 435 237 436 242 436 74 436 237 437 205 437 243 437 237 438 243 438 242 438 235 439 237 439 236 439 207 440 206 440 205 440 208 441 207 441 205 441 209 442 208 442 205 442 232 443 234 443 233 443 231 444 234 444 232 444 213 445 212 445 211 445 213 446 211 446 210 446 213 447 210 447 209 447 213 448 205 448 237 448 213 449 209 449 205 449 228 450 235 450 234 450 228 451 231 451 230 451 228 452 230 452 229 452 228 453 234 453 231 453 215 454 214 454 213 454 215 455 237 455 235 455 215 456 213 456 237 456 217 457 216 457 215 457 225 458 228 458 227 458 225 459 227 459 226 459 225 460 235 460 228 460 223 461 225 461 224 461 223 462 219 462 218 462 223 463 218 463 217 463 223 464 235 464 225 464 223 465 215 465 235 465 223 466 217 466 215 466 221 467 223 467 222 467 221 468 220 468 219 468 221 469 219 469 223 469 240 470 205 470 162 470 240 471 243 471 205 471 239 472 119 472 76 472 239 473 241 473 119 473 238 474 1 474 0 474 238 475 0 475 242 475 243 476 240 476 241 476 242 477 241 477 239 477 242 478 239 478 238 478 242 479 243 479 241 479 237 480 161 480 204 480 118 481 161 481 237 481 74 482 75 482 118 482 74 483 118 483 237 483</p>
        </triangles>
      </mesh>
    </geometry>
    <geometry id="geometry1" name="Part__Feature001">
      <mesh>
        <source id="cubeverts-array1">
          <float_array count="72" id="cubeverts-array1-array">0.3 1.36 -0.1075 -0.3 1.36 0.2925 -0.3 1.36 -0.1075 0.3 1.36 0.2925 0.3 0.1 -0.1075 0.3 0.1 0.2925 -0.3 0.1 -0.1075 -0.3 0.1 0.2925 0.3 1.81 -0.1075 -0.3 1.81 0.2925 -0.3 1.81 -0.1075 0.3 1.81 0.2925 0.3 1.45 -0.1075 0.3 1.45 0.2925 -0.3 1.45 -0.1075 -0.3 1.45 0.2925 -0.35 0 -0.2925 0.35 1.89 -0.2925 0.35 0 -0.2925 -0.35 1.89 -0.2925 0.35 1.89 0.2925 0.35 0 0.2925 -0.35 0 0.2925 -0.35 1.89 0.2925</float_array>
          <technique_common>
            <accessor count="24" source="#cubeverts-array1-array" stride="3">
              <param type="float" name="X" />
              <param type="float" name="Y" />
              <param type="float" name="Z" />
            </accessor>
          </technique_common>
        </source>
        <source id="cubenormals-array1">
          <float_array count="132" id="cubenormals-array1-array">0 -1 0 0 -1 0 -1 0 -0 -1 -0 0 0 1 0 0 1 -0 1 0 0 1 0 0 0 0 1 0 0 1 0 -1 0 0 -1 0 -1 0 -0 -1 -0 0 0 1 0 0 1 -0 1 0 0 1 0 0 0 0 1 0 0 1 0 0 -1 0 0 -1 1 0 0 1 0 0 0 0 1 0 0 1 0 0 1 0 0 1 0 0 1 0 0 1 0 0 1 0 0 1 0 0 1 0 0 1 0 0 1 0 0 1 0 -0 1 0 0 1 -1 0 -0 -1 -0 0 -0 -1 0 0 -1 0 0 1 0 0 1 -0</float_array>
          <technique_common>
            <accessor count="44" source="#cubenormals-array1-array" stride="3">
              <param type="float" name="X" />
              <param type="float" name="Y" />
              <param type="float" name="Z" />
            </accessor>
          </technique_common>
        </source>
        <vertices id="cubeverts-array1-vertices">
          <input semantic="POSITION" source="#cubeverts-array1" />
        </vertices>
        <triangles count="44" material="ref_Part__Feature001">
          <input offset="0" semantic="VERTEX" source="#cubeverts-array1-vertices" />
          <input offset="1" semantic="NORMAL" source="#cubenormals-array1" />
          <p>0 0 1 0 2 0 0 1 3 1 1 1 3 2 0 2 4 2 3 3 4 3 5 3 4 4 6 4 7 4 4 5 7 5 5 5 1 6 7 6 6 6 1 7 6 7 2 7 0 8 6 8 4 8 0 9 2 9 6 9 8 10 9 10 10 10 8 11 11 11 9 11 11 12 8 12 12 12 11 13 12 13 13 13 12 14 14 14 15 14 12 15 15 15 13 15 9 16 15 16 14 16 9 17 14 17 10 17 8 18 14 18 12 18 8 19 10 19 14 19 16 20 17 20 18 20 16 21 19 21 17 21 20 22 21 22 18 22 20 23 18 23 17 23 5 24 22 24 21 24 5 25 7 25 22 25 1 26 22 26 7 26 23 27 15 27 9 27 3 28 5 28 21 28 13 29 1 29 3 29 13 30 15 30 1 30 20 31 9 31 11 31 20 32 11 32 13 32 20 33 23 33 9 33 23 34 22 34 1 34 23 35 1 35 15 35 21 36 20 36 13 36 21 37 13 37 3 37 23 38 19 38 16 38 23 39 16 39 22 39 21 40 22 40 16 40 18 41 21 41 16 41 20 42 19 42 23 42 17 43 19 43 20 43</p>
        </triangles>
      </mesh>
    </geometry>
  </library_geometries>
  <library_materials>
    <material id="mat_Part__Feature" name="Part__Feature">
      <instance_effect url="#effect_Part__Feature" />
    </material>
    <material id="mat_Part__Feature001" name="Part__Feature001">
      <instance_effect url="#effect_Part__Feature001" />
    </material>
  </library_materials>
  <library_visual_scenes>
    <visual_scene id="myscene">
      <node id="node0" name="node0">
        <instance_geometry url="#geometry0">
          <bind_material>
            <technique_common>
              <instance_material symbol="ref_Part__Feature" target="#mat_Part__Feature" />
            </technique_common>
          </bind_material>
        </instance_geometry>
      </node>
      <node id="node1" name="node1">
        <instance_geometry url="#geometry1">
          <bind_material>
            <technique_common>
              <instance_material symbol="ref_Part__Feature001" target="#mat_Part__Feature001" />
            </technique_common>
          </bind_material>
        </instance_geometry>
      </node>
    </visual_scene>
  </library_visual_scenes>
  <scene>
    <instance_visual_scene url="#myscene" />
  </scene>
</COLLADA>
