# 3ds Max Wavefront OBJ Exporter v0.97b - (c)2007 guruware
# File Created: 24.03.2015 11:02:21

#
# object Box001
#

v  33.456939697266 1.003708124161 3.628497123718
v  33.456939697266 0.000000000000 -7.946022987366
v  33.456939697266 1.003708124161 -7.946022987366
v  -33.456939697266 0.000000000000 -7.946022987366
v  -33.456939697266 1.003708124161 3.628497123718
v  -33.456939697266 1.003708124161 -7.946022987366
v  -33.456939697266 1.003708124161 7.946022987366
v  33.456939697266 0.000000000000 7.946022987366
v  33.456939697266 1.003708124161 7.946022987366
v  13.773106575012 1.003708124161 -0.641257762909
v  -13.773106575012 0.000000000000 -0.641257762909
v  -13.773106575012 1.003708124161 -0.641257762909
v  15.892045974731 1.003708124161 -7.946022987366
v  15.892045974731 0.000000000000 -7.946022987366
v  -15.892045974731 0.000000000000 -7.946022987366
v  -15.892045974731 1.003708124161 -2.760196447372
v  -15.892045974731 1.003708124161 -7.946022987366
v  15.892045974731 0.000000000000 -2.760196447372
v  -13.773106575012 0.000000000000 -0.645439147949
v  -13.906152725220 1.003708124161 -0.645438909531
v  -13.906152725220 0.000000000000 -0.645438909531
v  -14.170153617859 1.003708124161 -0.678789615631
v  -14.170153617859 0.000000000000 -0.678789615631
v  -14.427891731262 1.003708124161 -0.744965314865
v  -14.675304412842 0.000000000000 -0.842922508717
v  -14.675304412842 1.003708124161 -0.842922508717
v  -14.908489227295 0.000000000000 -0.971116185188
v  -15.123766899109 0.000000000000 -1.127524971962
v  -14.908489227295 1.003708124161 -0.971116185188
v  -15.317746162415 1.003708124161 -1.309681653976
v  -15.123766899109 1.003708124161 -1.127524971962
v  -15.487363815308 0.000000000000 -1.514714121819
v  -15.487363815308 1.003708124161 -1.514714121819
v  -15.629946708679 0.000000000000 -1.739388585091
v  -15.629946708679 1.003708124161 -1.739388585091
v  -15.743246078491 0.000000000000 -1.980161786079
v  -15.743246078491 1.003708124161 -1.980161786079
v  -15.825474739075 0.000000000000 -2.233236551285
v  -15.825474739075 1.003708124161 -2.233236551285
v  -15.875336647034 0.000000000000 -2.494621753693
v  -15.875336647034 1.003708124161 -2.494621753693
v  -33.456939697266 0.000000000000 7.946022987366
v  -14.427891731262 0.000000000000 -0.744965314865
v  13.773106575012 1.003708124161 -0.645439147949
v  13.773106575012 0.000000000000 -0.641257762909
v  -28.020204544067 1.003708124161 4.632205009460
v  -33.456939697266 1.003708124161 4.632205009460
v  13.906159400940 0.000000000000 -0.645439326763
v  13.906159400940 1.003708124161 -0.645439326763
v  14.170159339905 0.000000000000 -0.678790807724
v  14.170159339905 1.003708124161 -0.678790807724
v  14.427898406982 0.000000000000 -0.744967162609
v  14.427898406982 1.003708124161 -0.744967162609
v  14.675311088562 0.000000000000 -0.842925071716
v  14.675311088562 1.003708124161 -0.842925071716
v  14.908494949341 1.003708124161 -0.971119463444
v  15.123772621155 0.000000000000 -1.127528786659
v  15.123772621155 1.003708124161 -1.127528786659
v  15.317749023438 0.000000000000 -1.309686183929
v  15.317749023438 1.003708124161 -1.309686183929
v  15.487366676331 0.000000000000 -1.514719128609
v  15.487366676331 1.003708124161 -1.514719128609
v  15.629949569702 1.003708124161 -1.739393949509
v  15.743247985840 0.000000000000 -1.980167508125
v  15.743247985840 1.003708124161 -1.980167508125
v  15.825476646423 1.003708124161 -2.233242511749
v  15.875338554382 1.003708124161 -2.494627952576
v  15.825476646423 0.000000000000 -2.233242511749
v  15.892045974731 1.003708124161 -2.760196447372
v  15.875338554382 0.000000000000 -2.494627952576
v  23.802103042603 1.003708124161 3.628497123718
v  -26.373497009277 1.003708124161 3.628497123718
v  -26.563899993896 1.003708124161 4.632205009460
v  -26.375438690186 1.003708124161 4.632205009460
v  -33.456939697266 9.968640327454 3.628497123718
v  33.456939697266 1.003708124161 4.632205009460
v  33.456935882568 9.968640327454 3.628497123718
v  33.456935882568 9.968640327454 4.632205009460
v  -33.456939697266 9.968640327454 4.632205009460
v  -15.892045974731 0.000000000000 -2.760196447372
v  -13.773106575012 1.003708124161 -0.645439147949
v  -15.317746162415 0.000000000000 -1.309681653976
v  13.773106575012 0.000000000000 -0.645439147949
v  15.629949569702 0.000000000000 -1.739393949509
v  14.908494949341 0.000000000000 -0.971119463444
v  28.020204544067 1.003708124161 4.632205009460
v  27.876615524292 1.003708124161 4.632205009460
v  27.717088699341 1.003708124161 4.632205009460
v  27.543296813965 1.003708124161 4.632205009460
v  27.357521057129 1.003708124161 4.632205009460
v  27.162729263306 1.003708124161 4.632205009460
v  26.962572097778 1.003708124161 4.632205009460
v  26.761348724365 1.003708124161 4.632205009460
v  26.563903808594 1.003708124161 4.632205009460
v  26.375442504883 1.003708124161 4.632205009460
v  26.201290130615 1.003708124161 4.632205009460
v  26.046588897705 1.003708124161 4.632205009460
v  -15.157700538635 1.003708124161 4.632205009460
v  -15.188491821289 1.003708124161 4.632205009460
v  -15.230940818787 1.003708124161 4.632205009460
v  -25.860980987549 1.003708124161 4.632205009460
v  -25.915994644165 1.003708124161 4.632205009460
v  -26.046586990356 1.003708124161 4.632205009460
v  -26.201286315918 1.003708124161 4.632205009460
v  -26.761344909668 1.003708124161 4.632205009460
v  -26.962568283081 1.003708124161 4.632205009460
v  -27.162725448608 1.003708124161 4.632205009460
v  -27.357517242432 1.003708124161 4.632205009460
v  -27.543292999268 1.003708124161 4.632205009460
v  -27.717086791992 1.003708124161 4.632205009460
v  -27.876609802246 1.003708124161 4.632205009460
v  26.373497009277 1.003708124161 3.628497123718
v  26.186412811279 1.003708124161 3.628497123718
v  25.978570938110 1.003708124161 3.628497123718
v  25.752138137817 1.003708124161 3.628497123718
v  25.510095596313 1.003708124161 3.628497123718
v  25.256303787231 1.003708124161 3.628497123718
v  24.995521545410 1.003708124161 3.628497123718
v  24.733352661133 1.003708124161 3.628497123718
v  24.476102828979 1.003708124161 3.628497123718
v  24.230558395386 1.003708124161 3.628497123718
v  24.003658294678 1.003708124161 3.628497123718
v  -26.186408996582 1.003708124161 3.628497123718
v  -25.978565216064 1.003708124161 3.628497123718
v  -25.752132415771 1.003708124161 3.628497123718
v  -25.510089874268 1.003708124161 3.628497123718
v  -25.256298065186 1.003708124161 3.628497123718
v  -24.995515823364 1.003708124161 3.628497123718
v  -24.733345031738 1.003708124161 3.628497123718
v  -24.476099014282 1.003708124161 3.628497123718
v  -24.230554580688 1.003708124161 3.628497123718
v  -24.003652572632 1.003708124161 3.628497123718
v  -23.802099227905 1.003708124161 3.628497123718
v  -23.631948471069 1.003708124161 3.628497123718
v  -23.560274124146 1.003708124161 3.628497123718
v  -9.710546493530 1.003708124161 3.628497123718
v  -9.655241012573 1.003708124161 3.628497123718
v  -9.615122795105 1.003708124161 3.628497123718
v  21.747011184692 0.947947561741 7.078876495361
v  22.862243652344 2.063178777695 7.078876495361
v  21.747011184692 2.063178777695 7.078876495361
v  21.747011184692 2.063178777695 5.127222061157
v  22.862243652344 0.947947561741 7.078876495361
v  22.862243652344 0.947947561741 4.346560001373
v  22.862243652344 2.063178777695 5.127222061157
v  21.747011184692 0.947947561741 4.346560001373
v  21.747011184692 5.034512996674 5.127222061157
v  21.747011184692 5.034512996674 4.346560001373
v  22.862243652344 5.034512996674 4.346560001373
v  22.862243652344 5.034512996674 5.127222061157
v  21.747011184692 0.947947561741 6.096959114075
v  21.747011184692 0.947947561741 2.974311828613
v  22.862243652344 0.947947561741 2.974311828613
v  22.862243652344 0.947947561741 6.096959114075
v  22.862243652344 2.063178777695 6.096959114075
v  21.747011184692 2.063178777695 6.096959114075
v  22.862243652344 2.063178777695 2.974311828613
v  21.747011184692 2.063178777695 2.974311828613
v  -0.568405449390 0.947946488857 7.078876495361
v  0.568405449390 2.084757328033 7.078876495361
v  -0.568405449390 2.084757328033 7.078876495361
v  -0.568405449390 2.084757328033 5.127222061157
v  0.568405449390 0.947946488857 7.078876495361
v  0.568405449390 0.947946488857 4.346560001373
v  0.568405449390 2.084757328033 5.127222061157
v  -0.568405449390 0.947946488857 4.346560001373
v  -0.568405449390 5.113586425781 5.127222537994
v  -0.568405449390 5.113586425781 4.346560001373
v  0.568405449390 5.113586425781 4.346560001373
v  0.568405449390 5.113586425781 5.127222537994
v  -0.568405449390 0.947946488857 6.096959114075
v  -0.568405449390 0.947946488857 2.974312067032
v  0.568405449390 0.947946488857 2.974312067032
v  0.568405449390 0.947946488857 6.096959114075
v  0.568405449390 2.084757328033 6.096959114075
v  -0.568405449390 2.084757328033 6.096959114075
v  0.568405449390 2.084757328033 2.974312067032
v  -0.568405449390 2.084757328033 2.974312067032
v  -22.862247467041 0.947947561741 7.078876495361
v  -21.747016906738 2.063178777695 7.078876495361
v  -22.862247467041 2.063178777695 7.078876495361
v  -22.862247467041 2.063178777695 5.127222061157
v  -21.747016906738 0.947947561741 7.078876495361
v  -21.747016906738 0.947947561741 4.346560001373
v  -21.747016906738 2.063178777695 5.127222061157
v  -22.862247467041 0.947947561741 4.346560001373
v  -22.862247467041 5.034512996674 5.127222061157
v  -22.862247467041 5.034512996674 4.346560001373
v  -21.747016906738 5.034512996674 4.346560001373
v  -21.747016906738 5.034512996674 5.127222061157
v  -22.862247467041 0.947947561741 6.096959114075
v  -22.862247467041 0.947947561741 2.974311828613
v  -21.747016906738 0.947947561741 2.974311828613
v  -21.747016906738 0.947947561741 6.096959114075
v  -21.747016906738 2.063178777695 6.096959114075
v  -22.862247467041 2.063178777695 6.096959114075
v  -21.747016906738 2.063178777695 2.974311828613
v  -22.862247467041 2.063178777695 2.974311828613
# 198 vertices

vn 1.000000000000 0.000000079091 -0.000000000000
vn 1.000000000000 0.000000000000 -0.000000000000
vn -1.000000000000 0.000000000000 -0.000000000000
vn -1.000000000000 -0.000000079091 -0.000000000000
vn 0.000000000000 0.000000000000 1.000000000000
vn 0.000000000000 0.000000000000 -1.000000000000
vn 0.999506533146 0.000000000000 -0.031410951167
vn -0.999506592751 0.000000000000 -0.031409680843
vn 0.062789060175 0.000000000000 -0.998026847839
vn -0.000001498873 0.000000000000 -1.000000000000
vn 0.062789067626 0.000000000000 -0.998026847839
vn 0.187380060554 0.000000000000 -0.982287466526
vn 0.187380045652 0.000000000000 -0.982287466526
vn 0.309016019106 0.000000000000 -0.951056838036
vn 0.425777494907 0.000000000000 -0.904827892780
vn 0.535825967789 0.000000000000 -0.844328403473
vn 0.637422978878 0.000000000000 -0.770514070988
vn 0.535825967789 0.000000000000 -0.844328463078
vn 0.728967189789 0.000000000000 -0.684548616409
vn 0.637422919273 0.000000000000 -0.770514130592
vn 0.809016704559 0.000000000000 -0.587785661221
vn 0.876306176186 0.000000000000 -0.481754571199
vn 0.929776430130 0.000000000000 -0.368124723434
vn 0.929776430130 0.000000000000 -0.368124693632
vn 0.968583166599 0.000000000000 -0.248689815402
vn 0.968583166599 0.000000000000 -0.248689770699
vn 0.992114603519 0.000000000000 -0.125333920121
vn 0.000000000000 -1.000000000000 -0.000000000000
vn 0.000000000000 1.000000000000 -0.000000000000
vn -0.062792032957 0.000000000000 -0.998026609421
vn -0.000001498801 0.000000000000 -1.000000000000
vn -0.062792062759 0.000000000000 -0.998026609421
vn -0.187382727861 0.000000000000 -0.982286989689
vn -0.309018284082 0.000000000000 -0.951056122780
vn -0.425780653954 0.000000000000 -0.904826402664
vn -0.425780624151 0.000000000000 -0.904826402664
vn -0.535828530788 0.000000000000 -0.844326794147
vn -0.637426376343 0.000000000000 -0.770511269569
vn -0.637426316738 0.000000000000 -0.770511329174
vn -0.728970110416 0.000000000000 -0.684545576572
vn -0.728970050812 0.000000000000 -0.684545576572
vn -0.809017241001 0.000000000000 -0.587784886360
vn -0.876307368279 0.000000000000 -0.481752425432
vn -0.929777204990 0.000000000000 -0.368122667074
vn -0.968583703041 0.000000000000 -0.248687714338
vn -0.992115020752 0.000000000000 -0.125330597162
vn -0.968583703041 0.000000000000 -0.248687699437
vn -0.999506592751 0.000000000000 -0.031409684569
vn 1.000000000000 0.000000237273 -0.000000000000
vn -1.000000000000 -0.000000237273 -0.000000000000
vn 0.999506533146 0.000000000000 -0.031410958618
vn 0.309015989304 0.000000000000 -0.951056838036
vn 0.728967130184 0.000000000000 -0.684548676014
vn -0.876307368279 0.000000000000 -0.481752455235
vn 0.000000000000 -0.000000175574 1.000000000000
# 55 vertex normals

vt 0.271678417921 1.000000000000 0.000000000000
vt 1.000000000000 0.000000000000 0.000000000000
vt 1.000000000000 1.000000000000 0.000000000000
vt 0.000000000000 0.000000000000 0.000000000000
vt 0.728321552277 1.000000000000 0.000000000000
vt 0.000000000000 1.000000000000 0.000000000000
vt 0.999999940395 0.342327356339 0.000000000000
vt 0.000000119209 0.000000040809 0.000000000000
vt 0.000000119209 0.342327356339 0.000000000000
vt 0.262499988079 0.999999940395 0.000000000000
vt 0.000000015646 0.000000059605 0.000000000000
vt 0.262499988079 0.000000059605 0.000000000000
vt 1.000000000000 0.999999940395 0.000000000000
vt 0.737500011921 0.000000059605 0.000000000000
vt 0.999999940395 0.000000059605 0.000000000000
vt 0.999999940395 0.261704385281 0.000000000000
vt -0.000000153818 0.000000000000 0.000000000000
vt -0.000000238419 0.261704385281 0.000000000000
vt 1.000000000000 0.261704385281 0.000000000000
vt 0.999427556992 0.000000000000 0.000000000000
vt 1.000000000000 0.342327356339 0.000000000000
vt 0.490000277758 0.117428056896 1.000000000000
vt 0.500000000000 0.000000000000 1.000000000000
vt 0.490000277758 0.000000000000 1.000000000000
vt 0.470000207424 0.117428056896 0.999999940395
vt 0.490000307560 0.117428056896 1.000000000000
vt 0.470000237226 0.000000000000 1.000000000000
vt 0.450000256300 0.117428056896 1.000000000000
vt 0.470000207424 0.117428019643 1.000000000000
vt 0.450000256300 0.117428064346 1.000000000000
vt 0.430000215769 0.000000000000 1.000000000000
vt 0.430000245571 0.117428064346 0.999999940395
vt 0.410000145435 0.000000000000 1.000000000000
vt 0.430000245571 0.117428064346 1.000000000000
vt 0.430000245571 0.000000000000 1.000000000000
vt 0.390000283718 0.000000000000 1.000000000000
vt 0.410000145435 0.117428056896 1.000000000000
vt 0.410000175238 0.000000000000 1.000000000000
vt 0.390000253916 0.000000000000 1.000000000000
vt 0.370000183582 0.117428064346 1.000000119209
vt 0.390000224113 0.117428064346 1.000000000000
vt 0.370000183582 0.117428071797 1.000000000000
vt 0.350000172853 0.000000000000 1.000000119209
vt 0.350000172853 0.117428079247 1.000000119209
vt 0.330000132322 0.000000000000 0.999999880791
vt 0.350000172853 0.117428056896 1.000000119209
vt 0.330000162125 0.117428064346 1.000000000000
vt 0.310000151396 0.000000000000 1.000000000000
vt 0.310000121593 0.117428064346 0.999999940395
vt 0.310000151396 0.117428064346 1.000000000000
vt 0.290000140667 0.000000000000 1.000000119209
vt 0.290000140667 0.117428071797 1.000000119209
vt 0.290000140667 0.117428049445 1.000000119209
vt 0.270000129938 0.000000000000 1.000000119209
vt 0.270000100136 0.117428064346 1.000000000000
vt 0.250000059605 0.117428071797 1.000000000000
vt 0.270000129938 0.117428004742 1.000000119209
vt 0.711766958237 0.542712569237 0.000000000000
vt 0.715618729591 0.546876668930 0.000000000000
vt 0.000572416466 0.342327386141 0.000000000000
vt 0.000000000034 0.000000020404 0.000000000000
vt 0.000000000034 0.342327386141 0.000000000000
vt 0.000000042425 0.000000032348 0.000000000000
vt 0.081249654293 0.208520531654 0.000000000000
vt 0.000000000000 0.208520531654 0.000000000000
vt 0.510000169277 0.000000000000 1.000000000000
vt 0.500000000000 0.117428064346 0.999999940395
vt 0.510000228882 0.117428064346 1.000000000000
vt 0.530000329018 0.000000000000 1.000000000000
vt 0.510000228882 0.117428049445 1.000000000000
vt 0.530000329018 0.117428049445 1.000000000000
vt 0.550000250340 0.000000000000 1.000000000000
vt 0.530000269413 0.117428064346 0.999999940395
vt 0.550000250340 0.117427952588 1.000000000000
vt 0.570000350475 0.000000000000 1.000000000000
vt 0.550000250340 0.117428071797 1.000000000000
vt 0.570000290871 0.117428071797 1.000000000000
vt 0.590000331402 0.117428071797 1.000000000000
vt 0.570000231266 0.000000000000 1.000000000000
vt 0.610000252724 0.000000000000 1.000000000000
vt 0.590000331402 0.117428064346 1.000000000000
vt 0.610000252724 0.117427982390 1.000000000000
vt 0.630000233650 0.000000000000 1.000000000000
vt 0.610000252724 0.117428064346 1.000000000000
vt 0.630000233650 0.117428064346 1.000000000000
vt 0.650000274181 0.000000000000 0.999999940395
vt 0.630000293255 0.117428071797 1.000000000000
vt 0.650000274181 0.117428064346 0.999999940395
vt 0.670000314713 0.117428064346 1.000000000000
vt 0.650000214577 0.117428064346 0.999999880791
vt 0.690000355244 0.000000000000 1.000000000000
vt 0.670000255108 0.117428064346 0.999999940395
vt 0.690000295639 0.117428064346 1.000000000000
vt 0.710000336170 0.117428064346 1.000000000000
vt 0.690000295639 0.000000006999 1.000000000000
vt 0.690000236034 0.117428064346 0.999999940395
vt 0.730000317097 0.117428064346 1.000000000000
vt 0.710000276566 0.000000000000 1.000000000000
vt 0.710000395775 0.117428064346 1.000000000000
vt 0.749999940395 0.117428064346 1.000000000000
vt 0.730000317097 0.000000000000 1.000000000000
vt 0.726018369198 0.570949256420 0.000000000000
vt 0.855712532997 0.271678388119 0.000000000000
vt 0.728917241096 0.582411408424 0.000000000000
vt 0.105859041214 0.271678447723 0.000000000000
vt 0.103013515472 0.208520531654 0.000000000000
vt 0.105830028653 0.208520531654 0.000000000000
vt 0.894140899181 0.000000047684 0.000000000000
vt 1.000000000000 0.000000047684 0.000000000000
vt 0.000000238419 0.000000026491 0.000000000000
vt 1.000000119209 1.000000000000 0.000000000000
vt 0.000000178814 1.000000000000 0.000000000000
vt 0.081249743700 0.000000047684 0.000000000000
vt 0.000000031789 0.000000047684 0.000000000000
vt 0.999999940395 0.000000119209 0.000000000000
vt 0.000000000000 1.000000119209 0.000000000000
vt 0.000000000000 0.000000211928 0.000000000000
vt 0.999999821186 1.000000000000 0.000000000000
vt 0.208520516753 1.000000000000 0.000000000000
vt 0.791479468346 1.000000000000 0.000000000000
vt 0.000000029802 0.999999940395 0.000000000000
vt 0.737500071526 0.999999940395 0.000000000000
vt 0.000000000000 0.261704385281 0.000000000000
vt 0.999427616596 0.342327356339 0.000000000000
vt 0.499999970198 0.117428056896 1.000000000000
vt 0.470000177622 0.000000000000 0.999999940395
vt 0.450000286102 0.000000037253 1.000000000000
vt 0.450000226498 0.000000000000 1.000000000000
vt 0.410000175238 0.117428064346 1.000000000000
vt 0.390000253916 0.117428056896 1.000000000000
vt 0.370000243187 0.000000000000 1.000000000000
vt 0.370000213385 -0.000000007451 0.999999880791
vt 0.330000162125 0.117428056896 1.000000000000
vt 0.330000221729 0.000000000000 1.000000000000
vt 0.310000121593 -0.000000007451 0.999999880791
vt 0.290000200272 -0.000000014901 1.000000238419
vt 0.250000089407 0.000000067055 0.999999880791
vt 0.705833196640 0.540350973606 0.000000000000
vt 0.707821607590 0.540614008904 0.000000000000
vt 0.705833196640 0.540614008904 0.000000000000
vt 0.292178124189 0.540614008904 0.000000000000
vt 0.294166564941 0.540350973606 0.000000000000
vt 0.294166624546 0.540614008904 0.000000000000
vt -0.000000119209 1.000000119209 0.000000000000
vt 0.262499928474 0.673684179783 0.000000000000
vt 0.262499868870 1.000000119209 0.000000000000
vt 0.000000059605 0.000000000000 0.000000000000
vt 0.262749582529 0.656973421574 0.000000000000
vt 0.263494729996 0.640525937080 0.000000000000
vt 0.264723688364 0.624601244926 0.000000000000
vt 0.266416907310 0.609450638294 0.000000000000
vt 0.737499952316 0.673684179783 0.000000000000
vt 0.999999821186 1.000000119209 0.000000000000
vt 0.737499892712 1.000000119209 0.000000000000
vt 0.737250208855 0.656973063946 0.000000000000
vt 0.736505091190 0.640525460243 0.000000000000
vt 0.735276103020 0.624600827694 0.000000000000
vt 0.733582854271 0.609450399876 0.000000000000
vt 0.268547624350 0.595313131809 0.000000000000
vt 0.731452107430 0.595312714577 0.000000000000
vt 0.271082550287 0.582411468029 0.000000000000
vt 0.728917181492 0.582411170006 0.000000000000
vt 0.273981422186 0.570949316025 0.000000000000
vt 0.726018309593 0.570949018002 0.000000000000
vt 0.277198791504 0.561107277870 0.000000000000
vt 0.722801089287 0.561107099056 0.000000000000
vt 0.280683457851 0.553040742874 0.000000000000
vt 0.719316244125 0.553040564060 0.000000000000
vt 0.284381002188 0.546876788139 0.000000000000
vt 0.288232803345 0.542712628841 0.000000000000
vt 0.000572416466 0.000000029802 0.000000000000
vt 0.918750286102 0.208520561457 0.000000000000
vt 1.000000000000 0.000000032348 0.000000000000
vt 0.999999880791 0.208520501852 0.000000000000
vt 0.916604399681 0.208520561457 0.000000000000
vt 0.914220333099 0.208520531654 0.000000000000
vt 0.911623001099 0.208520501852 0.000000000000
vt 0.908846735954 0.208520531654 0.000000000000
vt 0.905935645103 0.208520561457 0.000000000000
vt 0.902944326401 0.208520531654 0.000000000000
vt 0.899937152863 0.208520531654 0.000000000000
vt 0.896986484528 0.208520561457 0.000000000000
vt 0.894169926643 0.208520501852 0.000000000000
vt 0.891567349434 0.208520561457 0.000000000000
vt 0.889255404472 0.208520531654 0.000000000000
vt 0.273474454880 0.208520516753 0.000000000000
vt 0.273014307022 0.208520531654 0.000000000000
vt 0.272379904985 0.208520546556 0.000000000000
vt 0.113518416882 0.208520531654 0.000000000000
vt 0.112696230412 0.208520516753 0.000000000000
vt 0.110744595528 0.208520531654 0.000000000000
vt 0.108432650566 0.208520531654 0.000000000000
vt 0.100062832236 0.208520531654 0.000000000000
vt 0.097055539489 0.208520501852 0.000000000000
vt 0.094064399600 0.208520531654 0.000000000000
vt 0.091153249145 0.208520531654 0.000000000000
vt 0.088376924396 0.208520531654 0.000000000000
vt 0.085779681802 0.208520531654 0.000000000000
vt 0.083395674825 0.208520531654 0.000000000000
vt 0.530000269413 0.000000111759 1.000000000000
vt 0.590000271797 0.000000000000 1.000000000000
vt 0.590000271797 0.000000081956 1.000000000000
vt 0.630000293255 0.000000007451 1.000000000000
vt 0.670000433922 0.000000000000 1.000000119209
vt 0.670000314713 0.000000000000 1.000000000000
vt 0.710000395775 0.000000007451 1.000000119209
vt 0.730000138283 0.000000000000 1.000000000000
vt 0.749999940395 0.000000000000 1.000000000000
vt 0.292178153992 0.540613949299 0.000000000000
vt 0.294166475534 0.540350854397 0.000000000000
vt 0.294166475534 0.540614008904 0.000000000000
vt 0.705833196640 0.540350854397 0.000000000000
vt 0.707821607590 0.540613949299 0.000000000000
vt 0.705833196640 0.540613949299 0.000000000000
vt 0.999999642372 0.999999940395 0.000000000000
vt 0.894140899181 0.271678447723 0.000000000000
vt 0.999999880791 0.271678447723 0.000000000000
vt 0.737499654293 0.999999880791 0.000000000000
vt 0.737499833107 0.673684179783 0.000000000000
vt 0.891345024109 0.271678388119 0.000000000000
vt 0.888238906860 0.271678388119 0.000000000000
vt 0.884855031967 0.271678388119 0.000000000000
vt 0.881237745285 0.271678388119 0.000000000000
vt 0.877444863319 0.271678447723 0.000000000000
vt 0.873547554016 0.271678447723 0.000000000000
vt 0.869629621506 0.271678447723 0.000000000000
vt 0.865785241127 0.271678447723 0.000000000000
vt 0.862115442753 0.271678388119 0.000000000000
vt 0.858724594116 0.271678447723 0.000000000000
vt 0.737250089645 0.656973361969 0.000000000000
vt 0.736504971981 0.640525758266 0.000000000000
vt 0.735276162624 0.624601185322 0.000000000000
vt 0.733582913876 0.609450578690 0.000000000000
vt 0.731452047825 0.595313012600 0.000000000000
vt 0.105859011412 0.271678417921 0.000000000000
vt -0.000000417233 1.000000000000 0.000000000000
vt -0.000000119209 0.271678388119 0.000000000000
vt 0.262499660254 1.000000000000 0.000000000000
vt 0.262499749660 0.673684120178 0.000000000000
vt 0.108654953539 0.271678417921 0.000000000000
vt 0.111761078238 0.271678417921 0.000000000000
vt 0.115145027637 0.271678417921 0.000000000000
vt 0.118762239814 0.271678388119 0.000000000000
vt 0.122555077076 0.271678417921 0.000000000000
vt 0.126452371478 0.271678417921 0.000000000000
vt 0.130370378494 0.271678417921 0.000000000000
vt 0.134214818478 0.271678417921 0.000000000000
vt 0.137884348631 0.271678417921 0.000000000000
vt 0.141275316477 0.271678417921 0.000000000000
vt 0.144287452102 0.271678388119 0.000000000000
vt 0.146830290556 0.271678417921 0.000000000000
vt 0.147901445627 0.271678417921 0.000000000000
vt 0.262749433517 0.656972944736 0.000000000000
vt 0.263494670391 0.640525400639 0.000000000000
vt 0.264723539352 0.624600827694 0.000000000000
vt 0.266416728497 0.609450280666 0.000000000000
vt 0.268547594547 0.595312714577 0.000000000000
vt 0.271082460880 0.582411110401 0.000000000000
vt 0.273981392384 0.570948958397 0.000000000000
vt 0.354879856110 0.271678417921 0.000000000000
vt 0.277198642492 0.561107039452 0.000000000000
vt 0.280683457851 0.553040504456 0.000000000000
vt 0.284380972385 0.546876609325 0.000000000000
vt 0.288232803345 0.542712569237 0.000000000000
vt 0.355706363916 0.271678417921 0.000000000000
vt 0.356305927038 0.271678417921 0.000000000000
vt 0.711767017841 0.542712628841 0.000000000000
vt 0.715618729591 0.546876728535 0.000000000000
vt 0.719316244125 0.553040683270 0.000000000000
vt 0.722801089287 0.561107218266 0.000000000000
vt 0.999999880791 0.271678417921 0.000000000000
vt 0.894140839577 0.271678417921 0.000000000000
vt 0.891344904900 0.271678417921 0.000000000000
vt 0.888238787651 0.271678417921 0.000000000000
vt 0.884854912758 0.271678447723 0.000000000000
vt 0.881237626076 0.271678417921 0.000000000000
vt 0.877444863319 0.271678417921 0.000000000000
vt 0.873547554016 0.271678417921 0.000000000000
vt 0.869629561901 0.271678358316 0.000000000000
vt 0.865785121918 0.271678447723 0.000000000000
vt 0.862115502357 0.271678417921 0.000000000000
vt 0.855712473392 0.271678447723 0.000000000000
vt 0.356305986643 0.271678447723 0.000000000000
vt 0.355706453323 0.271678447723 0.000000000000
vt 0.354879885912 0.271678417921 0.000000000000
vt 0.146830275655 0.271678417921 0.000000000000
vt 0.144287496805 0.271678417921 0.000000000000
vt 0.137884393334 0.271678417921 0.000000000000
vt 0.134214863181 0.271678447723 0.000000000000
vt 0.130370408297 0.271678417921 0.000000000000
vt 0.126452356577 0.271678417921 0.000000000000
vt 0.122555136681 0.271678447723 0.000000000000
vt 0.118762299418 0.271678447723 0.000000000000
vt 0.115145072341 0.271678447723 0.000000000000
vt 0.111761122942 0.271678417921 0.000000000000
vt 0.108655020595 0.271678447723 0.000000000000
vt 0.000000000000 0.271678447723 0.000000000000
vt 0.105859056115 0.000000047684 0.000000000000
vt -0.000000031789 0.000000047684 0.000000000000
vt 0.108654931188 0.000000047684 0.000000000000
vt 0.111761063337 0.000000047684 0.000000000000
vt 0.115144982934 0.000000047684 0.000000000000
vt 0.118762202561 0.000000047684 0.000000000000
vt 0.122555032372 0.000000047684 0.000000000000
vt 0.126452311873 0.000000047684 0.000000000000
vt 0.130370333791 0.000000047684 0.000000000000
vt 0.134214803576 0.000000047684 0.000000000000
vt 0.137884363532 0.000000047684 0.000000000000
vt 0.141275301576 0.000000047684 0.000000000000
vt 0.144287467003 0.000000047684 0.000000000000
vt 0.643694043159 0.000000047684 0.000000000000
vt 0.644293546677 0.000000047684 0.000000000000
vt 0.645120084286 0.000000047684 0.000000000000
vt 0.852098524570 0.000000047684 0.000000000000
vt 0.853169679642 0.000000047684 0.000000000000
vt 0.855712473392 0.000000047684 0.000000000000
vt 0.858724653721 0.000000047684 0.000000000000
vt 0.862115561962 0.000000047684 0.000000000000
vt 0.865785181522 0.000000047684 0.000000000000
vt 0.869629621506 0.000000047684 0.000000000000
vt 0.873547554016 0.000000047684 0.000000000000
vt 0.877444922924 0.000000047684 0.000000000000
vt 0.881237745285 0.000000047684 0.000000000000
vt 0.884855031967 0.000000047684 0.000000000000
vt 0.888238787651 0.000000047684 0.000000000000
vt 0.891345083714 0.000000047684 0.000000000000
vt 1.000000000000 -0.000000119209 0.000000000000
vt 0.918750405312 0.000000047684 0.000000000000
vt 0.916604518890 0.000000047684 0.000000000000
vt 0.914220452309 0.000000047684 0.000000000000
vt 0.911623239517 0.000000047684 0.000000000000
vt 0.908846914768 0.000000047684 0.000000000000
vt 0.905935764313 0.000000047684 0.000000000000
vt 0.902944505215 0.000000047684 0.000000000000
vt 0.899937331676 0.000000047684 0.000000000000
vt 0.896986544132 0.000000047684 0.000000000000
vt 0.894170105457 0.000000047684 0.000000000000
vt 0.891567468643 0.000000047684 0.000000000000
vt 0.889255583286 0.000000047684 0.000000000000
vt 0.273474514484 0.000000047684 0.000000000000
vt 0.273014366627 0.000000047684 0.000000000000
vt 0.272379994392 0.000000047684 0.000000000000
vt 0.113518454134 0.000000047684 0.000000000000
vt 0.112696297467 0.000000047684 0.000000000000
vt 0.110744625330 0.000000047684 0.000000000000
vt 0.108432739973 0.000000047684 0.000000000000
vt 0.105830103159 0.000000047684 0.000000000000
vt 0.103013604879 0.000000047684 0.000000000000
vt 0.100062876940 0.000000047684 0.000000000000
vt 0.097055688500 0.000000047684 0.000000000000
vt 0.094064429402 0.000000047684 0.000000000000
vt 0.091153331101 0.000000047684 0.000000000000
vt 0.088376991451 0.000000047684 0.000000000000
vt 0.085779733956 0.000000047684 0.000000000000
vt 0.083395697176 0.000000047684 0.000000000000
vt 1.000000000000 1.000000119209 0.000000000000
vt 0.999999761581 -0.000000059605 0.000000000000
vt 1.000000000000 0.000000136239 0.000000000000
vt 0.000000000000 0.714285910130 0.000000000000
vt 0.000000000000 0.000000136239 0.000000000000
vt 0.285714149475 1.000000000000 0.000000000000
vt 0.999999821186 0.000000000000 0.000000000000
vt 0.999999880791 1.000000000000 0.000000000000
vt 0.238765478134 0.999999523163 0.000000000000
vt -0.046948671341 3.499999284744 0.000000000000
vt -0.046948846430 0.000000124806 0.000000000000
vt 0.000000000000 0.714285850525 0.000000000000
vt 1.000000000000 0.714285910130 0.000000000000
vt 0.999999940395 0.238765358925 0.000000000000
vt 0.000000034060 1.000000000000 0.000000000000
vt 0.000000008132 0.238765448332 0.000000000000
vt -0.000000034060 3.664320945740 0.000000000000
vt 0.285714119673 1.000000000000 0.000000000000
vt 0.285714209080 3.664320945740 0.000000000000
vt 0.285714119673 0.999999940395 0.000000000000
vt 0.999999940395 -0.046948842704 0.000000000000
vt 0.999999880791 0.000000000000 0.000000000000
vt 0.285714238882 0.999999880791 0.000000000000
vt 1.000000000000 0.999999403954 0.000000000000
vt 0.000000000000 0.999999403954 0.000000000000
vt 0.000000000000 -0.046948909760 0.000000000000
vt 1.000000000000 0.000000029724 0.000000000000
vt 0.238765493035 0.999999582767 0.000000000000
vt 0.238765478134 3.499999284744 0.000000000000
vt 0.000000119209 0.000000119209 0.000000000000
vt 1.000000000000 0.000000119209 0.000000000000
vt 0.000000000000 0.000000119209 0.000000000000
vt 0.000000059605 1.000000000000 0.000000000000
vt 0.000000119209 0.000000000000 0.000000000000
vt 0.000000119209 1.000000000000 0.000000000000
vt -0.000000059605 0.000000000000 0.000000000000
vt 0.000000000000 0.999999940395 0.000000000000
vt 0.999999821186 0.999999940395 0.000000000000
vt 0.238765448332 0.999999523163 0.000000000000
vt 0.999999940395 0.238765329123 0.000000000000
vt 0.000000034060 0.999999880791 0.000000000000
vt 0.000000008132 0.238765418530 0.000000000000
vt -0.000000034060 3.664320468903 0.000000000000
vt 0.285714387894 3.664320468903 0.000000000000
vt -0.000000000000 0.999999880791 0.000000000000
vt 1.000000000000 0.999999880791 0.000000000000
vt 0.285714209080 0.999999821186 0.000000000000
vt 0.000000034060 0.999999821186 0.000000000000
vt 0.999999642372 1.000000000000 0.000000000000
vt 0.000000000000 0.999999880791 0.000000000000
vt 0.999999821186 1.000000357628 0.000000000000
vt 0.238765463233 0.999999523163 0.000000000000
vt 0.999999821186 0.000000119209 0.000000000000
vt 0.238765463233 0.999999344349 0.000000000000
vt 0.238765448332 3.499999523163 0.000000000000
vt 1.000000000000 1.000000357628 0.000000000000
vt 0.999999940395 0.999999880791 0.000000000000
vt 0.000000119209 0.999999940395 0.000000000000
vt 0.999999880791 0.999999940395 0.000000000000
# 414 texture coords

g Box001
s 1
f 1/1/1 2/2/2 3/3/2 
f 4/4/3 5/5/4 6/6/3 
s 2
f 7/6/5 8/2/5 9/3/5 
s 1
f 10/7/6 11/8/6 12/9/6 
s 2
f 13/10/6 2/11/6 14/12/6 
f 6/13/6 15/14/6 4/15/6 
s 1
f 16/16/7 15/17/2 17/18/2 
f 18/4/8 13/19/3 14/2/3 
s 2
f 19/20/2 12/21/2 11/2/2 
s 1
f 20/22/9 19/23/10 21/24/11 
f 21/24/11 22/25/12 20/26/9 
f 23/27/13 24/28/14 22/29/12 
f 24/30/14 25/31/15 26/32/15 
f 27/33/16 26/34/15 25/35/15 
f 28/36/17 29/37/18 27/38/16 
f 28/39/17 30/40/19 31/41/20 
f 30/42/19 32/43/21 33/44/21 
f 34/45/22 33/46/21 32/43/21 
f 35/47/22 36/48/23 37/49/24 
f 37/50/24 38/51/25 39/52/26 
f 39/53/26 40/54/27 41/55/27 
f 40/54/27 16/56/7 41/57/27 
s 4
f 23/58/28 42/2/28 43/59/28 
s 2
f 44/60/3 45/61/3 10/62/3 
s 4
f 7/63/29 46/64/29 47/65/29 
s 1
f 48/66/30 44/67/31 49/68/32 
f 50/69/33 49/70/32 51/71/33 
f 52/72/34 51/73/33 53/74/34 
f 54/75/35 53/76/34 55/77/36 
f 56/78/37 54/79/35 55/77/36 
f 57/80/38 56/81/37 58/82/39 
f 59/83/40 58/84/39 60/85/41 
f 61/86/42 60/87/41 62/88/42 
f 63/89/43 61/86/42 62/90/42 
f 64/91/44 63/92/43 65/93/44 
f 66/94/45 64/95/44 65/96/44 
f 67/97/46 68/98/47 66/99/45 
f 69/100/48 70/101/46 67/97/46 
s 4
f 58/102/29 71/103/29 60/104/29 
f 72/105/29 73/106/29 74/107/29 
s 2
f 75/3/6 72/108/6 5/109/6 
s 1
f 76/110/1 77/111/49 78/112/49 
s 2
f 46/113/5 79/6/5 47/114/5 
s 4
f 78/115/29 75/116/29 79/117/29 
s 1
f 5/4/4 79/118/50 75/6/50 
f 8/4/2 76/119/1 9/6/2 
f 2/2/2 76/119/1 8/4/2 
f 2/2/2 1/1/1 76/119/1 
f 47/120/4 42/2/3 7/3/3 
f 47/120/4 4/4/3 42/2/3 
f 5/5/4 4/4/3 47/120/4 
s 2
f 8/2/5 7/6/5 42/4/5 
s 1
f 11/8/6 10/7/6 45/15/6 
s 2
f 2/11/6 13/10/6 3/121/6 
f 15/14/6 6/13/6 17/122/6 
s 1
f 15/17/2 16/16/7 80/2/51 
f 13/19/3 18/4/8 69/123/48 
s 2
f 12/21/2 19/20/2 81/124/2 
s 1
f 19/23/10 20/22/9 81/125/10 
f 22/25/12 21/24/11 23/126/13 
f 24/28/14 23/27/13 43/127/52 
f 25/31/15 24/30/14 43/128/52 
f 26/34/15 27/33/16 29/129/18 
f 29/37/18 28/36/17 31/130/20 
f 30/40/19 28/39/17 82/131/53 
f 32/43/21 30/42/19 82/132/53 
f 33/46/21 34/45/22 35/133/22 
f 36/48/23 35/47/22 34/134/22 
f 38/51/25 37/50/24 36/135/23 
f 40/54/27 39/53/26 38/136/25 
f 16/56/7 40/54/27 80/137/51 
s 4
f 11/138/28 21/139/28 19/140/28 
f 48/141/28 45/142/28 83/143/28 
f 2/144/28 18/145/28 14/146/28 
f 8/147/28 18/145/28 2/144/28 
f 8/147/28 70/148/28 18/145/28 
f 8/147/28 68/149/28 70/148/28 
f 8/147/28 64/150/28 68/149/28 
f 8/147/28 84/151/28 64/150/28 
f 80/152/28 4/153/28 15/154/28 
f 80/152/28 42/2/28 4/153/28 
f 40/155/28 42/2/28 80/152/28 
f 38/156/28 42/2/28 40/155/28 
f 36/157/28 42/2/28 38/156/28 
f 34/158/28 42/2/28 36/157/28 
f 8/147/28 61/159/28 84/151/28 
f 32/160/28 42/2/28 34/158/28 
f 8/147/28 59/161/28 61/159/28 
f 82/162/28 42/2/28 32/160/28 
f 8/147/28 57/163/28 59/161/28 
f 28/164/28 42/2/28 82/162/28 
f 8/147/28 85/165/28 57/163/28 
f 27/166/28 42/2/28 28/164/28 
f 8/147/28 54/167/28 85/165/28 
f 25/168/28 42/2/28 27/166/28 
f 8/147/28 52/169/28 54/167/28 
f 43/59/28 42/2/28 25/168/28 
f 8/147/28 50/170/28 52/169/28 
f 42/2/28 50/170/28 8/147/28 
f 42/2/28 48/141/28 50/170/28 
f 42/2/28 45/142/28 48/141/28 
f 42/2/28 11/138/28 45/142/28 
f 42/2/28 21/139/28 11/138/28 
f 42/2/28 23/58/28 21/139/28 
s 2
f 45/61/3 44/60/3 83/171/3 
s 4
f 86/172/29 9/173/29 76/174/29 
f 86/172/29 7/63/29 9/173/29 
f 87/175/29 7/63/29 86/172/29 
f 88/176/29 7/63/29 87/175/29 
f 89/177/29 7/63/29 88/176/29 
f 90/178/29 7/63/29 89/177/29 
f 91/179/29 7/63/29 90/178/29 
f 92/180/29 7/63/29 91/179/29 
f 93/181/29 7/63/29 92/180/29 
f 94/182/29 7/63/29 93/181/29 
f 95/183/29 7/63/29 94/182/29 
f 96/184/29 7/63/29 95/183/29 
f 97/185/29 7/63/29 96/184/29 
f 98/186/29 7/63/29 97/185/29 
f 99/187/29 7/63/29 98/186/29 
f 100/188/29 7/63/29 99/187/29 
f 101/189/29 7/63/29 100/188/29 
f 102/190/29 7/63/29 101/189/29 
f 103/191/29 7/63/29 102/190/29 
f 104/192/29 7/63/29 103/191/29 
f 74/107/29 7/63/29 104/192/29 
f 73/106/29 7/63/29 74/107/29 
f 105/193/29 7/63/29 73/106/29 
f 106/194/29 7/63/29 105/193/29 
f 107/195/29 7/63/29 106/194/29 
f 108/196/29 7/63/29 107/195/29 
f 109/197/29 7/63/29 108/196/29 
f 110/198/29 7/63/29 109/197/29 
f 111/199/29 7/63/29 110/198/29 
f 46/64/29 7/63/29 111/199/29 
s 1
f 44/67/31 48/66/30 83/23/31 
f 49/70/32 50/69/33 48/66/30 
f 51/73/33 52/72/34 50/200/33 
f 53/76/34 54/75/35 52/72/34 
f 54/79/35 56/78/37 85/201/37 
f 56/81/37 57/80/38 85/202/37 
f 58/84/39 59/83/40 57/80/38 
f 60/87/41 61/86/42 59/203/40 
f 61/86/42 63/89/43 84/204/54 
f 63/92/43 64/91/44 84/205/54 
f 64/95/44 66/94/45 68/206/47 
f 68/98/47 67/97/46 70/207/46 
f 70/101/46 69/100/48 18/208/8 
s 4
f 20/209/29 12/210/29 81/211/29 
f 10/212/29 49/213/29 44/214/29 
f 3/215/29 112/216/29 1/217/29 
f 13/218/29 112/216/29 3/215/29 
f 69/219/29 112/216/29 13/218/29 
f 69/219/29 113/220/29 112/216/29 
f 69/219/29 114/221/29 113/220/29 
f 69/219/29 115/222/29 114/221/29 
f 69/219/29 116/223/29 115/222/29 
f 69/219/29 117/224/29 116/223/29 
f 69/219/29 118/225/29 117/224/29 
f 69/219/29 119/226/29 118/225/29 
f 69/219/29 120/227/29 119/226/29 
f 69/219/29 121/228/29 120/227/29 
f 69/219/29 122/229/29 121/228/29 
f 69/219/29 71/103/29 122/229/29 
f 67/230/29 71/103/29 69/219/29 
f 66/231/29 71/103/29 67/230/29 
f 65/232/29 71/103/29 66/231/29 
f 63/233/29 71/103/29 65/232/29 
f 62/234/29 71/103/29 63/233/29 
f 72/235/29 6/236/29 5/237/29 
f 72/235/29 17/238/29 6/236/29 
f 72/235/29 16/239/29 17/238/29 
f 123/240/29 16/239/29 72/235/29 
f 124/241/29 16/239/29 123/240/29 
f 125/242/29 16/239/29 124/241/29 
f 126/243/29 16/239/29 125/242/29 
f 127/244/29 16/239/29 126/243/29 
f 128/245/29 16/239/29 127/244/29 
f 129/246/29 16/239/29 128/245/29 
f 130/247/29 16/239/29 129/246/29 
f 131/248/29 16/239/29 130/247/29 
f 132/249/29 16/239/29 131/248/29 
f 133/250/29 16/239/29 132/249/29 
f 134/251/29 16/239/29 133/250/29 
f 135/252/29 16/239/29 134/251/29 
f 135/252/29 41/253/29 16/239/29 
f 135/252/29 39/254/29 41/253/29 
f 135/252/29 37/255/29 39/254/29 
f 135/252/29 35/256/29 37/255/29 
f 135/252/29 33/257/29 35/256/29 
f 135/252/29 30/258/29 33/257/29 
f 60/104/29 71/103/29 62/234/29 
f 135/252/29 31/259/29 30/258/29 
f 136/260/29 31/259/29 135/252/29 
f 136/260/29 29/261/29 31/259/29 
f 136/260/29 26/262/29 29/261/29 
f 136/260/29 24/263/29 26/262/29 
f 136/260/29 22/264/29 24/263/29 
f 136/260/29 20/209/29 22/264/29 
f 136/260/29 12/210/29 20/209/29 
f 136/260/29 10/212/29 12/210/29 
f 137/265/29 10/212/29 136/260/29 
f 138/266/29 10/212/29 137/265/29 
f 71/103/29 10/212/29 138/266/29 
f 71/103/29 49/213/29 10/212/29 
f 71/103/29 51/267/29 49/213/29 
f 71/103/29 53/268/29 51/267/29 
f 71/103/29 55/269/29 53/268/29 
f 71/103/29 56/270/29 55/269/29 
f 71/103/29 58/102/29 56/270/29 
f 1/271/29 86/172/29 76/174/29 
f 112/272/29 86/172/29 1/271/29 
f 112/272/29 87/175/29 86/172/29 
f 112/272/29 88/176/29 87/175/29 
f 112/272/29 89/177/29 88/176/29 
f 112/272/29 90/178/29 89/177/29 
f 112/272/29 91/179/29 90/178/29 
f 112/272/29 92/180/29 91/179/29 
f 112/272/29 93/181/29 92/180/29 
f 112/272/29 94/182/29 93/181/29 
f 112/272/29 95/183/29 94/182/29 
f 112/272/29 96/184/29 95/183/29 
f 113/273/29 96/184/29 112/272/29 
f 113/273/29 97/185/29 96/184/29 
f 114/274/29 97/185/29 113/273/29 
f 114/274/29 98/186/29 97/185/29 
f 115/275/29 98/186/29 114/274/29 
f 116/276/29 98/186/29 115/275/29 
f 117/277/29 98/186/29 116/276/29 
f 118/278/29 98/186/29 117/277/29 
f 119/279/29 98/186/29 118/278/29 
f 120/280/29 98/186/29 119/279/29 
f 121/281/29 98/186/29 120/280/29 
f 122/229/29 98/186/29 121/281/29 
f 71/282/29 98/186/29 122/229/29 
f 138/283/29 98/186/29 71/282/29 
f 137/284/29 98/186/29 138/283/29 
f 136/285/29 98/186/29 137/284/29 
f 135/252/29 98/186/29 136/285/29 
f 135/252/29 99/187/29 98/186/29 
f 135/252/29 100/188/29 99/187/29 
f 135/252/29 101/189/29 100/188/29 
f 134/286/29 101/189/29 135/252/29 
f 133/287/29 101/189/29 134/286/29 
f 132/249/29 101/189/29 133/287/29 
f 131/288/29 101/189/29 132/249/29 
f 130/289/29 101/189/29 131/288/29 
f 129/290/29 101/189/29 130/289/29 
f 128/291/29 101/189/29 129/290/29 
f 127/292/29 101/189/29 128/291/29 
f 126/293/29 101/189/29 127/292/29 
f 125/294/29 101/189/29 126/293/29 
f 124/295/29 101/189/29 125/294/29 
f 124/295/29 102/190/29 101/189/29 
f 124/295/29 103/191/29 102/190/29 
f 123/296/29 103/191/29 124/295/29 
f 123/296/29 104/192/29 103/191/29 
f 72/105/29 104/192/29 123/296/29 
f 72/105/29 74/107/29 104/192/29 
f 46/64/29 5/297/29 47/65/29 
f 46/64/29 72/105/29 5/297/29 
f 111/199/29 72/105/29 46/64/29 
f 110/198/29 72/105/29 111/199/29 
f 109/197/29 72/105/29 110/198/29 
f 108/196/29 72/105/29 109/197/29 
f 107/195/29 72/105/29 108/196/29 
f 106/194/29 72/105/29 107/195/29 
f 105/193/29 72/105/29 106/194/29 
f 73/106/29 72/105/29 105/193/29 
s 2
f 112/298/6 77/6/6 1/299/6 
f 112/298/6 75/3/6 77/6/6 
f 113/300/6 75/3/6 112/298/6 
f 114/301/6 75/3/6 113/300/6 
f 115/302/6 75/3/6 114/301/6 
f 116/303/6 75/3/6 115/302/6 
f 117/304/6 75/3/6 116/303/6 
f 118/305/6 75/3/6 117/304/6 
f 119/306/6 75/3/6 118/305/6 
f 120/307/6 75/3/6 119/306/6 
f 121/308/6 75/3/6 120/307/6 
f 122/309/6 75/3/6 121/308/6 
f 71/310/6 75/3/6 122/309/6 
f 138/311/6 75/3/6 71/310/6 
f 137/312/6 75/3/6 138/311/6 
f 136/313/6 75/3/6 137/312/6 
f 135/314/6 75/3/6 136/313/6 
f 134/315/6 75/3/6 135/314/6 
f 133/316/6 75/3/6 134/315/6 
f 132/317/6 75/3/6 133/316/6 
f 131/318/6 75/3/6 132/317/6 
f 130/319/6 75/3/6 131/318/6 
f 129/320/6 75/3/6 130/319/6 
f 128/321/6 75/3/6 129/320/6 
f 127/322/6 75/3/6 128/321/6 
f 126/323/6 75/3/6 127/322/6 
f 125/324/6 75/3/6 126/323/6 
f 124/325/6 75/3/6 125/324/6 
f 123/326/6 75/3/6 124/325/6 
f 72/108/6 75/3/6 123/326/6 
s 1
f 77/111/49 76/110/1 1/327/1 
s 2
f 78/3/5 86/328/5 76/109/5 
f 79/6/5 86/328/5 78/3/5 
f 79/6/5 87/329/5 86/328/5 
f 79/6/5 88/330/5 87/329/5 
f 79/6/5 89/331/5 88/330/5 
f 79/6/5 90/332/5 89/331/5 
f 79/6/5 91/333/5 90/332/5 
f 79/6/5 92/334/5 91/333/5 
f 79/6/5 93/335/5 92/334/5 
f 79/6/5 94/336/5 93/335/5 
f 79/6/5 95/337/5 94/336/5 
f 79/6/5 96/338/5 95/337/5 
f 79/6/5 97/339/5 96/338/5 
f 79/6/5 98/340/5 97/339/5 
f 79/6/5 99/341/5 98/340/5 
f 79/6/5 100/342/5 99/341/5 
f 79/6/5 101/343/5 100/342/5 
f 79/6/5 102/344/5 101/343/5 
f 79/6/5 103/345/5 102/344/5 
f 79/6/5 104/346/5 103/345/5 
f 79/6/5 74/347/5 104/346/5 
f 79/6/5 73/348/5 74/347/5 
f 79/6/5 105/349/5 73/348/5 
f 79/6/5 106/350/5 105/349/5 
f 79/6/5 107/351/5 106/350/5 
f 79/6/5 108/352/5 107/351/5 
f 79/6/5 109/353/5 108/352/5 
f 79/6/5 110/354/5 109/353/5 
f 79/6/5 111/355/5 110/354/5 
f 79/6/5 46/113/5 111/355/5 
s 4
f 75/116/29 78/115/29 77/356/29 
s 1
f 79/118/50 5/4/4 47/357/4 
f 139/4/5 140/3/5 141/6/5 
s 2
f 140/358/29 142/359/29 141/360/29 
s 4
f 142/361/3 139/362/3 141/363/3 
s 1
f 140/3/5 139/4/5 143/2/5 
s 2
f 139/358/28 144/6/28 143/360/28 
s 4
f 145/364/2 143/365/2 144/366/2 
s 2
f 144/6/28 139/358/28 146/3/28 
f 142/367/29 140/358/29 145/368/29 
s 1
f 145/369/5 147/370/5 142/371/5 
s 4
f 148/372/3 142/373/3 147/374/3 
f 146/4/3 142/375/3 148/372/3 
s 1
f 149/6/6 146/376/6 148/3/6 
s 4
f 139/377/3 142/378/3 146/4/3 
s 1
f 147/370/5 145/369/5 150/3/5 
s 2
f 149/4/29 147/379/29 150/380/29 
s 1
f 146/376/6 149/6/6 144/381/6 
s 4
f 145/364/2 149/382/2 150/379/2 
f 145/364/2 144/366/2 149/115/2 
f 143/365/2 145/383/2 140/384/2 
s 2
f 147/379/29 149/385/29 148/386/29 
s 1
f 151/386/28 152/3/28 153/6/28 
f 153/6/28 154/387/28 151/386/28 
s 2
f 151/4/5 154/2/5 155/3/5 
s 1
f 156/387/29 155/386/29 157/3/29 
f 157/3/29 158/388/29 156/387/29 
s 2
f 155/3/5 156/6/5 151/4/5 
s 4
f 154/389/2 153/2/2 157/3/2 
f 157/13/2 155/390/2 154/389/2 
s 2
f 153/4/6 152/2/6 158/3/6 
f 158/3/6 157/6/6 153/4/6 
s 4
f 152/391/3 151/377/3 156/363/3 
f 156/363/3 158/6/3 152/4/3 
s 1
f 159/4/5 160/13/5 161/392/5 
s 2
f 160/358/29 162/359/29 161/360/29 
s 4
f 162/361/3 159/362/3 161/393/3 
s 1
f 160/13/5 159/4/5 163/2/5 
s 2
f 159/358/28 164/6/28 163/360/28 
s 4
f 165/394/2 163/365/2 164/366/2 
s 2
f 164/6/28 159/358/28 166/3/28 
f 162/367/29 160/358/29 165/368/29 
s 1
f 165/395/55 167/396/55 162/397/55 
s 4
f 168/398/3 162/373/3 167/399/3 
f 166/4/3 162/361/3 168/398/3 
s 1
f 169/400/6 166/376/6 168/401/6 
s 4
f 159/377/3 162/402/3 166/4/3 
s 1
f 167/403/55 165/369/55 170/401/55 
s 2
f 169/4/29 167/404/29 170/6/29 
s 1
f 166/376/6 169/405/6 164/381/6 
s 4
f 165/394/2 169/362/2 170/406/2 
f 165/407/2 164/366/2 169/408/2 
f 163/365/2 165/409/2 160/410/2 
s 2
f 167/411/29 169/385/29 168/386/29 
s 1
f 171/386/28 172/3/28 173/6/28 
f 173/6/28 174/387/28 171/386/28 
s 2
f 171/4/5 174/2/5 175/13/5 
s 1
f 176/387/29 175/386/29 177/3/29 
f 177/3/29 178/6/29 176/387/29 
s 2
f 175/412/5 176/392/5 171/4/5 
s 4
f 174/389/2 173/2/2 177/13/2 
f 177/412/2 175/413/2 174/389/2 
s 2
f 173/4/6 172/2/6 178/13/6 
f 178/412/6 177/392/6 173/4/6 
s 4
f 172/4/3 171/377/3 176/414/3 
f 176/414/3 178/392/3 172/4/3 
s 1
f 179/4/5 180/3/5 181/6/5 
s 2
f 180/358/29 182/359/29 181/360/29 
s 4
f 182/361/3 179/362/3 181/363/3 
s 1
f 180/3/5 179/4/5 183/2/5 
s 2
f 179/358/28 184/6/28 183/360/28 
s 4
f 185/364/2 183/365/2 184/366/2 
s 2
f 184/6/28 179/358/28 186/3/28 
f 182/367/29 180/358/29 185/368/29 
s 1
f 185/369/5 187/370/5 182/371/5 
s 4
f 188/372/3 182/373/3 187/374/3 
f 186/4/3 182/375/3 188/372/3 
s 1
f 189/6/6 186/376/6 188/3/6 
s 4
f 179/377/3 182/378/3 186/4/3 
s 1
f 187/370/5 185/369/5 190/3/5 
s 2
f 189/4/29 187/379/29 190/380/29 
s 1
f 186/376/6 189/6/6 184/381/6 
s 4
f 185/364/2 189/382/2 190/379/2 
f 185/364/2 184/366/2 189/115/2 
f 183/365/2 185/383/2 180/384/2 
s 2
f 187/379/29 189/385/29 188/386/29 
s 1
f 191/386/28 192/3/28 193/6/28 
f 193/6/28 194/387/28 191/386/28 
s 2
f 191/4/5 194/2/5 195/3/5 
s 1
f 196/387/29 195/386/29 197/3/29 
f 197/3/29 198/388/29 196/387/29 
s 2
f 195/3/5 196/6/5 191/4/5 
s 4
f 194/389/2 193/2/2 197/3/2 
f 197/13/2 195/390/2 194/389/2 
s 2
f 193/4/6 192/2/6 198/3/6 
f 198/3/6 197/6/6 193/4/6 
s 4
f 192/391/3 191/377/3 196/363/3 
f 196/363/3 198/6/3 192/4/3 
# 428 faces

