<?xml version="1.0" encoding="UTF-8" standalone="no" ?>
<COLLADA xmlns="http://www.collada.org/2005/11/COLLADASchema" version="1.4.1">
  <asset>
    <contributor>
      <author>Assimp</author>
      <authoring_tool>Assimp Exporter</authoring_tool>
    </contributor>
    <created>2025-12-28T00:07:48</created>
    <modified>2025-12-28T00:07:48</modified>
    <unit name="meter" meter="1" />
    <up_axis>Y_UP</up_axis>
  </asset>
  <library_images>
  </library_images>
  <library_effects>
    <effect id="material_0-fx" name="">
      <profile_COMMON>
        <technique sid="standard">
          <phong>
            <emission>
              <color sid="emission">0   0   0   -nan</color>
            </emission>
            <ambient>
              <color sid="ambient">0.800000012   0.730000019   0.699999988   0</color>
            </ambient>
            <diffuse>
              <color sid="diffuse">0.800000012   0.730000019   0.699999988   0</color>
            </diffuse>
            <specular>
              <color sid="specular">0.5   0.5   0.5   8.1645573e-36</color>
            </specular>
          </phong>
        </technique>
      </profile_COMMON>
    </effect>
    <effect id="material_1-fx" name="">
      <profile_COMMON>
        <technique sid="standard">
          <phong>
            <emission>
              <color sid="emission">0   0   0   -nan</color>
            </emission>
            <ambient>
              <color sid="ambient">0.569999993   0.469999999   0.469999999   0</color>
            </ambient>
            <diffuse>
              <color sid="diffuse">0.569999993   0.469999999   0.469999999   0</color>
            </diffuse>
            <specular>
              <color sid="specular">0.5   0.5   0.5   8.1645573e-36</color>
            </specular>
          </phong>
        </technique>
      </profile_COMMON>
    </effect>
    <effect id="material_2-fx" name="">
      <profile_COMMON>
        <technique sid="standard">
          <phong>
            <emission>
              <color sid="emission">0   0   0   -nan</color>
            </emission>
            <ambient>
              <color sid="ambient">0.569999993   0.469999999   0.469999999   0</color>
            </ambient>
            <diffuse>
              <color sid="diffuse">0.569999993   0.469999999   0.469999999   0</color>
            </diffuse>
            <specular>
              <color sid="specular">0.5   0.5   0.5   8.1645573e-36</color>
            </specular>
          </phong>
        </technique>
      </profile_COMMON>
    </effect>
    <effect id="material_3-fx" name="">
      <profile_COMMON>
        <technique sid="standard">
          <phong>
            <emission>
              <color sid="emission">0   0   0   -nan</color>
            </emission>
            <ambient>
              <color sid="ambient">0.569999993   0.469999999   0.469999999   0</color>
            </ambient>
            <diffuse>
              <color sid="diffuse">0.569999993   0.469999999   0.469999999   0</color>
            </diffuse>
            <specular>
              <color sid="specular">0.5   0.5   0.5   8.1645573e-36</color>
            </specular>
          </phong>
        </technique>
      </profile_COMMON>
    </effect>
    <effect id="material_4-fx" name="">
      <profile_COMMON>
        <technique sid="standard">
          <phong>
            <emission>
              <color sid="emission">0   0   0   -nan</color>
            </emission>
            <ambient>
              <color sid="ambient">0.569999993   0.469999999   0.469999999   0</color>
            </ambient>
            <diffuse>
              <color sid="diffuse">0.569999993   0.469999999   0.469999999   0</color>
            </diffuse>
            <specular>
              <color sid="specular">0.5   0.5   0.5   8.1645573e-36</color>
            </specular>
          </phong>
        </technique>
      </profile_COMMON>
    </effect>
    <effect id="material_5-fx" name="">
      <profile_COMMON>
        <technique sid="standard">
          <phong>
            <emission>
              <color sid="emission">0   0   0   -nan</color>
            </emission>
            <ambient>
              <color sid="ambient">0.569999993   0.469999999   0.469999999   0</color>
            </ambient>
            <diffuse>
              <color sid="diffuse">0.569999993   0.469999999   0.469999999   0</color>
            </diffuse>
            <specular>
              <color sid="specular">0.5   0.5   0.5   8.1645573e-36</color>
            </specular>
          </phong>
        </technique>
      </profile_COMMON>
    </effect>
  </library_effects>
  <library_materials>
    <material id="material_0" name="">
      <instance_effect url="#material_0-fx"/>
    </material>
    <material id="material_1" name="">
      <instance_effect url="#material_1-fx"/>
    </material>
    <material id="material_2" name="">
      <instance_effect url="#material_2-fx"/>
    </material>
    <material id="material_3" name="">
      <instance_effect url="#material_3-fx"/>
    </material>
    <material id="material_4" name="">
      <instance_effect url="#material_4-fx"/>
    </material>
    <material id="material_5" name="">
      <instance_effect url="#material_5-fx"/>
    </material>
  </library_materials>
  <library_geometries>
    <geometry id="mesh_0" name="" >
      <mesh>
        <source id="mesh_0-positions" name="mesh_0-positions">
          <float_array id="mesh_0-positions-array" count="108"> 0.872500002 -0.422500014 0.904999971 -0.522499979 -0.422500014 0.904999971 0.872500002 0.372500002 0.904999971 0.872500002 0.372500002 0.904999971 -0.522499979 -0.422500014 0.904999971 -0.522499979 0.372500002 0.904999971 -0.522499979 -0.422500014 0.904999971 0.872500002 -0.422500014 0.904999971 0.872500002 -0.422500014 1.005 -0.522499979 -0.422500014 0.904999971 0.872500002 -0.422500014 1.005 -0.522499979 -0.422500014 1.005 0.872500002 0.372500002 0.904999971 -0.522499979 0.372500002 0.904999971 0.872500002 0.372500002 1.005 0.872500002 0.372500002 1.005 -0.522499979 0.372500002 0.904999971 -0.522499979 0.372500002 1.005 0.872500002 0.372500002 1.005 -0.522499979 0.372500002 1.005 0.872500002 -0.422500014 1.005 0.872500002 -0.422500014 1.005 -0.522499979 0.372500002 1.005 -0.522499979 -0.422500014 1.005 -0.522499979 0.372500002 0.904999971 -0.522499979 -0.422500014 0.904999971 -0.522499979 0.372500002 1.005 -0.522499979 0.372500002 1.005 -0.522499979 -0.422500014 0.904999971 -0.522499979 -0.422500014 1.005 0.872500002 -0.422500014 0.904999971 0.872500002 0.372500002 0.904999971 0.872500002 0.372500002 1.005 0.872500002 -0.422500014 0.904999971 0.872500002 0.372500002 1.005 0.872500002 -0.422500014 1.005 </float_array>
          <technique_common>
            <accessor count="36" offset="0" source="#mesh_0-positions-array" stride="3">
              <param name="X" type="float" />
              <param name="Y" type="float" />
              <param name="Z" type="float" />
            </accessor>
          </technique_common>
        </source>
        <source id="mesh_0-normals" name="mesh_0-normals">
          <float_array id="mesh_0-normals-array" count="108"> 0 0 -1 0 0 -1 0 0 -1 0 0 -1 0 0 -1 0 0 -1 0 -1 0 0 -1 0 0 -1 0 0 -1 0 0 -1 0 0 -1 0 0 1 0 0 1 0 0 1 0 0 1 0 0 1 0 0 1 0 0 0 1 0 0 1 0 0 1 0 0 1 0 0 1 0 0 1 -1 0 0 -1 0 0 -1 0 0 -1 0 0 -1 0 0 -1 0 0 1 0 0 1 0 0 1 0 0 1 0 0 1 0 0 1 0 0 </float_array>
          <technique_common>
            <accessor count="36" offset="0" source="#mesh_0-normals-array" stride="3">
              <param name="X" type="float" />
              <param name="Y" type="float" />
              <param name="Z" type="float" />
            </accessor>
          </technique_common>
        </source>
        <vertices id="mesh_0-vertices">
          <input semantic="POSITION" source="#mesh_0-positions" />
        </vertices>
        <polylist count="12" material="defaultMaterial">
          <input offset="0" semantic="VERTEX" source="#mesh_0-vertices" />
          <input offset="0" semantic="NORMAL" source="#mesh_0-normals" />
          <vcount>3 3 3 3 3 3 3 3 3 3 3 3 </vcount>
          <p>0 1 2 3 4 5 6 7 8 9 10 11 12 13 14 15 16 17 18 19 20 21 22 23 24 25 26 27 28 29 30 31 32 33 34 35 </p>
        </polylist>
      </mesh>
    </geometry>
    <geometry id="mesh_1" name="" >
      <mesh>
        <source id="mesh_1-positions" name="mesh_1-positions">
          <float_array id="mesh_1-positions-array" count="108"> -0.455000013 0.360000581 0.949999988 -0.50999999 0.360000581 0.949999988 -0.455000013 0.305000573 0.949999988 -0.455000013 0.305000573 0.949999988 -0.50999999 0.360000581 0.949999988 -0.51000005 0.305000603 0.949999988 -0.50999999 0.360000581 0.949999988 -0.455000013 0.360000581 0.949999988 -0.455000013 0.360000581 0.300000012 -0.50999999 0.360000581 0.949999988 -0.455000013 0.360000581 0.300000012 -0.50999999 0.360000581 0.300000012 -0.455000013 0.305000573 0.949999988 -0.51000005 0.305000603 0.949999988 -0.455000013 0.305000573 0.300000012 -0.455000013 0.305000573 0.300000012 -0.51000005 0.305000603 0.949999988 -0.51000005 0.305000603 0.300000012 -0.455000013 0.305000573 0.300000012 -0.51000005 0.305000603 0.300000012 -0.455000013 0.360000581 0.300000012 -0.455000013 0.360000581 0.300000012 -0.51000005 0.305000603 0.300000012 -0.50999999 0.360000581 0.300000012 -0.51000005 0.305000603 0.949999988 -0.50999999 0.360000581 0.949999988 -0.51000005 0.305000603 0.300000012 -0.51000005 0.305000603 0.300000012 -0.50999999 0.360000581 0.949999988 -0.50999999 0.360000581 0.300000012 -0.455000013 0.360000581 0.949999988 -0.455000013 0.305000573 0.949999988 -0.455000013 0.305000573 0.300000012 -0.455000013 0.360000581 0.949999988 -0.455000013 0.305000573 0.300000012 -0.455000013 0.360000581 0.300000012 </float_array>
          <technique_common>
            <accessor count="36" offset="0" source="#mesh_1-positions-array" stride="3">
              <param name="X" type="float" />
              <param name="Y" type="float" />
              <param name="Z" type="float" />
            </accessor>
          </technique_common>
        </source>
        <source id="mesh_1-normals" name="mesh_1-normals">
          <float_array id="mesh_1-normals-array" count="108"> 0 0 1 0 0 1 0 0 1 0 0 1 0 0 1 0 0 1 7.23595051e-08 1 0 7.23595051e-08 1 0 7.23595051e-08 1 0 7.23595051e-08 1 0 7.23595051e-08 1 0 7.23595051e-08 1 0 -7.23595051e-08 -1 0 -7.23595051e-08 -1 0 -7.23595051e-08 -1 0 -7.23595051e-08 -1 0 -7.23595051e-08 -1 0 -7.23595051e-08 -1 0 0 -0 -1 0 -0 -1 0 -0 -1 0 -0 -1 0 -0 -1 0 -0 -1 -1 7.23595051e-08 0 -1 7.23595051e-08 0 -1 7.23595051e-08 0 -1 7.23595051e-08 0 -1 7.23595051e-08 0 -1 7.23595051e-08 0 1 -7.23595051e-08 0 1 -7.23595051e-08 0 1 -7.23595051e-08 0 1 -7.23595051e-08 0 1 -7.23595051e-08 0 1 -7.23595051e-08 0 </float_array>
          <technique_common>
            <accessor count="36" offset="0" source="#mesh_1-normals-array" stride="3">
              <param name="X" type="float" />
              <param name="Y" type="float" />
              <param name="Z" type="float" />
            </accessor>
          </technique_common>
        </source>
        <vertices id="mesh_1-vertices">
          <input semantic="POSITION" source="#mesh_1-positions" />
        </vertices>
        <polylist count="12" material="defaultMaterial">
          <input offset="0" semantic="VERTEX" source="#mesh_1-vertices" />
          <input offset="0" semantic="NORMAL" source="#mesh_1-normals" />
          <vcount>3 3 3 3 3 3 3 3 3 3 3 3 </vcount>
          <p>0 1 2 3 4 5 6 7 8 9 10 11 12 13 14 15 16 17 18 19 20 21 22 23 24 25 26 27 28 29 30 31 32 33 34 35 </p>
        </polylist>
      </mesh>
    </geometry>
    <geometry id="mesh_2" name="" >
      <mesh>
        <source id="mesh_2-positions" name="mesh_2-positions">
          <float_array id="mesh_2-positions-array" count="108"> -0.454999447 -0.354999989 0.949999988 -0.509999454 -0.354999989 0.949999988 -0.454999447 -0.409999996 0.949999988 -0.454999447 -0.409999996 0.949999988 -0.509999454 -0.354999989 0.949999988 -0.509999454 -0.409999996 0.949999988 -0.509999454 -0.354999989 0.949999988 -0.454999447 -0.354999989 0.949999988 -0.454999447 -0.354999989 0.300000012 -0.509999454 -0.354999989 0.949999988 -0.454999447 -0.354999989 0.300000012 -0.509999454 -0.354999989 0.300000012 -0.454999447 -0.409999996 0.949999988 -0.509999454 -0.409999996 0.949999988 -0.454999447 -0.409999996 0.300000012 -0.454999447 -0.409999996 0.300000012 -0.509999454 -0.409999996 0.949999988 -0.509999454 -0.409999996 0.300000012 -0.454999447 -0.409999996 0.300000012 -0.509999454 -0.409999996 0.300000012 -0.454999447 -0.354999989 0.300000012 -0.454999447 -0.354999989 0.300000012 -0.509999454 -0.409999996 0.300000012 -0.509999454 -0.354999989 0.300000012 -0.509999454 -0.409999996 0.949999988 -0.509999454 -0.354999989 0.949999988 -0.509999454 -0.409999996 0.300000012 -0.509999454 -0.409999996 0.300000012 -0.509999454 -0.354999989 0.949999988 -0.509999454 -0.354999989 0.300000012 -0.454999447 -0.354999989 0.949999988 -0.454999447 -0.409999996 0.949999988 -0.454999447 -0.409999996 0.300000012 -0.454999447 -0.354999989 0.949999988 -0.454999447 -0.409999996 0.300000012 -0.454999447 -0.354999989 0.300000012 </float_array>
          <technique_common>
            <accessor count="36" offset="0" source="#mesh_2-positions-array" stride="3">
              <param name="X" type="float" />
              <param name="Y" type="float" />
              <param name="Z" type="float" />
            </accessor>
          </technique_common>
        </source>
        <source id="mesh_2-normals" name="mesh_2-normals">
          <float_array id="mesh_2-normals-array" count="108"> 0 0 1 0 0 1 0 0 1 0 0 1 0 0 1 0 0 1 3.49155727e-08 1 0 3.49155727e-08 1 0 3.49155727e-08 1 0 3.49155727e-08 1 0 3.49155727e-08 1 0 3.49155727e-08 1 0 -3.49155727e-08 -1 0 -3.49155727e-08 -1 0 -3.49155727e-08 -1 0 -3.49155727e-08 -1 0 -3.49155727e-08 -1 0 -3.49155727e-08 -1 0 0 -0 -1 0 -0 -1 0 -0 -1 0 -0 -1 0 -0 -1 0 -0 -1 -1 3.49155727e-08 0 -1 3.49155727e-08 0 -1 3.49155727e-08 0 -1 3.49155727e-08 0 -1 3.49155727e-08 0 -1 3.49155727e-08 0 1 -3.49155727e-08 0 1 -3.49155727e-08 0 1 -3.49155727e-08 0 1 -3.49155727e-08 0 1 -3.49155727e-08 0 1 -3.49155727e-08 0 </float_array>
          <technique_common>
            <accessor count="36" offset="0" source="#mesh_2-normals-array" stride="3">
              <param name="X" type="float" />
              <param name="Y" type="float" />
              <param name="Z" type="float" />
            </accessor>
          </technique_common>
        </source>
        <vertices id="mesh_2-vertices">
          <input semantic="POSITION" source="#mesh_2-positions" />
        </vertices>
        <polylist count="12" material="defaultMaterial">
          <input offset="0" semantic="VERTEX" source="#mesh_2-vertices" />
          <input offset="0" semantic="NORMAL" source="#mesh_2-normals" />
          <vcount>3 3 3 3 3 3 3 3 3 3 3 3 </vcount>
          <p>0 1 2 3 4 5 6 7 8 9 10 11 12 13 14 15 16 17 18 19 20 21 22 23 24 25 26 27 28 29 30 31 32 33 34 35 </p>
        </polylist>
      </mesh>
    </geometry>
    <geometry id="mesh_3" name="" >
      <mesh>
        <source id="mesh_3-positions" name="mesh_3-positions">
          <float_array id="mesh_3-positions-array" count="108"> 0.859999478 0.359999776 0.949999988 0.804999471 0.359999776 0.949999988 0.859999478 0.304999799 0.949999988 0.859999478 0.304999799 0.949999988 0.804999471 0.359999776 0.949999988 0.804999471 0.304999799 0.949999988 0.804999471 0.359999776 0.949999988 0.859999478 0.359999776 0.949999988 0.859999478 0.359999776 0.300000012 0.804999471 0.359999776 0.949999988 0.859999478 0.359999776 0.300000012 0.804999471 0.359999776 0.300000012 0.859999478 0.304999799 0.949999988 0.804999471 0.304999799 0.949999988 0.859999478 0.304999799 0.300000012 0.859999478 0.304999799 0.300000012 0.804999471 0.304999799 0.949999988 0.804999471 0.304999799 0.300000012 0.859999478 0.304999799 0.300000012 0.804999471 0.304999799 0.300000012 0.859999478 0.359999776 0.300000012 0.859999478 0.359999776 0.300000012 0.804999471 0.304999799 0.300000012 0.804999471 0.359999776 0.300000012 0.804999471 0.304999799 0.949999988 0.804999471 0.359999776 0.949999988 0.804999471 0.304999799 0.300000012 0.804999471 0.304999799 0.300000012 0.804999471 0.359999776 0.949999988 0.804999471 0.359999776 0.300000012 0.859999478 0.359999776 0.949999988 0.859999478 0.304999799 0.949999988 0.859999478 0.304999799 0.300000012 0.859999478 0.359999776 0.949999988 0.859999478 0.304999799 0.300000012 0.859999478 0.359999776 0.300000012 </float_array>
          <technique_common>
            <accessor count="36" offset="0" source="#mesh_3-positions-array" stride="3">
              <param name="X" type="float" />
              <param name="Y" type="float" />
              <param name="Z" type="float" />
            </accessor>
          </technique_common>
        </source>
        <source id="mesh_3-normals" name="mesh_3-normals">
          <float_array id="mesh_3-normals-array" count="108"> 4.21289042e-18 -2.68674191e-26 1 4.21289042e-18 -2.68674191e-26 1 4.21289042e-18 -2.68674191e-26 1 4.21289042e-18 -2.68674191e-26 1 4.21289042e-18 -2.68674191e-26 1 4.21289042e-18 -2.68674191e-26 1 1.27548629e-08 1 0 1.27548629e-08 1 0 1.27548629e-08 1 0 1.27548629e-08 1 0 1.27548629e-08 1 0 1.27548629e-08 1 0 -1.27548629e-08 -1 0 -1.27548629e-08 -1 0 -1.27548629e-08 -1 0 -1.27548629e-08 -1 0 -1.27548629e-08 -1 0 -1.27548629e-08 -1 0 -4.21289042e-18 2.68674191e-26 -1 -4.21289042e-18 2.68674191e-26 -1 -4.21289042e-18 2.68674191e-26 -1 -4.21289042e-18 2.68674191e-26 -1 -4.21289042e-18 2.68674191e-26 -1 -4.21289042e-18 2.68674191e-26 -1 -1 1.27548629e-08 4.21289042e-18 -1 1.27548629e-08 4.21289042e-18 -1 1.27548629e-08 4.21289042e-18 -1 1.27548629e-08 4.21289042e-18 -1 1.27548629e-08 4.21289042e-18 -1 1.27548629e-08 4.21289042e-18 1 -1.27548629e-08 -4.21289042e-18 1 -1.27548629e-08 -4.21289042e-18 1 -1.27548629e-08 -4.21289042e-18 1 -1.27548629e-08 -4.21289042e-18 1 -1.27548629e-08 -4.21289042e-18 1 -1.27548629e-08 -4.21289042e-18 </float_array>
          <technique_common>
            <accessor count="36" offset="0" source="#mesh_3-normals-array" stride="3">
              <param name="X" type="float" />
              <param name="Y" type="float" />
              <param name="Z" type="float" />
            </accessor>
          </technique_common>
        </source>
        <vertices id="mesh_3-vertices">
          <input semantic="POSITION" source="#mesh_3-positions" />
        </vertices>
        <polylist count="12" material="defaultMaterial">
          <input offset="0" semantic="VERTEX" source="#mesh_3-vertices" />
          <input offset="0" semantic="NORMAL" source="#mesh_3-normals" />
          <vcount>3 3 3 3 3 3 3 3 3 3 3 3 </vcount>
          <p>0 1 2 3 4 5 6 7 8 9 10 11 12 13 14 15 16 17 18 19 20 21 22 23 24 25 26 27 28 29 30 31 32 33 34 35 </p>
        </polylist>
      </mesh>
    </geometry>
    <geometry id="mesh_4" name="" >
      <mesh>
        <source id="mesh_4-positions" name="mesh_4-positions">
          <float_array id="mesh_4-positions-array" count="108"> 0.859999955 -0.355000228 0.949999988 0.805000007 -0.355000228 0.949999988 0.859999955 -0.410000205 0.949999988 0.859999955 -0.410000205 0.949999988 0.805000007 -0.355000228 0.949999988 0.805000007 -0.410000235 0.949999988 0.805000007 -0.355000228 0.949999988 0.859999955 -0.355000228 0.949999988 0.859999955 -0.355000228 0.300000012 0.805000007 -0.355000228 0.949999988 0.859999955 -0.355000228 0.300000012 0.805000007 -0.355000228 0.300000012 0.859999955 -0.410000205 0.949999988 0.805000007 -0.410000235 0.949999988 0.859999955 -0.410000205 0.300000012 0.859999955 -0.410000205 0.300000012 0.805000007 -0.410000235 0.949999988 0.805000007 -0.410000235 0.300000012 0.859999955 -0.410000205 0.300000012 0.805000007 -0.410000235 0.300000012 0.859999955 -0.355000228 0.300000012 0.859999955 -0.355000228 0.300000012 0.805000007 -0.410000235 0.300000012 0.805000007 -0.355000228 0.300000012 0.805000007 -0.410000235 0.949999988 0.805000007 -0.355000228 0.949999988 0.805000007 -0.410000235 0.300000012 0.805000007 -0.410000235 0.300000012 0.805000007 -0.355000228 0.949999988 0.805000007 -0.355000228 0.300000012 0.859999955 -0.355000228 0.949999988 0.859999955 -0.410000205 0.949999988 0.859999955 -0.410000205 0.300000012 0.859999955 -0.355000228 0.949999988 0.859999955 -0.410000205 0.300000012 0.859999955 -0.355000228 0.300000012 </float_array>
          <technique_common>
            <accessor count="36" offset="0" source="#mesh_4-positions-array" stride="3">
              <param name="X" type="float" />
              <param name="Y" type="float" />
              <param name="Z" type="float" />
            </accessor>
          </technique_common>
        </source>
        <source id="mesh_4-normals" name="mesh_4-normals">
          <float_array id="mesh_4-normals-array" count="108"> 0 0 1 0 0 1 0 0 1 0 0 1 0 0 1 0 0 1 -2.4689049e-08 1 0 -2.4689049e-08 1 0 -2.4689049e-08 1 0 -2.4689049e-08 1 0 -2.4689049e-08 1 0 -2.4689049e-08 1 0 2.4689049e-08 -1 0 2.4689049e-08 -1 0 2.4689049e-08 -1 0 2.4689049e-08 -1 0 2.4689049e-08 -1 0 2.4689049e-08 -1 0 0 0 -1 0 0 -1 0 0 -1 0 0 -1 0 0 -1 0 0 -1 -1 -2.4689049e-08 0 -1 -2.4689049e-08 0 -1 -2.4689049e-08 0 -1 -2.4689049e-08 0 -1 -2.4689049e-08 0 -1 -2.4689049e-08 0 1 2.4689049e-08 0 1 2.4689049e-08 0 1 2.4689049e-08 0 1 2.4689049e-08 0 1 2.4689049e-08 0 1 2.4689049e-08 0 </float_array>
          <technique_common>
            <accessor count="36" offset="0" source="#mesh_4-normals-array" stride="3">
              <param name="X" type="float" />
              <param name="Y" type="float" />
              <param name="Z" type="float" />
            </accessor>
          </technique_common>
        </source>
        <vertices id="mesh_4-vertices">
          <input semantic="POSITION" source="#mesh_4-positions" />
        </vertices>
        <polylist count="12" material="defaultMaterial">
          <input offset="0" semantic="VERTEX" source="#mesh_4-vertices" />
          <input offset="0" semantic="NORMAL" source="#mesh_4-normals" />
          <vcount>3 3 3 3 3 3 3 3 3 3 3 3 </vcount>
          <p>0 1 2 3 4 5 6 7 8 9 10 11 12 13 14 15 16 17 18 19 20 21 22 23 24 25 26 27 28 29 30 31 32 33 34 35 </p>
        </polylist>
      </mesh>
    </geometry>
    <geometry id="mesh_5" name="" >
      <mesh>
        <source id="mesh_5-positions" name="mesh_5-positions">
          <float_array id="mesh_5-positions-array" count="108"> 0.875 -0.425000012 0.899999976 -0.524999976 -0.425000012 0.899999976 0.875 0.375 0.899999976 0.875 0.375 0.899999976 -0.524999976 -0.425000012 0.899999976 -0.524999976 0.375 0.899999976 -0.524999976 -0.425000012 0.899999976 0.875 -0.425000012 0.899999976 0.875 -0.425000012 1 -0.524999976 -0.425000012 0.899999976 0.875 -0.425000012 1 -0.524999976 -0.425000012 1 0.875 0.375 0.899999976 -0.524999976 0.375 0.899999976 0.875 0.375 1 0.875 0.375 1 -0.524999976 0.375 0.899999976 -0.524999976 0.375 1 0.875 0.375 1 -0.524999976 0.375 1 0.875 -0.425000012 1 0.875 -0.425000012 1 -0.524999976 0.375 1 -0.524999976 -0.425000012 1 -0.524999976 0.375 0.899999976 -0.524999976 -0.425000012 0.899999976 -0.524999976 0.375 1 -0.524999976 0.375 1 -0.524999976 -0.425000012 0.899999976 -0.524999976 -0.425000012 1 0.875 -0.425000012 0.899999976 0.875 0.375 0.899999976 0.875 0.375 1 0.875 -0.425000012 0.899999976 0.875 0.375 1 0.875 -0.425000012 1 </float_array>
          <technique_common>
            <accessor count="36" offset="0" source="#mesh_5-positions-array" stride="3">
              <param name="X" type="float" />
              <param name="Y" type="float" />
              <param name="Z" type="float" />
            </accessor>
          </technique_common>
        </source>
        <source id="mesh_5-normals" name="mesh_5-normals">
          <float_array id="mesh_5-normals-array" count="108"> 0 0 -1 0 0 -1 0 0 -1 0 0 -1 0 0 -1 0 0 -1 0 -1 0 0 -1 0 0 -1 0 0 -1 0 0 -1 0 0 -1 0 0 1 0 0 1 0 0 1 0 0 1 0 0 1 0 0 1 0 0 0 1 0 0 1 0 0 1 0 0 1 0 0 1 0 0 1 -1 0 0 -1 0 0 -1 0 0 -1 0 0 -1 0 0 -1 0 0 1 0 0 1 0 0 1 0 0 1 0 0 1 0 0 1 0 0 </float_array>
          <technique_common>
            <accessor count="36" offset="0" source="#mesh_5-normals-array" stride="3">
              <param name="X" type="float" />
              <param name="Y" type="float" />
              <param name="Z" type="float" />
            </accessor>
          </technique_common>
        </source>
        <vertices id="mesh_5-vertices">
          <input semantic="POSITION" source="#mesh_5-positions" />
        </vertices>
        <polylist count="12" material="defaultMaterial">
          <input offset="0" semantic="VERTEX" source="#mesh_5-vertices" />
          <input offset="0" semantic="NORMAL" source="#mesh_5-normals" />
          <vcount>3 3 3 3 3 3 3 3 3 3 3 3 </vcount>
          <p>0 1 2 3 4 5 6 7 8 9 10 11 12 13 14 15 16 17 18 19 20 21 22 23 24 25 26 27 28 29 30 31 32 33 34 35 </p>
        </polylist>
      </mesh>
    </geometry>
  </library_geometries>
  <library_controllers>
  </library_controllers>
  <library_visual_scenes>
    <visual_scene id="Scene" name="Scene">
      <node id="node" name="" type="NODE">
        <matrix sid="matrix">1 0 0 0 0 1 0 0 0 0 1 0 0 0 0 1</matrix>
        <instance_geometry url="#mesh_0">
          <bind_material>
            <technique_common>
              <instance_material symbol="defaultMaterial" target="#material_0">
              </instance_material>
            </technique_common>
          </bind_material>
        </instance_geometry>
        <instance_geometry url="#mesh_1">
          <bind_material>
            <technique_common>
              <instance_material symbol="defaultMaterial" target="#material_1">
              </instance_material>
            </technique_common>
          </bind_material>
        </instance_geometry>
        <instance_geometry url="#mesh_2">
          <bind_material>
            <technique_common>
              <instance_material symbol="defaultMaterial" target="#material_2">
              </instance_material>
            </technique_common>
          </bind_material>
        </instance_geometry>
        <instance_geometry url="#mesh_3">
          <bind_material>
            <technique_common>
              <instance_material symbol="defaultMaterial" target="#material_3">
              </instance_material>
            </technique_common>
          </bind_material>
        </instance_geometry>
        <instance_geometry url="#mesh_4">
          <bind_material>
            <technique_common>
              <instance_material symbol="defaultMaterial" target="#material_4">
              </instance_material>
            </technique_common>
          </bind_material>
        </instance_geometry>
        <instance_geometry url="#mesh_5">
          <bind_material>
            <technique_common>
              <instance_material symbol="defaultMaterial" target="#material_5">
              </instance_material>
            </technique_common>
          </bind_material>
        </instance_geometry>
      </node>
    </visual_scene>
  </library_visual_scenes>
  <scene>
    <instance_visual_scene url="#Scene" />
  </scene>
</COLLADA>
