<COLLADA xmlns="http://www.collada.org/2005/11/COLLADASchema" version="1.4.1">
  <asset>
    <contributor />
    <created>2023-12-21T16:17:42.989603</created>
    <modified>2023-12-21T16:17:42.989603</modified>
    <unit name="meter" meter="1.0" />
    <up_axis>Z_UP</up_axis>
  </asset>
  <library_effects>
    <effect id="effect_Part__Feature" name="effect_Part__Feature">
      <profile_COMMON>
        <technique sid="common">
          <phong>
            <emission>
              <color>0.0 0.0 0.0 1.0</color>
            </emission>
            <ambient>
              <color>0.0 0.0 0.0 1.0</color>
            </ambient>
            <diffuse>
              <color>0.611764669418335 0.658823549747467 0.6705882549285889 1.0</color>
            </diffuse>
            <specular>
              <color>1 1 1 1.0</color>
            </specular>
            <shininess>
              <float>0.0</float>
            </shininess>
            <reflective>
              <color>0.0 0.0 0.0 1.0</color>
            </reflective>
            <reflectivity>
              <float>0.0</float>
            </reflectivity>
            <transparent>
              <color>0.0 0.0 0.0 1.0</color>
            </transparent>
            <transparency>
              <float>1.0</float>
            </transparency>
          </phong>
        </technique>
        <extra>
          <technique profile="GOOGLEEARTH">
            <double_sided>0</double_sided>
          </technique>
        </extra>
      </profile_COMMON>
    </effect>
  </library_effects>
  <library_geometries>
    <geometry id="geometry0" name="Part__Feature">
      <mesh>
        <source id="cubeverts-array0">
          <float_array count="1554" id="cubeverts-array0-array">-1.399198 0.009063081 0.007240319 -1.653125 0.0004863407 0.007773105 -1.653125 -0.0002627707 0.007853113 -1.653125 0.00123536 0.007692247 -1.653125 0.00198438 0.007611387 -0.5562448 0.01181136 0.007219864 -0.576632 0.0142437 0.006969178 -0.8305 0.01330288 0.007142168 -0.2922227 0.009731941 0.007205676 -0.2820241 0.007305223 0.007455362 -0.007874516 0.001984135 0.007611565 -0.007874516 0.001235202 0.007692415 -0.007874516 0.0004862698 0.007773264 -0.00787451 -0.0002627707 0.007853113 -0.8609644 0.01551773 0.006902258 -1.145219 0.01355546 0.007004943 -1.104753 0.01181139 0.007219812 -1.378973 0.007305294 0.007455257 -1.407467 0.01683117 0.00639099 -1.653125 0.01051959 0.006689888 -1.653125 0.009942088 0.006752242 -1.653125 0.01109708 0.006627532 -1.653125 0.01167449 0.006564319 -1.407487 0.01859456 0.006200538 -1.161757 0.02130303 0.00615642 -1.161795 0.02305025 0.005967693 -0.9160677 0.02508621 0.005861815 -0.9160511 0.02450938 0.005924119 -0.9160344 0.02393256 0.005986421 -0.9160177 0.02335574 0.006048724 -1.342464 0.0561807 0.9252112 -1.653125 0.04783678 0.9256473 -1.653125 0.05009689 0.925653 -1.368885 0.05785089 0.9252467 -1.084581 0.06236756 0.9250103 -1.031727 0.06060072 0.9249786 -0.8103239 0.0636539 0.9249432 -0.7574746 0.06129547 0.924942 -0.4950769 0.06140329 0.9250611 -0.441919 0.05837452 0.9250951 -0.2514531 0.05693571 0.9252951 -0.2248878 0.05404881 0.9253217 -0.007874516 0.0500966 0.9256534 -0.007903582 0.0478368 0.9256469 -0.00787451 0.04783678 0.9256473 -1.653125 0.01774631 0.1491575 -1.653125 0.02020381 0.1519617 -1.653125 0.03192628 0.2917961 -1.653125 0.0344483 0.2967438 -1.653125 0.04386484 0.4273772 -1.653125 0.04231134 0.4365704 -1.653125 0.0505337 0.5727067 -1.653125 0.04826559 0.5673431 -1.653125 0.05097067 0.697924 -1.653125 0.05311927 0.7036122 -1.653125 0.05066068 0.8121133 -1.653125 0.05277286 0.8146235 -0.007874515 0.01625146 0.1177548 -0.00787451 0.05066068 0.8121133 -0.007874515 0.05312762 0.78019 -0.00787451 0.05097067 0.697924 -0.00787451 0.01774631 0.1491575 -0.00787451 0.03192628 0.2917961 -0.007874514 0.02819999 0.2281234 -0.00787451 0.04231134 0.4365704 -0.007874514 0.03931184 0.3585814 -0.00787451 0.04826559 0.5673431 -0.007874514 0.04787048 0.5038112 -0.007874514 0.05216033 0.6347126 -1.172014 0.02071814 -0.01390575 -0.9213958 0.02291917 -0.01402266 -1.422598 0.01600456 -0.01365752 -1.673125 0.008861389 -0.01328518 0.01212548 0.008861389 -0.01328518 -0.2384017 0.01600463 -0.01365763 -0.007874517 0.01167449 0.006564319 -0.2535113 0.01859453 0.006200643 -0.4889856 0.0207183 -0.01390582 -0.4992055 0.02305035 0.005967741 -0.7396042 0.0229192 -0.01402268 -0.7449323 0.02508624 0.005861827 -0.4992372 0.02130157 0.006156641 -0.7449656 0.02393256 0.005986437 -0.7449823 0.02335572 0.006048741 -0.7449489 0.0245094 0.005924132 -0.2535332 0.01682838 0.006391404 -0.007874515 0.01109704 0.006627689 -0.007874515 0.01051948 0.006690051 -0.007874509 0.009941916 0.006752412 -1.673125 0.0009030313 -0.01242769 -1.426094 0.003998642 -0.01236578 -1.673125 -0.003075871 -0.01199638 -1.673125 0.00488212 -0.01285727 -1.179006 0.008702169 -0.01261355 -1.02182 0.01041595 -0.012704 -0.9213727 0.02212047 -0.01393639 -0.9213495 0.02132177 -0.01385012 -0.9213265 0.02052307 -0.01376386 -0.8646254 0.01113192 -0.01274181 -0.5816041 0.009903256 -0.01267693 -0.7396273 0.02212048 -0.01393641 -0.7396505 0.02132176 -0.01385014 -0.7396735 0.02052304 -0.01376387 -0.284708 0.005139678 -0.01242569 0.01212548 0.004882105 -0.01285741 0.01212548 0.0009030165 -0.01242782 0.01212549 -0.003075871 -0.01199638 -1.673125 0.05511832 0.9457067 -1.422753 0.05426615 0.945306 -1.673125 0.05912051 0.9457161 -1.673125 0.05111612 0.9456954 -1.673125 0.04711393 0.9456821 -1.39231 0.06701937 0.9453033 -1.172325 0.05898372 0.9450599 -1.111423 0.07176279 0.9450543 -1.015193 0.06065573 0.9449728 -0.8580508 0.06133 0.9449376 -0.8305 0.07334447 0.9449706 -0.5739651 0.0600256 0.9450056 -0.5495782 0.07173163 0.9450535 -0.2808787 0.05528827 0.9452537 -0.2686924 0.06695791 0.9453018 0.01212549 0.04711393 0.9456821 0.01212548 0.05111613 0.9456935 0.01212548 0.05511832 0.9457048 0.01212548 0.05912051 0.9457161 -1.653125 0.05810081 0.9256755 -1.653125 0.05984337 0.9256813 -1.653092 0.0598434 0.9256803 -1.399173 0.06517815 0.9253045 -1.435907 0.06605712 0.9253547 -1.218677 0.07038177 0.9251282 -1.145169 0.06966988 0.9250692 -0.9030218 0.07329613 0.9249759 -0.8608875 0.07163187 0.9249666 -0.6287707 0.0725969 0.9250135 -0.5765506 0.07035778 0.9250336 -0.3182824 0.06817963 0.9252466 -0.2921819 0.06584694 0.9252703 -0.007874517 0.05984337 0.9256813 -0.007874515 0.05810058 0.9256765 -1.673125 0.01500253 0.1281946 -1.673125 0.02624496 0.1209694 -1.673125 0.04024973 0.2547588 -1.673125 0.02938719 0.2678052 -1.673125 0.0507341 0.3862194 -1.673125 0.04045583 0.4131133 -1.673125 0.05793351 0.5172736 -1.673125 0.04699679 0.5439883 -1.673125 0.0503143 0.6756581 -1.673125 0.06214083 0.6631642 -1.673125 0.05037285 0.8102216 -1.673125 0.06244761 0.8039991 -1.653125 0.02966719 0.1477489 -1.653125 0.04384703 0.2903571 -1.653125 0.054257 0.4353344 -1.653125 0.06023668 0.5663282 -1.653125 0.06296597 0.6971 -1.653125 0.06267063 0.8117522 -1.653125 0.02422653 0.1170704 -1.653125 0.06112854 0.7801014 -1.653125 0.03618837 0.2276143 -1.653125 0.0473032 0.358172 -1.653125 0.05586515 0.5035127 -1.653125 0.06015797 0.6345136 -0.8305 0.01330288 0.007142168 -0.8305 0.07334447 0.9449706 0.01212548 0.02624496 0.1209694 0.01212549 0.01500253 0.1281946 0.01212548 0.04024973 0.2547588 0.01212549 0.02938719 0.2678052 0.01212548 0.0507341 0.3862194 0.01212549 0.04045583 0.4131133 0.01212548 0.05793351 0.5172736 0.01212549 0.04699679 0.5439883 0.01212548 0.06214083 0.6631642 0.01212549 0.0503143 0.6756581 0.01212548 0.06244761 0.8039991 0.01212549 0.05037285 0.8102216 -0.007874517 0.02966719 0.1477489 -0.007874517 0.04384703 0.2903571 -0.007874517 0.054257 0.4353344 -0.007874517 0.06023668 0.5663282 -0.007874517 0.06296597 0.6971 -0.007874517 0.06267063 0.8117522 -0.007874514 0.02816973 0.151212 -0.007874513 0.04242256 0.296103 -0.007874513 0.0518466 0.4268344 -0.007874513 0.0585238 0.5722731 -0.007874513 0.06111687 0.7032769 -0.007874514 0.06077552 0.8144675 -0.9305 0.1047668 -0.048 -1.0305 0.1679147 -0.048 -1.0305 -0.03208529 -0.048 -0.9305 0.01545129 -0.048 -0.9064103 0.1449162 -0.048 -0.9058637 0.145784 -0.048 -0.9052805 0.1466261 -0.048 -0.9046617 0.1474414 -0.048 -0.9040083 0.1482285 -0.048 -0.9033214 0.1489859 -0.048 -0.9026021 0.1497124 -0.048 -0.9018517 0.1504069 -0.048 -0.9010714 0.1510681 -0.048 -0.9002625 0.1516951 -0.048 -0.8994264 0.1522866 -0.048 -0.8985645 0.1528417 -0.048 -0.8976781 0.1533595 -0.048 -0.8967689 0.1538392 -0.048 -0.8958382 0.1542798 -0.048 -0.8948878 0.1546808 -0.048 -0.893919 0.1550414 -0.048 -0.8929337 0.1553609 -0.048 -0.8919333 0.155639 -0.048 -0.7305 0.01545124 -0.048 -0.6305 -0.03208529 -0.048 -0.7305 0.1047668 -0.048 -0.6305 0.1679147 -0.048 -0.7690667 0.155639 -0.048 -0.7680663 0.1553609 -0.048 -0.767081 0.1550414 -0.048 -0.7661122 0.1546808 -0.048 -0.7651618 0.1542798 -0.048 -0.7642311 0.1538392 -0.048 -0.7633219 0.1533595 -0.048 -0.7624355 0.1528417 -0.048 -0.7615736 0.1522866 -0.048 -0.7607375 0.1516951 -0.048 -0.7599286 0.1510681 -0.048 -0.7591483 0.1504069 -0.048 -0.7583979 0.1497124 -0.048 -0.7576786 0.1489859 -0.048 -0.7569917 0.1482285 -0.048 -0.7563383 0.1474414 -0.048 -0.7557195 0.1466261 -0.048 -0.7551363 0.145784 -0.048 -0.7545897 0.1449162 -0.048 -0.8857119 0.1564143 -0.048 -0.8867663 0.1563927 -0.048 -0.887816 0.1563278 -0.048 -0.8888593 0.1562198 -0.048 -0.8898945 0.1560688 -0.048 -0.8909197 0.1558751 -0.048 -0.7752881 0.1564143 -0.048 -0.7742337 0.1563927 -0.048 -0.773184 0.1563278 -0.048 -0.7721407 0.1562198 -0.048 -0.7711055 0.1560688 -0.048 -0.7700803 0.1558751 -0.048 -1.0305 -0.03208529 -0.06 -1.0305 0.1679147 -0.06 -0.6305 -0.03208529 -0.06 -0.6305 0.1679147 -0.06 -0.8964809 0.03311566 0.07896111 -0.8769102 0.05117693 0.152 -0.8769102 0.04184816 0.152 -0.7645191 0.03311566 0.07896111 -0.7840898 0.05117693 0.152 -0.7840898 0.04184816 0.152 -0.8288779 0.1028245 0.152 -0.8321221 0.1028245 0.152 -0.8482618 0.09681707 0.152 -0.8490123 0.09612259 0.152 -0.8497315 0.09539603 0.152 -0.8504185 0.09463861 0.152 -0.8474816 0.09747832 0.152 -0.8510718 0.0938516 0.152 -0.8466727 0.09810522 0.152 -0.8516907 0.09303631 0.152 -0.8458365 0.09869672 0.152 -0.8522739 0.09219411 0.152 -0.8449746 0.09925185 0.152 -0.8528205 0.09132639 0.152 -0.8440883 0.09976968 0.152 -0.843179 0.1002493 0.152 -0.8422484 0.10069 0.152 -0.8412979 0.1010909 0.152 -0.8403292 0.1014515 0.152 -0.8393438 0.1017711 0.152 -0.8383435 0.1020492 0.152 -0.8373298 0.1022852 0.152 -0.8363046 0.1024789 0.152 -0.8352695 0.1026299 0.152 -0.8342262 0.1027379 0.152 -0.8331765 0.1028028 0.152 -0.8081795 0.09132639 0.152 -0.8169117 0.09976968 0.152 -0.817821 0.1002493 0.152 -0.8187516 0.10069 0.152 -0.8197021 0.1010909 0.152 -0.8206708 0.1014515 0.152 -0.8216562 0.1017711 0.152 -0.8226565 0.1020492 0.152 -0.8236702 0.1022852 0.152 -0.8246954 0.1024789 0.152 -0.8257305 0.1026299 0.152 -0.8267738 0.1027379 0.152 -0.8278235 0.1028028 0.152 -0.8160254 0.09925185 0.152 -0.8087261 0.09219411 0.152 -0.8151635 0.09869672 0.152 -0.8093093 0.09303631 0.152 -0.8143273 0.09810522 0.152 -0.8099282 0.0938516 0.152 -0.8135184 0.09747832 0.152 -0.8105815 0.09463861 0.152 -0.8127382 0.09681707 0.152 -0.8112685 0.09539603 0.152 -0.8119877 0.09612259 0.152 -0.1026234 0.0637153 0.8143557 -0.1499906 0.06505101 0.8143069 -0.1025901 0.06419381 0.733644 -0.1499527 0.06553313 0.7488333 -0.2921717 0.06860704 0.8075573 -0.2921804 0.06900487 0.7486514 -0.2921329 0.06859175 0.6758931 -0.08972443 0.03072693 0.1510334 -0.1716032 0.04250951 0.2426163 -0.1306455 0.03190495 0.1509494 -0.2535273 0.0350472 0.1507846 -0.2534813 0.04195041 0.2159167 -0.2535233 0.02941283 0.1025828 -0.4303704 0.04325414 0.1945343 -0.3959615 0.05163647 0.2890773 -0.8224929 0.07088567 0.5380369 -0.740457 0.07412022 0.6670758 -0.6802087 0.07043462 0.5380607 -0.8406382 0.06434978 0.4091056 -0.8689213 0.07085738 0.5380384 -1.011188 0.07023315 0.5380709 -0.9610771 0.07394111 0.6670849 -1.526176 0.06498843 0.7799659 -1.399198 0.06816717 0.7846769 -1.399176 0.06826221 0.7143003 -1.568494 0.06377349 0.7800073 -1.526234 0.06504517 0.7144687 -1.568534 0.06362224 0.6878143 -1.407505 0.04562241 0.2541146 -1.265048 0.05477753 0.3273322 -1.230633 0.04583437 0.2199834 -1.489386 0.04667609 0.2887639 -1.407438 0.03842868 0.1817113 -1.407456 0.03187574 0.1231702 -1.530337 0.03528626 0.1818761 -1.571267 0.03569678 0.1971131 -1.530294 0.0279634 0.1168111 -1.571239 0.02678449 0.1168941 -0.1026035 0.06100043 0.5582872 -0.434382 0.07082561 0.8368605 -0.1499701 0.06209108 0.5513016 -0.3467757 0.06917437 0.6417911 -0.1571594 0.05756627 0.4482726 -0.4415749 0.07175494 0.7248884 -0.3740984 0.06933883 0.6247424 -0.231811 0.06005838 0.4590111 -0.3065558 0.06247019 0.4729499 -0.4560605 0.0665116 0.5008679 -0.7259599 0.07370834 0.8390749 -0.6584682 0.07394581 0.796113 -0.590996 0.07347797 0.6976965 -0.3138086 0.05649426 0.3715963 -0.3411905 0.05504762 0.3440756 -0.800692 0.07452101 0.7960827 -0.5982593 0.07137318 0.5839385 -0.4259955 0.06015144 0.3948951 -0.510725 0.06429732 0.4425786 -0.8541438 0.07479082 0.7530863 -0.91097 0.07440907 0.7960884 -0.5380607 0.06290524 0.4134497 -0.9890621 0.07342357 0.8390894 -0.5021476 0.05741365 0.3403797 -0.5552466 0.05994574 0.3660567 -1.053172 0.07354546 0.7961334 -0.631536 0.05510796 0.2945887 -0.7321437 0.05971479 0.344723 -0.768307 0.06139916 0.3661743 -1.110519 0.07312112 0.7062452 -1.225199 0.06730245 0.5264545 -1.27216 0.07034087 0.8197186 -1.185227 0.07226776 0.7258413 -1.314505 0.069714 0.8080354 -0.812357 0.05467631 0.2803881 -1.256545 0.07113908 0.7219837 -0.8587798 0.05466688 0.2803885 -0.8338787 0.05076506 0.237549 -1.027521 0.06226247 0.3889027 -1.167163 0.06523721 0.4638873 -1.13814 0.06387748 0.4326201 -0.9827447 0.05241505 0.2602126 -1.035672 0.05669946 0.314424 -1.120956 0.06066542 0.3788308 -1.168991 0.05885102 0.3616552 -1.425867 0.0652696 0.5813789 -1.540301 0.06363717 0.6351891 -1.06353 0.04050185 0.1493663 -1.526177 0.06343719 0.6088774 -1.326576 0.05754823 0.3807642 -1.357337 0.05867499 0.4074991 -1.096281 0.03457678 0.1015577 -1.455948 0.05831897 0.4394724 -1.196193 0.0346727 0.1129029 -1.571289 0.05249026 0.3960531 -0.5464053 0.07263885 0.8190787 -0.5162706 0.07275521 0.7130236 -0.1643699 0.05103753 0.345358 -0.4861537 0.07071324 0.606932 -0.8615329 0.07391547 0.6455612 -0.5203587 0.04138057 0.1648931 -0.5653493 0.04026023 0.1500874 -0.6317523 0.03816069 0.1263468 -0.6980427 0.04529758 0.1866155 -0.1026567 0.01918811 0.1175586 -0.1500326 0.0205221 0.1174675 -0.1026233 0.02809423 0.197686 -0.1499947 0.02784282 0.1824825 -0.292258 0.02476954 0.1238341 -0.2922894 0.03131702 0.1823001 -0.1974573 0.03936069 0.2892513 -0.2922419 0.03850857 0.254648 -0.08904581 0.05566959 0.7801013 -0.170266 0.05780201 0.6878588 -0.1296218 0.0568416 0.7800621 -0.2515 0.05996668 0.7798984 -0.2514541 0.06002537 0.714451 -0.2514784 0.05940016 0.8283885 -0.6272063 0.06454216 0.6182997 -0.6933665 0.05918198 0.4648952 -0.5356245 0.05781676 0.4649669 -0.8356488 0.05955821 0.4648754 -0.74925 0.04917349 0.3117343 -0.9186938 0.06521442 0.6182643 -0.9729008 0.0591525 0.4648965 -1.115153 0.05793566 0.4649604 -1.030414 0.04850507 0.3117693 -1.526186 0.02405771 0.1516929 -1.399219 0.02672784 0.146679 -1.399195 0.03417476 0.2166072 -1.5685 0.02284478 0.1517787 -1.526245 0.03095672 0.216776 -1.568541 0.03232588 0.243413 -1.368836 0.06100785 0.7488564 -1.463647 0.05782774 0.6416507 -1.368899 0.06059692 0.6761528 -1.511047 0.05753522 0.7490382 -1.368867 0.06060795 0.807686 -1.558407 0.05619597 0.7338925 -1.511007 0.05705101 0.8144626 -1.558381 0.05571443 0.8145115 -0.1026567 0.04488091 0.3964435 -0.4344897 0.02391737 0.09449702 -0.3870723 0.0294093 0.1478014 -0.4344564 0.02823657 0.1305711 -0.1883553 0.04894553 0.4235544 -0.283135 0.04554639 0.3405033 -0.3259715 0.04834161 0.366152 -0.3597331 0.0557714 0.4778485 -0.4681444 0.04049311 0.2417856 -0.1792931 0.05505408 0.5564675 -0.4139231 0.04950758 0.3597054 -0.3958559 0.05190155 0.399066 -0.7289418 0.02854821 0.108236 -0.6628986 0.03406399 0.1590345 -0.2649956 0.05800636 0.5828245 -0.6204666 0.0440195 0.2608095 -0.5560797 0.04100903 0.2353801 -0.2604771 0.05904376 0.626699 -0.3055783 0.05927821 0.5961266 -0.8051271 0.03461415 0.1590056 -0.4127981 0.06150392 0.6034933 -0.8802095 0.03996076 0.2098558 -0.9456675 0.03436123 0.1590188 -1.012211 0.02809316 0.1082599 -0.3732755 0.06206065 0.8197911 -0.4579076 0.06402557 0.7526317 -1.087865 0.03329969 0.1590746 -0.561103 0.06528101 0.7717528 -1.191638 0.0340917 0.1782203 -1.272193 0.02522966 0.1116286 -1.314534 0.0258265 0.1233045 -0.6442044 0.06550801 0.8228284 -0.7187911 0.06648569 0.7716896 -1.241397 0.04711742 0.3268083 -1.2945 0.05456353 0.4523635 -0.8644907 0.06671267 0.7716776 -0.7854117 0.06673371 0.7205461 -1.346884 0.0457394 0.3343644 -1.134272 0.06267819 0.586407 -1.420783 0.04166184 0.3040181 -0.937881 0.06597272 0.8228038 -1.001687 0.06614852 0.771707 -1.431565 0.04485612 0.3477795 -1.259545 0.05891997 0.5311204 -1.143816 0.06399874 0.6471553 -1.24206 0.06063977 0.5705162 -1.124082 0.06509074 0.7398285 -1.505425 0.04487599 0.3742906 -1.331728 0.05878985 0.564228 -1.375708 0.05867186 0.5900297 -1.470456 0.05338011 0.5070782 -1.274091 0.0627162 0.7833649 -1.226687 0.06282621 0.8369512 -1.226721 0.06335082 0.800623 -1.558418 0.05211308 0.5344689 -0.566345 0.02886982 0.1209867 -0.5707147 0.04863943 0.3202972 -0.5458387 0.0506612 0.3500672 -0.5780385 0.05193918 0.3628059 -0.6569066 0.05261241 0.3627706 -0.8217054 0.05066237 0.3287264 -0.8579341 0.05130742 0.3372284 -0.9154292 0.05051941 0.3287339 -0.7019946 0.06461324 0.6012258 -0.7714735 0.06326644 0.5500743 -0.7393893 0.06454412 0.5926935 -0.8105255 0.06470245 0.5926852 -0.8465823 0.06493893 0.6012087 -1.277992 0.03747912 0.2249361 -1.258098 0.06275222 0.6769485</float_array>
          <technique_common>
            <accessor count="518" source="#cubeverts-array0-array" stride="3">
              <param type="float" name="X" />
              <param type="float" name="Y" />
              <param type="float" name="Z" />
            </accessor>
          </technique_common>
        </source>
        <source id="cubenormals-array0">
          <float_array count="3096" id="cubenormals-array0-array">-0.001500729 0.1061998 0.9943437 -0.001539104 0.1073284 0.9942225 -0.001539163 0.1073303 0.9942222 0.0002888441 0.1049161 0.9944811 0.0009209926 0.1101561 0.9939139 0.0008886356 0.1060447 0.994361 0.00154481 0.108772 0.9940655 0.001516735 0.1073301 0.9942223 0.001516706 0.1073288 0.9942224 0.001483506 0.1060007 0.9943649 0.0002647601 0.1112875 0.9937882 -0.0004190099 0.1126938 0.9936296 -0.001020855 0.1097924 0.9939541 -0.001452365 0.104892 0.9944826 -0.0008395741 0.1030645 0.9946743 -0.0002831297 0.1038387 0.9945941 -0.001548391 0.1073495 0.9942201 -0.001548412 0.1073503 0.9942201 -0.001583077 0.1088288 0.9940592 -0.001552164 0.1073615 0.9942189 -0.001004931 0.1073686 0.9942187 -0.00100492 0.1073676 0.9942189 -0.0004613045 0.1073803 0.9942179 -0.0004611987 0.1073736 0.9942186 -0.0004611767 0.1073719 0.9942189 -0.0004611772 0.1073719 0.9942188 -0.001470493 0.002484486 -0.9999958 -0.001402998 -0.0009622242 -0.9999986 -0.0009341863 0.006453535 -0.9999787 -0.0007036675 -0.003155589 -0.9999948 -0.0002880756 0.009275857 -0.9999569 -0.0001278088 -0.002346437 -0.9999973 0.0004496672 0.01059402 -0.9999437 0.0004553719 -0.003232261 -0.9999946 0.001112838 0.008307229 -0.9999649 0.001053906 0.0005012501 -0.9999993 0.001635438 0.005852675 -0.9999815 0.001581132 0.002869616 -0.9999946 0.01469625 0.002700619 -0.9998883 1 0 -0 1 0 -0 1 0 -0 1 0 0 1 0 -0 1 0 0 1 0 -0 1 0 0 1 0 0 1 0 -0 1 0 -0 1 0 0 1 0 0 1 0 0 1 0 0 1 0 0 -1 -7.522819e-06 1.091357e-06 -1 1.38276e-09 1.280862e-08 -1 6.288316e-07 -7.279675e-08 -1 -1.802957e-06 -4.894489e-09 -1 -2.320919e-06 -5.772754e-08 -1 -1.711556e-06 2.181359e-07 -1 -1.465204e-06 1.456588e-07 -1 -1.286333e-06 9.227215e-08 -1 -1.336437e-06 6.084966e-08 -1 -1.335608e-06 2.766816e-08 -1 -2.498028e-06 -5.860744e-08 -1 -2.330648e-06 8.941159e-09 -1 -1.978651e-06 6.484362e-08 -1 -2.090702e-06 1.232086e-07 -1 -2.110678e-06 1.834336e-07 -1 -2.18177e-06 2.405193e-07 -0.008778972 0.9936593 -0.11209 -0.008284048 0.9943164 -0.1061425 -0.0187959 0.993161 -0.1152306 -0.0181293 0.9940583 -0.107329 -0.02848784 0.9932922 -0.1120671 -0.02815537 0.9937322 -0.1081827 0.02848819 0.9932923 -0.1120667 0.02815542 0.9937326 -0.1081789 0.01879625 0.9931615 -0.1152256 0.01812962 0.9940588 -0.1073238 0.008778456 0.9936597 -0.1120858 0.00828385 0.9943165 -0.1061421 0.00046097 0.1073712 0.9942189 0.0004609871 0.1073728 0.9942188 0.0004610028 0.107374 0.9942186 0.0004611688 0.1073847 0.9942175 0.001004862 0.1073749 0.9942181 0.001004841 0.107373 0.9942183 0.001552719 0.1073663 0.9942183 0.001588934 0.1090861 0.994031 0.001548268 0.1073509 0.99422 0.001548227 0.1073493 0.9942201 0.001599581 -0.1077665 -0.994175 0.001594214 -0.1073374 -0.9942214 0.001595811 -0.1069163 -0.9942667 0.00158548 -0.1074307 -0.9942113 0.001037655 -0.1075206 -0.9942023 0.001045126 -0.1072752 -0.9942288 0.0005973903 -0.1072674 -0.99423 0.0004917106 -0.1087889 -0.9940647 0.0003139617 -0.1073774 -0.9942183 0.0003137166 -0.1073753 -0.9942185 0.0003135904 -0.1073742 -0.9942186 0.0002469125 -0.1067186 -0.9942892 -0.0003773948 -0.1073752 -0.9942185 -0.000377303 -0.107374 -0.9942186 -0.0003772204 -0.1073728 -0.9942188 -0.0002286891 -0.105186 -0.9944526 -0.0004914821 -0.1087447 -0.9940695 -0.0008540531 -0.1056772 -0.9944001 -0.001051404 -0.1082388 -0.9941244 -0.00156937 -0.1068823 -0.9942704 -0.001589732 -0.1073374 -0.9942214 -0.00150482 -0.1063296 -0.9943298 -0.001617901 -0.1078006 -0.9941711 -8.080623e-08 -0.1081926 -0.99413 0.001592692 -0.002333304 0.999996 0.001591029 -0.002821311 0.9999947 0.001597358 -0.003324577 0.9999932 0.001569376 -0.003535549 0.9999925 0.001024805 -0.002235649 0.999997 0.0009560765 -0.004117007 0.9999911 0.0005789761 -0.002319842 0.9999972 0.0002382692 -0.003299802 0.9999945 0.0003231904 -0.004535883 0.9999896 -0.0002495694 -0.00218113 0.9999976 -0.0003147812 -0.003437184 0.999994 -0.000882756 -0.002253944 0.999997 -0.0009374482 -0.003147694 0.9999946 -0.001532788 -0.002526 0.9999956 -0.001555811 -0.002851817 0.9999947 -0.00155409 -0.002821314 0.9999948 -0.001553447 -0.002806064 0.9999949 -0.02951073 0.003326028 -0.9995589 -0.001426581 -0.002541047 -0.9999958 -0.001538713 0.002796212 -0.9999949 -0.001189383 0.007370569 -0.9999721 -0.0008460447 -0.004539275 -0.9999894 -0.0006383539 0.01689528 -0.9998571 -0.0003399768 -0.00303283 -0.9999954 0.0001617375 0.00966897 -0.9999533 0.0002181866 -0.003906766 -0.9999923 0.0009319065 0.01273906 -0.9999184 0.0008156663 -0.001051717 -0.9999991 0.001611142 0.00784918 -0.9999679 0.001503118 0.002731672 -0.9999951 0.02854241 -0.9995638 -0.007571197 0.02686391 -0.9995659 0.0120993 0.0188112 -0.9996214 -0.02008045 0.01423457 -0.9997151 0.01916305 0.01063661 -0.9999251 -0.006044772 0.004290623 -0.9999905 -0.0007967687 0.002534921 -0.9998919 0.01447717 -0.004585345 -0.9997618 -0.0213374 -0.00926441 -0.9997268 0.02146124 -0.01613637 -0.9995787 -0.02412572 -0.01993339 -0.9997823 0.006176305 -0.02860514 -0.9995629 -0.007467631 -0.02786036 -0.9994819 -0.01610998 -1 0 -0 -1 0 0 -1 0 0 -1 0 0 -1 0 0 -1 0 0 -1 0 0 -1 0 0 -1 0 0 -1 0 0 -1 0 -0 -1 0 0 -1 0 -0 -1 0 0 -1 0 0 -1 0 -0 -1 0 0 -1 0 -0 -0.01204584 0.9916492 -0.1284009 -0.0004674131 0.9919769 -0.1264185 -0.03076788 0.994095 -0.1040596 -0.002870233 0.9950889 -0.09894387 -0.03776471 0.9961237 -0.07944384 0.0001877449 0.9974321 -0.07161972 -0.04114227 0.9976491 -0.05480539 -0.003191511 0.9989547 -0.04560082 -0.04436231 0.9986003 -0.02879849 -0.005842493 0.9997652 -0.02086571 -0.03753422 0.999293 -0.002176768 -0.01214857 0.9999228 0.002575745 -0.02024221 0.9995196 0.02346576 -0.01127942 0.9996285 0.02480674 2.815083e-05 0.9993488 0.03608344 1 0 -0 1 0 -0 1 0 -0 1 0 0 1 0 0 1 0 0 1 0 0 1 0 0 1 0 0 1 0 -0 1 0 0 1 0 0 1 0 0 1 0 0 1 0 0 1 0 0 0.003575239 -0.9919696 0.1264254 0.0125649 -0.9917092 0.1278864 0.007668009 -0.9950657 0.0989214 0.02902835 -0.9943147 0.1024483 0.008620837 -0.9974 0.07154619 0.03545627 -0.9964844 0.07590583 0.03409519 -0.9981727 0.04988737 0.01025977 -0.9989125 0.04548175 0.03398728 -0.9991052 0.02517309 0.009753421 -0.9997379 0.02071036 0.01464667 -0.9998891 -0.0027144 0.03231745 -0.9994776 0.0004349247 0.01122238 -0.9996278 -0.02486345 0.01665995 -0.999572 -0.02404778 0.02861372 -0.9933028 0.1119417 0.0276011 -0.994574 0.1003035 0.01901465 -0.992546 0.1203779 0.01643781 -0.9953887 0.09450419 0.0108961 -0.9933143 0.1149262 0.004555698 -0.9948957 0.1008055 0.005441178 -0.9957082 0.09238752 -0.005438818 -0.9947359 0.1023271 -0.01642459 -0.9937447 0.110461 -0.01603271 -0.9931574 0.1156781 -0.02758196 -0.9932157 0.112969 -0.0276546 -0.993331 0.111932 -0.004338526 -0.9932525 0.1158905 0 0 0 0 -0 0 0.02788524 0.9995772 0.008227893 0.02685346 0.9996243 -0.005504635 0.01697301 0.9996768 0.01892968 0.014234 0.9998131 -0.01307957 0.005733911 0.9997733 0.02050862 -0.005623948 0.9998226 0.01798071 -0.009239983 0.9997661 -0.01955583 -0.01686193 0.9996271 0.02147967 -0.01990889 0.9997907 -0.004716104 -0.02809539 0.9995183 0.01318837 -0.02858656 0.9995634 0.007481448 0.002551002 0.9999287 -0.01167043 0 0 -0 0 0 0 1 2.363697e-07 -3.060565e-08 1 7.563323e-10 7.005449e-09 1 1.174989e-06 -2.160677e-07 1 4.700157e-07 -6.061111e-08 1 4.768868e-07 -4.991943e-08 1 4.6876e-07 -4.829828e-08 1 4.807216e-07 -3.833899e-08 1 4.641925e-07 -3.535922e-08 1 4.867474e-07 -2.673924e-08 1 4.662729e-07 -2.330371e-08 1 4.712869e-07 -1.187437e-08 1 4.887656e-07 -1.409544e-08 1 4.737787e-07 -2.061658e-10 1 4.827205e-07 -1.051514e-09 1 1.191358e-06 2.866177e-08 1 -9.930731e-11 3.519877e-08 1 4.796885e-07 1.126167e-08 1 2.382126e-07 2.685161e-08 0.01204585 0.9916492 -0.1284009 0.0004674131 0.9919769 -0.1264185 0.03076784 0.994095 -0.1040596 0.002870233 0.9950889 -0.09894386 0.0377647 0.9961237 -0.07944384 -0.0001877449 0.9974321 -0.07161972 0.04114228 0.9976491 -0.05480539 0.003191511 0.9989547 -0.04560082 0.04436231 0.9986003 -0.02879849 0.005842493 0.9997652 -0.02086571 0.03753422 0.999293 -0.002176768 0.01214857 0.9999228 0.002575745 0.02024221 0.9995196 0.02346576 0.01127941 0.9996285 0.02480674 -1 -9.76596e-06 1.308756e-06 -1 -1.798733e-09 -1.665791e-08 -1 -4.071859e-06 5.189217e-07 -1 -1.784591e-06 1.921702e-07 -1 -1.812276e-06 1.801986e-07 -1 -2.137867e-06 2.168825e-07 -1 -2.334024e-06 1.682529e-07 -1 -2.384094e-06 1.711878e-07 -1 -2.162802e-06 9.872873e-08 -1 -2.124351e-06 9.753069e-08 -1 -2.336232e-06 4.875859e-08 -1 -1.946465e-06 3.488813e-08 -1 -2.080915e-06 -5.360319e-09 -1 -1.5287e-06 -1.327002e-08 -1 -1.565345e-06 -3.884552e-08 -1 -1.094329e-06 -3.489766e-08 -0.003575249 -0.9919696 0.1264254 -0.01256488 -0.9917092 0.1278864 -0.00766802 -0.9950657 0.09892139 -0.02902834 -0.9943147 0.1024484 -0.008620842 -0.9974 0.0715462 -0.03545629 -0.9964844 0.07590584 -0.03409518 -0.9981727 0.04988737 -0.01025977 -0.9989125 0.04548175 -0.03398729 -0.9991052 0.02517309 -0.009753423 -0.9997379 0.02071036 -0.01464666 -0.9998891 -0.0027144 -0.03231745 -0.9994776 0.0004349247 -0.01122238 -0.9996278 -0.02486345 4.981869e-06 -0.9993497 -0.03606043 -0.01665995 -0.999572 -0.02404778 0 0 1 0 0 1 0 0 1 0 0 1 0 0 1 0 0 1 0 0 1 0 0 1 0 0 1 0 0 1 0 0 1 0 0 1 0 0 1 0 0 1 0 0 1 0 0 1 0 0 1 0 0 1 0 0 1 0 0 1 0 0 1 0 0 1 0 0 1 0 0 1 0 0 1 0 0 1 0 0 1 0 0 1 0 0 1 0 0 1 0 0 1 0 0 1 0 0 1 0 0 1 0 0 1 0 0 1 0 0 1 0 0 1 0 0 1 0 0 1 0 0 1 0 0 1 0 0 1 0 0 1 0 0 1 0 0 1 0 0 1 0 0 1 0 0 1 0 0 1 0 0 1 0 0 1 0 0 1 0 0 1 0 0 1 0 0 1 0 0 1 0 0 1 -1 0 0 -1 0 0 -0 -1 -0 0 -1 0 1 0 0 1 0 0 -0 1 0 0 1 0 0 0 -1 0 0 -1 -0.9659279 5.170515e-05 0.2588112 -0.9659248 -2.046025e-05 0.2588228 -0.9659249 -1.985507e-05 0.2588227 -0.9659254 8.664171e-07 0.2588206 -0.965926 0 0.2588187 -0.9659275 5.250845e-05 0.2588131 -0.9659244 -4.974476e-05 0.2588244 -0.9659276 5.250846e-05 0.2588125 -0.965926 -5.653325e-07 0.2588186 -0.9659258 0 0.2588194 -0.9659258 6.266524e-07 0.2588193 0.9659258 0 0.2588194 0.9659276 5.233691e-05 0.2588124 0.9659244 -4.807271e-05 0.2588242 0.9659275 5.305762e-05 0.2588131 0.9659248 -1.909818e-05 0.2588229 0.9659248 -1.909818e-05 0.2588229 0.9659279 5.305066e-05 0.2588112 0.9659255 6.411481e-07 0.2588203 0.9659259 -5.27644e-07 0.2588186 0.9659259 0 0.2588188 0.9659258 6.893176e-07 0.2588193 -1.569536e-07 -0.9892044 0.1465423 -2.116228e-07 -0.9892045 0.146542 0 0.9659258 0.258819 0 0.9659258 0.258819 0 0 1 0 0 1 0 0 1 0 0 1 0 0 1 0 0 1 0 0 1 0 0 1 0 0 1 0 0 1 0 0 1 0 0 1 0 0 1 0 0 1 0 0 1 0 0 1 0 0 1 0 0 1 0 0 1 0 0 1 0 0 1 0 0 1 0 0 1 0 0 1 0 0 1 0 0 1 0 0 1 0 0 1 0 0 1 0 0 1 0 0 1 0 0 1 0 0 1 0 0 1 0 0 1 0 0 1 0 0 1 0 0 1 0 0 1 0 0 1 0 0 1 0 0 1 0 0 1 0 0 1 0 0 1 0 0 1 0 0 1 0 0 1 0 0 1 0 0 1 0 0 1 0 0 1 -0.8048308 0.4828982 0.345046 -0.8048308 0.4828982 0.345046 0.8048308 0.4828982 0.345046 0.8048308 0.4828982 0.345046 -0.7936478 0.4999739 0.3466255 -0.7703347 0.5334279 0.349341 -0.793651 0.4999693 0.3466246 -0.7457079 0.5660236 0.3514781 -0.7703329 0.5334297 0.3493421 -0.7198642 0.5976366 0.353024 -0.7457107 0.5660205 0.3514774 -0.6927626 0.6283136 0.3539802 -0.7198674 0.5976331 0.3530232 -0.6645671 0.6578678 0.3543453 -0.6927629 0.6283127 0.3539812 -0.6645671 0.6578678 0.3543454 -0.635206 0.6863781 0.3541163 -0.6352024 0.6863809 0.3541172 -0.6048262 0.7136988 0.3532977 -0.6048234 0.7137013 0.3532977 -0.5733989 0.7398584 0.3518851 -0.5733994 0.7398576 0.3518861 -0.5410284 0.7647668 0.3498858 -0.5410281 0.7647666 0.3498867 -0.5077625 0.7883893 0.3473033 -0.5077614 0.7883903 0.3473028 -0.4736288 0.8107069 0.3441367 -0.4736288 0.8107069 0.3441367 -0.4387186 0.8316587 0.3403966 -0.438722 0.8316568 0.3403968 -0.4030604 0.8512278 0.3360855 -0.4030532 0.8512315 0.3360846 -0.3667515 0.8693616 0.3312155 -0.366753 0.8693613 0.3312148 -0.3297884 0.8860605 0.3257858 -0.3297972 0.886057 0.3257867 -0.2923074 0.9012625 0.3198161 -0.2923075 0.9012627 0.3198154 -0.2543365 0.9149583 0.3133116 -0.2543375 0.9149576 0.3133128 -0.2159196 0.9271306 0.3062802 -0.215928 0.9271284 0.306281 -0.1771719 0.937744 0.2987412 -0.1771704 0.9377444 0.2987406 -0.1380984 0.9467968 0.2906968 -0.1380978 0.9467969 0.2906967 -0.09881075 0.9542624 0.2821694 -0.09880117 0.9542639 0.282168 -0.0593485 0.9601336 0.2731688 -0.05935583 0.9601326 0.2731711 -0.01979926 0.9643978 0.2637136 -0.0197904 0.9643983 0.2637126 0.793649 0.4999724 0.3466248 0.7936505 0.49997 0.3466251 0.7703317 0.5334319 0.3493415 0.7703353 0.5334266 0.349342 0.7457079 0.5660236 0.3514781 0.7457107 0.5660205 0.3514774 0.719868 0.5976323 0.3530236 0.7198645 0.5976366 0.3530234 0.6927626 0.6283136 0.3539802 0.6927629 0.6283127 0.3539812 0.635201 0.6863822 0.3541174 0.6645671 0.6578678 0.3543453 0.6645671 0.6578678 0.3543454 0.6048236 0.713701 0.3532977 0.6352062 0.6863775 0.3541173 0.5734015 0.7398559 0.3518862 0.6048273 0.7136978 0.3532977 0.5410284 0.7647668 0.3498858 0.5733951 0.739861 0.3518859 0.5077625 0.7883893 0.3473033 0.5410281 0.7647666 0.3498867 0.4736288 0.8107069 0.3441367 0.5077614 0.7883903 0.3473028 0.438722 0.8316568 0.3403968 0.4736288 0.8107069 0.3441367 0.4387186 0.8316587 0.3403966 0.4030604 0.8512279 0.3360854 0.4030548 0.8512307 0.3360848 0.366753 0.8693613 0.3312148 0.3667515 0.8693616 0.3312155 0.3297895 0.8860602 0.3257856 0.3297945 0.8860579 0.3257867 0.2923075 0.9012627 0.3198154 0.2923074 0.9012625 0.3198161 0.2543375 0.9149576 0.3133128 0.2543365 0.9149583 0.3133116 0.215928 0.9271281 0.3062817 0.2159215 0.9271303 0.3062798 0.1771719 0.937744 0.2987412 0.1380984 0.9467968 0.2906968 0.1771704 0.9377444 0.2987406 0.09880194 0.9542636 0.2821686 0.1380978 0.9467969 0.2906967 0.05935737 0.9601325 0.2731707 0.09880804 0.9542627 0.2821695 0.01978925 0.9643986 0.2637115 0.0593489 0.9601334 0.2731695 0.01979851 0.9643977 0.2637145 0.03097489 0.9992312 0.02403473 0.02718638 0.9992473 0.02766979 0.02815074 0.9992539 0.0264396 0.03345148 0.9994356 0.003068258 0.03100464 0.9995016 0.005938459 0.03016898 0.9995272 0.005938266 0.02817947 0.9995756 0.007376714 0.02465217 0.9996688 0.007375356 0.02388399 0.99944 0.02343665 0.0243933 0.9996797 0.006747847 0.02440932 0.9996861 -0.00566022 0.03125465 0.9916485 -0.1251255 0.03129078 0.9947093 -0.09784885 0.03276101 0.994581 -0.09866802 0.02798083 0.9914833 -0.1271923 0.02883451 0.9943511 -0.1021489 0.02880381 0.9915482 -0.1265014 0.02757435 0.99405 -0.1053767 0.02556431 0.9942902 -0.103603 0.02554583 0.9929135 -0.1160608 0.01817269 0.9913865 -0.1297022 0.03093706 0.9910754 -0.1296628 0.01474095 0.9925364 -0.1210541 0.01883102 0.9952898 -0.09509755 0.01736943 0.9930877 -0.1160818 0.02006739 0.9942285 -0.1053903 0.003173404 0.9996284 -0.02707464 -0.0006099674 0.9987217 -0.05054214 -0.004392331 0.9996252 -0.02702396 -0.004393696 0.9986701 -0.05136954 -0.02507577 0.9996846 0.001342381 -0.027817 0.9993483 0.02300299 -0.02580819 0.999441 0.0212475 -0.03120734 0.9992968 0.02078389 -0.0286689 0.999341 0.02226042 -0.02531026 0.9996793 0.0008886112 -0.02869688 0.9995878 0.0008915554 -0.03672688 0.9993032 -0.00666194 -0.03123895 0.9995106 -0.001626035 -0.03259662 0.9994673 -0.001625368 -0.01833792 0.9958767 -0.08884482 -0.0321247 0.9958814 -0.08478282 -0.02027094 0.9948941 -0.0988681 -0.01754463 0.9936409 -0.1112202 -0.02759119 0.9950508 -0.09546054 -0.02556794 0.9947728 -0.09886102 -0.02555116 0.9934697 -0.1111985 -0.03409534 0.9936183 -0.1075184 -0.02581022 0.995033 -0.09614098 -0.0288442 0.9952059 -0.09345113 -0.02798314 0.9909827 -0.1310351 -0.0249664 0.9914945 -0.127731 -0.02585049 0.9933921 -0.1118205 -0.03124039 0.9912369 -0.1283494 -0.02879894 0.9910773 -0.1301401 -0.03112633 0.9934022 -0.1103775 -0.02882612 0.993311 -0.1118134 -0.0312692 0.9933978 -0.110377 0.03287023 0.9984079 -0.04583771 0.02904876 0.9993823 -0.01978161 0.02663294 0.9994796 -0.01820331 0.01582747 0.9993996 0.03082259 0.02042268 0.9995166 0.02343814 0.01698892 0.9998329 0.006749973 0.02267973 0.999591 -0.01742017 0.02569894 0.999504 -0.01820368 0.03043434 0.9993849 -0.01741726 0.0141984 0.9998831 -0.005668003 0.02976476 0.9985012 -0.045929 0.03153164 0.9984064 -0.04680223 0.01726138 0.9998252 0.007189354 0.01975722 0.9997686 -0.00850821 0.01483271 0.9997902 -0.01412687 0.02675913 0.9985957 -0.04572342 0.01814825 0.9993411 -0.03143379 0.02678581 0.9990867 -0.03329004 0.02413418 0.9987663 -0.04339944 0.03082505 0.999002 -0.03232449 0.02024858 0.9991394 -0.03620128 0.01010595 0.9997198 0.02140206 0.004471355 0.9995036 0.03118741 0.00462179 0.999988 -0.00158504 0.02094897 0.9979581 -0.06033992 0.02944132 0.9962253 -0.08166028 0.0238143 0.9960541 -0.08549378 0.004044573 0.9999911 -0.001218278 -0.001592915 0.999764 0.02166732 0.004041504 0.9999213 0.01187614 0.003597671 0.9996324 -0.02687663 0.0081932 0.9997855 -0.01902152 0.01668206 0.9983367 -0.05518423 0.01792191 0.9973678 -0.070259 0.0143707 0.996993 -0.07614746 0.02001548 0.9979811 -0.06027447 0.01800416 0.9983346 -0.05480902 0.007742357 0.9989476 -0.04520863 0.005486117 0.9999847 -0.0005451833 -0.001013672 0.9997588 0.02193774 -0.001014636 0.9999711 0.007536264 -0.007313057 0.9999729 -0.0007869151 0.001452644 0.998793 -0.04909568 0.01363908 0.998903 -0.04479818 -0.006886823 0.9994916 0.03113166 -0.0006208815 0.9997625 0.02178518 0.01154515 0.9977373 -0.06623421 0.0179431 0.997012 -0.07513503 0.009798134 0.9957249 -0.09184858 0.01909268 0.9976636 -0.0655958 -0.001343159 0.9980853 -0.06183952 0.01484406 0.9975967 -0.06767892 -0.006073378 0.9999807 -0.001268456 -0.00606879 0.9999108 0.01189488 -0.01233574 0.9996981 0.02124748 0.009831473 0.9969068 -0.0779767 0.00555233 0.9983675 -0.0568471 0.007848407 0.9970866 -0.07587203 0.01178506 0.998217 -0.05851302 0.003174435 0.9985296 -0.05411617 0.009865949 0.9985979 -0.0520102 -0.0123609 0.9996242 -0.02446694 -0.005760846 0.9999829 -0.001045411 -0.01181147 0.9996387 -0.02414268 -0.01764861 0.9994622 0.02763952 -0.006640904 0.9998747 0.01437333 -0.01860231 0.9996862 0.01677587 -0.01705131 0.999624 -0.02147513 -0.01084525 0.9999388 0.002198501 -0.01863166 0.9998255 0.001344558 -0.02411485 0.9994834 0.0212481 -0.02123333 0.9995023 0.02332929 6.942944e-05 0.9969406 -0.07816337 -0.004371913 0.9971062 -0.0758958 -0.0203204 0.9997894 0.002870566 -0.0161259 0.9998544 0.00558949 -0.01463251 0.9996517 -0.02196073 -0.01633479 0.9998512 0.00555609 -0.0002032661 0.9971846 -0.07498577 0 0.9946117 -0.1036698 -0.0002031654 0.9958671 -0.09082161 -0.0120705 0.9951472 -0.09765411 -0.005449519 0.9985923 -0.05276226 -0.003075164 0.9972101 -0.07458292 -0.01132044 0.9989904 -0.04347568 -0.006238681 0.9985922 -0.05267585 -0.007861467 0.9986815 -0.05072756 -0.001950423 0.9950779 -0.09907629 -0.005388253 0.9969264 -0.07815994 0.003984566 0.9971818 -0.07491834 -0.01027987 0.9979683 -0.06287833 -0.00912389 0.9972543 -0.07348901 -0.01066109 0.9970877 -0.07551423 -0.01470474 0.9978234 -0.06428326 -0.01129661 0.996178 -0.08661252 -0.01416639 0.9962485 -0.08537034 -0.02017223 0.997874 -0.06197408 -0.02001839 0.9978768 -0.06197701 -0.01915765 0.9996424 -0.01865917 -0.0162063 0.999622 -0.02221245 -0.03072169 0.9993967 -0.01619861 -0.02532678 0.9995914 -0.0132588 -0.02526322 0.9995927 -0.01327011 -0.01660376 0.9953508 -0.09487442 -0.005509486 0.9930864 -0.1172568 -0.008880924 0.9953248 -0.09617527 -0.00572607 0.9946927 -0.1027314 -0.03241418 0.9989383 -0.03273457 -0.0306698 0.99924 -0.0240579 -0.02315443 0.9995725 -0.01785502 -0.02190769 0.9995726 -0.01935695 -0.02087534 0.9984122 -0.05231956 -0.02354954 0.9966125 -0.07879675 -0.01321196 0.997669 -0.06694765 -0.02897264 0.9967367 -0.07534309 -0.0134114 0.9982553 -0.05750276 -0.02295994 0.9986346 -0.04692362 -0.02026194 0.9967324 -0.0781918 -0.00833751 0.9911896 -0.1321879 -0.006177254 0.9928964 -0.1188212 -0.007530391 0.9913948 -0.1306886 -0.02569058 0.9988359 -0.04082815 -0.02991365 0.9986454 -0.04257312 -0.02665842 0.9971117 -0.0711164 -0.01821651 0.9988181 -0.04506106 -0.01816638 0.9913445 -0.1300233 -0.01396389 0.9940413 -0.1081063 -0.01208503 0.9933122 -0.1148256 -0.01933681 0.9916182 -0.1277475 -0.01848072 0.9938111 -0.1095351 -0.01365065 0.9916027 -0.1285989 -0.03602877 0.9976212 -0.05876936 -0.0233409 0.997142 -0.0718548 -0.0300288 0.9980777 -0.05421438 -0.02820667 0.9967432 -0.07554765 0.01264503 0.999909 0.00469 0.006849139 0.999701 0.02347095 0.0110794 0.9999346 0.002842412 0.008926445 0.9999536 0.003633446 0.01221248 0.9996129 0.02499498 0.01501993 0.9998603 0.007333632 0.02395806 0.9975999 -0.06496467 0.02149763 0.9961717 -0.08473353 0.03226033 0.9968926 -0.07186306 0.02063604 0.9962398 -0.08414517 0.02514478 0.9976162 -0.06426176 0.02818487 0.9960114 -0.08465768 0.028839 0.997449 -0.06529707 0.01573513 0.9997669 -0.01477592 0.01286796 0.9997957 -0.01559039 0.009807863 0.999769 -0.01912431 0.01323159 0.9992703 -0.03583114 0.01774753 0.9992454 -0.03454886 0.01453968 0.9997917 -0.01432435 -0.0002475017 0.999967 -0.008123618 -0.005803411 0.9995902 -0.02803082 -0.0014806 0.9999666 -0.008038878 -0.0006098026 0.9995968 -0.02838789 0.003113859 0.9996296 -0.02703682 0.01981465 0.9922246 -0.1228726 0.009561123 0.9957164 -0.09196442 0.01500106 0.995598 -0.09251813 0.015899 0.9922303 -0.1233944 0.007706831 0.9950857 -0.09871665 0.008344795 0.991495 -0.1298769 0.008846316 0.9914297 -0.1303409 0.01318744 0.9921164 -0.1246249 0.007180559 0.9931279 -0.116814 0.003042714 0.9934422 -0.1142945 0.01101969 0.9952028 -0.09721127 0.001485673 0.9946995 -0.1028143 0.007647231 0.9939801 -0.1092936 0.0003911545 0.9958758 -0.09072571 0.008764666 0.9959993 -0.08893096 0.005040225 0.9956128 -0.09343259 -0.03097749 -0.9912387 0.1283994 -0.02718738 -0.9908733 0.1320263 -0.02815586 -0.9910095 0.130796 -0.02614223 -0.9960515 0.0848394 -0.03344734 -0.9936346 0.1075711 -0.03100727 -0.9934002 0.1104288 -0.02818465 -0.9933236 0.111865 -0.03016973 -0.9934257 0.1104313 -0.02465957 -0.9934164 0.1118734 -0.02388812 -0.9915078 0.1278337 -0.02439926 -0.9934933 0.111246 -0.02552794 -0.9950544 0.09599522 -0.02441798 -0.9950348 0.09648653 -0.02716167 -0.994727 0.09889618 -0.03127125 -0.999294 -0.02082226 -0.03130733 -0.9994877 0.006645664 -0.03282457 -0.9994443 0.005797529 -0.02802562 -0.9993458 -0.02286224 -0.02884384 -0.9993379 -0.02217765 -0.0288745 -0.9995803 0.002316321 -0.02563377 -0.999671 0.0008868275 -0.02767465 -0.9996166 -0.0009157234 -0.03105378 -0.9991949 -0.02540256 -0.02561519 -0.9996037 -0.0116673 -0.008665518 -0.9992152 0.03865134 -0.002647671 -0.9978049 0.06616884 0.002959629 -0.9992562 0.03844991 0.008564765 -0.9977722 0.06616143 0.02782508 -0.9914639 0.127378 0.02581794 -0.9917397 0.1256422 0.02508539 -0.9940653 0.1058532 0.03121777 -0.991645 0.1251622 0.02867898 -0.9915345 0.1266365 0.02531988 -0.9941075 0.1054011 0.02870701 -0.9940161 0.1053944 0.0367378 -0.9945232 0.09784687 0.03124941 -0.9942027 0.1028807 0.03260709 -0.9941595 0.1028768 0.02716671 -0.9996151 0.005626375 0.02442089 -0.9996693 0.008056349 0.02440216 -0.9996792 -0.006782212 0.02615437 -0.999463 0.01974077 0.03346138 -0.9994352 -0.003118722 0.0255344 -0.9996374 0.008547938 0.02721957 -0.9992455 -0.02770443 0.02389299 -0.9994397 -0.02343546 0.02466254 -0.9996684 -0.007414018 0.03099504 -0.9992294 -0.02408285 0.03102487 -0.9995008 -0.005980159 0.03017734 -0.9995267 -0.005980036 0.02819359 -0.999575 -0.007415515 0.02816479 -0.9992521 -0.02649669 -0.03513269 -0.9976518 0.05879331 -0.02492366 -0.9961432 0.08412819 -0.03710327 -0.9957668 0.08409434 -0.01582837 -0.9906923 0.1351971 -0.02042857 -0.9915839 0.1278446 -0.02049718 -0.9935802 0.1112579 -0.01855327 -0.9927465 0.1187866 -0.01597594 -0.9949679 0.09891278 -0.01865844 -0.9927334 0.1188788 -0.02425875 -0.9970514 0.07280083 -0.02169743 -0.9962323 0.08396572 -0.02826908 -0.9969266 0.07306372 -0.02070025 -0.9979762 0.06012613 -0.01515085 -0.9964105 0.08328593 -0.02414272 -0.9973677 0.06837269 -0.01862498 -0.9946877 0.10124 -0.01372623 -0.9943326 0.1054239 -0.03180685 -0.9989577 0.03273746 -0.03214174 -0.9983265 0.04807356 -0.02726597 -0.9993687 0.02277416 -0.02619543 -0.9983589 0.05092335 -0.01922427 -0.9964423 0.08205652 -0.01739433 -0.9963003 0.08416115 -0.02282086 -0.9979683 0.05948462 -0.01828489 -0.997445 0.06905898 -0.01572809 -0.9982929 0.05624845 -0.01119163 -0.9977685 0.06582274 -0.01156308 -0.9923658 0.1227859 -0.004472143 -0.99107 0.1332679 -0.01987038 -0.9986853 0.04725337 -0.02569448 -0.9986811 0.04445059 -0.001144927 -0.9952028 0.09782689 -0.006939077 -0.9949414 0.100217 -0.02632375 -0.9993064 0.02633915 -0.0229403 -0.9996451 0.01354102 -0.02928875 -0.9993084 0.02291187 -0.01373614 -0.9998263 0.01259664 -0.02280539 -0.9994023 0.02597908 -0.01878281 -0.9990928 0.03822179 -0.00386976 -0.9953448 0.09630005 0.003224588 -0.9923512 0.123405 -0.003866378 -0.9935973 0.1129131 -0.01813434 -0.999116 0.03792557 -0.01161202 -0.9992517 0.03689307 -0.01450793 -0.9991159 0.03945715 -0.01969915 -0.9996886 0.01532339 -0.005302764 -0.9952879 0.09681891 0.00179743 -0.9922904 0.1239213 0.001799358 -0.9942364 0.1071949 0.009481021 -0.9951992 0.09740999 0.006889627 -0.9910597 0.1332415 -0.0002063589 -0.9924286 0.1228226 -0.01830173 -0.9994565 -0.02741686 -0.02003835 -0.9994761 -0.02541259 -0.01749034 -0.9998466 -0.0009087941 -0.0210135 -0.9997111 -0.0116706 -0.01327784 -0.9998288 0.01288908 -0.01720791 -0.9997835 0.0116996 -0.009518695 -0.9998057 -0.01725673 -0.02009762 -0.9997903 -0.003925082 0.0145574 -0.9922576 0.1233411 0.007468128 -0.9953239 0.09630477 0.0074616 -0.993577 0.1129119 -0.01043918 -0.9999021 0.009311235 -0.01560228 -0.9997059 -0.0185666 0.01514258 -0.9922759 0.1231228 0.009996699 -0.9953926 0.09536026 0.01765274 -0.9910908 0.1320125 0.008805038 -0.9925599 0.1214387 0.0241249 -0.9917817 0.1256472 0.02124278 -0.9915826 0.1277208 0.01864032 -0.9942053 0.1058703 -0.00712471 -0.9995323 -0.02973908 -0.01444792 -0.9997139 -0.01906396 -0.007642423 -0.999938 0.008106642 -0.00763598 -0.999939 -0.007979732 -0.0003114023 -0.9998258 -0.01866058 0.013083 -0.9957037 0.09166798 0.01138835 -0.9976397 0.06771517 0.01418291 -0.9977733 0.06517196 -0.00155599 -0.9998105 -0.01940365 -0.001557639 -0.9999948 -0.002820532 0.01780984 -0.9976143 0.06669651 0.00856495 -0.9991484 0.04036537 0.006245899 -0.999285 0.03728954 0.02533622 -0.9954805 0.09152415 0.01808569 -0.9957991 0.08976074 0.004681332 -0.9995817 -0.02853931 -0.003065177 -0.9998173 -0.0188704 0.01185708 -0.9997633 -0.01824618 0.004113568 -0.999957 0.008312269 0.004109938 -0.9999548 -0.00857269 0.02076461 -0.9976439 0.065387 0.02281107 -0.9966633 0.07836957 0.01192599 -0.9990924 0.0408923 0.01537721 -0.9987087 0.04841876 0.00835588 -0.9996995 0.02304432 0.006641979 -0.9999311 0.00967967 0.01333825 -0.9992001 0.0376996 0.0153447 -0.9995909 0.02413993 0.01320302 -0.9997594 -0.01751832 0.005900095 -0.9999272 0.01052618 0.03265212 -0.9968802 0.07185885 0.02701891 -0.9962248 0.08250003 0.02140881 -0.9961341 0.08519681 0.03176457 -0.995975 0.08381398 0.0283446 -0.9964147 0.07971479 0.01811929 -0.9992027 0.03557774 0.02254857 -0.9987217 0.04523661 0.02170258 -0.9995517 0.02062663 0.0150914 -0.9996623 0.02115178 0.02071649 -0.9980745 0.05846418 0.02058139 -0.9987936 0.04458465 0.02399304 -0.9990519 0.03632752 0.0281378 -0.9991045 0.03159668 0.02523128 -0.997906 0.0595574 0.02049816 -0.9997669 -0.006784901 0.008392444 -0.9998603 -0.01444678 0.01855326 -0.9997247 -0.0143603 0.01585159 -0.9994003 -0.03078607 0.02041844 -0.9995167 -0.0234378 0.006780334 -0.9998466 -0.01614956 0.01865973 -0.9997213 -0.0144545 0.03514477 -0.9983317 0.04581133 0.02429328 -0.9991991 0.03179433 0.02492897 -0.9994798 0.02046145 0.02615375 -0.9982117 0.05375335 0.03711384 -0.9991017 0.02045305 0.03167873 -0.9979521 0.0555695 -0.003109006 -0.9918321 0.1275123 -0.01150324 -0.994242 0.1065393 -0.01148218 -0.9916757 0.1282477 -0.01340624 -0.9928177 0.118884 -0.01246287 -0.9943089 0.105804 -0.01360704 -0.9941957 0.1067232 -0.01204295 -0.9960977 0.08743097 -0.01221079 -0.9960983 0.08740209 -0.01667672 -0.9965246 0.08161188 -0.01335409 -0.997903 0.06333314 -0.01477592 -0.9964427 0.08296805 -0.008666012 -0.9980989 0.061021 -0.01450943 -0.9978805 0.06343444 -0.009608187 -0.997081 0.07574315 0.00140624 -0.9979041 0.06469616 -0.007771138 -0.996666 0.081218 -0.008545139 -0.9970769 0.07592598 -0.008547188 -0.9980917 0.06115473 -0.00552209 -0.9966156 0.08201754 0.0005036545 -0.995994 0.0894189 -0.005343155 -0.9978935 0.0646541 0.002966892 -0.996097 0.08821587 -0.002526792 -0.9978859 0.06494204 0.002959663 -0.997912 0.06451966 0.004212124 -0.9959592 0.08970817 0.004257246 -0.997956 0.06376217 0.007668098 -0.9977571 0.06649717 0.0005565778 -0.9960641 0.08863445 -0.00989427 -0.9991832 0.03918015 -0.01129942 -0.9998875 0.009869842 -0.003381779 -0.9999376 0.01065055 -0.009495279 -0.9991861 0.03920552 -0.002647849 -0.998962 0.04547369 -0.001902781 -0.9998631 0.01643862 -0.006023622 -0.9993867 0.03449527 0.005878903 -0.9992194 0.0390622 -0.002227373 -0.9998643 0.0163218 -0.002228343 -0.9994968 0.03164144 0.005616366 -0.9991885 0.03988578 0.002822629 -0.9992092 0.03966255 -0.002678215 -0.9998618 0.01641031 0.007502903 -0.9999092 0.01119234 -0.001394013 -0.9999465 0.01025808 0.02107262 -0.9958586 0.08843969 0.009968864 -0.9958342 0.09063654 0.01968483 -0.9939063 0.1084567 0.01584493 -0.9939952 0.1082698 0.01975735 -0.9940764 0.1068724 0.01926539 -0.9959947 0.08731221 0.0190293 -0.9995611 0.02270656 0.01720965 -0.9998494 0.002247957 0.01722703 -0.9998515 0.0004688725 0.01940763 -0.9997958 0.005634118 0.01281761 -0.9999166 0.00158788 0.01928162 -0.9995599 0.02254171 0.01673272 -0.9996099 0.02236146 0.01324239 -0.9998721 0.008962099</float_array>
          <technique_common>
            <accessor count="1032" source="#cubenormals-array0-array" stride="3">
              <param type="float" name="X" />
              <param type="float" name="Y" />
              <param type="float" name="Z" />
            </accessor>
          </technique_common>
        </source>
        <vertices id="cubeverts-array0-vertices">
          <input semantic="POSITION" source="#cubeverts-array0" />
        </vertices>
        <triangles count="1032" material="ref_Part__Feature">
          <input offset="0" semantic="VERTEX" source="#cubeverts-array0-vertices" />
          <input offset="1" semantic="NORMAL" source="#cubenormals-array0" />
          <p>0 0 1 0 2 0 0 1 3 1 1 1 0 2 4 2 3 2 5 3 6 3 7 3 8 4 6 4 5 4 9 5 8 5 5 5 10 6 8 6 9 6 11 7 10 7 9 7 12 8 11 8 9 8 13 9 12 9 9 9 6 10 14 10 7 10 14 11 15 11 16 11 15 12 0 12 17 12 2 13 17 13 0 13 17 14 16 14 15 14 16 15 7 15 14 15 18 16 19 16 20 16 18 17 21 17 19 17 18 18 22 18 21 18 18 19 23 19 22 19 24 20 25 20 23 20 24 21 23 21 18 21 26 22 25 22 24 22 27 23 26 23 24 23 28 24 27 24 24 24 29 25 28 25 24 25 30 26 31 26 32 26 30 27 32 27 33 27 34 28 30 28 33 28 35 29 30 29 34 29 36 30 35 30 34 30 37 31 35 31 36 31 38 32 37 32 36 32 39 33 37 33 38 33 40 34 39 34 38 34 41 35 39 35 40 35 42 36 41 36 40 36 43 37 41 37 42 37 44 38 43 38 42 38 1 39 45 39 2 39 3 40 45 40 1 40 4 41 45 41 3 41 4 42 46 42 45 42 46 43 47 43 45 43 46 44 48 44 47 44 48 45 49 45 47 45 49 46 50 46 47 46 50 47 51 47 52 47 49 48 51 48 50 48 51 49 53 49 52 49 51 50 54 50 53 50 54 51 55 51 53 51 54 52 56 52 55 52 32 53 31 53 56 53 56 54 31 54 55 54 57 55 12 55 13 55 57 56 11 56 12 56 57 57 10 57 11 57 58 58 59 58 60 58 44 59 42 59 58 59 13 60 61 60 57 60 61 61 62 61 63 61 62 62 64 62 65 62 64 63 66 63 67 63 66 64 60 64 68 64 42 65 59 65 58 65 59 66 68 66 60 66 68 67 67 67 66 67 67 68 65 68 64 68 65 69 63 69 62 69 63 70 57 70 61 70 69 71 25 71 70 71 70 72 25 72 26 72 71 73 23 73 69 73 69 74 23 74 25 74 72 75 22 75 71 75 71 76 22 76 23 76 73 77 74 77 75 77 74 78 76 78 75 78 74 79 77 79 76 79 77 80 78 80 76 80 77 81 79 81 78 81 79 82 80 82 78 82 81 83 82 83 83 83 81 84 84 84 82 84 81 85 80 85 84 85 81 86 78 86 80 86 76 87 78 87 81 87 85 88 76 88 81 88 75 89 76 89 85 89 86 90 75 90 85 90 87 91 86 91 85 91 88 92 87 92 85 92 89 93 90 93 91 93 92 94 90 94 89 94 72 95 90 95 92 95 71 96 90 96 72 96 69 97 93 97 71 97 71 98 93 98 90 98 69 99 94 99 93 99 69 100 70 100 94 100 70 101 95 101 94 101 95 102 96 102 94 102 96 103 97 103 94 103 97 104 98 104 94 104 79 105 99 105 100 105 100 106 99 106 101 106 101 107 99 107 102 107 102 108 99 108 98 108 79 109 77 109 99 109 77 110 103 110 99 110 77 111 74 111 103 111 73 112 104 112 74 112 104 113 105 113 74 113 74 114 106 114 103 114 105 115 106 115 74 115 97 116 102 116 98 116 107 117 108 117 109 117 110 118 108 118 107 118 111 119 108 119 110 119 108 120 112 120 109 120 108 121 113 121 112 121 113 122 114 122 112 122 113 123 115 123 114 123 116 124 117 124 115 124 115 125 117 125 114 125 116 126 118 126 117 126 118 127 119 127 117 127 118 128 120 128 119 128 120 129 121 129 119 129 120 130 122 130 121 130 122 131 123 131 121 131 123 132 124 132 121 132 124 133 125 133 121 133 126 134 127 134 128 134 129 135 128 135 130 135 129 136 126 136 128 136 131 137 129 137 130 137 132 138 129 138 131 138 133 139 132 139 131 139 134 140 132 140 133 140 135 141 134 141 133 141 136 142 134 142 135 142 137 143 136 143 135 143 138 144 136 144 137 144 139 145 138 145 137 145 140 146 138 146 139 146 31 147 108 147 111 147 31 148 30 148 108 148 30 149 113 149 108 149 30 150 35 150 113 150 35 151 115 151 113 151 35 152 116 152 115 152 35 153 37 153 116 153 37 154 118 154 116 154 37 155 39 155 118 155 39 156 120 156 118 156 39 157 41 157 120 157 43 158 122 158 41 158 41 159 122 159 120 159 141 160 142 160 91 160 91 161 142 161 89 161 89 162 142 162 92 162 92 163 142 163 72 163 141 164 143 164 142 164 141 165 144 165 143 165 144 166 145 166 143 166 144 167 146 167 145 167 146 168 147 168 145 168 146 169 148 169 147 169 149 170 150 170 148 170 148 171 150 171 147 171 151 172 152 172 149 172 149 173 152 173 150 173 111 174 110 174 151 174 110 175 107 175 151 175 151 176 109 176 152 176 107 177 109 177 151 177 72 178 142 178 22 178 142 179 153 179 22 179 142 180 143 180 153 180 143 181 154 181 153 181 143 182 145 182 154 182 145 183 155 183 154 183 145 184 147 184 155 184 147 185 156 185 155 185 147 186 150 186 156 186 150 187 157 187 156 187 150 188 152 188 157 188 152 189 158 189 157 189 152 190 109 190 158 190 109 191 127 191 158 191 109 192 128 192 127 192 19 193 159 193 20 193 21 194 159 194 19 194 22 195 159 195 21 195 157 196 158 196 160 196 127 197 126 197 158 197 22 198 153 198 159 198 153 199 154 199 161 199 154 200 155 200 162 200 155 201 156 201 163 201 156 202 157 202 164 202 126 203 160 203 158 203 160 204 164 204 157 204 164 205 163 205 156 205 163 206 162 206 155 206 162 207 161 207 154 207 161 208 159 208 153 208 45 209 141 209 2 209 2 210 141 210 91 210 47 211 144 211 45 211 45 212 144 212 141 212 50 213 146 213 47 213 47 214 146 214 144 214 50 215 148 215 146 215 50 216 52 216 148 216 52 217 149 217 148 217 52 218 53 218 149 218 55 219 151 219 53 219 53 220 151 220 149 220 31 221 111 221 55 221 55 222 111 222 151 222 90 223 2 223 91 223 17 224 2 224 90 224 93 225 17 225 90 225 16 226 17 226 93 226 94 227 16 227 93 227 7 228 94 228 98 228 7 229 16 229 94 229 5 230 7 230 99 230 103 231 9 231 5 231 103 232 5 232 99 232 106 233 13 233 9 233 106 234 9 234 103 234 165 235 98 235 99 235 165 236 7 236 98 236 165 237 99 237 7 237 121 238 125 238 139 238 137 239 121 239 139 239 119 240 121 240 137 240 135 241 119 241 137 241 117 242 119 242 135 242 114 243 117 243 133 243 131 244 114 244 133 244 112 245 114 245 131 245 130 246 112 246 131 246 109 247 112 247 130 247 128 248 109 248 130 248 166 249 135 249 133 249 166 250 117 250 135 250 166 251 133 251 117 251 167 252 104 252 73 252 167 253 105 253 104 253 167 254 106 254 105 254 167 255 168 255 106 255 169 256 168 256 167 256 170 257 168 257 169 257 171 258 170 258 169 258 172 259 170 259 171 259 173 260 172 260 171 260 174 261 172 261 173 261 175 262 176 262 174 262 175 263 174 263 173 263 177 264 178 264 176 264 177 265 176 265 175 265 123 266 122 266 178 266 124 267 123 267 178 267 125 268 178 268 177 268 125 269 124 269 178 269 167 270 73 270 75 270 179 271 167 271 75 271 169 272 167 272 179 272 180 273 169 273 179 273 171 274 169 274 180 274 181 275 171 275 180 275 173 276 171 276 181 276 182 277 173 277 181 277 175 278 173 278 182 278 183 279 175 279 182 279 177 280 175 280 183 280 184 281 177 281 183 281 125 282 177 282 184 282 139 283 125 283 184 283 179 284 87 284 88 284 179 285 86 285 87 285 179 286 75 286 86 286 185 287 179 287 88 287 180 288 179 288 185 288 186 289 180 289 185 289 187 290 180 290 186 290 181 291 180 291 187 291 188 292 182 292 181 292 188 293 181 293 187 293 183 294 182 294 188 294 189 295 183 295 188 295 184 296 183 296 189 296 190 297 184 297 189 297 139 298 184 298 190 298 140 299 139 299 190 299 168 300 61 300 13 300 168 301 13 301 106 301 170 302 62 302 61 302 170 303 61 303 168 303 172 304 64 304 62 304 172 305 62 305 170 305 174 306 64 306 172 306 66 307 64 307 174 307 176 308 66 308 174 308 60 309 66 309 176 309 178 310 58 310 60 310 178 311 60 311 176 311 122 312 44 312 58 312 122 313 43 313 44 313 122 314 58 314 178 314 191 315 192 315 193 315 191 316 193 316 194 316 195 317 192 317 191 317 196 318 192 318 195 318 197 319 192 319 196 319 198 320 192 320 197 320 199 321 192 321 198 321 200 322 192 322 199 322 201 323 192 323 200 323 202 324 192 324 201 324 203 325 192 325 202 325 204 326 192 326 203 326 205 327 192 327 204 327 206 328 192 328 205 328 207 329 192 329 206 329 208 330 192 330 207 330 209 331 192 331 208 331 210 332 192 332 209 332 211 333 192 333 210 333 212 334 192 334 211 334 213 335 192 335 212 335 214 336 194 336 193 336 215 337 214 337 193 337 216 338 214 338 215 338 217 339 216 339 215 339 217 340 218 340 219 340 217 341 219 341 220 341 217 342 220 342 221 342 217 343 221 343 222 343 217 344 222 344 223 344 217 345 223 345 224 345 217 346 224 346 225 346 217 347 225 347 226 347 217 348 226 348 227 348 217 349 227 349 228 349 217 350 228 350 229 350 217 351 229 351 230 351 217 352 230 352 231 352 217 353 231 353 232 353 217 354 232 354 233 354 217 355 233 355 234 355 217 356 234 356 235 356 217 357 235 357 236 357 217 358 236 358 216 358 217 359 192 359 237 359 237 360 192 360 238 360 238 361 192 361 239 361 239 362 192 362 240 362 240 363 192 363 241 363 241 364 192 364 242 364 242 365 192 365 213 365 217 366 237 366 243 366 217 367 243 367 244 367 217 368 244 368 245 368 217 369 245 369 246 369 217 370 246 370 247 370 217 371 247 371 248 371 217 372 248 372 218 372 193 373 192 373 249 373 249 374 192 374 250 374 215 375 193 375 251 375 251 376 193 376 249 376 217 377 251 377 252 377 217 378 215 378 251 378 192 379 217 379 250 379 250 380 217 380 252 380 249 381 252 381 251 381 250 382 252 382 249 382 96 383 194 383 97 383 95 384 194 384 96 384 70 385 194 385 95 385 191 386 70 386 26 386 191 387 194 387 70 387 253 388 26 388 27 388 253 389 27 389 28 389 253 390 28 390 29 390 253 391 191 391 26 391 254 392 253 392 255 392 254 393 191 393 253 393 256 394 257 394 258 394 82 395 256 395 83 395 84 396 256 396 82 396 80 397 256 397 84 397 214 398 79 398 100 398 214 399 100 399 101 399 214 400 101 400 102 400 216 401 80 401 79 401 216 402 256 402 80 402 216 403 79 403 214 403 216 404 257 404 256 404 102 405 97 405 214 405 97 406 194 406 214 406 259 407 243 407 237 407 259 408 237 408 260 408 261 409 262 409 263 409 261 410 263 410 264 410 265 411 264 411 266 411 265 412 261 412 264 412 267 413 266 413 268 413 267 414 265 414 266 414 269 415 268 415 270 415 269 416 267 416 268 416 271 417 270 417 272 417 271 418 269 418 270 418 273 419 271 419 272 419 274 420 273 420 272 420 275 421 274 421 272 421 276 422 275 422 272 422 277 423 276 423 272 423 278 424 277 424 272 424 279 425 278 425 272 425 280 426 279 426 272 426 281 427 280 427 272 427 257 428 254 428 255 428 257 429 255 429 258 429 282 430 281 430 272 430 283 431 282 431 272 431 284 432 283 432 272 432 260 433 284 433 272 433 259 434 260 434 272 434 285 435 259 435 272 435 285 436 272 436 254 436 285 437 286 437 287 437 285 438 287 438 288 438 285 439 288 439 289 439 285 440 289 440 290 440 285 441 290 441 291 441 285 442 291 442 292 442 285 443 292 443 293 443 285 444 293 444 294 444 285 445 294 445 295 445 285 446 295 446 296 446 285 447 296 447 297 447 285 448 297 448 259 448 285 449 254 449 257 449 298 450 286 450 285 450 299 451 298 451 285 451 300 452 298 452 299 452 301 453 300 453 299 453 302 454 300 454 301 454 303 455 302 455 301 455 304 456 302 456 303 456 305 457 304 457 303 457 306 458 304 458 305 458 307 459 306 459 305 459 308 460 306 460 307 460 272 461 191 461 254 461 272 462 195 462 191 462 257 463 216 463 285 463 285 464 216 464 236 464 195 465 272 465 270 465 196 466 270 466 268 466 196 467 195 467 270 467 197 468 268 468 266 468 197 469 196 469 268 469 198 470 266 470 264 470 198 471 197 471 266 471 199 472 264 472 263 472 199 473 198 473 264 473 200 474 263 474 262 474 200 475 199 475 263 475 201 476 200 476 262 476 202 477 262 477 261 477 202 478 201 478 262 478 203 479 261 479 265 479 203 480 202 480 261 480 204 481 265 481 267 481 204 482 203 482 265 482 205 483 267 483 269 483 205 484 204 484 267 484 206 485 269 485 271 485 206 486 205 486 269 486 207 487 206 487 271 487 207 488 271 488 273 488 208 489 207 489 273 489 208 490 273 490 274 490 209 491 208 491 274 491 209 492 274 492 275 492 210 493 209 493 275 493 210 494 275 494 276 494 211 495 210 495 276 495 211 496 276 496 277 496 212 497 211 497 277 497 212 498 277 498 278 498 213 499 212 499 278 499 213 500 278 500 279 500 242 501 279 501 280 501 242 502 213 502 279 502 241 503 280 503 281 503 241 504 242 504 280 504 240 505 281 505 282 505 240 506 241 506 281 506 239 507 282 507 283 507 239 508 240 508 282 508 238 509 283 509 284 509 238 510 239 510 283 510 237 511 284 511 260 511 237 512 238 512 284 512 299 513 285 513 236 513 299 514 236 514 235 514 301 515 235 515 234 515 301 516 299 516 235 516 303 517 234 517 233 517 303 518 301 518 234 518 305 519 233 519 232 519 305 520 303 520 233 520 307 521 232 521 231 521 307 522 305 522 232 522 308 523 230 523 229 523 308 524 231 524 230 524 308 525 307 525 231 525 306 526 229 526 228 526 306 527 308 527 229 527 304 528 228 528 227 528 304 529 306 529 228 529 302 530 227 530 226 530 302 531 304 531 227 531 300 532 226 532 225 532 300 533 302 533 226 533 298 534 225 534 224 534 298 535 300 535 225 535 286 536 224 536 223 536 286 537 298 537 224 537 287 538 286 538 223 538 287 539 223 539 222 539 288 540 287 540 222 540 288 541 222 541 221 541 289 542 288 542 221 542 289 543 221 543 220 543 290 544 289 544 220 544 290 545 220 545 219 545 291 546 290 546 219 546 291 547 219 547 218 547 292 548 291 548 218 548 292 549 218 549 248 549 293 550 292 550 248 550 293 551 248 551 247 551 294 552 247 552 246 552 294 553 293 553 247 553 295 554 246 554 245 554 295 555 294 555 246 555 296 556 245 556 244 556 296 557 295 557 245 557 297 558 244 558 243 558 297 559 296 559 244 559 259 560 297 560 243 560 309 561 140 561 190 561 310 562 138 562 140 562 310 563 140 563 309 563 311 564 190 564 189 564 311 565 309 565 190 565 312 566 309 566 311 566 312 567 310 567 309 567 313 568 310 568 312 568 313 569 138 569 310 569 314 570 313 570 312 570 315 571 314 571 312 571 316 572 185 572 88 572 316 573 186 573 185 573 316 574 317 574 186 574 318 575 88 575 85 575 318 576 317 576 316 576 318 577 316 577 88 577 319 578 320 578 317 578 319 579 317 579 318 579 321 580 319 580 318 580 321 581 85 581 81 581 321 582 318 582 85 582 322 583 321 583 81 583 322 584 323 584 320 584 322 585 319 585 321 585 322 586 320 586 319 586 324 587 325 587 326 587 327 588 328 588 324 588 329 589 330 589 328 589 329 590 328 590 327 590 331 591 332 591 333 591 331 592 126 592 129 592 331 593 129 593 332 593 334 594 160 594 126 594 334 595 126 595 331 595 335 596 331 596 333 596 335 597 334 597 331 597 336 598 164 598 160 598 336 599 160 599 334 599 336 600 334 600 335 600 337 601 338 601 339 601 340 602 161 602 162 602 341 603 337 603 339 603 342 604 341 604 339 604 343 605 340 605 337 605 343 606 337 606 341 606 343 607 341 607 342 607 344 608 159 608 161 608 344 609 340 609 343 609 344 610 161 610 340 610 345 611 18 611 20 611 345 612 342 612 18 612 345 613 343 613 342 613 346 614 20 614 159 614 346 615 345 615 20 615 346 616 344 616 343 616 346 617 343 617 345 617 346 618 159 618 344 618 347 619 188 619 187 619 347 620 189 620 188 620 347 621 311 621 189 621 348 622 136 622 138 622 348 623 138 623 313 623 348 624 313 624 314 624 349 625 312 625 311 625 349 626 311 626 347 626 349 627 315 627 312 627 350 628 314 628 315 628 351 629 349 629 347 629 351 630 347 630 187 630 352 631 348 631 314 631 352 632 314 632 350 632 353 633 352 633 350 633 354 634 349 634 351 634 355 635 315 635 349 635 355 636 353 636 350 636 355 637 349 637 354 637 355 638 350 638 315 638 355 639 356 639 353 639 357 640 136 640 358 640 357 641 134 641 136 641 359 642 325 642 358 642 360 643 355 643 354 643 361 644 360 644 320 644 361 645 320 645 323 645 362 646 358 646 325 646 362 647 134 647 357 647 362 648 357 648 358 648 363 649 326 649 325 649 363 650 325 650 359 650 364 651 356 651 355 651 364 652 360 652 361 652 364 653 361 653 323 653 364 654 355 654 360 654 365 655 356 655 364 655 365 656 363 656 356 656 366 657 362 657 325 657 367 658 134 658 362 658 367 659 362 659 366 659 367 660 366 660 330 660 368 661 363 661 365 661 368 662 326 662 363 662 369 663 132 663 134 663 369 664 134 664 367 664 370 665 365 665 364 665 370 666 364 666 323 666 370 667 323 667 322 667 370 668 368 668 365 668 371 669 326 669 368 669 371 670 368 670 370 670 372 671 367 671 330 671 372 672 369 672 367 672 372 673 132 673 369 673 373 674 371 674 370 674 374 675 326 675 371 675 374 676 371 676 373 676 375 677 326 677 374 677 375 678 324 678 326 678 375 679 327 679 324 679 376 680 329 680 377 680 376 681 372 681 330 681 376 682 330 682 329 682 378 683 129 683 132 683 379 684 378 684 132 684 379 685 132 685 372 685 379 686 376 686 377 686 379 687 372 687 376 687 380 688 333 688 332 688 380 689 332 689 129 689 380 690 129 690 378 690 381 691 375 691 374 691 381 692 327 692 375 692 382 693 333 693 380 693 382 694 378 694 379 694 382 695 379 695 377 695 382 696 380 696 378 696 383 697 327 697 381 697 384 698 258 698 255 698 384 699 383 699 381 699 384 700 255 700 383 700 385 701 329 701 327 701 385 702 327 702 383 702 386 703 377 703 329 703 387 704 329 704 385 704 387 705 386 705 329 705 388 706 383 706 255 706 388 707 385 707 383 707 388 708 389 708 385 708 390 709 387 709 385 709 390 710 385 710 389 710 391 711 390 711 389 711 391 712 387 712 390 712 391 713 339 713 338 713 391 714 389 714 339 714 391 715 338 715 386 715 391 716 386 716 387 716 392 717 333 717 382 717 392 718 382 718 377 718 393 719 164 719 336 719 393 720 335 720 333 720 393 721 336 721 335 721 394 722 389 722 388 722 394 723 255 723 253 723 394 724 339 724 389 724 394 725 388 725 255 725 395 726 163 726 164 726 395 727 164 727 393 727 395 728 333 728 392 728 395 729 393 729 333 729 396 730 377 730 386 730 396 731 338 731 337 731 396 732 386 732 338 732 397 733 396 733 337 733 397 734 377 734 396 734 397 735 392 735 377 735 397 736 337 736 340 736 398 737 29 737 24 737 398 738 394 738 253 738 398 739 253 739 29 739 399 740 163 740 395 740 399 741 395 741 392 741 399 742 397 742 340 742 399 743 392 743 397 743 400 744 24 744 18 744 400 745 339 745 394 745 400 746 394 746 398 746 400 747 18 747 342 747 400 748 342 748 339 748 400 749 398 749 24 749 401 750 162 750 163 750 401 751 399 751 340 751 401 752 163 752 399 752 401 753 340 753 162 753 402 754 352 754 403 754 402 755 358 755 136 755 402 756 359 756 358 756 402 757 403 757 359 757 402 758 136 758 348 758 402 759 348 759 352 759 404 760 354 760 351 760 404 761 320 761 360 761 404 762 187 762 186 762 404 763 317 763 320 763 404 764 360 764 354 764 404 765 186 765 317 765 404 766 351 766 187 766 405 767 403 767 352 767 405 768 359 768 403 768 405 769 363 769 359 769 405 770 356 770 363 770 405 771 353 771 356 771 405 772 352 772 353 772 406 773 366 773 325 773 406 774 328 774 330 774 406 775 330 775 366 775 406 776 324 776 328 776 406 777 325 777 324 777 407 778 322 778 81 778 407 779 370 779 322 779 407 780 373 780 370 780 408 781 407 781 81 781 408 782 373 782 407 782 409 783 81 783 83 783 409 784 83 784 256 784 409 785 408 785 81 785 410 786 256 786 258 786 410 787 409 787 256 787 410 788 373 788 408 788 410 789 258 789 384 789 410 790 408 790 409 790 410 791 374 791 373 791 410 792 381 792 374 792 410 793 384 793 381 793 411 794 10 794 57 794 412 795 8 795 10 795 412 796 10 796 411 796 413 797 63 797 65 797 413 798 57 798 63 798 413 799 411 799 57 799 414 800 412 800 411 800 414 801 411 801 413 801 415 802 412 802 414 802 415 803 8 803 412 803 416 804 415 804 414 804 417 805 414 805 413 805 417 806 416 806 414 806 418 807 416 807 417 807 419 808 59 808 42 808 419 809 68 809 59 809 419 810 420 810 68 810 421 811 42 811 40 811 421 812 419 812 42 812 421 813 420 813 419 813 422 814 420 814 421 814 422 815 423 815 420 815 424 816 421 816 40 816 424 817 422 817 421 817 425 818 426 818 427 818 428 819 429 819 426 819 430 820 431 820 428 820 432 821 433 821 431 821 434 822 4 822 0 822 434 823 0 823 435 823 434 824 435 824 436 824 437 825 46 825 4 825 437 826 4 826 434 826 438 827 434 827 436 827 438 828 437 828 434 828 439 829 48 829 46 829 439 830 46 830 437 830 439 831 437 831 438 831 440 832 441 832 442 832 443 833 441 833 440 833 443 834 440 834 444 834 445 835 54 835 51 835 445 836 56 836 54 836 445 837 441 837 443 837 446 838 33 838 32 838 446 839 444 839 33 839 446 840 443 840 444 840 447 841 32 841 56 841 447 842 56 842 445 842 447 843 445 843 443 843 447 844 443 844 446 844 447 845 446 845 32 845 448 846 65 846 67 846 448 847 413 847 65 847 448 848 417 848 413 848 449 849 6 849 8 849 449 850 8 850 415 850 450 851 415 851 416 851 450 852 449 852 415 852 450 853 416 853 418 853 451 854 449 854 450 854 452 855 417 855 448 855 453 856 418 856 417 856 453 857 417 857 452 857 454 858 452 858 455 858 454 859 418 859 453 859 454 860 453 860 452 860 456 861 450 861 418 861 456 862 451 862 450 862 457 863 67 863 68 863 457 864 452 864 448 864 457 865 68 865 420 865 457 866 448 866 67 866 458 867 418 867 454 867 458 868 456 868 418 868 459 869 454 869 455 869 459 870 458 870 454 870 459 871 455 871 427 871 459 872 427 872 458 872 460 873 6 873 461 873 460 874 14 874 6 874 462 875 452 875 457 875 462 876 455 876 452 876 463 877 429 877 461 877 463 878 461 878 464 878 465 879 462 879 457 879 465 880 420 880 423 880 465 881 457 881 420 881 466 882 465 882 423 882 466 883 462 883 465 883 466 884 455 884 462 884 467 885 461 885 429 885 467 886 14 886 460 886 467 887 460 887 461 887 468 888 455 888 466 888 468 889 425 889 427 889 468 890 427 890 455 890 468 891 466 891 423 891 469 892 467 892 429 892 470 893 14 893 467 893 470 894 467 894 469 894 470 895 469 895 433 895 471 896 15 896 14 896 471 897 14 897 470 897 472 898 40 898 38 898 472 899 424 899 40 899 472 900 423 900 422 900 472 901 422 901 424 901 473 902 425 902 468 902 473 903 468 903 423 903 473 904 472 904 38 904 473 905 423 905 472 905 474 906 15 906 471 906 474 907 470 907 433 907 474 908 471 908 470 908 475 909 425 909 473 909 475 910 473 910 38 910 476 911 15 911 474 911 476 912 474 912 433 912 477 913 0 913 15 913 477 914 15 914 476 914 478 915 435 915 0 915 478 916 0 916 477 916 478 917 436 917 435 917 479 918 38 918 36 918 479 919 475 919 38 919 480 920 425 920 475 920 480 921 475 921 479 921 480 922 479 922 36 922 481 923 476 923 433 923 481 924 433 924 432 924 481 925 432 925 482 925 483 926 480 926 36 926 483 927 484 927 480 927 485 928 481 928 482 928 486 929 432 929 431 929 486 930 431 930 430 930 487 931 438 931 436 931 487 932 436 932 485 932 488 933 36 933 34 933 488 934 483 934 36 934 489 935 488 935 34 935 489 936 430 936 483 936 489 937 483 937 488 937 490 938 485 938 482 938 490 939 487 939 485 939 491 940 432 940 486 940 491 941 482 941 432 941 492 942 486 942 430 942 492 943 430 943 489 943 493 944 491 944 486 944 493 945 486 945 492 945 494 946 489 946 34 946 494 947 492 947 489 947 495 948 49 948 48 948 495 949 48 949 439 949 495 950 439 950 438 950 495 951 438 951 487 951 495 952 487 952 490 952 496 953 491 953 493 953 496 954 482 954 491 954 497 955 442 955 441 955 497 956 496 956 442 956 498 957 495 957 490 957 498 958 482 958 496 958 498 959 496 959 497 959 498 960 497 960 441 960 498 961 490 961 482 961 499 962 444 962 440 962 500 963 501 963 494 963 500 964 444 964 499 964 500 965 34 965 33 965 500 966 33 966 444 966 500 967 494 967 34 967 500 968 499 968 501 968 502 969 51 969 49 969 502 970 498 970 441 970 502 971 445 971 51 971 502 972 49 972 495 972 502 973 441 973 445 973 502 974 495 974 498 974 503 975 461 975 6 975 503 976 464 976 461 976 503 977 6 977 449 977 503 978 449 978 451 978 503 979 451 979 456 979 503 980 456 980 464 980 504 981 463 981 464 981 504 982 464 982 456 982 505 983 504 983 456 983 505 984 458 984 427 984 505 985 456 985 458 985 506 986 427 986 426 986 506 987 505 987 427 987 506 988 504 988 505 988 507 989 426 989 429 989 507 990 429 990 463 990 507 991 504 991 506 991 507 992 506 992 426 992 507 993 463 993 504 993 508 994 469 994 429 994 508 995 429 995 428 995 509 996 469 996 508 996 509 997 508 997 428 997 510 998 428 998 431 998 510 999 433 999 469 999 510 1000 509 1000 428 1000 510 1001 431 1001 433 1001 510 1002 469 1002 509 1002 511 1003 426 1003 425 1003 511 1004 480 1004 484 1004 511 1005 425 1005 480 1005 512 1006 426 1006 511 1006 512 1007 428 1007 426 1007 513 1008 511 1008 484 1008 513 1009 512 1009 511 1009 514 1010 428 1010 512 1010 514 1011 513 1011 484 1011 514 1012 512 1012 513 1012 515 1013 430 1013 428 1013 515 1014 428 1014 514 1014 515 1015 514 1015 484 1015 515 1016 484 1016 483 1016 515 1017 483 1017 430 1017 516 1018 485 1018 436 1018 516 1019 476 1019 481 1019 516 1020 477 1020 476 1020 516 1021 478 1021 477 1021 516 1022 436 1022 478 1022 516 1023 481 1023 485 1023 517 1024 496 1024 493 1024 517 1025 499 1025 440 1025 517 1026 494 1026 501 1026 517 1027 440 1027 442 1027 517 1028 501 1028 499 1028 517 1029 442 1029 496 1029 517 1030 493 1030 492 1030 517 1031 492 1031 494 1031</p>
        </triangles>
      </mesh>
    </geometry>
  </library_geometries>
  <library_materials>
    <material id="mat_Part__Feature" name="Part__Feature">
      <instance_effect url="#effect_Part__Feature" />
    </material>
  </library_materials>
  <library_visual_scenes>
    <visual_scene id="myscene">
      <node id="node0" name="node0">
        <instance_geometry url="#geometry0">
          <bind_material>
            <technique_common>
              <instance_material symbol="ref_Part__Feature" target="#mat_Part__Feature" />
            </technique_common>
          </bind_material>
        </instance_geometry>
      </node>
    </visual_scene>
  </library_visual_scenes>
  <scene>
    <instance_visual_scene url="#myscene" />
  </scene>
</COLLADA>
