<COLLADA xmlns="http://www.collada.org/2005/11/COLLADASchema" version="1.4.1">
  <asset>
    <contributor />
    <created>2023-12-26T08:24:51.737481</created>
    <modified>2023-12-26T08:24:51.737481</modified>
    <unit name="meter" meter="1.0" />
    <up_axis>Z_UP</up_axis>
  </asset>
  <library_effects>
    <effect id="effect_Part__Feature" name="effect_Part__Feature">
      <profile_COMMON>
        <technique sid="common">
          <phong>
            <emission>
              <color>0.0 0.0 0.0 1.0</color>
            </emission>
            <ambient>
              <color>0.0 0.0 0.0 1.0</color>
            </ambient>
            <diffuse>
              <color>0.9960784316062927 0.8156862854957581 0.18039216101169586 1.0</color>
            </diffuse>
            <specular>
              <color>1 1 1 1.0</color>
            </specular>
            <shininess>
              <float>0.0</float>
            </shininess>
            <reflective>
              <color>0.0 0.0 0.0 1.0</color>
            </reflective>
            <reflectivity>
              <float>0.0</float>
            </reflectivity>
            <transparent>
              <color>0.0 0.0 0.0 1.0</color>
            </transparent>
            <transparency>
              <float>1.0</float>
            </transparency>
          </phong>
        </technique>
        <extra>
          <technique profile="GOOGLEEARTH">
            <double_sided>0</double_sided>
          </technique>
        </extra>
      </profile_COMMON>
    </effect>
  </library_effects>
  <library_geometries>
    <geometry id="geometry0" name="Part__Feature">
      <mesh>
        <source id="cubeverts-array0">
          <float_array count="198" id="cubeverts-array0-array">0.0001124222 -0.5334 -0.01676069 0.6097124 -0.5334 -0.01676069 0.0001124222 -0.5334 0.5102893 0.6097124 -0.5334 0.5102893 0.0001124222 -0.4826 0.5102893 0.6097124 -0.4826 0.5102893 0.6097124 -0.762 0.5356893 0.6097124 -0.762 -0.01676069 0.6097124 -0.4826 0.5356893 0.0001124222 -0.4826 0.5356893 0.0001124222 -0.762 -0.01676069 0.0001124222 -0.762 0.5356893 2.559162 -0.762 -0.01676069 2.559162 -0.762 0.5356893 2.559162 0 0.5356893 1.962262 -0.0635 0.5356893 2.489313 -0.0635 0.5356893 2.489313 -0.71755 0.5356893 1.854312 -0.0635 0.5356893 1.962262 -0.71755 0.5356893 1.854312 -0.71755 0.5356893 1.327262 -0.0635 0.5356893 1.219312 -0.71755 0.5356893 1.327262 -0.71755 0.5356893 1.219312 -0.0635 0.5356893 0.5970125 -0.0635 0.5356893 0.5970125 -0.4445 0.5356893 0.6922625 -0.0635 0.5356893 -0.05068758 -2.775558e-17 0.5356893 0.3303124 -0.0635 0.5356893 0.2795124 -0.0635 0.5356893 0.01281242 -0.0635 0.5356893 0.3303124 -0.4445 0.5356893 0.6922625 -0.71755 0.5356893 0.2795124 -0.4445 0.5356893 0.01281242 -0.4445 0.5356893 -0.05068758 -0.762 0.5356893 2.559162 0 -0.01676069 2.616313 0.05715 -0.01676069 2.616313 0.05715 0.5928393 -0.05068758 0.05715 0.5928393 2.616313 0.0635 -0.01676069 -0.05068758 0.0635 -0.01676069 -0.05068758 0.0635 0.5928393 2.616313 0.0635 0.5928393 -0.05068758 -0.762 -0.01676069 1.962262 -0.0635 0.02768931 1.962262 -0.71755 0.02768931 2.489313 -0.0635 0.02768931 2.489313 -0.71755 0.02768931 1.327262 -0.0635 0.02768931 1.327262 -0.71755 0.02768931 1.854312 -0.0635 0.02768931 1.854312 -0.71755 0.02768931 0.6922625 -0.0635 0.02768931 0.6922625 -0.71755 0.02768931 1.219312 -0.0635 0.02768931 1.219312 -0.71755 0.02768931 0.3303124 -0.0635 0.02768931 0.3303124 -0.4445 0.02768931 0.5970125 -0.0635 0.02768931 0.5970125 -0.4445 0.02768931 0.01281242 -0.0635 0.02768931 0.01281242 -0.4445 0.02768931 0.2795124 -0.0635 0.02768931 0.2795124 -0.4445 0.02768931</float_array>
          <technique_common>
            <accessor count="66" source="#cubeverts-array0-array" stride="3">
              <param type="float" name="X" />
              <param type="float" name="Y" />
              <param type="float" name="Z" />
            </accessor>
          </technique_common>
        </source>
        <source id="cubenormals-array0">
          <float_array count="384" id="cubenormals-array0-array">0 -1 0 0 -1 0 -0 0 1 0 0 1 -1 0 0 -1 0 0 -1 0 0 -1 0 0 0 -1 0 0 -1 0 1 0 -0 1 0 0 1 0 -0 1 0 -0 0 -1 0 0 -1 0 0 0 1 -0 0 1 0 0 1 -0 0 1 0 0 1 0 0 1 0 0 1 -0 0 1 -0 0 1 0 0 1 0 0 1 0 0 1 -0 0 1 0 0 1 -0 0 1 0 0 1 0 0 1 0 0 1 -0 0 1 0 0 1 0 0 1 0 0 1 0 0 1 0 0 1 0 0 1 0 0 1 0 0 1 0 0 1 0 0 1 -0 0 1 -0 0 1 -0 0 1 0 0 1 -0 0 1 0 -0 1 0 -0 1 1 0 -0 1 0 0 0.7071059 -0.7071077 0 0.7071059 -0.7071077 0 0 -0.7071066 0.707107 7.52003e-18 -0.7071066 0.707107 0 1 0 0 1 -0 0 0 -1 0 0 -1 0 0 -1 0 0 -1 0 0 -1 0 0 -1 0 0 -1 0 0 -1 1 0 -0 1 0 0 -0 0 1 0 0 1 -1 0 0 -1 0 -0 -1 0 -0 -1 0 -0 0 -1 0 0 -1 0 1 0 -0 1 0 0 0 -1 0 0 -1 0 -1 0 0 -1 -0 -0 0 1 0 0 1 0 0 0 1 0 0 1 1 0 -0 1 0 0 0 -1 0 0 -1 0 -1 0 0 -1 -0 -0 -0 1 0 0 1 0 0 0 1 0 0 1 1 0 0 1 0 0 0 -1 0 0 -1 0 -1 0 0 -1 -0 -0 0 1 0 0 1 0 0 0 1 0 0 1 1 0 0 1 0 0 0 -1 0 0 -1 0 -1 0 0 -1 -0 -0 0 1 0 0 1 0 0 0 1 0 0 1 1 0 0 1 0 0 0 -1 0 0 -1 0 -1 0 0 -1 0 0 0 1 0 0 1 0 0 0 1 0 0 1</float_array>
          <technique_common>
            <accessor count="128" source="#cubenormals-array0-array" stride="3">
              <param type="float" name="X" />
              <param type="float" name="Y" />
              <param type="float" name="Z" />
            </accessor>
          </technique_common>
        </source>
        <vertices id="cubeverts-array0-vertices">
          <input semantic="POSITION" source="#cubeverts-array0" />
        </vertices>
        <triangles count="128" material="ref_Part__Feature">
          <input offset="0" semantic="VERTEX" source="#cubeverts-array0-vertices" />
          <input offset="1" semantic="NORMAL" source="#cubenormals-array0" />
          <p>0 0 1 0 2 0 2 1 1 1 3 1 4 2 2 2 5 2 5 3 2 3 3 3 6 4 3 4 7 4 7 5 3 5 1 5 3 6 8 6 5 6 6 7 8 7 3 7 4 8 5 8 9 8 9 9 5 9 8 9 0 10 2 10 10 10 10 11 2 11 11 11 4 12 9 12 2 12 2 13 9 13 11 13 12 14 6 14 7 14 12 15 13 15 6 15 14 16 15 16 16 16 16 17 13 17 14 17 16 18 17 18 13 18 18 19 19 19 15 19 17 20 19 20 13 20 18 21 20 21 19 21 21 22 22 22 23 22 24 23 22 23 21 23 25 24 26 24 27 24 25 25 28 25 29 25 29 26 28 26 30 26 28 27 31 27 30 27 30 28 32 28 29 28 26 29 32 29 8 29 33 30 6 30 22 30 8 31 6 31 33 31 30 32 34 32 32 32 28 33 35 33 31 33 35 34 9 34 34 34 28 35 9 35 35 35 9 36 36 36 11 36 28 37 36 37 9 37 14 38 28 38 15 38 15 39 28 39 18 39 18 40 28 40 21 40 21 41 28 41 24 41 24 42 28 42 27 42 27 43 28 43 25 43 6 44 13 44 22 44 22 45 13 45 23 45 23 46 13 46 20 46 20 47 13 47 19 47 9 48 8 48 34 48 34 49 8 49 32 49 33 50 27 50 8 50 8 51 27 51 26 51 37 52 14 52 12 52 12 53 14 53 13 53 38 54 14 54 37 54 38 55 39 55 14 55 39 56 40 56 14 56 14 57 40 57 28 57 41 58 42 58 43 58 41 59 43 59 44 59 45 60 0 60 10 60 45 61 42 61 0 61 42 62 1 62 0 62 1 63 12 63 7 63 1 64 37 64 12 64 42 65 37 65 1 65 37 66 41 66 38 66 42 67 41 67 37 67 41 68 44 68 38 68 38 69 44 69 39 69 43 70 40 70 44 70 44 71 40 71 39 71 36 72 28 72 45 72 40 73 43 73 28 73 28 74 42 74 45 74 43 75 42 75 28 75 10 76 11 76 36 76 10 77 36 77 45 77 46 78 15 78 47 78 47 79 15 79 19 79 48 80 16 80 46 80 46 81 16 81 15 81 17 82 48 82 49 82 16 83 48 83 17 83 19 84 49 84 47 84 17 85 49 85 19 85 48 86 46 86 47 86 48 87 47 87 49 87 50 88 21 88 51 88 51 89 21 89 23 89 50 90 52 90 21 90 52 91 18 91 21 91 20 92 52 92 53 92 18 93 52 93 20 93 23 94 20 94 51 94 20 95 53 95 51 95 52 96 50 96 51 96 52 97 51 97 53 97 27 98 33 98 54 98 54 99 33 99 55 99 56 100 24 100 54 100 54 101 24 101 27 101 22 102 56 102 57 102 24 103 56 103 22 103 33 104 57 104 55 104 22 105 57 105 33 105 56 106 54 106 55 106 56 107 55 107 57 107 29 108 32 108 58 108 58 109 32 109 59 109 60 110 25 110 58 110 58 111 25 111 29 111 26 112 60 112 61 112 25 113 60 113 26 113 26 114 59 114 32 114 26 115 61 115 59 115 60 116 58 116 59 116 60 117 59 117 61 117 31 118 35 118 62 118 62 119 35 119 63 119 64 120 30 120 62 120 62 121 30 121 31 121 65 122 34 122 64 122 34 123 30 123 64 123 34 124 63 124 35 124 34 125 65 125 63 125 64 126 62 126 63 126 64 127 63 127 65 127</p>
        </triangles>
      </mesh>
    </geometry>
  </library_geometries>
  <library_materials>
    <material id="mat_Part__Feature" name="Part__Feature">
      <instance_effect url="#effect_Part__Feature" />
    </material>
  </library_materials>
  <library_visual_scenes>
    <visual_scene id="myscene">
      <node id="node0" name="node0">
        <instance_geometry url="#geometry0">
          <bind_material>
            <technique_common>
              <instance_material symbol="ref_Part__Feature" target="#mat_Part__Feature" />
            </technique_common>
          </bind_material>
        </instance_geometry>
      </node>
    </visual_scene>
  </library_visual_scenes>
  <scene>
    <instance_visual_scene url="#myscene" />
  </scene>
</COLLADA>
